<svg width="347" height="144" viewBox="0 0 347 144" fill="none" xmlns="http://www.w3.org/2000/svg">
<path d="M43.6937 3.77392C43.5565 3.86486 43.4192 3.86486 43.2362 3.81939C42.8702 3.68298 42.5957 3.86486 42.2754 3.95579C42.2297 3.95579 42.1839 3.95579 42.0924 3.95579C41.7264 4.00126 41.3604 3.91032 41.0401 4.13767C40.9943 4.18314 40.9486 4.18314 40.9028 4.13767C40.5826 4.13767 40.3081 4.0922 39.9878 4.18314C39.3015 4.41048 38.661 4.63783 37.9747 4.72877C37.5171 4.8197 37.1054 5.00158 36.6936 5.13798V5.18345H36.6478C36.2818 5.18345 35.9158 5.27439 35.5498 5.4108C34.589 5.72908 33.6282 6.00189 32.7131 6.36564C31.6608 6.77486 30.6085 7.18408 29.6019 7.72971C29.5104 7.77518 29.4647 7.77518 29.3732 7.82065C29.1902 7.82065 29.0529 7.91159 28.9157 7.95706C28.5496 8.00252 28.2294 8.50268 27.8176 8.13893C29.968 6.54752 32.3013 5.22892 34.6805 4.04673C38.7067 2.13704 42.916 0.81844 47.354 0.227344C47.9945 0.136407 48.635 0.136407 49.2756 0C51.2429 0 53.2103 0 55.1777 0C55.8182 0.227344 56.5045 0.181876 57.145 0.318282C64.7857 1.36407 71.4656 4.54689 77.2762 9.54847C84.7338 16.005 89.4464 24.1894 92.1915 33.5106C94.4334 41.1493 95.0739 48.97 94.6164 56.9271C94.2046 63.7019 92.9236 70.3404 91.0477 76.8879C90.4072 79.0249 90.0411 81.2529 89.4921 83.4354C86.1064 96.3031 80.2958 107.943 71.7401 118.174C64.8315 126.449 56.6417 133.133 46.8964 137.953C41.7264 140.499 36.2818 142.318 30.5627 143.272C28.6869 143.591 26.811 143.773 24.8894 143.864C23.6083 143.864 22.3273 143.864 21.0462 143.864C17.02 143.636 13.0852 142.909 9.33353 141.454C5.99359 140.181 2.92817 138.407 0.18301 136.134C0.137258 136.088 0.0915052 136.043 0 135.907C0.732042 136.179 1.37258 136.407 2.01312 136.634C8.87601 138.998 15.8304 139.18 22.8763 137.68C30.9288 135.952 38.1119 132.314 44.6546 127.449C51.8835 122.084 57.8313 115.536 62.8183 108.034C68.7662 99.0767 72.7924 89.3009 75.0343 78.7976C75.8578 75.0237 76.7729 71.2498 77.4134 67.4304C77.9625 63.9293 78.42 60.4282 78.6488 56.9271C78.9233 52.7439 79.0148 48.5153 78.786 44.3322C78.4657 38.1029 77.5049 31.9646 75.5833 25.9627C74.0735 21.2794 71.9231 16.869 68.8119 13.0496C67.5309 11.4582 66.1125 10.0032 64.4654 8.7755C64.3739 8.68456 64.2367 8.59362 64.1452 8.50268C64.2367 8.22987 64.0079 8.36628 63.9164 8.32081C63.9164 8.09346 63.7791 8.09346 63.5961 8.09346C63.5504 7.95706 63.4131 7.86612 63.2759 7.86612C63.1386 7.59331 62.8641 7.54784 62.6353 7.4569C62.5896 7.41143 62.4981 7.41143 62.4523 7.36596C62.4066 7.36596 62.4066 7.36596 62.4066 7.32049C62.4066 7.00221 62.1778 7.04768 61.949 7.04768C61.9033 7.04768 61.8575 7.00221 61.8118 7.00221C61.7203 6.95674 61.6288 6.91127 61.583 6.8658C61.5373 6.8658 61.5373 6.8658 61.4915 6.82033C61.4458 6.63846 61.3085 6.63846 61.1712 6.63846C61.0797 6.45658 60.9425 6.41111 60.7595 6.41111C60.5307 6.18377 60.2562 6.04736 59.9359 6.00189H59.8902L59.8444 5.95642C59.7529 5.72908 59.5242 5.77455 59.3869 5.72908H59.3411V5.68361C59.2954 5.50174 59.1124 5.50174 58.9751 5.50174H58.9294L58.8836 5.45627C58.8379 5.13798 58.5634 5.31986 58.3803 5.22892H58.3346V5.18345C57.511 4.72877 56.6417 4.50142 55.7267 4.31954C55.6352 4.31954 55.5437 4.27408 55.4522 4.27408C54.6286 3.91032 53.7593 3.77392 52.8443 3.72845C52.707 3.77392 52.6155 3.72845 52.4783 3.68298C52.341 3.54657 52.2037 3.5011 51.975 3.45564C51.1972 3.45564 50.4651 3.41017 49.6873 3.3647C47.9487 3.22829 46.2101 3.45564 44.4715 3.45564C44.197 3.54657 43.9225 3.59204 43.6937 3.77392Z" fill="#023B7E"/>
<path d="M346.53 69.8859C346.073 70.3861 346.164 71.0227 345.981 71.6138C345.615 73.0688 345.066 73.478 343.556 73.478C341.223 73.5234 338.89 73.4325 336.556 73.5689C336.053 73.6144 335.595 73.7053 335.092 73.7963C334.497 73.9781 334.177 74.4328 333.994 74.9785C333.72 75.6605 333.537 76.388 333.445 77.1155C333.354 77.9794 333.72 78.6614 334.543 79.0252C335.733 79.5708 337.014 79.7072 338.295 80.0255C339.805 80.4347 341.314 80.9349 342.641 81.7533C343.877 82.5263 344.609 83.5721 344.7 85.0725C344.883 88.2554 344.243 91.2563 342.55 93.939C341.314 95.8941 339.301 96.849 337.014 97.2127C335.961 97.3491 334.955 97.3037 333.903 97.3037C330.197 97.3037 326.491 97.3037 322.785 97.3037C322.739 97.3037 322.693 97.3037 322.693 97.3037C321.275 97.2582 320.863 96.6671 321.138 95.2576C321.412 93.7571 321.961 92.3476 322.373 90.8471C322.419 90.6652 322.419 90.4379 322.693 90.4833C322.922 90.5288 322.83 90.7562 322.83 90.8926C322.922 92.1657 323.334 92.484 324.295 92.484C327.223 92.5294 330.151 92.7568 333.079 92.393C333.537 92.3476 333.994 92.2112 334.452 92.1202C335.778 91.7565 336.327 90.7107 336.739 89.574C336.876 89.2102 336.968 88.8465 337.014 88.4827C337.197 87.3005 336.785 86.6185 335.687 86.1183C334.269 85.5272 332.713 85.209 331.249 84.8452C329.968 84.5269 328.733 84.0268 327.589 83.4357C326.399 82.7991 325.85 81.7533 325.896 80.4347C325.942 78.7069 326.079 76.9791 326.628 75.3422C327.085 74.0236 327.817 72.8414 328.687 71.7502C329.51 70.7498 330.38 69.9314 331.569 69.4313C332.164 69.2039 332.759 68.9766 333.354 68.9766C337.746 68.9766 342.184 68.9766 346.576 68.9766C346.53 69.3403 346.53 69.6131 346.53 69.8859Z" fill="#EE3D1F"/>
<path d="M21.0459 143.908C22.327 143.908 23.608 143.908 24.8891 143.908C24.8891 143.954 24.8891 143.954 24.8891 143.999C23.608 143.999 22.327 143.999 21.0459 143.999C21.0459 143.954 21.0459 143.908 21.0459 143.908Z" fill="#FBFCFC"/>
<path d="M114.427 120.174C116.166 119.492 117.904 118.764 119.826 118.037C118.774 117.718 117.859 117.718 116.989 117.582C116.166 117.446 115.342 117.4 114.564 117.264C114.244 117.218 113.97 117.309 113.695 117.491C110.996 119.264 108.296 121.083 105.597 122.856C105.368 123.038 105.277 123.22 105.277 123.493C105.414 127.676 105.505 131.905 105.643 136.088C105.643 136.543 105.597 136.77 105.048 136.861C100.106 137.679 95.1195 138.316 90.1324 138.771C85.3284 139.225 80.5244 139.453 75.7203 139.589C71.8771 139.68 68.0339 139.725 64.1907 139.634C63.8704 139.634 63.5044 139.634 63.0469 139.498C64.0992 139.316 65.0142 139.089 65.975 138.907C69.864 138.179 73.753 137.452 77.642 136.77C79.3806 136.452 81.1649 136.133 82.9035 135.815C83.2695 135.77 83.3153 135.633 83.0408 135.36C81.6224 133.769 80.2041 132.178 78.7858 130.632C77.4589 129.131 76.0864 127.631 74.7595 126.13C74.5308 125.903 74.5765 125.721 74.7595 125.494C76.4524 123.038 78.1452 120.628 79.8381 118.173C80.0211 117.9 80.2041 117.855 80.5244 117.946C82.3545 118.628 84.2303 119.219 86.1519 119.628C90.5442 120.538 94.9364 120.628 99.2829 119.264C102.531 118.219 105.368 116.4 107.656 113.854C110.721 110.489 112.414 106.442 113.375 102.077C114.244 98.0759 114.29 94.0292 113.924 89.9824C113.604 86.5723 112.917 83.2076 111.956 79.9338C110.675 75.3869 108.891 71.0219 106.741 66.7933C104.956 63.2922 102.989 59.9275 100.747 56.6537C100.564 56.3809 100.427 56.0627 100.427 55.6989C100.335 50.0608 100.29 44.4681 100.198 38.8299C100.198 38.3753 100.106 37.9206 100.198 37.4659C100.747 37.7842 101.159 38.1934 101.616 38.6026C104.178 40.7851 106.695 42.9676 109.303 45.1501C109.715 45.5139 109.76 45.7867 109.532 46.2414C108.159 49.5151 106.832 52.8344 105.505 56.1081C105.368 56.4264 105.322 56.7447 105.551 57.063C107.152 60.0184 108.754 62.9739 110.355 65.8839C110.492 66.1567 110.675 66.2932 110.996 66.3386C114.839 66.8842 118.728 67.4753 122.571 68.021C122.983 68.0664 123.029 68.3393 123.12 68.6121C124.31 71.8404 125.499 75.0686 126.689 78.2969C127.512 80.5704 128.336 82.7984 129.205 85.0718C129.342 85.4356 129.342 85.572 128.931 85.7538C125.636 86.9815 122.388 88.2092 119.14 89.4823C118.819 89.6187 118.636 89.8006 118.591 90.1643C118.316 92.3013 118.042 94.4839 117.767 96.6209C117.676 97.1665 117.767 97.5303 118.362 97.8486C122.159 100.031 125.957 102.305 129.754 104.532C130.074 104.714 130.12 104.896 130.029 105.215C129.251 107.988 128.473 110.762 127.695 113.535C127.375 114.627 127.101 115.763 126.735 116.855C126.506 116.9 126.552 117.082 126.506 117.218C126.414 117.718 126.094 118.128 125.591 118.128C124.859 118.128 124.31 118.537 123.578 118.673C122.708 118.81 121.793 118.946 120.97 119.264C120.466 119.446 119.917 119.401 119.414 119.628C118.819 119.901 118.133 119.992 117.447 120.128C116.715 120.31 115.937 120.401 115.205 120.628C115.022 120.674 114.839 120.765 114.656 120.81C114.153 120.628 114.29 120.447 114.427 120.174Z" fill="#EF3C1E"/>
<path d="M319.994 124.949C317.477 124.812 315.007 124.676 312.49 124.585C307.915 124.357 303.34 124.176 298.764 123.948C291.215 123.63 283.62 123.403 276.071 123.175C263.535 122.857 250.999 122.766 238.462 122.902C229.998 122.993 221.488 123.221 213.024 123.539C204.011 123.903 194.997 124.403 185.984 125.13C176.513 125.903 167.043 126.858 157.572 128.04C151.487 128.813 145.402 129.677 139.316 130.678C130.486 132.133 121.702 133.815 112.963 135.77C112.414 135.907 111.819 135.998 111.27 136.179C110.95 136.27 110.813 136.225 110.767 135.861C110.309 132.36 109.806 128.859 109.303 125.358C109.257 124.949 109.486 124.949 109.76 124.903C113.329 124.312 116.898 123.721 120.512 123.13C125.865 122.266 131.218 121.538 136.571 120.856C141.513 120.22 146.5 119.674 151.441 119.174C157.663 118.537 163.931 118.037 170.199 117.583C174.363 117.31 178.572 117.082 182.781 116.855C192.801 116.355 202.867 116.173 212.932 116.173C222.129 116.173 231.371 116.4 240.567 116.81C247.064 117.082 253.561 117.492 260.058 117.946C266.188 118.401 272.319 118.901 278.404 119.492C284.169 120.038 289.934 120.72 295.699 121.402C303.431 122.357 311.163 123.403 318.895 124.539C319.262 124.585 319.628 124.676 319.994 124.721C319.994 124.903 319.994 124.949 319.994 124.949Z" fill="#033C7E"/>
<path d="M146.729 74.0687C146.317 75.2509 145.951 76.4331 145.539 77.6153C143.663 83.1625 141.833 88.6643 139.957 94.2115C139.911 94.3933 139.866 94.6207 139.774 94.8025C139.317 95.8938 139.408 96.6668 140.689 97.4397C139.728 97.4397 138.905 97.4397 138.036 97.4397C136.572 97.4397 135.107 97.4397 133.643 97.4397C132.728 97.4397 132.271 97.1669 132.134 96.5758C132.042 96.1666 132.088 95.8029 132.225 95.3936C133.872 90.8922 135.565 86.4363 137.212 81.9349C139.362 76.2058 141.467 70.4312 143.617 64.7476C144.029 63.7018 143.938 62.9743 142.885 62.2923C143.343 62.2923 143.572 62.2923 143.846 62.2923C146.134 62.2923 148.421 62.2923 150.755 62.2923C151.899 62.2923 152.356 62.747 152.493 63.8837C152.859 68.0668 153.225 72.2045 153.592 76.3876C153.775 78.3428 153.958 80.298 154.141 82.2531C154.141 82.2986 154.186 82.3895 154.186 82.4805C154.369 82.3895 154.415 82.2531 154.461 82.1167C156.016 78.6156 157.526 75.16 159.082 71.6589C160.043 69.4764 161.003 67.2939 162.01 65.1114C162.696 63.6109 162.651 63.2926 161.278 62.2923C161.69 62.2923 162.056 62.2923 162.376 62.2923C164.755 62.2923 167.134 62.2923 169.513 62.2923C170.84 62.2923 171.527 62.8834 171.572 64.202C171.664 67.2939 171.71 70.3858 171.755 73.4776C171.893 80.7981 172.03 88.1641 172.167 95.4846C172.167 96.303 172.533 96.8487 173.174 97.3943C172.579 97.3943 171.938 97.3943 171.344 97.3943C169.651 97.3943 167.958 97.3943 166.265 97.3943C166.082 97.3943 165.945 97.3943 165.762 97.3488C164.526 97.1215 164.298 96.8486 164.298 95.621C164.206 88.9825 164.069 82.3895 163.977 75.7511C163.977 75.5692 163.932 75.3873 163.932 75.2509C163.703 75.2509 163.703 75.4328 163.657 75.5692C161.735 80.0252 159.768 84.5266 157.847 88.9825C156.703 91.5743 155.605 94.166 154.507 96.7577C154.278 97.2579 154.049 97.4397 153.5 97.3943C152.127 97.3488 150.709 97.3488 149.337 97.3943C148.879 97.3943 148.742 97.2579 148.696 96.8032C148.284 91.3014 147.827 85.7997 147.415 80.3434C147.278 78.4792 147.095 76.615 146.957 74.7508C146.957 74.5234 146.912 74.2961 146.866 74.0687C146.82 74.0687 146.774 74.0687 146.729 74.0687Z" fill="#EF3C1F"/>
<path d="M221.809 104.487C221.351 104.487 220.894 104.487 220.391 104.487C218.332 104.487 216.273 104.487 214.214 104.487C212.979 104.487 212.704 104.169 213.024 102.987C213.711 100.259 214.351 97.5761 215.037 94.848C215.083 94.6206 215.22 94.3933 215.083 94.075C214.534 95.0299 214.031 95.8483 213.573 96.7577C213.299 97.2578 212.979 97.5306 212.43 97.5306C210.188 97.5306 207.946 97.6671 205.704 97.5306C202.135 97.3033 199.893 94.3024 199.848 91.3014C199.802 88.5278 200.305 85.8451 200.991 83.208C201.723 80.2525 202.822 77.3879 204.24 74.6598C205.109 72.9775 206.161 71.386 207.763 70.2039C208.769 69.4764 209.913 69.2035 211.149 69.0671C211.972 68.9762 212.796 68.9307 213.665 68.9307C218.103 68.9307 222.541 68.9762 226.979 68.9307C228.351 68.9307 228.901 69.7492 228.58 71.0678C227.848 74.2051 227.07 77.3879 226.338 80.5253C225.149 85.4814 223.959 90.4375 222.724 95.4391C222.129 97.8035 221.58 100.213 221.031 102.578C220.802 103.351 221.031 104.033 221.809 104.487ZM211.835 91.7106C213.116 91.7561 214.397 91.8016 215.541 91.0286C215.907 90.8013 216.181 90.483 216.273 90.0283C217.462 85.1631 218.698 80.2525 219.887 75.3873C219.979 74.9326 219.842 74.8872 219.475 74.8872C218.057 74.8872 216.639 74.8872 215.22 74.8872C214.854 74.8872 214.443 74.8871 214.077 74.9781C212.018 75.4782 210.691 76.7514 210.142 78.7975C209.547 80.9345 208.952 83.0715 208.358 85.2541C208.037 86.5272 207.626 87.7548 207.671 89.0734C207.717 90.6649 208.586 91.6197 210.188 91.7106C210.737 91.7106 211.286 91.7106 211.835 91.7106Z" fill="#EF3C1F"/>
<path d="M188.959 92.8473C188.41 93.5748 187.952 94.3478 187.54 95.1662C187.037 96.1211 186.213 96.7577 185.298 97.2578C185.024 97.3942 184.749 97.3942 184.429 97.3942C182.553 97.3942 180.632 97.3942 178.756 97.3942C176.743 97.3942 175.187 96.0302 174.821 94.075C174.455 92.0744 174.638 90.0737 175.05 88.0731C175.553 85.5268 176.377 83.117 177.52 80.7981C178.436 78.9339 179.945 78.2063 181.958 78.0699C184.109 77.9335 186.259 78.0245 188.41 77.979C189.553 77.979 190.697 77.9335 191.841 78.0245C192.939 78.0699 193.488 77.6152 193.534 76.524C193.534 76.2057 193.625 75.8874 193.58 75.6146C193.488 74.5688 193.076 74.1596 192.024 74.1596C190.423 74.1596 188.867 74.1596 187.266 74.1596C186.213 74.1596 185.161 74.1596 184.109 74.1596C183.606 74.1596 183.148 74.0687 182.691 73.8868C181.913 73.523 181.638 73.1593 181.73 72.2954C181.821 71.386 182.004 70.5221 182.096 69.6127C182.141 69.2944 182.279 69.2035 182.599 69.2035C187.403 69.2035 192.207 69.158 197.011 69.249C200.031 69.2944 201.815 71.6134 201.175 74.5234C199.985 79.9342 198.795 85.345 197.652 90.7558C197.377 91.9834 197.103 93.2565 196.874 94.4842C196.782 94.8934 196.782 95.3026 196.828 95.7119C196.874 96.3939 197.057 96.985 197.652 97.4397C196.325 97.4397 194.952 97.4397 193.625 97.4397C192.573 97.4397 191.521 97.4397 190.468 97.4397C189.233 97.4397 188.547 96.6212 188.776 95.3936C188.913 94.6661 189.142 93.9386 189.187 93.2111C189.553 92.8473 189.416 92.3017 189.553 91.847C189.37 92.1653 189.05 92.4381 188.959 92.8473ZM186.488 90.8467C187.495 90.8467 188.455 90.8467 189.462 90.8467C189.691 90.8467 189.919 90.8467 190.011 90.5284C190.56 88.2095 191.109 85.9361 191.658 83.6171C191.75 83.2989 191.658 83.1625 191.338 83.2079C189.462 83.2079 187.586 83.2079 185.71 83.2534C184.704 83.2534 183.88 83.7081 183.377 84.6629C182.782 85.7087 182.37 86.8 182.096 87.9822C181.958 88.5278 181.913 89.0734 182.05 89.619C182.233 90.3465 182.965 90.8922 183.697 90.8922C184.521 90.8467 185.527 90.8467 186.488 90.8467Z" fill="#EE3D1F"/>
<path d="M318.987 97.3943C316.471 97.3943 314 97.3943 311.484 97.3943C310.523 97.3943 309.837 96.3939 310.065 95.4391C310.294 94.4843 310.523 93.5749 310.752 92.6655C310.797 92.4836 310.843 92.3017 310.752 92.1199C310.34 92.4382 310.203 92.9383 309.928 93.3021C309.333 94.2569 308.876 95.3027 308.098 96.1211C307.366 96.9396 306.451 97.4852 305.261 97.4397C303.614 97.3488 301.921 97.4397 300.274 97.4397C297.895 97.4397 296.248 95.9393 296.019 93.5749C295.745 90.9831 296.202 88.4369 296.889 85.9361C297.392 84.0264 298.078 82.2076 299.039 80.4798C299.771 79.1158 300.869 78.3428 302.379 78.1609C303.34 78.07 304.346 77.979 305.307 77.979C307.641 77.979 310.02 77.979 312.353 77.979C312.811 77.979 313.314 78.07 313.771 77.979C314.229 77.8881 314.549 77.6608 314.686 77.2061C314.915 76.5695 314.961 75.9329 314.824 75.2964C314.641 74.387 314.275 74.1142 313.177 74.1142C310.614 74.1142 308.052 74.1142 305.444 74.1142C304.941 74.1142 304.438 74.0233 303.98 73.7959C303.203 73.4322 302.928 72.932 303.02 72.1136C303.157 71.2497 303.294 70.4312 303.386 69.5673C303.431 69.2035 303.614 69.1126 303.98 69.1126C308.693 69.1126 313.451 69.1126 318.164 69.1126C319.399 69.1126 320.589 69.34 321.412 70.3403C322.327 71.3861 322.83 72.6592 322.556 74.0687C321.87 77.5244 321.092 80.9345 320.314 84.3902C319.628 87.6184 318.896 90.8467 318.209 94.0296C318.072 94.6661 318.072 95.3482 318.164 96.0302C318.255 96.6213 318.484 97.076 318.987 97.3943ZM307.686 90.8013C307.686 90.8467 307.686 90.8467 307.686 90.8013C308.693 90.8013 309.654 90.8013 310.66 90.8013C311.026 90.8013 311.209 90.7558 311.301 90.3011C311.392 89.801 311.53 89.3008 311.667 88.7552C312.079 87.0274 312.49 85.2995 312.902 83.5717C312.994 83.2534 312.994 83.0716 312.582 83.117C310.706 83.117 308.876 83.117 307 83.1625C306.268 83.1625 305.536 83.2989 305.033 83.9355C303.935 85.4359 303.248 87.0728 303.203 88.937C303.157 90.0738 303.889 90.7558 305.033 90.7558C305.902 90.8467 306.817 90.8013 307.686 90.8013Z" fill="#EE3D1F"/>
<path d="M277.809 97.3951C275.705 97.3951 273.783 97.3951 271.861 97.3951C271.358 97.3951 270.855 97.4405 270.352 97.3496C269.208 97.1677 268.75 96.5766 269.025 95.4399C269.528 93.2119 270.077 91.0294 270.626 88.8469C271.45 85.4822 272.227 82.163 273.051 78.7983C273.554 76.6158 274.103 74.4787 274.652 72.2962C274.927 71.1595 275.064 70.0682 274.058 69.0679C274.332 69.0679 274.515 69.0225 274.698 69.0225C276.574 69.0225 278.496 69.0225 280.371 69.0225C281.058 69.0225 281.607 69.2953 282.11 69.7045C282.522 70.0682 282.705 70.5229 282.613 71.0686C282.522 71.4778 282.476 71.8415 282.522 72.2962C282.979 71.887 283.254 71.3868 283.483 70.9322C284.215 69.5681 285.358 69.0225 286.868 69.0225C288.607 69.0679 290.345 69.0225 292.084 69.0225C294.097 69.0679 295.744 70.3411 296.156 72.2053C296.339 73.0692 296.293 73.9331 296.065 74.797C294.829 79.9805 293.594 85.2094 292.359 90.3928C292.038 91.7569 291.718 93.121 291.398 94.485C291.123 95.5308 291.398 96.3947 292.176 97.1222C292.267 97.2132 292.359 97.2586 292.313 97.4405C292.084 97.4405 291.81 97.4405 291.581 97.4405C289.522 97.4405 287.463 97.4405 285.404 97.4405C284.26 97.4405 283.711 96.8039 283.986 95.7127C284.764 92.348 285.541 89.0288 286.319 85.6641C286.96 82.9359 287.6 80.2078 288.241 77.4797C288.378 76.8886 288.195 76.2975 288.058 75.7064C287.921 75.2972 287.555 75.1153 287.189 75.0244C285.816 74.7515 284.443 74.7515 283.071 75.1153C282.156 75.3426 281.698 75.9337 281.469 76.7976C281.103 78.3436 280.692 79.8895 280.28 81.4355C279.182 85.755 278.13 90.0291 277.031 94.3486C276.986 94.485 276.986 94.6214 276.94 94.7579C276.482 95.7582 276.574 96.6675 277.809 97.3951Z" fill="#EE3D1F"/>
<path d="M242.626 96.4398C241.985 97.1673 241.116 97.3491 240.201 97.3491C237.685 97.3946 235.123 97.3946 232.606 97.3491C231.279 97.3491 230.227 96.8035 229.312 95.8487C228.534 94.9848 228.626 93.939 228.763 92.8932C229.175 90.5288 229.815 88.2099 230.319 85.8455C231.005 82.89 231.691 79.9346 232.377 76.9791C232.835 75.0694 233.247 73.1142 233.75 71.2045C233.979 70.3406 233.979 69.6131 232.972 68.9766C233.384 68.9766 233.567 68.9766 233.796 68.9766C235.9 68.9766 238.005 68.9766 240.155 68.9766C240.979 68.9766 241.299 69.3403 241.345 70.1133C241.345 70.568 241.208 70.9772 241.116 71.3864C239.744 77.1155 238.417 82.8446 237.044 88.5736C236.907 89.0738 236.815 89.6194 236.815 90.1196C236.815 91.0744 237.09 91.4382 238.005 91.5746C239.286 91.7565 240.613 91.8019 241.94 91.711C242.214 91.6655 242.534 91.6655 242.809 91.6201C243.77 91.5746 244.365 91.0744 244.685 90.1651C245.188 88.801 245.417 87.3915 245.737 85.9819C246.606 81.9807 247.476 77.9794 248.299 73.9781C248.528 72.8869 248.757 71.7956 248.986 70.7498C249.123 70.1133 249.031 69.5222 248.528 68.9766C249.306 68.9766 249.946 68.9766 250.633 68.9766C252.143 68.9766 253.607 68.9766 255.116 68.9766C255.757 68.9766 256.077 69.2039 256.215 69.8405C256.306 70.2952 256.352 70.7044 256.215 71.2045C255.345 75.0694 254.476 78.9342 253.607 82.7991C252.692 86.8458 251.822 90.8926 250.907 94.9393C250.678 95.8941 250.816 96.7126 251.868 97.3491C250.999 97.3491 250.312 97.3491 249.626 97.3491C248.025 97.3491 246.378 97.3491 244.776 97.3491C244.044 97.3491 243.587 97.0309 243.312 96.3943C243.175 95.7123 243.541 95.0757 243.587 94.4391C243.221 95.0757 242.992 95.7577 242.626 96.4398Z" fill="#EE3D1F"/>
<path d="M207.076 25.2804C209.318 25.2804 211.514 25.2804 213.756 25.2804C214.35 25.2804 214.213 25.6896 214.122 26.0079C213.847 27.1901 213.527 28.4177 213.252 29.5999C212.932 30.9185 212.612 32.2371 212.291 33.5557C212.246 33.6921 212.246 33.7831 212.291 33.965C212.795 33.1465 213.298 32.3281 213.71 31.4642C213.893 31.1459 214.03 30.964 214.396 30.9185C214.625 30.8731 214.854 30.8731 215.082 30.8731C216.501 30.8731 217.965 30.8731 219.383 30.8731C222.311 30.8731 224.599 33.0556 224.69 35.9656C224.782 38.4664 224.187 40.9217 223.547 43.2861C222.86 45.8778 221.854 48.3786 220.435 50.6975C220.069 51.2886 219.658 51.7888 219.2 52.2889C218.102 53.4256 216.775 54.0167 215.22 54.0167C211.148 54.0167 207.076 54.0167 203.004 54.0167C202.866 54.0167 202.729 54.0167 202.638 53.9713C201.723 53.8349 201.265 53.1983 201.494 52.2889C203.507 43.8317 205.566 35.42 207.579 26.9627C207.808 26.2807 207.716 25.7351 207.076 25.2804ZM210.507 49.2425C211.605 49.2425 212.657 49.288 213.71 48.8333C215.448 48.1058 216.592 46.9691 217.05 45.1048C217.37 43.7862 217.828 42.4676 218.148 41.149C218.422 40.0123 218.651 38.8756 218.514 37.6934C218.377 36.5112 217.736 35.7382 216.592 35.6928C215.311 35.6473 214.03 35.5109 212.749 35.9201C211.925 36.1929 211.468 36.6476 211.285 37.4661C210.965 38.7847 210.644 40.0578 210.324 41.3764C209.729 43.8317 209.089 46.3325 208.494 48.7878C208.402 49.1516 208.448 49.288 208.86 49.2425C209.409 49.197 209.958 49.2425 210.507 49.2425Z" fill="#033C7E"/>
<path d="M181.271 54.0168C179.121 54.0168 177.153 54.0168 175.186 54.0168C174.591 54.0168 174.134 53.3802 174.271 52.7891C174.317 52.5163 174.408 52.2435 174.363 51.9252C174.225 52.1526 174.088 52.3345 174.042 52.6073C173.722 53.6076 172.944 53.9713 172.029 54.0168C169.742 54.1077 167.408 54.1532 165.121 54.0168C163.153 53.9259 162.055 52.4254 162.375 50.5157C162.879 47.5148 163.702 44.5593 164.388 41.6038C165.075 38.6028 165.807 35.6019 166.493 32.601C166.63 31.9644 166.63 31.3733 165.99 30.9641C166.127 30.7822 166.31 30.8731 166.402 30.8731C168.049 30.8731 169.742 30.8731 171.389 30.8731C172.487 30.8731 172.807 31.2824 172.578 32.3736C172.349 33.3285 172.121 34.2378 171.892 35.1927C170.977 39.1485 170.016 43.1043 169.101 47.1055C169.009 47.4693 168.964 47.833 168.918 48.2423C168.872 48.9243 169.147 49.288 169.833 49.379C171.251 49.6063 172.715 49.5609 174.134 49.379C174.82 49.288 175.14 48.8333 175.323 48.2877C175.552 47.6966 175.689 47.1055 175.827 46.5144C176.833 41.7857 177.84 37.0114 178.892 32.2827C178.984 31.7825 178.846 31.3733 178.526 30.9186C179.761 30.9186 180.905 30.9186 182.049 30.9186C182.552 30.9186 183.056 30.9186 183.513 30.9186C184.657 30.9186 185.114 31.4642 184.84 32.6464C184.52 34.1924 184.154 35.7383 183.788 37.3297C182.69 42.2404 181.591 47.1055 180.493 52.0162C180.402 52.6982 180.402 53.4257 181.271 54.0168Z" fill="#043C7E"/>
<path d="M224.143 46.7424C224.28 42.1046 225.424 37.9669 228.215 34.3748C229.953 32.1469 232.241 30.9647 235.077 30.8737C237.319 30.7828 239.561 31.0556 241.757 31.6012C243.633 32.1014 244.548 33.3745 244.96 35.1478C245.372 36.9666 245.143 38.7399 244.869 40.5586C244.457 43.3777 243.633 46.1058 242.352 48.6521C241.346 50.6527 239.836 52.0168 237.823 52.8352C234.711 54.1538 231.555 54.3357 228.306 53.4718C225.881 52.8352 224.554 51.2893 224.371 48.7885C224.234 48.1064 224.188 47.3335 224.143 46.7424ZM239.744 38.1942C239.744 37.8305 239.698 37.5122 239.698 37.1484C239.561 35.8298 238.921 35.1023 237.594 34.9205C236.77 34.7841 235.947 34.7841 235.123 34.9659C233.979 35.1933 233.019 35.7389 232.424 36.7847C231.829 37.785 231.371 38.8308 230.96 39.8766C230.136 42.0591 229.541 44.3325 229.404 46.6514C229.267 48.4247 229.999 49.425 231.692 49.9707C231.966 50.0616 232.241 50.1525 232.561 50.1525C234.117 50.2435 235.626 50.1071 236.45 48.6066C238.28 45.3328 239.515 41.9227 239.744 38.1942Z" fill="#043C7E"/>
<path d="M147.872 42.0592C147.872 41.9683 147.918 41.9228 147.918 41.8319C147.964 41.8319 148.055 41.8319 148.101 41.8319C148.055 41.4226 148.375 41.0589 148.375 40.6497C148.375 40.195 148.467 39.6948 148.65 39.2856C149.107 38.3308 149.107 37.285 149.382 36.2847C149.565 35.6026 149.748 34.8751 149.885 34.1476C150.068 33.4201 150.297 32.7381 150.297 31.9651C150.297 31.9196 150.297 31.8742 150.343 31.8287C150.526 31.465 150.938 31.1921 150.617 30.6465C150.297 30.1464 149.977 30.601 149.702 30.601C147.964 30.5556 146.179 30.5556 144.395 30.5556C144.029 30.5556 143.846 30.4646 143.937 30.1009C144.029 29.6462 144.12 29.1915 144.212 28.6914C144.349 27.8729 144.578 27.0999 144.807 26.2815C144.852 26.236 144.898 26.236 144.944 26.1906C145.31 25.9632 145.722 25.9632 146.088 25.9632C151.807 25.9632 157.526 25.9632 163.291 25.9632C164.16 25.9632 165.121 26.1906 165.761 25.1902C165.807 25.6449 165.716 25.9177 165.624 26.1906C165.395 27.2363 165.167 28.2821 164.938 29.3279C164.709 30.3737 164.343 30.6465 163.291 30.6465C161.461 30.6465 159.585 30.6465 157.755 30.6465C157.343 30.6465 157.16 30.7375 157.068 31.1467C155.97 35.9664 154.827 40.7861 153.683 45.6512C153.134 48.0156 152.585 50.3345 152.036 52.6989C151.898 53.3355 152.036 53.6538 152.722 54.063C152.31 54.063 152.036 54.1085 151.761 54.1085C150.022 54.1539 148.284 54.1539 146.545 54.1994C145.356 54.1994 144.898 53.6538 145.173 52.517C145.676 50.4255 146.225 48.3339 146.728 46.2423C147.369 45.6058 147.14 44.7419 147.277 43.9689C147.323 43.878 147.323 43.787 147.369 43.6961C147.781 43.1505 148.055 42.6503 147.872 42.0592Z" fill="#033C7E"/>
<path d="M263.947 97.3939C261.889 97.3939 259.784 97.3939 257.725 97.3939C256.49 97.3939 255.895 96.4845 256.169 95.1659C256.581 93.2562 257.039 91.3011 257.496 89.3914C258.503 84.9809 259.464 80.5704 260.47 76.1599C260.699 75.1596 260.928 74.1593 261.157 73.159C261.523 71.3402 261.431 70.8401 260.287 69.3851C260.47 69.2487 260.699 69.2941 260.928 69.2941C262.987 69.2941 265.045 69.2941 267.104 69.2941C268.202 69.2941 268.889 70.0671 268.614 71.2038C268.111 73.4318 267.608 75.6143 267.104 77.8423C266.098 82.2982 265.091 86.7087 264.085 91.1647C263.81 92.4378 263.49 93.7564 263.215 95.0295C263.078 95.848 262.987 96.7573 263.947 97.3939Z" fill="#EE3D1F"/>
<path d="M192.344 54.017C190.286 54.017 188.364 54.0624 186.397 54.017C185.664 54.017 185.207 53.244 185.39 52.3801C185.802 50.5159 186.259 48.6516 186.671 46.7874C187.815 41.9677 188.913 37.148 190.057 32.3738C190.194 31.8281 190.102 31.3734 189.691 31.0097C189.828 30.8278 189.965 30.9188 190.102 30.9188C191.521 30.9188 192.893 30.9188 194.312 30.9188C196.142 30.9188 196.325 31.1006 196.416 32.9649C196.737 32.7375 196.828 32.4192 196.965 32.1009C197.377 31.237 198.063 30.8733 198.979 30.8733C200.58 30.8733 202.135 30.8733 203.737 30.8733C204.24 30.8733 204.24 31.0097 204.149 31.4189C203.92 32.2828 203.691 33.1467 203.462 34.0561C203.233 34.92 202.501 35.5566 201.586 35.5566C200.168 35.5566 198.795 35.5566 197.377 35.5566C196.142 35.5566 195.364 36.1477 195.044 37.3753C193.854 42.3769 192.665 47.3785 191.521 52.3801C191.384 53.0166 191.704 53.5168 192.344 54.017Z" fill="#043C7E"/>
<path d="M266.098 62.611C266.921 62.611 267.745 62.6565 268.568 62.611C269.621 62.5655 269.941 63.2021 269.895 64.1115C269.804 65.2482 269.438 66.3394 269.163 67.4307C269.117 67.6126 268.98 67.658 268.797 67.658C267.013 67.658 265.228 67.658 263.444 67.6126C262.803 67.6126 262.254 66.976 262.346 66.3394C262.529 65.2027 262.758 64.066 262.941 62.9293C262.987 62.6565 263.124 62.611 263.398 62.611C264.268 62.611 265.183 62.611 266.098 62.611Z" fill="#EE3D1F"/>
<path d="M102.898 90.0741C102.853 91.62 102.715 93.4843 101.983 95.303C100.839 98.0766 98.689 99.4862 95.8066 99.9408C94.3883 100.168 93.0157 100.077 91.5974 99.9408C91.3229 99.8954 91.0026 99.9863 91.0483 99.4862C91.0941 99.0769 91.1856 98.8951 91.6889 98.9405C93.2902 99.1679 94.9373 99.2133 96.5387 98.8041C99.2838 98.1221 100.839 96.3488 101.526 93.6661C102.075 91.5291 102.029 89.3011 101.8 87.1186C101.388 83.2538 100.382 79.5253 99.2381 75.7969C99.1923 75.615 99.1466 75.3876 99.055 75.2058C98.8263 74.7965 99.055 74.6601 99.4211 74.5237C99.7413 74.4328 99.8786 74.4783 99.9701 74.7965C101.068 78.2976 102.029 81.7988 102.578 85.3908C102.761 86.8458 102.898 88.2553 102.898 90.0741Z" fill="#CE312A"/>
<path d="M188.867 62.2928C190.605 62.2473 192.344 62.2473 194.128 62.2928C194.22 62.4292 194.265 62.5656 194.357 62.7475C194.128 62.7475 194.128 62.8839 194.128 63.0657C193.899 63.1567 193.625 63.2476 193.716 63.6114C193.076 63.9297 192.847 64.6117 192.39 65.1573C192.344 65.2028 192.39 65.2937 192.39 65.3847C191.841 66.2486 191.246 66.9761 190.605 67.7945C189.736 67.7945 188.912 67.749 188.043 67.7945C187.54 67.84 187.082 67.6126 186.579 67.749C186.304 67.84 185.938 67.5672 186.076 67.2489C186.487 66.5214 186.716 65.7029 187.037 64.9754C187.311 64.3389 187.677 63.7023 187.814 63.0203C187.86 62.7475 188.089 62.5656 188.409 62.6111C188.592 62.5201 188.821 62.5656 188.867 62.2928Z" fill="#EE3D1F"/>
<path d="M257.496 109.171C257.496 108.534 257.496 107.852 257.496 107.216C257.496 106.943 257.587 106.806 257.862 106.852C258.365 106.943 258.96 106.579 259.371 107.079C259.371 107.079 259.509 107.034 259.6 106.988C260.287 106.715 260.973 106.534 261.568 107.216C261.705 107.352 261.796 107.261 261.888 107.17C262.345 106.761 262.894 106.715 263.489 106.761C264.359 106.852 264.816 107.352 264.816 108.216C264.816 109.171 264.816 110.08 264.816 111.035C264.816 111.399 264.725 111.535 264.313 111.535C263.443 111.535 263.443 111.535 263.443 110.626C263.443 109.944 263.443 109.307 263.443 108.625C263.443 108.17 263.306 107.807 262.757 107.807C262.254 107.807 262.025 108.17 262.025 108.58C261.979 109.398 261.979 110.171 262.025 110.989C262.025 111.399 261.934 111.581 261.522 111.49C261.385 111.444 261.247 111.49 261.064 111.49C260.698 111.535 260.653 111.399 260.653 111.08C260.653 110.262 260.653 109.489 260.653 108.671C260.653 108.216 260.561 107.807 260.012 107.807C259.554 107.761 259.28 108.079 259.234 108.671C259.234 109.489 259.234 110.262 259.234 111.08C259.234 111.399 259.188 111.581 258.822 111.535C258.365 111.49 257.77 111.717 257.496 111.444C257.267 111.217 257.404 110.626 257.404 110.171C257.496 109.898 257.496 109.534 257.496 109.171Z" fill="#26221F"/>
<path d="M227.757 108.262C227.757 107.307 227.757 106.398 227.757 105.443C227.757 105.125 227.848 104.943 228.214 104.988C229.541 104.988 230.914 104.988 232.24 104.988C232.835 104.988 232.561 105.397 232.606 105.625C232.652 105.897 232.652 106.125 232.24 106.125C231.6 106.079 230.959 106.125 230.319 106.125C229.999 106.125 229.816 106.17 229.861 106.58C229.907 107.853 229.724 107.58 230.868 107.625C231.097 107.625 231.325 107.671 231.508 107.625C232.012 107.534 232.103 107.762 232.103 108.216C232.103 108.626 232.012 108.808 231.554 108.762C231.142 108.717 230.731 108.762 230.319 108.762C229.907 108.717 229.861 108.898 229.861 109.262C229.861 110.535 229.861 110.535 231.097 110.535C231.508 110.535 231.92 110.535 232.332 110.535C232.79 110.535 232.652 110.854 232.652 111.081C232.652 111.308 232.835 111.672 232.332 111.672C230.914 111.672 229.495 111.672 228.077 111.672C227.711 111.672 227.757 111.49 227.757 111.263C227.757 110.217 227.757 109.217 227.757 108.262Z" fill="#26221F"/>
<path d="M237.96 110.171C237.96 111.126 237.96 112.081 237.96 113.036C237.96 113.354 237.868 113.445 237.548 113.49C236.175 113.49 236.175 113.536 236.175 112.172C236.175 111.535 236.175 111.535 235.535 111.672C234.254 111.944 233.384 111.353 233.156 110.08C233.064 109.489 233.064 108.898 233.201 108.307C233.43 107.261 234.162 106.715 235.169 106.897C235.809 107.034 236.358 106.943 236.953 106.943C237.96 106.943 237.96 106.943 237.96 107.943C237.96 108.307 237.96 108.716 237.96 109.08C237.96 109.398 237.96 109.762 237.96 110.171ZM236.175 109.307C236.175 109.08 236.175 108.853 236.175 108.671C236.221 108.216 236.084 107.943 235.626 107.852C235.077 107.761 234.665 107.943 234.528 108.443C234.391 108.989 234.345 109.535 234.528 110.035C234.665 110.489 235.077 110.671 235.626 110.626C236.13 110.58 236.267 110.308 236.175 109.853C236.175 109.671 236.175 109.489 236.175 109.307Z" fill="#241F1D"/>
<path d="M307 108.307C307 109.262 307 110.217 307 111.172C307 111.49 306.908 111.626 306.588 111.581C306.085 111.49 305.581 111.717 305.124 111.444C305.078 111.399 304.895 111.535 304.803 111.581C303.614 112.036 302.516 111.49 302.241 110.262C302.15 109.762 302.104 109.307 302.15 108.807C302.287 107.307 303.202 106.579 304.666 106.898C305.215 106.988 305.261 106.852 305.215 106.397V106.352C305.215 104.988 305.215 105.033 306.542 105.033C306.908 105.033 307 105.124 307 105.488C307 106.397 307 107.352 307 108.307ZM305.215 109.216C305.215 109.035 305.169 108.807 305.215 108.625C305.307 108.125 305.078 107.898 304.62 107.852C304.117 107.807 303.751 107.898 303.568 108.398C303.385 108.944 303.385 109.535 303.614 110.08C303.751 110.535 304.163 110.717 304.666 110.626C305.124 110.535 305.307 110.262 305.261 109.808C305.215 109.626 305.215 109.398 305.215 109.216Z" fill="#241F1D"/>
<path d="M246.651 110.172C246.651 109.217 246.651 108.307 246.651 107.353C246.651 106.943 246.788 106.807 247.155 106.898C247.612 106.989 248.115 106.671 248.527 107.08C248.619 107.171 248.71 107.034 248.802 106.989C250.174 106.398 251.226 106.989 251.455 108.444C251.547 108.899 251.547 109.399 251.455 109.853C251.318 111.217 250.311 111.9 248.939 111.581C248.481 111.445 248.298 111.536 248.39 112.036C248.436 112.354 248.39 112.672 248.39 112.991C248.39 113.082 248.436 113.218 248.39 113.264C247.978 113.718 247.429 113.355 246.926 113.445C246.651 113.491 246.605 113.309 246.605 113.082C246.651 112.127 246.651 111.127 246.651 110.172ZM248.436 109.262C248.436 109.535 248.436 109.853 248.436 110.126C248.436 110.263 248.436 110.354 248.527 110.49C248.939 110.854 249.945 110.626 250.083 110.081C250.266 109.535 250.22 108.944 250.037 108.353C249.854 107.898 249.488 107.762 249.03 107.853C248.573 107.898 248.344 108.126 248.436 108.626C248.436 108.808 248.436 109.035 248.436 109.262Z" fill="#241F1D"/>
<path d="M285.084 109.489C285.039 110.217 284.901 111.126 283.895 111.535C282.751 111.945 281.516 112.036 280.509 111.217C279.594 110.444 279.686 109.398 279.914 108.353C280.097 107.443 280.738 106.989 281.607 106.807C282.065 106.716 282.522 106.716 282.98 106.761C284.535 106.852 285.13 107.625 285.084 109.489ZM283.437 109.308C283.392 108.944 283.392 108.716 283.346 108.444C283.3 107.943 283.026 107.671 282.522 107.671C282.019 107.671 281.699 107.898 281.561 108.398C281.424 108.989 281.47 109.58 281.607 110.171C281.699 110.581 282.019 110.763 282.477 110.763C282.934 110.763 283.209 110.535 283.3 110.126C283.392 109.853 283.392 109.535 283.437 109.308Z" fill="#241F1D"/>
<path d="M252.234 108.307C252.463 107.124 252.509 107.033 253.561 106.852C254.156 106.761 254.751 106.761 255.346 106.852C256.215 107.033 256.627 107.534 256.672 108.397C256.672 109.307 256.672 110.216 256.672 111.126C256.672 111.444 256.581 111.58 256.261 111.58C255.94 111.535 255.62 111.58 255.3 111.58C255.208 111.58 255.117 111.626 255.071 111.58C254.751 111.035 254.476 111.535 254.202 111.58C253.699 111.671 253.195 111.671 252.692 111.444C252.189 111.217 251.96 110.807 251.96 110.262C251.96 109.716 252.189 109.307 252.692 109.08C253.104 108.898 253.561 108.807 254.019 108.716C254.156 108.67 254.293 108.67 254.431 108.625C254.659 108.534 254.934 108.397 254.888 108.125C254.842 107.852 254.568 107.761 254.293 107.715C253.561 107.715 252.921 107.806 252.234 108.307ZM254.842 109.398C254.431 109.716 254.019 109.671 253.607 109.852C253.333 109.943 253.241 110.171 253.287 110.444C253.333 110.671 253.561 110.716 253.744 110.716C254.614 110.716 254.934 110.353 254.842 109.398Z" fill="#241F1D"/>
<path d="M243.45 109.217C243.45 109.853 243.45 110.535 243.45 111.172C243.45 111.49 243.358 111.627 243.038 111.536C242.718 111.445 242.26 111.763 242.031 111.308C241.986 111.218 241.803 111.354 241.711 111.399C241.025 111.672 240.384 111.718 239.698 111.49C239.103 111.308 238.737 110.808 238.737 110.172C238.737 109.171 238.737 108.171 238.737 107.171C238.737 106.898 238.829 106.807 239.103 106.807C240.522 106.762 240.522 106.716 240.522 108.126C240.522 108.671 240.522 109.171 240.522 109.717C240.522 110.354 240.796 110.626 241.345 110.626C241.848 110.626 242.123 110.308 242.123 109.717C242.123 108.899 242.123 108.126 242.123 107.307C242.123 106.943 242.215 106.807 242.626 106.807C243.496 106.807 243.496 106.807 243.496 107.671C243.496 107.898 243.496 108.126 243.496 108.398C243.45 108.671 243.45 108.944 243.45 109.217Z" fill="#26221F"/>
<path d="M296.752 109.217C296.752 108.535 296.752 107.898 296.752 107.216C296.752 106.943 296.843 106.807 297.072 106.852C297.575 106.943 298.17 106.625 298.628 107.08C298.673 107.125 298.811 106.989 298.902 106.943C300.321 106.307 301.51 107.08 301.51 108.58C301.51 109.399 301.51 110.263 301.51 111.081C301.51 111.445 301.419 111.536 301.053 111.536C300.183 111.536 300.183 111.536 300.183 110.672C300.183 109.99 300.183 109.308 300.183 108.626C300.183 108.08 299.863 107.762 299.314 107.762C298.902 107.762 298.536 108.08 298.536 108.58C298.536 109.399 298.49 110.263 298.536 111.081C298.536 111.445 298.399 111.581 298.033 111.581C296.706 111.581 296.706 111.581 296.706 110.263C296.752 109.899 296.752 109.58 296.752 109.217Z" fill="#26221F"/>
<path d="M329.007 108.262C329.144 107.216 329.281 107.08 330.242 106.898C330.883 106.761 331.523 106.761 332.118 106.898C332.987 107.08 333.399 107.58 333.399 108.444C333.399 109.353 333.399 110.263 333.399 111.172C333.399 111.49 333.308 111.627 332.987 111.581C332.667 111.536 332.347 111.581 332.072 111.581C331.889 111.581 331.66 111.672 331.615 111.354C331.569 111.172 331.432 111.354 331.34 111.399C330.745 111.763 330.105 111.763 329.51 111.49C328.961 111.263 328.687 110.854 328.687 110.263C328.687 109.671 328.961 109.308 329.51 109.08C329.83 108.944 330.151 108.898 330.471 108.808C330.745 108.762 331.02 108.671 331.249 108.58C331.432 108.489 331.66 108.398 331.66 108.125C331.615 107.853 331.386 107.762 331.157 107.716C330.608 107.625 330.013 107.671 329.51 107.944C329.281 108.08 329.144 108.171 329.007 108.262ZM331.615 109.444C331.249 109.717 330.791 109.717 330.425 109.853C330.196 109.944 330.013 110.126 330.105 110.399C330.151 110.672 330.379 110.717 330.608 110.717C331.34 110.672 331.752 110.308 331.615 109.444Z" fill="#241F1D"/>
<path d="M269.895 110.307C269.803 111.626 269.849 111.399 268.797 111.626C268.339 111.762 267.836 111.717 267.332 111.672C266.234 111.535 265.64 110.99 265.457 109.944C265.365 109.353 265.365 108.716 265.548 108.125C265.731 107.488 266.143 107.079 266.738 106.897C267.378 106.67 268.064 106.67 268.751 106.852C269.666 107.079 270.398 108.534 270.032 109.489C269.94 109.716 269.803 109.671 269.62 109.671C268.934 109.671 268.247 109.671 267.607 109.671C267.195 109.671 267.149 109.807 267.241 110.171C267.378 110.626 267.744 110.853 268.293 110.808C268.888 110.717 269.391 110.58 269.895 110.307ZM268.064 108.852C268.293 108.716 268.705 109.08 268.797 108.671C268.888 108.307 268.751 107.943 268.293 107.807C268.019 107.716 267.79 107.761 267.561 107.898C267.287 108.079 267.149 108.398 267.241 108.671C267.287 108.943 267.607 108.762 267.79 108.807C267.881 108.852 267.927 108.852 268.064 108.852Z" fill="#241F1D"/>
<path d="M312.49 109.216C312.49 109.853 312.49 110.535 312.49 111.171C312.49 111.49 312.399 111.626 312.079 111.581C311.758 111.49 311.347 111.808 311.118 111.353C311.072 111.217 310.843 111.399 310.706 111.444C310.02 111.671 309.333 111.808 308.601 111.535C308.052 111.308 307.732 110.944 307.686 110.353C307.641 109.307 307.686 108.261 307.641 107.215C307.641 106.988 307.732 106.897 307.961 106.897C308.007 106.897 308.052 106.897 308.052 106.897C309.425 106.897 309.425 106.897 309.425 108.216C309.425 108.761 309.425 109.307 309.425 109.853C309.425 110.398 309.7 110.671 310.203 110.671C310.66 110.671 311.026 110.353 311.026 109.853C311.072 109.034 311.072 108.261 311.026 107.443C311.026 107.034 311.072 106.806 311.575 106.852C311.941 106.897 312.445 106.67 312.399 107.397C312.445 108.034 312.49 108.625 312.49 109.216Z" fill="#241F1D"/>
<path d="M270.626 109.172C270.626 108.535 270.626 107.853 270.626 107.216C270.626 106.944 270.717 106.807 270.992 106.853C271.495 106.944 272.044 106.58 272.502 107.08C272.502 107.125 272.685 106.989 272.776 106.944C273.371 106.671 273.966 106.671 274.515 106.944C275.018 107.171 275.338 107.58 275.384 108.171C275.384 109.172 275.384 110.217 275.384 111.218C275.384 111.491 275.293 111.581 275.018 111.581H274.972C273.829 111.581 274.057 111.672 274.012 110.672C274.012 110.036 274.012 109.353 274.012 108.717C274.012 108.08 273.737 107.808 273.188 107.762C272.685 107.762 272.364 108.08 272.364 108.717C272.364 109.49 272.319 110.217 272.364 110.99C272.364 111.445 272.273 111.581 271.815 111.581C270.58 111.536 270.58 111.581 270.58 110.308C270.626 109.945 270.626 109.581 270.626 109.172Z" fill="#241F1D"/>
<path d="M289.843 107.988C289.203 107.761 288.608 107.716 288.013 107.761C287.739 107.761 287.464 107.807 287.418 108.125C287.373 108.489 287.739 108.443 287.967 108.534C288.379 108.625 288.791 108.716 289.203 108.807C289.752 108.989 290.072 109.307 290.118 109.898C290.118 110.535 289.98 111.08 289.386 111.353C288.333 111.853 287.19 111.808 286.137 111.399C285.68 111.262 285.863 110.671 285.725 110.171C286.457 110.717 287.098 110.717 287.83 110.671C288.105 110.626 288.379 110.58 288.425 110.216C288.471 109.898 288.15 109.807 287.922 109.762C287.464 109.625 287.052 109.534 286.595 109.398C286 109.216 285.68 108.807 285.68 108.17C285.68 107.579 286 107.17 286.549 106.988C287.51 106.624 288.471 106.67 289.431 106.897C289.66 106.988 289.706 107.079 289.843 107.988Z" fill="#241F1D"/>
<path d="M341.076 107.988C340.435 107.761 339.84 107.716 339.246 107.761C338.971 107.761 338.696 107.807 338.651 108.125C338.605 108.489 338.971 108.443 339.2 108.534C339.612 108.625 340.023 108.716 340.435 108.807C340.984 108.989 341.304 109.307 341.35 109.898C341.35 110.535 341.213 111.08 340.618 111.353C339.566 111.853 338.422 111.808 337.37 111.399C336.912 111.262 337.095 110.671 336.958 110.171C337.69 110.717 338.33 110.717 339.062 110.671C339.337 110.626 339.612 110.58 339.657 110.216C339.703 109.898 339.383 109.807 339.154 109.762C338.696 109.625 338.285 109.534 337.827 109.398C337.232 109.216 336.912 108.807 336.912 108.17C336.912 107.579 337.232 107.17 337.781 106.988C338.742 106.624 339.703 106.67 340.664 106.897C340.893 106.988 340.938 107.079 341.076 107.988Z" fill="#241F1D"/>
<path d="M313.131 110.308C313.772 110.672 314.412 110.717 315.053 110.672C315.373 110.672 315.693 110.626 315.693 110.217C315.739 109.853 315.419 109.808 315.144 109.717C314.778 109.626 314.458 109.535 314.092 109.444C313.36 109.217 312.948 108.807 312.948 108.171C312.948 107.58 313.314 107.125 314.046 106.898C314.916 106.625 315.831 106.625 316.746 106.852C317.249 106.989 317.066 107.534 317.249 107.943C316.608 107.716 316.014 107.625 315.419 107.671C315.144 107.671 314.87 107.716 314.824 108.034C314.778 108.398 315.144 108.398 315.373 108.444C315.739 108.535 316.105 108.58 316.471 108.671C317.112 108.853 317.432 109.217 317.478 109.808C317.523 110.49 317.249 111.081 316.7 111.308C315.648 111.763 314.55 111.717 313.497 111.354C313.04 111.308 313.268 110.717 313.131 110.308Z" fill="#26221F"/>
<path d="M276.666 109.216C276.666 109.034 276.666 108.852 276.666 108.67C276.666 108.215 276.758 107.715 275.98 107.806C275.614 107.851 275.797 107.442 275.751 107.26C275.705 107.079 275.705 106.806 276.026 106.851C276.666 106.942 276.666 106.624 276.666 106.124C276.62 104.941 276.666 104.941 277.856 104.941C278.359 104.941 278.542 105.078 278.451 105.533C278.405 105.714 278.451 105.942 278.451 106.124C278.405 106.624 278.451 106.942 279.091 106.851C279.503 106.806 279.32 107.169 279.366 107.351C279.366 107.533 279.457 107.851 279.091 107.806C278.451 107.715 278.405 108.033 278.451 108.488C278.496 108.943 278.451 109.397 278.451 109.852C278.451 110.216 278.588 110.534 279.045 110.58C279.594 110.58 279.32 110.989 279.366 111.216C279.411 111.534 279.183 111.534 278.954 111.534C277.032 111.671 276.666 111.262 276.666 109.216Z" fill="#241F1D"/>
<path d="M318.758 109.125C318.758 108.943 318.758 108.761 318.758 108.579C318.804 108.079 318.758 107.715 318.118 107.806C317.706 107.851 317.889 107.488 317.889 107.306C317.889 107.124 317.798 106.806 318.164 106.851C318.85 106.988 318.804 106.533 318.804 106.124C318.804 104.941 318.804 104.941 320.04 104.941C320.497 104.941 320.726 105.032 320.634 105.533C320.589 105.76 320.634 105.987 320.634 106.169C320.589 106.624 320.68 106.942 321.229 106.851C321.641 106.76 321.504 107.079 321.504 107.26C321.458 107.442 321.732 107.851 321.229 107.806C320.589 107.715 320.589 108.079 320.589 108.534C320.634 108.988 320.589 109.443 320.589 109.898C320.589 110.307 320.772 110.58 321.183 110.58C321.732 110.58 321.412 110.989 321.458 111.216C321.549 111.489 321.366 111.58 321.138 111.534H321.092C319.124 111.671 318.758 111.262 318.758 109.125Z" fill="#26221F"/>
<path d="M293.96 108.261C293.96 107.306 293.96 106.351 293.96 105.397C293.96 105.078 294.052 104.987 294.372 104.987C294.921 105.033 295.607 104.76 295.973 105.078C296.294 105.397 296.065 106.079 296.065 106.579C296.065 108.079 296.065 109.625 296.065 111.126C296.065 111.489 295.973 111.58 295.607 111.58C295.104 111.535 294.418 111.762 294.098 111.489C293.732 111.217 294.006 110.489 294.006 109.989C293.96 109.398 293.96 108.807 293.96 108.261Z" fill="#241F1D"/>
<path d="M322.053 109.217C322.053 108.535 322.053 107.898 322.053 107.216C322.053 106.943 322.144 106.852 322.419 106.852C322.785 106.898 323.151 106.852 323.517 106.852H323.563C324.066 107.398 324.523 106.762 324.981 106.807C325.255 106.852 325.576 106.625 325.713 107.08C325.759 107.307 325.896 107.58 325.804 107.762C325.667 108.035 325.393 107.807 325.164 107.762C324.34 107.716 323.837 108.171 323.837 108.989C323.837 109.717 323.837 110.49 323.837 111.217C323.837 111.49 323.746 111.581 323.471 111.581C322.053 111.627 322.053 111.627 322.053 110.217C322.053 109.899 322.053 109.581 322.053 109.217Z" fill="#26221F"/>
<path d="M326.307 109.126C326.307 108.49 326.307 107.853 326.307 107.216C326.307 106.944 326.399 106.853 326.674 106.853C328.092 106.807 328.092 106.807 328.092 108.217C328.092 109.217 328.092 110.172 328.092 111.172C328.092 111.491 328 111.581 327.68 111.581C326.262 111.627 326.262 111.627 326.262 110.217C326.307 109.854 326.307 109.49 326.307 109.126Z" fill="#26221F"/>
<path d="M336.007 109.217C336.007 109.899 336.007 110.535 336.007 111.217C336.007 111.49 335.916 111.536 335.687 111.581C334.223 111.672 334.223 111.672 334.223 110.217C334.223 109.262 334.223 108.262 334.223 107.307C334.223 106.989 334.268 106.852 334.634 106.852C336.053 106.852 336.053 106.807 336.053 108.262C336.007 108.58 336.007 108.898 336.007 109.217Z" fill="#26221F"/>
<path d="M245.92 109.262C245.92 109.899 245.92 110.535 245.92 111.172C245.92 111.49 245.829 111.581 245.508 111.581C244.136 111.626 244.136 111.626 244.136 110.262C244.136 109.262 244.136 108.262 244.136 107.261C244.136 106.943 244.227 106.852 244.548 106.852C245.92 106.852 245.92 106.852 245.92 108.171C245.92 108.58 245.92 108.944 245.92 109.262Z" fill="#241F1D"/>
<path d="M114.428 120.175C114.291 120.403 114.199 120.63 114.657 120.584C114.84 120.584 115.023 120.448 115.206 120.403C115.938 120.221 116.67 120.084 117.448 119.902C118.088 119.766 118.775 119.675 119.415 119.402C119.918 119.175 120.467 119.266 120.971 119.038C121.794 118.72 122.709 118.584 123.579 118.447C124.265 118.311 124.86 117.902 125.592 117.902C126.095 117.902 126.415 117.493 126.507 116.992C126.553 116.856 126.507 116.629 126.736 116.629C126.736 117.038 126.553 117.356 126.461 117.72C126.415 117.993 126.187 118.038 125.958 118.084C123.121 118.766 120.284 119.402 117.402 120.084C115.206 120.584 113.056 121.085 110.859 121.585C112.003 121.085 113.193 120.584 114.428 120.175Z" fill="#CE312A"/>
<path d="M188.867 62.2929C188.821 62.6112 188.547 62.5203 188.364 62.5203C188.043 62.5203 187.815 62.6567 187.769 62.9295C187.632 63.6115 187.266 64.2481 186.991 64.8847C186.671 65.6576 186.442 66.4306 186.03 67.1581C185.847 67.4764 186.213 67.7492 186.534 67.6583C187.037 67.5218 187.494 67.7037 187.998 67.7037C188.867 67.6583 189.69 67.7037 190.56 67.7037C190.468 67.9311 190.285 67.8401 190.148 67.8401C188.821 67.8401 187.494 67.8401 186.168 67.8401C185.71 67.8401 185.664 67.7037 185.801 67.34C186.442 65.7486 187.037 64.1571 187.677 62.5203C187.952 61.9746 188.455 62.3384 188.867 62.2929Z" fill="#CE312A"/>
<path d="M144.853 26.2357C144.67 27.0542 144.395 27.8271 144.258 28.6456C144.166 29.1003 144.121 29.6004 143.983 30.0551C143.892 30.4189 144.075 30.5098 144.441 30.5098C146.225 30.5098 147.964 30.4643 149.748 30.5553C150.023 30.5553 150.343 30.1006 150.663 30.6007C150.984 31.1464 150.572 31.4192 150.389 31.7829C150.389 31.7375 150.389 31.692 150.389 31.692C150.617 30.6462 150.617 30.6462 149.565 30.6462C148.055 30.6462 146.5 30.6462 144.99 30.6462C144.487 30.6462 144.029 30.6917 143.663 31.1009C143.8 30.4189 143.938 29.7368 144.075 29.0093C144.212 28.2818 144.395 27.5543 144.532 26.8268C144.532 26.5995 144.578 26.3721 144.853 26.2357Z" fill="#043C7E"/>
<path d="M328.138 105.805C328.138 106.26 327.681 106.624 327.132 106.578C326.629 106.533 326.217 106.169 326.217 105.76C326.217 105.305 326.674 104.941 327.178 104.941C327.727 104.987 328.184 105.351 328.138 105.805Z" fill="#26221F"/>
<path d="M245.005 106.624C244.456 106.624 244.045 106.215 244.09 105.76C244.136 105.351 244.548 104.987 245.051 104.987C245.554 104.987 246.012 105.397 246.012 105.806C245.966 106.26 245.509 106.624 245.005 106.624Z" fill="#26221F"/>
<path d="M335.092 106.624C334.588 106.624 334.177 106.26 334.131 105.851C334.131 105.397 334.543 104.987 335.092 104.987C335.641 104.987 336.052 105.351 336.052 105.806C336.007 106.26 335.595 106.624 335.092 106.624Z" fill="#241F1D"/>
<path d="M150.343 31.9647C150.389 32.7376 150.114 33.4197 149.931 34.1472C149.748 34.8747 149.611 35.6022 149.428 36.2842C149.153 37.2845 149.153 38.3303 148.696 39.2852C148.513 39.6944 148.421 40.1945 148.421 40.6492C148.421 41.0584 148.101 41.4222 148.147 41.8314C148.101 41.8314 148.01 41.8314 147.964 41.8314C148.421 40.0127 148.833 38.1939 149.291 36.3751C149.565 34.8747 149.977 33.4197 150.343 31.9647Z" fill="#043C7E"/>
<path d="M242.626 96.4399C242.946 95.7579 243.221 95.0758 243.633 94.4847C243.587 95.1213 243.221 95.7579 243.358 96.4399C243.129 96.1671 242.9 96.4399 242.626 96.4399Z" fill="#FCFBF9"/>
<path d="M147.415 43.9224C147.278 44.6954 147.507 45.5593 146.866 46.1959C147.003 45.4229 147.141 44.6499 147.415 43.9224Z" fill="#043C7E"/>
<path d="M188.958 92.8483C189.004 92.4391 189.37 92.1663 189.553 91.848C189.416 92.3027 189.599 92.8029 189.187 93.2121C189.141 93.0757 189.05 92.9848 188.958 92.8483Z" fill="#FCFBF9"/>
<path d="M192.39 65.3388C192.39 65.2479 192.345 65.157 192.39 65.1115C192.802 64.6113 193.031 63.8838 193.717 63.5656C193.306 64.2021 192.894 64.7932 192.39 65.3388Z" fill="#CE312A"/>
<path d="M147.872 42.0591C148.055 42.6502 147.826 43.1504 147.506 43.6506C147.552 43.1049 147.689 42.6048 147.872 42.0591Z" fill="#043C7E"/>
<path d="M194.357 62.7018C194.265 62.5654 194.219 62.429 194.128 62.2471C194.311 62.2016 194.54 62.1107 194.631 62.2926C194.677 62.4745 194.54 62.6563 194.357 62.7018Z" fill="#CE312A"/>
<path d="M193.67 63.6114C193.579 63.2476 193.853 63.1567 194.082 63.0657C194.036 63.2931 193.899 63.475 193.67 63.6114Z" fill="#CE312A"/>
<path d="M194.128 63.0202C194.128 62.8838 194.128 62.702 194.357 62.702C194.311 62.8384 194.265 62.9748 194.128 63.0202Z" fill="#CE312A"/>
<path d="M110.538 121.765L110.493 121.72L110.447 121.765H110.538Z" fill="#CE312A"/>
<path d="M144.988 26.1899C144.943 26.2348 144.898 26.2348 144.853 26.2798C144.853 26.1899 144.898 26.1899 144.988 26.1899Z" fill="#043C7E"/>
<path d="M29.6016 7.82122C30.6081 7.27559 31.6604 6.86637 32.7127 6.45715C33.6278 6.0934 34.6344 5.82059 35.5494 5.50231C35.9154 5.3659 36.2357 5.27496 36.6475 5.27496C34.7259 5.91153 32.8042 6.54809 30.9284 7.32106C30.4709 7.45747 30.0591 7.63935 29.6016 7.82122Z" fill="#043C7E"/>
<path d="M43.6943 3.77355C43.9231 3.63714 44.1976 3.54621 44.4721 3.54621C46.2107 3.54621 47.9493 3.31886 49.6879 3.45527C50.4657 3.50074 51.1978 3.54621 51.9756 3.54621C52.1586 3.54621 52.3416 3.59167 52.4788 3.77355C50.42 3.59167 48.4069 3.45527 46.348 3.59167C45.4329 3.59167 44.5636 3.68261 43.6943 3.77355Z" fill="#043C7E"/>
<path d="M27.8166 8.18413C28.2741 8.54788 28.5487 8.04772 28.9147 8.00225C29.0519 8.00225 29.1892 7.86584 29.3722 7.86584C28.3657 8.32053 27.3591 8.82069 26.3525 9.27538C26.8101 8.91163 27.2676 8.50241 27.8166 8.18413Z" fill="#043C7E"/>
<path d="M36.6943 5.22891C37.1061 5.04703 37.5179 4.86516 37.9754 4.81969C38.6617 4.72875 39.348 4.45594 39.9885 4.27406C40.3088 4.18312 40.5833 4.22859 40.9036 4.22859C39.531 4.54687 38.1127 4.91062 36.6943 5.22891Z" fill="#043C7E"/>
<path d="M55.6807 4.40979C56.5957 4.5462 57.465 4.81901 58.2886 5.2737C57.4193 4.95542 56.55 4.6826 55.6807 4.40979Z" fill="#043C7E"/>
<path d="M52.7988 3.81982C53.6681 3.86529 54.5832 3.95623 55.4067 4.36545C54.5374 4.13811 53.6681 4.0017 52.7988 3.81982Z" fill="#043C7E"/>
<path d="M42.2764 3.9548C42.5966 3.86387 42.9169 3.68199 43.2372 3.8184C42.9169 3.90934 42.5966 4.00027 42.2764 3.9548Z" fill="#043C7E"/>
<path d="M41.085 4.18358C41.4052 3.91077 41.7713 4.04718 42.1373 4.00171C41.7713 4.09265 41.451 4.18358 41.085 4.18358Z" fill="#043C7E"/>
<path d="M59.8906 5.95667C60.2109 6.00213 60.4854 6.09307 60.7142 6.36588C60.3939 6.27495 60.1194 6.13854 59.8906 5.95667Z" fill="#043C7E"/>
<path d="M62.543 7.4577C62.7717 7.59411 63.0463 7.59411 63.1835 7.86692C62.9547 7.77599 62.726 7.63958 62.543 7.4577Z" fill="#043C7E"/>
<path d="M58.2891 5.27496C58.4721 5.32043 58.7466 5.18403 58.7923 5.50231C58.6093 5.45684 58.4263 5.41137 58.2891 5.27496Z" fill="#043C7E"/>
<path d="M61.8574 7.00292C62.0862 7.00292 62.3149 6.95745 62.3149 7.27573C62.1319 7.23026 61.9947 7.18479 61.8574 7.00292Z" fill="#043C7E"/>
<path d="M59.2949 5.68311C59.4779 5.68311 59.6609 5.68311 59.7524 5.91045C59.6152 5.86498 59.4322 5.81951 59.2949 5.68311Z" fill="#043C7E"/>
<path d="M60.7148 6.36633C60.8979 6.36633 61.0351 6.4118 61.1266 6.59368C60.9436 6.54821 60.8063 6.50274 60.7148 6.36633Z" fill="#043C7E"/>
<path d="M63.5039 8.09357C63.6412 8.09357 63.8242 8.09357 63.8242 8.32091C63.6869 8.32091 63.5954 8.22997 63.5039 8.09357Z" fill="#043C7E"/>
<path d="M61.125 6.59259C61.2623 6.59259 61.4453 6.59259 61.4453 6.77447C61.308 6.729 61.1708 6.729 61.125 6.59259Z" fill="#043C7E"/>
<path d="M58.8838 5.50182C59.021 5.50182 59.2041 5.45635 59.2498 5.6837C59.1126 5.63823 58.9753 5.63823 58.8838 5.50182Z" fill="#043C7E"/>
<path d="M63.1846 7.86584C63.3218 7.86584 63.4591 7.95678 63.5048 8.09319C63.3676 8.09319 63.2761 8.00225 63.1846 7.86584Z" fill="#043C7E"/>
<path d="M63.8242 8.31982C63.9157 8.36529 64.1445 8.22889 64.053 8.5017C63.9615 8.5017 63.87 8.41076 63.8242 8.31982Z" fill="#043C7E"/>
<path d="M61.4912 6.82031C61.5827 6.86578 61.6742 6.91125 61.72 6.95672C61.6285 6.95672 61.5827 6.91125 61.4912 6.82031Z" fill="#043C7E"/>
</svg>
