<svg width="263" height="557" viewBox="0 0 263 557" fill="none" xmlns="http://www.w3.org/2000/svg">
<g filter="url(#filter0_d)">
<path d="M238 0H25C16.7157 0 10 6.71574 10 15V511.176C10 519.46 16.7157 526.176 25 526.176H238C246.284 526.176 253 519.46 253 511.176V15C253 6.71573 246.284 0 238 0Z" fill="white"/>
<path d="M36.5288 27.1765C36.1493 27.5561 36.1493 28.1716 36.5288 28.5512L42.7146 34.7369C43.0942 35.1165 43.7096 35.1165 44.0892 34.7369C44.4688 34.3573 44.4688 33.7419 44.0892 33.3623L38.5907 27.8638L44.0892 22.3654C44.4688 21.9858 44.4688 21.3704 44.0892 20.9908C43.7096 20.6112 43.0942 20.6112 42.7146 20.9908L36.5288 27.1765ZM56.0081 26.8918H37.2161V28.8358H56.0081V26.8918Z" fill="#C23334"/>
<path d="M51.4925 128.429C50.4039 128.429 49.4189 128.19 48.5376 127.713C47.6667 127.226 46.9824 126.562 46.4848 125.722C45.9871 124.872 45.7383 123.918 45.7383 122.861C45.7383 121.803 45.9871 120.855 46.4848 120.015C46.9824 119.165 47.6719 118.501 48.5532 118.024C49.4345 117.537 50.4194 117.293 51.5081 117.293C52.3582 117.293 53.1358 117.438 53.8409 117.729C54.5459 118.009 55.1472 118.429 55.6449 118.988L54.634 119.968C53.815 119.108 52.7937 118.677 51.5703 118.677C50.7616 118.677 50.0306 118.859 49.3774 119.222C48.7243 119.585 48.211 120.087 47.8378 120.73C47.4749 121.363 47.2935 122.073 47.2935 122.861C47.2935 123.649 47.4749 124.364 47.8378 125.007C48.211 125.64 48.7243 126.137 49.3774 126.5C50.0306 126.863 50.7616 127.044 51.5703 127.044C52.7833 127.044 53.8046 126.609 54.634 125.738L55.6449 126.718C55.1472 127.278 54.5407 127.703 53.8253 127.993C53.1203 128.283 52.3427 128.429 51.4925 128.429ZM60.8268 128.397C60.0077 128.397 59.2716 128.216 58.6184 127.853C57.9652 127.49 57.452 126.993 57.0787 126.36C56.7159 125.717 56.5344 124.992 56.5344 124.183C56.5344 123.374 56.7159 122.654 57.0787 122.021C57.452 121.378 57.9652 120.881 58.6184 120.528C59.2716 120.165 60.0077 119.984 60.8268 119.984C61.6458 119.984 62.3768 120.165 63.0196 120.528C63.6728 120.881 64.1808 121.378 64.5437 122.021C64.9169 122.654 65.1036 123.374 65.1036 124.183C65.1036 124.992 64.9169 125.717 64.5437 126.36C64.1808 126.993 63.6728 127.49 63.0196 127.853C62.3768 128.216 61.6458 128.397 60.8268 128.397ZM60.8268 127.091C61.3555 127.091 61.8273 126.972 62.242 126.733C62.6671 126.485 62.9989 126.142 63.2373 125.707C63.4758 125.261 63.595 124.753 63.595 124.183C63.595 123.613 63.4758 123.11 63.2373 122.674C62.9989 122.228 62.6671 121.886 62.242 121.648C61.8273 121.409 61.3555 121.29 60.8268 121.29C60.298 121.29 59.8211 121.409 59.396 121.648C58.9813 121.886 58.6495 122.228 58.4007 122.674C58.1622 123.11 58.043 123.613 58.043 124.183C58.043 124.753 58.1622 125.261 58.4007 125.707C58.6495 126.142 58.9813 126.485 59.396 126.733C59.8211 126.972 60.298 127.091 60.8268 127.091ZM77.4793 119.984C78.5161 119.984 79.3351 120.284 79.9365 120.886C80.5482 121.487 80.854 122.379 80.854 123.561V128.304H79.3611V123.732C79.3611 122.933 79.1744 122.332 78.8012 121.928C78.4383 121.523 77.9147 121.321 77.2304 121.321C76.4736 121.321 75.8722 121.56 75.4264 122.037C74.9806 122.503 74.7577 123.177 74.7577 124.058V128.304H73.2647V123.732C73.2647 122.933 73.0781 122.332 72.7049 121.928C72.342 121.523 71.8184 121.321 71.1341 121.321C70.3773 121.321 69.7759 121.56 69.3301 122.037C68.8843 122.503 68.6613 123.177 68.6613 124.058V128.304H67.1684V120.062H68.5991V121.29C68.8998 120.865 69.2938 120.544 69.7811 120.326C70.2684 120.098 70.8231 119.984 71.4452 119.984C72.088 119.984 72.6582 120.113 73.1559 120.373C73.6535 120.632 74.0372 121.01 74.3067 121.508C74.6178 121.031 75.048 120.658 75.5975 120.388C76.1573 120.119 76.7846 119.984 77.4793 119.984ZM87.1772 128.397C86.3582 128.397 85.622 128.216 84.9688 127.853C84.3157 127.49 83.8024 126.993 83.4292 126.36C83.0663 125.717 82.8849 124.992 82.8849 124.183C82.8849 123.374 83.0663 122.654 83.4292 122.021C83.8024 121.378 84.3157 120.881 84.9688 120.528C85.622 120.165 86.3582 119.984 87.1772 119.984C87.9963 119.984 88.7272 120.165 89.3701 120.528C90.0233 120.881 90.5313 121.378 90.8942 122.021C91.2674 122.654 91.454 123.374 91.454 124.183C91.454 124.992 91.2674 125.717 90.8942 126.36C90.5313 126.993 90.0233 127.49 89.3701 127.853C88.7272 128.216 87.9963 128.397 87.1772 128.397ZM87.1772 127.091C87.706 127.091 88.1777 126.972 88.5925 126.733C89.0176 126.485 89.3493 126.142 89.5878 125.707C89.8263 125.261 89.9455 124.753 89.9455 124.183C89.9455 123.613 89.8263 123.11 89.5878 122.674C89.3493 122.228 89.0176 121.886 88.5925 121.648C88.1777 121.409 87.706 121.29 87.1772 121.29C86.6485 121.29 86.1715 121.409 85.7464 121.648C85.3317 121.886 85 122.228 84.7511 122.674C84.5127 123.11 84.3934 123.613 84.3934 124.183C84.3934 124.753 84.5127 125.261 84.7511 125.707C85 126.142 85.3317 126.485 85.7464 126.733C86.1715 126.972 86.6485 127.091 87.1772 127.091ZM104.989 120.062L101.381 128.304H99.8566L96.2486 120.062H97.8038L100.634 126.671L103.527 120.062H104.989ZM109.685 128.397C108.866 128.397 108.13 128.216 107.476 127.853C106.823 127.49 106.31 126.993 105.937 126.36C105.574 125.717 105.393 124.992 105.393 124.183C105.393 123.374 105.574 122.654 105.937 122.021C106.31 121.378 106.823 120.881 107.476 120.528C108.13 120.165 108.866 119.984 109.685 119.984C110.504 119.984 111.235 120.165 111.878 120.528C112.531 120.881 113.039 121.378 113.402 122.021C113.775 122.654 113.962 123.374 113.962 124.183C113.962 124.992 113.775 125.717 113.402 126.36C113.039 126.993 112.531 127.49 111.878 127.853C111.235 128.216 110.504 128.397 109.685 128.397ZM109.685 127.091C110.214 127.091 110.685 126.972 111.1 126.733C111.525 126.485 111.857 126.142 112.095 125.707C112.334 125.261 112.453 124.753 112.453 124.183C112.453 123.613 112.334 123.11 112.095 122.674C111.857 122.228 111.525 121.886 111.1 121.648C110.685 121.409 110.214 121.29 109.685 121.29C109.156 121.29 108.679 121.409 108.254 121.648C107.839 121.886 107.508 122.228 107.259 122.674C107.02 123.11 106.901 123.613 106.901 124.183C106.901 124.753 107.02 125.261 107.259 125.707C107.508 126.142 107.839 126.485 108.254 126.733C108.679 126.972 109.156 127.091 109.685 127.091ZM119.619 128.397C118.78 128.397 118.028 128.216 117.364 127.853C116.711 127.49 116.198 126.993 115.825 126.36C115.451 125.717 115.265 124.992 115.265 124.183C115.265 123.374 115.451 122.654 115.825 122.021C116.198 121.378 116.711 120.881 117.364 120.528C118.028 120.165 118.78 119.984 119.619 119.984C120.366 119.984 121.029 120.134 121.61 120.435C122.201 120.735 122.657 121.171 122.979 121.741L121.843 122.472C121.584 122.078 121.263 121.783 120.879 121.586C120.495 121.389 120.07 121.29 119.604 121.29C119.065 121.29 118.577 121.409 118.142 121.648C117.717 121.886 117.38 122.228 117.131 122.674C116.893 123.11 116.773 123.613 116.773 124.183C116.773 124.763 116.893 125.277 117.131 125.722C117.38 126.158 117.717 126.495 118.142 126.733C118.577 126.972 119.065 127.091 119.604 127.091C120.07 127.091 120.495 126.993 120.879 126.796C121.263 126.599 121.584 126.303 121.843 125.909L122.979 126.625C122.657 127.195 122.201 127.635 121.61 127.946C121.029 128.247 120.366 128.397 119.619 128.397ZM132.239 124.23C132.239 124.344 132.229 124.494 132.208 124.681H125.521C125.614 125.406 125.93 125.992 126.469 126.438C127.019 126.873 127.698 127.091 128.507 127.091C129.492 127.091 130.285 126.759 130.886 126.096L131.71 127.06C131.337 127.495 130.871 127.827 130.311 128.055C129.761 128.283 129.144 128.397 128.46 128.397C127.589 128.397 126.817 128.221 126.143 127.869C125.469 127.506 124.945 127.003 124.572 126.36C124.209 125.717 124.028 124.992 124.028 124.183C124.028 123.385 124.204 122.664 124.556 122.021C124.919 121.378 125.412 120.881 126.034 120.528C126.666 120.165 127.377 119.984 128.165 119.984C128.952 119.984 129.652 120.165 130.264 120.528C130.886 120.881 131.368 121.378 131.71 122.021C132.063 122.664 132.239 123.4 132.239 124.23ZM128.165 121.244C127.449 121.244 126.848 121.461 126.36 121.897C125.884 122.332 125.604 122.902 125.521 123.607H130.808C130.725 122.913 130.44 122.348 129.953 121.912C129.476 121.466 128.88 121.244 128.165 121.244ZM129.58 118.864L128.149 117.667L126.718 118.864H125.365L127.434 116.842H128.864L130.933 118.864H129.58ZM140.853 128.397C140.179 128.397 139.531 128.309 138.909 128.133C138.287 127.946 137.8 127.713 137.447 127.433L138.069 126.251C138.432 126.51 138.873 126.718 139.391 126.873C139.91 127.029 140.433 127.107 140.962 127.107C142.268 127.107 142.921 126.733 142.921 125.987C142.921 125.738 142.833 125.541 142.657 125.396C142.481 125.251 142.258 125.147 141.988 125.085C141.729 125.012 141.356 124.935 140.869 124.852C140.205 124.748 139.661 124.629 139.236 124.494C138.821 124.359 138.463 124.131 138.163 123.81C137.862 123.488 137.712 123.037 137.712 122.457C137.712 121.71 138.023 121.114 138.645 120.668C139.267 120.212 140.101 119.984 141.149 119.984C141.698 119.984 142.248 120.051 142.797 120.186C143.347 120.321 143.798 120.502 144.15 120.73L143.512 121.912C142.838 121.477 142.045 121.259 141.133 121.259C140.5 121.259 140.018 121.363 139.687 121.57C139.355 121.777 139.189 122.052 139.189 122.394C139.189 122.664 139.282 122.876 139.469 123.032C139.656 123.188 139.884 123.302 140.153 123.374C140.433 123.447 140.822 123.53 141.32 123.623C141.983 123.737 142.517 123.861 142.921 123.996C143.336 124.121 143.689 124.338 143.979 124.649C144.269 124.96 144.414 125.396 144.414 125.956C144.414 126.702 144.093 127.298 143.45 127.744C142.818 128.18 141.952 128.397 140.853 128.397ZM153.729 124.23C153.729 124.344 153.719 124.494 153.698 124.681H147.011C147.104 125.406 147.42 125.992 147.96 126.438C148.509 126.873 149.188 127.091 149.997 127.091C150.982 127.091 151.775 126.759 152.376 126.096L153.201 127.06C152.827 127.495 152.361 127.827 151.801 128.055C151.251 128.283 150.635 128.397 149.95 128.397C149.079 128.397 148.307 128.221 147.633 127.869C146.959 127.506 146.436 127.003 146.062 126.36C145.699 125.717 145.518 124.992 145.518 124.183C145.518 123.385 145.694 122.664 146.047 122.021C146.41 121.378 146.902 120.881 147.524 120.528C148.157 120.165 148.867 119.984 149.655 119.984C150.443 119.984 151.143 120.165 151.754 120.528C152.376 120.881 152.859 121.378 153.201 122.021C153.553 122.664 153.729 123.4 153.729 124.23ZM149.655 121.244C148.939 121.244 148.338 121.461 147.851 121.897C147.374 122.332 147.094 122.902 147.011 123.607H152.299C152.216 122.913 151.931 122.348 151.443 121.912C150.966 121.466 150.37 121.244 149.655 121.244ZM167.755 116.765V128.304H166.325V126.998C165.993 127.454 165.573 127.801 165.065 128.04C164.557 128.278 163.997 128.397 163.385 128.397C162.587 128.397 161.872 128.221 161.239 127.869C160.607 127.516 160.109 127.024 159.746 126.391C159.394 125.748 159.217 125.012 159.217 124.183C159.217 123.353 159.394 122.622 159.746 121.99C160.109 121.358 160.607 120.865 161.239 120.513C161.872 120.16 162.587 119.984 163.385 119.984C163.976 119.984 164.521 120.098 165.018 120.326C165.516 120.544 165.931 120.87 166.262 121.306V116.765H167.755ZM163.51 127.091C164.028 127.091 164.5 126.972 164.925 126.733C165.35 126.485 165.682 126.142 165.92 125.707C166.159 125.261 166.278 124.753 166.278 124.183C166.278 123.613 166.159 123.11 165.92 122.674C165.682 122.228 165.35 121.886 164.925 121.648C164.5 121.409 164.028 121.29 163.51 121.29C162.981 121.29 162.504 121.409 162.079 121.648C161.664 121.886 161.332 122.228 161.084 122.674C160.845 123.11 160.726 123.613 160.726 124.183C160.726 124.753 160.845 125.261 161.084 125.707C161.332 126.142 161.664 126.485 162.079 126.733C162.504 126.972 162.981 127.091 163.51 127.091ZM178.029 124.23C178.029 124.344 178.019 124.494 177.998 124.681H171.311C171.404 125.406 171.72 125.992 172.26 126.438C172.809 126.873 173.488 127.091 174.297 127.091C175.282 127.091 176.075 126.759 176.676 126.096L177.501 127.06C177.127 127.495 176.661 127.827 176.101 128.055C175.551 128.283 174.935 128.397 174.25 128.397C173.379 128.397 172.607 128.221 171.933 127.869C171.259 127.506 170.736 127.003 170.362 126.36C169.999 125.717 169.818 124.992 169.818 124.183C169.818 123.385 169.994 122.664 170.347 122.021C170.71 121.378 171.202 120.881 171.824 120.528C172.457 120.165 173.167 119.984 173.955 119.984C174.743 119.984 175.443 120.165 176.054 120.528C176.676 120.881 177.159 121.378 177.501 122.021C177.853 122.664 178.029 123.4 178.029 124.23ZM173.955 121.244C173.239 121.244 172.638 121.461 172.151 121.897C171.674 122.332 171.394 122.902 171.311 123.607H176.599C176.516 122.913 176.231 122.348 175.743 121.912C175.266 121.466 174.67 121.244 173.955 121.244ZM183.119 117.9C182.228 117.9 181.782 118.382 181.782 119.346V120.062H184.177V121.29H181.813V128.304H180.32V121.29H178.92V120.062H180.32V119.331C180.32 118.512 180.559 117.864 181.035 117.387C181.512 116.91 182.181 116.671 183.042 116.671C183.373 116.671 183.685 116.713 183.975 116.796C184.265 116.879 184.514 116.998 184.721 117.153L184.27 118.289C183.928 118.029 183.545 117.9 183.119 117.9ZM186.836 120.062H188.329V128.304H186.836V120.062ZM187.583 118.475C187.293 118.475 187.049 118.382 186.852 118.195C186.665 118.009 186.572 117.781 186.572 117.511C186.572 117.241 186.665 117.013 186.852 116.827C187.049 116.63 187.293 116.531 187.583 116.531C187.873 116.531 188.112 116.625 188.298 116.811C188.495 116.987 188.594 117.21 188.594 117.48C188.594 117.76 188.495 117.998 188.298 118.195C188.112 118.382 187.873 118.475 187.583 118.475ZM195.575 119.984C196.622 119.984 197.452 120.29 198.064 120.901C198.686 121.503 198.997 122.389 198.997 123.561V128.304H197.504V123.732C197.504 122.933 197.312 122.332 196.928 121.928C196.545 121.523 195.995 121.321 195.28 121.321C194.471 121.321 193.833 121.56 193.367 122.037C192.9 122.503 192.667 123.177 192.667 124.058V128.304H191.174V120.062H192.605V121.306C192.906 120.881 193.31 120.554 193.818 120.326C194.336 120.098 194.922 119.984 195.575 119.984ZM209.255 124.23C209.255 124.344 209.245 124.494 209.224 124.681H202.537C202.63 125.406 202.946 125.992 203.485 126.438C204.035 126.873 204.714 127.091 205.523 127.091C206.508 127.091 207.301 126.759 207.902 126.096L208.726 127.06C208.353 127.495 207.887 127.827 207.327 128.055C206.777 128.283 206.16 128.397 205.476 128.397C204.605 128.397 203.833 128.221 203.159 127.869C202.485 127.506 201.961 127.003 201.588 126.36C201.225 125.717 201.044 124.992 201.044 124.183C201.044 123.385 201.22 122.664 201.573 122.021C201.935 121.378 202.428 120.881 203.05 120.528C203.682 120.165 204.393 119.984 205.181 119.984C205.969 119.984 206.668 120.165 207.28 120.528C207.902 120.881 208.384 121.378 208.726 122.021C209.079 122.664 209.255 123.4 209.255 124.23ZM205.181 121.244C204.465 121.244 203.864 121.461 203.377 121.897C202.9 122.332 202.62 122.902 202.537 123.607H207.824C207.742 122.913 207.456 122.348 206.969 121.912C206.492 121.466 205.896 121.244 205.181 121.244ZM212.73 124.867C212.73 124.452 212.797 124.09 212.932 123.778C213.077 123.457 213.248 123.188 213.445 122.97C213.653 122.752 213.922 122.493 214.254 122.192C214.669 121.829 214.974 121.518 215.171 121.259C215.368 120.989 215.467 120.668 215.467 120.295C215.467 119.787 215.27 119.382 214.876 119.082C214.482 118.771 213.938 118.615 213.243 118.615C212.03 118.615 211.102 119.025 210.459 119.844L209.324 119.035C209.759 118.475 210.314 118.045 210.988 117.744C211.672 117.444 212.46 117.293 213.352 117.293C214.482 117.293 215.379 117.542 216.042 118.04C216.706 118.527 217.038 119.201 217.038 120.062C217.038 120.487 216.965 120.865 216.82 121.197C216.685 121.518 216.519 121.788 216.322 122.006C216.125 122.223 215.861 122.482 215.529 122.783C215.104 123.167 214.788 123.504 214.581 123.794C214.384 124.084 214.285 124.442 214.285 124.867H212.73ZM213.523 128.397C213.233 128.397 212.989 128.304 212.792 128.118C212.605 127.921 212.512 127.682 212.512 127.402C212.512 127.122 212.605 126.889 212.792 126.702C212.989 126.505 213.233 126.407 213.523 126.407C213.813 126.407 214.052 126.505 214.238 126.702C214.425 126.889 214.518 127.122 214.518 127.402C214.518 127.682 214.42 127.921 214.223 128.118C214.036 128.304 213.803 128.397 213.523 128.397Z" fill="black"/>
<path d="M144.205 60.791C144.445 59.4377 144.499 56.4096 143.596 54.4321C142.7 55.5322 141.672 56.4324 140.297 56.8083C139.083 57.1404 137.781 57.2032 136.639 57.7686C136.104 58.0331 135.612 58.3928 135.173 58.901C134.462 59.7223 134.046 60.7928 134.062 61.8815C134.078 63.0235 134.576 64.1236 135.356 64.9498C135.092 64.3529 135.131 63.6373 135.525 63.0577C136.132 62.167 138.368 61.5532 138.738 61.8054C139.16 62.0928 139.357 64.3624 138.752 65.253C138.366 65.8194 137.736 66.1181 137.099 66.1058C137.483 66.2484 137.886 66.343 138.292 66.3877C139.994 66.5743 143.251 66.168 144.205 60.791Z" fill="#C23334"/>
<path d="M143.595 54.4321C142.822 55.3828 141.948 56.1832 140.838 56.6266C141.871 58.9942 141.987 63.1186 140.702 64.7859C139.301 66.6029 137.099 66.1065 137.099 66.1065C137.482 66.2497 137.885 66.3437 138.291 66.3884C139.995 66.5743 143.251 66.1687 144.205 60.7919C144.446 59.4377 144.499 56.4096 143.595 54.4321Z" fill="#C23334"/>
<path d="M135.342 64.92C135.307 64.839 135.279 64.7555 135.256 64.6708C135.254 64.6651 135.252 64.6584 135.25 64.6527C135.221 64.5414 135.202 64.4281 135.193 64.3139C135.191 64.3073 135.191 64.3006 135.191 64.293C135.16 63.8704 135.266 63.4356 135.522 63.0587C136.102 62.207 138.168 61.6094 138.674 61.7778C140.295 61.3391 141.958 60.9623 142.969 59.4758C144.57 57.1233 143.829 54.9888 143.636 54.5254C143.622 54.494 143.609 54.4636 143.595 54.4321C142.699 55.5322 141.67 56.4324 140.295 56.8083C139.081 57.1405 137.779 57.2033 136.637 57.7686C136.102 58.0331 135.61 58.3928 135.171 58.901C134.46 59.7223 134.045 60.7929 134.06 61.8815C134.076 63.0235 134.575 64.1236 135.354 64.9498C135.354 64.9505 135.349 64.9394 135.342 64.92Z" fill="#C23334"/>
<path d="M136.638 57.7686C136.103 58.0331 135.611 58.3928 135.171 58.901C134.461 59.7223 134.045 60.7929 134.06 61.8815C134.075 62.974 134.534 64.0274 135.255 64.8403C134.964 64.4823 134.207 63.2519 135.462 61.2534C136.971 58.8496 139.621 60.003 141.342 58.7354C143.293 57.3004 143.595 54.4321 143.595 54.4321C142.7 55.5322 141.671 56.4324 140.296 56.8083C139.081 57.1405 137.779 57.2033 136.638 57.7686Z" fill="#C23334"/>
<path d="M131.077 57.991C130.239 57.4533 128.227 56.5721 126.651 56.6264C127.138 57.5323 127.454 58.4726 127.322 59.4975C127.206 60.4025 126.885 61.2923 126.946 62.2135C126.974 62.6455 127.077 63.0747 127.295 63.5115C127.647 64.2157 128.247 64.7924 128.98 65.0863C129.749 65.3941 130.624 65.3663 131.394 65.0753C130.922 65.0863 130.453 64.8602 130.175 64.4346C129.748 63.7798 129.961 62.1126 130.232 61.9346C130.543 61.732 132.117 62.2325 132.544 62.8872C132.815 63.3031 132.84 63.8084 132.654 64.2309C132.857 64.0139 133.032 63.7703 133.175 63.5115C133.774 62.4219 134.41 60.1294 131.077 57.991Z" fill="#C23334"/>
<path d="M126.651 56.6264C127.072 57.4096 127.364 58.2175 127.351 59.0845C129.224 59.0531 132.017 60.1256 132.774 61.4512C133.599 62.8958 132.653 64.2309 132.653 64.2309C132.856 64.014 133.031 63.7703 133.174 63.5115C133.774 62.4238 134.409 60.1303 131.077 57.992C130.239 57.4533 128.227 56.5721 126.651 56.6264Z" fill="#C23334"/>
<path d="M131.371 65.0749C131.307 65.0749 131.243 65.071 131.18 65.0639C131.174 65.0626 131.17 65.0626 131.166 65.0619C131.083 65.0503 131.002 65.0315 130.924 65.0056C130.918 65.0036 130.914 65.003 130.909 65.001C130.618 64.9025 130.356 64.7115 130.175 64.4346C129.767 63.8094 129.943 62.2591 130.197 61.9679C130.355 60.7603 130.567 59.5432 129.854 58.4517C128.726 56.7244 127.09 56.6245 126.726 56.6255C126.701 56.6264 126.676 56.6264 126.651 56.6274C127.138 57.5333 127.454 58.4735 127.322 59.4985C127.206 60.4035 126.885 61.2932 126.946 62.2144C126.974 62.6464 127.077 63.0757 127.295 63.5124C127.647 64.2167 128.247 64.7933 128.98 65.0872C129.749 65.395 130.624 65.3671 131.394 65.0762C131.393 65.0749 131.385 65.0762 131.371 65.0749Z" fill="#C23334"/>
<path d="M126.944 62.2145C126.973 62.6465 127.076 63.0757 127.294 63.5125C127.646 64.2168 128.246 64.7934 128.979 65.0877C129.714 65.3813 130.547 65.369 131.292 65.1124C130.972 65.2076 129.937 65.3709 128.95 63.9741C127.761 62.2935 129.273 60.8413 128.904 59.3358C128.487 57.6295 126.651 56.6274 126.651 56.6274C127.138 57.5334 127.454 58.4736 127.322 59.4985C127.205 60.4035 126.885 61.2923 126.944 62.2145Z" fill="#C23334"/>
<path d="M119.484 85.2437C116.559 85.2638 113.998 83.2867 113.242 80.4271C112.497 77.6064 113.785 74.6126 116.358 73.187C118.889 71.786 122.091 72.2772 124.088 74.3689C124.442 74.739 124.742 75.0299 124.258 75.5917C123.793 76.1302 124.227 76.9221 124.95 76.8637C125.538 76.8164 125.666 77.0886 125.752 77.5318C126.535 81.5034 123.518 85.2171 119.484 85.2437ZM119.207 74.5076C119.131 74.6541 119.226 74.6962 119.271 74.737C119.317 74.7778 119.661 74.8387 120.032 74.7169C120.403 74.5951 120.752 74.2679 120.833 73.9607C120.962 73.4734 120.585 73.1449 120.079 73.0924C118.523 72.9336 117.096 73.2946 115.901 74.3145C115.858 74.3514 115.822 74.3962 115.79 74.4467C115.508 74.9042 115.913 75.4459 116.447 75.3811C116.506 75.3733 116.564 75.363 116.621 75.3481C117.494 75.109 118.345 74.7921 119.207 74.5076Z" fill="#C23334"/>
<path d="M137.345 80.2737C137.059 79.9186 136.842 79.6199 136.288 80.0009C135.693 80.4078 134.94 79.914 135.07 79.2116C135.201 78.5228 134.862 78.3751 134.351 78.2066C130.2 76.8373 125.941 79.9095 125.937 84.2861C125.937 87.1457 127.722 89.5757 130.451 90.4337C133.124 91.2702 136.101 90.2296 137.656 87.9117C139.229 85.5724 139.103 82.4613 137.345 80.2737ZM133.611 80.2251C133.528 80.5329 133.182 80.8621 132.811 80.9839C132.437 81.1044 132.096 81.0448 132.052 81.0053C132.004 80.9619 131.909 80.9191 131.987 80.7765C131.125 81.0578 130.271 81.3785 129.401 81.6125C129.344 81.63 129.283 81.6384 129.227 81.6468C128.69 81.7116 128.287 81.1705 128.569 80.7156C128.599 80.6631 128.638 80.6204 128.681 80.5815C129.872 79.5589 131.302 79.1993 132.858 79.3594C133.365 79.4106 133.742 79.7397 133.611 80.2251Z" fill="#C23334"/>
<path d="M136.533 73.7892C136.525 71.0384 135.767 68.462 134.699 65.9594C134.629 65.7935 134.525 65.6322 134.505 65.4598C134.491 65.3341 134.554 65.1332 134.648 65.0801C134.745 65.025 134.946 65.0684 135.054 65.141C135.174 65.22 135.262 65.3691 135.329 65.5065C137.087 69.154 138.072 72.9338 137.197 77.0033C137.037 77.7511 136.767 78.4859 136.454 79.1851C136.344 79.4326 135.956 79.5551 135.694 79.7352C135.644 79.4294 135.463 79.0672 135.565 78.8274C136.256 77.2113 136.536 75.5291 136.533 73.7892Z" fill="#C23334"/>
<path d="M133.067 66.0063C133.053 67.498 132.497 68.8141 131.739 70.0583C130.167 72.6367 128.017 74.6396 125.493 76.2525C125.274 76.3925 124.88 76.2596 124.567 76.2525C124.707 75.9693 124.771 75.5715 125 75.4179C127.286 73.8841 129.355 72.1312 130.826 69.7667C131.634 68.4681 132.263 67.0982 132.361 65.5313C132.376 65.289 132.569 65.0576 132.678 64.8218C132.807 65.0622 132.959 65.2935 133.056 65.5469C133.108 65.681 133.065 65.8515 133.067 66.0063Z" fill="#C23334"/>
<path d="M57.0664 389.588C56.421 389.588 55.7951 389.503 55.1885 389.331C54.5898 389.153 54.1077 388.923 53.7422 388.643L54.3837 387.22C54.7336 387.477 55.1496 387.683 55.6318 387.838C56.1139 387.994 56.596 388.072 57.0781 388.072C57.6146 388.072 58.0112 387.994 58.2678 387.838C58.5244 387.675 58.6527 387.461 58.6527 387.197C58.6527 387.003 58.575 386.843 58.4195 386.719C58.2717 386.587 58.0773 386.482 57.8363 386.404C57.603 386.326 57.2842 386.241 56.8798 386.147C56.2577 385.999 55.7484 385.852 55.3518 385.704C54.9552 385.556 54.6131 385.319 54.3254 384.992C54.0455 384.666 53.9055 384.23 53.9055 383.686C53.9055 383.212 54.0338 382.784 54.2904 382.403C54.547 382.014 54.9319 381.707 55.4451 381.482C55.9661 381.256 56.5999 381.143 57.3464 381.143C57.8674 381.143 58.3767 381.206 58.8744 381.33C59.372 381.454 59.8075 381.633 60.1807 381.867L59.5975 383.301C58.8432 382.874 58.089 382.66 57.3347 382.66C56.8059 382.66 56.4132 382.745 56.1566 382.916C55.9078 383.087 55.7834 383.313 55.7834 383.593C55.7834 383.873 55.9272 384.083 56.215 384.223C56.5104 384.355 56.9576 384.487 57.5563 384.619C58.1784 384.767 58.6877 384.915 59.0843 385.062C59.4809 385.21 59.8191 385.443 60.0991 385.762C60.3868 386.081 60.5306 386.513 60.5306 387.057C60.5306 387.524 60.3984 387.951 60.1341 388.34C59.8774 388.721 59.4887 389.024 58.9677 389.25C58.4467 389.475 57.8129 389.588 57.0664 389.588ZM68.0154 383.173V389.448H66.2891V388.702C66.048 388.974 65.7603 389.184 65.426 389.331C65.0916 389.471 64.73 389.541 64.3412 389.541C63.5169 389.541 62.8638 389.304 62.3816 388.83C61.8995 388.356 61.6585 387.652 61.6585 386.719V383.173H63.4781V386.45C63.4781 387.461 63.9019 387.967 64.7494 387.967C65.1849 387.967 65.5348 387.827 65.7992 387.547C66.0636 387.259 66.1958 386.835 66.1958 386.276V383.173H68.0154ZM76.1747 383.173V388.398C76.1747 389.549 75.8753 390.405 75.2765 390.964C74.6777 391.524 73.8029 391.804 72.6521 391.804C72.0455 391.804 71.4701 391.73 70.9258 391.583C70.3815 391.435 69.9305 391.221 69.5728 390.941L70.2959 389.635C70.5603 389.852 70.8947 390.024 71.299 390.148C71.7034 390.28 72.1077 390.346 72.5121 390.346C73.1419 390.346 73.6046 390.202 73.9001 389.915C74.2034 389.635 74.355 389.207 74.355 388.632V388.363C73.8807 388.884 73.2197 389.145 72.3721 389.145C71.7967 389.145 71.2679 389.02 70.7858 388.772C70.3115 388.515 69.9343 388.157 69.6544 387.699C69.3745 387.24 69.2345 386.711 69.2345 386.112C69.2345 385.513 69.3745 384.985 69.6544 384.526C69.9343 384.067 70.3115 383.713 70.7858 383.464C71.2679 383.208 71.7967 383.08 72.3721 383.08C73.2819 383.08 73.974 383.379 74.4483 383.978V383.173H76.1747ZM72.7337 387.652C73.2158 387.652 73.6085 387.512 73.9118 387.232C74.2228 386.944 74.3783 386.571 74.3783 386.112C74.3783 385.653 74.2228 385.284 73.9118 385.004C73.6085 384.716 73.2158 384.573 72.7337 384.573C72.2516 384.573 71.855 384.716 71.544 385.004C71.2329 385.284 71.0774 385.653 71.0774 386.112C71.0774 386.571 71.2329 386.944 71.544 387.232C71.855 387.512 72.2516 387.652 72.7337 387.652ZM84.0148 386.334C84.0148 386.357 84.0031 386.52 83.9798 386.824H79.2326C79.3181 387.213 79.5203 387.52 79.8391 387.745C80.1579 387.971 80.5545 388.083 81.0288 388.083C81.3554 388.083 81.6431 388.037 81.892 387.943C82.1486 387.842 82.3857 387.687 82.6035 387.477L83.5716 388.527C82.9806 389.203 82.1175 389.541 80.9822 389.541C80.2745 389.541 79.6486 389.405 79.1043 389.133C78.5599 388.853 78.14 388.468 77.8445 387.978C77.5491 387.489 77.4013 386.933 77.4013 386.311C77.4013 385.696 77.5452 385.144 77.8329 384.654C78.1284 384.157 78.5288 383.772 79.0343 383.499C79.5475 383.22 80.119 383.08 80.7489 383.08C81.3632 383.08 81.9192 383.212 82.4168 383.476C82.9145 383.741 83.3033 384.122 83.5832 384.619C83.8709 385.109 84.0148 385.681 84.0148 386.334ZM80.7605 384.456C80.3484 384.456 80.0024 384.573 79.7225 384.806C79.4425 385.039 79.2714 385.358 79.2092 385.762H82.3002C82.238 385.366 82.0669 385.051 81.787 384.818C81.507 384.576 81.1649 384.456 80.7605 384.456ZM86.9645 384.001C87.1822 383.698 87.4738 383.468 87.8393 383.313C88.2125 383.157 88.6402 383.08 89.1223 383.08V384.759C88.9202 384.744 88.7841 384.736 88.7141 384.736C88.1931 384.736 87.7849 384.884 87.4894 385.179C87.1939 385.467 87.0461 385.902 87.0461 386.485V389.448H85.2266V383.173H86.9645V384.001ZM90.2045 383.173H92.0241V389.448H90.2045V383.173ZM91.1143 382.298C90.7799 382.298 90.5078 382.201 90.2978 382.006C90.0879 381.812 89.9829 381.571 89.9829 381.283C89.9829 380.996 90.0879 380.755 90.2978 380.56C90.5078 380.366 90.7799 380.269 91.1143 380.269C91.4487 380.269 91.7208 380.362 91.9308 380.548C92.1407 380.735 92.2457 380.968 92.2457 381.248C92.2457 381.552 92.1407 381.804 91.9308 382.006C91.7208 382.201 91.4487 382.298 91.1143 382.298ZM95.4507 384.001C95.6684 383.698 95.96 383.468 96.3255 383.313C96.6987 383.157 97.1264 383.08 97.6085 383.08V384.759C97.4064 384.744 97.2703 384.736 97.2003 384.736C96.6793 384.736 96.2711 384.884 95.9756 385.179C95.6801 385.467 95.5323 385.902 95.5323 386.485V389.448H93.7128V383.173H95.4507V384.001ZM99.4923 385.354C99.1735 385.354 98.9052 385.245 98.6875 385.027C98.4697 384.81 98.3609 384.538 98.3609 384.211C98.3609 383.877 98.4697 383.608 98.6875 383.406C98.9052 383.196 99.1735 383.091 99.4923 383.091C99.8111 383.091 100.079 383.196 100.297 383.406C100.515 383.608 100.624 383.877 100.624 384.211C100.624 384.538 100.515 384.81 100.297 385.027C100.079 385.245 99.8111 385.354 99.4923 385.354ZM99.4923 389.541C99.1735 389.541 98.9052 389.433 98.6875 389.215C98.4697 388.997 98.3609 388.725 98.3609 388.398C98.3609 388.064 98.4697 387.796 98.6875 387.594C98.9052 387.384 99.1735 387.279 99.4923 387.279C99.8111 387.279 100.079 387.384 100.297 387.594C100.515 387.796 100.624 388.064 100.624 388.398C100.624 388.725 100.515 388.997 100.297 389.215C100.079 389.433 99.8111 389.541 99.4923 389.541Z" fill="#C23334"/>
<path d="M106.228 389.286H204.4" stroke="#C23334" stroke-width="2"/>
<path d="M46.2875 483.408C49.1506 483.408 51.4715 481.087 51.4715 478.224C51.4715 475.361 49.1506 473.04 46.2875 473.04C43.4245 473.04 41.1035 475.361 41.1035 478.224C41.1035 481.087 43.4245 483.408 46.2875 483.408Z" fill="#FCA9AA"/>
<path d="M57.9516 483.408C60.8146 483.408 63.1356 481.087 63.1356 478.224C63.1356 475.361 60.8146 473.04 57.9516 473.04C55.0885 473.04 52.7676 475.361 52.7676 478.224C52.7676 481.087 55.0885 483.408 57.9516 483.408Z" fill="#C23334"/>
<path d="M69.6156 483.408C72.4787 483.408 74.7996 481.087 74.7996 478.224C74.7996 475.361 72.4787 473.04 69.6156 473.04C66.7526 473.04 64.4316 475.361 64.4316 478.224C64.4316 481.087 66.7526 483.408 69.6156 483.408Z" fill="#FCA9AA"/>
<path d="M81.2797 483.408C84.1428 483.408 86.4637 481.087 86.4637 478.224C86.4637 475.361 84.1428 473.04 81.2797 473.04C78.4167 473.04 76.0957 475.361 76.0957 478.224C76.0957 481.087 78.4167 483.408 81.2797 483.408Z" fill="#FCA9AA"/>
<path d="M92.9438 483.408C95.8068 483.408 98.1278 481.087 98.1278 478.224C98.1278 475.361 95.8068 473.04 92.9438 473.04C90.0807 473.04 87.7598 475.361 87.7598 478.224C87.7598 481.087 90.0807 483.408 92.9438 483.408Z" fill="#FCA9AA"/>
<g filter="url(#filter1_d)">
<path d="M195.652 493.128C206.567 493.128 215.416 484.279 215.416 473.364C215.416 462.448 206.567 453.6 195.652 453.6C184.736 453.6 175.888 462.448 175.888 473.364C175.888 484.279 184.736 493.128 195.652 493.128Z" fill="#C23334"/>
</g>
<path d="M205.736 474.375C206.115 473.996 206.115 473.38 205.736 473L199.55 466.815C199.17 466.436 198.555 466.436 198.175 466.815C197.796 467.194 197.796 467.81 198.175 468.19L203.674 473.688L198.175 479.186C197.796 479.566 197.796 480.182 198.175 480.561C198.555 480.94 199.17 480.94 199.55 480.561L205.736 474.375ZM185.608 474.66H205.048V472.716H185.608V474.66Z" fill="#FFFEFE"/>
<path d="M67.0245 195.696C67.0245 192.117 64.1233 189.216 60.5445 189.216C56.9656 189.216 54.0645 192.117 54.0645 195.696C54.0645 199.275 56.9656 202.176 60.5445 202.176C64.1233 202.176 67.0245 199.275 67.0245 195.696Z" fill="white" stroke="#C4C4C4" stroke-width="2"/>
<path d="M90.3264 199.584L90.3148 194.685L87.912 198.721H87.0605L84.6694 194.79V199.584H82.8965V191.419H84.4595L87.5154 196.493L90.5247 191.419H92.0761L92.0994 199.584H90.3264ZM100.23 193.309V199.584H98.5036V198.837C98.2625 199.11 97.9748 199.32 97.6404 199.467C97.3061 199.607 96.9445 199.677 96.5557 199.677C95.7314 199.677 95.0782 199.44 94.5961 198.966C94.114 198.491 93.873 197.788 93.873 196.855V193.309H95.6925V196.586C95.6925 197.597 96.1163 198.103 96.9639 198.103C97.3994 198.103 97.7493 197.963 98.0137 197.683C98.2781 197.395 98.4102 196.971 98.4102 196.411V193.309H100.23ZM101.916 190.929H103.736V199.584H101.916V190.929ZM109.238 193.215C110.016 193.215 110.642 193.449 111.116 193.915C111.598 194.382 111.839 195.074 111.839 195.991V199.584H110.02V196.271C110.02 195.774 109.911 195.404 109.693 195.163C109.475 194.914 109.161 194.79 108.748 194.79C108.29 194.79 107.924 194.934 107.652 195.222C107.38 195.501 107.244 195.921 107.244 196.481V199.584H105.424V190.929H107.244V193.962C107.485 193.721 107.776 193.538 108.119 193.414C108.461 193.281 108.834 193.215 109.238 193.215ZM119.704 196.47C119.704 196.493 119.693 196.656 119.669 196.959H114.922C115.007 197.348 115.21 197.655 115.528 197.881C115.847 198.106 116.244 198.219 116.718 198.219C117.045 198.219 117.333 198.173 117.581 198.079C117.838 197.978 118.075 197.823 118.293 197.613L119.261 198.662C118.67 199.339 117.807 199.677 116.672 199.677C115.964 199.677 115.338 199.541 114.794 199.269C114.249 198.989 113.829 198.604 113.534 198.114C113.238 197.624 113.091 197.068 113.091 196.446C113.091 195.832 113.235 195.28 113.522 194.79C113.818 194.292 114.218 193.907 114.724 193.635C115.237 193.355 115.808 193.215 116.438 193.215C117.053 193.215 117.609 193.348 118.106 193.612C118.604 193.876 118.993 194.257 119.273 194.755C119.56 195.245 119.704 195.816 119.704 196.47ZM116.45 194.592C116.038 194.592 115.692 194.708 115.412 194.942C115.132 195.175 114.961 195.494 114.899 195.898H117.99C117.927 195.501 117.756 195.187 117.476 194.953C117.196 194.712 116.854 194.592 116.45 194.592ZM122.653 194.137C122.871 193.834 123.163 193.604 123.528 193.449C123.901 193.293 124.329 193.215 124.811 193.215V194.895C124.609 194.879 124.473 194.872 124.403 194.872C123.882 194.872 123.474 195.019 123.178 195.315C122.883 195.603 122.735 196.038 122.735 196.621V199.584H120.915V193.309H122.653V194.137ZM133.29 199.281C133.111 199.413 132.889 199.514 132.625 199.584C132.368 199.646 132.096 199.677 131.808 199.677C131.062 199.677 130.482 199.487 130.07 199.106C129.666 198.725 129.464 198.165 129.464 197.426V194.848H128.496V193.449H129.464V191.921H131.283V193.449H132.846V194.848H131.283V197.403C131.283 197.667 131.349 197.873 131.482 198.021C131.622 198.161 131.816 198.231 132.065 198.231C132.352 198.231 132.597 198.153 132.8 197.998L133.29 199.281ZM136.049 194.137C136.266 193.834 136.558 193.604 136.923 193.449C137.297 193.293 137.724 193.215 138.207 193.215V194.895C138.004 194.879 137.868 194.872 137.798 194.872C137.277 194.872 136.869 195.019 136.574 195.315C136.278 195.603 136.13 196.038 136.13 196.621V199.584H134.311V193.309H136.049V194.137ZM141.785 193.215C142.757 193.215 143.504 193.449 144.025 193.915C144.546 194.374 144.806 195.07 144.806 196.003V199.584H143.103V198.802C142.761 199.386 142.124 199.677 141.191 199.677C140.708 199.677 140.289 199.596 139.931 199.432C139.581 199.269 139.313 199.043 139.126 198.756C138.939 198.468 138.846 198.141 138.846 197.776C138.846 197.193 139.064 196.734 139.499 196.4C139.943 196.065 140.623 195.898 141.54 195.898H142.987C142.987 195.501 142.866 195.198 142.625 194.988C142.384 194.771 142.023 194.662 141.54 194.662C141.206 194.662 140.876 194.716 140.549 194.825C140.23 194.926 139.958 195.066 139.733 195.245L139.079 193.974C139.422 193.732 139.83 193.546 140.304 193.414C140.786 193.281 141.28 193.215 141.785 193.215ZM141.645 198.452C141.957 198.452 142.233 198.382 142.474 198.243C142.715 198.095 142.886 197.881 142.987 197.601V196.959H141.739C140.992 196.959 140.619 197.204 140.619 197.694C140.619 197.928 140.708 198.114 140.887 198.254C141.074 198.386 141.327 198.452 141.645 198.452ZM150.267 193.215C151.045 193.215 151.671 193.449 152.145 193.915C152.627 194.382 152.868 195.074 152.868 195.991V199.584H151.049V196.271C151.049 195.774 150.94 195.404 150.722 195.163C150.504 194.914 150.189 194.79 149.777 194.79C149.318 194.79 148.953 194.934 148.681 195.222C148.409 195.501 148.273 195.921 148.273 196.481V199.584H146.453V193.309H148.191V194.043C148.432 193.779 148.731 193.577 149.089 193.437C149.447 193.289 149.839 193.215 150.267 193.215ZM156.629 199.677C156.108 199.677 155.599 199.615 155.101 199.491C154.604 199.358 154.207 199.195 153.911 199.001L154.518 197.694C154.798 197.873 155.136 198.021 155.533 198.138C155.929 198.246 156.318 198.301 156.699 198.301C157.469 198.301 157.854 198.11 157.854 197.729C157.854 197.55 157.749 197.422 157.539 197.344C157.329 197.267 157.006 197.201 156.571 197.146C156.058 197.068 155.634 196.979 155.299 196.878C154.965 196.777 154.674 196.598 154.425 196.341C154.184 196.085 154.063 195.719 154.063 195.245C154.063 194.848 154.176 194.498 154.401 194.195C154.635 193.884 154.969 193.643 155.404 193.472C155.848 193.301 156.369 193.215 156.967 193.215C157.411 193.215 157.85 193.266 158.285 193.367C158.729 193.46 159.094 193.592 159.382 193.764L158.775 195.058C158.223 194.747 157.621 194.592 156.967 194.592C156.579 194.592 156.287 194.646 156.093 194.755C155.898 194.864 155.801 195.004 155.801 195.175C155.801 195.369 155.906 195.505 156.116 195.583C156.326 195.661 156.66 195.735 157.119 195.805C157.632 195.89 158.052 195.984 158.379 196.085C158.705 196.178 158.989 196.353 159.23 196.61C159.471 196.866 159.592 197.224 159.592 197.683C159.592 198.071 159.475 198.417 159.242 198.721C159.009 199.024 158.666 199.261 158.215 199.432C157.772 199.596 157.243 199.677 156.629 199.677Z" fill="#C4C4C4"/>
<path d="M67.0245 220.968C67.0245 217.389 64.1233 214.488 60.5445 214.488C56.9656 214.488 54.0645 217.389 54.0645 220.968C54.0645 224.547 56.9656 227.448 60.5445 227.448C64.1233 227.448 67.0245 224.547 67.0245 220.968Z" fill="white" stroke="#C4C4C4" stroke-width="2"/>
<path d="M90.3848 216.691V224.856H88.4952V221.508H84.7861V224.856H82.8965V216.691H84.7861V219.91H88.4952V216.691H90.3848ZM95.1741 224.949C94.5132 224.949 93.9183 224.813 93.3895 224.541C92.8686 224.261 92.4603 223.876 92.1648 223.386C91.8693 222.896 91.7216 222.34 91.7216 221.718C91.7216 221.096 91.8693 220.54 92.1648 220.05C92.4603 219.56 92.8686 219.179 93.3895 218.907C93.9183 218.627 94.5132 218.487 95.1741 218.487C95.8351 218.487 96.4261 218.627 96.9471 218.907C97.4681 219.179 97.8763 219.56 98.1718 220.05C98.4673 220.54 98.615 221.096 98.615 221.718C98.615 222.34 98.4673 222.896 98.1718 223.386C97.8763 223.876 97.4681 224.261 96.9471 224.541C96.4261 224.813 95.8351 224.949 95.1741 224.949ZM95.1741 223.456C95.6407 223.456 96.0217 223.301 96.3172 222.99C96.6205 222.671 96.7721 222.247 96.7721 221.718C96.7721 221.189 96.6205 220.77 96.3172 220.458C96.0217 220.14 95.6407 219.98 95.1741 219.98C94.7076 219.98 94.3227 220.14 94.0194 220.458C93.7161 220.77 93.5645 221.189 93.5645 221.718C93.5645 222.247 93.7161 222.671 94.0194 222.99C94.3227 223.301 94.7076 223.456 95.1741 223.456ZM107.868 218.487C108.653 218.487 109.275 218.721 109.734 219.187C110.201 219.646 110.434 220.338 110.434 221.263V224.856H108.614V221.543C108.614 221.046 108.509 220.676 108.299 220.435C108.097 220.186 107.806 220.062 107.425 220.062C106.997 220.062 106.659 220.202 106.41 220.482C106.161 220.754 106.037 221.162 106.037 221.707V224.856H104.217V221.543C104.217 220.556 103.82 220.062 103.027 220.062C102.607 220.062 102.273 220.202 102.024 220.482C101.775 220.754 101.651 221.162 101.651 221.707V224.856H99.8313V218.581H101.569V219.304C101.803 219.039 102.086 218.837 102.421 218.697C102.763 218.557 103.136 218.487 103.54 218.487C103.984 218.487 104.384 218.577 104.742 218.756C105.1 218.927 105.387 219.179 105.605 219.514C105.862 219.187 106.184 218.934 106.573 218.756C106.97 218.577 107.401 218.487 107.868 218.487ZM118.28 221.742C118.28 221.765 118.268 221.928 118.245 222.231H113.498C113.583 222.62 113.785 222.927 114.104 223.153C114.423 223.378 114.82 223.491 115.294 223.491C115.62 223.491 115.908 223.444 116.157 223.351C116.414 223.25 116.651 223.095 116.869 222.885L117.837 223.934C117.246 224.611 116.383 224.949 115.247 224.949C114.54 224.949 113.914 224.813 113.369 224.541C112.825 224.261 112.405 223.876 112.11 223.386C111.814 222.896 111.666 222.34 111.666 221.718C111.666 221.104 111.81 220.552 112.098 220.062C112.393 219.564 112.794 219.179 113.299 218.907C113.813 218.627 114.384 218.487 115.014 218.487C115.628 218.487 116.184 218.619 116.682 218.884C117.18 219.148 117.568 219.529 117.848 220.027C118.136 220.517 118.28 221.088 118.28 221.742ZM115.026 219.864C114.613 219.864 114.267 219.98 113.988 220.214C113.708 220.447 113.537 220.766 113.474 221.17H116.565C116.503 220.773 116.332 220.458 116.052 220.225C115.772 219.984 115.43 219.864 115.026 219.864ZM127.528 218.487C128.314 218.487 128.936 218.721 129.394 219.187C129.861 219.646 130.094 220.338 130.094 221.263V224.856H128.275V221.543C128.275 221.046 128.17 220.676 127.96 220.435C127.758 220.186 127.466 220.062 127.085 220.062C126.657 220.062 126.319 220.202 126.07 220.482C125.821 220.754 125.697 221.162 125.697 221.707V224.856H123.877V221.543C123.877 220.556 123.481 220.062 122.688 220.062C122.268 220.062 121.933 220.202 121.684 220.482C121.436 220.754 121.311 221.162 121.311 221.707V224.856H119.492V218.581H121.23V219.304C121.463 219.039 121.747 218.837 122.081 218.697C122.423 218.557 122.796 218.487 123.201 218.487C123.644 218.487 124.044 218.577 124.402 218.756C124.76 218.927 125.048 219.179 125.265 219.514C125.522 219.187 125.845 218.934 126.233 218.756C126.63 218.577 127.062 218.487 127.528 218.487ZM138.061 224.949C137.392 224.949 136.789 224.813 136.253 224.541C135.724 224.261 135.308 223.876 135.005 223.386C134.709 222.896 134.562 222.34 134.562 221.718C134.562 221.096 134.709 220.54 135.005 220.05C135.308 219.56 135.724 219.179 136.253 218.907C136.789 218.627 137.392 218.487 138.061 218.487C138.722 218.487 139.297 218.627 139.787 218.907C140.285 219.179 140.646 219.572 140.872 220.085L139.46 220.843C139.134 220.268 138.663 219.98 138.049 219.98C137.575 219.98 137.182 220.136 136.871 220.447C136.56 220.758 136.404 221.182 136.404 221.718C136.404 222.255 136.56 222.679 136.871 222.99C137.182 223.301 137.575 223.456 138.049 223.456C138.671 223.456 139.142 223.168 139.46 222.593L140.872 223.363C140.646 223.861 140.285 224.249 139.787 224.529C139.297 224.809 138.722 224.949 138.061 224.949ZM141.92 218.581H143.739V224.856H141.92V218.581ZM142.829 217.706C142.495 217.706 142.223 217.609 142.013 217.414C141.803 217.22 141.698 216.979 141.698 216.691C141.698 216.403 141.803 216.162 142.013 215.968C142.223 215.773 142.495 215.676 142.829 215.676C143.164 215.676 143.436 215.77 143.646 215.956C143.856 216.143 143.961 216.376 143.961 216.656C143.961 216.959 143.856 217.212 143.646 217.414C143.436 217.609 143.164 217.706 142.829 217.706ZM147.539 224.949C147.018 224.949 146.509 224.887 146.011 224.763C145.513 224.63 145.117 224.467 144.821 224.273L145.428 222.966C145.708 223.145 146.046 223.293 146.443 223.409C146.839 223.518 147.228 223.573 147.609 223.573C148.379 223.573 148.764 223.382 148.764 223.001C148.764 222.822 148.659 222.694 148.449 222.616C148.239 222.539 147.916 222.472 147.481 222.418C146.967 222.34 146.544 222.251 146.209 222.15C145.875 222.049 145.583 221.87 145.335 221.613C145.093 221.357 144.973 220.991 144.973 220.517C144.973 220.12 145.086 219.77 145.311 219.467C145.544 219.156 145.879 218.915 146.314 218.744C146.758 218.573 147.279 218.487 147.877 218.487C148.321 218.487 148.76 218.538 149.195 218.639C149.639 218.732 150.004 218.864 150.292 219.035L149.685 220.33C149.133 220.019 148.53 219.864 147.877 219.864C147.488 219.864 147.197 219.918 147.002 220.027C146.808 220.136 146.711 220.276 146.711 220.447C146.711 220.641 146.816 220.777 147.026 220.855C147.236 220.933 147.57 221.007 148.029 221.077C148.542 221.162 148.962 221.256 149.289 221.357C149.615 221.45 149.899 221.625 150.14 221.882C150.381 222.138 150.502 222.496 150.502 222.955C150.502 223.343 150.385 223.689 150.152 223.993C149.918 224.296 149.576 224.533 149.125 224.704C148.682 224.867 148.153 224.949 147.539 224.949Z" fill="#C4C4C4"/>
<path d="M67.0245 245.592C67.0245 242.013 64.1233 239.112 60.5445 239.112C56.9656 239.112 54.0645 242.013 54.0645 245.592C54.0645 249.171 56.9656 252.072 60.5445 252.072C64.1233 252.072 67.0245 249.171 67.0245 245.592Z" fill="white" stroke="#C4C4C4" stroke-width="2"/>
<path d="M90.3848 241.315V249.48H88.4952V246.133H84.7861V249.48H82.8965V241.315H84.7861V244.535H88.4952V241.315H90.3848ZM95.1741 249.574C94.5132 249.574 93.9183 249.437 93.3895 249.165C92.8686 248.885 92.4603 248.5 92.1648 248.011C91.8693 247.521 91.7216 246.965 91.7216 246.343C91.7216 245.721 91.8693 245.165 92.1648 244.675C92.4603 244.185 92.8686 243.804 93.3895 243.532C93.9183 243.252 94.5132 243.112 95.1741 243.112C95.8351 243.112 96.4261 243.252 96.9471 243.532C97.4681 243.804 97.8763 244.185 98.1718 244.675C98.4673 245.165 98.615 245.721 98.615 246.343C98.615 246.965 98.4673 247.521 98.1718 248.011C97.8763 248.5 97.4681 248.885 96.9471 249.165C96.4261 249.437 95.8351 249.574 95.1741 249.574ZM95.1741 248.081C95.6407 248.081 96.0217 247.925 96.3172 247.614C96.6205 247.295 96.7721 246.871 96.7721 246.343C96.7721 245.814 96.6205 245.394 96.3172 245.083C96.0217 244.764 95.6407 244.605 95.1741 244.605C94.7076 244.605 94.3227 244.764 94.0194 245.083C93.7161 245.394 93.5645 245.814 93.5645 246.343C93.5645 246.871 93.7161 247.295 94.0194 247.614C94.3227 247.925 94.7076 248.081 95.1741 248.081ZM107.868 243.112C108.653 243.112 109.275 243.345 109.734 243.812C110.201 244.27 110.434 244.962 110.434 245.888V249.48H108.614V246.168C108.614 245.67 108.509 245.301 108.299 245.06C108.097 244.811 107.806 244.686 107.425 244.686C106.997 244.686 106.659 244.826 106.41 245.106C106.161 245.378 106.037 245.787 106.037 246.331V249.48H104.217V246.168C104.217 245.18 103.82 244.686 103.027 244.686C102.607 244.686 102.273 244.826 102.024 245.106C101.775 245.378 101.651 245.787 101.651 246.331V249.48H99.8313V243.205H101.569V243.928C101.803 243.664 102.086 243.462 102.421 243.322C102.763 243.182 103.136 243.112 103.54 243.112C103.984 243.112 104.384 243.201 104.742 243.38C105.1 243.551 105.387 243.804 105.605 244.138C105.862 243.812 106.184 243.559 106.573 243.38C106.97 243.201 107.401 243.112 107.868 243.112ZM118.28 246.366C118.28 246.389 118.268 246.553 118.245 246.856H113.498C113.583 247.245 113.785 247.552 114.104 247.777C114.423 248.003 114.82 248.116 115.294 248.116C115.62 248.116 115.908 248.069 116.157 247.976C116.414 247.874 116.651 247.719 116.869 247.509L117.837 248.559C117.246 249.235 116.383 249.574 115.247 249.574C114.54 249.574 113.914 249.437 113.369 249.165C112.825 248.885 112.405 248.5 112.11 248.011C111.814 247.521 111.666 246.965 111.666 246.343C111.666 245.728 111.81 245.176 112.098 244.686C112.393 244.189 112.794 243.804 113.299 243.532C113.813 243.252 114.384 243.112 115.014 243.112C115.628 243.112 116.184 243.244 116.682 243.508C117.18 243.773 117.568 244.154 117.848 244.651C118.136 245.141 118.28 245.713 118.28 246.366ZM115.026 244.488C114.613 244.488 114.267 244.605 113.988 244.838C113.708 245.071 113.537 245.39 113.474 245.794H116.565C116.503 245.398 116.332 245.083 116.052 244.85C115.772 244.609 115.43 244.488 115.026 244.488ZM127.528 243.112C128.314 243.112 128.936 243.345 129.394 243.812C129.861 244.27 130.094 244.962 130.094 245.888V249.48H128.275V246.168C128.275 245.67 128.17 245.301 127.96 245.06C127.758 244.811 127.466 244.686 127.085 244.686C126.657 244.686 126.319 244.826 126.07 245.106C125.821 245.378 125.697 245.787 125.697 246.331V249.48H123.877V246.168C123.877 245.18 123.481 244.686 122.688 244.686C122.268 244.686 121.933 244.826 121.684 245.106C121.436 245.378 121.311 245.787 121.311 246.331V249.48H119.492V243.205H121.23V243.928C121.463 243.664 121.747 243.462 122.081 243.322C122.423 243.182 122.796 243.112 123.201 243.112C123.644 243.112 124.044 243.201 124.402 243.38C124.76 243.551 125.048 243.804 125.265 244.138C125.522 243.812 125.845 243.559 126.233 243.38C126.63 243.201 127.062 243.112 127.528 243.112ZM139.075 249.177C138.897 249.309 138.675 249.41 138.411 249.48C138.154 249.542 137.882 249.574 137.594 249.574C136.848 249.574 136.268 249.383 135.856 249.002C135.452 248.621 135.25 248.061 135.25 247.322V244.745H134.282V243.345H135.25V241.817H137.069V243.345H138.632V244.745H137.069V247.299C137.069 247.563 137.135 247.77 137.268 247.917C137.408 248.057 137.602 248.127 137.851 248.127C138.138 248.127 138.383 248.049 138.586 247.894L139.075 249.177ZM141.835 244.033C142.053 243.73 142.345 243.5 142.71 243.345C143.083 243.189 143.511 243.112 143.993 243.112V244.791C143.791 244.776 143.655 244.768 143.585 244.768C143.064 244.768 142.656 244.916 142.36 245.211C142.065 245.499 141.917 245.934 141.917 246.518V249.48H140.097V243.205H141.835V244.033ZM147.572 243.112C148.544 243.112 149.291 243.345 149.812 243.812C150.333 244.27 150.593 244.966 150.593 245.899V249.48H148.89V248.699C148.548 249.282 147.91 249.574 146.977 249.574C146.495 249.574 146.075 249.492 145.717 249.329C145.368 249.165 145.099 248.94 144.913 248.652C144.726 248.364 144.633 248.038 144.633 247.672C144.633 247.089 144.85 246.63 145.286 246.296C145.729 245.962 146.41 245.794 147.327 245.794H148.773C148.773 245.398 148.653 245.095 148.412 244.885C148.171 244.667 147.809 244.558 147.327 244.558C146.993 244.558 146.662 244.612 146.336 244.721C146.017 244.822 145.745 244.962 145.519 245.141L144.866 243.87C145.208 243.629 145.616 243.442 146.091 243.31C146.573 243.178 147.067 243.112 147.572 243.112ZM147.432 248.349C147.743 248.349 148.019 248.279 148.26 248.139C148.501 247.991 148.672 247.777 148.773 247.497V246.856H147.525C146.779 246.856 146.406 247.101 146.406 247.591C146.406 247.824 146.495 248.011 146.674 248.151C146.861 248.283 147.113 248.349 147.432 248.349ZM156.054 243.112C156.831 243.112 157.457 243.345 157.932 243.812C158.414 244.278 158.655 244.97 158.655 245.888V249.48H156.835V246.168C156.835 245.67 156.726 245.301 156.509 245.06C156.291 244.811 155.976 244.686 155.564 244.686C155.105 244.686 154.74 244.83 154.467 245.118C154.195 245.398 154.059 245.818 154.059 246.378V249.48H152.24V243.205H153.978V243.94C154.219 243.675 154.518 243.473 154.876 243.333C155.233 243.186 155.626 243.112 156.054 243.112ZM162.415 249.574C161.894 249.574 161.385 249.511 160.887 249.387C160.39 249.255 159.993 249.091 159.697 248.897L160.304 247.591C160.584 247.77 160.922 247.917 161.319 248.034C161.715 248.143 162.104 248.197 162.485 248.197C163.255 248.197 163.64 248.007 163.64 247.626C163.64 247.447 163.535 247.319 163.325 247.241C163.115 247.163 162.792 247.097 162.357 247.042C161.844 246.965 161.42 246.875 161.085 246.774C160.751 246.673 160.459 246.494 160.211 246.238C159.97 245.981 159.849 245.616 159.849 245.141C159.849 244.745 159.962 244.395 160.187 244.091C160.421 243.78 160.755 243.539 161.19 243.368C161.634 243.197 162.155 243.112 162.753 243.112C163.197 243.112 163.636 243.162 164.071 243.263C164.515 243.357 164.88 243.489 165.168 243.66L164.561 244.955C164.009 244.644 163.407 244.488 162.753 244.488C162.365 244.488 162.073 244.542 161.879 244.651C161.684 244.76 161.587 244.9 161.587 245.071C161.587 245.266 161.692 245.402 161.902 245.479C162.112 245.557 162.446 245.631 162.905 245.701C163.418 245.787 163.838 245.88 164.165 245.981C164.491 246.074 164.775 246.249 165.016 246.506C165.257 246.763 165.378 247.12 165.378 247.579C165.378 247.968 165.261 248.314 165.028 248.617C164.795 248.92 164.452 249.158 164.001 249.329C163.558 249.492 163.029 249.574 162.415 249.574Z" fill="#C4C4C4"/>
<path d="M67.0245 268.272C67.0245 264.693 64.1233 261.792 60.5445 261.792C56.9656 261.792 54.0645 264.693 54.0645 268.272C54.0645 271.851 56.9656 274.752 60.5445 274.752C64.1233 274.752 67.0245 271.851 67.0245 268.272Z" fill="white" stroke="#C4C4C4" stroke-width="2"/>
<path d="M67.0245 292.896C67.0245 289.317 64.1233 286.416 60.5445 286.416C56.9656 286.416 54.0645 289.317 54.0645 292.896C54.0645 296.475 56.9656 299.376 60.5445 299.376C64.1233 299.376 67.0245 296.475 67.0245 292.896Z" fill="white" stroke="#C4C4C4" stroke-width="2"/>
<path d="M84.5873 265.535H81.9746V263.995H89.0897V265.535H86.4769V272.16H84.5873V265.535ZM91.5793 266.713C91.797 266.41 92.0886 266.18 92.4541 266.025C92.8273 265.869 93.255 265.791 93.7371 265.791V267.471C93.5349 267.456 93.3988 267.448 93.3289 267.448C92.8079 267.448 92.3996 267.595 92.1041 267.891C91.8087 268.179 91.6609 268.614 91.6609 269.197V272.16H89.8413V265.885H91.5793V266.713ZM97.316 265.791C98.288 265.791 99.0345 266.025 99.5555 266.491C100.076 266.95 100.337 267.646 100.337 268.579V272.16H98.634V271.379C98.2919 271.962 97.6543 272.253 96.7211 272.253C96.239 272.253 95.8191 272.172 95.4614 272.008C95.1115 271.845 94.8432 271.62 94.6566 271.332C94.47 271.044 94.3767 270.718 94.3767 270.352C94.3767 269.769 94.5944 269.31 95.0299 268.976C95.4731 268.641 96.1535 268.474 97.0711 268.474H98.5174C98.5174 268.078 98.3969 267.774 98.1558 267.564C97.9148 267.347 97.5532 267.238 97.0711 267.238C96.7367 267.238 96.4062 267.292 96.0796 267.401C95.7608 267.502 95.4886 267.642 95.2631 267.821L94.61 266.55C94.9521 266.309 95.3603 266.122 95.8347 265.99C96.3168 265.858 96.8106 265.791 97.316 265.791ZM97.176 271.029C97.4871 271.029 97.7631 270.959 98.0042 270.819C98.2452 270.671 98.4163 270.457 98.5174 270.177V269.536H97.2694C96.5229 269.536 96.1496 269.781 96.1496 270.27C96.1496 270.504 96.239 270.69 96.4179 270.83C96.6045 270.963 96.8572 271.029 97.176 271.029ZM108.099 265.885L105.451 272.16H103.573L100.937 265.885H102.815L104.553 270.154L106.349 265.885H108.099ZM114.817 269.046C114.817 269.069 114.806 269.232 114.782 269.536H110.035C110.12 269.924 110.323 270.232 110.641 270.457C110.96 270.683 111.357 270.795 111.831 270.795C112.158 270.795 112.446 270.749 112.694 270.655C112.951 270.554 113.188 270.399 113.406 270.189L114.374 271.239C113.783 271.915 112.92 272.253 111.785 272.253C111.077 272.253 110.451 272.117 109.907 271.845C109.362 271.565 108.942 271.18 108.647 270.69C108.351 270.2 108.204 269.644 108.204 269.022C108.204 268.408 108.348 267.856 108.635 267.366C108.931 266.868 109.331 266.484 109.837 266.211C110.35 265.931 110.921 265.791 111.551 265.791C112.166 265.791 112.722 265.924 113.219 266.188C113.717 266.452 114.106 266.833 114.386 267.331C114.673 267.821 114.817 268.393 114.817 269.046ZM111.563 267.168C111.151 267.168 110.805 267.284 110.525 267.518C110.245 267.751 110.074 268.07 110.012 268.474H113.103C113.04 268.078 112.869 267.763 112.589 267.529C112.309 267.288 111.967 267.168 111.563 267.168ZM118.139 272.253C117.618 272.253 117.109 272.191 116.611 272.067C116.114 271.934 115.717 271.771 115.422 271.577L116.028 270.27C116.308 270.449 116.646 270.597 117.043 270.714C117.44 270.823 117.828 270.877 118.209 270.877C118.979 270.877 119.364 270.686 119.364 270.305C119.364 270.127 119.259 269.998 119.049 269.921C118.839 269.843 118.517 269.777 118.081 269.722C117.568 269.644 117.144 269.555 116.81 269.454C116.475 269.353 116.184 269.174 115.935 268.917C115.694 268.661 115.573 268.295 115.573 267.821C115.573 267.424 115.686 267.075 115.912 266.771C116.145 266.46 116.479 266.219 116.915 266.048C117.358 265.877 117.879 265.791 118.478 265.791C118.921 265.791 119.36 265.842 119.796 265.943C120.239 266.036 120.604 266.169 120.892 266.34L120.286 267.634C119.734 267.323 119.131 267.168 118.478 267.168C118.089 267.168 117.797 267.222 117.603 267.331C117.409 267.44 117.311 267.58 117.311 267.751C117.311 267.945 117.416 268.081 117.626 268.159C117.836 268.237 118.171 268.311 118.629 268.381C119.143 268.466 119.562 268.56 119.889 268.661C120.216 268.754 120.499 268.929 120.741 269.186C120.982 269.442 121.102 269.8 121.102 270.259C121.102 270.648 120.986 270.994 120.752 271.297C120.519 271.6 120.177 271.837 119.726 272.008C119.283 272.172 118.754 272.253 118.139 272.253ZM126.273 271.857C126.094 271.989 125.872 272.09 125.608 272.16C125.351 272.222 125.079 272.253 124.791 272.253C124.045 272.253 123.465 272.063 123.053 271.682C122.649 271.301 122.447 270.741 122.447 270.002V267.424H121.479V266.025H122.447V264.497H124.266V266.025H125.829V267.424H124.266V269.979C124.266 270.243 124.332 270.449 124.465 270.597C124.605 270.737 124.799 270.807 125.048 270.807C125.336 270.807 125.58 270.729 125.783 270.574L126.273 271.857ZM127.294 265.885H129.113V272.16H127.294V265.885ZM128.204 265.01C127.869 265.01 127.597 264.913 127.387 264.718C127.177 264.524 127.072 264.283 127.072 263.995C127.072 263.708 127.177 263.466 127.387 263.272C127.597 263.078 127.869 262.98 128.204 262.98C128.538 262.98 128.81 263.074 129.02 263.26C129.23 263.447 129.335 263.68 129.335 263.96C129.335 264.264 129.23 264.516 129.02 264.718C128.81 264.913 128.538 265.01 128.204 265.01Z" fill="#C4C4C4"/>
<path d="M90.3848 288.619V296.784H88.8335L84.7627 291.827V296.784H82.8965V288.619H84.4595L88.5185 293.576V288.619H90.3848ZM94.7192 290.416C95.6912 290.416 96.4377 290.649 96.9587 291.115C97.4797 291.574 97.7402 292.27 97.7402 293.203V296.784H96.0373V296.003C95.6951 296.586 95.0575 296.877 94.1244 296.877C93.6423 296.877 93.2224 296.796 92.8647 296.632C92.5147 296.469 92.2465 296.244 92.0599 295.956C91.8732 295.668 91.7799 295.342 91.7799 294.976C91.7799 294.393 91.9976 293.934 92.4331 293.6C92.8763 293.265 93.5567 293.098 94.4743 293.098H95.9206C95.9206 292.702 95.8001 292.398 95.5591 292.188C95.318 291.971 94.9564 291.862 94.4743 291.862C94.1399 291.862 93.8094 291.916 93.4829 292.025C93.164 292.126 92.8919 292.266 92.6664 292.445L92.0132 291.174C92.3553 290.933 92.7636 290.746 93.2379 290.614C93.72 290.482 94.2138 290.416 94.7192 290.416ZM94.5793 295.653C94.8903 295.653 95.1664 295.583 95.4074 295.443C95.6485 295.295 95.8195 295.081 95.9206 294.801V294.16H94.6726C93.9261 294.16 93.5528 294.405 93.5528 294.894C93.5528 295.128 93.6423 295.314 93.8211 295.454C94.0077 295.587 94.2605 295.653 94.5793 295.653ZM95.7807 289.739C95.5707 289.739 95.3841 289.7 95.2208 289.622C95.0653 289.537 94.8903 289.424 94.6959 289.284C94.5715 289.191 94.4665 289.121 94.381 289.074C94.3032 289.027 94.2255 289.004 94.1477 289.004C93.9844 289.004 93.8522 289.062 93.7511 289.179C93.65 289.288 93.5956 289.447 93.5878 289.657H92.6664C92.6819 289.136 92.8102 288.724 93.0513 288.421C93.3001 288.11 93.6267 287.954 94.0311 287.954C94.2332 287.954 94.4121 287.997 94.5676 288.083C94.7309 288.16 94.9136 288.273 95.1158 288.421C95.2402 288.514 95.3413 288.584 95.4191 288.631C95.5046 288.678 95.5863 288.701 95.664 288.701C95.8196 288.701 95.9479 288.646 96.0489 288.538C96.1578 288.421 96.2161 288.265 96.2239 288.071H97.1454C97.1298 288.576 96.9976 288.981 96.7488 289.284C96.5077 289.587 96.185 289.739 95.7807 289.739ZM102.441 296.877C101.781 296.877 101.186 296.741 100.657 296.469C100.136 296.189 99.7276 295.804 99.4321 295.314C99.1367 294.825 98.9889 294.269 98.9889 293.646C98.9889 293.024 99.1367 292.468 99.4321 291.978C99.7276 291.489 100.136 291.108 100.657 290.835C101.186 290.555 101.781 290.416 102.441 290.416C103.102 290.416 103.693 290.555 104.214 290.835C104.735 291.108 105.144 291.489 105.439 291.978C105.735 292.468 105.882 293.024 105.882 293.646C105.882 294.269 105.735 294.825 105.439 295.314C105.144 295.804 104.735 296.189 104.214 296.469C103.693 296.741 103.102 296.877 102.441 296.877ZM102.441 295.384C102.908 295.384 103.289 295.229 103.585 294.918C103.888 294.599 104.039 294.175 104.039 293.646C104.039 293.118 103.888 292.698 103.585 292.387C103.289 292.068 102.908 291.909 102.441 291.909C101.975 291.909 101.59 292.068 101.287 292.387C100.983 292.698 100.832 293.118 100.832 293.646C100.832 294.175 100.983 294.599 101.287 294.918C101.59 295.229 101.975 295.384 102.441 295.384ZM114.111 290.416C114.694 290.416 115.223 290.552 115.698 290.824C116.18 291.088 116.557 291.465 116.829 291.955C117.101 292.437 117.237 293.001 117.237 293.646C117.237 294.292 117.101 294.86 116.829 295.349C116.557 295.832 116.18 296.209 115.698 296.481C115.223 296.745 114.694 296.877 114.111 296.877C113.248 296.877 112.591 296.605 112.14 296.061V296.784H110.402V288.129H112.222V291.174C112.681 290.668 113.31 290.416 114.111 290.416ZM113.796 295.384C114.263 295.384 114.644 295.229 114.939 294.918C115.243 294.599 115.394 294.175 115.394 293.646C115.394 293.118 115.243 292.698 114.939 292.387C114.644 292.068 114.263 291.909 113.796 291.909C113.33 291.909 112.945 292.068 112.642 292.387C112.346 292.698 112.198 293.118 112.198 293.646C112.198 294.175 112.346 294.599 112.642 294.918C112.945 295.229 113.33 295.384 113.796 295.384ZM118.455 290.509H120.274V296.784H118.455V290.509ZM119.365 289.634C119.03 289.634 118.758 289.537 118.548 289.342C118.338 289.148 118.233 288.907 118.233 288.619C118.233 288.332 118.338 288.09 118.548 287.896C118.758 287.702 119.03 287.604 119.365 287.604C119.699 287.604 119.971 287.698 120.181 287.884C120.391 288.071 120.496 288.304 120.496 288.584C120.496 288.888 120.391 289.14 120.181 289.342C119.971 289.537 119.699 289.634 119.365 289.634ZM125.777 290.416C126.555 290.416 127.181 290.649 127.655 291.115C128.137 291.582 128.378 292.274 128.378 293.192V296.784H126.559V293.471C126.559 292.974 126.45 292.604 126.232 292.363C126.014 292.115 125.699 291.99 125.287 291.99C124.829 291.99 124.463 292.134 124.191 292.422C123.919 292.702 123.783 293.122 123.783 293.681V296.784H121.963V290.509H123.701V291.244C123.942 290.979 124.241 290.777 124.599 290.637C124.957 290.489 125.35 290.416 125.777 290.416ZM132.559 290.416C133.531 290.416 134.278 290.649 134.799 291.115C135.32 291.574 135.58 292.27 135.58 293.203V296.784H133.877V296.003C133.535 296.586 132.897 296.877 131.964 296.877C131.482 296.877 131.062 296.796 130.705 296.632C130.355 296.469 130.086 296.244 129.9 295.956C129.713 295.668 129.62 295.342 129.62 294.976C129.62 294.393 129.838 293.934 130.273 293.6C130.716 293.265 131.397 293.098 132.314 293.098H133.761C133.761 292.702 133.64 292.398 133.399 292.188C133.158 291.971 132.796 291.862 132.314 291.862C131.98 291.862 131.649 291.916 131.323 292.025C131.004 292.126 130.732 292.266 130.506 292.445L129.853 291.174C130.195 290.933 130.604 290.746 131.078 290.614C131.56 290.482 132.054 290.416 132.559 290.416ZM132.419 295.653C132.73 295.653 133.006 295.583 133.247 295.443C133.488 295.295 133.66 295.081 133.761 294.801V294.16H132.513C131.766 294.16 131.393 294.405 131.393 294.894C131.393 295.128 131.482 295.314 131.661 295.454C131.848 295.587 132.1 295.653 132.419 295.653ZM133.259 288.024H135.219L133.107 289.704H131.684L133.259 288.024ZM138.965 291.337C139.182 291.034 139.474 290.804 139.839 290.649C140.213 290.493 140.64 290.416 141.123 290.416V292.095C140.92 292.08 140.784 292.072 140.714 292.072C140.193 292.072 139.785 292.22 139.49 292.515C139.194 292.803 139.046 293.238 139.046 293.821V296.784H137.227V290.509H138.965V291.337ZM142.205 290.509H144.024V296.784H142.205V290.509ZM143.114 289.634C142.78 289.634 142.508 289.537 142.298 289.342C142.088 289.148 141.983 288.907 141.983 288.619C141.983 288.332 142.088 288.09 142.298 287.896C142.508 287.702 142.78 287.604 143.114 287.604C143.449 287.604 143.721 287.698 143.931 287.884C144.141 288.071 144.246 288.304 144.246 288.584C144.246 288.888 144.141 289.14 143.931 289.342C143.721 289.537 143.449 289.634 143.114 289.634ZM148.699 296.877C148.038 296.877 147.443 296.741 146.914 296.469C146.393 296.189 145.985 295.804 145.69 295.314C145.394 294.825 145.246 294.269 145.246 293.646C145.246 293.024 145.394 292.468 145.69 291.978C145.985 291.489 146.393 291.108 146.914 290.835C147.443 290.555 148.038 290.416 148.699 290.416C149.36 290.416 149.951 290.555 150.472 290.835C150.993 291.108 151.401 291.489 151.697 291.978C151.992 292.468 152.14 293.024 152.14 293.646C152.14 294.269 151.992 294.825 151.697 295.314C151.401 295.804 150.993 296.189 150.472 296.469C149.951 296.741 149.36 296.877 148.699 296.877ZM148.699 295.384C149.166 295.384 149.547 295.229 149.842 294.918C150.145 294.599 150.297 294.175 150.297 293.646C150.297 293.118 150.145 292.698 149.842 292.387C149.547 292.068 149.166 291.909 148.699 291.909C148.232 291.909 147.847 292.068 147.544 292.387C147.241 292.698 147.089 293.118 147.089 293.646C147.089 294.175 147.241 294.599 147.544 294.918C147.847 295.229 148.232 295.384 148.699 295.384Z" fill="#C4C4C4"/>
<path d="M90.3264 174.312L90.3148 169.414L87.912 173.449H87.0605L84.6694 169.518V174.312H82.8965V166.148H84.4595L87.5154 171.221L90.5247 166.148H92.0761L92.0994 174.312H90.3264ZM100.23 168.037V174.312H98.5036V173.566C98.2625 173.838 97.9748 174.048 97.6404 174.196C97.3061 174.336 96.9445 174.406 96.5557 174.406C95.7314 174.406 95.0782 174.169 94.5961 173.694C94.114 173.22 93.873 172.516 93.873 171.583V168.037H95.6925V171.315C95.6925 172.326 96.1163 172.831 96.9639 172.831C97.3994 172.831 97.7493 172.691 98.0137 172.411C98.2781 172.123 98.4102 171.7 98.4102 171.14V168.037H100.23ZM101.916 165.658H103.736V174.312H101.916V165.658ZM109.238 167.944C110.016 167.944 110.642 168.177 111.116 168.644C111.598 169.11 111.839 169.802 111.839 170.72V174.312H110.02V171C110.02 170.502 109.911 170.133 109.693 169.892C109.475 169.643 109.161 169.518 108.748 169.518C108.29 169.518 107.924 169.662 107.652 169.95C107.38 170.23 107.244 170.65 107.244 171.21V174.312H105.424V165.658H107.244V168.69C107.485 168.449 107.776 168.267 108.119 168.142C108.461 168.01 108.834 167.944 109.238 167.944ZM119.704 171.198C119.704 171.221 119.693 171.385 119.669 171.688H114.922C115.007 172.077 115.21 172.384 115.528 172.609C115.847 172.835 116.244 172.948 116.718 172.948C117.045 172.948 117.332 172.901 117.581 172.808C117.838 172.707 118.075 172.551 118.293 172.341L119.261 173.391C118.67 174.067 117.807 174.406 116.672 174.406C115.964 174.406 115.338 174.27 114.794 173.997C114.249 173.718 113.829 173.333 113.534 172.843C113.238 172.353 113.091 171.797 113.091 171.175C113.091 170.56 113.235 170.008 113.522 169.518C113.818 169.021 114.218 168.636 114.724 168.364C115.237 168.084 115.808 167.944 116.438 167.944C117.053 167.944 117.609 168.076 118.106 168.34C118.604 168.605 118.993 168.986 119.273 169.483C119.56 169.973 119.704 170.545 119.704 171.198ZM116.45 169.32C116.038 169.32 115.692 169.437 115.412 169.67C115.132 169.903 114.961 170.222 114.899 170.627H117.99C117.927 170.23 117.756 169.915 117.476 169.682C117.196 169.441 116.854 169.32 116.45 169.32ZM122.653 168.865C122.871 168.562 123.163 168.333 123.528 168.177C123.901 168.022 124.329 167.944 124.811 167.944V169.623C124.609 169.608 124.473 169.6 124.403 169.6C123.882 169.6 123.474 169.748 123.178 170.043C122.883 170.331 122.735 170.767 122.735 171.35V174.312H120.915V168.037H122.653V168.865ZM132.275 174.406C131.606 174.406 131.003 174.27 130.467 173.997C129.938 173.718 129.522 173.333 129.219 172.843C128.923 172.353 128.776 171.797 128.776 171.175C128.776 170.553 128.923 169.997 129.219 169.507C129.522 169.017 129.938 168.636 130.467 168.364C131.003 168.084 131.606 167.944 132.275 167.944C132.936 167.944 133.511 168.084 134.001 168.364C134.499 168.636 134.86 169.029 135.086 169.542L133.674 170.3C133.348 169.725 132.877 169.437 132.263 169.437C131.789 169.437 131.396 169.592 131.085 169.903C130.774 170.214 130.618 170.638 130.618 171.175C130.618 171.711 130.774 172.135 131.085 172.446C131.396 172.757 131.789 172.913 132.263 172.913C132.885 172.913 133.356 172.625 133.674 172.05L135.086 172.819C134.86 173.317 134.499 173.706 134.001 173.986C133.511 174.266 132.936 174.406 132.275 174.406ZM136.134 168.037H137.953V174.312H136.134V168.037ZM137.043 167.162C136.709 167.162 136.437 167.065 136.227 166.871C136.017 166.676 135.912 166.435 135.912 166.148C135.912 165.86 136.017 165.619 136.227 165.424C136.437 165.23 136.709 165.133 137.043 165.133C137.378 165.133 137.65 165.226 137.86 165.413C138.07 165.599 138.175 165.833 138.175 166.113C138.175 166.416 138.07 166.669 137.86 166.871C137.65 167.065 137.378 167.162 137.043 167.162ZM141.753 174.406C141.232 174.406 140.723 174.343 140.225 174.219C139.727 174.087 139.331 173.924 139.035 173.729L139.642 172.423C139.922 172.602 140.26 172.749 140.657 172.866C141.053 172.975 141.442 173.029 141.823 173.029C142.593 173.029 142.978 172.839 142.978 172.458C142.978 172.279 142.873 172.151 142.663 172.073C142.453 171.995 142.13 171.929 141.695 171.875C141.181 171.797 140.758 171.707 140.423 171.606C140.089 171.505 139.797 171.326 139.549 171.07C139.307 170.813 139.187 170.448 139.187 169.973C139.187 169.577 139.3 169.227 139.525 168.924C139.758 168.613 140.093 168.372 140.528 168.2C140.972 168.029 141.493 167.944 142.091 167.944C142.535 167.944 142.974 167.994 143.409 168.095C143.853 168.189 144.218 168.321 144.506 168.492L143.899 169.787C143.347 169.476 142.744 169.32 142.091 169.32C141.702 169.32 141.411 169.375 141.216 169.483C141.022 169.592 140.925 169.732 140.925 169.903C140.925 170.098 141.03 170.234 141.24 170.312C141.45 170.389 141.784 170.463 142.243 170.533C142.756 170.619 143.176 170.712 143.503 170.813C143.829 170.907 144.113 171.081 144.354 171.338C144.595 171.595 144.716 171.952 144.716 172.411C144.716 172.8 144.599 173.146 144.366 173.449C144.132 173.753 143.79 173.99 143.339 174.161C142.896 174.324 142.367 174.406 141.753 174.406Z" fill="#C23334"/>
<path d="M67.0245 170.424C67.0245 166.845 64.1233 163.944 60.5445 163.944C56.9656 163.944 54.0645 166.845 54.0645 170.424C54.0645 174.003 56.9656 176.904 60.5445 176.904C64.1233 176.904 67.0245 174.003 67.0245 170.424Z" fill="white" stroke="#C23334" stroke-width="2"/>
<path d="M60.5443 174.312C62.6915 174.312 64.4323 172.571 64.4323 170.424C64.4323 168.277 62.6915 166.536 60.5443 166.536C58.397 166.536 56.6562 168.277 56.6562 170.424C56.6562 172.571 58.397 174.312 60.5443 174.312Z" fill="#C23334"/>
<path d="M67.0245 317.52C67.0245 313.941 64.1233 311.04 60.5445 311.04C56.9656 311.04 54.0645 313.941 54.0645 317.52C54.0645 321.099 56.9656 324 60.5445 324C64.1233 324 67.0245 321.099 67.0245 317.52Z" fill="white" stroke="#C4C4C4" stroke-width="2"/>
<path d="M82.8965 313.243H84.7861V321.408H82.8965V313.243ZM90.4094 315.04C91.187 315.04 91.813 315.273 92.2873 315.739C92.7694 316.206 93.0105 316.898 93.0105 317.816V321.408H91.1909V318.096C91.1909 317.598 91.082 317.229 90.8643 316.987C90.6466 316.739 90.3316 316.614 89.9195 316.614C89.4607 316.614 89.0952 316.758 88.8231 317.046C88.5509 317.326 88.4149 317.746 88.4149 318.305V321.408H86.5953V315.133H88.3332V315.868C88.5743 315.603 88.8736 315.401 89.2313 315.261C89.589 315.113 89.9817 315.04 90.4094 315.04ZM98.7077 321.105C98.5288 321.237 98.3072 321.338 98.0428 321.408C97.7862 321.47 97.5141 321.501 97.2264 321.501C96.4799 321.501 95.9005 321.311 95.4884 320.93C95.0841 320.549 94.8819 319.989 94.8819 319.25V316.673H93.9138V315.273H94.8819V313.745H96.7015V315.273H98.2645V316.673H96.7015V319.227C96.7015 319.491 96.7676 319.697 96.8998 319.845C97.0397 319.985 97.2341 320.055 97.483 320.055C97.7707 320.055 98.0156 319.977 98.2178 319.822L98.7077 321.105ZM105.682 318.294C105.682 318.317 105.67 318.48 105.647 318.784H100.9C100.985 319.173 101.188 319.48 101.506 319.705C101.825 319.931 102.222 320.043 102.696 320.043C103.023 320.043 103.31 319.997 103.559 319.903C103.816 319.802 104.053 319.647 104.271 319.437L105.239 320.487C104.648 321.163 103.785 321.501 102.649 321.501C101.942 321.501 101.316 321.365 100.772 321.093C100.227 320.813 99.8073 320.428 99.5118 319.938C99.2164 319.449 99.0686 318.893 99.0686 318.27C99.0686 317.656 99.2125 317.104 99.5002 316.614C99.7957 316.117 100.196 315.732 100.702 315.459C101.215 315.18 101.786 315.04 102.416 315.04C103.03 315.04 103.586 315.172 104.084 315.436C104.582 315.701 104.971 316.082 105.251 316.579C105.538 317.069 105.682 317.641 105.682 318.294ZM102.428 316.416C102.016 316.416 101.67 316.533 101.39 316.766C101.11 316.999 100.939 317.318 100.877 317.722H103.967C103.905 317.326 103.734 317.011 103.454 316.777C103.174 316.536 102.832 316.416 102.428 316.416ZM108.631 315.961C108.849 315.658 109.14 315.428 109.506 315.273C109.879 315.117 110.307 315.04 110.789 315.04V316.719C110.587 316.704 110.451 316.696 110.381 316.696C109.86 316.696 109.452 316.844 109.156 317.139C108.861 317.427 108.713 317.862 108.713 318.445V321.408H106.893V315.133H108.631V315.961ZM114.005 321.501C113.484 321.501 112.975 321.439 112.477 321.315C111.979 321.183 111.583 321.019 111.287 320.825L111.894 319.519C112.174 319.697 112.512 319.845 112.909 319.962C113.305 320.071 113.694 320.125 114.075 320.125C114.845 320.125 115.23 319.935 115.23 319.554C115.23 319.375 115.125 319.246 114.915 319.169C114.705 319.091 114.382 319.025 113.947 318.97C113.433 318.893 113.01 318.803 112.675 318.702C112.341 318.601 112.049 318.422 111.801 318.166C111.559 317.909 111.439 317.543 111.439 317.069C111.439 316.673 111.552 316.323 111.777 316.019C112.01 315.708 112.345 315.467 112.78 315.296C113.224 315.125 113.745 315.04 114.343 315.04C114.787 315.04 115.226 315.09 115.661 315.191C116.105 315.285 116.47 315.417 116.758 315.588L116.151 316.882C115.599 316.571 114.996 316.416 114.343 316.416C113.954 316.416 113.663 316.47 113.468 316.579C113.274 316.688 113.177 316.828 113.177 316.999C113.177 317.194 113.282 317.33 113.492 317.407C113.702 317.485 114.036 317.559 114.495 317.629C115.008 317.715 115.428 317.808 115.755 317.909C116.081 318.002 116.365 318.177 116.606 318.434C116.847 318.69 116.968 319.048 116.968 319.507C116.968 319.896 116.851 320.242 116.618 320.545C116.384 320.848 116.042 321.085 115.591 321.256C115.148 321.42 114.619 321.501 114.005 321.501ZM124.238 318.294C124.238 318.317 124.226 318.48 124.203 318.784H119.455C119.541 319.173 119.743 319.48 120.062 319.705C120.381 319.931 120.777 320.043 121.252 320.043C121.578 320.043 121.866 319.997 122.115 319.903C122.371 319.802 122.609 319.647 122.826 319.437L123.794 320.487C123.203 321.163 122.34 321.501 121.205 321.501C120.497 321.501 119.871 321.365 119.327 321.093C118.783 320.813 118.363 320.428 118.067 319.938C117.772 319.449 117.624 318.893 117.624 318.27C117.624 317.656 117.768 317.104 118.056 316.614C118.351 316.117 118.752 315.732 119.257 315.459C119.77 315.18 120.342 315.04 120.972 315.04C121.586 315.04 122.142 315.172 122.64 315.436C123.137 315.701 123.526 316.082 123.806 316.579C124.094 317.069 124.238 317.641 124.238 318.294ZM120.983 316.416C120.571 316.416 120.225 316.533 119.945 316.766C119.665 316.999 119.494 317.318 119.432 317.722H122.523C122.461 317.326 122.29 317.011 122.01 316.777C121.73 316.536 121.388 316.416 120.983 316.416ZM129.267 321.408L127.891 319.484L126.468 321.408H124.485L126.9 318.247L124.567 315.133H126.608L127.938 316.964L129.302 315.133H131.239L128.906 318.201L131.332 321.408H129.267ZM138.423 315.133V321.408H136.697V320.662C136.456 320.934 136.168 321.144 135.834 321.291C135.499 321.431 135.138 321.501 134.749 321.501C133.925 321.501 133.271 321.264 132.789 320.79C132.307 320.316 132.066 319.612 132.066 318.679V315.133H133.886V318.41C133.886 319.421 134.309 319.927 135.157 319.927C135.592 319.927 135.942 319.787 136.207 319.507C136.471 319.219 136.603 318.795 136.603 318.236V315.133H138.423ZM142.639 315.04C143.611 315.04 144.358 315.273 144.879 315.739C145.4 316.198 145.66 316.894 145.66 317.827V321.408H143.958V320.627C143.615 321.21 142.978 321.501 142.045 321.501C141.563 321.501 141.143 321.42 140.785 321.256C140.435 321.093 140.167 320.868 139.98 320.58C139.793 320.292 139.7 319.966 139.7 319.6C139.7 319.017 139.918 318.558 140.353 318.224C140.797 317.889 141.477 317.722 142.395 317.722H143.841C143.841 317.326 143.72 317.022 143.479 316.812C143.238 316.595 142.877 316.486 142.395 316.486C142.06 316.486 141.73 316.54 141.403 316.649C141.084 316.75 140.812 316.89 140.587 317.069L139.933 315.798C140.276 315.557 140.684 315.37 141.158 315.238C141.64 315.106 142.134 315.04 142.639 315.04ZM142.5 320.277C142.811 320.277 143.087 320.207 143.328 320.067C143.569 319.919 143.74 319.705 143.841 319.425V318.784H142.593C141.846 318.784 141.473 319.029 141.473 319.519C141.473 319.752 141.563 319.938 141.741 320.078C141.928 320.211 142.181 320.277 142.5 320.277ZM147.308 312.753H149.127V321.408H147.308V312.753Z" fill="#C4C4C4"/>
</g>
<defs>
<filter id="filter0_d" x="0" y="0" width="263" height="556.176" filterUnits="userSpaceOnUse" color-interpolation-filters="sRGB">
<feFlood flood-opacity="0" result="BackgroundImageFix"/>
<feColorMatrix in="SourceAlpha" type="matrix" values="0 0 0 0 0 0 0 0 0 0 0 0 0 0 0 0 0 0 127 0"/>
<feOffset dy="20"/>
<feGaussianBlur stdDeviation="5"/>
<feColorMatrix type="matrix" values="0 0 0 0 0 0 0 0 0 0 0 0 0 0 0 0 0 0 0.25 0"/>
<feBlend mode="normal" in2="BackgroundImageFix" result="effect1_dropShadow"/>
<feBlend mode="normal" in="SourceGraphic" in2="effect1_dropShadow" result="shape"/>
</filter>
<filter id="filter1_d" x="171.888" y="453.6" width="47.528" height="47.528" filterUnits="userSpaceOnUse" color-interpolation-filters="sRGB">
<feFlood flood-opacity="0" result="BackgroundImageFix"/>
<feColorMatrix in="SourceAlpha" type="matrix" values="0 0 0 0 0 0 0 0 0 0 0 0 0 0 0 0 0 0 127 0"/>
<feOffset dy="4"/>
<feGaussianBlur stdDeviation="2"/>
<feColorMatrix type="matrix" values="0 0 0 0 0 0 0 0 0 0 0 0 0 0 0 0 0 0 0.25 0"/>
<feBlend mode="normal" in2="BackgroundImageFix" result="effect1_dropShadow"/>
<feBlend mode="normal" in="SourceGraphic" in2="effect1_dropShadow" result="shape"/>
</filter>
</defs>
</svg>
