<svg width="263" height="557" viewBox="0 0 263 557" fill="none" xmlns="http://www.w3.org/2000/svg">
<g filter="url(#filter0_d)">
<path d="M238 0H25C16.7157 0 10 6.71574 10 15V511.176C10 519.46 16.7157 526.176 25 526.176H238C246.284 526.176 253 519.46 253 511.176V15C253 6.71573 246.284 0 238 0Z" fill="white"/>
<path d="M36.5288 27.1765C36.1493 27.5561 36.1493 28.1716 36.5288 28.5512L42.7146 34.7369C43.0942 35.1165 43.7096 35.1165 44.0892 34.7369C44.4688 34.3573 44.4688 33.7419 44.0892 33.3623L38.5907 27.8638L44.0892 22.3654C44.4688 21.9858 44.4688 21.3704 44.0892 20.9908C43.7096 20.6112 43.0942 20.6112 42.7146 20.9908L36.5288 27.1765ZM56.0081 26.8918H37.2161V28.8358H56.0081V26.8918Z" fill="#C23334"/>
<g filter="url(#filter1_d)">
<path d="M195.652 493.128C206.567 493.128 215.416 484.279 215.416 473.364C215.416 462.449 206.567 453.6 195.652 453.6C184.736 453.6 175.888 462.449 175.888 473.364C175.888 484.279 184.736 493.128 195.652 493.128Z" fill="#C23334"/>
</g>
<path d="M205.736 474.375C206.115 473.996 206.115 473.38 205.736 473L199.55 466.815C199.17 466.436 198.555 466.436 198.175 466.815C197.796 467.194 197.796 467.81 198.175 468.19L203.674 473.688L198.175 479.186C197.796 479.566 197.796 480.182 198.175 480.561C198.555 480.94 199.17 480.94 199.55 480.561L205.736 474.375ZM185.608 474.66H205.048V472.716H185.608V474.66Z" fill="#FFFEFE"/>
<path d="M47.4696 129.299C47.1171 129.714 46.7075 130.03 46.241 130.248C45.7744 130.466 45.2716 130.575 44.7324 130.575C44.0481 130.575 43.4053 130.409 42.804 130.077C42.213 129.756 41.5339 129.201 40.7667 128.413C39.7402 128.361 38.8123 128.086 37.9829 127.589C37.1638 127.091 36.521 126.433 36.0544 125.614C35.5982 124.784 35.3701 123.867 35.3701 122.861C35.3701 121.814 35.6189 120.865 36.1166 120.015C36.6246 119.165 37.3193 118.501 38.2006 118.024C39.0819 117.537 40.072 117.293 41.171 117.293C42.2597 117.293 43.2446 117.537 44.1259 118.024C45.0072 118.501 45.6966 119.165 46.1943 120.015C46.692 120.855 46.9408 121.803 46.9408 122.861C46.9408 123.753 46.7594 124.572 46.3965 125.318C46.044 126.065 45.5411 126.692 44.8879 127.2C44.2451 127.708 43.5038 128.06 42.664 128.257C43.0269 128.641 43.3742 128.916 43.706 129.082C44.0481 129.258 44.3955 129.346 44.748 129.346C45.5152 129.346 46.1788 129.035 46.7386 128.413L47.4696 129.299ZM36.9253 122.861C36.9253 123.649 37.1068 124.364 37.4696 125.007C37.8429 125.64 38.3509 126.137 38.9937 126.5C39.6469 126.863 40.3727 127.044 41.171 127.044C41.959 127.044 42.6744 126.863 43.3172 126.5C43.96 126.137 44.4629 125.64 44.8257 125.007C45.199 124.364 45.3856 123.649 45.3856 122.861C45.3856 122.073 45.199 121.363 44.8257 120.73C44.4629 120.087 43.96 119.585 43.3172 119.222C42.6744 118.859 41.959 118.677 41.171 118.677C40.3727 118.677 39.6469 118.859 38.9937 119.222C38.3509 119.585 37.8429 120.087 37.4696 120.73C37.1068 121.363 36.9253 122.073 36.9253 122.861ZM56.7828 120.062V128.304H55.3676V127.06C55.0669 127.485 54.6678 127.817 54.1701 128.055C53.6828 128.283 53.1488 128.397 52.5682 128.397C51.4692 128.397 50.6035 128.097 49.971 127.495C49.3386 126.884 49.0224 125.987 49.0224 124.805V120.062H50.5154V124.634C50.5154 125.432 50.7072 126.039 51.0908 126.453C51.4744 126.858 52.0239 127.06 52.7393 127.06C53.5273 127.06 54.1494 126.821 54.6055 126.345C55.0617 125.868 55.2898 125.194 55.2898 124.323V120.062H56.7828ZM62.6266 119.984C63.767 119.984 64.6379 120.264 65.2393 120.824C65.851 121.383 66.1569 122.218 66.1569 123.327V128.304H64.7416V127.215C64.4928 127.599 64.1351 127.895 63.6685 128.102C63.2123 128.299 62.668 128.397 62.0356 128.397C61.1128 128.397 60.3715 128.175 59.8116 127.729C59.2621 127.283 58.9874 126.697 58.9874 125.971C58.9874 125.246 59.2518 124.665 59.7805 124.229C60.3093 123.784 61.1491 123.561 62.3 123.561H64.6639V123.265C64.6639 122.622 64.4772 122.13 64.104 121.788C63.7307 121.446 63.1812 121.275 62.4555 121.275C61.9682 121.275 61.4913 121.358 61.0247 121.523C60.5581 121.679 60.1642 121.892 59.8427 122.161L59.2207 121.041C59.6458 120.699 60.1538 120.44 60.7448 120.264C61.3357 120.077 61.963 119.984 62.6266 119.984ZM62.2844 127.247C62.8547 127.247 63.3471 127.122 63.7619 126.873C64.1766 126.614 64.4772 126.251 64.6639 125.785V124.634H62.3622C61.0973 124.634 60.4648 125.059 60.4648 125.909C60.4648 126.324 60.6255 126.65 60.9469 126.889C61.2683 127.127 61.7142 127.247 62.2844 127.247ZM68.9198 116.765H70.4128V128.304H68.9198V116.765ZM80.4418 119.984C81.5822 119.984 82.4532 120.264 83.0545 120.824C83.6662 121.383 83.9721 122.218 83.9721 123.327V128.304H82.5568V127.215C82.308 127.599 81.9503 127.895 81.4837 128.102C81.0276 128.299 80.4832 128.397 79.8508 128.397C78.928 128.397 78.1867 128.175 77.6269 127.729C77.0773 127.283 76.8026 126.697 76.8026 125.971C76.8026 125.246 77.067 124.665 77.5957 124.229C78.1245 123.784 78.9643 123.561 80.1152 123.561H82.4791V123.265C82.4791 122.622 82.2924 122.13 81.9192 121.788C81.546 121.446 80.9964 121.275 80.2707 121.275C79.7834 121.275 79.3065 121.358 78.8399 121.523C78.3733 121.679 77.9794 121.892 77.658 122.161L77.0359 121.041C77.461 120.699 77.969 120.44 78.56 120.264C79.1509 120.077 79.7782 119.984 80.4418 119.984ZM80.0996 127.247C80.6699 127.247 81.1623 127.122 81.5771 126.873C81.9918 126.614 82.2924 126.251 82.4791 125.785V124.634H80.1774C78.9125 124.634 78.28 125.059 78.28 125.909C78.28 126.324 78.4407 126.65 78.7621 126.889C79.0836 127.127 79.5294 127.247 80.0996 127.247ZM93.2754 128.397C92.6015 128.397 91.9535 128.309 91.3314 128.133C90.7093 127.946 90.222 127.713 89.8695 127.433L90.4916 126.251C90.8545 126.51 91.2951 126.718 91.8135 126.873C92.3319 127.029 92.8555 127.107 93.3843 127.107C94.6906 127.107 95.3438 126.733 95.3438 125.987C95.3438 125.738 95.2557 125.541 95.0794 125.396C94.9032 125.251 94.6803 125.147 94.4107 125.085C94.1515 125.012 93.7782 124.935 93.291 124.852C92.6274 124.748 92.0831 124.629 91.658 124.494C91.2433 124.359 90.8856 124.131 90.5849 123.81C90.2842 123.488 90.1339 123.037 90.1339 122.457C90.1339 121.71 90.4449 121.114 91.067 120.668C91.6891 120.212 92.5237 119.984 93.5709 119.984C94.1204 119.984 94.6699 120.051 95.2194 120.186C95.7689 120.321 96.2199 120.502 96.5724 120.73L95.9348 121.912C95.2609 121.477 94.4677 121.259 93.5553 121.259C92.9229 121.259 92.4408 121.363 92.109 121.57C91.7772 121.777 91.6113 122.052 91.6113 122.394C91.6113 122.664 91.7047 122.876 91.8913 123.032C92.0779 123.188 92.306 123.302 92.5756 123.374C92.8555 123.447 93.2443 123.53 93.742 123.623C94.4055 123.737 94.9395 123.861 95.3438 123.996C95.7585 124.121 96.111 124.338 96.4014 124.649C96.6917 124.96 96.8368 125.396 96.8368 125.956C96.8368 126.702 96.5154 127.298 95.8726 127.744C95.2401 128.18 94.3744 128.397 93.2754 128.397ZM106.385 120.062V128.304H104.97V127.06C104.669 127.485 104.27 127.817 103.772 128.055C103.285 128.283 102.751 128.397 102.171 128.397C101.071 128.397 100.206 128.097 99.5733 127.495C98.9409 126.884 98.6246 125.987 98.6246 124.805V120.062H100.118V124.634C100.118 125.432 100.309 126.039 100.693 126.453C101.077 126.858 101.626 127.06 102.342 127.06C103.13 127.06 103.752 126.821 104.208 126.345C104.664 125.868 104.892 125.194 104.892 124.323V120.062H106.385ZM112.229 119.984C113.369 119.984 114.24 120.264 114.841 120.824C115.453 121.383 115.759 122.218 115.759 123.327V128.304H114.344V127.215C114.095 127.599 113.737 127.895 113.271 128.102C112.815 128.299 112.27 128.397 111.638 128.397C110.715 128.397 109.974 128.175 109.414 127.729C108.864 127.283 108.59 126.697 108.59 125.971C108.59 125.246 108.854 124.665 109.383 124.229C109.912 123.784 110.751 123.561 111.902 123.561H114.266V123.265C114.266 122.622 114.079 122.13 113.706 121.788C113.333 121.446 112.783 121.275 112.058 121.275C111.57 121.275 111.093 121.358 110.627 121.523C110.16 121.679 109.766 121.892 109.445 122.161L108.823 121.041C109.248 120.699 109.756 120.44 110.347 120.264C110.938 120.077 111.565 119.984 112.229 119.984ZM111.887 127.247C112.457 127.247 112.949 127.122 113.364 126.873C113.779 126.614 114.079 126.251 114.266 125.785V124.634H111.964C110.699 124.634 110.067 125.059 110.067 125.909C110.067 126.324 110.228 126.65 110.549 126.889C110.871 127.127 111.316 127.247 111.887 127.247ZM122.698 120.062H124.191V128.304H122.698V120.062ZM123.445 118.475C123.155 118.475 122.911 118.382 122.714 118.195C122.527 118.009 122.434 117.781 122.434 117.511C122.434 117.241 122.527 117.013 122.714 116.827C122.911 116.63 123.155 116.531 123.445 116.531C123.735 116.531 123.974 116.625 124.16 116.811C124.357 116.987 124.456 117.21 124.456 117.48C124.456 117.76 124.357 117.998 124.16 118.195C123.974 118.382 123.735 118.475 123.445 118.475ZM131.444 119.984C132.491 119.984 133.321 120.29 133.932 120.901C134.554 121.503 134.865 122.389 134.865 123.561V128.304H133.372V123.732C133.372 122.933 133.181 122.332 132.797 121.928C132.413 121.523 131.864 121.321 131.148 121.321C130.34 121.321 129.702 121.56 129.236 122.037C128.769 122.503 128.536 123.177 128.536 124.058V128.304H127.043V120.062H128.473V121.306C128.774 120.881 129.178 120.554 129.687 120.326C130.205 120.098 130.791 119.984 131.444 119.984ZM142.262 127.822C142.045 128.009 141.775 128.154 141.454 128.257C141.132 128.351 140.8 128.397 140.458 128.397C139.629 128.397 138.986 128.175 138.53 127.729C138.074 127.283 137.845 126.645 137.845 125.816V121.29H136.446V120.062H137.845V118.258H139.338V120.062H141.702V121.29H139.338V125.754C139.338 126.199 139.447 126.542 139.665 126.78C139.893 127.018 140.215 127.138 140.629 127.138C141.086 127.138 141.474 127.008 141.796 126.749L142.262 127.822ZM151.244 124.229C151.244 124.344 151.233 124.494 151.212 124.681H144.525C144.618 125.406 144.935 125.992 145.474 126.438C146.023 126.873 146.702 127.091 147.511 127.091C148.496 127.091 149.289 126.759 149.891 126.096L150.715 127.06C150.342 127.495 149.875 127.827 149.315 128.055C148.766 128.283 148.149 128.397 147.464 128.397C146.593 128.397 145.821 128.221 145.147 127.869C144.473 127.506 143.95 127.003 143.576 126.36C143.214 125.717 143.032 124.992 143.032 124.183C143.032 123.384 143.208 122.664 143.561 122.021C143.924 121.378 144.416 120.881 145.038 120.528C145.671 120.165 146.381 119.984 147.169 119.984C147.957 119.984 148.657 120.165 149.268 120.528C149.891 120.881 150.373 121.378 150.715 122.021C151.067 122.664 151.244 123.4 151.244 124.229ZM147.169 121.244C146.454 121.244 145.852 121.461 145.365 121.897C144.888 122.332 144.608 122.902 144.525 123.607H149.813C149.73 122.913 149.445 122.348 148.957 121.912C148.48 121.466 147.884 121.244 147.169 121.244ZM157.718 119.984C158.765 119.984 159.594 120.29 160.206 120.901C160.828 121.503 161.139 122.389 161.139 123.561V128.304H159.646V123.732C159.646 122.933 159.454 122.332 159.071 121.928C158.687 121.523 158.138 121.321 157.422 121.321C156.614 121.321 155.976 121.56 155.509 122.037C155.043 122.503 154.809 123.177 154.809 124.058V128.304H153.316V120.062H154.747V121.306C155.048 120.881 155.452 120.554 155.96 120.326C156.479 120.098 157.065 119.984 157.718 119.984ZM167.541 128.397C166.701 128.397 165.949 128.216 165.286 127.853C164.633 127.49 164.119 126.993 163.746 126.36C163.373 125.717 163.186 124.992 163.186 124.183C163.186 123.374 163.373 122.654 163.746 122.021C164.119 121.378 164.633 120.881 165.286 120.528C165.949 120.165 166.701 119.984 167.541 119.984C168.287 119.984 168.951 120.134 169.531 120.435C170.122 120.735 170.579 121.171 170.9 121.741L169.765 122.472C169.505 122.078 169.184 121.783 168.8 121.586C168.417 121.389 167.992 121.29 167.525 121.29C166.986 121.29 166.499 121.409 166.063 121.648C165.638 121.886 165.301 122.228 165.052 122.674C164.814 123.11 164.695 123.613 164.695 124.183C164.695 124.763 164.814 125.277 165.052 125.722C165.301 126.158 165.638 126.495 166.063 126.733C166.499 126.972 166.986 127.091 167.525 127.091C167.992 127.091 168.417 126.993 168.8 126.796C169.184 126.599 169.505 126.303 169.765 125.909L170.9 126.625C170.579 127.195 170.122 127.635 169.531 127.946C168.951 128.247 168.287 128.397 167.541 128.397ZM166.81 131.788C166.271 131.788 165.809 131.674 165.426 131.446L165.752 130.684C166.063 130.86 166.416 130.948 166.81 130.948C167.39 130.948 167.681 130.741 167.681 130.326C167.681 130.139 167.608 129.989 167.463 129.875C167.318 129.771 167.095 129.719 166.794 129.719H166.374L166.763 128.195H167.619L167.385 129.082C167.821 129.123 168.152 129.258 168.381 129.486C168.619 129.725 168.738 130.02 168.738 130.373C168.738 130.808 168.562 131.15 168.209 131.399C167.857 131.658 167.39 131.788 166.81 131.788ZM175.834 119.984C176.975 119.984 177.846 120.264 178.447 120.824C179.059 121.383 179.365 122.218 179.365 123.327V128.304H177.95V127.215C177.701 127.599 177.343 127.895 176.876 128.102C176.42 128.299 175.876 128.397 175.244 128.397C174.321 128.397 173.579 128.175 173.02 127.729C172.47 127.283 172.195 126.697 172.195 125.971C172.195 125.246 172.46 124.665 172.988 124.229C173.517 123.784 174.357 123.561 175.508 123.561H177.872V123.265C177.872 122.622 177.685 122.13 177.312 121.788C176.939 121.446 176.389 121.275 175.663 121.275C175.176 121.275 174.699 121.358 174.233 121.523C173.766 121.679 173.372 121.892 173.051 122.161L172.429 121.041C172.854 120.699 173.362 120.44 173.953 120.264C174.544 120.077 175.171 119.984 175.834 119.984ZM175.492 127.247C176.063 127.247 176.555 127.122 176.97 126.873C177.385 126.614 177.685 126.251 177.872 125.785V124.634H175.57C174.305 124.634 173.673 125.059 173.673 125.909C173.673 126.324 173.833 126.65 174.155 126.889C174.476 127.127 174.922 127.247 175.492 127.247ZM177.032 118.817C176.783 118.817 176.565 118.766 176.379 118.662C176.203 118.558 175.98 118.403 175.71 118.195C175.555 118.05 175.42 117.946 175.306 117.884C175.192 117.812 175.078 117.775 174.964 117.775C174.735 117.775 174.549 117.864 174.404 118.04C174.259 118.206 174.181 118.439 174.17 118.74H173.331C173.351 118.159 173.497 117.698 173.766 117.356C174.046 117.013 174.409 116.842 174.855 116.842C175.104 116.842 175.321 116.899 175.508 117.013C175.705 117.117 175.928 117.273 176.177 117.48C176.353 117.625 176.493 117.734 176.597 117.807C176.7 117.869 176.809 117.9 176.923 117.9C177.151 117.9 177.338 117.817 177.483 117.651C177.628 117.485 177.706 117.257 177.716 116.967H178.556C178.535 117.527 178.385 117.978 178.105 118.32C177.836 118.652 177.478 118.817 177.032 118.817ZM185.704 128.397C184.884 128.397 184.148 128.216 183.495 127.853C182.842 127.49 182.329 126.993 181.956 126.36C181.593 125.717 181.411 124.992 181.411 124.183C181.411 123.374 181.593 122.654 181.956 122.021C182.329 121.378 182.842 120.881 183.495 120.528C184.148 120.165 184.884 119.984 185.704 119.984C186.523 119.984 187.254 120.165 187.896 120.528C188.55 120.881 189.058 121.378 189.42 122.021C189.794 122.654 189.98 123.374 189.98 124.183C189.98 124.992 189.794 125.717 189.42 126.36C189.058 126.993 188.55 127.49 187.896 127.853C187.254 128.216 186.523 128.397 185.704 128.397ZM185.704 127.091C186.232 127.091 186.704 126.972 187.119 126.733C187.544 126.485 187.876 126.142 188.114 125.707C188.353 125.261 188.472 124.753 188.472 124.183C188.472 123.613 188.353 123.11 188.114 122.674C187.876 122.228 187.544 121.886 187.119 121.648C186.704 121.409 186.232 121.29 185.704 121.29C185.175 121.29 184.698 121.409 184.273 121.648C183.858 121.886 183.526 122.228 183.277 122.674C183.039 123.11 182.92 123.613 182.92 124.183C182.92 124.753 183.039 125.261 183.277 125.707C183.526 126.142 183.858 126.485 184.273 126.733C184.698 126.972 185.175 127.091 185.704 127.091ZM203.997 116.765V128.304H202.566V126.998C202.235 127.454 201.815 127.801 201.307 128.04C200.799 128.278 200.239 128.397 199.627 128.397C198.829 128.397 198.113 128.221 197.481 127.869C196.848 127.516 196.351 127.024 195.988 126.391C195.635 125.748 195.459 125.012 195.459 124.183C195.459 123.353 195.635 122.622 195.988 121.99C196.351 121.358 196.848 120.865 197.481 120.513C198.113 120.16 198.829 119.984 199.627 119.984C200.218 119.984 200.762 120.098 201.26 120.326C201.758 120.544 202.172 120.87 202.504 121.306V116.765H203.997ZM199.752 127.091C200.27 127.091 200.742 126.972 201.167 126.733C201.592 126.485 201.924 126.142 202.162 125.707C202.401 125.261 202.52 124.753 202.52 124.183C202.52 123.613 202.401 123.11 202.162 122.674C201.924 122.228 201.592 121.886 201.167 121.648C200.742 121.409 200.27 121.29 199.752 121.29C199.223 121.29 198.746 121.409 198.321 121.648C197.906 121.886 197.574 122.228 197.325 122.674C197.087 123.11 196.968 123.613 196.968 124.183C196.968 124.753 197.087 125.261 197.325 125.707C197.574 126.142 197.906 126.485 198.321 126.733C198.746 126.972 199.223 127.091 199.752 127.091ZM214.272 124.229C214.272 124.344 214.262 124.494 214.241 124.681H207.553C207.647 125.406 207.963 125.992 208.502 126.438C209.052 126.873 209.731 127.091 210.539 127.091C211.524 127.091 212.318 126.759 212.919 126.096L213.743 127.06C213.37 127.495 212.903 127.827 212.343 128.055C211.794 128.283 211.177 128.397 210.493 128.397C209.622 128.397 208.849 128.221 208.176 127.869C207.502 127.506 206.978 127.003 206.605 126.36C206.242 125.717 206.06 124.992 206.06 124.183C206.06 123.384 206.237 122.664 206.589 122.021C206.952 121.378 207.445 120.881 208.067 120.528C208.699 120.165 209.409 119.984 210.197 119.984C210.985 119.984 211.685 120.165 212.297 120.528C212.919 120.881 213.401 121.378 213.743 122.021C214.096 122.664 214.272 123.4 214.272 124.229ZM210.197 121.244C209.482 121.244 208.881 121.461 208.393 121.897C207.916 122.332 207.636 122.902 207.553 123.607H212.841C212.758 122.913 212.473 122.348 211.986 121.912C211.509 121.466 210.913 121.244 210.197 121.244ZM37.4696 140.238C37.7288 139.761 38.1125 139.398 38.6205 139.149C39.1285 138.9 39.7454 138.776 40.4712 138.776V140.222C40.3882 140.212 40.2742 140.207 40.129 140.207C39.3203 140.207 38.6827 140.45 38.2161 140.938C37.7599 141.414 37.5318 142.099 37.5318 142.99V147.096H36.0389V138.854H37.4696V140.238ZM49.6848 143.021C49.6848 143.136 49.6744 143.286 49.6537 143.472H42.9663C43.0596 144.198 43.3758 144.784 43.915 145.23C44.4645 145.665 45.1436 145.883 45.9523 145.883C46.9372 145.883 47.7304 145.551 48.3317 144.888L49.156 145.852C48.7827 146.287 48.3162 146.619 47.7563 146.847C47.2068 147.075 46.5899 147.189 45.9056 147.189C45.0347 147.189 44.2623 147.013 43.5884 146.661C42.9145 146.298 42.3909 145.795 42.0176 145.152C41.6547 144.509 41.4733 143.784 41.4733 142.975C41.4733 142.176 41.6496 141.456 42.0021 140.813C42.365 140.17 42.8574 139.673 43.4795 139.32C44.112 138.957 44.8222 138.776 45.6101 138.776C46.3981 138.776 47.0979 138.957 47.7097 139.32C48.3317 139.673 48.8138 140.17 49.156 140.813C49.5085 141.456 49.6848 142.192 49.6848 143.021ZM45.6101 140.036C44.8947 140.036 44.2934 140.253 43.8061 140.689C43.3292 141.124 43.0492 141.694 42.9663 142.399H48.254C48.171 141.705 47.8859 141.14 47.3986 140.704C46.9217 140.258 46.3255 140.036 45.6101 140.036ZM51.7579 135.557H53.2509V147.096H51.7579V135.557ZM59.1031 138.776C60.2435 138.776 61.1144 139.056 61.7158 139.616C62.3275 140.175 62.6334 141.01 62.6334 142.119V147.096H61.2181V146.007C60.9693 146.391 60.6116 146.687 60.145 146.894C59.6888 147.091 59.1445 147.189 58.5121 147.189C57.5893 147.189 56.848 146.967 56.2881 146.521C55.7386 146.075 55.4639 145.489 55.4639 144.763C55.4639 144.038 55.7283 143.457 56.257 143.021C56.7858 142.576 57.6256 142.353 58.7765 142.353H61.1404V142.057C61.1404 141.414 60.9537 140.922 60.5805 140.58C60.2072 140.238 59.6577 140.067 58.932 140.067C58.4447 140.067 57.9678 140.15 57.5012 140.315C57.0346 140.471 56.6407 140.684 56.3192 140.953L55.6972 139.833C56.1223 139.491 56.6303 139.232 57.2213 139.056C57.8122 138.869 58.4395 138.776 59.1031 138.776ZM58.7609 146.039C59.3312 146.039 59.8236 145.914 60.2383 145.665C60.6531 145.406 60.9537 145.043 61.1404 144.577V143.426H58.8387C57.5738 143.426 56.9413 143.851 56.9413 144.701C56.9413 145.116 57.102 145.442 57.4234 145.681C57.7448 145.919 58.1907 146.039 58.7609 146.039ZM69.0344 147.189C68.1946 147.189 67.4429 147.008 66.7793 146.645C66.1261 146.282 65.6129 145.785 65.2397 145.152C64.8664 144.509 64.6798 143.784 64.6798 142.975C64.6798 142.166 64.8664 141.446 65.2397 140.813C65.6129 140.17 66.1261 139.673 66.7793 139.32C67.4429 138.957 68.1946 138.776 69.0344 138.776C69.7809 138.776 70.4444 138.926 71.025 139.227C71.616 139.527 72.0722 139.963 72.3936 140.533L71.2583 141.264C70.9991 140.87 70.6777 140.575 70.2941 140.378C69.9105 140.181 69.4854 140.082 69.0188 140.082C68.4797 140.082 67.9924 140.201 67.5569 140.44C67.1318 140.678 66.7949 141.02 66.546 141.466C66.3076 141.902 66.1884 142.405 66.1884 142.975C66.1884 143.555 66.3076 144.069 66.546 144.514C66.7949 144.95 67.1318 145.287 67.5569 145.525C67.9924 145.764 68.4797 145.883 69.0188 145.883C69.4854 145.883 69.9105 145.785 70.2941 145.588C70.6777 145.391 70.9991 145.095 71.2583 144.701L72.3936 145.417C72.0722 145.987 71.616 146.427 71.025 146.738C70.4444 147.039 69.7809 147.189 69.0344 147.189ZM74.3265 138.854H75.8196V147.096H74.3265V138.854ZM75.0731 137.267C74.7827 137.267 74.5391 137.174 74.3421 136.987C74.1554 136.801 74.0621 136.573 74.0621 136.303C74.0621 136.033 74.1554 135.805 74.3421 135.619C74.5391 135.422 74.7827 135.323 75.0731 135.323C75.3634 135.323 75.6018 135.417 75.7885 135.603C75.9855 135.779 76.084 136.002 76.084 136.272C76.084 136.552 75.9855 136.79 75.7885 136.987C75.6018 137.174 75.3634 137.267 75.0731 137.267ZM82.2004 147.189C81.3814 147.189 80.6452 147.008 79.9921 146.645C79.3389 146.282 78.8256 145.785 78.4524 145.152C78.0895 144.509 77.9081 143.784 77.9081 142.975C77.9081 142.166 78.0895 141.446 78.4524 140.813C78.8256 140.17 79.3389 139.673 79.9921 139.32C80.6452 138.957 81.3814 138.776 82.2004 138.776C83.0195 138.776 83.7505 138.957 84.3933 139.32C85.0465 139.673 85.5545 140.17 85.9174 140.813C86.2906 141.446 86.4772 142.166 86.4772 142.975C86.4772 143.784 86.2906 144.509 85.9174 145.152C85.5545 145.785 85.0465 146.282 84.3933 146.645C83.7505 147.008 83.0195 147.189 82.2004 147.189ZM82.2004 145.883C82.7292 145.883 83.2009 145.764 83.6157 145.525C84.0408 145.277 84.3725 144.934 84.611 144.499C84.8495 144.053 84.9687 143.545 84.9687 142.975C84.9687 142.405 84.8495 141.902 84.611 141.466C84.3725 141.02 84.0408 140.678 83.6157 140.44C83.2009 140.201 82.7292 140.082 82.2004 140.082C81.6717 140.082 81.1947 140.201 80.7696 140.44C80.3549 140.678 80.0232 141.02 79.7743 141.466C79.5359 141.902 79.4166 142.405 79.4166 142.975C79.4166 143.545 79.5359 144.053 79.7743 144.499C80.0232 144.934 80.3549 145.277 80.7696 145.525C81.1947 145.764 81.6717 145.883 82.2004 145.883ZM92.943 138.776C93.9901 138.776 94.8196 139.082 95.4313 139.693C96.0534 140.295 96.3644 141.181 96.3644 142.353V147.096H94.8714V142.524C94.8714 141.725 94.6796 141.124 94.296 140.72C93.9124 140.315 93.3629 140.113 92.6475 140.113C91.8388 140.113 91.2012 140.352 90.7346 140.829C90.268 141.295 90.0348 141.969 90.0348 142.85V147.096H88.5418V138.854H89.9725V140.098C90.2732 139.673 90.6776 139.346 91.1856 139.118C91.704 138.89 92.2898 138.776 92.943 138.776ZM102.129 138.776C103.27 138.776 104.14 139.056 104.742 139.616C105.353 140.175 105.659 141.01 105.659 142.119V147.096H104.244V146.007C103.995 146.391 103.638 146.687 103.171 146.894C102.715 147.091 102.171 147.189 101.538 147.189C100.615 147.189 99.874 146.967 99.3141 146.521C98.7646 146.075 98.4899 145.489 98.4899 144.763C98.4899 144.038 98.7542 143.457 99.283 143.021C99.8118 142.576 100.652 142.353 101.802 142.353H104.166V142.057C104.166 141.414 103.98 140.922 103.606 140.58C103.233 140.238 102.684 140.067 101.958 140.067C101.471 140.067 100.994 140.15 100.527 140.315C100.061 140.471 99.6666 140.684 99.3452 140.953L98.7231 139.833C99.1482 139.491 99.6563 139.232 100.247 139.056C100.838 138.869 101.465 138.776 102.129 138.776ZM101.787 146.039C102.357 146.039 102.85 145.914 103.264 145.665C103.679 145.406 103.98 145.043 104.166 144.577V143.426H101.865C100.6 143.426 99.9673 143.851 99.9673 144.701C99.9673 145.116 100.128 145.442 100.449 145.681C100.771 145.919 101.217 146.039 101.787 146.039ZM118.733 138.776C119.77 138.776 120.589 139.076 121.191 139.678C121.802 140.279 122.108 141.171 122.108 142.353V147.096H120.615V142.524C120.615 141.725 120.429 141.124 120.055 140.72C119.692 140.315 119.169 140.113 118.485 140.113C117.728 140.113 117.126 140.352 116.681 140.829C116.235 141.295 116.012 141.969 116.012 142.85V147.096H114.519V142.524C114.519 141.725 114.332 141.124 113.959 140.72C113.596 140.315 113.072 140.113 112.388 140.113C111.631 140.113 111.03 140.352 110.584 140.829C110.138 141.295 109.915 141.969 109.915 142.85V147.096H108.422V138.854H109.853V140.082C110.154 139.657 110.548 139.336 111.035 139.118C111.522 138.89 112.077 138.776 112.699 138.776C113.342 138.776 113.912 138.905 114.41 139.165C114.908 139.424 115.291 139.802 115.561 140.3C115.872 139.823 116.302 139.45 116.852 139.18C117.411 138.911 118.039 138.776 118.733 138.776ZM132.35 143.021C132.35 143.136 132.34 143.286 132.319 143.472H125.632C125.725 144.198 126.042 144.784 126.581 145.23C127.13 145.665 127.809 145.883 128.618 145.883C129.603 145.883 130.396 145.551 130.997 144.888L131.822 145.852C131.448 146.287 130.982 146.619 130.422 146.847C129.872 147.075 129.256 147.189 128.571 147.189C127.7 147.189 126.928 147.013 126.254 146.661C125.58 146.298 125.057 145.795 124.683 145.152C124.32 144.509 124.139 143.784 124.139 142.975C124.139 142.176 124.315 141.456 124.668 140.813C125.031 140.17 125.523 139.673 126.145 139.32C126.778 138.957 127.488 138.776 128.276 138.776C129.064 138.776 129.764 138.957 130.375 139.32C130.997 139.673 131.48 140.17 131.822 140.813C132.174 141.456 132.35 142.192 132.35 143.021ZM128.276 140.036C127.56 140.036 126.959 140.253 126.472 140.689C125.995 141.124 125.715 141.694 125.632 142.399H130.92C130.837 141.705 130.552 141.14 130.064 140.704C129.587 140.258 128.991 140.036 128.276 140.036ZM138.825 138.776C139.872 138.776 140.701 139.082 141.313 139.693C141.935 140.295 142.246 141.181 142.246 142.353V147.096H140.753V142.524C140.753 141.725 140.561 141.124 140.178 140.72C139.794 140.315 139.245 140.113 138.529 140.113C137.72 140.113 137.083 140.352 136.616 140.829C136.15 141.295 135.916 141.969 135.916 142.85V147.096H134.423V138.854H135.854V140.098C136.155 139.673 136.559 139.346 137.067 139.118C137.586 138.89 138.171 138.776 138.825 138.776ZM149.644 146.614C149.426 146.801 149.156 146.946 148.835 147.049C148.514 147.143 148.182 147.189 147.84 147.189C147.01 147.189 146.367 146.967 145.911 146.521C145.455 146.075 145.227 145.437 145.227 144.608V140.082H143.827V138.854H145.227V137.05H146.72V138.854H149.084V140.082H146.72V144.546C146.72 144.991 146.829 145.334 147.046 145.572C147.275 145.81 147.596 145.93 148.011 145.93C148.467 145.93 148.856 145.8 149.177 145.541L149.644 146.614ZM154.706 147.189C153.887 147.189 153.151 147.008 152.497 146.645C151.844 146.282 151.331 145.785 150.958 145.152C150.595 144.509 150.413 143.784 150.413 142.975C150.413 142.166 150.595 141.446 150.958 140.813C151.331 140.17 151.844 139.673 152.497 139.32C153.151 138.957 153.887 138.776 154.706 138.776C155.525 138.776 156.256 138.957 156.899 139.32C157.552 139.673 158.06 140.17 158.423 140.813C158.796 141.446 158.983 142.166 158.983 142.975C158.983 143.784 158.796 144.509 158.423 145.152C158.06 145.785 157.552 146.282 156.899 146.645C156.256 147.008 155.525 147.189 154.706 147.189ZM154.706 145.883C155.235 145.883 155.706 145.764 156.121 145.525C156.546 145.277 156.878 144.934 157.116 144.499C157.355 144.053 157.474 143.545 157.474 142.975C157.474 142.405 157.355 141.902 157.116 141.466C156.878 141.02 156.546 140.678 156.121 140.44C155.706 140.201 155.235 140.082 154.706 140.082C154.177 140.082 153.7 140.201 153.275 140.44C152.86 140.678 152.529 141.02 152.28 141.466C152.041 141.902 151.922 142.405 151.922 142.975C151.922 143.545 152.041 144.053 152.28 144.499C152.529 144.934 152.86 145.277 153.275 145.525C153.7 145.764 154.177 145.883 154.706 145.883ZM168.225 138.776C169.366 138.776 170.236 139.056 170.838 139.616C171.449 140.175 171.755 141.01 171.755 142.119V147.096H170.34V146.007C170.091 146.391 169.734 146.687 169.267 146.894C168.811 147.091 168.266 147.189 167.634 147.189C166.711 147.189 165.97 146.967 165.41 146.521C164.861 146.075 164.586 145.489 164.586 144.763C164.586 144.038 164.85 143.457 165.379 143.021C165.908 142.576 166.748 142.353 167.898 142.353H170.262V142.057C170.262 141.414 170.076 140.922 169.702 140.58C169.329 140.238 168.78 140.067 168.054 140.067C167.567 140.067 167.09 140.15 166.623 140.315C166.157 140.471 165.763 140.684 165.441 140.953L164.819 139.833C165.244 139.491 165.752 139.232 166.343 139.056C166.934 138.869 167.561 138.776 168.225 138.776ZM167.883 146.039C168.453 146.039 168.946 145.914 169.36 145.665C169.775 145.406 170.076 145.043 170.262 144.577V143.426H167.961C166.696 143.426 166.063 143.851 166.063 144.701C166.063 145.116 166.224 145.442 166.545 145.681C166.867 145.919 167.313 146.039 167.883 146.039ZM179.153 146.614C178.935 146.801 178.666 146.946 178.344 147.049C178.023 147.143 177.691 147.189 177.349 147.189C176.519 147.189 175.877 146.967 175.42 146.521C174.964 146.075 174.736 145.437 174.736 144.608V140.082H173.336V138.854H174.736V137.05H176.229V138.854H178.593V140.082H176.229V144.546C176.229 144.991 176.338 145.334 176.556 145.572C176.784 145.81 177.105 145.93 177.52 145.93C177.976 145.93 178.365 145.8 178.686 145.541L179.153 146.614ZM188.641 138.854V147.096H187.226V145.852C186.925 146.277 186.526 146.609 186.028 146.847C185.541 147.075 185.007 147.189 184.426 147.189C183.327 147.189 182.462 146.889 181.829 146.287C181.197 145.676 180.88 144.779 180.88 143.597V138.854H182.373V143.426C182.373 144.224 182.565 144.831 182.949 145.245C183.333 145.65 183.882 145.852 184.597 145.852C185.385 145.852 186.007 145.613 186.464 145.137C186.92 144.66 187.148 143.986 187.148 143.115V138.854H188.641ZM194.485 138.776C195.625 138.776 196.496 139.056 197.097 139.616C197.709 140.175 198.015 141.01 198.015 142.119V147.096H196.6V146.007C196.351 146.391 195.993 146.687 195.527 146.894C195.07 147.091 194.526 147.189 193.894 147.189C192.971 147.189 192.23 146.967 191.67 146.521C191.12 146.075 190.845 145.489 190.845 144.763C190.845 144.038 191.11 143.457 191.639 143.021C192.167 142.576 193.007 142.353 194.158 142.353H196.522V142.057C196.522 141.414 196.335 140.922 195.962 140.58C195.589 140.238 195.039 140.067 194.314 140.067C193.826 140.067 193.349 140.15 192.883 140.315C192.416 140.471 192.022 140.684 191.701 140.953L191.079 139.833C191.504 139.491 192.012 139.232 192.603 139.056C193.194 138.869 193.821 138.776 194.485 138.776ZM194.142 146.039C194.713 146.039 195.205 145.914 195.62 145.665C196.035 145.406 196.335 145.043 196.522 144.577V143.426H194.22C192.955 143.426 192.323 143.851 192.323 144.701C192.323 145.116 192.484 145.442 192.805 145.681C193.126 145.919 193.572 146.039 194.142 146.039ZM200.778 135.557H202.271V147.096H200.778V135.557ZM207.252 143.659C207.252 143.244 207.32 142.882 207.454 142.57C207.599 142.249 207.771 141.98 207.968 141.762C208.175 141.544 208.444 141.285 208.776 140.984C209.191 140.621 209.497 140.31 209.694 140.051C209.891 139.781 209.989 139.46 209.989 139.087C209.989 138.579 209.792 138.174 209.398 137.874C209.004 137.563 208.46 137.407 207.765 137.407C206.552 137.407 205.624 137.817 204.982 138.636L203.846 137.827C204.282 137.267 204.836 136.837 205.51 136.536C206.195 136.236 206.983 136.085 207.874 136.085C209.004 136.085 209.901 136.334 210.565 136.832C211.228 137.319 211.56 137.993 211.56 138.854C211.56 139.279 211.487 139.657 211.342 139.989C211.208 140.31 211.042 140.58 210.845 140.798C210.648 141.015 210.383 141.274 210.051 141.575C209.626 141.959 209.31 142.296 209.103 142.586C208.906 142.876 208.807 143.234 208.807 143.659H207.252ZM208.045 147.189C207.755 147.189 207.511 147.096 207.314 146.909C207.128 146.713 207.034 146.474 207.034 146.194C207.034 145.914 207.128 145.681 207.314 145.494C207.511 145.297 207.755 145.199 208.045 145.199C208.336 145.199 208.574 145.297 208.761 145.494C208.947 145.681 209.041 145.914 209.041 146.194C209.041 146.474 208.942 146.713 208.745 146.909C208.558 147.096 208.325 147.189 208.045 147.189Z" fill="black"/>
<path d="M144.205 60.791C144.445 59.4377 144.499 56.4096 143.596 54.4321C142.7 55.5322 141.672 56.4324 140.297 56.8083C139.083 57.1404 137.781 57.2032 136.639 57.7686C136.104 58.0331 135.612 58.3928 135.173 58.901C134.462 59.7223 134.046 60.7928 134.062 61.8815C134.078 63.0235 134.576 64.1236 135.356 64.9498C135.092 64.3529 135.131 63.6373 135.525 63.0577C136.132 62.167 138.368 61.5532 138.738 61.8054C139.16 62.0928 139.357 64.3624 138.752 65.253C138.366 65.8194 137.736 66.1181 137.099 66.1058C137.483 66.2484 137.886 66.343 138.292 66.3877C139.994 66.5743 143.251 66.168 144.205 60.791Z" fill="#C23334"/>
<path d="M143.595 54.4321C142.822 55.3828 141.948 56.1832 140.838 56.6266C141.871 58.9942 141.987 63.1186 140.702 64.7859C139.301 66.6029 137.099 66.1065 137.099 66.1065C137.482 66.2497 137.885 66.3437 138.291 66.3884C139.995 66.5743 143.251 66.1687 144.205 60.7919C144.446 59.4377 144.499 56.4096 143.595 54.4321Z" fill="#C23334"/>
<path d="M135.342 64.92C135.307 64.839 135.279 64.7555 135.256 64.6708C135.254 64.6651 135.252 64.6584 135.25 64.6527C135.221 64.5414 135.202 64.4281 135.193 64.3139C135.191 64.3073 135.191 64.3006 135.191 64.293C135.16 63.8704 135.266 63.4356 135.522 63.0587C136.102 62.207 138.168 61.6094 138.674 61.7778C140.295 61.3391 141.958 60.9623 142.969 59.4758C144.57 57.1233 143.829 54.9888 143.636 54.5254C143.622 54.494 143.609 54.4636 143.595 54.4321C142.699 55.5322 141.67 56.4324 140.295 56.8083C139.081 57.1405 137.779 57.2033 136.637 57.7686C136.102 58.0331 135.61 58.3928 135.171 58.901C134.46 59.7223 134.045 60.7929 134.06 61.8815C134.076 63.0235 134.575 64.1236 135.354 64.9498C135.354 64.9505 135.349 64.9394 135.342 64.92Z" fill="#C23334"/>
<path d="M136.638 57.7686C136.103 58.0331 135.611 58.3928 135.171 58.901C134.461 59.7223 134.045 60.7929 134.06 61.8815C134.075 62.974 134.534 64.0274 135.255 64.8403C134.964 64.4823 134.207 63.2519 135.462 61.2534C136.971 58.8496 139.621 60.003 141.342 58.7354C143.293 57.3004 143.595 54.4321 143.595 54.4321C142.7 55.5322 141.671 56.4324 140.296 56.8083C139.081 57.1405 137.779 57.2033 136.638 57.7686Z" fill="#C23334"/>
<path d="M131.077 57.991C130.239 57.4533 128.227 56.5721 126.651 56.6264C127.138 57.5323 127.454 58.4726 127.322 59.4975C127.206 60.4025 126.885 61.2923 126.946 62.2135C126.974 62.6455 127.077 63.0747 127.295 63.5115C127.647 64.2157 128.247 64.7924 128.98 65.0863C129.749 65.3941 130.624 65.3663 131.394 65.0753C130.922 65.0863 130.453 64.8602 130.175 64.4346C129.748 63.7798 129.961 62.1126 130.232 61.9346C130.543 61.732 132.117 62.2325 132.544 62.8872C132.815 63.3031 132.84 63.8084 132.654 64.2309C132.857 64.0139 133.032 63.7703 133.175 63.5115C133.774 62.4219 134.41 60.1294 131.077 57.991Z" fill="#C23334"/>
<path d="M126.651 56.6264C127.072 57.4096 127.364 58.2175 127.351 59.0845C129.224 59.0531 132.017 60.1256 132.774 61.4512C133.599 62.8958 132.653 64.2309 132.653 64.2309C132.856 64.014 133.031 63.7703 133.174 63.5115C133.774 62.4238 134.409 60.1303 131.077 57.992C130.239 57.4533 128.227 56.5721 126.651 56.6264Z" fill="#C23334"/>
<path d="M131.371 65.0749C131.307 65.0749 131.243 65.071 131.18 65.0639C131.174 65.0626 131.17 65.0626 131.166 65.0619C131.083 65.0503 131.002 65.0315 130.924 65.0056C130.918 65.0036 130.914 65.003 130.909 65.001C130.618 64.9025 130.356 64.7115 130.175 64.4346C129.767 63.8094 129.943 62.2591 130.197 61.9679C130.355 60.7603 130.567 59.5432 129.854 58.4517C128.726 56.7244 127.09 56.6245 126.726 56.6255C126.701 56.6264 126.676 56.6264 126.651 56.6274C127.138 57.5333 127.454 58.4735 127.322 59.4985C127.206 60.4035 126.885 61.2932 126.946 62.2144C126.974 62.6464 127.077 63.0757 127.295 63.5124C127.647 64.2167 128.247 64.7933 128.98 65.0872C129.749 65.395 130.624 65.3671 131.394 65.0762C131.393 65.0749 131.385 65.0762 131.371 65.0749Z" fill="#C23334"/>
<path d="M126.944 62.2145C126.973 62.6465 127.076 63.0757 127.294 63.5125C127.646 64.2168 128.246 64.7934 128.979 65.0877C129.714 65.3813 130.547 65.369 131.292 65.1124C130.972 65.2076 129.937 65.3709 128.95 63.9741C127.761 62.2935 129.273 60.8413 128.904 59.3358C128.487 57.6295 126.651 56.6274 126.651 56.6274C127.138 57.5334 127.454 58.4736 127.322 59.4985C127.205 60.4035 126.885 61.2923 126.944 62.2145Z" fill="#C23334"/>
<path d="M119.484 85.2437C116.559 85.2638 113.998 83.2867 113.242 80.4271C112.497 77.6064 113.785 74.6126 116.358 73.187C118.889 71.786 122.091 72.2772 124.088 74.3689C124.442 74.739 124.742 75.0299 124.258 75.5917C123.793 76.1302 124.227 76.9221 124.95 76.8637C125.538 76.8164 125.666 77.0886 125.752 77.5318C126.535 81.5034 123.518 85.2171 119.484 85.2437ZM119.207 74.5076C119.131 74.6541 119.226 74.6962 119.271 74.737C119.317 74.7778 119.661 74.8387 120.032 74.7169C120.403 74.5951 120.752 74.2679 120.833 73.9607C120.962 73.4734 120.585 73.1449 120.079 73.0924C118.523 72.9336 117.096 73.2946 115.901 74.3145C115.858 74.3514 115.822 74.3962 115.79 74.4467C115.508 74.9042 115.913 75.4459 116.447 75.3811C116.506 75.3733 116.564 75.363 116.621 75.3481C117.494 75.109 118.345 74.7921 119.207 74.5076Z" fill="#C23334"/>
<path d="M137.345 80.2737C137.059 79.9186 136.842 79.6199 136.288 80.0009C135.694 80.4078 134.94 79.914 135.071 79.2116C135.201 78.5228 134.862 78.3751 134.351 78.2066C130.2 76.8373 125.942 79.9095 125.937 84.2861C125.937 87.1457 127.722 89.5757 130.451 90.4337C133.124 91.2702 136.101 90.2296 137.656 87.9117C139.229 85.5724 139.104 82.4613 137.345 80.2737ZM133.611 80.2251C133.529 80.5329 133.182 80.8621 132.811 80.9839C132.437 81.1044 132.096 81.0448 132.052 81.0053C132.004 80.9619 131.909 80.9191 131.988 80.7765C131.125 81.0578 130.272 81.3785 129.401 81.6125C129.344 81.63 129.283 81.6384 129.228 81.6468C128.69 81.7116 128.287 81.1705 128.569 80.7156C128.599 80.6631 128.639 80.6204 128.681 80.5815C129.872 79.5589 131.302 79.1993 132.858 79.3594C133.365 79.4106 133.742 79.7397 133.611 80.2251Z" fill="#C23334"/>
<path d="M136.533 73.7892C136.525 71.0384 135.767 68.462 134.699 65.9594C134.629 65.7935 134.525 65.6322 134.505 65.4598C134.491 65.3341 134.554 65.1332 134.648 65.0801C134.745 65.025 134.946 65.0684 135.054 65.141C135.174 65.22 135.262 65.3691 135.329 65.5065C137.087 69.154 138.072 72.9338 137.197 77.0033C137.037 77.7511 136.767 78.4859 136.454 79.1851C136.344 79.4326 135.956 79.5551 135.694 79.7352C135.644 79.4294 135.463 79.0672 135.565 78.8274C136.256 77.2113 136.536 75.5291 136.533 73.7892Z" fill="#C23334"/>
<path d="M133.067 66.0063C133.053 67.498 132.498 68.8141 131.739 70.0583C130.168 72.6367 128.017 74.6396 125.493 76.2525C125.274 76.3925 124.88 76.2596 124.567 76.2525C124.707 75.9693 124.771 75.5715 125 75.4179C127.286 73.8841 129.355 72.1312 130.826 69.7667C131.634 68.4681 132.263 67.0982 132.362 65.5313C132.376 65.289 132.569 65.0576 132.678 64.8218C132.807 65.0622 132.959 65.2935 133.056 65.5469C133.108 65.681 133.065 65.8515 133.067 66.0063Z" fill="#C23334"/>
<path d="M77.7305 210.6L76.1558 208.325H76.0625H74.4179V210.6H72.5283V202.435H76.0625C76.7857 202.435 77.4116 202.556 77.9404 202.797C78.477 203.038 78.8891 203.38 79.1768 203.823C79.4645 204.266 79.6084 204.791 79.6084 205.398C79.6084 206.004 79.4606 206.529 79.1651 206.972C78.8774 207.408 78.4653 207.742 77.9288 207.976L79.76 210.6H77.7305ZM77.6955 205.398C77.6955 204.939 77.5477 204.589 77.2522 204.348C76.9567 204.099 76.5252 203.975 75.9575 203.975H74.4179V206.821H75.9575C76.5252 206.821 76.9567 206.696 77.2522 206.448C77.5477 206.199 77.6955 205.849 77.6955 205.398ZM87.1239 207.486C87.1239 207.509 87.1122 207.672 87.0889 207.976H82.3416C82.4272 208.364 82.6293 208.672 82.9482 208.897C83.267 209.123 83.6636 209.235 84.1379 209.235C84.4645 209.235 84.7522 209.189 85.001 209.095C85.2576 208.994 85.4948 208.839 85.7125 208.629L86.6806 209.679C86.0897 210.355 85.2265 210.693 84.0912 210.693C83.3836 210.693 82.7576 210.557 82.2133 210.285C81.669 210.005 81.2491 209.62 80.9536 209.13C80.6581 208.64 80.5104 208.084 80.5104 207.462C80.5104 206.848 80.6542 206.296 80.9419 205.806C81.2374 205.308 81.6379 204.923 82.1433 204.651C82.6566 204.371 83.2281 204.231 83.8579 204.231C84.4723 204.231 85.0282 204.364 85.5259 204.628C86.0236 204.892 86.4124 205.273 86.6923 205.771C86.98 206.261 87.1239 206.833 87.1239 207.486ZM83.8696 205.608C83.4575 205.608 83.1115 205.724 82.8315 205.958C82.5516 206.191 82.3805 206.51 82.3183 206.914H85.4093C85.3471 206.518 85.176 206.203 84.896 205.969C84.6161 205.728 84.274 205.608 83.8696 205.608ZM88.3356 201.945H90.1552V210.6H88.3356V201.945ZM94.375 204.231C95.347 204.231 96.0935 204.465 96.6145 204.931C97.1355 205.39 97.396 206.086 97.396 207.019V210.6H95.693V209.818C95.3509 210.402 94.7132 210.693 93.7801 210.693C93.298 210.693 92.8781 210.612 92.5204 210.448C92.1705 210.285 91.9022 210.06 91.7156 209.772C91.529 209.484 91.4357 209.158 91.4357 208.792C91.4357 208.209 91.6534 207.75 92.0888 207.416C92.5321 207.081 93.2125 206.914 94.13 206.914H95.5764C95.5764 206.518 95.4559 206.214 95.2148 206.004C94.9737 205.787 94.6122 205.678 94.13 205.678C93.7957 205.678 93.4652 205.732 93.1386 205.841C92.8198 205.942 92.5476 206.082 92.3221 206.261L91.6689 204.99C92.0111 204.749 92.4193 204.562 92.8937 204.43C93.3758 204.298 93.8695 204.231 94.375 204.231ZM94.235 209.469C94.5461 209.469 94.8221 209.399 95.0632 209.259C95.3042 209.111 95.4753 208.897 95.5764 208.617V207.976H94.3283C93.5818 207.976 93.2086 208.221 93.2086 208.71C93.2086 208.944 93.298 209.13 93.4769 209.27C93.6635 209.402 93.9162 209.469 94.235 209.469ZM102.144 210.693C101.475 210.693 100.872 210.557 100.336 210.285C99.8072 210.005 99.3912 209.62 99.0879 209.13C98.7924 208.64 98.6447 208.084 98.6447 207.462C98.6447 206.84 98.7924 206.284 99.0879 205.794C99.3912 205.305 99.8072 204.923 100.336 204.651C100.872 204.371 101.475 204.231 102.144 204.231C102.805 204.231 103.38 204.371 103.87 204.651C104.368 204.923 104.729 205.316 104.955 205.829L103.544 206.588C103.217 206.012 102.747 205.724 102.132 205.724C101.658 205.724 101.265 205.88 100.954 206.191C100.643 206.502 100.488 206.926 100.488 207.462C100.488 207.999 100.643 208.423 100.954 208.734C101.265 209.045 101.658 209.2 102.132 209.2C102.754 209.2 103.225 208.913 103.544 208.337L104.955 209.107C104.729 209.605 104.368 209.993 103.87 210.273C103.38 210.553 102.805 210.693 102.144 210.693ZM106.002 204.325H107.822V210.6H106.002V204.325ZM106.912 203.45C106.577 203.45 106.305 203.353 106.095 203.158C105.885 202.964 105.78 202.723 105.78 202.435C105.78 202.147 105.885 201.906 106.095 201.712C106.305 201.518 106.577 201.42 106.912 201.42C107.246 201.42 107.518 201.514 107.728 201.7C107.938 201.887 108.043 202.12 108.043 202.4C108.043 202.703 107.938 202.956 107.728 203.158C107.518 203.353 107.246 203.45 106.912 203.45ZM112.497 210.693C111.836 210.693 111.241 210.557 110.712 210.285C110.191 210.005 109.783 209.62 109.488 209.13C109.192 208.64 109.044 208.084 109.044 207.462C109.044 206.84 109.192 206.284 109.488 205.794C109.783 205.305 110.191 204.923 110.712 204.651C111.241 204.371 111.836 204.231 112.497 204.231C113.158 204.231 113.749 204.371 114.27 204.651C114.791 204.923 115.199 205.305 115.495 205.794C115.79 206.284 115.938 206.84 115.938 207.462C115.938 208.084 115.79 208.64 115.495 209.13C115.199 209.62 114.791 210.005 114.27 210.285C113.749 210.557 113.158 210.693 112.497 210.693ZM112.497 209.2C112.964 209.2 113.345 209.045 113.64 208.734C113.943 208.415 114.095 207.991 114.095 207.462C114.095 206.934 113.943 206.514 113.64 206.203C113.345 205.884 112.964 205.724 112.497 205.724C112.03 205.724 111.645 205.884 111.342 206.203C111.039 206.514 110.887 206.934 110.887 207.462C110.887 207.991 111.039 208.415 111.342 208.734C111.645 209.045 112.03 209.2 112.497 209.2ZM120.968 204.231C121.745 204.231 122.371 204.465 122.846 204.931C123.328 205.398 123.569 206.09 123.569 207.007V210.6H121.749V207.287C121.749 206.79 121.64 206.42 121.423 206.179C121.205 205.93 120.89 205.806 120.478 205.806C120.019 205.806 119.653 205.95 119.381 206.238C119.109 206.518 118.973 206.937 118.973 207.497V210.6H117.153V204.325H118.891V205.06C119.132 204.795 119.432 204.593 119.79 204.453C120.147 204.305 120.54 204.231 120.968 204.231ZM127.75 204.231C128.722 204.231 129.468 204.465 129.989 204.931C130.51 205.39 130.771 206.086 130.771 207.019V210.6H129.068V209.818C128.725 210.402 128.088 210.693 127.155 210.693C126.673 210.693 126.253 210.612 125.895 210.448C125.545 210.285 125.277 210.06 125.09 209.772C124.904 209.484 124.81 209.158 124.81 208.792C124.81 208.209 125.028 207.75 125.463 207.416C125.907 207.081 126.587 206.914 127.505 206.914H128.951C128.951 206.518 128.83 206.214 128.589 206.004C128.348 205.787 127.987 205.678 127.505 205.678C127.17 205.678 126.84 205.732 126.513 205.841C126.194 205.942 125.922 206.082 125.697 206.261L125.044 204.99C125.386 204.749 125.794 204.562 126.268 204.43C126.75 204.298 127.244 204.231 127.75 204.231ZM127.61 209.469C127.921 209.469 128.197 209.399 128.438 209.259C128.679 209.111 128.85 208.897 128.951 208.617V207.976H127.703C126.956 207.976 126.583 208.221 126.583 208.71C126.583 208.944 126.673 209.13 126.851 209.27C127.038 209.402 127.291 209.469 127.61 209.469ZM140.454 204.231C141.239 204.231 141.861 204.465 142.32 204.931C142.786 205.39 143.02 206.082 143.02 207.007V210.6H141.2V207.287C141.2 206.79 141.095 206.42 140.885 206.179C140.683 205.93 140.391 205.806 140.01 205.806C139.583 205.806 139.244 205.946 138.996 206.226C138.747 206.498 138.622 206.906 138.622 207.451V210.6H136.803V207.287C136.803 206.3 136.406 205.806 135.613 205.806C135.193 205.806 134.859 205.946 134.61 206.226C134.361 206.498 134.237 206.906 134.237 207.451V210.6H132.417V204.325H134.155V205.048C134.388 204.784 134.672 204.581 135.007 204.441C135.349 204.301 135.722 204.231 136.126 204.231C136.57 204.231 136.97 204.321 137.328 204.5C137.685 204.671 137.973 204.923 138.191 205.258C138.447 204.931 138.77 204.679 139.159 204.5C139.555 204.321 139.987 204.231 140.454 204.231ZM150.866 207.486C150.866 207.509 150.855 207.672 150.831 207.976H146.084C146.17 208.364 146.372 208.672 146.691 208.897C147.009 209.123 147.406 209.235 147.88 209.235C148.207 209.235 148.495 209.189 148.743 209.095C149 208.994 149.237 208.839 149.455 208.629L150.423 209.679C149.832 210.355 148.969 210.693 147.834 210.693C147.126 210.693 146.5 210.557 145.956 210.285C145.411 210.005 144.992 209.62 144.696 209.13C144.401 208.64 144.253 208.084 144.253 207.462C144.253 206.848 144.397 206.296 144.684 205.806C144.98 205.308 145.38 204.923 145.886 204.651C146.399 204.371 146.971 204.231 147.6 204.231C148.215 204.231 148.771 204.364 149.268 204.628C149.766 204.892 150.155 205.273 150.435 205.771C150.722 206.261 150.866 206.833 150.866 207.486ZM147.612 205.608C147.2 205.608 146.854 205.724 146.574 205.958C146.294 206.191 146.123 206.51 146.061 206.914H149.152C149.09 206.518 148.918 206.203 148.639 205.969C148.359 205.728 148.016 205.608 147.612 205.608ZM155.892 204.231C156.669 204.231 157.295 204.465 157.769 204.931C158.252 205.398 158.493 206.09 158.493 207.007V210.6H156.673V207.287C156.673 206.79 156.564 206.42 156.346 206.179C156.129 205.93 155.814 205.806 155.402 205.806C154.943 205.806 154.577 205.95 154.305 206.238C154.033 206.518 153.897 206.937 153.897 207.497V210.6H152.077V204.325H153.815V205.06C154.056 204.795 154.356 204.593 154.714 204.453C155.071 204.305 155.464 204.231 155.892 204.231ZM164.189 210.297C164.01 210.429 163.789 210.53 163.524 210.6C163.268 210.662 162.996 210.693 162.708 210.693C161.961 210.693 161.382 210.503 160.97 210.122C160.566 209.741 160.363 209.181 160.363 208.442V205.864H159.395V204.465H160.363V202.937H162.183V204.465H163.746V205.864H162.183V208.419C162.183 208.683 162.249 208.889 162.381 209.037C162.521 209.177 162.716 209.247 162.964 209.247C163.252 209.247 163.497 209.169 163.699 209.014L164.189 210.297ZM168.003 210.693C167.342 210.693 166.748 210.557 166.219 210.285C165.698 210.005 165.29 209.62 164.994 209.13C164.699 208.64 164.551 208.084 164.551 207.462C164.551 206.84 164.699 206.284 164.994 205.794C165.29 205.305 165.698 204.923 166.219 204.651C166.748 204.371 167.342 204.231 168.003 204.231C168.664 204.231 169.255 204.371 169.776 204.651C170.297 204.923 170.705 205.305 171.001 205.794C171.296 206.284 171.444 206.84 171.444 207.462C171.444 208.084 171.296 208.64 171.001 209.13C170.705 209.62 170.297 210.005 169.776 210.285C169.255 210.557 168.664 210.693 168.003 210.693ZM168.003 209.2C168.47 209.2 168.851 209.045 169.146 208.734C169.45 208.415 169.601 207.991 169.601 207.462C169.601 206.934 169.45 206.514 169.146 206.203C168.851 205.884 168.47 205.724 168.003 205.724C167.537 205.724 167.152 205.884 166.849 206.203C166.545 206.514 166.394 206.934 166.394 207.462C166.394 207.991 166.545 208.415 166.849 208.734C167.152 209.045 167.537 209.2 168.003 209.2ZM178.075 210.693C177.554 210.693 177.044 210.631 176.547 210.507C176.049 210.374 175.652 210.211 175.357 210.017L175.963 208.71C176.243 208.889 176.582 209.037 176.978 209.154C177.375 209.263 177.764 209.317 178.145 209.317C178.914 209.317 179.299 209.126 179.299 208.745C179.299 208.567 179.194 208.438 178.984 208.36C178.774 208.283 178.452 208.217 178.016 208.162C177.503 208.084 177.079 207.995 176.745 207.894C176.41 207.793 176.119 207.614 175.87 207.357C175.629 207.101 175.508 206.735 175.508 206.261C175.508 205.864 175.621 205.514 175.847 205.211C176.08 204.9 176.414 204.659 176.85 204.488C177.293 204.317 177.814 204.231 178.413 204.231C178.856 204.231 179.295 204.282 179.731 204.383C180.174 204.476 180.54 204.609 180.827 204.78L180.221 206.074C179.669 205.763 179.066 205.608 178.413 205.608C178.024 205.608 177.732 205.662 177.538 205.771C177.344 205.88 177.246 206.02 177.246 206.191C177.246 206.385 177.351 206.521 177.561 206.599C177.771 206.677 178.106 206.751 178.564 206.821C179.078 206.906 179.498 207 179.824 207.101C180.151 207.194 180.435 207.369 180.676 207.626C180.917 207.882 181.037 208.24 181.037 208.699C181.037 209.088 180.921 209.434 180.687 209.737C180.454 210.04 180.112 210.277 179.661 210.448C179.218 210.612 178.689 210.693 178.075 210.693ZM188.307 207.486C188.307 207.509 188.295 207.672 188.272 207.976H183.525C183.61 208.364 183.813 208.672 184.131 208.897C184.45 209.123 184.847 209.235 185.321 209.235C185.648 209.235 185.935 209.189 186.184 209.095C186.441 208.994 186.678 208.839 186.896 208.629L187.864 209.679C187.273 210.355 186.41 210.693 185.274 210.693C184.567 210.693 183.941 210.557 183.397 210.285C182.852 210.005 182.432 209.62 182.137 209.13C181.841 208.64 181.694 208.084 181.694 207.462C181.694 206.848 181.837 206.296 182.125 205.806C182.421 205.308 182.821 204.923 183.327 204.651C183.84 204.371 184.411 204.231 185.041 204.231C185.656 204.231 186.211 204.364 186.709 204.628C187.207 204.892 187.596 205.273 187.876 205.771C188.163 206.261 188.307 206.833 188.307 207.486ZM185.053 205.608C184.641 205.608 184.295 205.724 184.015 205.958C183.735 206.191 183.564 206.51 183.502 206.914H186.593C186.53 206.518 186.359 206.203 186.079 205.969C185.799 205.728 185.457 205.608 185.053 205.608ZM185.519 201.84H187.479L185.368 203.52H183.945L185.519 201.84ZM191.256 205.153C191.474 204.85 191.765 204.62 192.131 204.465C192.504 204.309 192.932 204.231 193.414 204.231V205.911C193.212 205.895 193.076 205.888 193.006 205.888C192.485 205.888 192.077 206.035 191.781 206.331C191.486 206.619 191.338 207.054 191.338 207.637V210.6H189.518V204.325H191.256V205.153ZM194.496 204.325H196.316V210.6H194.496V204.325ZM195.406 203.45C195.072 203.45 194.799 203.353 194.589 203.158C194.38 202.964 194.275 202.723 194.275 202.435C194.275 202.147 194.38 201.906 194.589 201.712C194.799 201.518 195.072 201.42 195.406 201.42C195.74 201.42 196.012 201.514 196.222 201.7C196.432 201.887 196.537 202.12 196.537 202.4C196.537 202.703 196.432 202.956 196.222 203.158C196.012 203.353 195.74 203.45 195.406 203.45ZM200.99 210.693C200.329 210.693 199.735 210.557 199.206 210.285C198.685 210.005 198.277 209.62 197.981 209.13C197.686 208.64 197.538 208.084 197.538 207.462C197.538 206.84 197.686 206.284 197.981 205.794C198.277 205.305 198.685 204.923 199.206 204.651C199.735 204.371 200.329 204.231 200.99 204.231C201.651 204.231 202.242 204.371 202.763 204.651C203.284 204.923 203.693 205.305 203.988 205.794C204.284 206.284 204.431 206.84 204.431 207.462C204.431 208.084 204.284 208.64 203.988 209.13C203.693 209.62 203.284 210.005 202.763 210.285C202.242 210.557 201.651 210.693 200.99 210.693ZM200.99 209.2C201.457 209.2 201.838 209.045 202.133 208.734C202.437 208.415 202.588 207.991 202.588 207.462C202.588 206.934 202.437 206.514 202.133 206.203C201.838 205.884 201.457 205.724 200.99 205.724C200.524 205.724 200.139 205.884 199.836 206.203C199.532 206.514 199.381 206.934 199.381 207.462C199.381 207.991 199.532 208.415 199.836 208.734C200.139 209.045 200.524 209.2 200.99 209.2Z" fill="#C4C4C4"/>
<path d="M59.8963 200.232H52.1203C50.6888 200.232 49.5283 201.392 49.5283 202.824V210.6C49.5283 212.031 50.6888 213.192 52.1203 213.192H59.8963C61.3278 213.192 62.4883 212.031 62.4883 210.6V202.824C62.4883 201.392 61.3278 200.232 59.8963 200.232Z" fill="white" stroke="#C4C4C4" stroke-width="2"/>
<path d="M60.1359 228.096H52.1203C50.6888 228.096 49.5283 229.257 49.5283 230.688V238.464C49.5283 239.896 50.6888 241.056 52.1203 241.056H60.1359C61.5674 241.056 62.7279 239.896 62.7279 238.464V230.688C62.7279 229.257 61.5674 228.096 60.1359 228.096Z" fill="white" stroke="#C23334" stroke-width="2"/>
<path d="M75.3135 264.578H71.5227L70.7995 266.328H68.8633L72.5025 258.163H74.3687L78.0195 266.328H76.0366L75.3135 264.578ZM74.7186 263.144L73.4239 260.018L72.1292 263.144H74.7186ZM86.7746 259.959C87.56 259.959 88.1821 260.193 88.6409 260.659C89.1075 261.118 89.3407 261.81 89.3407 262.735V266.328H87.5211V263.015C87.5211 262.518 87.4162 262.148 87.2062 261.907C87.004 261.659 86.7124 261.534 86.3314 261.534C85.9037 261.534 85.5655 261.674 85.3166 261.954C85.0678 262.226 84.9434 262.634 84.9434 263.179V266.328H83.1238V263.015C83.1238 262.028 82.7272 261.534 81.9341 261.534C81.5142 261.534 81.1798 261.674 80.931 261.954C80.6822 262.226 80.5577 262.634 80.5577 263.179V266.328H78.7382V260.053H80.4761V260.776C80.7094 260.512 80.9932 260.309 81.3276 260.169C81.6697 260.029 82.043 259.959 82.4473 259.959C82.8905 259.959 83.291 260.049 83.6487 260.228C84.0064 260.399 84.2941 260.652 84.5118 260.986C84.7684 260.659 85.0911 260.407 85.4799 260.228C85.8765 260.049 86.3081 259.959 86.7746 259.959ZM90.9717 260.053H92.7913V266.328H90.9717V260.053ZM91.8815 259.178C91.5472 259.178 91.275 259.081 91.0651 258.886C90.8551 258.692 90.7501 258.451 90.7501 258.163C90.7501 257.875 90.8551 257.634 91.0651 257.44C91.275 257.246 91.5472 257.148 91.8815 257.148C92.2159 257.148 92.4881 257.242 92.698 257.428C92.908 257.615 93.0129 257.848 93.0129 258.128C93.0129 258.431 92.908 258.684 92.698 258.886C92.4881 259.081 92.2159 259.178 91.8815 259.178ZM99.6472 264.928V266.328H94.0484V265.232L97.2444 261.452H94.1301V260.053H99.5422V261.149L96.3463 264.928H99.6472ZM103.345 259.959C104.317 259.959 105.063 260.193 105.584 260.659C106.105 261.118 106.366 261.814 106.366 262.747V266.328H104.663V265.547C104.321 266.13 103.683 266.421 102.75 266.421C102.268 266.421 101.848 266.34 101.49 266.176C101.14 266.013 100.872 265.788 100.685 265.5C100.499 265.212 100.405 264.886 100.405 264.52C100.405 263.937 100.623 263.478 101.059 263.144C101.502 262.809 102.182 262.642 103.1 262.642H104.546C104.546 262.246 104.426 261.942 104.184 261.732C103.943 261.515 103.582 261.406 103.1 261.406C102.765 261.406 102.435 261.46 102.108 261.569C101.789 261.67 101.517 261.81 101.292 261.989L100.639 260.718C100.981 260.477 101.389 260.29 101.863 260.158C102.345 260.026 102.839 259.959 103.345 259.959ZM103.205 265.197C103.516 265.197 103.792 265.127 104.033 264.987C104.274 264.839 104.445 264.625 104.546 264.345V263.704H103.298C102.552 263.704 102.178 263.949 102.178 264.438C102.178 264.672 102.268 264.858 102.447 264.998C102.633 265.13 102.886 265.197 103.205 265.197ZM114.473 257.673V266.328H112.735V265.605C112.284 266.149 111.631 266.421 110.775 266.421C110.184 266.421 109.648 266.289 109.166 266.025C108.691 265.76 108.318 265.383 108.046 264.893C107.774 264.403 107.638 263.836 107.638 263.19C107.638 262.545 107.774 261.977 108.046 261.487C108.318 260.998 108.691 260.62 109.166 260.356C109.648 260.092 110.184 259.959 110.775 259.959C111.576 259.959 112.202 260.212 112.653 260.718V257.673H114.473ZM111.09 264.928C111.549 264.928 111.93 264.773 112.233 264.462C112.537 264.143 112.688 263.719 112.688 263.19C112.688 262.662 112.537 262.242 112.233 261.931C111.93 261.612 111.549 261.452 111.09 261.452C110.624 261.452 110.239 261.612 109.935 261.931C109.632 262.242 109.481 262.662 109.481 263.19C109.481 263.719 109.632 264.143 109.935 264.462C110.239 264.773 110.624 264.928 111.09 264.928ZM122.303 263.214C122.303 263.237 122.292 263.4 122.268 263.704H117.521C117.606 264.092 117.809 264.4 118.127 264.625C118.446 264.851 118.843 264.963 119.317 264.963C119.644 264.963 119.932 264.917 120.18 264.823C120.437 264.722 120.674 264.567 120.892 264.357L121.86 265.407C121.269 266.083 120.406 266.421 119.271 266.421C118.563 266.421 117.937 266.285 117.393 266.013C116.848 265.733 116.428 265.348 116.133 264.858C115.837 264.368 115.69 263.812 115.69 263.19C115.69 262.576 115.834 262.024 116.121 261.534C116.417 261.036 116.817 260.652 117.323 260.379C117.836 260.099 118.407 259.959 119.037 259.959C119.652 259.959 120.208 260.092 120.705 260.356C121.203 260.62 121.592 261.001 121.872 261.499C122.159 261.989 122.303 262.561 122.303 263.214ZM119.049 261.336C118.637 261.336 118.291 261.452 118.011 261.686C117.731 261.919 117.56 262.238 117.498 262.642H120.589C120.526 262.246 120.355 261.931 120.075 261.697C119.795 261.456 119.453 261.336 119.049 261.336Z" fill="#C4C4C4"/>
<path d="M59.2479 255.96H51.4719C50.0404 255.96 48.8799 257.12 48.8799 258.552V266.328C48.8799 267.76 50.0404 268.92 51.4719 268.92H59.2479C60.6794 268.92 61.8399 267.76 61.8399 266.328V258.552C61.8399 257.12 60.6794 255.96 59.2479 255.96Z" fill="white" stroke="#C4C4C4" stroke-width="2"/>
<g clip-path="url(#clip0)">
<path d="M59.2484 227.448H51.4724C49.683 227.448 48.2324 228.899 48.2324 230.688V238.464C48.2324 240.254 49.683 241.704 51.4724 241.704H59.2484C61.0378 241.704 62.4884 240.254 62.4884 238.464V230.688C62.4884 228.899 61.0378 227.448 59.2484 227.448Z" fill="#C23334"/>
<path d="M74.8125 238.495C74.1671 238.495 73.5411 238.41 72.9346 238.239C72.3359 238.06 71.8538 237.83 71.4883 237.55L72.1298 236.127C72.4797 236.384 72.8957 236.59 73.3778 236.746C73.86 236.901 74.3421 236.979 74.8242 236.979C75.3607 236.979 75.7573 236.901 76.0139 236.746C76.2705 236.582 76.3988 236.369 76.3988 236.104C76.3988 235.91 76.3211 235.75 76.1655 235.626C76.0178 235.494 75.8234 235.389 75.5823 235.311C75.3491 235.233 75.0303 235.148 74.6259 235.054C74.0038 234.907 73.4945 234.759 73.0979 234.611C72.7013 234.463 72.3592 234.226 72.0715 233.9C71.7915 233.573 71.6516 233.138 71.6516 232.593C71.6516 232.119 71.7799 231.691 72.0365 231.31C72.2931 230.921 72.678 230.614 73.1912 230.389C73.7122 230.163 74.346 230.05 75.0925 230.05C75.6135 230.05 76.1228 230.113 76.6204 230.237C77.1181 230.362 77.5536 230.54 77.9268 230.774L77.3436 232.208C76.5893 231.781 75.8351 231.567 75.0808 231.567C74.552 231.567 74.1593 231.652 73.9027 231.823C73.6539 231.995 73.5295 232.22 73.5295 232.5C73.5295 232.78 73.6733 232.99 73.9611 233.13C74.2565 233.262 74.7037 233.394 75.3024 233.526C75.9245 233.674 76.4338 233.822 76.8304 233.97C77.227 234.117 77.5652 234.351 77.8452 234.669C78.1329 234.988 78.2767 235.42 78.2767 235.964C78.2767 236.431 78.1445 236.858 77.8802 237.247C77.6235 237.628 77.2347 237.931 76.7138 238.157C76.1928 238.382 75.559 238.495 74.8125 238.495ZM85.5868 235.241C85.5868 235.264 85.5752 235.428 85.5518 235.731H80.8046C80.8901 236.12 81.0923 236.427 81.4111 236.652C81.7299 236.878 82.1265 236.991 82.6008 236.991C82.9274 236.991 83.2151 236.944 83.464 236.851C83.7206 236.75 83.9577 236.594 84.1755 236.384L85.1436 237.434C84.5526 238.11 83.6895 238.449 82.5542 238.449C81.8466 238.449 81.2206 238.313 80.6763 238.04C80.132 237.76 79.712 237.375 79.4166 236.886C79.1211 236.396 78.9733 235.84 78.9733 235.218C78.9733 234.603 79.1172 234.051 79.4049 233.561C79.7004 233.064 80.1008 232.679 80.6063 232.407C81.1195 232.127 81.691 231.987 82.3209 231.987C82.9352 231.987 83.4912 232.119 83.9888 232.383C84.4865 232.648 84.8753 233.029 85.1553 233.526C85.443 234.016 85.5868 234.588 85.5868 235.241ZM82.3326 233.363C81.9204 233.363 81.5744 233.48 81.2945 233.713C81.0145 233.946 80.8435 234.265 80.7813 234.669H83.8722C83.81 234.273 83.6389 233.958 83.359 233.725C83.0791 233.484 82.7369 233.363 82.3326 233.363ZM94.8344 231.987C95.6198 231.987 96.2419 232.22 96.7007 232.687C97.1672 233.145 97.4005 233.837 97.4005 234.763V238.355H95.5809V235.043C95.5809 234.545 95.4759 234.176 95.266 233.935C95.0638 233.686 94.7722 233.561 94.3912 233.561C93.9635 233.561 93.6253 233.701 93.3764 233.981C93.1276 234.253 93.0032 234.662 93.0032 235.206V238.355H91.1836V235.043C91.1836 234.055 90.787 233.561 89.9939 233.561C89.574 233.561 89.2396 233.701 88.9908 233.981C88.7419 234.253 88.6175 234.662 88.6175 235.206V238.355H86.7979V232.08H88.5359V232.803C88.7691 232.539 89.053 232.337 89.3873 232.197C89.7295 232.057 90.1027 231.987 90.5071 231.987C90.9503 231.987 91.3508 232.076 91.7085 232.255C92.0662 232.426 92.3539 232.679 92.5716 233.013C92.8282 232.687 93.1509 232.434 93.5397 232.255C93.9363 232.076 94.3679 231.987 94.8344 231.987ZM105.368 238.449C104.699 238.449 104.096 238.313 103.56 238.04C103.031 237.76 102.615 237.375 102.312 236.886C102.016 236.396 101.868 235.84 101.868 235.218C101.868 234.596 102.016 234.04 102.312 233.55C102.615 233.06 103.031 232.679 103.56 232.407C104.096 232.127 104.699 231.987 105.368 231.987C106.029 231.987 106.604 232.127 107.094 232.407C107.592 232.679 107.953 233.071 108.179 233.585L106.767 234.343C106.441 233.767 105.97 233.48 105.356 233.48C104.882 233.48 104.489 233.635 104.178 233.946C103.867 234.257 103.711 234.681 103.711 235.218C103.711 235.754 103.867 236.178 104.178 236.489C104.489 236.8 104.882 236.956 105.356 236.956C105.978 236.956 106.449 236.668 106.767 236.092L108.179 236.862C107.953 237.36 107.592 237.749 107.094 238.029C106.604 238.309 106.029 238.449 105.368 238.449ZM112.132 238.449C111.471 238.449 110.876 238.313 110.348 238.04C109.827 237.76 109.418 237.375 109.123 236.886C108.827 236.396 108.68 235.84 108.68 235.218C108.68 234.596 108.827 234.04 109.123 233.55C109.418 233.06 109.827 232.679 110.348 232.407C110.876 232.127 111.471 231.987 112.132 231.987C112.793 231.987 113.384 232.127 113.905 232.407C114.426 232.679 114.834 233.06 115.13 233.55C115.425 234.04 115.573 234.596 115.573 235.218C115.573 235.84 115.425 236.396 115.13 236.886C114.834 237.375 114.426 237.76 113.905 238.04C113.384 238.313 112.793 238.449 112.132 238.449ZM112.132 236.956C112.599 236.956 112.98 236.8 113.275 236.489C113.578 236.17 113.73 235.746 113.73 235.218C113.73 234.689 113.578 234.269 113.275 233.958C112.98 233.639 112.599 233.48 112.132 233.48C111.666 233.48 111.281 233.639 110.977 233.958C110.674 234.269 110.523 234.689 110.523 235.218C110.523 235.746 110.674 236.17 110.977 236.489C111.281 236.8 111.666 236.956 112.132 236.956ZM124.826 231.987C125.611 231.987 126.233 232.22 126.692 232.687C127.159 233.145 127.392 233.837 127.392 234.763V238.355H125.572V235.043C125.572 234.545 125.467 234.176 125.257 233.935C125.055 233.686 124.764 233.561 124.383 233.561C123.955 233.561 123.617 233.701 123.368 233.981C123.119 234.253 122.995 234.662 122.995 235.206V238.355H121.175V235.043C121.175 234.055 120.778 233.561 119.985 233.561C119.565 233.561 119.231 233.701 118.982 233.981C118.733 234.253 118.609 234.662 118.609 235.206V238.355H116.789V232.08H118.527V232.803C118.761 232.539 119.044 232.337 119.379 232.197C119.721 232.057 120.094 231.987 120.498 231.987C120.942 231.987 121.342 232.076 121.7 232.255C122.058 232.426 122.345 232.679 122.563 233.013C122.82 232.687 123.142 232.434 123.531 232.255C123.928 232.076 124.359 231.987 124.826 231.987ZM132.732 231.987C133.315 231.987 133.844 232.123 134.318 232.395C134.8 232.659 135.178 233.036 135.45 233.526C135.722 234.008 135.858 234.572 135.858 235.218C135.858 235.863 135.722 236.431 135.45 236.921C135.178 237.403 134.8 237.78 134.318 238.052C133.844 238.316 133.315 238.449 132.732 238.449C131.931 238.449 131.301 238.196 130.842 237.69V240.618H129.023V232.08H130.761V232.803C131.212 232.259 131.869 231.987 132.732 231.987ZM132.417 236.956C132.884 236.956 133.265 236.8 133.56 236.489C133.863 236.17 134.015 235.746 134.015 235.218C134.015 234.689 133.863 234.269 133.56 233.958C133.265 233.639 132.884 233.48 132.417 233.48C131.951 233.48 131.566 233.639 131.262 233.958C130.967 234.269 130.819 234.689 130.819 235.218C130.819 235.746 130.967 236.17 131.262 236.489C131.566 236.8 131.951 236.956 132.417 236.956ZM138.814 232.908C139.032 232.605 139.324 232.376 139.689 232.22C140.062 232.064 140.49 231.987 140.972 231.987V233.666C140.77 233.651 140.634 233.643 140.564 233.643C140.043 233.643 139.635 233.791 139.339 234.086C139.044 234.374 138.896 234.809 138.896 235.393V238.355H137.076V232.08H138.814V232.908ZM144.983 238.449C144.322 238.449 143.727 238.313 143.199 238.04C142.678 237.76 142.269 237.375 141.974 236.886C141.678 236.396 141.531 235.84 141.531 235.218C141.531 234.596 141.678 234.04 141.974 233.55C142.269 233.06 142.678 232.679 143.199 232.407C143.727 232.127 144.322 231.987 144.983 231.987C145.644 231.987 146.235 232.127 146.756 232.407C147.277 232.679 147.685 233.06 147.981 233.55C148.276 234.04 148.424 234.596 148.424 235.218C148.424 235.84 148.276 236.396 147.981 236.886C147.685 237.375 147.277 237.76 146.756 238.04C146.235 238.313 145.644 238.449 144.983 238.449ZM144.983 236.956C145.45 236.956 145.831 236.8 146.126 236.489C146.429 236.17 146.581 235.746 146.581 235.218C146.581 234.689 146.429 234.269 146.126 233.958C145.831 233.639 145.45 233.48 144.983 233.48C144.517 233.48 144.132 233.639 143.828 233.958C143.525 234.269 143.374 234.689 143.374 235.218C143.374 235.746 143.525 236.17 143.828 236.489C144.132 236.8 144.517 236.956 144.983 236.956ZM157.677 231.987C158.462 231.987 159.084 232.22 159.543 232.687C160.01 233.145 160.243 233.837 160.243 234.763V238.355H158.423V235.043C158.423 234.545 158.318 234.176 158.108 233.935C157.906 233.686 157.615 233.561 157.234 233.561C156.806 233.561 156.468 233.701 156.219 233.981C155.97 234.253 155.846 234.662 155.846 235.206V238.355H154.026V235.043C154.026 234.055 153.629 233.561 152.836 233.561C152.416 233.561 152.082 233.701 151.833 233.981C151.584 234.253 151.46 234.662 151.46 235.206V238.355H149.64V232.08H151.378V232.803C151.612 232.539 151.895 232.337 152.229 232.197C152.572 232.057 152.945 231.987 153.349 231.987C153.793 231.987 154.193 232.076 154.551 232.255C154.909 232.426 155.196 232.679 155.414 233.013C155.671 232.687 155.993 232.434 156.382 232.255C156.779 232.076 157.21 231.987 157.677 231.987ZM161.873 232.08H163.693V238.355H161.873V232.08ZM162.783 231.205C162.449 231.205 162.177 231.108 161.967 230.914C161.757 230.719 161.652 230.478 161.652 230.19C161.652 229.903 161.757 229.662 161.967 229.467C162.177 229.273 162.449 229.176 162.783 229.176C163.117 229.176 163.39 229.269 163.6 229.456C163.809 229.642 163.914 229.876 163.914 230.155C163.914 230.459 163.809 230.711 163.6 230.914C163.39 231.108 163.117 231.205 162.783 231.205ZM167.493 238.449C166.972 238.449 166.462 238.386 165.965 238.262C165.467 238.13 165.07 237.966 164.775 237.772L165.382 236.466C165.661 236.645 166 236.792 166.396 236.909C166.793 237.018 167.182 237.072 167.563 237.072C168.333 237.072 168.717 236.882 168.717 236.501C168.717 236.322 168.612 236.194 168.403 236.116C168.193 236.038 167.87 235.972 167.434 235.917C166.921 235.84 166.497 235.75 166.163 235.649C165.829 235.548 165.537 235.369 165.288 235.113C165.047 234.856 164.927 234.491 164.927 234.016C164.927 233.62 165.039 233.27 165.265 232.966C165.498 232.655 165.833 232.414 166.268 232.243C166.711 232.072 167.232 231.987 167.831 231.987C168.274 231.987 168.714 232.037 169.149 232.138C169.592 232.232 169.958 232.364 170.245 232.535L169.639 233.83C169.087 233.519 168.484 233.363 167.831 233.363C167.442 233.363 167.151 233.418 166.956 233.526C166.762 233.635 166.665 233.775 166.665 233.946C166.665 234.141 166.77 234.277 166.98 234.355C167.189 234.432 167.524 234.506 167.983 234.576C168.496 234.662 168.916 234.755 169.242 234.856C169.569 234.949 169.853 235.124 170.094 235.381C170.335 235.638 170.455 235.995 170.455 236.454C170.455 236.843 170.339 237.189 170.105 237.492C169.872 237.795 169.53 238.033 169.079 238.204C168.636 238.367 168.107 238.449 167.493 238.449ZM173.69 238.449C173.169 238.449 172.659 238.386 172.162 238.262C171.664 238.13 171.267 237.966 170.972 237.772L171.578 236.466C171.858 236.645 172.197 236.792 172.593 236.909C172.99 237.018 173.379 237.072 173.76 237.072C174.529 237.072 174.914 236.882 174.914 236.501C174.914 236.322 174.809 236.194 174.599 236.116C174.389 236.038 174.067 235.972 173.631 235.917C173.118 235.84 172.694 235.75 172.36 235.649C172.025 235.548 171.734 235.369 171.485 235.113C171.244 234.856 171.123 234.491 171.123 234.016C171.123 233.62 171.236 233.27 171.462 232.966C171.695 232.655 172.029 232.414 172.465 232.243C172.908 232.072 173.429 231.987 174.028 231.987C174.471 231.987 174.91 232.037 175.346 232.138C175.789 232.232 176.155 232.364 176.442 232.535L175.836 233.83C175.284 233.519 174.681 233.363 174.028 233.363C173.639 233.363 173.347 233.418 173.153 233.526C172.959 233.635 172.861 233.775 172.861 233.946C172.861 234.141 172.966 234.277 173.176 234.355C173.386 234.432 173.721 234.506 174.179 234.576C174.693 234.662 175.113 234.755 175.439 234.856C175.766 234.949 176.05 235.124 176.291 235.381C176.532 235.638 176.652 235.995 176.652 236.454C176.652 236.843 176.536 237.189 176.302 237.492C176.069 237.795 175.727 238.033 175.276 238.204C174.833 238.367 174.304 238.449 173.69 238.449ZM180.761 238.449C180.1 238.449 179.505 238.313 178.976 238.04C178.455 237.76 178.047 237.375 177.751 236.886C177.456 236.396 177.308 235.84 177.308 235.218C177.308 234.596 177.456 234.04 177.751 233.55C178.047 233.06 178.455 232.679 178.976 232.407C179.505 232.127 180.1 231.987 180.761 231.987C181.421 231.987 182.012 232.127 182.533 232.407C183.054 232.679 183.463 233.06 183.758 233.55C184.054 234.04 184.201 234.596 184.201 235.218C184.201 235.84 184.054 236.396 183.758 236.886C183.463 237.375 183.054 237.76 182.533 238.04C182.012 238.313 181.421 238.449 180.761 238.449ZM180.761 236.956C181.227 236.956 181.608 236.8 181.904 236.489C182.207 236.17 182.358 235.746 182.358 235.218C182.358 234.689 182.207 234.269 181.904 233.958C181.608 233.639 181.227 233.48 180.761 233.48C180.294 233.48 179.909 233.639 179.606 233.958C179.303 234.269 179.151 234.689 179.151 235.218C179.151 235.746 179.303 236.17 179.606 236.489C179.909 236.8 180.294 236.956 180.761 236.956ZM188.042 228.534H189.663L185.814 239.522H184.193L188.042 228.534ZM191.765 231.987C192.737 231.987 193.483 232.22 194.004 232.687C194.525 233.145 194.786 233.841 194.786 234.774V238.355H193.083V237.574C192.741 238.157 192.103 238.449 191.17 238.449C190.688 238.449 190.268 238.367 189.91 238.204C189.56 238.04 189.292 237.815 189.105 237.527C188.919 237.239 188.826 236.913 188.826 236.547C188.826 235.964 189.043 235.505 189.479 235.171C189.922 234.837 190.602 234.669 191.52 234.669H192.966C192.966 234.273 192.846 233.97 192.605 233.76C192.364 233.542 192.002 233.433 191.52 233.433C191.186 233.433 190.855 233.487 190.528 233.596C190.21 233.697 189.938 233.837 189.712 234.016L189.059 232.745C189.401 232.504 189.809 232.317 190.284 232.185C190.766 232.053 191.259 231.987 191.765 231.987ZM191.625 237.224C191.936 237.224 192.212 237.154 192.453 237.014C192.694 236.866 192.865 236.652 192.966 236.372V235.731H191.718C190.972 235.731 190.598 235.976 190.598 236.466C190.598 236.699 190.688 236.886 190.867 237.026C191.053 237.158 191.306 237.224 191.625 237.224ZM200.142 231.987C200.725 231.987 201.254 232.123 201.728 232.395C202.21 232.659 202.587 233.036 202.859 233.526C203.131 234.008 203.268 234.572 203.268 235.218C203.268 235.863 203.131 236.431 202.859 236.921C202.587 237.403 202.21 237.78 201.728 238.052C201.254 238.316 200.725 238.449 200.142 238.449C199.278 238.449 198.621 238.176 198.17 237.632V238.355H196.432V229.701H198.252V232.745C198.711 232.239 199.341 231.987 200.142 231.987ZM199.827 236.956C200.293 236.956 200.674 236.8 200.97 236.489C201.273 236.17 201.425 235.746 201.425 235.218C201.425 234.689 201.273 234.269 200.97 233.958C200.674 233.639 200.293 233.48 199.827 233.48C199.36 233.48 198.975 233.639 198.672 233.958C198.376 234.269 198.229 234.689 198.229 235.218C198.229 235.746 198.376 236.17 198.672 236.489C198.975 236.8 199.36 236.956 199.827 236.956ZM210.633 235.241C210.633 235.264 210.621 235.428 210.598 235.731H205.85C205.936 236.12 206.138 236.427 206.457 236.652C206.776 236.878 207.172 236.991 207.647 236.991C207.973 236.991 208.261 236.944 208.51 236.851C208.766 236.75 209.004 236.594 209.221 236.384L210.189 237.434C209.598 238.11 208.735 238.449 207.6 238.449C206.892 238.449 206.266 238.313 205.722 238.04C205.178 237.76 204.758 237.375 204.462 236.886C204.167 236.396 204.019 235.84 204.019 235.218C204.019 234.603 204.163 234.051 204.451 233.561C204.746 233.064 205.147 232.679 205.652 232.407C206.165 232.127 206.737 231.987 207.367 231.987C207.981 231.987 208.537 232.119 209.035 232.383C209.532 232.648 209.921 233.029 210.201 233.526C210.489 234.016 210.633 234.588 210.633 235.241ZM207.378 233.363C206.966 233.363 206.62 233.48 206.34 233.713C206.06 233.946 205.889 234.265 205.827 234.669H208.918C208.856 234.273 208.685 233.958 208.405 233.725C208.125 233.484 207.783 233.363 207.378 233.363ZM213.582 232.908C213.8 232.605 214.092 232.376 214.457 232.22C214.83 232.064 215.258 231.987 215.74 231.987V233.666C215.538 233.651 215.402 233.643 215.332 233.643C214.811 233.643 214.403 233.791 214.107 234.086C213.812 234.374 213.664 234.809 213.664 235.393V238.355H211.844V232.08H213.582V232.908ZM221.086 238.052C220.907 238.184 220.685 238.285 220.421 238.355C220.164 238.417 219.892 238.449 219.604 238.449C218.858 238.449 218.278 238.258 217.866 237.877C217.462 237.496 217.26 236.936 217.26 236.197V233.62H216.292V232.22H217.26V230.692H219.079V232.22H220.642V233.62H219.079V236.174C219.079 236.438 219.145 236.645 219.278 236.792C219.418 236.932 219.612 237.002 219.861 237.002C220.149 237.002 220.393 236.924 220.596 236.769L221.086 238.052ZM224.9 238.449C224.239 238.449 223.644 238.313 223.115 238.04C222.594 237.76 222.186 237.375 221.89 236.886C221.595 236.396 221.447 235.84 221.447 235.218C221.447 234.596 221.595 234.04 221.89 233.55C222.186 233.06 222.594 232.679 223.115 232.407C223.644 232.127 224.239 231.987 224.9 231.987C225.561 231.987 226.152 232.127 226.673 232.407C227.194 232.679 227.602 233.06 227.897 233.55C228.193 234.04 228.341 234.596 228.341 235.218C228.341 235.84 228.193 236.396 227.897 236.886C227.602 237.375 227.194 237.76 226.673 238.04C226.152 238.313 225.561 238.449 224.9 238.449ZM224.9 236.956C225.366 236.956 225.747 236.8 226.043 236.489C226.346 236.17 226.498 235.746 226.498 235.218C226.498 234.689 226.346 234.269 226.043 233.958C225.747 233.639 225.366 233.48 224.9 233.48C224.433 233.48 224.048 233.639 223.745 233.958C223.442 234.269 223.29 234.689 223.29 235.218C223.29 235.746 223.442 236.17 223.745 236.489C224.048 236.8 224.433 236.956 224.9 236.956Z" fill="#C23334"/>
</g>
<path d="M51.4717 234.094L54.6073 237.168L59.8957 231.984" stroke="white" stroke-width="3"/>
<path d="M46.2875 483.408C49.1506 483.408 51.4715 481.087 51.4715 478.224C51.4715 475.361 49.1506 473.04 46.2875 473.04C43.4245 473.04 41.1035 475.361 41.1035 478.224C41.1035 481.087 43.4245 483.408 46.2875 483.408Z" fill="#FCA9AA"/>
<path d="M81.2797 483.408C84.1428 483.408 86.4637 481.087 86.4637 478.224C86.4637 475.361 84.1428 473.04 81.2797 473.04C78.4167 473.04 76.0957 475.361 76.0957 478.224C76.0957 481.087 78.4167 483.408 81.2797 483.408Z" fill="#C23334"/>
<path d="M57.9516 483.408C60.8146 483.408 63.1356 481.087 63.1356 478.224C63.1356 475.361 60.8146 473.04 57.9516 473.04C55.0885 473.04 52.7676 475.361 52.7676 478.224C52.7676 481.087 55.0885 483.408 57.9516 483.408Z" fill="#FCA9AA"/>
<path d="M69.6156 483.408C72.4787 483.408 74.7996 481.087 74.7996 478.224C74.7996 475.361 72.4787 473.04 69.6156 473.04C66.7526 473.04 64.4316 475.361 64.4316 478.224C64.4316 481.087 66.7526 483.408 69.6156 483.408Z" fill="#FCA9AA"/>
<path d="M92.9438 483.408C95.8068 483.408 98.1278 481.087 98.1278 478.224C98.1278 475.361 95.8068 473.04 92.9438 473.04C90.0807 473.04 87.7598 475.361 87.7598 478.224C87.7598 481.087 90.0807 483.408 92.9438 483.408Z" fill="#FCA9AA"/>
<path d="M49.9385 389.588C49.2931 389.588 48.6671 389.503 48.0606 389.331C47.4618 389.153 46.9797 388.923 46.6143 388.643L47.2558 387.22C47.6057 387.477 48.0217 387.683 48.5038 387.838C48.9859 387.994 49.468 388.072 49.9502 388.072C50.4867 388.072 50.8833 387.994 51.1399 387.838C51.3965 387.675 51.5248 387.461 51.5248 387.197C51.5248 387.003 51.447 386.843 51.2915 386.719C51.1438 386.587 50.9494 386.482 50.7083 386.404C50.475 386.326 50.1562 386.241 49.7519 386.147C49.1298 385.999 48.6205 385.852 48.2239 385.704C47.8273 385.556 47.4852 385.319 47.1975 384.992C46.9175 384.666 46.7776 384.23 46.7776 383.686C46.7776 383.212 46.9059 382.784 47.1625 382.403C47.4191 382.014 47.804 381.707 48.3172 381.482C48.8382 381.256 49.4719 381.143 50.2184 381.143C50.7394 381.143 51.2488 381.206 51.7464 381.33C52.2441 381.454 52.6795 381.633 53.0528 381.867L52.4696 383.301C51.7153 382.874 50.961 382.66 50.2068 382.66C49.678 382.66 49.2853 382.745 49.0287 382.916C48.7799 383.087 48.6555 383.313 48.6555 383.593C48.6555 383.873 48.7993 384.083 49.087 384.223C49.3825 384.355 49.8296 384.487 50.4284 384.619C51.0505 384.767 51.5598 384.915 51.9564 385.062C52.3529 385.21 52.6912 385.443 52.9711 385.762C53.2589 386.081 53.4027 386.513 53.4027 387.057C53.4027 387.524 53.2705 387.951 53.0061 388.34C52.7495 388.721 52.3607 389.024 51.8397 389.25C51.3187 389.475 50.685 389.588 49.9385 389.588ZM60.8874 383.173V389.448H59.1612V388.702C58.9201 388.974 58.6324 389.184 58.298 389.331C57.9637 389.471 57.6021 389.541 57.2133 389.541C56.389 389.541 55.7358 389.304 55.2537 388.83C54.7716 388.356 54.5305 387.652 54.5305 386.719V383.173H56.3501V386.45C56.3501 387.461 56.7739 387.967 57.6215 387.967C58.057 387.967 58.4069 387.827 58.6713 387.547C58.9357 387.259 59.0678 386.835 59.0678 386.276V383.173H60.8874ZM69.0467 383.173V388.398C69.0467 389.549 68.7473 390.405 68.1485 390.964C67.5498 391.524 66.675 391.804 65.5241 391.804C64.9176 391.804 64.3422 391.73 63.7979 391.583C63.2535 391.435 62.8025 391.221 62.4448 390.941L63.168 389.635C63.4324 389.852 63.7668 390.024 64.1711 390.148C64.5755 390.28 64.9798 390.346 65.3842 390.346C66.014 390.346 66.4767 390.202 66.7722 389.915C67.0754 389.635 67.2271 389.207 67.2271 388.632V388.363C66.7527 388.884 66.0918 389.145 65.2442 389.145C64.6688 389.145 64.14 389.02 63.6579 388.772C63.1836 388.515 62.8064 388.157 62.5265 387.699C62.2465 387.24 62.1066 386.711 62.1066 386.112C62.1066 385.513 62.2465 384.985 62.5265 384.526C62.8064 384.067 63.1836 383.713 63.6579 383.464C64.14 383.208 64.6688 383.08 65.2442 383.08C66.154 383.08 66.8461 383.379 67.3204 383.978V383.173H69.0467ZM65.6058 387.652C66.0879 387.652 66.4806 387.512 66.7838 387.232C67.0949 386.944 67.2504 386.571 67.2504 386.112C67.2504 385.653 67.0949 385.284 66.7838 385.004C66.4806 384.716 66.0879 384.573 65.6058 384.573C65.1237 384.573 64.7271 384.716 64.416 385.004C64.105 385.284 63.9495 385.653 63.9495 386.112C63.9495 386.571 64.105 386.944 64.416 387.232C64.7271 387.512 65.1237 387.652 65.6058 387.652ZM76.8869 386.334C76.8869 386.357 76.8752 386.52 76.8519 386.824H72.105C72.1905 387.213 72.3927 387.52 72.7115 387.745C73.0303 387.971 73.4269 388.083 73.9012 388.083C74.2278 388.083 74.5155 388.037 74.7644 387.943C75.0206 387.842 75.2578 387.687 75.4755 387.477L76.4436 388.527C75.8527 389.203 74.9895 389.541 73.8546 389.541C73.1469 389.541 72.521 389.405 71.9767 389.133C71.4323 388.853 71.0124 388.468 70.7169 387.978C70.4215 387.489 70.2737 386.933 70.2737 386.311C70.2737 385.696 70.4176 385.144 70.7053 384.654C71.0008 384.157 71.4012 383.772 71.9067 383.499C72.4199 383.22 72.9914 383.08 73.6213 383.08C74.2356 383.08 74.7916 383.212 75.2889 383.476C75.7866 383.741 76.1754 384.122 76.4553 384.619C76.743 385.109 76.8869 385.681 76.8869 386.334ZM73.6329 384.456C73.2208 384.456 72.8748 384.573 72.5949 384.806C72.3149 385.039 72.1438 385.358 72.0816 385.762H75.1723C75.1101 385.366 74.939 385.051 74.6594 384.818C74.3794 384.576 74.0373 384.456 73.6329 384.456ZM79.8366 384.001C80.0543 383.698 80.3459 383.468 80.7114 383.313C81.0846 383.157 81.5123 383.08 81.9944 383.08V384.759C81.7922 384.744 81.6562 384.736 81.5862 384.736C81.0652 384.736 80.6569 384.884 80.3615 385.179C80.066 385.467 79.9182 385.902 79.9182 386.485V389.448H78.0986V383.173H79.8366V384.001ZM83.0766 383.173H84.8962V389.448H83.0766V383.173ZM83.9864 382.298C83.652 382.298 83.3798 382.201 83.1699 382.006C82.9599 381.812 82.855 381.571 82.855 381.283C82.855 380.996 82.9599 380.755 83.1699 380.56C83.3798 380.366 83.652 380.269 83.9864 380.269C84.3207 380.269 84.5929 380.362 84.8028 380.548C85.0128 380.735 85.1178 380.968 85.1178 381.248C85.1178 381.552 85.0128 381.804 84.8028 382.006C84.5929 382.201 84.3207 382.298 83.9864 382.298ZM88.3228 384.001C88.5405 383.698 88.8321 383.468 89.1976 383.313C89.5708 383.157 89.9985 383.08 90.4806 383.08V384.759C90.2784 384.744 90.1424 384.736 90.0724 384.736C89.5514 384.736 89.1432 384.884 88.8477 385.179C88.5522 385.467 88.4044 385.902 88.4044 386.485V389.448H86.5848V383.173H88.3228V384.001ZM92.3644 385.354C92.0455 385.354 91.7773 385.245 91.5595 385.027C91.3418 384.81 91.233 384.538 91.233 384.211C91.233 383.877 91.3418 383.608 91.5595 383.406C91.7773 383.196 92.0455 383.091 92.3644 383.091C92.6832 383.091 92.9515 383.196 93.1692 383.406C93.3869 383.608 93.4958 383.877 93.4958 384.211C93.4958 384.538 93.3869 384.81 93.1692 385.027C92.9515 385.245 92.6832 385.354 92.3644 385.354ZM92.3644 389.541C92.0455 389.541 91.7773 389.433 91.5595 389.215C91.3418 388.997 91.233 388.725 91.233 388.398C91.233 388.064 91.3418 387.796 91.5595 387.594C91.7773 387.384 92.0455 387.279 92.3644 387.279C92.6832 387.279 92.9515 387.384 93.1692 387.594C93.3869 387.796 93.4958 388.064 93.4958 388.398C93.4958 388.725 93.3869 388.997 93.1692 389.215C92.9515 389.433 92.6832 389.541 92.3644 389.541Z" fill="#C23334"/>
<path d="M99.0996 389.286H197.272" stroke="#C23334" stroke-width="2"/>
</g>
<defs>
<filter id="filter0_d" x="0" y="0" width="263" height="556.176" filterUnits="userSpaceOnUse" color-interpolation-filters="sRGB">
<feFlood flood-opacity="0" result="BackgroundImageFix"/>
<feColorMatrix in="SourceAlpha" type="matrix" values="0 0 0 0 0 0 0 0 0 0 0 0 0 0 0 0 0 0 127 0"/>
<feOffset dy="20"/>
<feGaussianBlur stdDeviation="5"/>
<feColorMatrix type="matrix" values="0 0 0 0 0 0 0 0 0 0 0 0 0 0 0 0 0 0 0.25 0"/>
<feBlend mode="normal" in2="BackgroundImageFix" result="effect1_dropShadow"/>
<feBlend mode="normal" in="SourceGraphic" in2="effect1_dropShadow" result="shape"/>
</filter>
<filter id="filter1_d" x="171.888" y="453.6" width="47.528" height="47.528" filterUnits="userSpaceOnUse" color-interpolation-filters="sRGB">
<feFlood flood-opacity="0" result="BackgroundImageFix"/>
<feColorMatrix in="SourceAlpha" type="matrix" values="0 0 0 0 0 0 0 0 0 0 0 0 0 0 0 0 0 0 127 0"/>
<feOffset dy="4"/>
<feGaussianBlur stdDeviation="2"/>
<feColorMatrix type="matrix" values="0 0 0 0 0 0 0 0 0 0 0 0 0 0 0 0 0 0 0.25 0"/>
<feBlend mode="normal" in2="BackgroundImageFix" result="effect1_dropShadow"/>
<feBlend mode="normal" in="SourceGraphic" in2="effect1_dropShadow" result="shape"/>
</filter>
<clipPath id="clip0">
<rect width="180.108" height="14.256" fill="white" transform="translate(48.2324 227.448)"/>
</clipPath>
</defs>
</svg>
