<svg width="263" height="557" viewBox="0 0 263 557" fill="none" xmlns="http://www.w3.org/2000/svg">
<g filter="url(#filter0_d)">
<path d="M238 0H25C16.7157 0 10 6.71574 10 15V511.176C10 519.46 16.7157 526.176 25 526.176H238C246.284 526.176 253 519.46 253 511.176V15C253 6.71573 246.284 0 238 0Z" fill="white"/>
<path d="M36.5288 27.1767C36.1493 27.5563 36.1493 28.1718 36.5288 28.5514L42.7146 34.7372C43.0942 35.1168 43.7096 35.1168 44.0892 34.7372C44.4688 34.3576 44.4688 33.7421 44.0892 33.3625L38.5907 27.8641L44.0892 22.3656C44.4688 21.986 44.4688 21.3706 44.0892 20.991C43.7096 20.6114 43.0942 20.6114 42.7146 20.991L36.5288 27.1767ZM56.0081 26.8921H37.2161V28.8361H56.0081V26.8921Z" fill="#C23334"/>
<path d="M33.8622 129.299C33.5096 129.714 33.1001 130.03 32.6335 130.248C32.167 130.466 31.6641 130.575 31.125 130.575C30.4407 130.575 29.7979 130.409 29.1966 130.077C28.6056 129.756 27.9265 129.201 27.1592 128.413C26.1328 128.361 25.2049 128.086 24.3754 127.589C23.5564 127.091 22.9135 126.433 22.447 125.614C21.9908 124.784 21.7627 123.867 21.7627 122.861C21.7627 121.814 22.0115 120.865 22.5092 120.015C23.0172 119.165 23.7119 118.501 24.5932 118.024C25.4744 117.537 26.4646 117.293 27.5636 117.293C28.6522 117.293 29.6372 117.537 30.5185 118.024C31.3998 118.501 32.0892 119.165 32.5869 120.015C33.0846 120.855 33.3334 121.803 33.3334 122.861C33.3334 123.753 33.1519 124.572 32.7891 125.318C32.4366 126.065 31.9337 126.692 31.2805 127.2C30.6377 127.708 29.8964 128.06 29.0566 128.257C29.4195 128.641 29.7668 128.916 30.0986 129.082C30.4407 129.258 30.788 129.346 31.1406 129.346C31.9078 129.346 32.5713 129.035 33.1312 128.413L33.8622 129.299ZM23.3179 122.861C23.3179 123.649 23.4993 124.364 23.8622 125.007C24.2355 125.64 24.7435 126.137 25.3863 126.5C26.0395 126.863 26.7653 127.044 27.5636 127.044C28.3516 127.044 29.067 126.863 29.7098 126.5C30.3526 126.137 30.8554 125.64 31.2183 125.007C31.5916 124.364 31.7782 123.649 31.7782 122.861C31.7782 122.073 31.5916 121.363 31.2183 120.73C30.8554 120.087 30.3526 119.585 29.7098 119.222C29.067 118.859 28.3516 118.677 27.5636 118.677C26.7653 118.677 26.0395 118.859 25.3863 119.222C24.7435 119.585 24.2355 120.087 23.8622 120.73C23.4993 121.363 23.3179 122.073 23.3179 122.861ZM43.1754 120.062V128.304H41.7602V127.06C41.4595 127.485 41.0603 127.817 40.5627 128.055C40.0754 128.283 39.5414 128.397 38.9608 128.397C37.8618 128.397 36.9961 128.097 36.3636 127.495C35.7312 126.884 35.415 125.987 35.415 124.805V120.062H36.9079V124.634C36.9079 125.432 37.0998 126.039 37.4834 126.453C37.867 126.858 38.4165 127.06 39.1319 127.06C39.9198 127.06 40.5419 126.821 40.9981 126.345C41.4543 125.868 41.6824 125.194 41.6824 124.323V120.062H43.1754ZM49.0191 119.984C50.1596 119.984 51.0305 120.264 51.6319 120.824C52.2436 121.383 52.5494 122.218 52.5494 123.327V128.304H51.1342V127.215C50.8854 127.599 50.5277 127.895 50.0611 128.102C49.6049 128.299 49.0606 128.397 48.4282 128.397C47.5054 128.397 46.7641 128.175 46.2042 127.729C45.6547 127.283 45.38 126.697 45.38 125.971C45.38 125.246 45.6443 124.665 46.1731 124.229C46.7019 123.784 47.5417 123.561 48.6925 123.561H51.0564V123.265C51.0564 122.622 50.8698 122.13 50.4966 121.788C50.1233 121.446 49.5738 121.275 48.8481 121.275C48.3608 121.275 47.8838 121.358 47.4173 121.523C46.9507 121.679 46.5567 121.892 46.2353 122.161L45.6132 121.041C46.0383 120.699 46.5464 120.44 47.1373 120.264C47.7283 120.077 48.3556 119.984 49.0191 119.984ZM48.677 127.247C49.2472 127.247 49.7397 127.122 50.1544 126.873C50.5691 126.614 50.8698 126.251 51.0564 125.785V124.634H48.7547C47.4899 124.634 46.8574 125.059 46.8574 125.909C46.8574 126.324 47.0181 126.65 47.3395 126.889C47.6609 127.127 48.1067 127.247 48.677 127.247ZM55.3124 116.765H56.8054V128.304H55.3124V116.765ZM66.1964 128.397C65.5225 128.397 64.8745 128.309 64.2524 128.133C63.6304 127.946 63.1431 127.713 62.7906 127.433L63.4126 126.251C63.7755 126.51 64.2162 126.718 64.7346 126.873C65.253 127.029 65.7765 127.107 66.3053 127.107C67.6117 127.107 68.2649 126.733 68.2649 125.987C68.2649 125.738 68.1767 125.541 68.0005 125.396C67.8242 125.251 67.6013 125.147 67.3317 125.085C67.0725 125.012 66.6993 124.935 66.212 124.852C65.5484 124.748 65.0041 124.629 64.579 124.494C64.1643 124.359 63.8066 124.131 63.506 123.81C63.2053 123.488 63.0549 123.037 63.0549 122.457C63.0549 121.71 63.366 121.114 63.9881 120.668C64.6101 120.212 65.4448 119.984 66.4919 119.984C67.0414 119.984 67.5909 120.051 68.1404 120.186C68.6899 120.321 69.141 120.502 69.4935 120.73L68.8558 121.912C68.1819 121.477 67.3888 121.259 66.4764 121.259C65.8439 121.259 65.3618 121.363 65.03 121.57C64.6983 121.777 64.5324 122.052 64.5324 122.394C64.5324 122.664 64.6257 122.876 64.8123 123.032C64.9989 123.188 65.227 123.302 65.4966 123.374C65.7765 123.447 66.1653 123.53 66.663 123.623C67.3266 123.737 67.8605 123.861 68.2649 123.996C68.6796 124.121 69.0321 124.338 69.3224 124.649C69.6127 124.96 69.7579 125.396 69.7579 125.956C69.7579 126.702 69.4364 127.298 68.7936 127.744C68.1612 128.18 67.2955 128.397 66.1964 128.397ZM79.3064 120.062V128.304H77.8912V127.06C77.5905 127.485 77.1913 127.817 76.6937 128.055C76.2064 128.283 75.6724 128.397 75.0918 128.397C73.9929 128.397 73.1271 128.097 72.4947 127.495C71.8622 126.884 71.546 125.987 71.546 124.805V120.062H73.039V124.634C73.039 125.432 73.2308 126.039 73.6144 126.453C73.998 126.858 74.5475 127.06 75.2629 127.06C76.0508 127.06 76.6729 126.821 77.1291 126.345C77.5853 125.868 77.8134 125.194 77.8134 124.323V120.062H79.3064ZM85.1501 119.984C86.2905 119.984 87.1614 120.264 87.7628 120.824C88.3745 121.383 88.6804 122.218 88.6804 123.327V128.304H87.2651V127.215C87.0163 127.599 86.6586 127.895 86.192 128.102C85.7358 128.299 85.1915 128.397 84.5591 128.397C83.6363 128.397 82.895 128.175 82.3351 127.729C81.7856 127.283 81.5109 126.697 81.5109 125.971C81.5109 125.246 81.7753 124.665 82.304 124.229C82.8328 123.784 83.6726 123.561 84.8235 123.561H87.1874V123.265C87.1874 122.622 87.0007 122.13 86.6275 121.788C86.2542 121.446 85.7047 121.275 84.979 121.275C84.4917 121.275 84.0148 121.358 83.5482 121.523C83.0816 121.679 82.6877 121.892 82.3662 122.161L81.7442 121.041C82.1693 120.699 82.6773 120.44 83.2683 120.264C83.8592 120.077 84.4865 119.984 85.1501 119.984ZM84.8079 127.247C85.3782 127.247 85.8706 127.122 86.2853 126.873C86.7001 126.614 87.0007 126.251 87.1874 125.785V124.634H84.8857C83.6208 124.634 82.9883 125.059 82.9883 125.909C82.9883 126.324 83.149 126.65 83.4704 126.889C83.7918 127.127 84.2377 127.247 84.8079 127.247ZM99.1501 128.397C98.331 128.397 97.5949 128.216 96.9417 127.853C96.2885 127.49 95.7753 126.993 95.4021 126.36C95.0392 125.717 94.8577 124.992 94.8577 124.183C94.8577 123.374 95.0392 122.654 95.4021 122.021C95.7753 121.378 96.2885 120.881 96.9417 120.528C97.5949 120.165 98.331 119.984 99.1501 119.984C99.9692 119.984 100.7 120.165 101.343 120.528C101.996 120.881 102.504 121.378 102.867 122.021C103.24 122.654 103.427 123.374 103.427 124.183C103.427 124.992 103.24 125.717 102.867 126.36C102.504 126.993 101.996 127.49 101.343 127.853C100.7 128.216 99.9692 128.397 99.1501 128.397ZM99.1501 127.091C99.6789 127.091 100.151 126.972 100.565 126.733C100.99 126.485 101.322 126.142 101.561 125.707C101.799 125.261 101.918 124.753 101.918 124.183C101.918 123.613 101.799 123.11 101.561 122.674C101.322 122.228 100.99 121.886 100.565 121.648C100.151 121.409 99.6789 121.29 99.1501 121.29C98.6213 121.29 98.1444 121.409 97.7193 121.648C97.3046 121.886 96.9728 122.228 96.724 122.674C96.4855 123.11 96.3663 123.613 96.3663 124.183C96.3663 124.753 96.4855 125.261 96.724 125.707C96.9728 126.142 97.3046 126.485 97.7193 126.733C98.1444 126.972 98.6213 127.091 99.1501 127.091ZM106.923 121.446C107.182 120.969 107.566 120.606 108.074 120.357C108.582 120.108 109.199 119.984 109.924 119.984V121.43C109.841 121.42 109.727 121.415 109.582 121.415C108.774 121.415 108.136 121.658 107.669 122.146C107.213 122.622 106.985 123.307 106.985 124.198V128.304H105.492V120.062H106.923V121.446ZM111.764 120.062H113.257V128.304H111.764V120.062ZM112.511 118.475C112.22 118.475 111.977 118.382 111.78 118.195C111.593 118.009 111.5 117.781 111.5 117.511C111.5 117.241 111.593 117.013 111.78 116.827C111.977 116.63 112.22 116.531 112.511 116.531C112.801 116.531 113.039 116.625 113.226 116.811C113.423 116.987 113.521 117.21 113.521 117.48C113.521 117.76 113.423 117.998 113.226 118.195C113.039 118.382 112.801 118.475 112.511 118.475ZM123.558 124.229C123.558 124.344 123.547 124.494 123.527 124.681H116.839C116.933 125.406 117.249 125.992 117.788 126.438C118.337 126.873 119.016 127.091 119.825 127.091C120.81 127.091 121.603 126.759 122.205 126.096L123.029 127.06C122.656 127.495 122.189 127.827 121.629 128.055C121.08 128.283 120.463 128.397 119.779 128.397C118.908 128.397 118.135 128.221 117.461 127.869C116.787 127.506 116.264 127.003 115.891 126.36C115.528 125.717 115.346 124.992 115.346 124.183C115.346 123.384 115.522 122.664 115.875 122.021C116.238 121.378 116.73 120.881 117.352 120.528C117.985 120.165 118.695 119.984 119.483 119.984C120.271 119.984 120.971 120.165 121.583 120.528C122.205 120.881 122.687 121.378 123.029 122.021C123.381 122.664 123.558 123.4 123.558 124.229ZM119.483 121.244C118.768 121.244 118.166 121.461 117.679 121.897C117.202 122.332 116.922 122.902 116.839 123.607H122.127C122.044 122.913 121.759 122.348 121.272 121.912C120.795 121.466 120.198 121.244 119.483 121.244ZM130.032 119.984C131.079 119.984 131.908 120.29 132.52 120.901C133.142 121.503 133.453 122.389 133.453 123.561V128.304H131.96V123.732C131.96 122.933 131.768 122.332 131.385 121.928C131.001 121.523 130.452 121.321 129.736 121.321C128.928 121.321 128.29 121.56 127.823 122.037C127.357 122.503 127.124 123.177 127.124 124.058V128.304H125.631V120.062H127.061V121.306C127.362 120.881 127.766 120.554 128.274 120.326C128.793 120.098 129.379 119.984 130.032 119.984ZM140.851 127.822C140.633 128.009 140.364 128.154 140.042 128.257C139.721 128.351 139.389 128.397 139.047 128.397C138.217 128.397 137.575 128.175 137.118 127.729C136.662 127.283 136.434 126.645 136.434 125.816V121.29H135.034V120.062H136.434V118.258H137.927V120.062H140.291V121.29H137.927V125.754C137.927 126.199 138.036 126.542 138.254 126.78C138.482 127.018 138.803 127.138 139.218 127.138C139.674 127.138 140.063 127.008 140.384 126.749L140.851 127.822ZM145.657 119.984C146.798 119.984 147.668 120.264 148.27 120.824C148.882 121.383 149.187 122.218 149.187 123.327V128.304H147.772V127.215C147.523 127.599 147.166 127.895 146.699 128.102C146.243 128.299 145.699 128.397 145.066 128.397C144.143 128.397 143.402 128.175 142.842 127.729C142.293 127.283 142.018 126.697 142.018 125.971C142.018 125.246 142.282 124.665 142.811 124.229C143.34 123.784 144.18 123.561 145.33 123.561H147.694V123.265C147.694 122.622 147.508 122.13 147.134 121.788C146.761 121.446 146.212 121.275 145.486 121.275C144.999 121.275 144.522 121.358 144.055 121.523C143.589 121.679 143.195 121.892 142.873 122.161L142.251 121.041C142.676 120.699 143.184 120.44 143.775 120.264C144.366 120.077 144.994 119.984 145.657 119.984ZM145.315 127.247C145.885 127.247 146.378 127.122 146.792 126.873C147.207 126.614 147.508 126.251 147.694 125.785V124.634H145.393C144.128 124.634 143.495 125.059 143.495 125.909C143.495 126.324 143.656 126.65 143.977 126.889C144.299 127.127 144.745 127.247 145.315 127.247ZM155.588 128.397C154.748 128.397 153.997 128.216 153.333 127.853C152.68 127.49 152.167 126.993 151.794 126.36C151.42 125.717 151.234 124.992 151.234 124.183C151.234 123.374 151.42 122.654 151.794 122.021C152.167 121.378 152.68 120.881 153.333 120.528C153.997 120.165 154.748 119.984 155.588 119.984C156.335 119.984 156.998 120.134 157.579 120.435C158.17 120.735 158.626 121.171 158.948 121.741L157.812 122.472C157.553 122.078 157.232 121.783 156.848 121.586C156.464 121.389 156.039 121.29 155.573 121.29C155.034 121.29 154.546 121.409 154.111 121.648C153.686 121.886 153.349 122.228 153.1 122.674C152.862 123.11 152.742 123.613 152.742 124.183C152.742 124.763 152.862 125.277 153.1 125.722C153.349 126.158 153.686 126.495 154.111 126.733C154.546 126.972 155.034 127.091 155.573 127.091C156.039 127.091 156.464 126.993 156.848 126.796C157.232 126.599 157.553 126.303 157.812 125.909L158.948 126.625C158.626 127.195 158.17 127.635 157.579 127.946C156.998 128.247 156.335 128.397 155.588 128.397ZM154.857 131.788C154.318 131.788 153.857 131.674 153.473 131.446L153.8 130.684C154.111 130.86 154.463 130.948 154.857 130.948C155.438 130.948 155.728 130.741 155.728 130.326C155.728 130.139 155.656 129.989 155.511 129.875C155.365 129.771 155.142 129.719 154.842 129.719H154.422L154.811 128.195H155.666L155.433 129.082C155.868 129.123 156.2 129.258 156.428 129.486C156.667 129.725 156.786 130.02 156.786 130.373C156.786 130.808 156.61 131.15 156.257 131.399C155.905 131.658 155.438 131.788 154.857 131.788ZM163.882 119.984C165.023 119.984 165.893 120.264 166.495 120.824C167.106 121.383 167.412 122.218 167.412 123.327V128.304H165.997V127.215C165.748 127.599 165.391 127.895 164.924 128.102C164.468 128.299 163.924 128.397 163.291 128.397C162.368 128.397 161.627 128.175 161.067 127.729C160.518 127.283 160.243 126.697 160.243 125.971C160.243 125.246 160.507 124.665 161.036 124.229C161.565 123.784 162.405 123.561 163.555 123.561H165.919V123.265C165.919 122.622 165.733 122.13 165.359 121.788C164.986 121.446 164.437 121.275 163.711 121.275C163.224 121.275 162.747 121.358 162.28 121.523C161.814 121.679 161.42 121.892 161.098 122.161L160.476 121.041C160.901 120.699 161.409 120.44 162 120.264C162.591 120.077 163.219 119.984 163.882 119.984ZM163.54 127.247C164.11 127.247 164.603 127.122 165.017 126.873C165.432 126.614 165.733 126.251 165.919 125.785V124.634H163.618C162.353 124.634 161.72 125.059 161.72 125.909C161.72 126.324 161.881 126.65 162.202 126.889C162.524 127.127 162.97 127.247 163.54 127.247ZM165.08 118.817C164.831 118.817 164.613 118.766 164.426 118.662C164.25 118.558 164.027 118.403 163.758 118.195C163.602 118.05 163.467 117.946 163.353 117.884C163.239 117.812 163.125 117.775 163.011 117.775C162.783 117.775 162.596 117.864 162.451 118.04C162.306 118.206 162.228 118.439 162.218 118.74H161.378C161.399 118.159 161.544 117.698 161.814 117.356C162.094 117.013 162.456 116.842 162.902 116.842C163.151 116.842 163.369 116.899 163.555 117.013C163.752 117.117 163.975 117.273 164.224 117.48C164.4 117.625 164.54 117.734 164.644 117.807C164.748 117.869 164.857 117.9 164.971 117.9C165.199 117.9 165.385 117.817 165.531 117.651C165.676 117.485 165.753 117.257 165.764 116.967H166.604C166.583 117.527 166.433 117.978 166.153 118.32C165.883 118.652 165.525 118.817 165.08 118.817ZM173.751 128.397C172.932 128.397 172.196 128.216 171.543 127.853C170.89 127.49 170.376 126.993 170.003 126.36C169.64 125.717 169.459 124.992 169.459 124.183C169.459 123.374 169.64 122.654 170.003 122.021C170.376 121.378 170.89 120.881 171.543 120.528C172.196 120.165 172.932 119.984 173.751 119.984C174.57 119.984 175.301 120.165 175.944 120.528C176.597 120.881 177.105 121.378 177.468 122.021C177.841 122.654 178.028 123.374 178.028 124.183C178.028 124.992 177.841 125.717 177.468 126.36C177.105 126.993 176.597 127.49 175.944 127.853C175.301 128.216 174.57 128.397 173.751 128.397ZM173.751 127.091C174.28 127.091 174.752 126.972 175.166 126.733C175.591 126.485 175.923 126.142 176.162 125.707C176.4 125.261 176.519 124.753 176.519 124.183C176.519 123.613 176.4 123.11 176.162 122.674C175.923 122.228 175.591 121.886 175.166 121.648C174.752 121.409 174.28 121.29 173.751 121.29C173.222 121.29 172.745 121.409 172.32 121.648C171.906 121.886 171.574 122.228 171.325 122.674C171.087 123.11 170.967 123.613 170.967 124.183C170.967 124.753 171.087 125.261 171.325 125.707C171.574 126.142 171.906 126.485 172.32 126.733C172.745 126.972 173.222 127.091 173.751 127.091ZM186.633 128.397C185.959 128.397 185.311 128.309 184.689 128.133C184.067 127.946 183.58 127.713 183.227 127.433L183.85 126.251C184.212 126.51 184.653 126.718 185.171 126.873C185.69 127.029 186.213 127.107 186.742 127.107C188.049 127.107 188.702 126.733 188.702 125.987C188.702 125.738 188.614 125.541 188.437 125.396C188.261 125.251 188.038 125.147 187.769 125.085C187.509 125.012 187.136 124.935 186.649 124.852C185.985 124.748 185.441 124.629 185.016 124.494C184.601 124.359 184.243 124.131 183.943 123.81C183.642 123.488 183.492 123.037 183.492 122.457C183.492 121.71 183.803 121.114 184.425 120.668C185.047 120.212 185.882 119.984 186.929 119.984C187.478 119.984 188.028 120.051 188.577 120.186C189.127 120.321 189.578 120.502 189.93 120.73L189.293 121.912C188.619 121.477 187.826 121.259 186.913 121.259C186.281 121.259 185.799 121.363 185.467 121.57C185.135 121.777 184.969 122.052 184.969 122.394C184.969 122.664 185.063 122.876 185.249 123.032C185.436 123.188 185.664 123.302 185.934 123.374C186.213 123.447 186.602 123.53 187.1 123.623C187.763 123.737 188.297 123.861 188.702 123.996C189.116 124.121 189.469 124.338 189.759 124.649C190.05 124.96 190.195 125.396 190.195 125.956C190.195 126.702 189.873 127.298 189.231 127.744C188.598 128.18 187.732 128.397 186.633 128.397ZM199.51 124.229C199.51 124.344 199.499 124.494 199.479 124.681H192.791C192.885 125.406 193.201 125.992 193.74 126.438C194.289 126.873 194.969 127.091 195.777 127.091C196.762 127.091 197.555 126.759 198.157 126.096L198.981 127.06C198.608 127.495 198.141 127.827 197.581 128.055C197.032 128.283 196.415 128.397 195.731 128.397C194.86 128.397 194.087 128.221 193.413 127.869C192.739 127.506 192.216 127.003 191.843 126.36C191.48 125.717 191.298 124.992 191.298 124.183C191.298 123.384 191.475 122.664 191.827 122.021C192.19 121.378 192.682 120.881 193.305 120.528C193.937 120.165 194.647 119.984 195.435 119.984C196.223 119.984 196.923 120.165 197.535 120.528C198.157 120.881 198.639 121.378 198.981 122.021C199.333 122.664 199.51 123.4 199.51 124.229ZM195.435 121.244C194.72 121.244 194.118 121.461 193.631 121.897C193.154 122.332 192.874 122.902 192.791 123.607H198.079C197.996 122.913 197.711 122.348 197.224 121.912C196.747 121.466 196.151 121.244 195.435 121.244ZM206.612 128.304L204.232 125.147L201.822 128.304H200.158L203.408 124.09L200.313 120.062H201.977L204.248 123.032L206.503 120.062H208.136L205.026 124.09L208.307 128.304H206.612ZM217.467 120.062V128.304H216.052V127.06C215.751 127.485 215.352 127.817 214.854 128.055C214.367 128.283 213.833 128.397 213.253 128.397C212.154 128.397 211.288 128.097 210.655 127.495C210.023 126.884 209.707 125.987 209.707 124.805V120.062H211.2V124.634C211.2 125.432 211.391 126.039 211.775 126.453C212.159 126.858 212.708 127.06 213.424 127.06C214.212 127.06 214.834 126.821 215.29 126.345C215.746 125.868 215.974 125.194 215.974 124.323V120.062H217.467ZM223.311 119.984C224.451 119.984 225.322 120.264 225.924 120.824C226.535 121.383 226.841 122.218 226.841 123.327V128.304H225.426V127.215C225.177 127.599 224.819 127.895 224.353 128.102C223.897 128.299 223.352 128.397 222.72 128.397C221.797 128.397 221.056 128.175 220.496 127.729C219.946 127.283 219.672 126.697 219.672 125.971C219.672 125.246 219.936 124.665 220.465 124.229C220.994 123.784 221.833 123.561 222.984 123.561H225.348V123.265C225.348 122.622 225.161 122.13 224.788 121.788C224.415 121.446 223.865 121.275 223.14 121.275C222.652 121.275 222.175 121.358 221.709 121.523C221.242 121.679 220.848 121.892 220.527 122.161L219.905 121.041C220.33 120.699 220.838 120.44 221.429 120.264C222.02 120.077 222.647 119.984 223.311 119.984ZM222.969 127.247C223.539 127.247 224.031 127.122 224.446 126.873C224.861 126.614 225.161 126.251 225.348 125.785V124.634H223.046C221.781 124.634 221.149 125.059 221.149 125.909C221.149 126.324 221.31 126.65 221.631 126.889C221.953 127.127 222.398 127.247 222.969 127.247ZM229.604 116.765H231.097V128.304H229.604V116.765ZM236.078 124.867C236.078 124.452 236.146 124.09 236.281 123.778C236.426 123.457 236.597 123.188 236.794 122.97C237.001 122.752 237.271 122.493 237.602 122.192C238.017 121.829 238.323 121.518 238.52 121.259C238.717 120.989 238.815 120.668 238.815 120.295C238.815 119.787 238.618 119.382 238.225 119.082C237.831 118.771 237.286 118.615 236.592 118.615C235.378 118.615 234.451 119.025 233.808 119.844L232.672 119.035C233.108 118.475 233.663 118.045 234.337 117.744C235.021 117.444 235.809 117.293 236.7 117.293C237.831 117.293 238.727 117.542 239.391 118.04C240.054 118.527 240.386 119.201 240.386 120.062C240.386 120.487 240.314 120.865 240.169 121.197C240.034 121.518 239.868 121.788 239.671 122.006C239.474 122.223 239.209 122.482 238.878 122.783C238.453 123.167 238.136 123.504 237.929 123.794C237.732 124.084 237.634 124.442 237.634 124.867H236.078ZM236.871 128.397C236.581 128.397 236.338 128.304 236.141 128.117C235.954 127.921 235.861 127.682 235.861 127.402C235.861 127.122 235.954 126.889 236.141 126.702C236.338 126.505 236.581 126.407 236.871 126.407C237.162 126.407 237.4 126.505 237.587 126.702C237.773 126.889 237.867 127.122 237.867 127.402C237.867 127.682 237.768 127.921 237.571 128.117C237.385 128.304 237.151 128.397 236.871 128.397Z" fill="black"/>
<path d="M144.204 60.7907C144.444 59.4375 144.498 56.4094 143.595 54.4319C142.699 55.5319 141.671 56.4322 140.296 56.8081C139.082 57.1402 137.78 57.203 136.638 57.7683C136.103 58.0328 135.611 58.3926 135.172 58.9008C134.461 59.722 134.045 60.7926 134.061 61.8813C134.077 63.0232 134.575 64.1233 135.355 64.9495C135.091 64.3526 135.13 63.6371 135.524 63.0575C136.131 62.1667 138.367 61.553 138.737 61.8052C139.159 62.0925 139.356 64.3622 138.751 65.2528C138.365 65.8191 137.735 66.1179 137.098 66.1055C137.482 66.2481 137.885 66.3427 138.291 66.3874C139.993 66.574 143.25 66.1678 144.204 60.7907Z" fill="#C23334"/>
<path d="M143.594 54.4319C142.821 55.3826 141.947 56.1829 140.837 56.6263C141.87 58.994 141.986 63.1184 140.701 64.7857C139.3 66.6026 137.098 66.1063 137.098 66.1063C137.481 66.2495 137.884 66.3434 138.29 66.3881C139.994 66.5741 143.25 66.1685 144.204 60.7917C144.445 59.4375 144.498 56.4094 143.594 54.4319Z" fill="#C23334"/>
<path d="M135.342 64.9198C135.307 64.8388 135.279 64.7552 135.256 64.6705C135.254 64.6648 135.252 64.6582 135.25 64.6525C135.221 64.5411 135.202 64.4279 135.193 64.3137C135.191 64.307 135.191 64.3003 135.191 64.2928C135.16 63.8702 135.266 63.4353 135.522 63.0584C136.102 62.2068 138.168 61.6091 138.674 61.7775C140.295 61.3389 141.958 60.962 142.969 59.4755C144.57 57.1231 143.829 54.9886 143.636 54.5251C143.622 54.4938 143.609 54.4633 143.595 54.4319C142.699 55.532 141.67 56.4322 140.295 56.8081C139.081 57.1403 137.779 57.2031 136.637 57.7683C136.102 58.0329 135.61 58.3926 135.171 58.9008C134.46 59.722 134.045 60.7927 134.06 61.8813C134.076 63.0233 134.575 64.1234 135.354 64.9496C135.354 64.9502 135.349 64.9392 135.342 64.9198Z" fill="#C23334"/>
<path d="M136.638 57.7683C136.103 58.0329 135.611 58.3926 135.171 58.9008C134.461 59.722 134.045 60.7927 134.06 61.8813C134.075 62.9738 134.534 64.0272 135.255 64.8401C134.964 64.4821 134.207 63.2516 135.462 61.2532C136.971 58.8494 139.621 60.0027 141.342 58.7352C143.293 57.3001 143.595 54.4319 143.595 54.4319C142.7 55.532 141.671 56.4322 140.296 56.8081C139.081 57.1403 137.779 57.2031 136.638 57.7683Z" fill="#C23334"/>
<path d="M131.076 57.991C130.238 57.4533 128.226 56.5721 126.65 56.6264C127.137 57.5323 127.453 58.4726 127.321 59.4975C127.205 60.4025 126.884 61.2923 126.945 62.2135C126.973 62.6455 127.076 63.0747 127.294 63.5115C127.646 64.2157 128.246 64.7924 128.979 65.0863C129.748 65.3941 130.623 65.3663 131.393 65.0753C130.921 65.0863 130.452 64.8602 130.174 64.4346C129.747 63.7798 129.96 62.1126 130.231 61.9346C130.542 61.7319 132.116 62.2325 132.543 62.8872C132.814 63.3031 132.839 63.8084 132.653 64.2309C132.856 64.0139 133.031 63.7703 133.174 63.5115C133.773 62.4219 134.409 60.1294 131.076 57.991Z" fill="#C23334"/>
<path d="M126.65 56.6264C127.071 57.4096 127.363 58.2175 127.35 59.0845C129.223 59.0531 132.016 60.1256 132.773 61.4512C133.598 62.8958 132.652 64.2309 132.652 64.2309C132.855 64.0139 133.03 63.7703 133.173 63.5115C133.773 62.4238 134.408 60.1303 131.076 57.992C130.238 57.4533 128.226 56.5721 126.65 56.6264Z" fill="#C23334"/>
<path d="M131.37 65.0747C131.306 65.0747 131.242 65.0708 131.179 65.0636C131.173 65.0623 131.169 65.0623 131.165 65.0617C131.082 65.05 131.001 65.0312 130.923 65.0053C130.917 65.0034 130.913 65.0027 130.908 65.0008C130.617 64.9023 130.355 64.7113 130.174 64.4344C129.766 63.8091 129.942 62.2589 130.196 61.9677C130.354 60.7601 130.566 59.5429 129.853 58.4514C128.725 56.7242 127.089 56.6243 126.725 56.6253C126.7 56.6262 126.675 56.6262 126.65 56.6271C127.137 57.5331 127.453 58.4733 127.321 59.4982C127.205 60.4032 126.884 61.293 126.945 62.2142C126.973 62.6462 127.076 63.0754 127.294 63.5122C127.646 64.2164 128.246 64.7931 128.979 65.087C129.748 65.3948 130.623 65.3669 131.393 65.0759C131.392 65.0747 131.384 65.0759 131.37 65.0747Z" fill="#C23334"/>
<path d="M126.943 62.2143C126.972 62.6463 127.075 63.0754 127.293 63.5123C127.645 64.2165 128.245 64.7932 128.978 65.0875C129.713 65.381 130.546 65.3687 131.291 65.1121C130.971 65.2074 129.936 65.3707 128.949 63.9738C127.76 62.2932 129.272 60.841 128.903 59.3355C128.486 57.6293 126.65 56.6272 126.65 56.6272C127.137 57.5332 127.453 58.4734 127.321 59.4983C127.204 60.4033 126.884 61.2921 126.943 62.2143Z" fill="#C23334"/>
<path d="M119.484 85.2439C116.559 85.264 113.998 83.287 113.242 80.4273C112.497 77.6066 113.785 74.6128 116.358 73.1872C118.889 71.7863 122.091 72.2774 124.088 74.3692C124.442 74.7392 124.742 75.0302 124.258 75.592C123.793 76.1305 124.227 76.9223 124.95 76.864C125.538 76.8167 125.666 77.0888 125.752 77.5321C126.535 81.5037 123.518 85.2174 119.484 85.2439ZM119.207 74.5079C119.131 74.6543 119.226 74.6964 119.271 74.7373C119.317 74.7781 119.661 74.839 120.032 74.7172C120.403 74.5953 120.752 74.2681 120.833 73.961C120.962 73.4737 120.585 73.1451 120.079 73.0926C118.523 72.9339 117.096 73.2948 115.901 74.3148C115.858 74.3517 115.822 74.3964 115.79 74.447C115.508 74.9044 115.913 75.4462 116.447 75.3814C116.506 75.3736 116.564 75.3632 116.621 75.3483C117.494 75.1092 118.345 74.7923 119.207 74.5079Z" fill="#C23334"/>
<path d="M137.345 80.2732C137.059 79.9181 136.842 79.6194 136.288 80.0004C135.694 80.4073 134.94 79.9136 135.071 79.2111C135.201 78.5223 134.862 78.3746 134.351 78.2061C130.2 76.8369 125.942 79.909 125.937 84.2856C125.937 87.1452 127.722 89.5752 130.451 90.4332C133.124 91.2698 136.101 90.2291 137.656 87.9112C139.229 85.5719 139.104 82.4608 137.345 80.2732ZM133.611 80.2246C133.529 80.5324 133.182 80.8616 132.811 80.9834C132.437 81.1039 132.096 81.0443 132.052 81.0048C132.004 80.9614 131.909 80.9186 131.988 80.776C131.125 81.0573 130.272 81.378 129.401 81.612C129.344 81.6295 129.283 81.6379 129.228 81.6463C128.69 81.7111 128.287 81.17 128.569 80.7151C128.599 80.6626 128.639 80.6199 128.681 80.581C129.872 79.5585 131.302 79.1988 132.858 79.3589C133.365 79.4101 133.742 79.7393 133.611 80.2246Z" fill="#C23334"/>
<path d="M136.533 73.789C136.525 71.0382 135.767 68.4617 134.699 65.9592C134.629 65.7933 134.525 65.6319 134.505 65.4596C134.491 65.3338 134.554 65.133 134.648 65.0798C134.745 65.0247 134.946 65.0682 135.054 65.1407C135.174 65.2198 135.262 65.3688 135.329 65.5062C137.087 69.1538 138.072 72.9336 137.197 77.003C137.037 77.7508 136.767 78.4857 136.454 79.1848C136.344 79.4324 135.956 79.5549 135.694 79.735C135.644 79.4291 135.463 79.0669 135.565 78.8272C136.256 77.211 136.536 75.5288 136.533 73.789Z" fill="#C23334"/>
<path d="M133.067 66.0068C133.053 67.4985 132.498 68.8146 131.739 70.0588C130.168 72.6371 128.017 74.6401 125.493 76.253C125.274 76.393 124.88 76.2601 124.567 76.253C124.707 75.9698 124.771 75.5719 125 75.4184C127.286 73.8845 129.355 72.1317 130.826 69.7672C131.634 68.4686 132.263 67.0987 132.362 65.5318C132.376 65.2895 132.569 65.0581 132.678 64.8223C132.807 65.0627 132.959 65.294 133.056 65.5474C133.108 65.6815 133.065 65.8519 133.067 66.0068Z" fill="#C23334"/>
<path d="M57.0664 389.588C56.421 389.588 55.7951 389.503 55.1885 389.331C54.5898 389.153 54.1077 388.923 53.7422 388.643L54.3837 387.22C54.7336 387.477 55.1496 387.683 55.6318 387.838C56.1139 387.994 56.596 388.072 57.0781 388.072C57.6146 388.072 58.0112 387.994 58.2678 387.838C58.5244 387.675 58.6527 387.461 58.6527 387.197C58.6527 387.003 58.575 386.843 58.4195 386.719C58.2717 386.587 58.0773 386.482 57.8363 386.404C57.603 386.326 57.2842 386.241 56.8798 386.147C56.2577 385.999 55.7484 385.852 55.3518 385.704C54.9552 385.556 54.6131 385.319 54.3254 384.992C54.0455 384.666 53.9055 384.23 53.9055 383.686C53.9055 383.212 54.0338 382.784 54.2904 382.403C54.547 382.014 54.9319 381.707 55.4451 381.482C55.9661 381.256 56.5999 381.143 57.3464 381.143C57.8674 381.143 58.3767 381.206 58.8744 381.33C59.372 381.454 59.8075 381.633 60.1807 381.867L59.5975 383.301C58.8432 382.874 58.089 382.66 57.3347 382.66C56.8059 382.66 56.4132 382.745 56.1566 382.916C55.9078 383.087 55.7834 383.313 55.7834 383.593C55.7834 383.873 55.9272 384.083 56.215 384.223C56.5104 384.355 56.9576 384.487 57.5563 384.619C58.1784 384.767 58.6877 384.915 59.0843 385.062C59.4809 385.21 59.8191 385.444 60.0991 385.762C60.3868 386.081 60.5306 386.513 60.5306 387.057C60.5306 387.524 60.3984 387.951 60.1341 388.34C59.8775 388.721 59.4887 389.024 58.9677 389.25C58.4467 389.475 57.8129 389.588 57.0664 389.588ZM68.0154 383.173V389.448H66.2891V388.702C66.048 388.974 65.7603 389.184 65.426 389.331C65.0916 389.471 64.73 389.541 64.3412 389.541C63.5169 389.541 62.8638 389.304 62.3816 388.83C61.8995 388.356 61.6585 387.652 61.6585 386.719V383.173H63.4781V386.451C63.4781 387.461 63.9019 387.967 64.7494 387.967C65.1849 387.967 65.5348 387.827 65.7992 387.547C66.0636 387.259 66.1958 386.835 66.1958 386.276V383.173H68.0154ZM76.1747 383.173V388.398C76.1747 389.549 75.8753 390.405 75.2765 390.964C74.6777 391.524 73.8029 391.804 72.6521 391.804C72.0455 391.804 71.4701 391.73 70.9258 391.583C70.3815 391.435 69.9305 391.221 69.5728 390.941L70.2959 389.635C70.5603 389.853 70.8947 390.024 71.299 390.148C71.7034 390.28 72.1077 390.346 72.5121 390.346C73.1419 390.346 73.6046 390.202 73.9001 389.915C74.2034 389.635 74.355 389.207 74.355 388.632V388.363C73.8807 388.884 73.2197 389.145 72.3721 389.145C71.7967 389.145 71.2679 389.02 70.7858 388.772C70.3115 388.515 69.9343 388.157 69.6544 387.699C69.3745 387.24 69.2345 386.711 69.2345 386.112C69.2345 385.513 69.3745 384.985 69.6544 384.526C69.9343 384.067 70.3115 383.713 70.7858 383.464C71.2679 383.208 71.7967 383.08 72.3721 383.08C73.2819 383.08 73.974 383.379 74.4483 383.978V383.173H76.1747ZM72.7337 387.652C73.2158 387.652 73.6085 387.512 73.9118 387.232C74.2228 386.944 74.3783 386.571 74.3783 386.112C74.3783 385.653 74.2228 385.284 73.9118 385.004C73.6085 384.716 73.2158 384.573 72.7337 384.573C72.2516 384.573 71.855 384.716 71.544 385.004C71.2329 385.284 71.0774 385.653 71.0774 386.112C71.0774 386.571 71.2329 386.944 71.544 387.232C71.855 387.512 72.2516 387.652 72.7337 387.652ZM84.0148 386.334C84.0148 386.357 84.0031 386.52 83.9798 386.824H79.2326C79.3181 387.213 79.5203 387.52 79.8391 387.745C80.1579 387.971 80.5545 388.083 81.0288 388.083C81.3554 388.083 81.6431 388.037 81.892 387.943C82.1486 387.842 82.3857 387.687 82.6035 387.477L83.5716 388.527C82.9806 389.203 82.1175 389.541 80.9822 389.541C80.2745 389.541 79.6486 389.405 79.1043 389.133C78.5599 388.853 78.14 388.468 77.8445 387.978C77.5491 387.489 77.4013 386.933 77.4013 386.311C77.4013 385.696 77.5452 385.144 77.8329 384.654C78.1284 384.157 78.5288 383.772 79.0343 383.499C79.5475 383.22 80.119 383.08 80.7489 383.08C81.3632 383.08 81.9192 383.212 82.4168 383.476C82.9145 383.741 83.3033 384.122 83.5832 384.619C83.8709 385.109 84.0148 385.681 84.0148 386.334ZM80.7605 384.456C80.3484 384.456 80.0024 384.573 79.7225 384.806C79.4425 385.039 79.2714 385.358 79.2092 385.762H82.3002C82.238 385.366 82.0669 385.051 81.787 384.818C81.507 384.576 81.1649 384.456 80.7605 384.456ZM86.9645 384.001C87.1822 383.698 87.4738 383.468 87.8393 383.313C88.2126 383.157 88.6402 383.08 89.1223 383.08V384.759C88.9202 384.744 88.7841 384.736 88.7141 384.736C88.1931 384.736 87.7849 384.884 87.4894 385.179C87.1939 385.467 87.0462 385.902 87.0462 386.485V389.448H85.2266V383.173H86.9645V384.001ZM90.2045 383.173H92.0241V389.448H90.2045V383.173ZM91.1143 382.298C90.7799 382.298 90.5078 382.201 90.2978 382.006C90.0879 381.812 89.9829 381.571 89.9829 381.283C89.9829 380.996 90.0879 380.755 90.2978 380.56C90.5078 380.366 90.7799 380.269 91.1143 380.269C91.4487 380.269 91.7208 380.362 91.9308 380.548C92.1407 380.735 92.2457 380.968 92.2457 381.248C92.2457 381.552 92.1407 381.804 91.9308 382.006C91.7208 382.201 91.4487 382.298 91.1143 382.298ZM95.4507 384.001C95.6684 383.698 95.96 383.468 96.3255 383.313C96.6988 383.157 97.1264 383.08 97.6086 383.08V384.759C97.4064 384.744 97.2703 384.736 97.2003 384.736C96.6793 384.736 96.2711 384.884 95.9756 385.179C95.6801 385.467 95.5324 385.902 95.5324 386.485V389.448H93.7128V383.173H95.4507V384.001ZM99.4923 385.354C99.1735 385.354 98.9052 385.245 98.6875 385.027C98.4697 384.81 98.3609 384.538 98.3609 384.211C98.3609 383.877 98.4697 383.608 98.6875 383.406C98.9052 383.196 99.1735 383.091 99.4923 383.091C99.8111 383.091 100.079 383.196 100.297 383.406C100.515 383.608 100.624 383.877 100.624 384.211C100.624 384.538 100.515 384.81 100.297 385.027C100.079 385.245 99.8111 385.354 99.4923 385.354ZM99.4923 389.541C99.1735 389.541 98.9052 389.433 98.6875 389.215C98.4697 388.997 98.3609 388.725 98.3609 388.398C98.3609 388.064 98.4697 387.796 98.6875 387.594C98.9052 387.384 99.1735 387.279 99.4923 387.279C99.8111 387.279 100.079 387.384 100.297 387.594C100.515 387.796 100.624 388.064 100.624 388.398C100.624 388.725 100.515 388.997 100.297 389.215C100.079 389.433 99.8111 389.541 99.4923 389.541Z" fill="#C23334"/>
<path d="M106.228 389.286H204.4" stroke="#C23334" stroke-width="2"/>
<g filter="url(#filter1_d)">
<path d="M195.652 493.128C206.567 493.128 215.416 484.279 215.416 473.364C215.416 462.449 206.567 453.6 195.652 453.6C184.736 453.6 175.888 462.449 175.888 473.364C175.888 484.279 184.736 493.128 195.652 493.128Z" fill="#C23334"/>
</g>
<path d="M205.736 474.375C206.115 473.996 206.115 473.38 205.736 473L199.55 466.815C199.17 466.436 198.555 466.436 198.175 466.815C197.796 467.194 197.796 467.81 198.175 468.19L203.674 473.688L198.175 479.186C197.796 479.566 197.796 480.182 198.175 480.561C198.555 480.94 199.17 480.94 199.55 480.561L205.736 474.375ZM185.608 474.66H205.048V472.716H185.608V474.66Z" fill="#FFFEFE"/>
<path d="M67.0245 292.896C67.0245 289.317 64.1233 286.416 60.5445 286.416C56.9656 286.416 54.0645 289.317 54.0645 292.896C54.0645 296.475 56.9656 299.376 60.5445 299.376C64.1233 299.376 67.0245 296.475 67.0245 292.896Z" fill="white" stroke="#C4C4C4" stroke-width="2"/>
<path d="M67.0245 268.272C67.0245 264.693 64.1233 261.792 60.5445 261.792C56.9656 261.792 54.0645 264.693 54.0645 268.272C54.0645 271.851 56.9656 274.752 60.5445 274.752C64.1233 274.752 67.0245 271.851 67.0245 268.272Z" fill="white" stroke="#C4C4C4" stroke-width="2"/>
<path d="M67.0245 245.592C67.0245 242.013 64.1233 239.112 60.5445 239.112C56.9656 239.112 54.0645 242.013 54.0645 245.592C54.0645 249.171 56.9656 252.072 60.5445 252.072C64.1233 252.072 67.0245 249.171 67.0245 245.592Z" fill="white" stroke="#C4C4C4" stroke-width="2"/>
<path d="M67.0245 220.968C67.0245 217.389 64.1233 214.488 60.5445 214.488C56.9656 214.488 54.0645 217.389 54.0645 220.968C54.0645 224.547 56.9656 227.448 60.5445 227.448C64.1233 227.448 67.0245 224.547 67.0245 220.968Z" fill="white" stroke="#C4C4C4" stroke-width="2"/>
<path d="M67.0245 170.424C67.0245 166.845 64.1233 163.944 60.5445 163.944C56.9656 163.944 54.0645 166.845 54.0645 170.424C54.0645 174.003 56.9656 176.904 60.5445 176.904C64.1233 176.904 67.0245 174.003 67.0245 170.424Z" fill="white" stroke="#C4C4C4" stroke-width="2"/>
<path d="M88.2734 172.562H84.4826L83.7595 174.312H81.8232L85.4624 166.147H87.3287L90.9795 174.312H88.9966L88.2734 172.562ZM87.6786 171.127L86.3839 168.001L85.0892 171.127H87.6786ZM93.7523 174.405C93.2313 174.405 92.722 174.343 92.2243 174.218C91.7266 174.086 91.3301 173.923 91.0346 173.728L91.6411 172.422C91.921 172.601 92.2593 172.749 92.6559 172.865C93.0524 172.974 93.4412 173.029 93.8223 173.029C94.5921 173.029 94.977 172.838 94.977 172.457C94.977 172.278 94.872 172.15 94.6621 172.072C94.4521 171.994 94.1294 171.928 93.694 171.874C93.1807 171.796 92.7569 171.707 92.4226 171.606C92.0882 171.505 91.7966 171.326 91.5478 171.069C91.3067 170.812 91.1862 170.447 91.1862 169.973C91.1862 169.576 91.2989 169.226 91.5245 168.923C91.7577 168.612 92.0921 168.371 92.5276 168.2C92.9708 168.029 93.4918 167.943 94.0905 167.943C94.5338 167.943 94.9731 167.994 95.4086 168.095C95.8518 168.188 96.2173 168.32 96.505 168.491L95.8985 169.786C95.3464 169.475 94.7437 169.319 94.0905 169.319C93.7017 169.319 93.4101 169.374 93.2157 169.483C93.0213 169.592 92.9241 169.732 92.9241 169.903C92.9241 170.097 93.0291 170.233 93.2391 170.311C93.449 170.389 93.7834 170.463 94.2422 170.533C94.7554 170.618 95.1753 170.711 95.5019 170.812C95.8285 170.906 96.1123 171.081 96.3533 171.337C96.5944 171.594 96.7149 171.952 96.7149 172.41C96.7149 172.799 96.5983 173.145 96.365 173.449C96.1317 173.752 95.7896 173.989 95.3386 174.16C94.8954 174.323 94.3666 174.405 93.7523 174.405ZM99.9491 174.405C99.4281 174.405 98.9188 174.343 98.4211 174.218C97.9234 174.086 97.5269 173.923 97.2314 173.728L97.8379 172.422C98.1179 172.601 98.4561 172.749 98.8527 172.865C99.2493 172.974 99.6381 173.029 100.019 173.029C100.789 173.029 101.174 172.838 101.174 172.457C101.174 172.278 101.069 172.15 100.859 172.072C100.649 171.994 100.326 171.928 99.8908 171.874C99.3776 171.796 98.9538 171.707 98.6194 171.606C98.285 171.505 97.9934 171.326 97.7446 171.069C97.5036 170.812 97.383 170.447 97.383 169.973C97.383 169.576 97.4958 169.226 97.7213 168.923C97.9546 168.612 98.2889 168.371 98.7244 168.2C99.1676 168.029 99.6886 167.943 100.287 167.943C100.731 167.943 101.17 167.994 101.605 168.095C102.049 168.188 102.414 168.32 102.702 168.491L102.095 169.786C101.543 169.475 100.941 169.319 100.287 169.319C99.8986 169.319 99.607 169.374 99.4126 169.483C99.2182 169.592 99.121 169.732 99.121 169.903C99.121 170.097 99.2259 170.233 99.4359 170.311C99.6458 170.389 99.9802 170.463 100.439 170.533C100.952 170.618 101.372 170.711 101.699 170.812C102.025 170.906 102.309 171.081 102.55 171.337C102.791 171.594 102.912 171.952 102.912 172.41C102.912 172.799 102.795 173.145 102.562 173.449C102.329 173.752 101.986 173.989 101.535 174.16C101.092 174.323 100.563 174.405 99.9491 174.405ZM110.181 171.197C110.181 171.221 110.169 171.384 110.146 171.687H105.399C105.484 172.076 105.686 172.383 106.005 172.609C106.324 172.834 106.721 172.947 107.195 172.947C107.522 172.947 107.809 172.9 108.058 172.807C108.315 172.706 108.552 172.55 108.77 172.34L109.738 173.39C109.147 174.067 108.284 174.405 107.148 174.405C106.441 174.405 105.815 174.269 105.27 173.997C104.726 173.717 104.306 173.332 104.011 172.842C103.715 172.352 103.568 171.796 103.568 171.174C103.568 170.56 103.711 170.008 103.999 169.518C104.295 169.02 104.695 168.635 105.2 168.363C105.714 168.083 106.285 167.943 106.915 167.943C107.529 167.943 108.085 168.075 108.583 168.34C109.081 168.604 109.47 168.985 109.749 169.483C110.037 169.973 110.181 170.544 110.181 171.197ZM106.927 169.319C106.515 169.319 106.169 169.436 105.889 169.669C105.609 169.903 105.438 170.222 105.375 170.626H108.466C108.404 170.229 108.233 169.914 107.953 169.681C107.673 169.44 107.331 169.319 106.927 169.319ZM115.211 174.312L113.834 172.387L112.411 174.312H110.429L112.843 171.151L110.51 168.036H112.551L113.881 169.868L115.246 168.036H117.182L114.849 171.104L117.275 174.312H115.211ZM124.366 168.036V174.312H122.64V173.565C122.399 173.837 122.111 174.047 121.777 174.195C121.443 174.335 121.081 174.405 120.692 174.405C119.868 174.405 119.215 174.168 118.733 173.693C118.251 173.219 118.01 172.515 118.01 171.582V168.036H119.829V171.314C119.829 172.325 120.253 172.83 121.1 172.83C121.536 172.83 121.886 172.69 122.15 172.41C122.415 172.123 122.547 171.699 122.547 171.139V168.036H124.366ZM128.584 167.943C129.556 167.943 130.302 168.176 130.823 168.643C131.344 169.102 131.605 169.798 131.605 170.731V174.312H129.902V173.53C129.559 174.113 128.922 174.405 127.989 174.405C127.507 174.405 127.087 174.323 126.729 174.16C126.379 173.997 126.111 173.771 125.924 173.484C125.738 173.196 125.644 172.869 125.644 172.504C125.644 171.921 125.862 171.462 126.297 171.127C126.741 170.793 127.421 170.626 128.339 170.626H129.785C129.785 170.229 129.664 169.926 129.423 169.716C129.182 169.498 128.821 169.389 128.339 169.389C128.004 169.389 127.674 169.444 127.347 169.553C127.028 169.654 126.756 169.794 126.531 169.973L125.878 168.701C126.22 168.46 126.628 168.274 127.102 168.141C127.584 168.009 128.078 167.943 128.584 167.943ZM128.444 173.18C128.755 173.18 129.031 173.11 129.272 172.97C129.513 172.823 129.684 172.609 129.785 172.329V171.687H128.537C127.79 171.687 127.417 171.932 127.417 172.422C127.417 172.655 127.507 172.842 127.685 172.982C127.872 173.114 128.125 173.18 128.444 173.18ZM133.251 165.657H135.071V174.312H133.251V165.657Z" fill="#C4C4C4"/>
<path d="M88.4131 220.645H90.1394V223.957C89.6961 224.292 89.1829 224.548 88.5997 224.727C88.0165 224.906 87.4294 224.996 86.8385 224.996C85.9909 224.996 85.2288 224.817 84.5523 224.459C83.8758 224.094 83.3431 223.592 82.9543 222.954C82.5733 222.309 82.3828 221.582 82.3828 220.773C82.3828 219.964 82.5733 219.241 82.9543 218.604C83.3431 217.958 83.8797 217.457 84.564 217.099C85.2483 216.734 86.0181 216.551 86.8735 216.551C87.5888 216.551 88.2381 216.671 88.8213 216.912C89.4045 217.153 89.8944 217.503 90.291 217.962L89.0779 219.082C88.4947 218.468 87.791 218.16 86.9668 218.16C86.4458 218.16 85.9831 218.269 85.5787 218.487C85.1744 218.705 84.8595 219.012 84.634 219.408C84.4085 219.805 84.2957 220.26 84.2957 220.773C84.2957 221.279 84.4085 221.73 84.634 222.126C84.8595 222.523 85.1705 222.834 85.5671 223.059C85.9714 223.277 86.4302 223.386 86.9434 223.386C87.4878 223.386 87.9776 223.269 88.4131 223.036V220.645ZM94.2976 218.487C95.2696 218.487 96.0161 218.72 96.5371 219.187C97.0581 219.646 97.3186 220.342 97.3186 221.275V224.856H95.6156V224.074C95.2735 224.657 94.6358 224.949 93.7027 224.949C93.2206 224.949 92.8007 224.867 92.443 224.704C92.0931 224.541 91.8248 224.315 91.6382 224.027C91.4516 223.74 91.3583 223.413 91.3583 223.048C91.3583 222.464 91.576 222.006 92.0114 221.671C92.4547 221.337 93.1351 221.17 94.0526 221.17H95.499C95.499 220.773 95.3784 220.47 95.1374 220.26C94.8963 220.042 94.5348 219.933 94.0526 219.933C93.7183 219.933 93.3878 219.988 93.0612 220.097C92.7424 220.198 92.4702 220.338 92.2447 220.517L91.5915 219.245C91.9337 219.004 92.3419 218.817 92.8163 218.685C93.2984 218.553 93.7921 218.487 94.2976 218.487ZM94.1576 223.724C94.4687 223.724 94.7447 223.654 94.9858 223.514C95.2268 223.366 95.3979 223.153 95.499 222.873V222.231H94.2509C93.5044 222.231 93.1312 222.476 93.1312 222.966C93.1312 223.199 93.2206 223.386 93.3995 223.526C93.5861 223.658 93.8388 223.724 94.1576 223.724ZM105.08 218.58L102.245 225.24C101.958 225.964 101.6 226.473 101.172 226.768C100.752 227.064 100.243 227.212 99.6442 227.212C99.3176 227.212 98.9949 227.161 98.6761 227.06C98.3573 226.959 98.0968 226.819 97.8946 226.64L98.5595 225.345C98.6995 225.47 98.8589 225.567 99.0377 225.637C99.2243 225.707 99.4071 225.742 99.5859 225.742C99.8347 225.742 100.037 225.68 100.192 225.555C100.348 225.439 100.488 225.24 100.612 224.961L100.636 224.902L97.918 218.58H99.7959L101.557 222.838L103.33 218.58H105.08Z" fill="#C4C4C4"/>
<path d="M90.3848 241.315V249.48H88.4952V246.132H84.7861V249.48H82.8965V241.315H84.7861V244.534H88.4952V241.315H90.3848ZM98.3351 246.366C98.3351 246.389 98.3234 246.552 98.3001 246.855H93.5528C93.6384 247.244 93.8406 247.551 94.1594 247.777C94.4782 248.002 94.8748 248.115 95.3491 248.115C95.6757 248.115 95.9634 248.069 96.2122 247.975C96.4688 247.874 96.706 247.719 96.9237 247.509L97.8918 248.558C97.3009 249.235 96.4377 249.573 95.3024 249.573C94.5948 249.573 93.9689 249.437 93.4245 249.165C92.8802 248.885 92.4603 248.5 92.1648 248.01C91.8693 247.52 91.7216 246.964 91.7216 246.342C91.7216 245.728 91.8654 245.176 92.1532 244.686C92.4486 244.188 92.8491 243.803 93.3546 243.531C93.8678 243.251 94.4393 243.111 95.0692 243.111C95.6835 243.111 96.2394 243.244 96.7371 243.508C97.2348 243.772 97.6236 244.153 97.9035 244.651C98.1912 245.141 98.3351 245.712 98.3351 246.366ZM95.0808 244.488C94.6687 244.488 94.3227 244.604 94.0427 244.838C93.7628 245.071 93.5917 245.39 93.5295 245.794H96.6205C96.5583 245.397 96.3872 245.083 96.1073 244.849C95.8273 244.608 95.4852 244.488 95.0808 244.488ZM103.594 249.177C103.415 249.309 103.194 249.41 102.929 249.48C102.673 249.542 102.401 249.573 102.113 249.573C101.366 249.573 100.787 249.383 100.375 249.002C99.9706 248.621 99.7685 248.061 99.7685 247.322V244.744H98.8003V243.345H99.7685V241.817H101.588V243.345H103.151V244.744H101.588V247.299C101.588 247.563 101.654 247.769 101.786 247.917C101.926 248.057 102.121 248.127 102.37 248.127C102.657 248.127 102.902 248.049 103.104 247.894L103.594 249.177ZM110.569 246.366C110.569 246.389 110.557 246.552 110.534 246.855H105.786C105.872 247.244 106.074 247.551 106.393 247.777C106.712 248.002 107.108 248.115 107.583 248.115C107.909 248.115 108.197 248.069 108.446 247.975C108.702 247.874 108.94 247.719 109.157 247.509L110.125 248.558C109.534 249.235 108.671 249.573 107.536 249.573C106.828 249.573 106.202 249.437 105.658 249.165C105.114 248.885 104.694 248.5 104.398 248.01C104.103 247.52 103.955 246.964 103.955 246.342C103.955 245.728 104.099 245.176 104.387 244.686C104.682 244.188 105.083 243.803 105.588 243.531C106.101 243.251 106.673 243.111 107.303 243.111C107.917 243.111 108.473 243.244 108.971 243.508C109.468 243.772 109.857 244.153 110.137 244.651C110.425 245.141 110.569 245.712 110.569 246.366ZM107.314 244.488C106.902 244.488 106.556 244.604 106.276 244.838C105.996 245.071 105.825 245.39 105.763 245.794H108.854C108.792 245.397 108.621 245.083 108.341 244.849C108.061 244.608 107.719 244.488 107.314 244.488ZM113.518 244.033C113.735 243.73 114.027 243.5 114.393 243.345C114.766 243.189 115.193 243.111 115.676 243.111V244.791C115.473 244.775 115.337 244.768 115.267 244.768C114.746 244.768 114.338 244.915 114.043 245.211C113.747 245.499 113.599 245.934 113.599 246.517V249.48H111.78V243.205H113.518V244.033ZM119.687 249.573C119.026 249.573 118.431 249.437 117.902 249.165C117.381 248.885 116.973 248.5 116.677 248.01C116.382 247.52 116.234 246.964 116.234 246.342C116.234 245.72 116.382 245.164 116.677 244.674C116.973 244.184 117.381 243.803 117.902 243.531C118.431 243.251 119.026 243.111 119.687 243.111C120.348 243.111 120.939 243.251 121.46 243.531C121.981 243.803 122.389 244.184 122.684 244.674C122.98 245.164 123.128 245.72 123.128 246.342C123.128 246.964 122.98 247.52 122.684 248.01C122.389 248.5 121.981 248.885 121.46 249.165C120.939 249.437 120.348 249.573 119.687 249.573ZM119.687 248.08C120.153 248.08 120.534 247.925 120.83 247.614C121.133 247.295 121.285 246.871 121.285 246.342C121.285 245.813 121.133 245.394 120.83 245.083C120.534 244.764 120.153 244.604 119.687 244.604C119.22 244.604 118.835 244.764 118.532 245.083C118.229 245.394 118.077 245.813 118.077 246.342C118.077 246.871 118.229 247.295 118.532 247.614C118.835 247.925 119.22 248.08 119.687 248.08ZM126.455 249.573C125.934 249.573 125.425 249.511 124.927 249.387C124.429 249.254 124.033 249.091 123.737 248.897L124.344 247.59C124.624 247.769 124.962 247.917 125.359 248.034C125.755 248.142 126.144 248.197 126.525 248.197C127.295 248.197 127.68 248.006 127.68 247.625C127.68 247.446 127.575 247.318 127.365 247.24C127.155 247.163 126.832 247.097 126.397 247.042C125.884 246.964 125.46 246.875 125.125 246.774C124.791 246.673 124.499 246.494 124.251 246.237C124.009 245.981 123.889 245.615 123.889 245.141C123.889 244.744 124.002 244.394 124.227 244.091C124.46 243.78 124.795 243.539 125.23 243.368C125.674 243.197 126.195 243.111 126.793 243.111C127.237 243.111 127.676 243.162 128.111 243.263C128.555 243.356 128.92 243.488 129.208 243.66L128.601 244.954C128.049 244.643 127.446 244.488 126.793 244.488C126.404 244.488 126.113 244.542 125.918 244.651C125.724 244.76 125.627 244.9 125.627 245.071C125.627 245.265 125.732 245.401 125.942 245.479C126.152 245.557 126.486 245.631 126.945 245.701C127.458 245.786 127.878 245.88 128.205 245.981C128.531 246.074 128.815 246.249 129.056 246.506C129.297 246.762 129.418 247.12 129.418 247.579C129.418 247.967 129.301 248.313 129.068 248.617C128.834 248.92 128.492 249.157 128.041 249.328C127.598 249.492 127.069 249.573 126.455 249.573ZM132.652 249.573C132.131 249.573 131.622 249.511 131.124 249.387C130.626 249.254 130.23 249.091 129.934 248.897L130.541 247.59C130.821 247.769 131.159 247.917 131.555 248.034C131.952 248.142 132.341 248.197 132.722 248.197C133.492 248.197 133.877 248.006 133.877 247.625C133.877 247.446 133.772 247.318 133.562 247.24C133.352 247.163 133.029 247.097 132.594 247.042C132.08 246.964 131.657 246.875 131.322 246.774C130.988 246.673 130.696 246.494 130.447 246.237C130.206 245.981 130.086 245.615 130.086 245.141C130.086 244.744 130.199 244.394 130.424 244.091C130.657 243.78 130.992 243.539 131.427 243.368C131.87 243.197 132.391 243.111 132.99 243.111C133.433 243.111 133.873 243.162 134.308 243.263C134.751 243.356 135.117 243.488 135.405 243.66L134.798 244.954C134.246 244.643 133.643 244.488 132.99 244.488C132.601 244.488 132.31 244.542 132.115 244.651C131.921 244.76 131.824 244.9 131.824 245.071C131.824 245.265 131.929 245.401 132.139 245.479C132.349 245.557 132.683 245.631 133.142 245.701C133.655 245.786 134.075 245.88 134.401 245.981C134.728 246.074 135.012 246.249 135.253 246.506C135.494 246.762 135.615 247.12 135.615 247.579C135.615 247.967 135.498 248.313 135.265 248.617C135.031 248.92 134.689 249.157 134.238 249.328C133.795 249.492 133.266 249.573 132.652 249.573ZM142.884 246.366C142.884 246.389 142.872 246.552 142.849 246.855H138.102C138.187 247.244 138.389 247.551 138.708 247.777C139.027 248.002 139.423 248.115 139.898 248.115C140.224 248.115 140.512 248.069 140.761 247.975C141.018 247.874 141.255 247.719 141.472 247.509L142.441 248.558C141.85 249.235 140.986 249.573 139.851 249.573C139.144 249.573 138.518 249.437 137.973 249.165C137.429 248.885 137.009 248.5 136.714 248.01C136.418 247.52 136.27 246.964 136.27 246.342C136.27 245.728 136.414 245.176 136.702 244.686C136.997 244.188 137.398 243.803 137.903 243.531C138.416 243.251 138.988 243.111 139.618 243.111C140.232 243.111 140.788 243.244 141.286 243.508C141.783 243.772 142.172 244.153 142.452 244.651C142.74 245.141 142.884 245.712 142.884 246.366ZM139.63 244.488C139.217 244.488 138.871 244.604 138.591 244.838C138.311 245.071 138.14 245.39 138.078 245.794H141.169C141.107 245.397 140.936 245.083 140.656 244.849C140.376 244.608 140.034 244.488 139.63 244.488ZM147.914 249.48L146.537 247.555L145.114 249.48H143.131L145.546 246.319L143.213 243.205H145.254L146.584 245.036L147.949 243.205H149.885L147.552 246.272L149.978 249.48H147.914ZM157.069 243.205V249.48H155.343V248.733C155.102 249.006 154.814 249.215 154.48 249.363C154.145 249.503 153.784 249.573 153.395 249.573C152.571 249.573 151.918 249.336 151.435 248.862C150.953 248.387 150.712 247.684 150.712 246.75V243.205H152.532V246.482C152.532 247.493 152.956 247.999 153.803 247.999C154.239 247.999 154.589 247.859 154.853 247.579C155.117 247.291 155.25 246.867 155.25 246.307V243.205H157.069ZM161.286 243.111C162.258 243.111 163.005 243.345 163.526 243.811C164.047 244.27 164.307 244.966 164.307 245.899V249.48H162.604V248.698C162.262 249.282 161.625 249.573 160.691 249.573C160.209 249.573 159.789 249.492 159.432 249.328C159.082 249.165 158.814 248.939 158.627 248.652C158.44 248.364 158.347 248.037 158.347 247.672C158.347 247.089 158.565 246.63 159 246.296C159.443 245.961 160.124 245.794 161.041 245.794H162.488C162.488 245.397 162.367 245.094 162.126 244.884C161.885 244.667 161.524 244.558 161.041 244.558C160.707 244.558 160.377 244.612 160.05 244.721C159.731 244.822 159.459 244.962 159.233 245.141L158.58 243.869C158.922 243.628 159.331 243.442 159.805 243.31C160.287 243.177 160.781 243.111 161.286 243.111ZM161.146 248.348C161.457 248.348 161.733 248.278 161.975 248.139C162.216 247.991 162.387 247.777 162.488 247.497V246.855H161.24C160.493 246.855 160.12 247.1 160.12 247.59C160.12 247.824 160.209 248.01 160.388 248.15C160.575 248.282 160.828 248.348 161.146 248.348ZM165.954 240.825H167.773V249.48H165.954V240.825Z" fill="#C4C4C4"/>
<path d="M82.8965 263.995H84.7861V270.62H88.8801V272.16H82.8965V263.995ZM95.909 269.046C95.909 269.069 95.8973 269.232 95.874 269.536H91.1267C91.2123 269.924 91.4144 270.232 91.7333 270.457C92.0521 270.683 92.4487 270.795 92.923 270.795C93.2496 270.795 93.5373 270.749 93.7861 270.655C94.0427 270.554 94.2799 270.399 94.4976 270.189L95.4657 271.239C94.8748 271.915 94.0116 272.253 92.8763 272.253C92.1687 272.253 91.5427 272.117 90.9984 271.845C90.4541 271.565 90.0342 271.18 89.7387 270.69C89.4432 270.2 89.2955 269.644 89.2955 269.022C89.2955 268.408 89.4393 267.856 89.7271 267.366C90.0225 266.868 90.423 266.484 90.9284 266.211C91.4417 265.931 92.0132 265.791 92.6431 265.791C93.2574 265.791 93.8133 265.924 94.311 266.188C94.8087 266.452 95.1975 266.833 95.4774 267.331C95.7651 267.821 95.909 268.393 95.909 269.046ZM92.6547 267.168C92.2426 267.168 91.8966 267.284 91.6166 267.518C91.3367 267.751 91.1656 268.07 91.1034 268.474H94.1944C94.1322 268.078 93.9611 267.763 93.6811 267.529C93.4012 267.288 93.0591 267.168 92.6547 267.168ZM93.1213 263.4H95.0808L92.9696 265.08H91.5466L93.1213 263.4ZM99.2313 272.253C98.7103 272.253 98.2009 272.191 97.7033 272.067C97.2056 271.935 96.809 271.771 96.5136 271.577L97.1201 270.27C97.4 270.449 97.7383 270.597 98.1348 270.714C98.5314 270.823 98.9202 270.877 99.3012 270.877C100.071 270.877 100.456 270.686 100.456 270.305C100.456 270.127 100.351 269.998 100.141 269.921C99.9311 269.843 99.6084 269.777 99.1729 269.722C98.6597 269.644 98.2359 269.555 97.9016 269.454C97.5672 269.353 97.2756 269.174 97.0268 268.917C96.7857 268.661 96.6652 268.295 96.6652 267.821C96.6652 267.424 96.7779 267.075 97.0034 266.771C97.2367 266.46 97.5711 266.219 98.0065 266.048C98.4498 265.877 98.9708 265.791 99.5695 265.791C100.013 265.791 100.452 265.842 100.888 265.943C101.331 266.036 101.696 266.169 101.984 266.34L101.377 267.634C100.825 267.323 100.223 267.168 99.5695 267.168C99.1807 267.168 98.8891 267.222 98.6947 267.331C98.5003 267.44 98.4031 267.58 98.4031 267.751C98.4031 267.945 98.5081 268.082 98.7181 268.159C98.928 268.237 99.2624 268.311 99.7211 268.381C100.234 268.466 100.654 268.56 100.981 268.661C101.307 268.754 101.591 268.929 101.832 269.186C102.073 269.442 102.194 269.8 102.194 270.259C102.194 270.648 102.077 270.994 101.844 271.297C101.611 271.6 101.269 271.837 100.818 272.008C100.374 272.172 99.8456 272.253 99.2313 272.253ZM107.026 265.791C107.609 265.791 108.138 265.928 108.612 266.2C109.094 266.464 109.472 266.841 109.744 267.331C110.016 267.813 110.152 268.377 110.152 269.022C110.152 269.668 110.016 270.235 109.744 270.725C109.472 271.207 109.094 271.585 108.612 271.857C108.138 272.121 107.609 272.253 107.026 272.253C106.163 272.253 105.506 271.981 105.055 271.437V272.16H103.317V263.505H105.136V266.55C105.595 266.044 106.225 265.791 107.026 265.791ZM106.711 270.76C107.178 270.76 107.559 270.605 107.854 270.294C108.157 269.975 108.309 269.551 108.309 269.022C108.309 268.494 108.157 268.074 107.854 267.763C107.559 267.444 107.178 267.284 106.711 267.284C106.245 267.284 105.86 267.444 105.556 267.763C105.261 268.074 105.113 268.494 105.113 269.022C105.113 269.551 105.261 269.975 105.556 270.294C105.86 270.605 106.245 270.76 106.711 270.76ZM111.37 265.885H113.19V272.16H111.37V265.885ZM112.28 265.01C111.946 265.01 111.674 264.913 111.464 264.718C111.254 264.524 111.149 264.283 111.149 263.995C111.149 263.708 111.254 263.466 111.464 263.272C111.674 263.078 111.946 262.98 112.28 262.98C112.614 262.98 112.887 263.074 113.097 263.26C113.306 263.447 113.411 263.68 113.411 263.96C113.411 264.264 113.306 264.516 113.097 264.718C112.887 264.913 112.614 265.01 112.28 265.01ZM117.911 272.253C117.242 272.253 116.64 272.117 116.103 271.845C115.574 271.565 115.158 271.18 114.855 270.69C114.56 270.2 114.412 269.644 114.412 269.022C114.412 268.4 114.56 267.844 114.855 267.354C115.158 266.865 115.574 266.484 116.103 266.211C116.64 265.931 117.242 265.791 117.911 265.791C118.572 265.791 119.148 265.931 119.637 266.211C120.135 266.484 120.497 266.876 120.722 267.389L119.311 268.148C118.984 267.572 118.514 267.284 117.899 267.284C117.425 267.284 117.032 267.44 116.721 267.751C116.41 268.062 116.255 268.486 116.255 269.022C116.255 269.559 116.41 269.983 116.721 270.294C117.032 270.605 117.425 270.76 117.899 270.76C118.522 270.76 118.992 270.473 119.311 269.897L120.722 270.667C120.497 271.165 120.135 271.554 119.637 271.833C119.148 272.113 118.572 272.253 117.911 272.253ZM124.301 265.791C125.273 265.791 126.02 266.025 126.541 266.491C127.062 266.95 127.322 267.646 127.322 268.579V272.16H125.619V271.379C125.277 271.962 124.639 272.253 123.706 272.253C123.224 272.253 122.804 272.172 122.447 272.008C122.097 271.845 121.828 271.62 121.642 271.332C121.455 271.044 121.362 270.718 121.362 270.352C121.362 269.769 121.579 269.31 122.015 268.976C122.458 268.641 123.139 268.474 124.056 268.474H125.502C125.502 268.078 125.382 267.774 125.141 267.564C124.9 267.347 124.538 267.238 124.056 267.238C123.722 267.238 123.391 267.292 123.065 267.401C122.746 267.502 122.474 267.642 122.248 267.821L121.595 266.55C121.937 266.309 122.345 266.122 122.82 265.99C123.302 265.858 123.796 265.791 124.301 265.791ZM124.161 271.029C124.472 271.029 124.748 270.959 124.989 270.819C125.23 270.671 125.401 270.457 125.502 270.177V269.536H124.254C123.508 269.536 123.135 269.781 123.135 270.27C123.135 270.504 123.224 270.69 123.403 270.83C123.59 270.963 123.842 271.029 124.161 271.029Z" fill="#C4C4C4"/>
<path d="M86.4307 288.619C87.1538 288.619 87.7798 288.739 88.3086 288.98C88.8451 289.221 89.2572 289.564 89.545 290.007C89.8327 290.45 89.9765 290.975 89.9765 291.581C89.9765 292.18 89.8327 292.705 89.545 293.156C89.2572 293.599 88.8451 293.941 88.3086 294.183C87.7798 294.416 87.1538 294.532 86.4307 294.532H84.7861V296.784H82.8965V288.619H86.4307ZM86.3257 292.993C86.8933 292.993 87.3249 292.872 87.6204 292.631C87.9159 292.382 88.0636 292.032 88.0636 291.581C88.0636 291.123 87.9159 290.773 87.6204 290.532C87.3249 290.283 86.8933 290.158 86.3257 290.158H84.7861V292.993H86.3257ZM93.6714 290.415C94.6434 290.415 95.3899 290.648 95.9109 291.115C96.4319 291.574 96.6924 292.27 96.6924 293.203V296.784H94.9895V296.002C94.6473 296.585 94.0097 296.877 93.0766 296.877C92.5944 296.877 92.1745 296.795 91.8169 296.632C91.4669 296.469 91.1987 296.243 91.012 295.955C90.8254 295.668 90.7321 295.341 90.7321 294.976C90.7321 294.392 90.9498 293.934 91.3853 293.599C91.8285 293.265 92.5089 293.098 93.4265 293.098H94.8728C94.8728 292.701 94.7523 292.398 94.5112 292.188C94.2702 291.97 93.9086 291.861 93.4265 291.861C93.0921 291.861 92.7616 291.916 92.435 292.025C92.1162 292.126 91.8441 292.266 91.6186 292.445L90.9654 291.173C91.3075 290.932 91.7158 290.746 92.1901 290.613C92.6722 290.481 93.166 290.415 93.6714 290.415ZM93.5315 295.652C93.8425 295.652 94.1186 295.582 94.3596 295.442C94.6007 295.294 94.7717 295.081 94.8728 294.801V294.159H93.6248C92.8783 294.159 92.505 294.404 92.505 294.894C92.505 295.127 92.5944 295.314 92.7733 295.454C92.9599 295.586 93.2126 295.652 93.5315 295.652ZM102.153 290.415C102.931 290.415 103.557 290.648 104.031 291.115C104.513 291.581 104.754 292.274 104.754 293.191V296.784H102.935V293.471C102.935 292.973 102.826 292.604 102.608 292.363C102.39 292.114 102.075 291.99 101.663 291.99C101.204 291.99 100.839 292.134 100.567 292.421C100.295 292.701 100.159 293.121 100.159 293.681V296.784H98.339V290.508H100.077V291.243C100.318 290.979 100.617 290.777 100.975 290.637C101.333 290.489 101.725 290.415 102.153 290.415ZM108.515 296.877C107.994 296.877 107.485 296.815 106.987 296.69C106.49 296.558 106.093 296.395 105.797 296.2L106.404 294.894C106.684 295.073 107.022 295.221 107.419 295.337C107.815 295.446 108.204 295.501 108.585 295.501C109.355 295.501 109.74 295.31 109.74 294.929C109.74 294.75 109.635 294.622 109.425 294.544C109.215 294.466 108.892 294.4 108.457 294.346C107.944 294.268 107.52 294.179 107.185 294.078C106.851 293.976 106.559 293.798 106.311 293.541C106.07 293.284 105.949 292.919 105.949 292.445C105.949 292.048 106.062 291.698 106.287 291.395C106.521 291.084 106.855 290.843 107.29 290.672C107.734 290.501 108.255 290.415 108.853 290.415C109.297 290.415 109.736 290.466 110.171 290.567C110.615 290.66 110.98 290.792 111.268 290.963L110.661 292.258C110.109 291.947 109.507 291.791 108.853 291.791C108.465 291.791 108.173 291.846 107.979 291.955C107.784 292.064 107.687 292.204 107.687 292.375C107.687 292.569 107.792 292.705 108.002 292.783C108.212 292.861 108.546 292.934 109.005 293.004C109.518 293.09 109.938 293.183 110.265 293.284C110.591 293.378 110.875 293.553 111.116 293.809C111.357 294.066 111.478 294.424 111.478 294.882C111.478 295.271 111.361 295.617 111.128 295.92C110.895 296.224 110.552 296.461 110.101 296.632C109.658 296.795 109.129 296.877 108.515 296.877ZM118.747 293.669C118.747 293.693 118.735 293.856 118.712 294.159H113.965C114.05 294.548 114.253 294.855 114.571 295.081C114.89 295.306 115.287 295.419 115.761 295.419C116.088 295.419 116.375 295.372 116.624 295.279C116.881 295.178 117.118 295.022 117.336 294.812L118.304 295.862C117.713 296.539 116.85 296.877 115.714 296.877C115.007 296.877 114.381 296.741 113.837 296.469C113.292 296.189 112.872 295.804 112.577 295.314C112.281 294.824 112.134 294.268 112.134 293.646C112.134 293.032 112.277 292.48 112.565 291.99C112.861 291.492 113.261 291.107 113.767 290.835C114.28 290.555 114.851 290.415 115.481 290.415C116.095 290.415 116.651 290.547 117.149 290.812C117.647 291.076 118.036 291.457 118.316 291.955C118.603 292.445 118.747 293.016 118.747 293.669ZM115.493 291.791C115.081 291.791 114.735 291.908 114.455 292.141C114.175 292.375 114.004 292.693 113.942 293.098H117.032C116.97 292.701 116.799 292.386 116.519 292.153C116.239 291.912 115.897 291.791 115.493 291.791ZM123.777 296.784L122.401 294.859L120.978 296.784H118.995L121.409 293.623L119.076 290.508H121.117L122.447 292.34L123.812 290.508H125.748L123.415 293.576L125.841 296.784H123.777ZM132.932 290.508V296.784H131.206V296.037C130.965 296.309 130.677 296.519 130.343 296.667C130.009 296.807 129.647 296.877 129.258 296.877C128.434 296.877 127.781 296.64 127.299 296.165C126.817 295.691 126.576 294.987 126.576 294.054V290.508H128.395V293.786C128.395 294.797 128.819 295.302 129.667 295.302C130.102 295.302 130.452 295.162 130.716 294.882C130.981 294.595 131.113 294.171 131.113 293.611V290.508H132.932ZM137.15 290.415C138.122 290.415 138.868 290.648 139.389 291.115C139.91 291.574 140.171 292.27 140.171 293.203V296.784H138.468V296.002C138.126 296.585 137.488 296.877 136.555 296.877C136.073 296.877 135.653 296.795 135.295 296.632C134.945 296.469 134.677 296.243 134.49 295.955C134.304 295.668 134.21 295.341 134.21 294.976C134.21 294.392 134.428 293.934 134.863 293.599C135.307 293.265 135.987 293.098 136.905 293.098H138.351C138.351 292.701 138.231 292.398 137.989 292.188C137.748 291.97 137.387 291.861 136.905 291.861C136.57 291.861 136.24 291.916 135.913 292.025C135.594 292.126 135.322 292.266 135.097 292.445L134.444 291.173C134.786 290.932 135.194 290.746 135.668 290.613C136.15 290.481 136.644 290.415 137.15 290.415ZM137.01 295.652C137.321 295.652 137.597 295.582 137.838 295.442C138.079 295.294 138.25 295.081 138.351 294.801V294.159H137.103C136.356 294.159 135.983 294.404 135.983 294.894C135.983 295.127 136.073 295.314 136.252 295.454C136.438 295.586 136.691 295.652 137.01 295.652ZM141.817 288.129H143.637V296.784H141.817V288.129Z" fill="#C4C4C4"/>
<path d="M88.8918 195.338C89.3583 195.486 89.7238 195.735 89.9882 196.085C90.2526 196.427 90.3848 196.851 90.3848 197.356C90.3848 198.071 90.1048 198.624 89.545 199.012C88.9929 199.393 88.1842 199.584 87.1189 199.584H82.8965V191.419H86.8856C87.8809 191.419 88.6429 191.61 89.1717 191.991C89.7083 192.372 89.9765 192.889 89.9765 193.542C89.9765 193.938 89.8793 194.292 89.6849 194.603C89.4983 194.914 89.2339 195.159 88.8918 195.338ZM84.7744 192.842V194.767H86.6523C87.1189 194.767 87.4727 194.685 87.7137 194.522C87.9548 194.358 88.0753 194.117 88.0753 193.799C88.0753 193.48 87.9548 193.243 87.7137 193.087C87.4727 192.924 87.1189 192.842 86.6523 192.842H84.7744ZM86.9789 198.161C87.4765 198.161 87.8498 198.079 88.0986 197.916C88.3552 197.753 88.4835 197.5 88.4835 197.158C88.4835 196.481 87.982 196.143 86.9789 196.143H84.7744V198.161H86.9789ZM91.6872 193.309H93.5068V199.584H91.6872V193.309ZM92.597 192.434C92.2627 192.434 91.9905 192.337 91.7806 192.142C91.5706 191.948 91.4656 191.707 91.4656 191.419C91.4656 191.131 91.5706 190.89 91.7806 190.696C91.9905 190.501 92.2627 190.404 92.597 190.404C92.9314 190.404 93.2036 190.498 93.4135 190.684C93.6235 190.871 93.7285 191.104 93.7285 191.384C93.7285 191.687 93.6235 191.94 93.4135 192.142C93.2036 192.337 92.9314 192.434 92.597 192.434ZM97.3067 199.677C96.7857 199.677 96.2764 199.615 95.7787 199.491C95.2811 199.358 94.8845 199.195 94.589 199.001L95.1955 197.694C95.4755 197.873 95.8137 198.021 96.2103 198.138C96.6069 198.246 96.9957 198.301 97.3767 198.301C98.1465 198.301 98.5314 198.11 98.5314 197.729C98.5314 197.55 98.4265 197.422 98.2165 197.344C98.0065 197.267 97.6838 197.201 97.2484 197.146C96.7352 197.068 96.3114 196.979 95.977 196.878C95.6426 196.777 95.351 196.598 95.1022 196.341C94.8612 196.085 94.7406 195.719 94.7406 195.245C94.7406 194.848 94.8534 194.498 95.0789 194.195C95.3122 193.884 95.6465 193.643 96.082 193.472C96.5252 193.301 97.0462 193.215 97.645 193.215C98.0882 193.215 98.5275 193.266 98.963 193.367C99.4062 193.46 99.7717 193.592 100.059 193.764L99.4529 195.058C98.9008 194.747 98.2981 194.592 97.645 194.592C97.2562 194.592 96.9646 194.646 96.7702 194.755C96.5758 194.864 96.4786 195.004 96.4786 195.175C96.4786 195.369 96.5835 195.505 96.7935 195.583C97.0034 195.661 97.3378 195.735 97.7966 195.805C98.3098 195.89 98.7297 195.984 99.0563 196.085C99.3829 196.178 99.6667 196.353 99.9078 196.61C100.149 196.866 100.269 197.224 100.269 197.683C100.269 198.071 100.153 198.417 99.9194 198.721C99.6862 199.024 99.344 199.261 98.893 199.432C98.4498 199.596 97.921 199.677 97.3067 199.677ZM103.503 199.677C102.982 199.677 102.473 199.615 101.975 199.491C101.477 199.358 101.081 199.195 100.785 199.001L101.392 197.694C101.672 197.873 102.01 198.021 102.406 198.138C102.803 198.246 103.192 198.301 103.573 198.301C104.343 198.301 104.728 198.11 104.728 197.729C104.728 197.55 104.623 197.422 104.413 197.344C104.203 197.267 103.88 197.201 103.445 197.146C102.931 197.068 102.508 196.979 102.173 196.878C101.839 196.777 101.547 196.598 101.298 196.341C101.057 196.085 100.937 195.719 100.937 195.245C100.937 194.848 101.05 194.498 101.275 194.195C101.508 193.884 101.843 193.643 102.278 193.472C102.721 193.301 103.242 193.215 103.841 193.215C104.284 193.215 104.724 193.266 105.159 193.367C105.602 193.46 105.968 193.592 106.256 193.764L105.649 195.058C105.097 194.747 104.494 194.592 103.841 194.592C103.452 194.592 103.161 194.646 102.966 194.755C102.772 194.864 102.675 195.004 102.675 195.175C102.675 195.369 102.78 195.505 102.99 195.583C103.2 195.661 103.534 195.735 103.993 195.805C104.506 195.89 104.926 195.984 105.252 196.085C105.579 196.178 105.863 196.353 106.104 196.61C106.345 196.866 106.466 197.224 106.466 197.683C106.466 198.071 106.349 198.417 106.116 198.721C105.882 199.024 105.54 199.261 105.089 199.432C104.646 199.596 104.117 199.677 103.503 199.677ZM113.735 196.47C113.735 196.493 113.724 196.656 113.7 196.959H108.953C109.039 197.348 109.241 197.655 109.56 197.881C109.879 198.106 110.275 198.219 110.749 198.219C111.076 198.219 111.364 198.173 111.613 198.079C111.869 197.978 112.106 197.823 112.324 197.613L113.292 198.662C112.701 199.339 111.838 199.677 110.703 199.677C109.995 199.677 109.369 199.541 108.825 199.269C108.281 198.989 107.861 198.604 107.565 198.114C107.27 197.624 107.122 197.068 107.122 196.446C107.122 195.832 107.266 195.28 107.554 194.79C107.849 194.292 108.249 193.907 108.755 193.635C109.268 193.355 109.84 193.215 110.47 193.215C111.084 193.215 111.64 193.348 112.137 193.612C112.635 193.876 113.024 194.257 113.304 194.755C113.592 195.245 113.735 195.816 113.735 196.47ZM110.481 194.592C110.069 194.592 109.723 194.708 109.443 194.942C109.163 195.175 108.992 195.494 108.93 195.898H112.021C111.959 195.501 111.788 195.187 111.508 194.953C111.228 194.712 110.886 194.592 110.481 194.592ZM118.765 199.584L117.389 197.659L115.966 199.584H113.983L116.397 196.423L114.065 193.309H116.106L117.436 195.14L118.8 193.309H120.736L118.404 196.376L120.83 199.584H118.765ZM127.921 193.309V199.584H126.195V198.837C125.953 199.11 125.666 199.319 125.331 199.467C124.997 199.607 124.635 199.677 124.247 199.677C123.422 199.677 122.769 199.44 122.287 198.966C121.805 198.491 121.564 197.788 121.564 196.854V193.309H123.384V196.586C123.384 197.597 123.807 198.103 124.655 198.103C125.09 198.103 125.44 197.963 125.705 197.683C125.969 197.395 126.101 196.971 126.101 196.411V193.309H127.921ZM132.137 193.215C133.109 193.215 133.856 193.449 134.377 193.915C134.898 194.374 135.158 195.07 135.158 196.003V199.584H133.455V198.802C133.113 199.386 132.476 199.677 131.542 199.677C131.06 199.677 130.64 199.596 130.283 199.432C129.933 199.269 129.665 199.043 129.478 198.756C129.291 198.468 129.198 198.141 129.198 197.776C129.198 197.193 129.416 196.734 129.851 196.4C130.294 196.065 130.975 195.898 131.892 195.898H133.339C133.339 195.501 133.218 195.198 132.977 194.988C132.736 194.771 132.375 194.662 131.892 194.662C131.558 194.662 131.228 194.716 130.901 194.825C130.582 194.926 130.31 195.066 130.084 195.245L129.431 193.973C129.773 193.732 130.182 193.546 130.656 193.414C131.138 193.281 131.632 193.215 132.137 193.215ZM131.997 198.452C132.308 198.452 132.584 198.382 132.826 198.242C133.067 198.095 133.238 197.881 133.339 197.601V196.959H132.091C131.344 196.959 130.971 197.204 130.971 197.694C130.971 197.928 131.06 198.114 131.239 198.254C131.426 198.386 131.679 198.452 131.997 198.452ZM136.806 190.929H138.625V199.584H136.806V190.929Z" fill="#C23334"/>
<path d="M67.0245 195.696C67.0245 192.117 64.1233 189.216 60.5445 189.216C56.9656 189.216 54.0645 192.117 54.0645 195.696C54.0645 199.275 56.9656 202.176 60.5445 202.176C64.1233 202.176 67.0245 199.275 67.0245 195.696Z" fill="white" stroke="#C23334" stroke-width="2"/>
<path d="M60.5443 199.584C62.6915 199.584 64.4323 197.843 64.4323 195.696C64.4323 193.549 62.6915 191.808 60.5443 191.808C58.397 191.808 56.6562 193.549 56.6562 195.696C56.6562 197.843 58.397 199.584 60.5443 199.584Z" fill="#C23334"/>
<path d="M46.2875 483.408C49.1506 483.408 51.4715 481.087 51.4715 478.224C51.4715 475.361 49.1506 473.04 46.2875 473.04C43.4245 473.04 41.1035 475.361 41.1035 478.224C41.1035 481.087 43.4245 483.408 46.2875 483.408Z" fill="#FCA9AA"/>
<path d="M69.6156 483.408C72.4787 483.408 74.7996 481.087 74.7996 478.224C74.7996 475.361 72.4787 473.04 69.6156 473.04C66.7526 473.04 64.4316 475.361 64.4316 478.224C64.4316 481.087 66.7526 483.408 69.6156 483.408Z" fill="#C23334"/>
<path d="M57.9516 483.408C60.8146 483.408 63.1356 481.087 63.1356 478.224C63.1356 475.361 60.8146 473.04 57.9516 473.04C55.0885 473.04 52.7676 475.361 52.7676 478.224C52.7676 481.087 55.0885 483.408 57.9516 483.408Z" fill="#FCA9AA"/>
<path d="M81.2797 483.408C84.1427 483.408 86.4637 481.087 86.4637 478.224C86.4637 475.361 84.1427 473.04 81.2797 473.04C78.4167 473.04 76.0957 475.361 76.0957 478.224C76.0957 481.087 78.4167 483.408 81.2797 483.408Z" fill="#FCA9AA"/>
<path d="M92.9438 483.408C95.8068 483.408 98.1278 481.087 98.1278 478.224C98.1278 475.361 95.8068 473.04 92.9438 473.04C90.0807 473.04 87.7598 475.361 87.7598 478.224C87.7598 481.087 90.0807 483.408 92.9438 483.408Z" fill="#FCA9AA"/>
</g>
<defs>
<filter id="filter0_d" x="0" y="0" width="263" height="556.176" filterUnits="userSpaceOnUse" color-interpolation-filters="sRGB">
<feFlood flood-opacity="0" result="BackgroundImageFix"/>
<feColorMatrix in="SourceAlpha" type="matrix" values="0 0 0 0 0 0 0 0 0 0 0 0 0 0 0 0 0 0 127 0"/>
<feOffset dy="20"/>
<feGaussianBlur stdDeviation="5"/>
<feColorMatrix type="matrix" values="0 0 0 0 0 0 0 0 0 0 0 0 0 0 0 0 0 0 0.25 0"/>
<feBlend mode="normal" in2="BackgroundImageFix" result="effect1_dropShadow"/>
<feBlend mode="normal" in="SourceGraphic" in2="effect1_dropShadow" result="shape"/>
</filter>
<filter id="filter1_d" x="171.888" y="453.6" width="47.528" height="47.528" filterUnits="userSpaceOnUse" color-interpolation-filters="sRGB">
<feFlood flood-opacity="0" result="BackgroundImageFix"/>
<feColorMatrix in="SourceAlpha" type="matrix" values="0 0 0 0 0 0 0 0 0 0 0 0 0 0 0 0 0 0 127 0"/>
<feOffset dy="4"/>
<feGaussianBlur stdDeviation="2"/>
<feColorMatrix type="matrix" values="0 0 0 0 0 0 0 0 0 0 0 0 0 0 0 0 0 0 0.25 0"/>
<feBlend mode="normal" in2="BackgroundImageFix" result="effect1_dropShadow"/>
<feBlend mode="normal" in="SourceGraphic" in2="effect1_dropShadow" result="shape"/>
</filter>
</defs>
</svg>
