<svg width="263" height="556" viewBox="0 0 263 556" fill="none" xmlns="http://www.w3.org/2000/svg">
<g filter="url(#filter0_d)">
<path d="M238 0H25C16.7157 0 10 6.71574 10 15V511C10 519.284 16.7157 526 25 526H238C246.284 526 253 519.284 253 511V15C253 6.71573 246.284 0 238 0Z" fill="white"/>
<path d="M61.0755 251.171C64.4322 251.275 66.1105 252.368 66.1105 254.449C66.0716 255.365 65.8513 256.263 65.4625 257.092C65.8967 255.421 66.5706 253.82 67.4584 252.337C67.6722 251.905 67.9962 251.539 68.4044 251.274C68.8062 251.01 69.2727 250.859 69.7587 250.835C69.9337 250.836 70.1087 250.856 70.2837 250.893C74.1069 251.735 76.0184 253.638 76.0184 256.6C76.0184 256.886 75.999 257.172 75.9601 257.455C77.2561 253.024 78.8762 250.807 80.8331 250.802H80.9303C83.1723 251.214 85.233 252.317 86.8206 253.957C87.7667 255.024 88.2721 256.415 88.2332 257.844C88.2267 258.631 88.1231 259.414 87.9287 260.176L82.5632 277.076C78.6752 275.643 76.7312 273.496 76.7312 270.637C76.7312 270.006 76.8155 269.377 76.971 268.765L81.332 255.848C81.3385 255.767 81.3385 255.684 81.332 255.602C81.3255 255.43 81.2867 255.26 81.2089 255.106C81.1312 254.953 81.021 254.818 80.8849 254.715C80.5415 254.447 80.1332 254.269 79.7055 254.197L71.787 277.122C69.9985 276.274 68.4045 275.06 67.1214 273.559C66.4151 272.717 66.0328 271.651 66.0457 270.553C66.0522 269.983 66.13 269.417 66.292 268.869L70.3744 256.198C70.3809 256.108 70.3809 256.017 70.3744 255.926C70.3614 255.753 70.3096 255.584 70.2124 255.439C70.1217 255.293 69.992 255.175 69.8365 255.097C69.4347 254.859 68.9941 254.703 68.5405 254.637L61.0172 277.089C58.6196 276.226 56.9478 275.018 56.0147 273.468C55.5481 272.668 55.3278 271.754 55.3667 270.832C55.412 269.392 55.7036 267.972 56.222 266.628L61.0755 251.171Z" fill="#C23334" stroke="white" stroke-width="0.38" stroke-miterlimit="10"/>
<path d="M109.281 254.605C105.244 255.675 101.647 257.995 99.0163 261.232C96.3271 264.505 94.895 267.91 94.7136 271.447C94.7136 271.939 94.8238 272.224 95.0506 272.309C95.2061 272.376 95.3681 272.418 95.543 272.432C95.6597 272.423 95.7698 272.392 95.8735 272.34C95.9772 272.288 96.0744 272.215 96.1521 272.127C99.8392 267.397 103.241 262.449 106.339 257.313C108.218 258.146 109.501 259.034 110.175 259.975C110.777 260.737 111.134 261.67 111.186 262.644C111.166 263.415 110.998 264.175 110.7 264.885L106.527 277.096L104.583 275.93L104.239 275.684C103.604 275.302 103.04 274.821 102.567 274.259C102.153 273.715 101.945 273.047 101.971 272.367C101.958 272.184 101.958 272 101.971 271.816C102.269 270.286 102.82 268.817 103.598 267.463L99.8587 274.038C98.5627 275.982 97.4676 276.947 96.4826 276.999L94.8886 277.076C93.1066 277.076 91.4736 276.064 89.9832 274.038C89.238 272.48 88.8621 270.775 88.8816 269.05C88.9269 266.827 89.3871 264.631 90.2295 262.573C91.681 258.409 94.435 254.822 98.0832 252.338C99.7032 251.328 101.569 250.769 103.481 250.718C103.87 250.716 104.259 250.747 104.647 250.809C106.773 251.133 108.315 252.398 109.281 254.605Z" fill="#C23334" stroke="white" stroke-width="0.38" stroke-miterlimit="10"/>
<path d="M134.591 246.08H134.837C135.258 246.056 135.673 246.188 136.003 246.449C136.133 246.548 136.237 246.675 136.308 246.822C136.379 246.968 136.418 247.129 136.418 247.291C136.412 247.439 136.36 247.581 136.269 247.698C136.178 247.814 136.055 247.898 135.913 247.939L126.432 249.235L119.771 270.923L123.115 265.617C123.186 265.536 123.277 265.471 123.374 265.429C123.478 265.386 123.588 265.367 123.698 265.371C123.886 265.388 124.067 265.429 124.249 265.494C124.579 265.627 124.864 265.852 125.078 266.142C125.24 266.319 125.337 266.548 125.357 266.79C125.35 266.937 125.324 267.082 125.266 267.217L120.231 275.775C119.978 276.146 119.648 276.454 119.259 276.672C118.87 276.891 118.436 277.014 117.989 277.031H117.147C116.648 277.031 115.896 276.565 114.892 275.684C113.933 275.031 113.161 274.138 112.656 273.093C112.364 272.532 112.228 271.908 112.254 271.279C112.364 269.349 112.805 267.452 113.55 265.669C113.816 264.853 114.399 262.981 115.313 260.072C116.226 257.164 117.218 253.912 118.307 250.356L116.894 250.543C116.032 250.659 115.164 250.719 114.302 250.725C111.71 250.725 110.375 249.941 110.375 248.36C110.414 247.593 110.608 246.844 110.958 246.158C113.57 246.569 116.22 246.753 118.87 246.708H119.395C120.225 243.928 120.918 241.535 121.469 239.531C121.838 238.305 122.123 237.054 122.311 235.787C126.199 236.383 128.143 238.376 128.143 241.766C128.111 243.069 127.89 244.36 127.495 245.601L127.217 246.495C129.634 246.361 132.089 246.223 134.591 246.08Z" fill="#C23334" stroke="white" stroke-width="0.38" stroke-miterlimit="10"/>
<path d="M148.186 254.637C144.065 255.785 140.397 258.173 137.689 261.478C134.928 264.807 133.548 267.831 133.548 270.547C133.548 270.866 133.567 271.184 133.613 271.499C133.813 272.419 134.578 272.879 135.913 272.879C136.438 272.876 136.963 272.83 137.481 272.743C139.794 272.289 142.678 270.346 146.132 266.913C146.197 266.913 146.236 267.075 146.255 267.399V267.612C146.249 268.077 146.203 268.54 146.132 268.999C146.041 269.683 145.886 270.356 145.659 271.007C145.439 271.66 145.095 272.269 144.661 272.801C143.618 274.231 142.179 275.321 140.52 275.93C138.79 276.674 136.937 277.07 135.058 277.096C134.669 277.096 134.28 277.096 133.891 277.031C132.874 276.974 131.889 276.674 131.008 276.156C130.133 275.639 129.394 274.919 128.856 274.058C128.111 272.484 127.735 270.764 127.755 269.025C127.8 266.801 128.26 264.605 129.103 262.547C130.573 258.406 133.321 254.84 136.956 252.364C138.583 251.363 140.449 250.813 142.361 250.77C142.749 250.771 143.138 250.802 143.527 250.861C145.665 251.172 147.221 252.43 148.186 254.637Z" fill="#C23334" stroke="white" stroke-width="0.38" stroke-miterlimit="10"/>
<path d="M172.298 254.235C172.687 254.916 172.881 255.692 172.855 256.477C172.79 257.646 172.59 258.804 172.272 259.929C171.708 262 171.041 264.042 170.276 266.045C169.499 268.109 168.831 270.104 168.28 272.03C167.872 273.374 167.658 274.766 167.632 276.169C167.632 276.435 167.632 276.688 167.632 276.934C164.995 276.364 163.07 275.321 161.865 273.805C161.23 272.98 160.9 271.961 160.939 270.922C160.984 269.626 161.262 268.349 161.768 267.152L165.76 256.321L156.558 268.208L153.862 277.109C151.73 276.39 150.188 275.411 149.229 274.161C148.743 273.403 148.516 272.511 148.581 271.615C148.633 270.123 148.899 268.646 149.378 267.23C149.864 265.675 150.869 262.404 152.398 257.416C153.921 252.428 155.379 247.479 156.772 242.569C158.159 237.659 158.891 234.541 158.982 233.215C162.87 233.806 164.814 235.8 164.814 239.194C164.781 240.497 164.561 241.788 164.166 243.029L159.558 258.303L164.347 252.046C164.632 251.652 165.001 251.33 165.436 251.105C165.87 250.881 166.349 250.759 166.835 250.75C167.542 250.825 168.235 251.011 168.889 251.301C169.848 251.668 170.989 252.646 172.298 254.235Z" fill="#C23334" stroke="white" stroke-width="0.38" stroke-miterlimit="10"/>
<path d="M200.337 237.186C200.473 237.621 200.544 238.076 200.551 238.533C200.525 239.157 200.402 239.773 200.188 240.36C200.039 240.748 199.812 241.102 199.52 241.399C199.229 241.696 198.879 241.931 198.497 242.089C198.114 242.279 197.693 242.374 197.272 242.368C196.566 242.349 195.879 242.181 195.244 241.876C194.706 241.528 194.311 241.01 194.11 240.405C193.967 240.075 193.896 239.721 193.896 239.362C193.896 238.972 193.98 238.586 194.142 238.229C194.272 237.982 194.343 237.71 194.356 237.432C194.343 237.207 194.285 236.987 194.187 236.784C194.025 236.482 193.76 236.25 193.436 236.136C193.248 236.061 193.054 236.019 192.853 236.013C192.665 236.013 192.477 236.046 192.302 236.11C190.967 236.813 189.943 237.979 189.418 239.388C188.945 240.406 188.563 241.464 188.278 242.549L187.144 246.261C188.926 246.158 190.747 246.034 192.606 245.892H192.788C192.963 245.88 193.131 245.907 193.3 245.972C193.462 246.035 193.604 246.134 193.727 246.261C193.935 246.498 194.051 246.801 194.051 247.116C194.058 247.253 194.025 247.389 193.954 247.506C193.883 247.622 193.773 247.712 193.65 247.764L186.314 249.021L177.754 277.089C175.998 276.592 174.423 275.601 173.218 274.232C172.674 273.453 172.415 272.511 172.479 271.564C172.518 270.245 172.739 268.937 173.127 267.677L178.584 250.349C177.962 250.445 177.333 250.494 176.711 250.498C174.631 250.498 173.588 249.712 173.588 248.14C173.613 247.382 173.769 246.636 174.048 245.931C175.933 246.319 177.858 246.492 179.782 246.449L181.778 240.101C183.204 236.849 185.005 234.793 187.176 233.934C187.87 233.629 188.602 233.411 189.353 233.286C190.228 233.143 191.109 233.071 191.997 233.072C192.904 233.074 193.805 233.178 194.693 233.383C195.587 233.581 196.455 233.878 197.285 234.271C198.931 235.126 199.948 236.097 200.337 237.186Z" fill="#C23334" stroke="white" stroke-width="0.38" stroke-miterlimit="10"/>
<path d="M184.48 288.16C184.688 288.16 184.888 288.192 185.096 288.192C186.508 288.2 187.915 287.912 189.217 287.346C190.513 286.781 191.679 285.95 192.645 284.908C194.997 282.422 196.876 279.52 198.179 276.351C199.468 273.407 200.486 270.355 201.237 267.23C201.704 265.425 202.009 263.582 202.158 261.724V261.478C200.9 265.278 199.682 268.059 198.503 269.821C196.987 271.954 195.263 273.927 193.351 275.709C192.58 276.498 191.53 276.95 190.435 276.966C189.93 276.961 189.437 276.877 188.964 276.72C187.189 276.112 185.634 275.005 184.48 273.533C184.085 272.841 183.897 272.053 183.929 271.259C183.942 270.399 184.072 269.544 184.299 268.713C184.895 266.345 185.634 264.013 186.508 261.73C187.286 259.644 187.921 257.733 188.452 255.991C188.9 254.57 189.152 253.095 189.204 251.605C189.204 251.34 189.204 251.087 189.172 250.841C191.79 251.39 193.513 252.232 194.356 253.367C195.127 254.322 195.567 255.502 195.613 256.729C195.561 258.066 195.276 259.383 194.757 260.616L190.494 272.794C192.651 270.732 194.537 268.395 196.092 265.844C197.822 262.781 199.313 259.589 200.557 256.295C200.706 256.056 200.92 255.863 201.173 255.733C201.425 255.604 201.71 255.543 201.996 255.557H202.151C205.404 255.721 207.031 258.185 207.031 262.948C207.031 267.224 205.735 273.339 203.143 281.293C201.017 286.812 198.853 290.032 196.663 290.952C194.466 291.872 192.891 292.332 191.932 292.332C189.398 292.332 186.917 290.941 184.48 288.16Z" fill="#C23334" stroke="white" stroke-width="0.38" stroke-miterlimit="10"/>
<path d="M176.944 137.518C177.637 133.631 177.793 124.912 175.194 119.218C172.602 122.386 169.654 124.977 165.694 126.059C162.195 127.011 158.45 127.192 155.158 128.818C153.544 129.603 152.112 130.705 150.939 132.057C148.859 134.431 147.725 137.481 147.738 140.634C147.842 143.937 149.17 147.083 151.464 149.463C151.076 148.589 150.914 147.63 150.998 146.678C151.088 145.726 151.412 144.811 151.957 144.022C153.7 141.431 160.135 139.688 161.204 140.413C162.422 141.243 162.986 147.772 161.243 150.338C160.718 151.112 160.005 151.742 159.176 152.171C158.346 152.6 157.42 152.813 156.486 152.793C157.588 153.205 158.741 153.477 159.921 153.602C164.82 154.14 174.177 152.955 176.944 137.492" fill="#C23334"/>
<path d="M175.195 119.218C172.965 121.952 170.451 124.258 167.25 125.534C170.224 132.349 170.561 144.216 166.861 149.016C162.824 154.244 156.493 152.819 156.493 152.819C157.595 153.231 158.748 153.503 159.928 153.628C164.826 154.166 174.184 152.98 176.951 137.518C177.644 133.631 177.799 124.912 175.201 119.218" fill="#C23334"/>
<path d="M151.432 149.405C151.328 149.171 151.251 148.931 151.186 148.686V148.634C151.101 148.313 151.043 147.986 151.024 147.656C151.017 147.636 151.017 147.617 151.024 147.597C150.927 146.339 151.263 145.087 151.983 144.048C153.648 141.592 159.597 139.876 161.055 140.362C165.72 139.098 170.503 138.01 173.419 133.735C178.026 126.966 175.894 120.818 175.363 119.484L175.194 119.218C172.602 122.386 169.654 124.977 165.694 126.059C162.195 127.011 158.45 127.192 155.158 128.818C153.544 129.603 152.112 130.705 150.939 132.057C148.859 134.431 147.725 137.481 147.738 140.634C147.842 143.937 149.17 147.083 151.464 149.463L151.432 149.405Z" fill="#C23334"/>
<path d="M155.158 128.818C153.544 129.603 152.112 130.705 150.939 132.057C148.859 134.431 147.725 137.481 147.738 140.634C147.836 143.79 149.054 146.808 151.179 149.146C150.343 148.116 148.166 144.579 151.775 138.826C156.123 131.908 163.75 135.225 168.708 131.578C174.319 127.445 175.188 119.192 175.188 119.192C172.596 122.36 169.647 124.951 165.688 126.033C162.189 126.985 158.443 127.166 155.151 128.792" fill="#C23334"/>
<path d="M139.153 129.459C136.736 127.911 130.949 125.378 126.413 125.534C127.813 128.125 128.72 130.846 128.357 133.793C128.027 136.384 127.1 138.975 127.275 141.612C127.346 142.913 127.69 144.185 128.279 145.349C129.29 147.402 131.014 149.015 133.133 149.884C135.368 150.745 137.844 150.745 140.086 149.884C139.393 149.9 138.706 149.739 138.09 149.416C137.474 149.093 136.95 148.619 136.574 148.038C135.342 146.153 135.958 141.353 136.736 140.841C137.63 140.258 142.166 141.702 143.397 143.581C143.767 144.151 143.993 144.805 144.045 145.484C144.103 146.163 143.987 146.844 143.715 147.468C144.291 146.843 144.797 146.149 145.212 145.401C146.935 142.266 148.769 135.684 139.172 129.511" fill="#C23334"/>
<path d="M126.413 125.534C127.67 127.682 128.357 130.117 128.409 132.607C133.807 132.517 141.842 135.6 144.026 139.416C146.404 143.574 143.683 147.416 143.683 147.416C144.259 146.791 144.765 146.097 145.179 145.349C146.903 142.214 148.737 135.633 139.14 129.459C136.723 127.911 130.936 125.378 126.4 125.534" fill="#C23334"/>
<path d="M139.995 149.845C139.807 149.85 139.626 149.84 139.444 149.813H139.425C139.185 149.78 138.952 149.729 138.725 149.657H138.686C137.818 149.366 137.073 148.791 136.574 148.025C135.401 146.224 135.926 141.767 136.639 140.899C137.092 137.427 137.701 133.923 135.647 130.781C134.701 129.225 133.379 127.929 131.804 127.011C130.236 126.092 128.461 125.581 126.64 125.521H126.433C127.832 128.112 128.739 130.833 128.377 133.78C128.046 136.371 127.119 138.962 127.294 141.599C127.366 142.9 127.709 144.173 128.299 145.337C129.31 147.39 131.033 149.002 133.152 149.871C135.388 150.733 137.863 150.733 140.105 149.871L139.995 149.845Z" fill="#C23334"/>
<path d="M127.256 141.612C127.327 142.913 127.671 144.186 128.26 145.35C129.271 147.401 130.995 149.012 133.114 149.884C135.252 150.696 137.617 150.719 139.775 149.949C138.849 150.228 135.887 150.694 133.029 146.71C129.608 141.871 133.956 137.693 132.9 133.359C131.695 128.449 126.42 125.586 126.42 125.586C127.82 128.177 128.727 130.898 128.364 133.845C128.033 136.436 127.107 139.027 127.282 141.664" fill="#C23334"/>
<path d="M105.774 207.9C102.709 207.914 99.6894 207.169 96.9872 205.73C94.2851 204.291 91.9847 202.205 90.2869 199.657C88.5892 197.109 87.5523 194.18 87.2607 191.132C86.9756 188.085 87.4551 185.013 88.6475 182.194C89.8398 179.376 91.719 176.897 94.1037 174.981C96.4948 173.065 99.32 171.772 102.333 171.218C105.34 170.663 108.444 170.864 111.36 171.803C114.276 172.742 116.907 174.39 119.032 176.599C120.05 177.668 120.911 178.503 119.518 180.116C119.22 180.46 119.039 180.885 118.993 181.335C118.948 181.785 119.039 182.238 119.252 182.635C119.466 183.033 119.803 183.355 120.205 183.56C120.607 183.765 121.06 183.842 121.514 183.783C123.205 183.647 123.568 184.43 123.821 185.726C124.346 188.403 124.281 191.164 123.62 193.812C122.959 196.46 121.721 198.93 120.004 201.047C118.281 203.164 116.11 204.875 113.654 206.06C111.191 207.244 108.502 207.872 105.774 207.9ZM104.977 176.994C104.757 177.421 105.029 177.538 105.165 177.642C105.878 177.875 106.649 177.855 107.349 177.583C107.867 177.417 108.353 177.134 108.748 176.758C109.15 176.381 109.461 175.919 109.662 175.407C110.032 174.008 108.943 173.062 107.491 172.913C103.014 172.453 98.8988 173.489 95.458 176.43C95.3284 176.54 95.2247 176.669 95.1404 176.812C94.9655 177.112 94.8812 177.454 94.9007 177.799C94.9136 178.144 95.0303 178.477 95.2312 178.759C95.4256 179.041 95.7042 179.261 96.0217 179.393C96.3392 179.523 96.6892 179.562 97.0326 179.501C97.2011 179.478 97.363 179.446 97.5315 179.404C100.046 178.73 102.489 177.817 104.977 176.994Z" fill="#C23334"/>
<path d="M157.2 193.597C156.377 192.573 155.748 191.712 154.154 192.806C153.785 193.073 153.35 193.223 152.897 193.235C152.443 193.248 151.996 193.124 151.62 192.878C151.238 192.632 150.94 192.277 150.771 191.859C150.596 191.442 150.551 190.982 150.648 190.539C151.024 188.557 150.052 188.129 148.575 187.644C145.309 186.573 141.816 186.434 138.472 187.24C135.135 188.046 132.089 189.766 129.679 192.207C127.262 194.648 125.577 197.713 124.806 201.059C124.041 204.405 124.216 207.899 125.324 211.147C126.432 214.396 128.428 217.273 131.079 219.454C133.729 221.635 136.937 223.034 140.339 223.494C143.741 223.954 147.207 223.456 150.344 222.058C153.48 220.659 156.163 218.415 158.094 215.576C160.297 212.293 161.405 208.393 161.243 204.44C161.081 200.488 159.662 196.689 157.2 193.597ZM146.449 193.454C146.255 193.969 145.944 194.432 145.542 194.811C145.147 195.188 144.667 195.471 144.142 195.637C143.442 195.903 142.671 195.924 141.959 195.696C141.822 195.572 141.55 195.449 141.771 195.048C139.289 195.858 136.833 196.784 134.325 197.458C134.157 197.502 133.995 197.535 133.826 197.555C133.483 197.616 133.133 197.579 132.815 197.448C132.498 197.318 132.219 197.099 132.018 196.818C131.824 196.536 131.707 196.203 131.688 195.859C131.675 195.515 131.753 195.173 131.928 194.873C132.012 194.73 132.122 194.601 132.252 194.491C135.686 191.543 139.801 190.513 144.278 190.973C145.736 191.122 146.825 192.055 146.449 193.454Z" fill="#C23334"/>
<path d="M154.86 174.927C154.86 167.012 152.657 159.594 149.579 152.391C149.326 151.94 149.138 151.456 149.022 150.953C148.996 150.752 149.022 150.549 149.093 150.36C149.164 150.172 149.281 150.002 149.43 149.865C149.624 149.804 149.832 149.788 150.032 149.817C150.233 149.846 150.428 149.92 150.603 150.033C150.946 150.315 151.218 150.678 151.393 151.089C156.454 161.583 159.292 172.466 156.772 184.171C156.279 186.335 155.56 188.441 154.633 190.455C154.316 191.167 153.195 191.524 152.443 192.042C152.3 191.161 151.795 190.099 152.074 189.451C153.992 184.853 154.938 179.909 154.86 174.927Z" fill="#C23334"/>
<path d="M144.882 152.534C144.843 156.822 143.242 160.611 141.058 164.194C136.535 171.611 130.353 177.376 123.076 182.053C122.428 182.455 121.314 182.053 120.413 182.053C120.815 181.237 120.996 180.11 121.657 179.65C128.241 175.238 134.196 170.192 138.434 163.384C140.754 159.646 142.568 155.708 142.853 151.199C142.892 150.499 143.45 149.832 143.767 149.152C144.169 149.824 144.532 150.522 144.849 151.238C144.927 151.665 144.94 152.103 144.882 152.534Z" fill="#C23334"/>
</g>
<defs>
<filter id="filter0_d" x="0" y="0" width="263" height="556" filterUnits="userSpaceOnUse" color-interpolation-filters="sRGB">
<feFlood flood-opacity="0" result="BackgroundImageFix"/>
<feColorMatrix in="SourceAlpha" type="matrix" values="0 0 0 0 0 0 0 0 0 0 0 0 0 0 0 0 0 0 127 0"/>
<feOffset dy="20"/>
<feGaussianBlur stdDeviation="5"/>
<feColorMatrix type="matrix" values="0 0 0 0 0 0 0 0 0 0 0 0 0 0 0 0 0 0 0.25 0"/>
<feBlend mode="normal" in2="BackgroundImageFix" result="effect1_dropShadow"/>
<feBlend mode="normal" in="SourceGraphic" in2="effect1_dropShadow" result="shape"/>
</filter>
</defs>
</svg>
