<svg width="263" height="556" viewBox="0 0 263 556" fill="none" xmlns="http://www.w3.org/2000/svg">
<g filter="url(#filter0_d)">
<path d="M237.999 0H25.6455C17.3612 0 10.6455 6.71574 10.6455 15V511C10.6455 519.284 17.3612 526 25.6455 526H237.999C246.284 526 252.999 519.284 252.999 511V15C252.999 6.71573 246.284 0 237.999 0Z" fill="white"/>
<path d="M237.354 0H25C16.7157 0 10 6.71574 10 15V511C10 519.284 16.7157 526 25 526H237.354C245.638 526 252.354 519.284 252.354 511V15C252.354 6.71573 245.638 0 237.354 0Z" fill="white"/>
<path d="M237.354 0H25C16.7157 0 10 6.71574 10 15V511C10 519.284 16.7157 526 25 526H237.354C245.638 526 252.354 519.284 252.354 511V15C252.354 6.71573 245.638 0 237.354 0Z" fill="white"/>
<path d="M90.1622 229.138C88.4982 229.138 86.9862 228.77 85.6262 228.034C84.2822 227.282 83.2262 226.258 82.4582 224.962C81.7062 223.666 81.3302 222.21 81.3302 220.594C81.3302 218.978 81.7062 217.522 82.4582 216.226C83.2262 214.93 84.2822 213.914 85.6262 213.178C86.9862 212.426 88.4982 212.05 90.1622 212.05C91.8262 212.05 93.3222 212.418 94.6502 213.154C95.9942 213.89 97.0502 214.914 97.8182 216.226C98.5862 217.522 98.9702 218.978 98.9702 220.594C98.9702 222.21 98.5862 223.674 97.8182 224.986C97.0502 226.282 95.9942 227.298 94.6502 228.034C93.3222 228.77 91.8262 229.138 90.1622 229.138ZM90.1622 227.554C91.4902 227.554 92.6902 227.258 93.7622 226.666C94.8342 226.058 95.6742 225.226 96.2822 224.17C96.8902 223.098 97.1942 221.906 97.1942 220.594C97.1942 219.282 96.8902 218.098 96.2822 217.042C95.6742 215.97 94.8342 215.138 93.7622 214.546C92.6902 213.938 91.4902 213.634 90.1622 213.634C88.8342 213.634 87.6262 213.938 86.5382 214.546C85.4662 215.138 84.6182 215.97 83.9942 217.042C83.3862 218.098 83.0822 219.282 83.0822 220.594C83.0822 221.906 83.3862 223.098 83.9942 224.17C84.6182 225.226 85.4662 226.058 86.5382 226.666C87.6262 227.258 88.8342 227.554 90.1622 227.554ZM102.591 211.186H104.295V228.994H102.591V211.186ZM113.452 216.274C115.1 216.274 116.364 216.69 117.244 217.522C118.124 218.338 118.564 219.554 118.564 221.17V228.994H116.932V227.026C116.548 227.682 115.98 228.194 115.228 228.562C114.492 228.93 113.612 229.114 112.588 229.114C111.18 229.114 110.06 228.778 109.228 228.106C108.396 227.434 107.98 226.546 107.98 225.442C107.98 224.37 108.364 223.506 109.132 222.85C109.916 222.194 111.156 221.866 112.852 221.866H116.86V221.098C116.86 220.01 116.556 219.186 115.948 218.626C115.34 218.05 114.452 217.762 113.284 217.762C112.484 217.762 111.716 217.898 110.98 218.17C110.244 218.426 109.612 218.786 109.084 219.25L108.316 217.978C108.956 217.434 109.724 217.018 110.62 216.73C111.516 216.426 112.46 216.274 113.452 216.274ZM112.852 227.77C113.812 227.77 114.636 227.554 115.324 227.122C116.012 226.674 116.524 226.034 116.86 225.202V223.138H112.9C110.74 223.138 109.66 223.89 109.66 225.394C109.66 226.13 109.94 226.714 110.5 227.146C111.06 227.562 111.844 227.77 112.852 227.77ZM115.228 211.426H117.508L113.62 214.402H111.94L115.228 211.426ZM123.385 226.498C123.753 226.498 124.057 226.626 124.297 226.882C124.537 227.122 124.657 227.426 124.657 227.794C124.657 227.986 124.625 228.194 124.561 228.418C124.513 228.642 124.433 228.898 124.321 229.186L123.313 232.498H122.161L122.977 229.018C122.721 228.938 122.513 228.794 122.353 228.586C122.193 228.362 122.113 228.098 122.113 227.794C122.113 227.426 122.233 227.122 122.473 226.882C122.713 226.626 123.017 226.498 123.385 226.498ZM137.944 229.114C136.92 229.114 135.936 228.97 134.992 228.682C134.064 228.378 133.336 228.002 132.808 227.554L133.576 226.21C134.104 226.626 134.768 226.97 135.568 227.242C136.368 227.498 137.2 227.626 138.064 227.626C139.216 227.626 140.064 227.45 140.608 227.098C141.168 226.73 141.448 226.218 141.448 225.562C141.448 225.098 141.296 224.738 140.992 224.482C140.688 224.21 140.304 224.01 139.84 223.882C139.376 223.738 138.76 223.602 137.992 223.474C136.968 223.282 136.144 223.09 135.52 222.898C134.896 222.69 134.36 222.346 133.912 221.866C133.48 221.386 133.264 220.722 133.264 219.874C133.264 218.818 133.704 217.954 134.584 217.282C135.464 216.61 136.688 216.274 138.256 216.274C139.072 216.274 139.888 216.386 140.704 216.61C141.52 216.818 142.192 217.098 142.72 217.45L141.976 218.818C140.936 218.098 139.696 217.738 138.256 217.738C137.168 217.738 136.344 217.93 135.784 218.314C135.24 218.698 134.968 219.202 134.968 219.826C134.968 220.306 135.12 220.69 135.424 220.978C135.744 221.266 136.136 221.482 136.6 221.626C137.064 221.754 137.704 221.89 138.52 222.034C139.528 222.226 140.336 222.418 140.944 222.61C141.552 222.802 142.072 223.13 142.504 223.594C142.936 224.058 143.152 224.698 143.152 225.514C143.152 226.618 142.688 227.498 141.76 228.154C140.848 228.794 139.576 229.114 137.944 229.114ZM157.294 223.21H146.734C146.83 224.522 147.334 225.586 148.246 226.402C149.158 227.202 150.31 227.602 151.702 227.602C152.486 227.602 153.206 227.466 153.862 227.194C154.518 226.906 155.086 226.49 155.566 225.946L156.526 227.05C155.966 227.722 155.262 228.234 154.414 228.586C153.582 228.938 152.662 229.114 151.654 229.114C150.358 229.114 149.206 228.842 148.198 228.298C147.206 227.738 146.43 226.97 145.87 225.994C145.31 225.018 145.03 223.914 145.03 222.682C145.03 221.45 145.294 220.346 145.822 219.37C146.366 218.394 147.102 217.634 148.03 217.09C148.974 216.546 150.03 216.274 151.198 216.274C152.366 216.274 153.414 216.546 154.342 217.09C155.27 217.634 155.998 218.394 156.526 219.37C157.054 220.33 157.318 221.434 157.318 222.682L157.294 223.21ZM151.198 217.738C149.982 217.738 148.958 218.13 148.126 218.914C147.31 219.682 146.846 220.69 146.734 221.938H155.686C155.574 220.69 155.102 219.682 154.27 218.914C153.454 218.13 152.43 217.738 151.198 217.738ZM158.914 233.77C158.386 233.77 157.89 233.698 157.426 233.554C156.946 233.426 156.554 233.226 156.25 232.954L156.85 231.658C157.346 232.09 158.002 232.306 158.818 232.306C159.49 232.306 160.002 232.106 160.354 231.706C160.722 231.306 160.906 230.714 160.906 229.93V216.37H162.61V229.93C162.61 231.114 162.29 232.05 161.65 232.738C161.01 233.426 160.098 233.77 158.914 233.77ZM161.77 213.586C161.418 213.586 161.122 213.466 160.882 213.226C160.642 212.986 160.522 212.698 160.522 212.362C160.522 212.042 160.642 211.762 160.882 211.522C161.122 211.282 161.418 211.162 161.77 211.162C162.122 211.162 162.418 211.282 162.658 211.522C162.898 211.746 163.018 212.018 163.018 212.338C163.018 212.69 162.898 212.986 162.658 213.226C162.418 213.466 162.122 213.586 161.77 213.586ZM171.788 216.274C173.436 216.274 174.7 216.69 175.58 217.522C176.46 218.338 176.9 219.554 176.9 221.17V228.994H175.268V227.026C174.884 227.682 174.316 228.194 173.564 228.562C172.828 228.93 171.948 229.114 170.924 229.114C169.516 229.114 168.396 228.778 167.564 228.106C166.732 227.434 166.316 226.546 166.316 225.442C166.316 224.37 166.7 223.506 167.468 222.85C168.252 222.194 169.492 221.866 171.188 221.866H175.196V221.098C175.196 220.01 174.892 219.186 174.284 218.626C173.676 218.05 172.788 217.762 171.62 217.762C170.82 217.762 170.052 217.898 169.316 218.17C168.58 218.426 167.948 218.786 167.42 219.25L166.652 217.978C167.292 217.434 168.06 217.018 168.956 216.73C169.852 216.426 170.796 216.274 171.788 216.274ZM171.188 227.77C172.148 227.77 172.972 227.554 173.66 227.122C174.348 226.674 174.86 226.034 175.196 225.202V223.138H171.236C169.076 223.138 167.996 223.89 167.996 225.394C167.996 226.13 168.276 226.714 168.836 227.146C169.396 227.562 170.18 227.77 171.188 227.77ZM58.0409 245.034C59.2889 245.034 60.4009 245.306 61.3769 245.85C62.3689 246.394 63.1449 247.162 63.7049 248.154C64.2649 249.146 64.5449 250.29 64.5449 251.586C64.5449 252.882 64.2649 254.034 63.7049 255.042C63.1449 256.034 62.3689 256.802 61.3769 257.346C60.4009 257.89 59.2889 258.162 58.0409 258.162C57.1609 258.162 56.3529 258.01 55.6169 257.706C54.8969 257.402 54.2889 256.946 53.7929 256.338V257.994H50.9369V240.186H53.9369V246.738C54.4489 246.178 55.0489 245.754 55.7369 245.466C56.4409 245.178 57.2089 245.034 58.0409 245.034ZM57.7049 255.594C58.8089 255.594 59.7129 255.226 60.4169 254.49C61.1369 253.754 61.4969 252.786 61.4969 251.586C61.4969 250.386 61.1369 249.418 60.4169 248.682C59.7129 247.946 58.8089 247.578 57.7049 247.578C56.9849 247.578 56.3369 247.746 55.7609 248.082C55.1849 248.402 54.7289 248.866 54.3929 249.474C54.0569 250.082 53.8889 250.786 53.8889 251.586C53.8889 252.386 54.0569 253.09 54.3929 253.698C54.7289 254.306 55.1849 254.778 55.7609 255.114C56.3369 255.434 56.9849 255.594 57.7049 255.594ZM79.4381 251.658C79.4381 251.866 79.4221 252.162 79.3901 252.546H69.3341C69.5101 253.49 69.9661 254.242 70.7021 254.802C71.4541 255.346 72.3821 255.618 73.4861 255.618C74.8941 255.618 76.0541 255.154 76.9661 254.226L78.5741 256.074C77.9981 256.762 77.2701 257.282 76.3901 257.634C75.5101 257.986 74.5181 258.162 73.4141 258.162C72.0061 258.162 70.7661 257.882 69.6941 257.322C68.6221 256.762 67.7901 255.986 67.1981 254.994C66.6221 253.986 66.3341 252.85 66.3341 251.586C66.3341 250.338 66.6141 249.218 67.1741 248.226C67.7501 247.218 68.5421 246.434 69.5501 245.874C70.5581 245.314 71.6941 245.034 72.9581 245.034C74.2061 245.034 75.3181 245.314 76.2941 245.874C77.2861 246.418 78.0541 247.194 78.5981 248.202C79.1581 249.194 79.4381 250.346 79.4381 251.658ZM72.9581 247.434C71.9981 247.434 71.1821 247.722 70.5101 248.298C69.8541 248.858 69.4541 249.61 69.3101 250.554H76.5821C76.4541 249.626 76.0621 248.874 75.4061 248.298C74.7501 247.722 73.9341 247.434 72.9581 247.434ZM98.4957 245.034C100.112 245.034 101.392 245.506 102.336 246.45C103.28 247.378 103.752 248.778 103.752 250.65V257.994H100.752V251.034C100.752 249.914 100.504 249.074 100.008 248.514C99.5117 247.938 98.7997 247.65 97.8717 247.65C96.8637 247.65 96.0557 247.986 95.4477 248.658C94.8397 249.314 94.5357 250.258 94.5357 251.49V257.994H91.5357V251.034C91.5357 249.914 91.2877 249.074 90.7917 248.514C90.2957 247.938 89.5837 247.65 88.6557 247.65C87.6317 247.65 86.8157 247.978 86.2077 248.634C85.6157 249.29 85.3197 250.242 85.3197 251.49V257.994H82.3197V245.178H85.1757V246.81C85.6557 246.234 86.2557 245.794 86.9757 245.49C87.6957 245.186 88.4957 245.034 89.3757 245.034C90.3357 245.034 91.1837 245.218 91.9197 245.586C92.6717 245.938 93.2637 246.466 93.6957 247.17C94.2237 246.498 94.9037 245.978 95.7357 245.61C96.5677 245.226 97.4877 245.034 98.4957 245.034ZM126.218 245.178L120.722 257.994H117.626L112.13 245.178H115.25L119.234 254.682L123.338 245.178H126.218ZM128.093 245.178H131.093V257.994H128.093V245.178ZM129.605 243.066C129.061 243.066 128.605 242.898 128.237 242.562C127.869 242.21 127.685 241.778 127.685 241.266C127.685 240.754 127.869 240.33 128.237 239.994C128.605 239.642 129.061 239.466 129.605 239.466C130.149 239.466 130.605 239.634 130.973 239.97C131.341 240.29 131.525 240.698 131.525 241.194C131.525 241.722 131.341 242.17 130.973 242.538C130.621 242.89 130.165 243.066 129.605 243.066ZM142.303 245.034C143.919 245.034 145.215 245.506 146.191 246.45C147.167 247.394 147.655 248.794 147.655 250.65V257.994H144.655V251.034C144.655 249.914 144.391 249.074 143.863 248.514C143.335 247.938 142.583 247.65 141.607 247.65C140.503 247.65 139.631 247.986 138.991 248.658C138.351 249.314 138.031 250.266 138.031 251.514V257.994H135.031V245.178H137.887V246.834C138.383 246.242 139.007 245.794 139.759 245.49C140.511 245.186 141.359 245.034 142.303 245.034ZM164.13 240.186V257.994H161.25V256.338C160.754 256.946 160.138 257.402 159.402 257.706C158.682 258.01 157.882 258.162 157.002 258.162C155.77 258.162 154.658 257.89 153.666 257.346C152.69 256.802 151.922 256.034 151.362 255.042C150.802 254.034 150.522 252.882 150.522 251.586C150.522 250.29 150.802 249.146 151.362 248.154C151.922 247.162 152.69 246.394 153.666 245.85C154.658 245.306 155.77 245.034 157.002 245.034C157.85 245.034 158.626 245.178 159.33 245.466C160.034 245.754 160.634 246.186 161.13 246.762V240.186H164.13ZM157.362 255.594C158.082 255.594 158.73 255.434 159.306 255.114C159.882 254.778 160.338 254.306 160.674 253.698C161.01 253.09 161.178 252.386 161.178 251.586C161.178 250.786 161.01 250.082 160.674 249.474C160.338 248.866 159.882 248.402 159.306 248.082C158.73 247.746 158.082 247.578 157.362 247.578C156.642 247.578 155.994 247.746 155.418 248.082C154.842 248.402 154.386 248.866 154.05 249.474C153.714 250.082 153.546 250.786 153.546 251.586C153.546 252.386 153.714 253.09 154.05 253.698C154.386 254.306 154.842 254.778 155.418 255.114C155.994 255.434 156.642 255.594 157.362 255.594ZM180.102 251.658C180.102 251.866 180.086 252.162 180.054 252.546H169.998C170.174 253.49 170.63 254.242 171.366 254.802C172.118 255.346 173.046 255.618 174.15 255.618C175.558 255.618 176.718 255.154 177.63 254.226L179.238 256.074C178.662 256.762 177.934 257.282 177.054 257.634C176.174 257.986 175.182 258.162 174.078 258.162C172.67 258.162 171.43 257.882 170.358 257.322C169.286 256.762 168.454 255.986 167.862 254.994C167.286 253.986 166.998 252.85 166.998 251.586C166.998 250.338 167.278 249.218 167.838 248.226C168.414 247.218 169.206 246.434 170.214 245.874C171.222 245.314 172.358 245.034 173.622 245.034C174.87 245.034 175.982 245.314 176.958 245.874C177.95 246.418 178.718 247.194 179.262 248.202C179.822 249.194 180.102 250.346 180.102 251.658ZM173.622 247.434C172.662 247.434 171.846 247.722 171.174 248.298C170.518 248.858 170.118 249.61 169.974 250.554H177.246C177.118 249.626 176.726 248.874 176.07 248.298C175.414 247.722 174.598 247.434 173.622 247.434ZM194.441 245.274C196.089 245.274 197.353 245.69 198.233 246.522C199.113 247.338 199.553 248.554 199.553 250.17V257.994H197.921V256.026C197.537 256.682 196.969 257.194 196.217 257.562C195.481 257.93 194.601 258.114 193.577 258.114C192.169 258.114 191.049 257.778 190.217 257.106C189.385 256.434 188.969 255.546 188.969 254.442C188.969 253.37 189.353 252.506 190.121 251.85C190.905 251.194 192.145 250.866 193.841 250.866H197.849V250.098C197.849 249.01 197.545 248.186 196.937 247.626C196.329 247.05 195.441 246.762 194.273 246.762C193.473 246.762 192.705 246.898 191.969 247.17C191.233 247.426 190.601 247.786 190.073 248.25L189.305 246.978C189.945 246.434 190.713 246.018 191.609 245.73C192.505 245.426 193.449 245.274 194.441 245.274ZM193.841 256.77C194.801 256.77 195.625 256.554 196.313 256.122C197.001 255.674 197.513 255.034 197.849 254.202V252.138H193.889C191.729 252.138 190.649 252.89 190.649 254.394C190.649 255.13 190.929 255.714 191.489 256.146C192.049 256.562 192.833 256.77 193.841 256.77ZM209.388 258.114C208.172 258.114 207.076 257.842 206.1 257.298C205.124 256.738 204.356 255.97 203.796 254.994C203.236 254.018 202.956 252.914 202.956 251.682C202.956 250.45 203.236 249.346 203.796 248.37C204.356 247.394 205.124 246.634 206.1 246.09C207.076 245.546 208.172 245.274 209.388 245.274C210.604 245.274 211.7 245.546 212.676 246.09C213.652 246.634 214.412 247.394 214.956 248.37C215.516 249.346 215.796 250.45 215.796 251.682C215.796 252.914 215.516 254.018 214.956 254.994C214.412 255.97 213.652 256.738 212.676 257.298C211.7 257.842 210.604 258.114 209.388 258.114ZM209.388 256.602C210.284 256.602 211.084 256.402 211.788 256.002C212.508 255.586 213.068 255.002 213.468 254.25C213.868 253.498 214.068 252.642 214.068 251.682C214.068 250.722 213.868 249.866 213.468 249.114C213.068 248.362 212.508 247.786 211.788 247.386C211.084 246.97 210.284 246.762 209.388 246.762C208.492 246.762 207.684 246.97 206.964 247.386C206.26 247.786 205.7 248.362 205.284 249.114C204.884 249.866 204.684 250.722 204.684 251.682C204.684 252.642 204.884 253.498 205.284 254.25C205.7 255.002 206.26 255.586 206.964 256.002C207.684 256.402 208.492 256.602 209.388 256.602ZM101.333 270.194V286.994H99.6286V273.554L93.0286 284.858H92.1886L85.5886 273.626V286.994H83.8846V270.194H85.3486L92.6446 282.65L99.8686 270.194H101.333ZM110.862 274.274C112.51 274.274 113.774 274.69 114.654 275.522C115.534 276.338 115.974 277.554 115.974 279.17V286.994H114.342V285.026C113.958 285.682 113.39 286.194 112.638 286.562C111.902 286.93 111.022 287.114 109.998 287.114C108.59 287.114 107.47 286.778 106.638 286.106C105.806 285.434 105.39 284.546 105.39 283.442C105.39 282.37 105.774 281.506 106.542 280.85C107.326 280.194 108.566 279.866 110.262 279.866H114.27V279.098C114.27 278.01 113.966 277.186 113.358 276.626C112.75 276.05 111.862 275.762 110.694 275.762C109.894 275.762 109.126 275.898 108.39 276.17C107.654 276.426 107.022 276.786 106.494 277.25L105.726 275.978C106.366 275.434 107.134 275.018 108.03 274.73C108.926 274.426 109.87 274.274 110.862 274.274ZM110.262 285.77C111.222 285.77 112.046 285.554 112.734 285.122C113.422 284.674 113.934 284.034 114.27 283.202V281.138H110.31C108.15 281.138 107.07 281.89 107.07 283.394C107.07 284.13 107.35 284.714 107.91 285.146C108.47 285.562 109.254 285.77 110.262 285.77ZM127.251 286.226C126.931 286.514 126.531 286.738 126.051 286.898C125.587 287.042 125.099 287.114 124.587 287.114C123.403 287.114 122.491 286.794 121.851 286.154C121.211 285.514 120.891 284.61 120.891 283.442V275.81H118.635V274.37H120.891V271.61H122.595V274.37H126.435V275.81H122.595V283.346C122.595 284.098 122.779 284.674 123.147 285.074C123.531 285.458 124.075 285.65 124.779 285.65C125.131 285.65 125.467 285.594 125.787 285.482C126.123 285.37 126.411 285.21 126.651 285.002L127.251 286.226ZM135.139 287.114C133.891 287.114 132.771 286.842 131.779 286.298C130.803 285.754 130.035 284.994 129.475 284.018C128.915 283.026 128.635 281.914 128.635 280.682C128.635 279.45 128.915 278.346 129.475 277.37C130.035 276.394 130.803 275.634 131.779 275.09C132.771 274.546 133.891 274.274 135.139 274.274C136.227 274.274 137.195 274.49 138.043 274.922C138.907 275.338 139.587 275.954 140.083 276.77L138.811 277.634C138.395 277.01 137.867 276.546 137.227 276.242C136.587 275.922 135.891 275.762 135.139 275.762C134.227 275.762 133.403 275.97 132.667 276.386C131.947 276.786 131.379 277.362 130.963 278.114C130.563 278.866 130.363 279.722 130.363 280.682C130.363 281.658 130.563 282.522 130.963 283.274C131.379 284.01 131.947 284.586 132.667 285.002C133.403 285.402 134.227 285.602 135.139 285.602C135.891 285.602 136.587 285.45 137.227 285.146C137.867 284.842 138.395 284.378 138.811 283.754L140.083 284.618C139.587 285.434 138.907 286.058 138.043 286.49C137.179 286.906 136.211 287.114 135.139 287.114ZM149.675 274.274C151.259 274.274 152.515 274.738 153.443 275.666C154.387 276.578 154.859 277.914 154.859 279.674V286.994H153.155V279.842C153.155 278.53 152.827 277.53 152.171 276.842C151.515 276.154 150.579 275.81 149.363 275.81C148.003 275.81 146.923 276.218 146.123 277.034C145.339 277.834 144.947 278.946 144.947 280.37V286.994H143.243V269.186H144.947V276.578C145.411 275.842 146.051 275.274 146.867 274.874C147.683 274.474 148.619 274.274 149.675 274.274ZM163.662 270.506C162.926 270.506 162.366 270.706 161.982 271.106C161.614 271.506 161.43 272.098 161.43 272.882V274.37H165.318V275.81H161.478V286.994H159.774V275.81H157.518V274.37H159.774V272.81C159.774 271.658 160.102 270.746 160.758 270.074C161.43 269.402 162.374 269.066 163.59 269.066C164.07 269.066 164.534 269.138 164.982 269.282C165.43 269.41 165.806 269.602 166.11 269.858L165.534 271.13C165.038 270.714 164.414 270.506 163.662 270.506ZM178.461 274.37L172.149 288.506C171.637 289.69 171.045 290.53 170.373 291.026C169.701 291.522 168.893 291.77 167.949 291.77C167.341 291.77 166.773 291.674 166.245 291.482C165.717 291.29 165.261 291.002 164.877 290.618L165.669 289.346C166.309 289.986 167.077 290.306 167.973 290.306C168.549 290.306 169.037 290.146 169.437 289.826C169.853 289.506 170.237 288.962 170.589 288.194L171.141 286.97L165.501 274.37H167.277L172.029 285.098L176.781 274.37H178.461ZM180.597 270.194H182.613L182.253 281.954H180.933L180.597 270.194ZM181.605 287.114C181.253 287.114 180.949 286.994 180.693 286.754C180.453 286.498 180.333 286.202 180.333 285.866C180.333 285.514 180.453 285.226 180.693 285.002C180.933 284.762 181.237 284.642 181.605 284.642C181.957 284.642 182.253 284.762 182.493 285.002C182.733 285.226 182.853 285.514 182.853 285.866C182.853 286.202 182.733 286.498 182.493 286.754C182.253 286.994 181.957 287.114 181.605 287.114Z" fill="#C23334"/>
<path d="M144.496 21.903C144.594 21.3483 144.661 20.5121 144.643 19.5822C144.607 17.6798 142.428 17.4207 140.593 17.9218C139.384 18.2538 138.085 18.3165 136.947 18.8817C136.411 19.1461 135.926 19.5057 135.487 20.0137C134.776 20.8347 134.362 21.9049 134.375 22.9932C134.383 23.4696 134.475 23.9386 134.635 24.3835C134.763 24.74 135.623 24.4822 135.836 24.169C136.443 23.2786 138.673 22.665 139.041 22.9171C139.461 23.2044 139.662 25.4733 139.054 26.3637C138.918 26.5662 138.749 26.7345 138.56 26.8666C138.367 27.0013 138.361 27.472 138.595 27.4977C140.295 27.6841 143.54 27.2779 144.496 21.903Z" fill="#C23334"/>
<path d="M144.475 17.6283C144.316 16.6424 143.135 16.4831 142.329 17.0724C141.717 17.5196 141.388 18.3162 141.572 19.0513C142.164 21.4139 142.067 24.508 141.001 25.8968C140.285 26.8275 139.359 27.151 138.627 27.2453C138.523 27.2586 138.493 27.4875 138.596 27.4988C140.296 27.6843 143.541 27.2791 144.497 21.9041C144.661 20.9742 144.737 19.2546 144.475 17.6283Z" fill="#C23334"/>
<path d="M135.655 26.0308C135.624 25.9527 135.593 25.872 135.567 25.7904C135.565 25.7845 135.564 25.7784 135.564 25.7723C135.564 25.7664 135.564 25.7606 135.562 25.755C135.531 25.6464 135.513 25.536 135.506 25.4248C135.506 25.4102 135.499 25.396 135.499 25.3814C135.478 24.9661 135.582 24.54 135.836 24.17C137.116 22.2755 140.362 22.953 142.23 21.6346C142.618 21.3608 142.967 21.0217 143.262 20.5883C144.858 18.2367 144.121 16.1029 143.927 15.6396C143.908 15.5927 143.849 15.5876 143.816 15.6267C142.94 16.6898 141.929 17.5552 140.593 17.9218C139.384 18.2538 138.085 18.3166 136.947 18.8817C136.411 19.1461 135.92 19.5057 135.48 20.0137C134.776 20.8347 134.362 21.905 134.375 22.9932C134.388 24.124 134.876 25.2137 135.646 26.0367C135.66 26.0519 135.662 26.0505 135.655 26.0308Z" fill="#C23334"/>
<path d="M136.947 18.8816C136.411 19.1461 135.92 19.5057 135.487 20.0137C134.776 20.8347 134.362 21.9049 134.375 22.9932C134.388 24.0852 134.847 25.1383 135.571 25.9507C135.28 25.593 134.524 24.363 135.771 22.3653C137.277 19.9623 139.92 21.1153 141.639 19.8482C141.871 19.6774 142.079 19.4864 142.267 19.2823C143.094 18.3804 141.773 17.5994 140.593 17.9218C139.384 18.2538 138.085 18.3166 136.947 18.8816Z" fill="#C23334"/>
<path d="M131.403 19.1044C131.06 18.885 130.523 18.6083 129.901 18.3614C128.617 17.8516 127.836 19.2405 127.655 20.6104C127.539 21.5151 127.222 22.4046 127.28 23.3256C127.312 23.7575 127.409 24.1865 127.629 24.6232C127.978 25.3272 128.579 25.9037 129.309 26.1977C129.631 26.3261 129.97 26.396 130.313 26.4127C130.588 26.4261 130.653 25.7781 130.505 25.546C130.078 24.8914 130.292 23.2247 130.557 23.0468C130.867 22.8442 132.437 23.3446 132.864 23.9991C132.961 24.1484 133.027 24.3092 133.063 24.4736C133.098 24.6361 133.411 24.7689 133.491 24.6232C134.092 23.5339 134.725 21.2421 131.403 19.1044Z" fill="#C23334"/>
<path d="M128.546 17.926C127.842 17.7558 127.405 18.5009 127.574 19.2058C127.702 19.743 128.147 20.1886 128.693 20.271C130.434 20.5335 132.468 21.4607 133.097 22.5631C133.518 23.304 133.474 24.016 133.332 24.5338C133.313 24.6037 133.456 24.6861 133.491 24.6226C134.092 23.5353 134.725 21.2428 131.403 19.1053C130.827 18.7358 129.703 18.2051 128.546 17.926Z" fill="#C23334"/>
<path d="M131.694 26.1857C131.63 26.1857 131.565 26.1819 131.507 26.1743C131.5 26.1734 131.494 26.1734 131.487 26.1724C131.41 26.161 131.326 26.142 131.248 26.1162C131.242 26.1144 131.242 26.1134 131.235 26.1115C130.945 26.0135 130.679 25.8224 130.505 25.5455C129.598 24.1534 130.952 22.1688 130.592 20.5469C130.518 20.2111 130.389 19.8826 130.182 19.5648C129.057 17.8382 127.422 17.7383 127.06 17.7393C127.027 17.7404 127.007 17.7749 127.023 17.8039C127.488 18.6902 127.788 19.6103 127.655 20.6112C127.539 21.5158 127.222 22.4053 127.28 23.3261C127.312 23.758 127.409 24.1871 127.629 24.6237C127.978 25.3277 128.579 25.9041 129.309 26.1981C130.07 26.5021 130.933 26.4783 131.696 26.1958C131.71 26.1903 131.71 26.1869 131.694 26.1857Z" fill="#C23334"/>
<path d="M127.28 23.3266C127.306 23.7585 127.409 24.1876 127.629 24.6242C127.978 25.3282 128.579 25.9046 129.309 26.1986C130.04 26.4926 130.873 26.4802 131.617 26.2233C131.293 26.3185 130.266 26.4821 129.277 25.0856C128.094 23.4056 129.6 21.9538 129.232 20.4489C129.183 20.2476 129.114 20.0562 129.032 19.875C128.663 19.0688 127.771 19.7326 127.655 20.6116C127.539 21.5163 127.222 22.4048 127.28 23.3266Z" fill="#C23334"/>
<path d="M119.84 46.3484C116.919 46.3684 114.367 44.3915 113.61 41.5328C112.867 38.713 114.153 35.7202 116.719 34.295C119.246 32.8947 122.439 33.3856 124.429 35.4766C124.784 35.8467 125.082 36.1378 124.597 36.6991C124.138 37.2375 124.571 38.029 125.288 37.971C125.877 37.9234 126.006 38.1955 126.09 38.6389C126.872 42.6087 123.86 46.3218 119.84 46.3484ZM119.305 35.7016C119.398 35.6701 119.554 35.7789 119.627 35.8448C119.672 35.8857 120.015 35.9466 120.383 35.8248C120.752 35.703 121.101 35.3757 121.185 35.0685C121.314 34.5814 120.939 34.2532 120.435 34.2009C118.877 34.042 117.456 34.4026 116.266 35.4224C116.221 35.4595 116.183 35.5042 116.157 35.5546C115.872 36.0122 116.279 36.5535 116.809 36.4888C116.868 36.4812 116.926 36.4708 116.984 36.4555C117.769 36.2406 118.534 35.9625 119.305 35.7016Z" fill="#C23334"/>
<path d="M137.653 41.3795C137.368 41.0247 137.148 40.7259 136.599 41.1065C136.004 41.5136 135.255 41.0199 135.384 40.3178C135.513 39.6291 135.177 39.4816 134.667 39.3132C130.524 37.9443 126.278 41.0152 126.271 45.3903C126.271 48.2489 128.055 50.6786 130.776 51.5357C133.445 52.3719 136.412 51.3321 137.963 49.0147C139.533 46.6764 139.404 43.5666 137.653 41.3795ZM133.93 41.3309C133.846 41.6383 133.503 41.9674 133.129 42.0892C132.76 42.21 132.418 42.1501 132.372 42.1111C132.303 42.0434 132.143 41.936 132.051 41.967C131.278 42.2264 130.509 42.5073 129.729 42.718C129.671 42.7351 129.613 42.7437 129.555 42.7522C129.018 42.817 128.618 42.2756 128.902 41.8209C128.928 41.7686 128.966 41.7258 129.012 41.6868C130.201 40.665 131.623 40.3054 133.18 40.4653C133.684 40.5166 134.059 40.8458 133.93 41.3309Z" fill="#C23334"/>
<path d="M136.845 34.898C136.832 32.1478 136.076 29.5726 135.016 27.0706C134.945 26.9051 134.841 26.7434 134.822 26.5712C134.802 26.4457 134.867 26.2449 134.964 26.1917C135.061 26.1365 135.261 26.1802 135.365 26.2525C135.488 26.3314 135.578 26.4808 135.643 26.6178C137.394 30.2642 138.376 34.0428 137.504 38.1105C137.342 38.8583 137.077 39.5927 136.761 40.2919C136.758 40.2973 136.756 40.3027 136.753 40.308C136.558 40.697 135.703 40.334 135.875 39.9342C136.567 38.3189 136.845 36.637 136.845 34.898Z" fill="#C23334"/>
<path d="M133.387 27.1175C133.374 28.6083 132.819 29.9239 132.063 31.1683C130.492 33.7454 128.346 35.7479 125.832 37.3605C125.465 37.5944 124.978 36.7904 125.33 36.5338C125.334 36.5311 125.337 36.5286 125.341 36.5261C127.623 34.9926 129.684 33.2403 131.151 30.8762C131.959 29.5786 132.586 28.2087 132.683 26.6428C132.7 26.3202 133.242 26.3272 133.362 26.627C133.366 26.6373 133.37 26.6477 133.374 26.658C133.426 26.7922 133.387 26.9624 133.387 27.1175Z" fill="#C23334"/>
</g>
<defs>
<filter id="filter0_d" x="0" y="0" width="262.999" height="556" filterUnits="userSpaceOnUse" color-interpolation-filters="sRGB">
<feFlood flood-opacity="0" result="BackgroundImageFix"/>
<feColorMatrix in="SourceAlpha" type="matrix" values="0 0 0 0 0 0 0 0 0 0 0 0 0 0 0 0 0 0 127 0"/>
<feOffset dy="20"/>
<feGaussianBlur stdDeviation="5"/>
<feColorMatrix type="matrix" values="0 0 0 0 0 0 0 0 0 0 0 0 0 0 0 0 0 0 0.25 0"/>
<feBlend mode="normal" in2="BackgroundImageFix" result="effect1_dropShadow"/>
<feBlend mode="normal" in="SourceGraphic" in2="effect1_dropShadow" result="shape"/>
</filter>
</defs>
</svg>
