<svg width="314" height="106" viewBox="0 0 314 106" fill="none" xmlns="http://www.w3.org/2000/svg">
<g filter="url(#filter0_d)">
<path d="M13.8192 32.7572C18.1109 32.8752 20.2568 34.1199 20.2568 36.4912C20.2069 37.5337 19.9253 38.5571 19.4282 39.5021C19.988 37.5984 20.8472 35.7748 21.9801 34.0855C22.2556 33.5933 22.6733 33.1753 23.1903 32.8744C23.7072 32.5736 24.3045 32.4006 24.9213 32.3734C25.147 32.3751 25.3719 32.3974 25.5924 32.4397C30.4807 33.3991 32.9247 35.5663 32.9247 38.9413C32.9247 39.267 32.8997 39.5925 32.8502 39.9153C34.5073 34.8676 36.5841 32.3414 39.0806 32.3364H39.205C42.0749 32.8054 44.7081 34.062 46.7362 35.9303C47.9508 37.1468 48.597 38.731 48.5424 40.3581C48.5371 41.2546 48.4064 42.1471 48.1529 43.0148L41.2928 62.2681C36.3217 60.6347 33.8362 58.1896 33.8362 54.9327C33.8407 54.2134 33.9437 53.4972 34.1426 52.8001L39.7186 38.0853C39.7313 37.9921 39.7313 37.8979 39.7186 37.8047C39.7171 37.6084 39.6647 37.4151 39.5654 37.2397C39.4664 37.0645 39.3232 36.9118 39.147 36.7938C38.7069 36.489 38.1888 36.2861 37.6391 36.2034L27.5145 62.3197C25.2287 61.3543 23.1963 59.9713 21.5492 58.2609C20.6466 57.3025 20.1587 56.0878 20.1739 54.8368C20.1822 54.1876 20.2881 53.5423 20.4887 52.9181L25.7083 38.4837C25.7191 38.3807 25.7191 38.2769 25.7083 38.1737C25.6982 37.976 25.6292 37.7844 25.5084 37.6184C25.3875 37.4524 25.2191 37.318 25.0207 37.2291C24.5131 36.9579 23.9497 36.7797 23.3637 36.7052L13.7446 62.2828C10.6791 61.2989 8.54702 59.9238 7.34842 58.1576C6.75871 57.2465 6.47141 56.2049 6.51992 55.1542C6.58309 53.5147 6.95271 51.8959 7.61355 50.3647L13.8192 32.7572Z" fill="#C23334"/>
<path d="M75.4525 36.6685C70.2927 37.8874 65.6986 40.5302 62.3288 44.2177C58.8933 47.9469 57.0593 51.826 56.8274 55.8554C56.8274 56.4161 56.9683 56.7408 57.2583 56.8369C57.4581 56.9139 57.6708 56.9613 57.8879 56.977C58.037 56.9678 58.1824 56.9323 58.3162 56.8728C58.4498 56.8132 58.5689 56.7308 58.6668 56.6302C63.3824 51.241 67.7316 45.6052 71.6911 39.753C74.0993 40.7027 75.7341 41.7136 76.5959 42.7861C77.3723 43.6546 77.8242 44.7177 77.8883 45.8265C77.8636 46.7049 77.6529 47.5712 77.267 48.3798L71.9313 62.2903L69.4457 60.9619L69.0066 60.6815C68.2002 60.2469 67.4783 59.6987 66.8691 59.0581C66.3455 58.4386 66.0765 57.678 66.1068 56.9032C66.0947 56.6942 66.0947 56.4849 66.1068 56.2759C66.4926 54.5332 67.195 52.8582 68.1864 51.3168L63.4058 58.8071C61.7489 61.0211 60.3486 62.1206 59.0893 62.1797L57.0512 62.2681C54.7755 62.2681 52.6848 61.1146 50.7792 58.8071C49.8322 57.0327 49.3506 55.0896 49.3707 53.1249C49.4324 50.5917 50.0166 48.0903 51.094 45.7454C52.9561 41.0026 56.4753 36.9162 61.1358 34.0855C63.2112 32.9348 65.5935 32.2981 68.0372 32.2407C68.5367 32.2384 69.0356 32.273 69.5286 32.344C72.2462 32.713 74.2208 34.1544 75.4525 36.6685Z" fill="#C23334"/>
<path d="M107.814 26.9566H108.129C108.667 26.9298 109.198 27.0794 109.62 27.3774C109.786 27.4899 109.92 27.6351 110.012 27.8016C110.104 27.968 110.151 28.1511 110.151 28.3367C110.144 28.5047 110.078 28.6664 109.962 28.799C109.846 28.9316 109.686 29.028 109.505 29.0745L97.3832 30.5505L88.866 55.2574L93.1412 49.2135C93.2344 49.1205 93.3497 49.047 93.4786 48.9985C93.6077 48.9499 93.7471 48.9276 93.8869 48.9331C94.1276 48.9521 94.3644 48.9993 94.5912 49.0733C95.0163 49.2243 95.3843 49.4802 95.6517 49.8113C95.8637 50.0126 95.9897 50.2737 96.0079 50.5491C96.0053 50.7168 95.9659 50.8822 95.892 51.0363L89.4543 60.7846C89.1377 61.2082 88.7127 61.5588 88.2144 61.8077C87.716 62.0565 87.1586 62.1965 86.5876 62.2162H85.5106C84.8726 62.2162 83.9115 61.6849 82.6274 60.6814C81.4006 59.9375 80.4149 58.9196 79.7689 57.7295C79.4014 57.0915 79.2246 56.3799 79.2553 55.6633C79.3993 53.4651 79.9595 51.3044 80.9123 49.2725C81.2521 48.3427 81.9976 46.21 83.1658 42.8966C84.3341 39.5831 85.6018 35.8786 86.9936 31.8271L85.1875 32.0412C84.0888 32.1723 82.9819 32.2413 81.8734 32.2478C78.5593 32.2478 76.8525 31.355 76.8525 29.5543C76.9028 28.6808 77.1567 27.8263 77.5982 27.0452C80.9438 27.5133 84.3285 27.7231 87.7145 27.6725H88.3856C89.4516 24.5042 90.3353 21.7787 91.0369 19.4959C91.5149 18.1 91.8748 16.6743 92.1139 15.2305C97.0851 15.9094 99.5706 18.1798 99.5706 22.0418C99.5315 23.526 99.2524 24.9974 98.742 26.4106L98.3858 27.4289C101.479 27.2765 104.622 27.119 107.814 26.9566Z" fill="#C23334"/>
<path d="M125.197 36.7055C119.93 38.0125 115.243 40.7337 111.775 44.4984C108.246 48.2915 106.481 51.7352 106.481 54.8297C106.48 55.1927 106.508 55.5551 106.564 55.9146C106.821 56.9624 107.798 57.4864 109.505 57.4864C110.177 57.4826 110.847 57.4308 111.51 57.3314C114.471 56.8149 118.157 54.6009 122.571 50.6898C122.654 50.6898 122.703 50.8743 122.728 51.2433V51.4868C122.719 52.0159 122.666 52.5437 122.571 53.066C122.459 53.8454 122.257 54.612 121.966 55.3537C121.683 56.0985 121.251 56.7911 120.69 57.3978C119.361 59.0276 117.518 60.2683 115.396 60.9621C113.188 61.8097 110.815 62.261 108.411 62.2905C107.914 62.2905 107.417 62.2905 106.92 62.2167C105.621 62.151 104.359 61.8094 103.239 61.2199C102.119 60.6306 101.174 59.811 100.482 58.8295C99.5339 57.037 99.0524 55.0769 99.0739 53.0955C99.1354 50.5624 99.7196 48.0609 100.797 45.716C102.679 40.9987 106.196 36.9363 110.839 34.1153C112.921 32.9757 115.305 32.3492 117.749 32.2999C118.248 32.3013 118.747 32.3359 119.24 32.4033C121.98 32.7574 123.965 34.1915 125.197 36.7055Z" fill="#C23334"/>
<path d="M156.028 36.2476C156.529 37.0222 156.776 37.9072 156.74 38.801C156.656 40.1327 156.406 41.4519 155.994 42.7343C155.278 45.0936 154.426 47.4188 153.442 49.7006C152.448 52.0523 151.598 54.3251 150.891 56.5194C150.375 58.0504 150.097 59.6368 150.062 61.2349C150.062 61.5375 150.062 61.8253 150.062 62.1057C146.693 61.4563 144.235 60.2682 142.688 58.5414C141.879 57.6016 141.46 56.4412 141.504 55.2575C141.563 53.7804 141.922 52.3254 142.564 50.9625L147.668 38.6238L135.903 52.1653L132.456 62.3049C129.73 61.4857 127.758 60.3715 126.532 58.9472C125.916 58.0838 125.626 57.0677 125.704 56.047C125.772 54.3468 126.116 52.6642 126.723 51.0511C127.347 49.28 128.634 45.5533 130.584 39.871C132.533 34.1887 134.398 28.5507 136.176 22.9571C137.949 17.3633 138.891 13.8113 139.001 12.3009C143.973 12.9749 146.458 15.2454 146.458 19.1122C146.419 20.5964 146.14 22.0678 145.63 23.481L139.739 40.8821L145.862 33.7533C146.227 33.3047 146.705 32.9378 147.257 32.6817C147.809 32.4256 148.421 32.2872 149.043 32.2775C149.95 32.3623 150.837 32.5739 151.669 32.9047C152.901 33.3229 154.354 34.4371 156.028 36.2476Z" fill="#C23334"/>
<path d="M191.875 16.8247C192.055 17.3207 192.148 17.8385 192.149 18.3597C192.116 19.0705 191.96 19.7725 191.685 20.4407C191.495 20.8829 191.204 21.2857 190.832 21.6245C190.46 21.9633 190.014 22.2309 189.522 22.411C189.037 22.6268 188.499 22.7356 187.957 22.7284C187.057 22.706 186.174 22.5148 185.363 22.1675C184.682 21.7715 184.17 21.1808 183.913 20.4923C183.736 20.1162 183.642 19.7125 183.641 19.3043C183.644 18.859 183.751 18.4193 183.954 18.0128C184.123 17.7326 184.215 17.4222 184.229 17.1051C184.212 16.849 184.138 16.5982 184.013 16.3672C183.807 16.0227 183.465 15.7593 183.051 15.6293C182.815 15.5434 182.562 15.4959 182.306 15.4891C182.067 15.4892 181.827 15.5267 181.602 15.5997C179.902 16.4002 178.59 17.729 177.916 19.3337C177.313 20.4941 176.825 21.6991 176.457 22.9351L175.007 27.1635C177.288 27.0454 179.617 26.9052 181.991 26.7429H182.223C182.445 26.73 182.67 26.761 182.877 26.8336C183.085 26.9063 183.271 27.019 183.424 27.1635C183.691 27.4326 183.838 27.7789 183.839 28.1375C183.851 28.2932 183.809 28.4484 183.717 28.581C183.624 28.7136 183.488 28.8167 183.326 28.8755L173.946 30.3072L163.002 62.2829C160.758 61.717 158.745 60.5871 157.203 59.0286C156.507 58.1404 156.175 57.0678 156.258 55.9882C156.31 54.4858 156.589 52.9966 157.086 51.5604L164.062 31.82C163.27 31.9293 162.47 31.986 161.667 31.9898C159.011 31.9898 157.68 31.0943 157.674 29.3035C157.707 28.441 157.907 27.5898 158.263 26.7872C160.673 27.2289 163.134 27.427 165.596 27.3776L168.147 20.1455C169.975 16.441 172.275 14.0992 175.048 13.1202C175.939 12.7726 176.873 12.5248 177.832 12.3822C178.95 12.2189 180.081 12.1374 181.212 12.1387C182.373 12.1402 183.529 12.2591 184.659 12.4929C185.803 12.7177 186.915 13.0568 187.974 13.5039C190.083 14.478 191.384 15.5849 191.875 16.8247Z" fill="#C23334"/>
<path d="M171.603 74.8943C171.869 74.8943 172.125 74.9312 172.39 74.9312C174.203 74.9401 175.997 74.612 177.66 73.9677C179.322 73.3235 180.815 72.3774 182.042 71.1898C185.057 68.3574 187.456 65.0523 189.118 61.4414C190.767 58.0884 192.076 54.6112 193.029 51.0509C193.625 48.9946 194.019 46.8958 194.206 44.7783V44.4979C192.603 48.8272 191.045 51.9955 189.532 54.0028C187.599 56.4324 185.391 58.68 182.946 60.7108C181.965 61.6091 180.624 62.1239 179.218 62.1425C178.578 62.1363 177.944 62.0418 177.336 61.862C175.073 61.1689 173.082 59.9081 171.603 58.2312C171.102 57.4435 170.858 56.5462 170.899 55.641C170.922 54.6607 171.081 53.6866 171.372 52.7409C172.138 50.0425 173.082 47.3863 174.197 44.7857C175.191 42.4094 176.003 40.2325 176.682 38.2473C177.254 36.6284 177.579 34.9478 177.644 33.2514C177.644 32.9488 177.644 32.661 177.601 32.3806C180.949 33.0054 183.158 33.9648 184.229 35.2587C185.219 36.3455 185.784 37.6902 185.837 39.0886C185.778 40.6115 185.407 42.1119 184.743 43.5164L179.292 57.3901C182.055 55.04 184.463 52.378 186.45 49.4717C188.665 45.9828 190.574 42.3462 192.159 38.5942C192.354 38.3223 192.629 38.1012 192.951 37.9536C193.274 37.8058 193.636 37.7366 193.998 37.753H194.197C198.355 37.9399 200.435 40.7465 200.435 46.1731C200.435 51.0436 198.778 58.0099 195.465 67.072C192.747 73.3593 189.985 77.0271 187.179 78.0749C184.373 79.1229 182.357 79.6468 181.131 79.6468C177.894 79.6468 174.718 78.0626 171.603 74.8943Z" fill="#C23334"/>
<path d="M307.199 15.288C307.847 12.0456 307.993 4.77198 305.561 0.0219727C303.134 2.66447 300.374 4.82602 296.667 5.72846C293.39 6.52284 289.884 6.67414 286.801 8.03051C285.293 8.68516 283.951 9.60418 282.851 10.7325C280.909 12.7131 279.842 15.2569 279.855 17.8872C279.952 20.6426 281.195 23.2675 283.344 25.2526C282.979 24.5239 282.83 23.7242 282.91 22.9296C282.991 22.135 283.298 21.3721 283.804 20.7133C285.436 18.5519 291.461 17.0982 292.462 17.7034C293.602 18.3952 294.13 23.8422 292.499 25.9823C292.008 26.628 291.343 27.1539 290.564 27.5117C289.787 27.8694 288.92 28.0477 288.045 28.0302C289.081 28.3737 290.161 28.6007 291.261 28.7057C295.847 29.1542 304.608 28.1654 307.199 15.2663" fill="#C23334"/>
<path d="M305.56 0.0219727C303.473 2.30241 301.119 4.2262 298.122 5.29075C300.907 10.9756 301.222 20.8755 297.757 24.8798C293.979 29.2407 288.051 28.0519 288.051 28.0519C289.087 28.3954 290.167 28.6224 291.266 28.7274C295.853 29.1759 304.614 28.187 307.205 15.288C307.853 12.0456 307.999 4.77198 305.566 0.0219727" fill="#C23334"/>
<path d="M283.313 25.2041C283.221 25.0091 283.144 24.8087 283.082 24.6042V24.5609C283.004 24.2936 282.953 24.0205 282.93 23.7449C282.927 23.7289 282.927 23.7125 282.93 23.6964C282.842 22.6471 283.16 21.6024 283.828 20.735C285.387 18.6869 290.957 17.2549 292.322 17.6602C296.691 16.6065 301.168 15.6986 303.898 12.1321C308.212 6.485 306.216 1.35673 305.719 0.243532L305.561 0.0219727C303.134 2.66447 300.374 4.82602 296.667 5.72846C293.39 6.52285 289.884 6.67414 286.801 8.03051C285.293 8.68516 283.951 9.60418 282.851 10.7325C280.909 12.7131 279.842 15.2569 279.855 17.8872C279.952 20.6426 281.195 23.2675 283.344 25.2526L283.313 25.2041Z" fill="#C23334"/>
<path d="M286.801 8.03017C285.293 8.68481 283.951 9.60382 282.851 10.7321C280.909 12.7127 279.842 15.2565 279.855 17.8869C279.947 20.5196 281.089 23.037 283.075 24.9876C282.294 24.1284 280.255 21.1778 283.635 16.3792C287.705 10.6078 294.845 13.3746 299.487 10.3322C304.741 6.88454 305.555 0 305.555 0C303.128 2.6425 300.368 4.80404 296.66 5.7065C293.384 6.50086 289.878 6.65218 286.795 8.00855" fill="#C23334"/>
<path d="M271.816 8.56512C269.554 7.2736 264.135 5.16068 259.889 5.29037C261.199 7.45192 262.049 9.72155 261.71 12.1803C261.399 14.3419 260.533 16.5034 260.696 18.7028C260.767 19.7885 261.087 20.8497 261.637 21.8208C262.582 23.5332 264.199 24.8784 266.18 25.6035C268.276 26.322 270.595 26.322 272.69 25.6035C272.04 25.6171 271.397 25.4827 270.822 25.2132C270.247 24.9438 269.757 24.5481 269.401 24.0635C268.25 22.4909 268.826 18.4867 269.554 18.0598C270.391 17.5733 274.637 18.7785 275.79 20.3456C276.14 20.8211 276.349 21.3669 276.401 21.9331C276.454 22.4994 276.346 23.0682 276.089 23.5878C276.632 23.0665 277.104 22.4875 277.49 21.8641C279.103 19.2485 280.82 13.7582 271.834 8.60835" fill="#C23334"/>
<path d="M259.888 5.29037C261.07 7.08205 261.714 9.1142 261.758 11.1914C266.812 11.1158 274.334 13.688 276.379 16.8708C278.606 20.3402 276.058 23.5447 276.058 23.5447C276.602 23.0233 277.073 22.4443 277.459 21.8208C279.073 19.2054 280.789 13.715 271.804 8.56512C269.542 7.2736 264.124 5.16068 259.876 5.29037" fill="#C23334"/>
<path d="M272.605 25.5713C272.432 25.5759 272.26 25.5668 272.088 25.5443H272.07C271.849 25.5171 271.629 25.4738 271.416 25.4146H271.379C270.567 25.1714 269.87 24.6918 269.401 24.0529C268.302 22.5506 268.795 18.8326 269.461 18.1086C269.887 15.212 270.457 12.2886 268.533 9.66772C267.648 8.36969 266.413 7.28872 264.941 6.52259C263.468 5.75646 261.805 5.32931 260.1 5.27979H259.906C261.217 7.44132 262.067 9.71096 261.726 12.1697C261.417 14.3313 260.549 16.4929 260.714 18.6921C260.783 19.7779 261.105 20.839 261.653 21.8102C262.6 23.5226 264.215 24.8678 266.198 25.593C268.293 26.3114 270.613 26.3114 272.708 25.593L272.605 25.5713Z" fill="#C23334"/>
<path d="M260.676 18.7027C260.747 19.7883 261.067 20.8494 261.615 21.8208C262.564 23.5315 264.18 24.8762 266.16 25.6034C268.166 26.2804 270.376 26.2995 272.397 25.6574C271.529 25.8899 268.757 26.2789 266.081 22.9555C262.877 18.9189 266.948 15.4333 265.96 11.8182C264.831 7.72201 259.893 5.3335 259.893 5.3335C261.203 7.49505 262.053 9.76468 261.712 12.2234C261.403 14.385 260.536 16.5465 260.7 18.7459" fill="#C23334"/>
<path d="M240.565 74.0006C237.698 74.0127 234.873 73.3909 232.341 72.1908C229.811 70.9908 227.654 69.2499 226.065 67.1244C224.475 64.9991 223.504 62.5554 223.236 60.013C222.968 57.4705 223.413 54.9085 224.531 52.5569C225.649 50.2055 227.405 48.1378 229.641 46.5397C231.878 44.9414 234.524 43.8625 237.344 43.3999C240.163 42.9372 243.067 43.1051 245.796 43.8886C248.524 44.6721 250.992 46.0466 252.979 47.889C253.93 48.7807 254.737 49.4777 253.433 50.8233C253.157 51.1102 252.988 51.4647 252.944 51.84C252.898 52.2153 252.983 52.5937 253.186 52.925C253.389 53.2564 253.7 53.5254 254.077 53.6962C254.454 53.8671 254.881 53.9317 255.301 53.8819C256.886 53.7684 257.225 54.4222 257.461 55.503C257.957 57.7365 257.893 60.0395 257.275 62.2486C256.657 64.4576 255.501 66.5183 253.887 68.2842C252.274 70.05 250.244 71.4777 247.941 72.4657C245.64 73.4536 243.12 73.9776 240.565 74.0006ZM239.819 48.2187C239.612 48.5752 239.868 48.6725 239.995 48.759C240.662 48.9541 241.384 48.9369 242.039 48.7104C242.53 48.5713 242.979 48.336 243.354 48.0217C243.728 47.7075 244.019 47.3223 244.205 46.8946C244.551 45.7274 243.531 44.9384 242.172 44.8141C237.98 44.4304 234.127 45.2951 230.906 47.7485C230.788 47.8397 230.688 47.9474 230.61 48.0673C230.447 48.317 230.37 48.6024 230.385 48.8901C230.4 49.1777 230.506 49.4555 230.693 49.691C230.879 49.9265 231.137 50.1098 231.435 50.2195C231.734 50.329 232.062 50.3604 232.381 50.3099C232.538 50.2912 232.694 50.2642 232.847 50.2289C235.201 49.6669 237.489 48.9049 239.819 48.2187Z" fill="#C23334"/>
<path d="M288.713 62.0691C287.941 61.2153 287.354 60.4966 285.861 61.4098C285.519 61.6324 285.11 61.7571 284.686 61.7679C284.263 61.7785 283.845 61.6746 283.49 61.4696C283.134 61.2646 282.857 60.9685 282.694 60.6201C282.531 60.2717 282.49 59.8876 282.578 59.5186C282.931 57.8649 282.021 57.5082 280.638 57.103C277.582 56.2104 274.309 56.0939 271.184 56.7663C268.059 57.4387 265.206 58.8737 262.945 60.91C260.685 62.9463 259.106 65.5035 258.387 68.2943C257.669 71.0853 257.837 73.9996 258.873 76.7101C259.909 79.4207 261.774 81.8202 264.257 83.6395C266.739 85.4588 269.742 86.6258 272.928 87.0095C276.114 87.3932 279.357 86.9784 282.294 85.8116C285.23 84.645 287.742 82.7726 289.55 80.4045C291.617 77.666 292.65 74.412 292.5 71.1149C292.349 67.8176 291.023 64.6491 288.713 62.0691ZM278.647 61.9503C278.465 62.3793 278.176 62.7662 277.802 63.0817C277.427 63.3969 276.979 63.6329 276.488 63.7714C275.832 63.9931 275.111 64.0102 274.443 63.8199C274.316 63.7172 274.061 63.6147 274.267 63.2797C271.943 63.9551 269.643 64.7279 267.297 65.2899C267.142 65.3272 266.986 65.3543 266.828 65.3709C266.51 65.4219 266.183 65.3911 265.885 65.2821C265.586 65.1732 265.327 64.9907 265.141 64.7558C264.954 64.5211 264.847 64.2437 264.832 63.9565C264.815 63.6691 264.892 63.3837 265.051 63.1337C265.135 63.0146 265.236 62.9072 265.354 62.8149C268.571 60.3561 272.423 59.4969 276.615 59.8806C277.98 60.0049 279 60.783 278.647 61.9503Z" fill="#C23334"/>
<path d="M286.523 46.4948C286.523 39.8914 284.46 33.7039 281.578 27.6949C281.343 27.3183 281.168 26.9145 281.055 26.4952C281.036 26.3278 281.06 26.1585 281.127 26.0009C281.193 25.8432 281.299 25.7017 281.439 25.5873C281.622 25.5366 281.816 25.5229 282.005 25.5472C282.195 25.5715 282.377 25.6332 282.537 25.7278C282.861 25.9629 283.114 26.2655 283.276 26.6087C288.015 35.3628 290.673 44.4414 288.312 54.2062C287.852 56.0108 287.181 57.7677 286.309 59.448C286.013 60.0424 284.963 60.3397 284.26 60.7719C284.126 60.037 283.652 59.1508 283.914 58.6103C285.711 54.7749 286.599 50.6503 286.523 46.4948Z" fill="#C23334"/>
<path d="M277.179 27.8137C277.143 31.3911 275.645 34.5524 273.599 37.5408C269.365 43.7282 263.576 48.5376 256.763 52.4393C256.157 52.7743 255.113 52.4393 254.27 52.4393C254.645 51.7584 254.816 50.8182 255.435 50.4344C261.599 46.7544 267.174 42.5448 271.142 36.8653C273.315 33.7472 275.013 30.4616 275.28 26.7005C275.316 26.117 275.839 25.5603 276.136 24.993C276.513 25.5541 276.851 26.1352 277.149 26.733C277.223 27.0896 277.232 27.4543 277.179 27.8137Z" fill="#C23334"/>
</g>
<defs>
<filter id="filter0_d" x="-1" y="0" width="315" height="106" filterUnits="userSpaceOnUse" color-interpolation-filters="sRGB">
<feFlood flood-opacity="0" result="BackgroundImageFix"/>
<feColorMatrix in="SourceAlpha" type="matrix" values="0 0 0 0 0 0 0 0 0 0 0 0 0 0 0 0 0 0 127 0"/>
<feOffset dy="12"/>
<feGaussianBlur stdDeviation="3"/>
<feColorMatrix type="matrix" values="0 0 0 0 0 0 0 0 0 0 0 0 0 0 0 0 0 0 0.2 0"/>
<feBlend mode="normal" in2="BackgroundImageFix" result="effect1_dropShadow"/>
<feBlend mode="normal" in="SourceGraphic" in2="effect1_dropShadow" result="shape"/>
</filter>
</defs>
</svg>
