<svg width="49" height="30" viewBox="0 0 49 30" fill="none" xmlns="http://www.w3.org/2000/svg">
<path d="M0 0C3.4941 4.24306 8.34097 7.56828 14.0045 9.54612C14.4876 9.7161 15.0517 9.9015 15.6595 10.0591C16.1996 10.2024 16.7497 10.3057 17.3053 10.3682C18.6035 10.4553 19.9073 10.4067 21.1952 10.2229L21.8186 10.158C23.2963 9.99604 24.7833 9.93104 26.2696 9.96333C29.8149 10.0795 33.2882 10.9868 36.4309 12.618C36.5274 12.6614 36.614 12.724 36.6854 12.8019C36.7567 12.8797 36.8112 12.9712 36.8456 13.0706C36.8801 13.1701 36.8937 13.2755 36.8856 13.3804C36.8775 13.4852 36.8479 13.5873 36.7986 13.6804C36.7493 13.7735 36.6813 13.8557 36.5989 13.9219C36.5164 13.9881 36.4212 14.0368 36.3191 14.0653C36.217 14.0937 36.1101 14.1011 36.005 14.0871C35.8998 14.0731 35.7987 14.038 35.7077 13.9839C32.7726 12.4635 29.5296 11.6185 26.2198 11.5116C24.8021 11.4809 23.3839 11.5428 21.9745 11.697L21.3511 11.7619C20.9053 11.8114 20.4565 11.8546 20.0014 11.8948L20.79 13.0722C21.2346 13.7893 21.7482 14.462 22.3236 15.081C23.5704 16.3325 25.4841 17.1268 27.9933 17.4451C29.0936 17.5842 30.2344 17.6305 31.3409 17.6799C32.4474 17.7294 33.6131 17.7757 34.7695 17.9179C37.0543 18.1991 39.9094 18.7523 41.7016 20.5138C41.8474 20.6592 41.9293 20.8558 41.9293 21.0608C41.9293 21.2658 41.8474 21.4625 41.7016 21.6078C41.6664 21.6403 41.6289 21.6702 41.5894 21.6974C41.4399 21.7998 41.2591 21.8472 41.078 21.8314C40.8971 21.8156 40.7273 21.7376 40.5982 21.6109C39.1395 20.1739 36.6085 19.701 34.5701 19.4476C33.4885 19.3116 32.3632 19.2653 31.2755 19.2189C31.0572 19.2189 30.8422 19.2004 30.6209 19.188L31.6463 20.5663C31.967 21.0178 32.3291 21.4388 32.7279 21.8241C33.7035 22.7141 35.1186 23.1221 36.487 23.5146L36.7488 23.5887C37.4189 23.7834 38.0797 23.9503 38.7125 24.1141C40.1277 24.441 41.5173 24.8686 42.8705 25.3935C44.9936 26.2961 46.9539 27.5362 48.6742 29.0648C48.6431 28.7775 48.6056 28.49 48.5745 28.1964C48.1568 24.7229 47.7329 21.1072 46.4955 18.2084C45.1147 14.9666 42.8517 10.4145 39.1613 8.31927C35.4022 6.18074 30.652 4.99711 24.6239 4.66644C21.7189 4.50574 19.6586 4.40376 18.1281 4.3296C13.6709 4.11018 13.5837 4.104 9.90565 3.51065C6.4165 2.94524 3.06004 1.75569 0 0Z" fill="url(#paint0_linear)"/>
<defs>
<linearGradient id="paint0_linear" x1="37.4766" y1="4.78907" x2="14.1982" y2="21.1096" gradientUnits="userSpaceOnUse">
<stop stop-color="#00ECD0"/>
<stop offset="1" stop-color="#4B54CE"/>
</linearGradient>
</defs>
</svg>
