<svg width="978" height="430" viewBox="0 0 978 430" fill="none" xmlns="http://www.w3.org/2000/svg">
<path d="M429.438 304.135C513.423 304.135 581.506 236.052 581.506 152.068C581.506 68.083 513.423 0 429.438 0C345.454 0 277.371 68.083 277.371 152.068C277.371 236.052 345.454 304.135 429.438 304.135Z" fill="#3F6ECF"/>
<path opacity="0.3" d="M429.438 179.837C424.076 179.837 418.835 178.247 414.378 175.268C409.92 172.29 406.445 168.056 404.394 163.103C402.342 158.149 401.805 152.699 402.851 147.44C403.897 142.182 406.479 137.352 410.27 133.561C414.061 129.77 418.891 127.188 424.149 126.142C429.408 125.096 434.858 125.633 439.811 127.685C444.765 129.736 448.998 133.211 451.977 137.669C454.956 142.127 456.546 147.368 456.546 152.729C456.537 159.916 453.679 166.806 448.597 171.888C443.515 176.97 436.625 179.829 429.438 179.837ZM429.438 126.944C424.338 126.944 419.353 128.456 415.112 131.289C410.872 134.123 407.567 138.15 405.615 142.861C403.664 147.573 403.153 152.758 404.148 157.759C405.143 162.761 407.599 167.356 411.205 170.962C414.811 174.568 419.405 177.024 424.407 178.019C429.409 179.014 434.594 178.503 439.305 176.552C444.017 174.6 448.044 171.295 450.878 167.055C453.711 162.814 455.223 157.829 455.223 152.729C455.216 145.893 452.496 139.338 447.662 134.504C442.828 129.67 436.274 126.951 429.438 126.944Z" fill="#F5FB8F"/>
<path opacity="0.3" d="M429.438 204.3C419.239 204.3 409.268 201.275 400.787 195.609C392.307 189.942 385.697 181.888 381.793 172.464C377.89 163.041 376.869 152.672 378.859 142.668C380.848 132.664 385.76 123.475 392.972 116.263C400.185 109.051 409.374 104.139 419.378 102.149C429.381 100.159 439.75 101.181 449.174 105.084C458.597 108.987 466.651 115.597 472.318 124.078C477.985 132.559 481.009 142.529 481.009 152.729C480.994 166.402 475.556 179.51 465.888 189.178C456.219 198.846 443.111 204.284 429.438 204.3ZM429.438 102.481C419.5 102.481 409.785 105.428 401.522 110.949C393.259 116.47 386.818 124.318 383.015 133.5C379.212 142.682 378.217 152.785 380.156 162.532C382.094 172.279 386.88 181.233 393.907 188.26C400.935 195.287 409.888 200.073 419.636 202.012C429.383 203.951 439.486 202.956 448.668 199.153C457.849 195.349 465.697 188.909 471.219 180.646C476.74 172.382 479.687 162.667 479.687 152.729C479.672 139.407 474.373 126.635 464.953 117.215C455.533 107.794 442.761 102.496 429.438 102.481Z" fill="#F5FB8F"/>
<path opacity="0.3" d="M429.438 225.457C415.054 225.457 400.993 221.192 389.033 213.2C377.072 205.209 367.751 193.85 362.246 180.561C356.741 167.271 355.301 152.648 358.107 138.54C360.914 124.433 367.84 111.474 378.012 101.302C388.183 91.1312 401.142 84.2046 415.25 81.3983C429.357 78.5921 443.981 80.0324 457.27 85.537C470.559 91.0416 481.918 100.363 489.909 112.323C497.901 124.283 502.166 138.345 502.166 152.729C502.144 172.011 494.475 190.497 480.841 204.131C467.206 217.766 448.72 225.435 429.438 225.457ZM429.438 81.3232C415.315 81.3232 401.51 85.5111 389.767 93.3572C378.025 101.203 368.872 112.355 363.468 125.403C358.063 138.451 356.649 152.808 359.404 166.659C362.16 180.511 368.96 193.234 378.947 203.22C388.933 213.207 401.656 220.007 415.507 222.763C429.359 225.518 443.716 224.104 456.764 218.699C469.812 213.295 480.964 204.142 488.81 192.4C496.656 180.657 500.844 166.852 500.844 152.729C500.822 133.798 493.292 115.648 479.906 102.261C466.519 88.8746 448.369 81.3446 429.438 81.3232V81.3232Z" fill="#F5FB8F"/>
<path opacity="0.3" d="M429.438 253.226C374.024 253.226 328.941 208.143 328.941 152.729C328.941 97.3148 374.024 52.232 429.438 52.232C484.853 52.232 529.935 97.3148 529.935 152.729C529.935 208.143 484.853 253.226 429.438 253.226ZM429.438 53.5543C374.753 53.5543 330.264 98.0438 330.264 152.729C330.264 207.414 374.753 251.904 429.438 251.904C484.123 251.904 528.613 207.414 528.613 152.729C528.613 98.0438 484.123 53.5543 429.438 53.5543Z" fill="#F5FB8F"/>
<path opacity="0.3" d="M429.438 276.367C361.264 276.367 305.8 220.903 305.8 152.729C305.8 84.5547 361.264 29.0912 429.438 29.0912C497.612 29.0912 553.076 84.5547 553.076 152.729C553.076 220.903 497.612 276.367 429.438 276.367ZM429.438 30.4135C361.993 30.4135 307.123 85.284 307.123 152.729C307.123 220.174 361.993 275.044 429.438 275.044C496.883 275.044 551.753 220.174 551.753 152.729C551.753 85.284 496.883 30.4135 429.438 30.4135Z" fill="white"/>
<path opacity="0.3" d="M429.439 164.63C436.377 164.63 442.001 159.006 442.001 152.068C442.001 145.13 436.377 139.506 429.439 139.506C422.501 139.506 416.877 145.13 416.877 152.068C416.877 159.006 422.501 164.63 429.439 164.63Z" fill="#6C63FF"/>
<path opacity="0.3" d="M461.836 200.994C468.773 200.994 474.398 195.37 474.398 188.432C474.398 181.494 468.773 175.87 461.836 175.87C454.898 175.87 449.273 181.494 449.273 188.432C449.273 195.37 454.898 200.994 461.836 200.994Z" fill="#6C63FF"/>
<path opacity="0.3" d="M373.9 195.705C380.838 195.705 386.463 190.08 386.463 183.143C386.463 176.205 380.838 170.58 373.9 170.58C366.963 170.58 361.338 176.205 361.338 183.143C361.338 190.08 366.963 195.705 373.9 195.705Z" fill="#6C63FF"/>
<path d="M429.438 158.018C432.725 158.018 435.389 155.354 435.389 152.068C435.389 148.781 432.725 146.117 429.438 146.117C426.152 146.117 423.488 148.781 423.488 152.068C423.488 155.354 426.152 158.018 429.438 158.018Z" fill="white"/>
<path d="M373.901 189.093C377.187 189.093 379.851 186.429 379.851 183.143C379.851 179.856 377.187 177.192 373.901 177.192C370.614 177.192 367.95 179.856 367.95 183.143C367.95 186.429 370.614 189.093 373.901 189.093Z" fill="white"/>
<path d="M461.835 195.043C465.122 195.043 467.786 192.379 467.786 189.093C467.786 185.807 465.122 183.142 461.835 183.142C458.549 183.142 455.885 185.807 455.885 189.093C455.885 192.379 458.549 195.043 461.835 195.043Z" fill="white"/>
<path d="M429.769 152.398H428.447V84.2985H690.929V85.6211H429.769V152.398Z" fill="white"/>
<path d="M707.127 102.48C703.727 102.48 700.404 101.472 697.577 99.5834C694.75 97.6945 692.547 95.0097 691.246 91.8686C689.944 88.7275 689.604 85.2711 690.267 81.9365C690.931 78.602 692.568 75.5389 694.972 73.1348C697.376 70.7307 700.439 69.0935 703.774 68.4302C707.108 67.7669 710.565 68.1074 713.706 69.4085C716.847 70.7095 719.532 72.9129 721.42 75.7398C723.309 78.5667 724.318 81.8903 724.318 85.2902C724.312 89.8478 722.5 94.2172 719.277 97.4399C716.054 100.663 711.685 102.475 707.127 102.48ZM707.127 69.4222C703.989 69.4222 700.921 70.3529 698.312 72.0965C695.702 73.8401 693.668 76.3183 692.467 79.2178C691.266 82.1173 690.952 85.3078 691.564 88.3859C692.176 91.4639 693.688 94.2913 695.907 96.5105C698.126 98.7297 700.954 100.241 704.032 100.853C707.11 101.465 710.3 101.151 713.2 99.9502C716.099 98.7492 718.577 96.7154 720.321 94.1059C722.065 91.4965 722.995 88.4286 722.995 85.2902C722.99 81.0832 721.317 77.05 718.342 74.0752C715.368 71.1004 711.334 69.4271 707.127 69.4223V69.4222Z" fill="white"/>
<path d="M667.95 262.482C671.237 262.482 673.901 259.818 673.901 256.532C673.901 253.245 671.237 250.581 667.95 250.581C664.664 250.581 662 253.245 662 256.532C662 259.818 664.664 262.482 667.95 262.482Z" fill="#F5FB8F"/>
<path d="M401.95 390.901C405.237 390.901 407.901 388.237 407.901 384.95C407.901 381.664 405.237 379 401.95 379C398.664 379 396 381.664 396 384.95C396 388.237 398.664 390.901 401.95 390.901Z" fill="#F5FB8F"/>
<path d="M150.95 117.901C154.237 117.901 156.901 115.237 156.901 111.95C156.901 108.664 154.237 106 150.95 106C147.664 106 145 108.664 145 111.95C145 115.237 147.664 117.901 150.95 117.901Z" fill="#F5FB8F"/>
<path d="M706.95 91.6558C710.237 91.6558 712.901 88.9917 712.901 85.7053C712.901 82.419 710.237 79.7549 706.95 79.7549C703.664 79.7549 701 82.419 701 85.7053C701 88.9917 703.664 91.6558 706.95 91.6558Z" fill="#F5FB8F"/>
<g filter="url(#filter0_f)">
<path d="M667.95 262.901C671.237 262.901 673.901 260.237 673.901 256.95C673.901 253.664 671.237 251 667.95 251C664.664 251 662 253.664 662 256.95C662 260.237 664.664 262.901 667.95 262.901Z" fill="#F5FB8F"/>
</g>
<g filter="url(#filter1_f)">
<path d="M401.95 393.075C405.237 393.075 407.901 390.41 407.901 387.124C407.901 383.838 405.237 381.174 401.95 381.174C398.664 381.174 396 383.838 396 387.124C396 390.41 398.664 393.075 401.95 393.075Z" fill="#F5FB8F"/>
</g>
<g filter="url(#filter2_f)">
<path d="M150.95 117.901C154.237 117.901 156.901 115.237 156.901 111.95C156.901 108.664 154.237 106 150.95 106C147.664 106 145 108.664 145 111.95C145 115.237 147.664 117.901 150.95 117.901Z" fill="#F5FB8F"/>
</g>
<g filter="url(#filter3_f)">
<path d="M706.95 91.9009C710.237 91.9009 712.901 89.2368 712.901 85.9505C712.901 82.6641 710.237 80 706.95 80C703.664 80 701 82.6641 701 85.9505C701 89.2368 703.664 91.9009 706.95 91.9009Z" fill="#F5FB8F"/>
</g>
<path d="M667.457 273.722C664.057 273.722 660.733 272.714 657.906 270.825C655.08 268.936 652.876 266.251 651.575 263.11C650.274 259.969 649.934 256.513 650.597 253.178C651.26 249.844 652.897 246.781 655.302 244.376C657.706 241.972 660.769 240.335 664.103 239.672C667.438 239.009 670.894 239.349 674.035 240.65C677.176 241.951 679.861 244.155 681.75 246.981C683.639 249.808 684.647 253.132 684.647 256.532C684.642 261.089 682.829 265.459 679.607 268.682C676.384 271.904 672.014 273.717 667.457 273.722ZM667.457 240.664C664.318 240.664 661.251 241.595 658.641 243.338C656.032 245.082 653.998 247.56 652.797 250.459C651.596 253.359 651.282 256.549 651.894 259.627C652.506 262.706 654.017 265.533 656.237 267.752C658.456 269.971 661.283 271.483 664.361 272.095C667.439 272.707 670.63 272.393 673.529 271.192C676.429 269.991 678.907 267.957 680.651 265.348C682.394 262.738 683.325 259.67 683.325 256.532C683.32 252.325 681.647 248.292 678.672 245.317C675.697 242.342 671.664 240.669 667.457 240.664Z" fill="white"/>
<path d="M151.19 130.135C147.79 130.135 144.467 129.127 141.64 127.238C138.813 125.349 136.61 122.665 135.309 119.524C134.007 116.382 133.667 112.926 134.33 109.592C134.994 106.257 136.631 103.194 139.035 100.79C141.439 98.3857 144.502 96.7485 147.837 96.0852C151.171 95.4219 154.628 95.7623 157.769 97.0634C160.91 98.3645 163.595 100.568 165.483 103.395C167.372 106.222 168.381 109.545 168.381 112.945C168.375 117.503 166.563 121.872 163.34 125.095C160.117 128.318 155.748 130.13 151.19 130.135ZM151.19 97.0772C148.052 97.0772 144.984 98.0079 142.375 99.7514C139.765 101.495 137.731 103.973 136.53 106.873C135.329 109.772 135.015 112.963 135.627 116.041C136.24 119.119 137.751 121.946 139.97 124.165C142.189 126.385 145.017 127.896 148.095 128.508C151.173 129.12 154.363 128.806 157.263 127.605C160.162 126.404 162.64 124.37 164.384 121.761C166.128 119.151 167.058 116.084 167.058 112.945C167.053 108.738 165.38 104.705 162.405 101.73C159.431 98.7554 155.397 97.0821 151.19 97.0773V97.0772Z" fill="white"/>
<path d="M375 182.755H373.376V116.67L168 114.063L168.025 112.755L375 115.382V182.755Z" fill="white"/>
<path d="M650.928 257.192H461.174V189.093H462.496V255.871H650.928V257.192Z" fill="white"/>
<path d="M743.491 116.365H670.763V120.993H743.491V116.365Z" fill="#797979"/>
<path d="M743.491 129.588H670.763V134.216H743.491V129.588Z" fill="#797979"/>
<path d="M743.491 142.811H670.763V147.44H743.491V142.811Z" fill="#797979"/>
<path d="M703.821 287.606H631.093V292.235H703.821V287.606Z" fill="#797979"/>
<path d="M703.821 300.83H631.093V305.458H703.821V300.83Z" fill="#797979"/>
<path d="M703.821 314.053H631.093V318.681H703.821V314.053Z" fill="#797979"/>
<path d="M211.728 144.795H139V149.423H211.728V144.795Z" fill="#797979"/>
<path d="M211.728 158.018H139V162.646H211.728V158.018Z" fill="#797979"/>
<path d="M211.728 171.242H139V175.87H211.728V171.242Z" fill="#797979"/>
<path d="M435.39 405.299C515.358 405.299 580.185 403.226 580.185 400.67C580.185 398.114 515.358 396.042 435.39 396.042C355.422 396.042 290.595 398.114 290.595 400.67C290.595 403.226 355.422 405.299 435.39 405.299Z" fill="#F2F2F2"/>
<path d="M978 425.216H0V428.232H978V425.216Z" fill="#2F2E41"/>
<path d="M55.793 101.871C55.793 101.871 62.7141 121.57 58.4549 124.6C54.1958 127.631 72.8295 152.38 72.8295 152.38L95.19 146.319L82.945 125.61C82.945 125.61 81.3478 104.902 81.3478 101.871C81.3478 98.8407 55.793 101.871 55.793 101.871Z" fill="#FFB8B8"/>
<path opacity="0.1" d="M55.793 101.871C55.793 101.871 62.7141 121.57 58.4549 124.6C54.1958 127.631 72.8295 152.38 72.8295 152.38L95.19 146.319L82.945 125.61C82.945 125.61 81.3478 104.902 81.3478 101.871C81.3478 98.8407 55.793 101.871 55.793 101.871Z" fill="black"/>
<path d="M44.1758 242.286C44.1758 242.286 42.1554 267.541 44.1758 280.673C46.1961 293.806 49.2267 330.172 49.2267 330.172C49.2267 330.172 49.2267 398.864 60.3387 399.874C71.4506 400.885 79.5321 401.895 80.5423 397.854C81.5524 393.813 75.4914 391.793 78.5219 389.773C81.5524 387.752 82.5626 380.681 78.5219 372.6C74.4812 364.518 78.5219 282.694 78.5219 282.694L97.7153 334.213C97.7153 334.213 99.7357 376.64 101.756 382.701C103.776 388.762 99.7357 399.874 106.807 400.885C113.878 401.895 121.96 395.834 126 393.813C130.041 391.793 119.939 391.793 121.96 390.783C123.98 389.773 130.041 386.742 128.021 385.732C126 384.722 123.98 336.233 123.98 336.233C123.98 336.233 118.424 232.69 111.353 228.649C104.281 224.608 99.7356 231.568 99.7356 231.568L44.1758 242.286Z" fill="#2F2E41"/>
<path d="M62.3586 395.834V403.915C62.3586 403.915 53.267 425.883 62.3586 425.883C71.4502 425.883 78.5215 428.16 78.5215 425.129V397.854L62.3586 395.834Z" fill="#2F2E41"/>
<path d="M121.96 395.82V403.901C121.96 403.901 131.051 425.869 121.96 425.869C112.868 425.869 105.797 428.145 105.797 425.115V397.84L121.96 395.82Z" fill="#2F2E41"/>
<path d="M69.9357 116.519C79.978 116.519 88.1189 108.378 88.1189 98.3358C88.1189 88.2934 79.978 80.1525 69.9357 80.1525C59.8934 80.1525 51.7524 88.2934 51.7524 98.3358C51.7524 108.378 59.8934 116.519 69.9357 116.519Z" fill="#FFB8B8"/>
<path d="M64.3797 132.177C64.3797 132.177 69.4306 147.329 77.5121 144.299L85.5935 141.268L99.736 238.246C99.736 238.246 88.6241 254.408 72.4612 244.307C56.2983 234.205 64.3797 132.177 64.3797 132.177Z" fill="#F2F2F2"/>
<path d="M78.5215 129.146L83.0673 119.55C83.0673 119.55 109.837 132.177 113.878 136.218C117.919 140.258 117.919 146.319 117.919 146.319L110.847 171.574C110.847 171.574 112.868 227.134 112.868 229.154C112.868 231.174 119.939 242.286 114.888 238.246C109.837 234.205 108.827 230.164 104.786 236.225C100.745 242.286 91.6538 249.358 91.6538 249.358L78.5215 129.146Z" fill="#3F3D56"/>
<path d="M113.878 201.879L110.848 230.164C110.848 230.164 92.6643 246.327 96.705 247.337C100.746 248.347 102.766 244.307 102.766 244.307C102.766 244.307 109.837 251.378 113.878 247.337C117.919 243.297 128.021 204.91 128.021 204.91L113.878 201.879Z" fill="#FFB8B8"/>
<path d="M70.3226 72.6377C66.2916 72.4936 61.9778 72.4223 58.5791 74.5945C57.0154 75.6847 55.6438 77.0273 54.5206 78.5675C51.2104 82.7521 48.3503 88.0172 49.5799 93.2091L51.0079 92.6522C51.0079 94.038 50.6998 95.4066 50.1059 96.6588C50.307 96.074 50.9805 97.0193 50.8002 97.6108L49.2271 102.772C49.8771 102.571 50.5619 102.51 51.2373 102.591C51.9126 102.672 52.5634 102.894 53.1475 103.243C53.7316 103.591 54.236 104.059 54.6281 104.614C55.0202 105.17 55.2912 105.802 55.4237 106.469C55.6035 100.475 56.2253 93.6011 61.088 90.0911C63.5403 88.321 66.6438 87.7806 69.6298 87.3008C72.3845 86.8581 75.2723 86.436 77.9108 87.3428C80.5494 88.2497 82.7963 90.9482 82.1981 93.6733C83.4147 93.2542 84.7753 94.1021 85.3766 95.2397C85.8862 96.4267 86.1092 97.7169 86.0275 99.0061C87.3243 99.9226 88.8002 98.1026 89.3287 96.6052C90.5693 93.0901 91.672 89.3484 91.0037 85.6813C90.3354 82.0142 87.3471 78.5096 83.6196 78.4972C84.072 78.0002 84.3134 77.3467 84.2927 76.675L81.2204 76.4154C82.0003 76.3049 82.7177 75.9267 83.2495 75.3456C82.0159 76.7029 72.3174 72.709 70.3226 72.6377Z" fill="#2F2E41"/>
<path d="M69.4305 126.116C69.4305 126.116 61.207 118.057 58.2475 118.551C55.288 119.044 51.2473 126.116 51.2473 126.116C51.2473 126.116 27.003 134.197 28.0131 142.279C29.0233 150.36 40.1353 189.757 40.1353 189.757C40.1353 189.757 49.2269 237.235 41.1455 242.286C33.064 247.337 79.5323 260.47 80.5425 254.408C81.5527 248.347 83.573 187.737 80.5425 178.645C77.512 169.553 69.4305 126.116 69.4305 126.116Z" fill="#3F3D56"/>
<path d="M37.1045 210.971L51.247 217.032C51.247 217.032 78.5219 221.073 78.5219 209.961C78.5219 198.849 51.247 204.91 51.247 204.91L42.1548 202.003L37.1045 210.971Z" fill="#FFB8B8"/>
<path d="M104.787 142.278H117.278C117.278 142.278 126.001 180.665 127.011 184.706C128.021 188.747 130.042 207.94 129.031 207.94C128.021 207.94 107.818 203.899 107.818 206.93L104.787 142.278Z" fill="#3F3D56"/>
<path d="M40.1354 136.217L28.0132 139.248L18.9217 192.788C18.9217 192.788 15.8911 206.93 20.942 207.94C25.9929 208.95 40.1354 217.032 40.1354 217.032C40.1354 217.032 42.1558 201.879 46.1965 201.879L36.0947 193.798L42.1558 158.441L40.1354 136.217Z" fill="#3F3D56"/>
<path d="M383.81 396.063H364.205V376.457H383.81V396.063ZM365.713 394.554H382.302V377.965H365.713V394.554Z" fill="#3F3D56"/>
<path d="M764.883 238.927C764.883 238.927 747.967 258.655 751.523 259.943C755.078 261.231 771.677 247.135 770.61 242.152L764.883 238.927Z" fill="#A0616A"/>
<path d="M864.448 257.209C864.448 257.209 873.631 281.519 869.85 281.519C866.068 281.519 855.264 262.612 857.965 258.29L864.448 257.209Z" fill="#A0616A"/>
<path d="M881.889 405.469C888.277 396.466 891.088 387.488 888.168 385.416C885.248 383.345 877.703 388.964 871.315 397.967C864.927 406.97 862.116 415.948 865.036 418.02C867.956 420.092 875.502 414.473 881.889 405.469Z" fill="#2F2E41"/>
<path d="M813.828 416.37C822.219 409.197 827.135 401.176 824.809 398.455C822.483 395.733 813.795 399.342 805.403 406.515C797.012 413.688 792.095 421.709 794.422 424.43C796.748 427.152 805.436 423.543 813.828 416.37Z" fill="#2F2E41"/>
<path d="M870.162 110.064C868.646 107.92 866.78 106.046 865.18 103.963C861.491 99.1618 860.215 92.7642 855.264 89.0823C850.365 85.439 842.591 81.8531 836.461 82.1404C828.381 82.519 821.972 88.7867 816.403 94.6516C812.147 99.1335 807.891 103.615 803.634 108.097C800.555 111.34 797.363 114.782 796.253 119.113C795.186 123.276 796.227 127.749 798.18 131.577C800.209 135.46 803.055 138.858 806.523 141.536C810.797 135.651 816.785 127.524 816.785 127.524L818.179 147.738C825.42 150.137 833.198 150.609 840.829 150.079L843.089 141.791L845.462 149.62C854.581 148.411 863.742 145.262 869.387 138.146C875.628 130.279 875.96 118.263 870.162 110.064Z" fill="#2F2E41"/>
<path d="M835.275 128.097C844.524 128.097 852.021 120.599 852.021 111.35C852.021 102.101 844.524 94.6031 835.275 94.6031C826.026 94.6031 818.528 102.101 818.528 111.35C818.528 120.599 826.026 128.097 835.275 128.097Z" fill="#A0616A"/>
<path d="M824.471 119.453C824.471 119.453 825.552 132.418 818.529 133.499C811.506 134.579 803.943 133.499 803.943 137.821C803.943 142.142 809.345 181.579 809.345 181.579L822.851 180.498L841.758 162.131L852.022 142.142C852.022 142.142 839.597 136.74 845 120.534L824.471 119.453Z" fill="#A0616A"/>
<path d="M816.368 174.015L810.966 159.43L812.046 139.441C812.046 139.441 823.907 137.821 823.649 128.097L814.747 131.878L794.219 135.12V154.027C794.219 154.027 787.196 165.372 795.299 176.717L799.081 200.486L837.977 197.785L850.402 181.579L866.068 150.786L849.861 138.901L852.022 135.66L843.756 130.269L844.999 140.522L841.218 147.004C841.218 147.004 823.931 150.246 816.368 174.015Z" fill="#F2F2F2"/>
<path d="M797.46 136.2L794.218 135.12C794.218 135.12 787.736 137.821 787.736 146.464C787.736 155.108 761.805 240.463 761.805 240.463L773.69 243.704L789.897 204.268L799.621 171.314L797.46 136.2Z" fill="#F2F2F2"/>
<path d="M861.746 150.786H866.068C866.068 150.786 868.769 148.625 868.229 164.291C867.688 179.958 869.849 262.611 869.849 262.611L854.183 261.531L850.401 172.395L861.746 150.786Z" fill="#F2F2F2"/>
<path d="M841.099 193.713C841.099 193.713 804.483 186.981 796.379 193.464C797.131 194.372 797.516 195.528 797.46 196.705C797.46 198.866 798.54 196.165 797.46 198.866C796.379 201.567 794.219 199.406 796.379 201.567C798.54 203.728 799.081 203.187 798 204.808C796.92 206.429 798 209.13 798 209.13C798 209.13 792.058 237.221 797.46 257.209C802.862 277.198 847.7 418.195 859.585 414.414C871.47 410.632 901.182 393.345 899.562 387.403C897.941 381.46 843.379 299.347 843.379 299.347C843.379 299.347 866.068 228.578 839.057 205.889C839.057 205.889 840.678 203.728 840.137 202.107C839.597 200.486 839.057 202.107 839.597 200.486C840.137 198.866 842.838 198.866 841.218 197.245C839.597 195.624 841.099 193.713 841.099 193.713Z" fill="#2F2E41"/>
<path d="M816.367 251.807C816.367 251.807 779.632 416.034 787.195 418.735C794.758 421.437 823.93 421.977 826.091 418.735C828.252 415.494 843.378 299.347 843.378 299.347L816.367 251.807Z" fill="#2F2E41"/>
<path d="M817.178 99.1951C817.178 99.1951 830.684 115.402 857.695 106.218L850.132 92.7124L832.304 87.3102L817.178 99.1951Z" fill="#2F2E41"/>
<defs>
<filter id="filter0_f" x="655" y="244" width="25.901" height="25.9009" filterUnits="userSpaceOnUse" color-interpolation-filters="sRGB">
<feFlood flood-opacity="0" result="BackgroundImageFix"/>
<feBlend mode="normal" in="SourceGraphic" in2="BackgroundImageFix" result="shape"/>
<feGaussianBlur stdDeviation="3.5" result="effect1_foregroundBlur"/>
</filter>
<filter id="filter1_f" x="389" y="374.174" width="25.901" height="25.9009" filterUnits="userSpaceOnUse" color-interpolation-filters="sRGB">
<feFlood flood-opacity="0" result="BackgroundImageFix"/>
<feBlend mode="normal" in="SourceGraphic" in2="BackgroundImageFix" result="shape"/>
<feGaussianBlur stdDeviation="3.5" result="effect1_foregroundBlur"/>
</filter>
<filter id="filter2_f" x="138" y="99" width="25.901" height="25.9009" filterUnits="userSpaceOnUse" color-interpolation-filters="sRGB">
<feFlood flood-opacity="0" result="BackgroundImageFix"/>
<feBlend mode="normal" in="SourceGraphic" in2="BackgroundImageFix" result="shape"/>
<feGaussianBlur stdDeviation="3.5" result="effect1_foregroundBlur"/>
</filter>
<filter id="filter3_f" x="694" y="73" width="25.901" height="25.9009" filterUnits="userSpaceOnUse" color-interpolation-filters="sRGB">
<feFlood flood-opacity="0" result="BackgroundImageFix"/>
<feBlend mode="normal" in="SourceGraphic" in2="BackgroundImageFix" result="shape"/>
<feGaussianBlur stdDeviation="3.5" result="effect1_foregroundBlur"/>
</filter>
</defs>
</svg>
