<svg width="641" height="475" viewBox="0 0 641 475" fill="none" xmlns="http://www.w3.org/2000/svg">
<path d="M616.881 387.138C611.14 387.631 605.364 387.554 599.639 386.908C536.694 379.952 450.98 381.93 381.107 425.201C284.475 485.034 133.034 433.812 66.23 405.946C15.1873 384.662 -11.3113 332.531 4.60527 283.599C4.82936 282.908 5.05967 282.218 5.30243 281.527C15.318 252.447 35.0877 229.689 59.5695 217.625C80.9079 207.111 112.063 185.155 125.925 142.967C131.652 125.546 139.507 109.159 149.71 94.8741C177.03 56.6178 234.223 -0.352981 332.586 0.00164762C349.832 0.085154 366.948 2.98098 383.261 8.57495C419.196 20.8127 451.652 45.6928 476.402 80.1851C492.194 102.184 515.86 122.635 549.741 124.302C596.763 126.629 641.637 148.51 675.3 187.451C676.271 188.571 677.23 189.697 678.188 190.835C738.126 262.203 696.495 380.182 616.881 387.138Z" fill="#8863EA"/>
<g opacity="0.7">
<path opacity="0.7" d="M175.055 385.561C179.864 385.561 183.762 381.663 183.762 376.854C183.762 372.046 179.864 368.148 175.055 368.148C170.246 368.148 166.348 372.046 166.348 376.854C166.348 381.663 170.246 385.561 175.055 385.561Z" fill="url(#paint0_linear)"/>
</g>
<path opacity="0.2" d="M175.055 385.17C179.647 385.17 183.37 381.447 183.37 376.854C183.37 372.262 179.647 368.539 175.055 368.539C170.462 368.539 166.739 372.262 166.739 376.854C166.739 381.447 170.462 385.17 175.055 385.17Z" fill="black"/>
<path d="M128.146 210.248C129.923 210.248 131.364 208.807 131.364 207.03C131.364 205.253 129.923 203.812 128.146 203.812C126.369 203.812 124.928 205.253 124.928 207.03C124.928 208.807 126.369 210.248 128.146 210.248Z" fill="white"/>
<path d="M357.8 397C359.578 397 361.018 395.559 361.018 393.782C361.018 392.005 359.578 390.564 357.8 390.564C356.023 390.564 354.583 392.005 354.583 393.782C354.583 395.559 356.023 397 357.8 397Z" fill="white"/>
<path d="M222.153 411.984C223.146 411.984 223.951 411.179 223.951 410.186C223.951 409.193 223.146 408.388 222.153 408.388C221.16 408.388 220.355 409.193 220.355 410.186C220.355 411.179 221.16 411.984 222.153 411.984Z" fill="white"/>
<path d="M620.263 324.917C621.256 324.917 622.061 324.112 622.061 323.119C622.061 322.126 621.256 321.321 620.263 321.321C619.27 321.321 618.465 322.126 618.465 323.119C618.465 324.112 619.27 324.917 620.263 324.917Z" fill="white"/>
<path d="M517.423 163.402C518.416 163.402 519.221 162.597 519.221 161.604C519.221 160.611 518.416 159.806 517.423 159.806C516.43 159.806 515.625 160.611 515.625 161.604C515.625 162.597 516.43 163.402 517.423 163.402Z" fill="white"/>
<path d="M184.929 104.884C186.706 104.884 188.146 103.443 188.146 101.666C188.146 99.8893 186.706 98.4487 184.929 98.4487C183.152 98.4487 181.711 99.8893 181.711 101.666C181.711 103.443 183.152 104.884 184.929 104.884Z" fill="white"/>
<path d="M96.4926 319.378H93.6283V316.513H92.4611V319.378H89.5967V320.545H92.4611V323.403H93.6283V320.545H96.4926V319.378Z" fill="white"/>
<path d="M168.417 318.116H165.553V315.251H164.386V318.116H161.521V319.283H164.386V322.141H165.553V319.283H168.417V318.116Z" fill="white"/>
<path d="M271.257 376.16H268.393V373.296H267.226V376.16H264.361V377.327H267.226V380.186H268.393V377.327H271.257V376.16Z" fill="white"/>
<path d="M414.495 28.2084H413.189V26.9024H412.659V28.2084H411.353V28.7384H412.659V30.0444H413.189V28.7384H414.495V28.2084Z" fill="white"/>
<path d="M600.616 148.083H599.31V146.777H598.78V148.083H597.474V148.613H598.78V149.919H599.31V148.613H600.616V148.083Z" fill="white"/>
<path d="M490.836 226.317H489.53V225.011H489V226.317H487.694V226.847H489V228.153H489.53V226.847H490.836V226.317Z" fill="white"/>
<path d="M44.1456 275.529H42.8396V274.223H42.3097V275.529H41.0037V276.059H42.3097V277.365H42.8396V276.059H44.1456V275.529Z" fill="white"/>
<path d="M97.7738 382.785H96.4678V381.479H95.9378V382.785H94.6318V383.315H95.9378V384.621H96.4678V383.315H97.7738V382.785Z" fill="white"/>
<path d="M266.229 43.9814H264.923V42.6754H264.393V43.9814H263.087V44.5114H264.393V45.8174H264.923V44.5114H266.229V43.9814Z" fill="white"/>
<path d="M186.733 232.626H185.427V231.32H184.897V232.626H183.591V233.156H184.897V234.462H185.427V233.156H186.733V232.626Z" fill="white"/>
<path d="M203.768 178.367H202.462V177.061H201.932V178.367H200.626V178.897H201.932V180.203H202.462V178.897H203.768V178.367Z" fill="white"/>
<g opacity="0.7">
<path opacity="0.7" d="M472.022 303.579C476.036 303.579 479.29 300.325 479.29 296.311C479.29 292.297 476.036 289.043 472.022 289.043C468.008 289.043 464.754 292.297 464.754 296.311C464.754 300.325 468.008 303.579 472.022 303.579Z" fill="url(#paint1_linear)"/>
</g>
<path opacity="0.2" d="M472.022 303.043C475.74 303.043 478.754 300.029 478.754 296.311C478.754 292.593 475.74 289.579 472.022 289.579C468.304 289.579 465.29 292.593 465.29 296.311C465.29 300.029 468.304 303.043 472.022 303.043Z" fill="black"/>
<path opacity="0.2" d="M490.149 351.226C494.306 351.226 497.676 347.857 497.676 343.7C497.676 339.543 494.306 336.173 490.149 336.173C485.992 336.173 482.622 339.543 482.622 343.7C482.622 347.857 485.992 351.226 490.149 351.226Z" fill="black"/>
<g opacity="0.1">
<path opacity="0.1" d="M390.59 304.027H401.706L400.962 298.948H391.334L390.59 304.027Z" fill="black"/>
</g>
<g opacity="0.1">
<path opacity="0.1" d="M310.936 304.027H322.053L321.308 298.948H311.681L310.936 304.027Z" fill="black"/>
</g>
<g opacity="0.1">
<path opacity="0.1" d="M341.409 304.027H352.526L351.775 298.948H342.154L341.409 304.027Z" fill="black"/>
</g>
<g opacity="0.1">
<path opacity="0.1" d="M385.738 91.641C388.192 86.9786 391.006 82.5937 394.116 79.275C394.698 78.6465 395.402 78.144 396.186 77.7987C395.029 77.2926 393.743 77.1628 392.509 77.4278C391.275 77.6927 390.155 78.3389 389.309 79.275C386.192 82.5937 383.378 86.9786 380.924 91.641C373.647 105.673 369.882 121.261 369.952 137.067V301.649H374.766V137.08C374.691 121.269 378.456 105.676 385.738 91.641Z" fill="black"/>
</g>
<g opacity="0.1">
<path opacity="0.1" d="M363.656 45.647H296.835V48.2401H363.656V45.647Z" fill="black"/>
</g>
<path d="M480.155 142.165C478.403 139.864 476.211 137.934 473.707 136.487C470.83 134.828 467.61 133.853 464.295 133.637C460.981 133.421 457.662 133.97 454.594 135.242C451.526 136.513 448.791 138.474 446.601 140.971C444.412 143.468 442.826 146.436 441.966 149.644C441.107 152.852 440.996 156.214 441.643 159.472C442.291 162.73 443.679 165.795 445.7 168.43C447.721 171.066 450.321 173.201 453.299 174.672C456.277 176.142 459.553 176.908 462.874 176.91C463.335 176.91 463.795 176.91 464.243 176.859C468.147 176.613 471.91 175.314 475.135 173.1C478.359 170.887 480.924 167.841 482.556 164.287C484.189 160.733 484.828 156.803 484.407 152.914C483.985 149.026 482.518 145.324 480.161 142.203L480.155 142.165Z" fill="url(#paint2_linear)"/>
<path opacity="0.2" d="M483.341 155.212C483.34 160.418 481.356 165.428 477.794 169.223C474.231 173.017 469.356 175.313 464.161 175.642C463.738 175.642 463.303 175.686 462.868 175.686C459.725 175.688 456.624 174.966 453.805 173.578C450.987 172.189 448.525 170.17 446.611 167.678C444.698 165.185 443.383 162.286 442.77 159.204C442.156 156.122 442.26 152.94 443.074 149.905C443.887 146.869 445.388 144.062 447.461 141.7C449.533 139.338 452.121 137.484 455.025 136.283C457.929 135.081 461.07 134.564 464.206 134.771C467.341 134.978 470.387 135.904 473.107 137.477C475.479 138.853 477.551 140.69 479.202 142.878C481.892 146.427 483.346 150.759 483.341 155.212Z" fill="black"/>
<path opacity="0.1" d="M457.827 142.222C456.768 142.677 455.747 143.215 454.773 143.831C454.122 144.186 453.563 144.687 453.139 145.294C452.928 145.6 452.812 145.962 452.806 146.333C452.799 146.704 452.902 147.069 453.101 147.383C453.599 148.064 454.558 148.165 455.404 148.216C456.292 148.329 457.193 148.238 458.041 147.951C458.613 147.668 459.134 147.29 459.58 146.834L461.341 145.238C461.972 144.682 462.603 143.919 462.357 143.137C462.211 142.857 461.998 142.619 461.737 142.442C461.476 142.266 461.175 142.158 460.861 142.127C459.344 141.832 457.771 142.108 456.445 142.903" fill="black"/>
<g opacity="0.1">
<path opacity="0.1" d="M450.476 164.373C451.072 164.373 451.555 163.89 451.555 163.295C451.555 162.699 451.072 162.216 450.476 162.216C449.881 162.216 449.397 162.699 449.397 163.295C449.397 163.89 449.881 164.373 450.476 164.373Z" fill="black"/>
</g>
<g opacity="0.1">
<path opacity="0.1" d="M472.382 160.418C474.563 160.418 476.331 158.649 476.331 156.468C476.331 154.287 474.563 152.518 472.382 152.518C470.201 152.518 468.432 154.287 468.432 156.468C468.432 158.649 470.201 160.418 472.382 160.418Z" fill="black"/>
</g>
<g opacity="0.1">
<path opacity="0.1" d="M479.24 142.878C479.229 143.911 478.921 144.918 478.353 145.781C477.785 146.643 476.981 147.324 476.037 147.743C475.093 148.162 474.049 148.301 473.028 148.143C472.008 147.985 471.054 147.537 470.281 146.852C469.508 146.168 468.948 145.276 468.667 144.282C468.386 143.288 468.397 142.234 468.699 141.247C469 140.259 469.578 139.379 470.366 138.71C471.153 138.042 472.116 137.614 473.139 137.477C475.513 138.853 477.587 140.689 479.24 142.878Z" fill="black"/>
</g>
<g opacity="0.1">
<path opacity="0.1" d="M479.606 166.998C477.845 169.505 475.542 171.584 472.868 173.08C470.195 174.576 467.219 175.452 464.161 175.642C464.161 175.358 464.123 175.074 464.123 174.784C464.125 172.987 464.625 171.226 465.569 169.697C466.513 168.168 467.862 166.931 469.467 166.124C471.072 165.316 472.87 164.971 474.66 165.125C476.45 165.28 478.163 165.928 479.606 166.998Z" fill="black"/>
</g>
<path d="M200.481 259.043C199.259 257.427 197.728 256.072 195.976 255.055C193.966 253.876 191.71 253.176 189.385 253.012C187.06 252.847 184.728 253.221 182.571 254.105C180.415 254.989 178.491 256.359 176.951 258.108C175.41 259.857 174.294 261.938 173.69 264.19C173.085 266.441 173.009 268.801 173.466 271.087C173.924 273.372 174.902 275.522 176.327 277.367C177.751 279.212 179.582 280.704 181.677 281.726C183.772 282.747 186.074 283.272 188.405 283.257C188.727 283.257 189.036 283.257 189.364 283.226C192.083 283.043 194.701 282.13 196.944 280.583C199.187 279.036 200.971 276.913 202.108 274.437C203.245 271.961 203.693 269.224 203.404 266.514C203.116 263.805 202.101 261.224 200.468 259.043H200.481Z" fill="url(#paint3_linear)"/>
<path opacity="0.2" d="M202.702 268.147C202.701 271.779 201.317 275.274 198.831 277.921C196.345 280.569 192.944 282.17 189.32 282.4C189.023 282.4 188.689 282.4 188.418 282.4C186.227 282.399 184.066 281.895 182.101 280.925C180.137 279.956 178.421 278.548 177.088 276.81C175.755 275.072 174.839 273.05 174.412 270.902C173.984 268.753 174.057 266.535 174.624 264.419C175.191 262.303 176.237 260.345 177.681 258.698C179.125 257.051 180.929 255.758 182.953 254.92C184.977 254.081 187.166 253.719 189.352 253.862C191.538 254.005 193.662 254.648 195.56 255.743C197.217 256.707 198.663 257.995 199.812 259.529C201.693 262.008 202.708 265.035 202.702 268.147Z" fill="black"/>
<path opacity="0.1" d="M184.897 259.087C184.159 259.401 183.448 259.775 182.771 260.204C182.319 260.456 181.929 260.805 181.629 261.226C181.489 261.443 181.414 261.696 181.414 261.955C181.414 262.213 181.489 262.466 181.629 262.683C181.838 262.89 182.09 263.049 182.367 263.149C182.643 263.249 182.938 263.288 183.232 263.264C183.852 263.344 184.482 263.281 185.074 263.081C185.475 262.883 185.84 262.618 186.153 262.298L187.377 261.188C187.806 260.797 188.273 260.267 188.083 259.724C187.987 259.526 187.84 259.356 187.657 259.232C187.475 259.108 187.263 259.034 187.042 259.018C185.986 258.811 184.891 259.004 183.97 259.56" fill="black"/>
<g opacity="0.1">
<path opacity="0.1" d="M179.768 274.532C180.183 274.532 180.519 274.196 180.519 273.781C180.519 273.366 180.183 273.03 179.768 273.03C179.353 273.03 179.017 273.366 179.017 273.781C179.017 274.196 179.353 274.532 179.768 274.532Z" fill="black"/>
</g>
<g opacity="0.1">
<path opacity="0.1" d="M195.055 271.781C196.578 271.781 197.812 270.547 197.812 269.024C197.812 267.501 196.578 266.267 195.055 266.267C193.532 266.267 192.298 267.501 192.298 269.024C192.298 270.547 193.532 271.781 195.055 271.781Z" fill="black"/>
</g>
<g opacity="0.1">
<path opacity="0.1" d="M199.818 259.541C199.813 260.268 199.597 260.979 199.199 261.587C198.8 262.195 198.235 262.676 197.57 262.971C196.905 263.266 196.17 263.364 195.451 263.252C194.733 263.14 194.061 262.824 193.518 262.341C192.974 261.858 192.581 261.228 192.386 260.528C192.191 259.827 192.202 259.085 192.417 258.391C192.632 257.696 193.043 257.078 193.601 256.611C194.158 256.144 194.838 255.847 195.56 255.756C197.219 256.719 198.667 258.007 199.818 259.541Z" fill="black"/>
</g>
<g opacity="0.1">
<path opacity="0.1" d="M200.096 276.368C198.867 278.117 197.26 279.567 195.395 280.611C193.53 281.655 191.453 282.267 189.32 282.399C189.32 282.204 189.32 282.002 189.32 281.768C189.321 280.515 189.67 279.286 190.328 278.22C190.987 277.153 191.928 276.29 193.048 275.727C194.168 275.163 195.422 274.922 196.671 275.03C197.92 275.138 199.114 275.59 200.121 276.336L200.096 276.368Z" fill="black"/>
</g>
<path d="M602.465 217.08C603.106 217.08 603.626 216.561 603.626 215.919C603.626 215.278 603.106 214.759 602.465 214.759C601.824 214.759 601.304 215.278 601.304 215.919C601.304 216.561 601.824 217.08 602.465 217.08Z" fill="white"/>
<ellipse cx="341" cy="462.5" rx="185" ry="12.5" fill="#5F5F5F"/>
<path d="M316.571 436.426H307.806V455.208H316.571V436.426Z" fill="#FBBEBE"/>
<path d="M384.812 437.052H376.047V455.834H384.812V437.052Z" fill="#FBBEBE"/>
<path d="M385.751 446.13L375.108 444.878L347.561 317.786L317.51 445.504L306.867 444.252C305.11 386.461 310.243 328.648 314.692 280.535L378.238 275.213C390.211 322.624 390.702 381.629 385.751 446.13Z" fill="#2F2E41"/>
<path d="M379.142 282.732C379.142 282.732 364.342 298.177 372.707 302.038C381.073 305.899 386.221 284.663 386.221 284.663L379.142 282.732Z" fill="#FBBEBE"/>
<path d="M303.388 283.984C303.388 283.984 288.588 299.429 296.953 303.29C305.319 307.151 310.467 285.915 310.467 285.915L303.388 283.984Z" fill="#FBBEBE"/>
<path d="M348.5 172.225C358.182 172.225 366.03 164.376 366.03 154.695C366.03 145.013 358.182 137.165 348.5 137.165C338.819 137.165 330.97 145.013 330.97 154.695C330.97 164.376 338.819 172.225 348.5 172.225Z" fill="#FBBEBE"/>
<path d="M368.847 191.32L337.544 194.45C340.437 181.425 341.139 169.256 337.544 158.764H359.456C358.266 167.506 362.715 179.002 368.847 191.32Z" fill="#FBBEBE"/>
<path d="M377.612 282.1C365.916 296.17 341.336 291.466 313.127 281.474C321.132 255.346 319.891 227.78 312.698 199.289C312.306 197.758 312.467 196.137 313.155 194.714C313.842 193.291 315.011 192.156 316.454 191.511L339.422 181.303L348.187 183.181L363.213 179.425L384.542 183.787C386.276 184.142 387.826 185.107 388.91 186.506C389.994 187.906 390.541 189.647 390.451 191.415C388.667 226.386 385.512 258.749 377.612 282.1Z" fill="#D964AC"/>
<path d="M383.873 293.369L378.238 283.978L388.881 243.91L383.247 183.807C386.881 184.17 390.306 185.68 393.027 188.118C395.747 190.556 397.621 193.796 398.379 197.369L406.927 237.667C408.216 243.742 407.443 250.073 404.73 255.658L383.873 293.369Z" fill="#D964AC"/>
<path d="M310.623 286.482L297.789 288.674L305.973 208.56C306.052 204.562 307.307 200.676 309.582 197.387C311.856 194.099 315.049 191.553 318.762 190.068L322.831 242.971L310.623 286.482Z" fill="#D964AC"/>
<path d="M313.238 461.772L289.614 465.921C288.542 466.109 287.437 465.96 286.453 465.496C285.674 465.127 284.997 464.574 284.481 463.883C283.966 463.192 283.627 462.385 283.496 461.534C283.365 460.682 283.445 459.811 283.729 458.997C284.013 458.183 284.493 457.451 285.125 456.866L295.245 447.503L297.883 442.892C298.625 441.557 299.684 440.425 300.967 439.595C302.249 438.766 303.716 438.264 305.238 438.134C309.75 437.821 311.239 441.254 310.295 447.702C313.722 450.222 314.264 449.835 316.57 446.443L317.617 457.071C317.498 458.224 317.006 459.307 316.215 460.155C315.425 461.004 314.379 461.571 313.238 461.772Z" fill="#2F2E41"/>
<path d="M381.479 461.772L357.855 465.921C356.783 466.109 355.679 465.96 354.694 465.496C353.915 465.127 353.238 464.574 352.723 463.883C352.207 463.192 351.869 462.385 351.738 461.534C351.607 460.682 351.687 459.811 351.971 458.997C352.255 458.183 352.734 457.451 353.367 456.866L363.486 447.503L366.125 442.892C366.867 441.557 367.926 440.425 369.208 439.595C370.491 438.766 371.958 438.264 373.479 438.134C377.991 437.821 379.48 441.254 378.537 447.702C381.963 450.222 382.505 449.835 384.812 446.443L385.859 457.071C385.739 458.224 385.247 459.307 384.457 460.155C383.666 461.004 382.621 461.571 381.479 461.772Z" fill="#2F2E41"/>
<path d="M334.582 144.707C342.484 140.186 350.396 143.074 358.322 155.409L359.942 168.548C371.837 157.279 371.236 141.9 357.896 135.645C356.585 135.03 355.314 134.331 353.887 134.578C351.066 133.064 347.774 132.683 344.682 133.514C341.59 134.345 338.932 136.324 337.249 139.047C334.785 139.474 331.252 144.371 331.379 146.869L334.582 144.707Z" fill="#2F2E41"/>
<path d="M357.578 158.451C358.788 158.451 359.769 157.19 359.769 155.634C359.769 154.078 358.788 152.817 357.578 152.817C356.368 152.817 355.387 154.078 355.387 155.634C355.387 157.19 356.368 158.451 357.578 158.451Z" fill="#FBBEBE"/>
<path d="M229.866 116.842H242.134C242.134 118.126 241.623 119.358 240.715 120.266C239.807 121.174 238.575 121.684 237.291 121.684H234.709C233.424 121.684 232.193 121.174 231.285 120.266C230.376 119.358 229.866 118.126 229.866 116.842H229.866Z" fill="#3F3D56"/>
<path d="M245 106V101.5C245 96.0624 250.914 90.9193 254.75 87.2499C260.158 82.0806 263 75.1356 263 67C263 59.8521 260.166 52.996 255.118 47.9347C250.071 42.8734 243.223 40.02 236.075 40.0001C228.927 39.9802 222.063 42.7955 216.988 47.8286C211.912 52.8617 209.04 59.702 209 66.8497C209 66.8998 209 66.9499 209 67C209 74.8449 211.964 82.2606 217.25 87.2499C221.066 90.8518 227 96.0062 227 101.5V106" fill="#F5FB8F"/>
<path d="M242 114.736H230C229.721 114.736 229.453 114.625 229.256 114.428C229.058 114.23 228.948 113.963 228.948 113.683C228.948 113.404 229.058 113.137 229.256 112.939C229.453 112.742 229.721 112.631 230 112.631H242C242.279 112.631 242.547 112.742 242.745 112.939C242.942 113.137 243.053 113.404 243.053 113.683C243.053 113.963 242.942 114.23 242.745 114.428C242.547 114.625 242.279 114.736 242 114.736Z" fill="black"/>
<path d="M245 111H227C226.721 111 226.453 110.889 226.256 110.691C226.058 110.494 225.947 110.226 225.947 109.947C225.947 109.668 226.058 109.4 226.256 109.203C226.453 109.005 226.721 108.894 227 108.894H245C245.279 108.894 245.547 109.005 245.744 109.203C245.942 109.4 246.053 109.668 246.053 109.947C246.053 110.226 245.942 110.494 245.744 110.691C245.547 110.889 245.279 111 245 111Z" fill="black"/>
<path d="M236 107.053C235.862 107.053 235.725 107.025 235.597 106.972C235.469 106.92 235.353 106.842 235.256 106.744C235.158 106.647 235.08 106.53 235.027 106.403C234.974 106.275 234.947 106.138 234.947 106V82C234.947 81.7208 235.058 81.453 235.256 81.2556C235.453 81.0582 235.721 80.9473 236 80.9473C236.279 80.9473 236.547 81.0582 236.744 81.2556C236.942 81.453 237.053 81.7208 237.053 82V106C237.053 106.138 237.025 106.275 236.973 106.403C236.92 106.53 236.842 106.647 236.744 106.744C236.647 106.842 236.531 106.92 236.403 106.972C236.275 107.025 236.138 107.053 236 107.053Z" fill="black"/>
<path d="M236 83.0526C232.599 83.0526 228.423 79.9755 228.247 79.8446C228.136 79.762 228.042 79.6585 227.971 79.5398C227.9 79.4211 227.854 79.2897 227.833 79.1529C227.813 79.0161 227.82 78.8767 227.854 78.7427C227.888 78.6086 227.948 78.4825 228.03 78.3716C228.113 78.2607 228.216 78.1671 228.335 78.0962C228.454 78.0253 228.585 77.9785 228.722 77.9584C228.859 77.9383 228.998 77.9454 229.132 77.9792C229.266 78.0129 229.392 78.0728 229.503 78.1553C230.55 78.9316 233.757 80.9472 236 80.9472C238.243 80.9472 241.45 78.9316 242.497 78.1549C242.608 78.0724 242.734 78.0126 242.868 77.9789C243.002 77.9451 243.142 77.9381 243.278 77.9582C243.415 77.9784 243.547 78.0252 243.665 78.0962C243.784 78.1671 243.888 78.2607 243.97 78.3717C244.053 78.4826 244.112 78.6087 244.146 78.7428C244.18 78.8768 244.187 79.0162 244.167 79.153C244.147 79.2898 244.1 79.4212 244.029 79.5399C243.958 79.6586 243.864 79.7621 243.753 79.8446C243.577 79.9755 239.401 83.0526 236 83.0526Z" fill="black"/>
<defs>
<linearGradient id="paint0_linear" x1="175.055" y1="385.561" x2="175.055" y2="368.154" gradientUnits="userSpaceOnUse">
<stop stop-color="#808080" stop-opacity="0.25"/>
<stop offset="0.54" stop-color="#808080" stop-opacity="0.12"/>
<stop offset="1" stop-color="#808080" stop-opacity="0.1"/>
</linearGradient>
<linearGradient id="paint1_linear" x1="11340.1" y1="8533.49" x2="11340.1" y2="8198.72" gradientUnits="userSpaceOnUse">
<stop stop-color="#808080" stop-opacity="0.25"/>
<stop offset="0.54" stop-color="#808080" stop-opacity="0.12"/>
<stop offset="1" stop-color="#808080" stop-opacity="0.1"/>
</linearGradient>
<linearGradient id="paint2_linear" x1="33614.9" y1="17861" x2="33614.9" y2="14886.7" gradientUnits="userSpaceOnUse">
<stop stop-color="#808080" stop-opacity="0.25"/>
<stop offset="0.54" stop-color="#808080" stop-opacity="0.12"/>
<stop offset="1" stop-color="#808080" stop-opacity="0.1"/>
</linearGradient>
<linearGradient id="paint3_linear" x1="10209.8" y1="17752.6" x2="10209.8" y2="16301.7" gradientUnits="userSpaceOnUse">
<stop stop-color="#808080" stop-opacity="0.25"/>
<stop offset="0.54" stop-color="#808080" stop-opacity="0.12"/>
<stop offset="1" stop-color="#808080" stop-opacity="0.1"/>
</linearGradient>
</defs>
</svg>
