<svg width="915" height="690" viewBox="0 0 915 690" fill="none" xmlns="http://www.w3.org/2000/svg">
<path opacity="0.1" d="M563.139 94.4985C523.903 127.818 473.011 125.663 428.414 108.324C383.817 90.9849 342.851 60.1264 299.399 38.1876C262.971 19.7964 224.745 7.71948 186.053 2.34724C130.673 -5.34193 68.8294 4.04463 30.247 57.8858C-12.7213 117.872 -9.4213 226.063 37.0337 281.092C60.6768 309.099 91.6327 322.848 118.627 344.744C145.621 366.641 170.621 402.931 168.322 445.145C166.193 484.185 141.447 514.203 115.836 533.019C96.044 547.557 71.6713 563.436 69.2875 593.556C66.98 622.692 87.4758 645.53 107.047 658.515C170.893 700.874 249.568 700.466 313.193 657.446C335.878 642.093 356.713 621.673 380.509 609.724C442.989 578.322 511.84 609.928 578.001 621.495C633.992 631.281 691.416 626.205 745.972 606.66C778.735 594.923 811.625 576.956 834.641 543.551C851.243 519.448 861.584 488.938 871.289 458.809C881.638 426.689 891.589 394.336 901.142 361.752C906.868 342.19 912.509 322.254 913.994 301.334C916.675 263.414 905.375 225.927 889.986 193.932C853.448 117.948 791.91 64.5226 725.264 50.952C658.619 37.3813 588.114 63.8861 536.424 121.886" fill="#6C63FF"/>
<path opacity="0.3" d="M415.298 460.744C521.644 460.744 607.854 456.807 607.854 451.951C607.854 447.095 521.644 443.159 415.298 443.159C308.953 443.159 222.743 447.095 222.743 451.951C222.743 456.807 308.953 460.744 415.298 460.744Z" fill="#5F5F5F"/>
<path d="M408.834 415.644C312.573 415.644 234.263 337.301 234.263 241C234.263 144.699 312.548 66.3556 408.834 66.3556C505.12 66.3556 583.38 144.707 583.38 241C583.38 337.293 505.061 415.644 408.834 415.644ZM408.834 68.053C313.506 68.053 235.96 145.641 235.96 241C235.96 336.359 313.481 413.947 408.834 413.947C504.187 413.947 581.708 336.359 581.708 241C581.708 145.641 504.128 68.053 408.834 68.053Z" fill="white"/>
<path d="M408.834 376.452C334.18 376.452 273.431 315.685 273.431 241C273.431 166.315 334.18 105.548 408.834 105.548C483.487 105.548 544.228 166.315 544.228 241C544.228 315.685 483.487 376.452 408.834 376.452ZM408.834 107.246C335.105 107.246 275.127 167.248 275.127 241C275.127 314.751 335.105 374.754 408.834 374.754C482.563 374.754 542.532 314.751 542.532 241C542.532 167.248 482.529 107.246 408.834 107.246Z" fill="white"/>
<path d="M408.834 334.356C390.377 334.356 372.335 328.881 356.99 318.623C341.644 308.365 329.683 293.784 322.62 276.726C315.557 259.667 313.709 240.896 317.31 222.787C320.91 204.678 329.798 188.043 342.849 174.987C355.899 161.931 372.527 153.04 390.628 149.437C408.73 145.835 427.493 147.684 444.545 154.75C461.596 161.816 476.17 173.781 486.424 189.134C496.678 204.486 502.151 222.536 502.151 241C502.122 265.751 492.281 289.479 474.787 306.981C457.293 324.482 433.574 334.327 408.834 334.356ZM408.834 149.341C390.713 149.341 372.999 154.717 357.932 164.788C342.865 174.86 331.122 189.175 324.188 205.924C317.253 222.672 315.439 241.102 318.974 258.882C322.509 276.662 331.235 292.994 344.048 305.813C356.862 318.631 373.187 327.361 390.96 330.898C408.732 334.434 427.154 332.619 443.895 325.682C460.637 318.744 474.946 306.996 485.013 291.923C495.081 276.85 500.454 259.128 500.454 241C500.425 216.699 490.763 193.403 473.587 176.219C456.411 159.036 433.124 149.37 408.834 149.341Z" fill="white"/>
<path opacity="0.5" d="M151.457 564.895C190.832 564.895 222.751 559.656 222.751 553.192C222.751 546.728 190.832 541.489 151.457 541.489C112.082 541.489 80.1626 546.728 80.1626 553.192C80.1626 559.656 112.082 564.895 151.457 564.895Z" fill="#5F5F5F"/>
<g opacity="0.1">
<path opacity="0.1" d="M276.434 228.906H58.9288C55.9166 228.915 53.0304 230.116 50.9005 232.247C48.7705 234.378 47.57 237.265 47.561 240.279V377.767C47.57 380.78 48.7705 383.668 50.9005 385.799C53.0304 387.93 55.9166 389.131 58.9288 389.14H229.555C229.555 389.14 233.975 412.614 219.451 415.144C219.451 415.144 251.976 417.477 246.293 389.14H276.434C279.446 389.131 282.332 387.93 284.462 385.799C286.592 383.668 287.793 380.78 287.802 377.767V240.279C287.793 237.265 286.592 234.378 284.462 232.247C282.332 230.116 279.446 228.915 276.434 228.906Z" fill="black"/>
<g opacity="0.2">
<path opacity="0.2" d="M250.968 265.4H84.3882C81.7317 265.4 79.5781 267.554 79.5781 270.212V271.332C79.5781 273.99 81.7317 276.144 84.3882 276.144H250.968C253.624 276.144 255.778 273.99 255.778 271.332V270.212C255.778 267.554 253.624 265.4 250.968 265.4Z" fill="black"/>
<path opacity="0.2" d="M250.967 313.419H84.3877C81.7312 313.419 79.5776 315.573 79.5776 318.231V319.351C79.5776 322.009 81.7312 324.163 84.3877 324.163H250.967C253.624 324.163 255.777 322.009 255.777 319.351V318.231C255.777 315.573 253.624 313.419 250.967 313.419Z" fill="black"/>
<path opacity="0.2" d="M222.531 337.42H84.3877C81.7312 337.42 79.5776 339.575 79.5776 342.232V343.352C79.5776 346.01 81.7312 348.165 84.3877 348.165H222.531C225.188 348.165 227.341 346.01 227.341 343.352V342.232C227.341 339.575 225.188 337.42 222.531 337.42Z" fill="black"/>
<path opacity="0.2" d="M151.169 289.409H84.3877C81.7312 289.409 79.5776 291.564 79.5776 294.221V295.342C79.5776 297.999 81.7312 300.154 84.3877 300.154H151.169C153.825 300.154 155.979 297.999 155.979 295.342V294.221C155.979 291.564 153.825 289.409 151.169 289.409Z" fill="black"/>
</g>
</g>
<path d="M278.334 227.955H60.8204C57.8082 227.964 54.922 229.165 52.7921 231.296C50.6621 233.427 49.4616 236.314 49.4526 239.328V376.816C49.4616 379.83 50.6621 382.717 52.7921 384.848C54.922 386.979 57.8082 388.18 60.8204 388.189H231.446C231.446 388.189 235.875 411.664 221.343 414.184C221.343 414.184 253.868 416.518 248.184 388.189H278.334C281.345 388.18 284.231 386.979 286.359 384.848C288.488 382.717 289.687 379.829 289.693 376.816V239.328C289.687 236.315 288.488 233.428 286.359 231.297C284.231 229.166 281.345 227.964 278.334 227.955Z" fill="#3F6ECF"/>
<path opacity="0.2" d="M252.867 264.449H86.2876C83.6311 264.449 81.4775 266.604 81.4775 269.261V270.382C81.4775 273.039 83.6311 275.194 86.2876 275.194H252.867C255.524 275.194 257.677 273.039 257.677 270.382V269.261C257.677 266.604 255.524 264.449 252.867 264.449Z" fill="white"/>
<path opacity="0.2" d="M252.867 312.469H86.2876C83.6311 312.469 81.4775 314.623 81.4775 317.281V318.401C81.4775 321.059 83.6311 323.213 86.2876 323.213H252.867C255.524 323.213 257.677 321.059 257.677 318.401V317.281C257.677 314.623 255.524 312.469 252.867 312.469Z" fill="white"/>
<path opacity="0.2" d="M224.431 336.478H86.2876C83.6311 336.478 81.4775 338.632 81.4775 341.29V342.41C81.4775 345.068 83.6311 347.222 86.2876 347.222H224.431C227.087 347.222 229.241 345.068 229.241 342.41V341.29C229.241 338.632 227.087 336.478 224.431 336.478Z" fill="white"/>
<path opacity="0.2" d="M153.069 288.459H86.2876C83.6311 288.459 81.4775 290.613 81.4775 293.271V294.391C81.4775 297.049 83.6311 299.203 86.2876 299.203H153.069C155.725 299.203 157.879 297.049 157.879 294.391V293.271C157.879 290.613 155.725 288.459 153.069 288.459Z" fill="white"/>
<path d="M197.598 225.774L185.543 251.422C185.543 251.422 183.761 256.234 182.616 257.125C181.471 258.016 176.406 273.25 176.406 273.25L163.486 293.228L162.638 294.586L157.548 293.186L153.993 279.887L154.214 276.025V275.542C154.214 275.542 162.214 267.174 163.987 266.537C163.987 266.537 165.378 266.698 168.05 260.214C170.722 253.73 173.14 252.321 173.14 252.321L174.531 247.62L189.513 223.763C189.513 223.763 202.068 205.745 205.487 213.74C208.906 221.734 197.598 225.774 197.598 225.774Z" fill="#FFD2C6"/>
<path d="M147.546 407.947C147.505 408.382 147.366 408.803 147.139 409.177C145.747 411.206 137.883 452.707 137.883 452.707C138.511 455.507 136.747 461.092 135.593 463.629C134.439 466.167 131.911 479.364 131.911 479.364C131.911 479.364 131.283 507.795 129.637 512.234C127.992 516.673 130.163 526.195 130.163 526.195C130.002 530.574 132.632 535.2 134.193 537.559C134.312 537.712 134.405 537.865 134.498 537.992C135.007 538.722 135.347 539.138 135.347 539.138C135.773 539.99 136.377 540.74 137.12 541.336C137.23 541.429 137.349 541.514 137.476 541.607C139.631 543.057 142.044 544.077 144.585 544.612L144.831 544.663C145.849 544.892 146.528 544.977 146.528 544.977L147.156 548.372L140.437 549.763L127.627 550.612C127.627 550.612 112.526 551.758 115.954 545.028C116.195 544.568 116.402 544.092 116.573 543.602C116.7 543.279 116.819 542.94 116.921 542.6C118.982 536.133 117.591 528.274 117.591 528.274L114.639 505.402C109.829 484.083 118.439 460.345 118.439 460.345C118.439 460.345 117.684 458.444 119.339 453.623C120.993 448.803 119.339 438.27 119.339 438.27C119.339 438.27 118.49 424.691 117.311 417.961C116.861 415.136 116.708 412.272 116.853 409.415C116.907 407.738 117.06 406.066 117.311 404.408L146.239 400.571C146.239 400.571 147.868 405.256 147.546 407.947Z" fill="#FFD2C6"/>
<path opacity="0.1" d="M147.122 548.414L140.403 549.806L127.593 550.654C127.593 550.654 112.493 551.8 115.92 545.07C116.161 544.61 116.368 544.134 116.539 543.644C116.667 543.322 116.786 542.982 116.887 542.643C119.501 542.724 122.082 543.246 124.522 544.187C128.823 545.885 132.064 541.514 132.064 541.514L134.151 537.525L134.456 536.948C134.965 537.678 135.305 538.094 135.305 538.094C135.805 539.075 136.535 539.919 137.434 540.555L137.078 541.302L135.05 545.545C135.05 545.545 137.646 545.808 141.201 546.394C141.887 546.58 142.618 546.493 143.241 546.151C143.864 545.809 144.331 545.239 144.543 544.561L144.789 544.612C145.807 544.841 146.486 544.926 146.486 544.926L147.122 548.414Z" fill="black"/>
<path d="M153.34 551.58C152.831 553.863 138.689 554.567 138.689 554.567C138.689 554.567 130.817 553.803 128.611 555.645C126.405 557.487 119.907 557.045 119.653 557.045C119.398 557.045 115.979 556.909 114.639 550.765C113.341 544.773 116.387 543.729 116.539 543.678C119.277 543.716 121.986 544.242 124.539 545.231C128.84 546.929 132.081 542.566 132.081 542.566L134.473 537.992C134.982 538.722 135.321 539.138 135.321 539.138C135.817 540.124 136.549 540.972 137.451 541.607L135.067 546.623C135.067 546.623 137.663 546.886 141.217 547.472C144.059 547.93 144.679 545.613 144.806 544.68C144.814 544.553 144.814 544.425 144.806 544.298C144.806 544.298 147.02 544.934 149.743 545.698C150.971 546.049 152.022 546.848 152.688 547.937C153.354 549.027 153.587 550.327 153.34 551.58Z" fill="#626696"/>
<path d="M179.987 438.194C179.647 440.222 179.299 445.476 179.299 445.476C180.487 449.872 177.442 460.319 177.442 460.319L175.923 466.26C176.602 473.899 171.741 492.493 171.741 492.493C171.741 492.493 168.483 509.756 166.786 517.207C165.774 521.342 166.07 525.69 167.635 529.649C167.72 529.853 167.77 529.955 167.77 529.955C167.77 530.099 167.83 530.235 167.872 530.371C167.915 530.506 167.983 530.778 168.05 530.973C168.44 532.013 169.015 532.974 169.747 533.808C170.026 534.142 170.329 534.454 170.655 534.741L170.706 534.792C172.298 536.203 174.124 537.326 176.101 538.111L176.949 538.45C177.83 538.783 178.727 539.066 179.639 539.299C179.739 539.327 179.841 539.35 179.944 539.367L179.257 543.356L170.299 541.064L158.295 537.169L152.356 533.774C152.356 533.774 152.424 533.451 152.543 532.832C152.543 532.832 152.543 532.764 152.543 532.73C152.594 532.467 152.645 532.153 152.721 531.796C153.73 526.619 156.029 511.937 154.876 501.159C153.442 487.792 159.007 469.341 160.364 464.945C161.168 462.433 161.513 459.797 161.382 457.162C159.177 453.937 158.668 441.088 158.668 441.088C158.668 441.088 154.613 432.788 151.253 423.987C150.145 421.113 149.335 418.132 148.836 415.093C148.444 412.949 148.279 410.77 148.344 408.591C148.344 408.591 175.592 383.716 178.578 407.802C178.68 408.651 178.773 409.398 178.867 410.162C181.48 432.177 180.309 436.233 179.987 438.194Z" fill="#FFD2C6"/>
<path opacity="0.1" d="M179.986 539.392L179.299 543.381L170.341 541.09L158.337 537.194L152.398 533.8C152.398 533.8 152.466 533.477 152.585 532.858C152.585 532.858 152.585 532.79 152.585 532.756C152.636 532.493 152.687 532.179 152.763 531.822L153.612 531.737H153.679C155.386 531.579 157.106 531.811 158.71 532.416C160.661 533.155 163.223 533.995 163.749 533.638C164.656 533.25 165.64 533.075 166.625 533.129L167.872 530.396L168.05 529.98C168.437 531.021 169.013 531.982 169.747 532.815C170.043 533.166 170.363 533.495 170.706 533.8L170.655 534.767L170.587 536.134C171.926 536.992 173.376 537.663 174.896 538.128C175.292 538.226 175.705 538.226 176.101 538.128L176.949 538.467C177.829 538.8 178.727 539.083 179.639 539.316C179.753 539.349 179.869 539.374 179.986 539.392Z" fill="black"/>
<path d="M175.541 547.905C173.038 547.183 167.007 546.038 166.031 546.929C165.056 547.82 156.699 546.929 156.699 546.929C155.821 546.913 154.962 546.67 154.205 546.224C153.449 545.778 152.82 545.144 152.381 544.383C150.685 541.675 152.05 532.917 152.05 532.917L152.67 532.857L153.705 532.756H153.773C155.479 532.593 157.201 532.825 158.803 533.435C160.754 534.164 163.316 535.005 163.842 534.657C164.748 534.264 165.733 534.089 166.718 534.147L168.143 530.999C168.533 532.039 169.108 532.999 169.84 533.833C170.136 534.184 170.456 534.513 170.799 534.818L170.68 537.152C172.02 538.006 173.47 538.674 174.99 539.138C175.357 539.288 175.764 539.305 176.143 539.185C176.521 539.066 176.845 538.818 177.059 538.484C177.127 538.377 177.179 538.259 177.212 538.136C177.289 538.281 178.111 538.561 180.75 539.316C183.617 539.155 186.383 540.402 187.655 544.289C188.928 548.176 177.993 548.618 175.541 547.905Z" fill="#626696"/>
<path opacity="0.1" d="M147.546 407.947C146.986 408.108 146.477 408.261 146.002 408.413C144.781 408.788 143.529 409.052 142.261 409.203C134.261 410.331 121.052 409.652 116.87 409.389C116.924 407.713 117.077 406.041 117.328 404.382L146.257 400.546C146.257 400.546 147.868 405.256 147.546 407.947Z" fill="black"/>
<path d="M172.759 400.919C172.759 400.919 162.138 402.566 153.502 404.458C150.617 405.086 147.954 405.74 145.985 406.385C144.762 406.751 143.511 407.015 142.244 407.174C132.624 408.524 115.539 407.276 115.539 407.276C110.847 392.05 121.239 372.878 121.239 372.878C120.993 371.351 123.403 366.666 123.403 366.666L123.445 366.513L124.921 361.082H164.377L164.861 363.415L165.862 368.168L172.055 397.592L172.759 400.919Z" fill="#626696"/>
<path opacity="0.1" d="M178.867 410.153L178.629 410.255L174.014 412.3C169.018 414.609 154.061 415.042 148.836 415.084C148.444 412.94 148.279 410.761 148.344 408.583C148.344 408.583 175.592 383.708 178.578 407.794C178.68 408.651 178.773 409.389 178.867 410.153Z" fill="black"/>
<path d="M179.596 407.802L178.629 408.227L174.014 410.28C168.924 412.623 153.493 413.039 148.564 413.064H147.266C144.984 412.988 142.702 410.849 142.702 410.289C142.702 409.983 142.465 408.481 142.261 407.191C142.091 406.156 141.939 405.265 141.939 405.265C141.939 405.265 131.759 400.868 126.592 397.312C122.715 394.673 123.691 375.917 124.446 366.488C124.709 363.237 124.938 361.099 124.938 361.099L164.878 363.433L170.477 363.755L173.683 364.468L174.532 364.646C174.532 364.646 176.822 381.399 177.925 382.791C179.028 384.183 178.315 388.885 178.18 391.558C178.174 392.7 178.049 393.838 177.806 394.953C177.806 394.953 179.452 399.655 179.062 402.286C178.887 404.142 179.068 406.014 179.596 407.802Z" fill="#626696"/>
<path d="M136.849 268.676C145.887 268.676 153.213 261.346 153.213 252.305C153.213 243.263 145.887 235.933 136.849 235.933C127.811 235.933 120.484 243.263 120.484 252.305C120.484 261.346 127.811 268.676 136.849 268.676Z" fill="#FFD2C6"/>
<path d="M128.883 259.136C128.883 259.136 130.019 274.642 126.855 278.198C123.691 281.754 115.437 288.476 115.437 288.476L117.982 299.008L132.318 300.663L149.065 282.764L145.256 278.071C145.256 278.071 142.337 268.167 144.747 263.219C147.156 258.271 128.883 259.136 128.883 259.136Z" fill="#FFD2C6"/>
<path opacity="0.1" d="M163.486 293.229L162.638 294.586L157.548 293.186L153.993 279.887L154.214 276.026L155.257 274.523C155.257 274.523 160.839 274.659 160.593 279.734C160.347 284.19 162.884 291.531 163.486 293.229Z" fill="black"/>
<path opacity="0.1" d="M174.523 366.666C174.523 366.666 170.485 367.566 165.862 368.168C161.238 368.771 155.902 369.076 153.714 367.803C150.04 365.631 130.138 366.25 124.429 366.471C124.022 366.471 123.699 366.471 123.445 366.513L124.921 361.082H164.377L164.861 363.415L170.46 363.738L173.666 364.451C174.201 365.766 174.523 366.666 174.523 366.666Z" fill="black"/>
<path d="M154.231 275.533C154.231 275.533 159.813 275.661 159.558 280.736C159.304 285.811 162.604 294.569 162.604 294.569L161.331 297.489C161.331 297.489 159.558 304.592 160.95 306.375C162.341 308.157 167.422 308.149 164.504 322.746C164.504 322.746 163.876 333.66 165.395 337.216C166.913 340.772 166.913 349.268 169.195 352.824C171.478 356.38 174.532 364.629 174.532 364.629C174.532 364.629 158.031 368.304 153.722 365.766C149.412 363.229 122.893 364.519 122.893 364.519C122.893 364.519 123.02 360.072 122.893 359.571C122.777 359.015 122.774 358.442 122.883 357.885C122.992 357.329 123.212 356.799 123.529 356.329C124.378 355.124 125.812 353.095 125.048 351.322C124.284 349.548 126.957 346.925 125.557 344.176C124.157 341.426 122.461 340.874 122.8 339.372C123.139 337.87 122.257 335.833 121.247 334.568C120.238 333.304 113.375 319.886 113.375 319.886L112.238 313.597C112.238 313.597 103.407 307.122 103.568 304.075C103.729 301.028 106.911 296.81 106.911 296.81L115.394 288.467C115.394 288.467 120.085 293.559 124.649 291.769C129.213 289.978 139.063 281.491 139.063 281.491C139.063 281.491 142.575 279.59 142.829 278.198C143.084 276.806 145.238 278.071 145.238 278.071C145.238 278.071 148.411 276.331 149.047 276.942C149.684 277.553 152.441 278.071 152.441 278.071L154.231 275.533Z" fill="#FFCDE5"/>
<path d="M106.275 301.97L103.569 304.083C103.569 304.083 100.82 309.04 100.175 317.917C99.5305 326.794 96.7819 339.355 96.7819 339.355L91.4543 348.886C91.4543 348.886 82.674 367.277 81.5373 372.157C80.4005 377.037 75.1917 385.295 75.1917 385.295C75.1917 385.295 57.5547 401.148 69.8641 403.966C82.1735 406.784 82.5468 391.346 82.5468 391.346C82.5468 391.346 85.4226 388.172 85.8892 386.016C86.3558 383.861 101.957 356.253 101.957 356.253C101.957 356.253 107.42 348.827 106.275 344.897C106.275 344.897 113.375 328.186 113.375 323.994C113.241 320.506 112.861 317.032 112.239 313.597L113.375 304.839L106.275 301.97Z" fill="#FFD2C6"/>
<path opacity="0.1" d="M142.812 336.962C142.812 336.962 130.376 343.471 127.967 343.811C125.557 344.15 138.494 342.453 138.494 342.453L142.812 336.962Z" fill="black"/>
<path opacity="0.1" d="M152.959 342.037C152.959 342.037 136.467 347.621 129.205 346.603C129.239 346.603 147.249 350.032 152.959 342.037Z" fill="black"/>
<path opacity="0.1" d="M153.977 343.862C153.977 343.862 139.131 353.197 130.376 351.678C130.376 351.678 150.804 355.743 153.977 353.588L144.84 351.042C144.84 351.042 154.995 345.678 153.977 343.862Z" fill="black"/>
<path opacity="0.1" d="M136.874 223.5C132.582 222.651 127.822 223.16 124.387 225.859C121.842 227.862 120.145 230.951 117.286 232.411C115.773 233.048 114.223 233.595 112.646 234.049C109.862 235.187 107.542 237.229 106.06 239.846C104.578 242.463 104.02 245.504 104.476 248.477C104.926 251.023 106.105 253.314 106.682 255.793C107.717 260.223 106.809 264.865 105.681 269.27C102.552 281.511 97.8013 293.279 91.5559 304.262C91.0582 304.941 90.8096 305.771 90.8518 306.612C91.0005 307.178 91.2927 307.695 91.7001 308.115C97.5621 314.904 107.106 317.221 116.064 317.527C119.364 317.637 122.851 317.527 125.718 315.923C127.588 314.848 129.196 313.373 130.427 311.603C133.553 307.333 135.106 302.112 134.821 296.827C134.575 292.584 133.124 288.264 134.219 284.148C134.335 283.573 134.598 283.037 134.982 282.594C135.949 281.61 137.527 281.865 138.919 281.703C142.643 281.27 145.052 277.341 145.493 273.624C145.934 269.906 145.001 266.147 144.984 262.404C144.964 257.447 146.511 252.611 149.404 248.587C150.643 246.89 152.229 245.192 152.645 243.062C153.171 240.389 151.618 238.42 150.278 236.273C148.199 232.98 147.181 229.135 144.017 226.623C141.912 225.039 139.466 223.97 136.874 223.5Z" fill="black"/>
<path d="M135.856 222.481C131.572 221.633 126.804 222.142 123.369 224.849C120.824 226.844 119.127 229.941 116.268 231.401C114.758 232.036 113.211 232.581 111.636 233.031C108.852 234.168 106.531 236.21 105.048 238.827C103.564 241.444 103.004 244.484 103.458 247.458C103.908 250.005 105.087 252.296 105.672 254.783C106.707 259.213 105.791 263.847 104.671 268.251C101.549 280.491 96.8075 292.259 90.5719 303.243C90.0733 303.919 89.8272 304.747 89.8763 305.586C90.0194 306.153 90.3124 306.672 90.7246 307.088C96.5951 313.877 106.13 316.194 115.089 316.5C118.389 316.619 121.876 316.5 124.743 314.904C126.612 313.827 128.22 312.348 129.451 310.576C132.561 306.312 134.104 301.105 133.82 295.834C133.574 291.591 132.123 287.271 133.226 283.146C133.34 282.572 133.6 282.037 133.981 281.593C134.948 280.608 136.526 280.863 137.926 280.744C141.65 280.311 144.051 276.382 144.492 272.656C144.933 268.93 144.009 265.188 143.983 261.436C143.952 256.466 145.496 251.614 148.395 247.577C149.633 245.88 151.211 244.183 151.627 242.044C152.153 239.37 150.609 237.41 149.268 235.254C147.19 231.961 146.172 228.117 142.999 225.613C140.896 224.024 138.45 222.951 135.856 222.481Z" fill="#985C7E"/>
<path opacity="0.1" d="M130.376 381.17C130.376 381.17 133.634 396.396 139.046 400.546L130.376 381.17Z" fill="black"/>
<g opacity="0.1">
<path opacity="0.1" d="M104.425 250.853C104.256 250.259 104.061 249.665 103.857 249.08C104.027 249.674 104.222 250.268 104.425 250.853Z" fill="black"/>
<path opacity="0.1" d="M150.711 237.563C150.751 238.042 150.728 238.524 150.643 238.997C150.219 241.144 148.641 242.816 147.402 244.531C144.507 248.55 142.959 253.384 142.982 258.339C142.982 262.09 143.924 265.833 143.483 269.559C143.042 273.284 140.641 277.197 136.917 277.647C135.542 277.808 133.939 277.545 132.98 278.495C132.596 278.938 132.333 279.473 132.217 280.048C131.139 284.173 132.573 288.484 132.811 292.736C133.097 298.006 131.557 303.213 128.45 307.478C127.217 309.249 125.61 310.727 123.742 311.807C120.832 313.377 117.388 313.504 114.079 313.402C105.274 313.105 95.908 310.856 90.0205 304.313C89.8636 304.7 89.8138 305.122 89.8763 305.535C90.0194 306.102 90.3124 306.621 90.7246 307.037C96.5951 313.826 106.13 316.143 115.089 316.449C118.389 316.568 121.876 316.449 124.743 314.853C126.611 313.773 128.218 312.296 129.451 310.525C132.561 306.261 134.105 301.054 133.82 295.783C133.574 291.54 132.124 287.22 133.226 283.095C133.34 282.521 133.6 281.986 133.981 281.542C134.948 280.558 136.526 280.812 137.926 280.693C141.65 280.261 144.051 276.331 144.492 272.605C144.933 268.88 144.009 265.137 143.983 261.386C143.963 256.433 145.506 251.6 148.395 247.577C149.633 245.88 151.211 244.183 151.627 242.044C151.894 240.488 151.567 238.888 150.711 237.563Z" fill="black"/>
</g>
<path opacity="0.1" d="M419.964 680.708C432.582 680.708 442.81 678.98 442.81 676.847C442.81 674.714 432.582 672.985 419.964 672.985C407.347 672.985 397.119 674.714 397.119 676.847C397.119 678.98 407.347 680.708 419.964 680.708Z" fill="#6C63FF"/>
<path opacity="0.1" d="M672.862 653.041C685.48 653.041 695.708 651.312 695.708 649.179C695.708 647.047 685.48 645.318 672.862 645.318C660.245 645.318 650.017 647.047 650.017 649.179C650.017 651.312 660.245 653.041 672.862 653.041Z" fill="#6C63FF"/>
<path opacity="0.5" d="M719.453 381.527C755.787 381.527 785.241 376.693 785.241 370.731C785.241 364.769 755.787 359.936 719.453 359.936C683.119 359.936 653.664 364.769 653.664 370.731C653.664 376.693 683.119 381.527 719.453 381.527Z" fill="#5F5F5F"/>
<path d="M796.05 157.853C798.739 148.832 796.05 139.81 796.05 139.81V131.323C796.05 131.323 799.121 114.68 785.446 104.004L776.368 96.0005C776.368 96.0005 771.278 91.6382 769.811 91.3581C769.531 91.2975 769.248 91.2549 768.962 91.2308L768.691 91.078C767.912 89.742 767.248 88.3423 766.706 86.894C767.293 86.9691 767.89 86.9088 768.45 86.7175C769.01 86.5263 769.519 86.2092 769.938 85.7907C770.265 85.4145 770.524 84.9836 770.701 84.5176C771.227 83.3379 771.312 81.9121 771.762 80.6561C772.154 79.6357 772.729 78.6953 773.459 77.8808C773.365 78.0336 773.272 78.1779 773.187 78.3306C774.468 76.7351 776.148 75.3602 777.344 73.6713C777.585 73.3398 777.806 72.994 778.006 72.6359L777.827 72.8481C779.524 70.1662 780.008 66.9072 780.491 63.784C780.724 62.7176 780.742 61.6153 780.542 60.542C780.312 59.8277 780.007 59.1394 779.634 58.4882C777.666 54.4144 777.709 49.3053 774.544 46.0548C772.178 43.619 768.606 42.8722 765.213 42.4563C761.819 42.0405 758.282 41.8028 755.38 40.0291C754.567 39.4147 753.67 38.9202 752.717 38.5608C752.234 38.3936 751.709 38.3995 751.231 38.5776C750.752 38.7557 750.351 39.0949 750.095 39.5368C750.036 39.7956 749.917 40.0369 749.747 40.2412C749.595 40.329 749.425 40.3801 749.25 40.3904C749.074 40.4007 748.899 40.37 748.738 40.3007L744.242 39.0955L744.293 39.3247H744.182L744.344 40.0376C744.488 40.0376 744.64 40.0376 744.768 40.2837L744.047 41.3955C742.651 41.3698 741.272 41.0819 739.983 40.5468C739.979 40.6203 739.979 40.6939 739.983 40.7674H739.924C739.839 42.0405 741.281 42.8637 741.722 44.0604C741.901 44.5831 741.901 45.1502 741.722 45.6729C741.534 46.1583 741.245 46.598 740.874 46.9629C739.271 48.5415 737.235 48.2275 735.394 49.2289C735.234 49.2951 735.092 49.3955 734.976 49.5232C734.86 49.6508 734.774 49.8024 734.723 49.9673C734.653 50.0909 734.632 50.2362 734.664 50.3747C734.735 50.5664 734.866 50.7301 735.037 50.8414C735.574 51.2731 736.16 51.6379 736.785 51.9278L736.259 52.437C733.93 54.8091 732.224 57.7211 731.293 60.9132C730.362 64.1052 730.235 67.4782 730.924 70.7311C731.613 73.984 733.096 77.0159 735.24 79.5562C737.385 82.0965 740.125 84.0663 743.215 85.2899C743.283 85.6379 743.334 85.9944 743.385 86.3763C743.385 86.3763 743.385 86.4442 743.385 86.4781L743.436 86.9619L737.37 89.5079C736.456 89.5017 735.563 89.2359 734.794 88.7416C734.025 88.2473 733.412 87.5448 733.027 86.7157C731.619 83.7962 726.639 86.7157 726.639 86.7157C726.639 86.7157 711.428 85.57 705.804 88.3707C705.804 88.3707 696.726 84.5601 695.454 84.3054C694.181 84.0508 692.256 83.0324 691.356 83.287C690.457 83.5416 689.312 81.5896 688.676 81.7594C688.039 81.9291 687.827 80.4948 685.74 79.9856C683.654 79.4764 682.924 80.1129 680.65 77.8214C678.377 75.5299 659.688 66.5168 659.688 66.5168L651.256 59.6509L642.306 52.5388L642.144 52.8359C642.094 52.6237 642.034 52.403 641.975 52.1739C641.095 48.6264 639.987 45.1395 638.658 41.7349C638.081 40.3601 637.809 38.6202 637.054 39.5368C636.579 40.0885 635.765 38.8833 634.509 38.0686C634.251 37.8884 633.955 37.7683 633.644 37.7171C633.334 37.666 633.015 37.685 632.713 37.7729C632.41 37.8608 632.131 38.0152 631.896 38.225C631.661 38.4348 631.475 38.6945 631.354 38.9852C624.389 49.9079 621.895 50.6972 625.933 54.6945C629.521 58.259 631.913 61.4077 634.849 62.3328L635.197 62.4431C635.132 62.4561 635.066 62.4561 635.001 62.4431L651.968 82.7693C651.968 82.7693 664.235 93.4459 672.676 96.8746C681.117 100.303 680.472 101.322 680.472 101.322C680.472 101.322 706.033 114.281 709.994 114.052C713.956 113.823 713.193 140.608 711.53 144.928C709.867 149.248 707.186 180.505 707.186 180.505C707.186 180.505 704.641 187.108 707.314 191.682C707.314 191.682 707.907 200.441 707.373 202.537C705.04 206.127 701.723 212.221 701.18 218.492C701.18 218.823 701.112 219.137 701.078 219.46C700.908 219.659 700.705 219.825 700.476 219.952C700.476 219.952 700.697 219.901 701.044 219.782C700.791 222.388 700.221 224.953 699.348 227.421C697.989 230.941 697.282 234.68 697.261 238.454V258.644L695.573 271.162C695.573 271.162 693.528 280.642 695.573 282.849C696.44 283.951 696.842 285.35 696.692 286.744C696.606 288.362 697.066 289.961 697.999 291.285C698.354 291.674 698.615 292.14 698.762 292.646C698.909 293.152 698.938 293.685 698.847 294.204C698.169 296.403 699.848 319.776 699.848 319.776C699.848 319.776 699.356 326.217 698.678 326.565C697.999 326.913 699.814 333.966 699.814 333.966C699.814 333.966 692.909 339.728 694.665 342.784L696.43 345.491L695.963 345.949L695.674 346.238C695.144 345.931 694.524 345.814 693.918 345.907C691.751 348.131 689.429 350.198 686.971 352.094C683.857 354.343 675.382 357.602 675.382 357.602L668.697 358.145H668.57C668.57 358.145 665.372 357.848 667.162 362.804C668.952 367.761 684.977 366.199 684.977 366.199L694.309 364.723C694.309 364.723 711.004 364.799 715.78 363.747C717.782 363.297 718.257 362.236 718.13 361.15L718.079 361.099C717.852 360.067 717.384 359.104 716.713 358.289C716.677 358.239 716.637 358.19 716.594 358.145L716.9 354.75C723.984 350.668 714.898 342.631 714.898 342.631C714.898 342.631 718.003 335.841 719.606 333.66C721.209 331.479 721.201 299.101 721.201 299.101C721.201 299.101 722.049 287.406 719.835 284.674C719.797 283.793 719.999 282.918 720.419 282.142C720.839 281.366 721.461 280.719 722.219 280.269C723.797 279.191 728.564 264.347 732.306 252.024L734.664 266.546C734.664 266.546 734.155 273.488 735.691 275.525C735.976 275.907 736.179 276.344 736.287 276.808C736.395 277.273 736.406 277.755 736.318 278.224C735.944 280.183 736.064 282.204 736.666 284.105C736.838 284.917 737.27 285.65 737.896 286.193C739.262 286.872 739.347 289.291 739.856 289.8C740.365 290.309 743.521 289.078 743.69 290.937C743.787 292.574 743.787 294.214 743.69 295.851L744.717 326.005C744.717 326.005 743.02 328.551 742.672 335.154C742.528 338.006 741.994 339.627 741.442 340.552C741.136 341.049 740.995 341.632 741.041 342.214C741.087 342.797 741.316 343.35 741.697 343.794L741.994 344.133L740.73 345.109C740.229 345.499 739.878 346.049 739.736 346.668C739.594 347.286 739.669 347.935 739.949 348.504C739.542 348.859 739.25 349.327 739.11 349.848C738.969 350.369 738.987 350.921 739.16 351.432C739.221 351.596 739.295 351.755 739.381 351.907C738.425 352.058 737.537 352.496 736.836 353.163C735.578 354.896 734.062 356.424 732.34 357.695C729.835 359.608 727.439 361.66 725.163 363.84C724.092 365.324 722.645 366.496 720.972 367.235C720.564 367.4 720.14 367.525 719.708 367.608C716.315 368.296 717.409 371.809 720.132 372.361C722.855 372.912 731.89 375.705 738.923 374.058C738.923 374.058 741.01 374.907 744.072 373.345C747.135 371.784 754.108 369.95 754.108 369.95C754.108 369.95 757.942 369.95 758.451 368.423C758.588 367.939 758.663 367.44 758.672 366.938L758.782 366.836L758.68 366.742C758.689 365.605 758.601 364.47 758.418 363.348C758.324 362.771 758.214 362.244 758.112 361.828C757.781 360.555 757.179 358.917 756.916 358.221C756.96 358.165 757 358.106 757.035 358.043C758.494 355.574 756.068 349.556 756.068 349.556C756.871 348.297 757.844 347.154 758.96 346.162C760.326 345.152 763.906 318.723 763.906 318.723C763.906 318.723 763.737 311.934 765.603 308.895C767.469 305.857 763.058 287.381 763.058 287.381C763.058 287.381 761.183 283.138 761.87 281.618C762.557 280.099 761.183 274.506 761.183 274.506V267.836C761.181 267.039 761.049 266.248 760.793 265.493C760.267 263.923 759.486 260.91 760.335 258.704C761.531 255.657 764.254 236.85 764.254 236.85C764.254 236.85 762.125 228.558 765.238 221.955C765.489 221.426 765.772 220.913 766.086 220.419C768.394 216.787 767.707 210.337 766.57 205.143C766.392 204.336 766.205 203.564 766.019 202.826C765.934 202.512 765.849 202.215 765.773 201.917L766.137 201.765C766.137 201.765 766.137 201.264 766.248 200.424C767.51 200.178 768.708 199.675 769.766 198.945C770.824 198.214 771.72 197.273 772.398 196.18C772.398 196.18 780.194 187.413 787.1 183.73C794.005 180.047 794.514 174.708 794.514 174.708C793.488 172.926 796.338 165.687 796.338 165.687L796.05 157.853ZM773.594 169.54L766.214 178.103C766.211 178.086 766.211 178.069 766.214 178.052C764.296 175.387 768.004 169.413 768.004 169.413L774.103 155.74C774.052 157.505 773.84 159.05 773.306 159.78C771.609 162.071 776.368 165.882 776.368 165.882C773.815 165.856 773.56 169.54 773.56 169.54H773.594Z" fill="url(#paint0_linear)"/>
<path d="M643.603 57.2915L639.582 65.108C638.305 65.0031 637.046 64.7408 635.833 64.3272C633.909 63.7481 632.13 62.7681 630.612 61.4515C629.094 60.135 627.872 58.5119 627.027 56.6889C623.43 48.7282 629.385 43.5851 632.159 42.0744C634.933 40.5637 637.504 38.8239 639.582 43.7718C640.891 47.1563 641.985 50.6202 642.857 54.1428C643.315 56.0269 643.603 57.2915 643.603 57.2915Z" fill="#CC818C"/>
<path d="M771.634 98.0289L765.204 107.628C765.204 107.628 734.783 122.14 740.602 105.082C743.147 97.5706 743.461 92.071 743.003 88.2689C743.003 88.2689 743.003 88.201 743.003 88.167C742.409 83.4144 740.619 81.3775 740.619 81.3775C740.619 81.3775 770.269 66.2028 765.857 76.5824C764.958 78.7408 764.597 81.0854 764.805 83.4144C765.172 86.7689 766.263 90.0037 768.004 92.8943C769.039 94.723 770.255 96.4432 771.634 98.0289Z" fill="#CC818C"/>
<path d="M762.421 287.958C762.421 287.958 766.798 306.307 764.966 309.337C763.133 312.367 763.269 319.097 763.269 319.097C763.269 319.097 759.732 345.364 758.383 346.374C757.278 347.368 756.316 348.51 755.524 349.768C755.524 349.768 757.925 355.709 756.483 358.171C756.265 358.551 755.928 358.849 755.524 359.019C753.267 359.97 744.937 355.752 740.194 353.163C739.597 352.844 739.147 352.306 738.939 351.661C738.762 351.156 738.741 350.609 738.879 350.091C739.017 349.574 739.306 349.109 739.711 348.759C739.432 348.19 739.356 347.542 739.496 346.924C739.637 346.307 739.985 345.756 740.483 345.364L741.73 344.396L741.442 344.057C741.065 343.615 740.838 343.065 740.792 342.486C740.746 341.906 740.885 341.328 741.187 340.832C741.73 339.915 742.256 338.286 742.4 335.476C742.739 328.908 744.419 326.387 744.419 326.387L743.41 296.42C743.502 294.794 743.502 293.165 743.41 291.54C743.24 289.689 740.127 290.912 739.626 290.402C739.126 289.893 739.032 287.5 737.692 286.821C737.07 286.283 736.64 285.555 736.47 284.75C735.876 282.859 735.757 280.851 736.122 278.903C736.209 278.437 736.199 277.958 736.092 277.497C735.986 277.036 735.785 276.601 735.503 276.221C733.985 274.201 734.494 267.301 734.494 267.301L732.169 252.873C728.47 265.12 723.762 279.87 722.21 280.939C721.458 281.389 720.842 282.033 720.427 282.804C720.012 283.575 719.813 284.444 719.851 285.319C722.04 288.009 721.2 299.628 721.2 299.628C721.2 299.628 721.2 331.776 719.622 333.966C718.044 336.155 714.973 342.886 714.973 342.886C714.973 342.886 723.991 350.914 716.899 354.962L716.823 355.005C709.586 359.045 694.613 347.774 694.613 347.774L696.174 346.212L696.632 345.754L694.936 343.055C693.197 340.025 700.026 334.305 700.026 334.305C700.026 334.305 698.21 327.236 698.88 326.896C699.551 326.557 700.026 320.158 700.026 320.158C700.026 320.158 698.371 296.929 699.042 294.748C699.141 294.235 699.12 293.707 698.982 293.203C698.844 292.7 698.591 292.235 698.244 291.845C697.327 290.527 696.874 288.942 696.955 287.339C697.103 285.954 696.708 284.566 695.852 283.468C693.833 281.279 695.852 271.85 695.852 271.85L697.549 259.391V239.549C697.547 235.744 698.237 231.971 699.585 228.414C700.601 225.524 701.217 222.508 701.417 219.451C701.968 213.069 705.396 206.865 707.703 203.326C708.925 201.459 709.832 200.339 709.832 200.339L763.676 198.226C763.676 198.226 764.525 200.627 765.373 203.963C765.56 204.693 765.746 205.457 765.916 206.263C767.044 211.44 767.723 217.847 765.441 221.463C765.122 221.948 764.838 222.456 764.593 222.982C761.513 229.542 763.617 237.783 763.617 237.783C763.617 237.783 760.928 256.455 759.749 259.501C758.9 261.649 759.681 264.644 760.207 266.206C760.456 266.956 760.585 267.741 760.588 268.531V275.16C760.588 275.16 761.937 280.71 761.267 282.229C760.597 283.749 762.421 287.958 762.421 287.958Z" fill="#444053"/>
<path opacity="0.1" d="M764.898 221.938C764.584 222.426 764.301 222.934 764.05 223.457L761.022 223.288C761.31 221.726 759.249 207.086 759.249 207.086L765.357 206.738C766.493 211.949 767.18 218.365 764.898 221.938Z" fill="black"/>
<path d="M765.399 221.471C765.08 221.957 764.797 222.464 764.551 222.991L761.514 222.821C761.811 221.259 759.75 206.611 759.75 206.611L765.849 206.271C767.003 211.448 767.681 217.856 765.399 221.471Z" fill="#444053"/>
<path opacity="0.05" d="M765.399 221.471C765.08 221.957 764.797 222.464 764.551 222.991L761.514 222.821C761.811 221.259 759.75 206.611 759.75 206.611L765.849 206.271C767.003 211.448 767.681 217.856 765.399 221.471Z" fill="black"/>
<path opacity="0.1" d="M756.483 358.145C756.266 358.526 755.929 358.824 755.525 358.994C753.268 359.944 744.937 355.726 740.195 353.138C739.598 352.819 739.148 352.28 738.939 351.636C741.637 351.143 743.41 354.182 743.41 354.182C743.861 353.898 744.364 353.708 744.889 353.622C745.415 353.536 745.952 353.557 746.47 353.683C746.987 353.809 747.474 354.037 747.901 354.355C748.329 354.672 748.688 355.072 748.958 355.531C751.274 358.926 756.237 357.5 756.237 357.5C756.237 357.5 756.339 357.729 756.483 358.145Z" fill="black"/>
<path d="M757.883 368.465C757.374 369.976 753.59 369.976 753.59 369.976C753.59 369.976 746.803 371.919 743.783 373.43C740.763 374.941 738.693 374.143 738.693 374.143C731.745 375.747 722.829 372.972 720.14 372.446C717.451 371.919 716.39 368.406 719.716 367.735C720.143 367.649 720.561 367.521 720.963 367.353C722.622 366.614 724.052 365.441 725.103 363.959C727.351 361.795 729.716 359.755 732.186 357.848C733.892 356.588 735.391 355.07 736.632 353.35C740.585 349.853 743.418 354.657 743.418 354.657C743.869 354.373 744.372 354.183 744.897 354.097C745.423 354.011 745.96 354.032 746.478 354.158C746.995 354.284 747.482 354.512 747.909 354.83C748.337 355.147 748.696 355.547 748.966 356.006C751.282 359.401 756.245 357.975 756.245 357.975C756.245 357.975 757.094 360.25 757.552 361.888C757.653 362.304 757.764 362.83 757.857 363.407C758.189 365.076 758.198 366.793 757.883 368.465Z" fill="#FF748F"/>
<path d="M746.311 357.823C746.569 357.823 746.777 357.614 746.777 357.356C746.777 357.098 746.569 356.889 746.311 356.889C746.053 356.889 745.844 357.098 745.844 357.356C745.844 357.614 746.053 357.823 746.311 357.823Z" fill="#575988"/>
<path d="M742.358 361.523C742.616 361.523 742.824 361.314 742.824 361.056C742.824 360.798 742.616 360.589 742.358 360.589C742.1 360.589 741.891 360.798 741.891 361.056C741.891 361.314 742.1 361.523 742.358 361.523Z" fill="#575988"/>
<path d="M738.337 364.85C738.594 364.85 738.803 364.641 738.803 364.383C738.803 364.125 738.594 363.916 738.337 363.916C738.079 363.916 737.87 364.125 737.87 364.383C737.87 364.641 738.079 364.85 738.337 364.85Z" fill="#575988"/>
<path d="M740.415 363.365C740.673 363.365 740.882 363.156 740.882 362.898C740.882 362.64 740.673 362.431 740.415 362.431C740.158 362.431 739.949 362.64 739.949 362.898C739.949 363.156 740.158 363.365 740.415 363.365Z" fill="#575988"/>
<path d="M744.42 359.554C744.677 359.554 744.886 359.345 744.886 359.087C744.886 358.829 744.677 358.62 744.42 358.62C744.162 358.62 743.953 358.829 743.953 359.087C743.953 359.345 744.162 359.554 744.42 359.554Z" fill="#575988"/>
<path d="M757.883 368.465C757.374 369.976 753.59 369.976 753.59 369.976C753.59 369.976 746.803 371.92 743.783 373.43C740.763 374.941 738.693 374.143 738.693 374.143C731.745 375.747 722.829 372.972 720.14 372.446C717.451 371.92 716.39 368.406 719.716 367.736C720.143 367.649 720.561 367.522 720.963 367.354C723.9 368.355 726.965 368.926 730.066 369.051C736.92 369.34 742.349 369.051 742.349 369.051L749.289 366.819C750.602 366.019 752.061 365.489 753.581 365.257C755.11 364.948 756.556 364.317 757.823 363.407C758.167 365.074 758.187 366.791 757.883 368.465Z" fill="#F2F2F2"/>
<path opacity="0.5" d="M740.61 372.819C740.223 372.819 739.836 372.779 739.457 372.7L739.558 372.208C740.971 372.428 742.416 372.227 743.715 371.631C744.334 371.385 744.954 371.096 745.556 370.782C746.158 370.468 746.998 370.103 747.745 369.823L748.432 369.586C748.814 369.458 749.195 369.331 749.56 369.17C749.772 369.085 749.976 368.983 750.18 368.89C750.674 368.629 751.198 368.43 751.74 368.296C752.021 368.242 752.304 368.205 752.589 368.185C752.845 368.168 753.1 368.137 753.352 368.092C753.858 367.969 754.348 367.787 754.811 367.549C755.31 367.295 755.837 367.101 756.381 366.972L756.754 366.904C757.15 366.895 757.532 366.754 757.84 366.505L758.205 366.853C757.821 367.186 757.337 367.38 756.83 367.405L756.483 367.464C755.977 367.587 755.487 367.769 755.024 368.007C754.525 368.261 753.998 368.454 753.454 368.584C753.174 368.64 752.891 368.674 752.606 368.686C752.341 368.706 752.078 368.74 751.817 368.788C751.315 368.916 750.831 369.104 750.375 369.348L749.738 369.637C749.348 369.798 748.958 369.934 748.568 370.061L747.897 370.299C747.168 370.57 746.447 370.91 745.743 371.232C745.039 371.555 744.513 371.818 743.876 372.081C742.844 372.53 741.736 372.78 740.61 372.819Z" fill="#575988"/>
<path opacity="0.1" d="M742.231 289.18C742.231 289.18 745.726 284.088 751.698 284.173C757.671 284.258 760.233 283.503 760.233 283.503C760.233 283.503 756.407 285.769 753.76 286.049C751.113 286.329 742.231 289.18 742.231 289.18Z" fill="black"/>
<path opacity="0.1" d="M744.25 290.36C744.25 290.36 747.406 288.17 749.213 288.085C751.02 288.001 752.606 287.831 752.606 287.831C751.76 288.427 750.823 288.883 749.832 289.18C748.288 289.605 744.25 290.36 744.25 290.36Z" fill="black"/>
<path opacity="0.1" d="M744.919 291.871C744.919 291.871 749.679 292.253 749.721 293.517L744.919 291.871Z" fill="black"/>
<path opacity="0.1" d="M700.663 220.903C700.909 220.945 705.15 216.481 705.447 214.716C705.683 213.603 706.347 212.627 707.297 212C707.297 212 710.037 213.095 707.593 216.447C705.15 219.8 700.663 220.903 700.663 220.903Z" fill="black"/>
<path opacity="0.1" d="M765.832 76.5314C764.865 78.8229 764.008 78.9926 764.195 81.2162C763.065 82.4083 761.767 83.429 760.343 84.246C757.331 86.0368 754.057 89.5334 750.307 89.5334C747.799 89.5387 745.312 89.0694 742.978 88.15C742.384 83.3973 740.594 81.3605 740.594 81.3605C740.594 81.3605 770.226 66.1519 765.832 76.5314Z" fill="black"/>
<path d="M770.37 68.4519C770.37 72.4217 769.193 76.3024 766.988 79.6031C764.784 82.9039 761.65 85.4765 757.984 86.9957C754.318 88.5149 750.284 88.9123 746.392 88.1379C742.5 87.3634 738.925 85.4518 736.12 82.6447C733.314 79.8376 731.403 76.2612 730.629 72.3677C729.855 68.4742 730.252 64.4385 731.77 60.7709C733.289 57.1032 735.86 53.9685 739.16 51.763C742.459 49.5575 746.338 48.3803 750.306 48.3803C752.941 48.3792 755.551 48.8976 757.986 49.9059C760.42 50.9142 762.632 52.3926 764.496 54.2567C766.359 56.1207 767.837 58.3338 768.845 60.7695C769.853 63.2052 770.371 65.8158 770.37 68.4519Z" fill="#CC818C"/>
<path opacity="0.1" d="M771.634 98.0289L765.204 107.628C765.204 107.628 734.783 122.14 740.602 105.082C743.147 97.5706 743.461 92.0711 743.003 88.2689H743.054C743.413 89.5292 743.615 90.8291 743.656 92.139C743.75 94.7529 743.817 98.0798 750.316 99.1662C761.149 100.991 766.969 94.2098 767.987 92.8773C769.026 94.7128 770.249 96.4387 771.634 98.0289Z" fill="black"/>
<path opacity="0.1" d="M643.603 57.2916L639.582 65.108C638.305 65.0032 637.046 64.7409 635.833 64.3272L635.485 63.9114C637.131 64.5394 642.679 54.058 642.679 54.058L642.857 54.2023C643.315 56.027 643.603 57.2916 643.603 57.2916Z" fill="black"/>
<path opacity="0.1" d="M765.33 203.971C752.342 209.615 707.397 204.82 707.397 204.82C707.538 204.343 707.615 203.849 707.627 203.352C708.848 201.485 709.756 200.364 709.756 200.364L763.6 198.251C763.6 198.251 764.474 200.636 765.33 203.971Z" fill="black"/>
<path d="M743.078 88.7356L737.089 91.2817C736.184 91.2717 735.3 91.0047 734.54 90.512C733.78 90.0192 733.176 89.3208 732.797 88.498C731.414 85.5955 726.494 88.498 726.494 88.498C726.494 88.498 711.469 87.3608 705.921 90.1445C705.921 90.1445 696.963 86.3508 695.741 86.1047C694.52 85.8586 692.585 84.8401 691.703 85.0947C690.821 85.3493 689.684 83.4483 689.056 83.5756C688.429 83.7029 688.166 82.311 686.147 81.8103C684.128 81.3096 683.373 81.9376 681.099 79.6631C678.825 77.3886 660.408 68.4264 660.408 68.4264L652.077 61.6368L643.246 54.5672C643.246 54.5672 637.69 65.0401 636.052 64.4121L652.832 84.611C652.832 84.611 664.947 95.2197 673.277 98.6229C681.608 102.026 680.972 103.045 680.972 103.045C680.972 103.045 706.218 115.919 710.129 115.673C714.04 115.427 713.285 142.059 711.639 146.353C709.993 150.648 707.355 181.702 707.355 181.702C707.355 181.702 704.81 188.262 707.474 192.811C707.474 192.811 708.11 202.147 707.474 203.793C707.474 203.793 752.699 208.631 765.526 202.944C765.526 202.944 767.417 181.99 765.526 179.334C763.634 176.677 767.299 170.753 767.299 170.753L775.315 152.659L794.98 132.825C794.98 132.825 798.008 116.284 784.511 105.667L775.544 97.7148C775.544 97.7148 770.531 93.378 769.072 93.1064C767.612 92.8348 768.147 93.1064 768.147 93.1064C768.147 93.1064 762.293 101.593 750.332 99.6074C743.834 98.5126 743.766 95.2027 743.672 92.5802C743.632 91.2792 743.433 89.9881 743.078 88.7356Z" fill="#F5FB8F"/>
<path opacity="0.1" d="M767.723 156.699C767.723 156.699 739.957 157.836 734.409 166.552C734.409 166.552 741.603 163.158 748.033 164.151C754.464 165.144 767.723 156.699 767.723 156.699Z" fill="black"/>
<path opacity="0.1" d="M737.056 187.142C737.056 187.142 750.18 187.99 752.963 185.249C755.745 182.508 755.745 180.836 755.745 180.836L737.056 187.142Z" fill="black"/>
<path opacity="0.1" d="M770.37 129.94C770.37 129.94 759.265 143.069 772.771 148.747L770.37 129.94Z" fill="black"/>
<path opacity="0.1" d="M704.623 104.564C704.623 104.564 708.661 112.805 710.68 113.356L704.623 104.564Z" fill="black"/>
<path opacity="0.1" d="M691 101.025C691 101.025 701.095 110.114 702.987 110.997C702.987 110.997 692.51 101.025 691 101.025Z" fill="black"/>
<path opacity="0.1" d="M731.253 92.3171C731.253 92.3171 721.531 106.83 727.859 115.673C727.809 115.673 724.313 105.192 731.253 92.3171Z" fill="black"/>
<path d="M755.745 202.282L752.776 205.075L752.36 205.465L748.924 208.716C748.67 208.902 748.432 209.089 748.186 209.259C734.189 219.299 731.381 204.048 731.381 204.048C731.381 204.048 725.196 208.088 724.314 204.803C723.432 201.519 738.736 196.851 740.967 197.105C741.17 197.127 741.375 197.127 741.578 197.105C742.681 196.921 743.743 196.544 744.717 195.994C744.946 195.875 745.175 195.756 745.395 195.629C746.175 195.194 746.931 194.718 747.66 194.203L755.745 202.282Z" fill="#CC818C"/>
<path opacity="0.1" d="M770.878 68.4518C770.879 71.9315 769.975 75.3515 768.256 78.3763C766.537 81.4012 764.061 83.9269 761.072 85.7057C760.795 85.2367 760.551 84.749 760.342 84.246C759.621 82.5486 759.18 80.7748 758.459 79.0944C757.644 77.2588 756.493 75.592 755.065 74.1805C754.838 73.9069 754.547 73.694 754.217 73.5609C753.892 73.5173 753.561 73.5399 753.244 73.6274C752.928 73.7149 752.633 73.8655 752.376 74.0702C751.527 74.6496 750.578 75.0669 749.576 75.3008C749.075 75.4138 748.553 75.3951 748.061 75.2463C747.569 75.0976 747.124 74.824 746.769 74.4521C745.988 73.5185 746.098 72.1436 746.327 70.9469C746.811 68.333 747.634 65.7699 747.634 63.1135C747.634 60.4571 746.633 57.5885 744.325 56.273C742.289 55.1188 739.761 55.4243 737.496 54.7878C737.146 54.6945 736.803 54.5754 736.47 54.4314C739.257 51.5753 742.831 49.6149 746.737 48.8007C750.643 47.9864 754.703 48.3551 758.399 49.8598C762.094 51.3644 765.257 53.9367 767.485 57.2483C769.712 60.5598 770.902 64.4603 770.904 68.4518H770.878Z" fill="black"/>
<path d="M735.087 51.2404C734.723 51.4356 734.324 51.7835 734.434 52.1909C734.502 52.382 734.63 52.5458 734.799 52.6577C735.733 53.4145 736.813 53.9694 737.972 54.2872C740.237 54.8982 742.773 54.6097 744.809 55.7724C747.108 57.0879 748.126 59.948 748.118 62.6044C748.109 65.2608 747.27 67.8323 746.803 70.4378C746.582 71.643 746.464 72.9839 747.253 73.9514C747.609 74.322 748.054 74.5946 748.546 74.7433C749.037 74.8919 749.559 74.9115 750.061 74.8001C751.059 74.5691 752.005 74.1547 752.852 73.578C753.108 73.3725 753.403 73.2214 753.72 73.1338C754.036 73.0463 754.367 73.0241 754.692 73.0688C755.038 73.1955 755.347 73.4054 755.592 73.6798C757.023 75.0918 758.175 76.762 758.985 78.6023C759.715 80.2996 760.156 82.0649 760.868 83.7538C761.502 85.49 762.696 86.9653 764.262 87.9464C765.053 88.4239 765.978 88.6301 766.896 88.5336C767.815 88.4371 768.677 88.0432 769.352 87.4117C770.522 86.1217 770.489 84.1697 771.048 82.5147C772.049 79.6546 774.849 77.8554 776.597 75.3857C778.565 72.6105 779.142 69.1054 779.642 65.7445C779.875 64.6838 779.892 63.5871 779.693 62.5195C779.461 61.8138 779.163 61.1317 778.802 60.4826C776.851 56.4429 776.893 51.3592 773.78 48.1256C771.439 45.7069 767.893 44.9685 764.55 44.5611C761.208 44.1538 757.704 43.8991 754.837 42.1423C754.033 41.5342 753.148 41.0428 752.207 40.6826C751.73 40.5168 751.211 40.5227 750.739 40.6994C750.266 40.8761 749.87 41.2124 749.619 41.6501C749.56 41.9089 749.441 42.1502 749.272 42.3545C749.123 42.4401 748.957 42.49 748.787 42.5004C748.616 42.5107 748.445 42.4811 748.288 42.4139L743.842 41.2173L744.351 43.4578C742.736 43.522 741.126 43.2324 739.635 42.6091C739.55 43.8737 740.975 44.6969 741.416 45.8766C741.577 46.4181 741.582 46.9938 741.432 47.5384C741.282 48.0829 740.983 48.5745 740.568 48.9574C738.922 50.5614 736.903 50.2474 735.087 51.2404Z" fill="#585268"/>
<path opacity="0.1" d="M717.077 352.892L716.899 354.912L716.823 354.954C709.586 358.994 694.613 347.723 694.613 347.723L696.174 346.162C696.429 346.445 696.621 346.779 696.737 347.142C696.854 347.504 696.894 347.888 696.853 348.266L699.915 348.436L703.572 352.391C703.572 352.391 713.472 353.537 716.153 352.892H717.077Z" fill="black"/>
<path d="M715.813 363.882C711.105 364.926 694.605 364.85 694.605 364.85L685.392 366.318C685.392 366.318 669.537 367.837 667.772 362.923C666.008 358.009 669.155 358.298 669.155 358.298H669.274L675.874 357.763C675.874 357.763 684.247 354.521 687.318 352.289C689.743 350.403 692.033 348.35 694.172 346.145C694.172 346.145 696.929 345.61 696.879 348.801L699.941 348.971L703.597 352.917C703.597 352.917 713.497 354.071 716.178 353.426H717.103L716.679 358.306L716.798 358.459C717.383 359.215 720.021 362.94 715.813 363.882Z" fill="#FF748F"/>
<path d="M698.727 352.085C698.985 352.085 699.194 351.876 699.194 351.619C699.194 351.361 698.985 351.152 698.727 351.152C698.47 351.152 698.261 351.361 698.261 351.619C698.261 351.876 698.47 352.085 698.727 352.085Z" fill="#575988"/>
<path d="M686.868 357.237C687.126 357.237 687.335 357.028 687.335 356.77C687.335 356.512 687.126 356.303 686.868 356.303C686.61 356.303 686.401 356.512 686.401 356.77C686.401 357.028 686.61 357.237 686.868 357.237Z" fill="#575988"/>
<path d="M680.761 359.096C681.018 359.096 681.227 358.887 681.227 358.629C681.227 358.371 681.018 358.162 680.761 358.162C680.503 358.162 680.294 358.371 680.294 358.629C680.294 358.887 680.503 359.096 680.761 359.096Z" fill="#575988"/>
<path d="M689.982 356.252C690.239 356.252 690.448 356.044 690.448 355.786C690.448 355.528 690.239 355.319 689.982 355.319C689.724 355.319 689.515 355.528 689.515 355.786C689.515 356.044 689.724 356.252 689.982 356.252Z" fill="#575988"/>
<path d="M683.805 358.171C684.063 358.171 684.272 357.962 684.272 357.704C684.272 357.446 684.063 357.237 683.805 357.237C683.548 357.237 683.339 357.446 683.339 357.704C683.339 357.962 683.548 358.171 683.805 358.171Z" fill="#575988"/>
<path d="M693.129 354.793C693.386 354.793 693.595 354.584 693.595 354.326C693.595 354.068 693.386 353.859 693.129 353.859C692.871 353.859 692.662 354.068 692.662 354.326C692.662 354.584 692.871 354.793 693.129 354.793Z" fill="#575988"/>
<path d="M696.242 353.443C696.5 353.443 696.709 353.234 696.709 352.977C696.709 352.719 696.5 352.51 696.242 352.51C695.985 352.51 695.776 352.719 695.776 352.977C695.776 353.234 695.985 353.443 696.242 353.443Z" fill="#575988"/>
<path d="M715.813 363.882C711.105 364.926 694.605 364.85 694.605 364.85L685.392 366.318C685.392 366.318 669.537 367.837 667.772 362.923C666.008 358.009 669.155 358.298 669.155 358.298H669.274C670.283 359.605 672.311 361.099 676.298 361.167L687.7 361.633L699.517 360.785C699.517 360.785 710.545 360.445 712.386 360.072C713.901 359.662 715.377 359.12 716.798 358.451C717.383 359.215 720.021 362.94 715.813 363.882Z" fill="#F2F2F2"/>
<path opacity="0.5" d="M686.241 365.206C685.612 365.209 684.984 365.132 684.375 364.977L684.544 364.519C686.103 364.859 687.723 364.786 689.244 364.307C689.804 364.162 690.355 364.001 690.941 363.832C693.571 362.935 696.364 362.62 699.127 362.906H699.492C704.55 363.176 709.621 362.948 714.635 362.227C715.825 362.149 716.96 361.694 717.875 360.929L718.24 361.285C717.249 362.127 716.016 362.632 714.719 362.728C709.664 363.45 704.549 363.677 699.449 363.407H699.093C697.421 363.285 695.742 363.334 694.079 363.551C693.061 363.743 692.056 363.995 691.068 364.307C690.508 364.477 689.948 364.646 689.371 364.791C688.349 365.06 687.298 365.199 686.241 365.206Z" fill="#575988"/>
<path opacity="0.1" d="M755.745 202.282L752.776 205.075L745.395 195.629C746.175 195.194 746.931 194.718 747.66 194.203L755.745 202.282Z" fill="black"/>
<path d="M789.177 124.763L794.98 132.842V141.329C794.98 141.329 797.635 150.3 794.98 159.262L795.277 167.087C795.277 167.087 792.461 174.284 793.47 176.049C793.47 176.049 792.961 181.354 786.149 185.02C779.337 188.686 771.634 197.326 771.634 197.326C771.634 197.326 768.733 202.885 760.911 201.621L753.462 204.778L744.886 193.796L756.491 187.481C756.491 187.481 760.529 182.05 762.93 182.304L772.771 170.838C772.771 170.838 773.025 167.18 775.545 167.18C775.545 167.18 770.879 163.395 772.516 161.121C774.153 158.846 772.771 148.747 772.771 148.747L789.177 124.763Z" fill="#F5FB8F"/>
<path opacity="0.1" d="M778.328 161.622C778.328 161.622 791.579 161.375 793.216 164.779C794.853 168.182 782.366 159.729 778.328 161.622Z" fill="black"/>
<path opacity="0.1" d="M752.411 204.803C752.415 205.025 752.398 205.247 752.36 205.465C752.208 206.481 751.709 207.414 750.948 208.105C750.188 208.796 749.212 209.204 748.187 209.259H747.949C746.768 209.259 745.635 208.789 744.8 207.954C743.964 207.118 743.495 205.985 743.495 204.803C743.498 204.309 743.581 203.819 743.741 203.352C741.637 201.654 741.527 198.616 741.578 197.097C742.681 196.912 743.743 196.536 744.717 195.985C745.267 197.564 746.005 199.072 746.914 200.475C747.252 200.39 747.6 200.347 747.949 200.347C748.535 200.346 749.115 200.461 749.656 200.684C750.197 200.908 750.689 201.236 751.104 201.649C751.518 202.063 751.847 202.555 752.071 203.096C752.296 203.637 752.411 204.217 752.411 204.803Z" fill="black"/>
<path d="M745.114 195.001C745.114 195.001 742.128 195.671 742.128 196.214C742.128 196.758 741.458 201.688 744.733 203.708C748.007 205.728 747.685 200.891 747.685 200.891C747.685 200.891 744.86 196.554 745.114 195.001Z" fill="#575988"/>
<path d="M748.457 209.267C750.922 209.267 752.92 207.269 752.92 204.803C752.92 202.338 750.922 200.339 748.457 200.339C745.993 200.339 743.995 202.338 743.995 204.803C743.995 207.269 745.993 209.267 748.457 209.267Z" fill="#E4AAB4"/>
<path d="M748.457 208.631C750.57 208.631 752.283 206.917 752.283 204.803C752.283 202.689 750.57 200.975 748.457 200.975C746.344 200.975 744.631 202.689 744.631 204.803C744.631 206.917 746.344 208.631 748.457 208.631Z" fill="#F2F2F2"/>
<path opacity="0.1" d="M731.084 206.526C731.084 206.526 740.509 214.351 752.623 209.395V213.18C752.623 213.18 744.547 218.73 737.226 215.369C729.904 212.009 731.084 206.526 731.084 206.526Z" fill="black"/>
<path opacity="0.1" d="M731.084 205.516C731.084 205.516 740.534 213.341 752.623 208.359V212.144C752.623 212.144 744.547 217.695 737.226 214.334C729.904 210.973 731.084 205.516 731.084 205.516Z" fill="black"/>
<path d="M731.084 205.516C731.084 205.516 740.534 213.341 752.623 208.359V212.144C752.623 212.144 744.547 217.695 737.226 214.334C729.904 210.973 731.084 205.516 731.084 205.516Z" fill="#444053"/>
<path opacity="0.05" d="M731.338 205.516C731.338 205.516 740.763 213.341 752.877 208.385V212.17C752.877 212.17 744.775 217.695 737.48 214.359C730.184 211.024 731.338 205.516 731.338 205.516Z" fill="black"/>
<path opacity="0.1" d="M701.511 346.119C701.511 346.119 714.134 348.436 715.983 348.937C717.833 349.438 715.474 350.329 715.474 350.329C715.474 350.329 703.912 348.266 701.511 346.119Z" fill="black"/>
<path opacity="0.1" d="M701.18 339.432C701.383 339.432 709.756 337.072 711.563 333.032L701.18 339.432Z" fill="black"/>
<path opacity="0.1" d="M713.388 291.115C713.388 291.115 716.781 295.579 718.97 295.452C721.158 295.325 715.381 290.946 713.388 291.115Z" fill="black"/>
<path opacity="0.1" d="M715.271 298.524C715.271 298.524 716.696 301.682 718.8 300.672L715.271 298.524Z" fill="black"/>
<path opacity="0.05" d="M723.219 229.211L732.169 252.822C732.169 252.822 733.433 237.63 730.76 233.081C730.002 231.785 728.89 230.731 727.554 230.046C726.218 229.36 724.714 229.071 723.219 229.211Z" fill="black"/>
<g opacity="0.1">
<path opacity="0.1" d="M745.25 42.1253L745.174 41.7858L743.732 41.4039L743.893 42.1083C744.345 42.1438 744.798 42.1494 745.25 42.1253Z" fill="black"/>
<path opacity="0.1" d="M741.298 47.8031L741.45 47.6673C741.865 47.2857 742.164 46.7956 742.314 46.2525C742.464 45.7095 742.459 45.1352 742.299 44.595C742.125 44.1769 741.884 43.7899 741.586 43.4493C740.875 43.3143 740.179 43.1096 739.508 42.8382C739.423 44.1027 740.848 44.9175 741.289 46.1057C741.486 46.6538 741.489 47.2529 741.298 47.8031Z" fill="black"/>
<path opacity="0.1" d="M765.136 86.6139C763.572 85.6309 762.378 84.1562 761.742 82.4213C761.021 80.724 760.589 78.9417 759.859 77.2698C759.05 75.4312 757.898 73.7635 756.466 72.3558C756.227 72.0764 755.92 71.8631 755.575 71.7363C755.25 71.6911 754.919 71.713 754.602 71.8006C754.285 71.8882 753.99 72.0396 753.734 72.2455C752.883 72.8219 751.935 73.2389 750.935 73.4761C750.433 73.5842 749.912 73.563 749.421 73.4146C748.93 73.2661 748.484 72.9953 748.127 72.6274C747.346 71.6938 747.456 70.319 747.685 69.1223C748.178 66.5083 748.992 63.9368 749 61.2804C749.009 58.6239 747.991 55.7638 745.683 54.4908C743.647 53.3281 741.119 53.6421 738.897 53.0056C737.737 52.6897 736.656 52.1346 735.724 51.3761L735.546 51.2148C735.357 51.2921 735.173 51.3799 734.994 51.4779C734.63 51.6731 734.239 52.0211 734.341 52.42C734.414 52.6128 734.544 52.7787 734.714 52.8953C735.649 53.6478 736.73 54.1996 737.887 54.5163C740.152 55.1358 742.68 54.8473 744.716 56.01C747.024 57.317 748.033 60.1855 748.033 62.7995C748.033 65.4135 747.185 68.0275 746.718 70.633C746.489 71.8296 746.379 73.1791 747.16 74.1381C747.515 74.5093 747.96 74.7825 748.452 74.9311C748.944 75.0798 749.466 75.099 749.967 74.9868C750.967 74.7522 751.915 74.3381 752.767 73.7647C753.024 73.5594 753.319 73.4078 753.635 73.3189C753.951 73.2299 754.282 73.2055 754.608 73.247C754.936 73.383 755.227 73.5954 755.456 73.8665C756.885 75.2772 758.036 76.9442 758.85 78.7804C759.579 80.4778 760.012 82.2516 760.733 83.932C761.358 85.6864 762.553 87.1805 764.126 88.1755C765.73 89.0242 767.952 89.0242 769.216 87.6408C769.544 87.2696 769.8 86.8408 769.971 86.3763C769.281 86.8936 768.452 87.1927 767.59 87.2351C766.728 87.2774 765.874 87.0611 765.136 86.6139Z" fill="black"/>
<path opacity="0.1" d="M772.38 80.2062C773.644 78.6106 775.299 77.2527 776.486 75.5723C776.722 75.2387 776.94 74.8931 777.14 74.5369C775.613 76.4804 773.517 78.0505 772.38 80.2062Z" fill="black"/>
</g>
<g opacity="0.1">
<path opacity="0.1" d="M697.515 56.358H496.799C494.019 56.3647 491.355 57.4718 489.389 59.4373C487.422 61.4028 486.314 64.067 486.305 66.8478V193.719C486.314 196.5 487.422 199.164 489.389 201.13C491.355 203.095 494.019 204.202 496.799 204.209H654.25C654.25 204.209 658.331 225.876 644.918 228.202C644.918 228.202 674.932 230.357 669.69 204.209H697.507C700.286 204.202 702.949 203.095 704.914 201.129C706.879 199.163 707.986 196.499 707.992 193.719V66.8478C707.986 64.0693 706.88 61.4063 704.917 59.4408C702.954 57.4753 700.293 56.3669 697.515 56.358Z" fill="black"/>
<g opacity="0.2">
<path opacity="0.2" d="M673.635 90.0342H520.663C518.006 90.0342 515.853 92.1886 515.853 94.8463V95.1348C515.853 97.7925 518.006 99.9469 520.663 99.9469H673.635C676.291 99.9469 678.445 97.7925 678.445 95.1348V94.8463C678.445 92.1886 676.291 90.0342 673.635 90.0342Z" fill="black"/>
<path opacity="0.2" d="M645.207 134.336H520.662C518.006 134.336 515.852 136.491 515.852 139.148V139.437C515.852 142.094 518.006 144.249 520.662 144.249H645.207C647.863 144.249 650.017 142.094 650.017 139.437V139.148C650.017 136.491 647.863 134.336 645.207 134.336Z" fill="black"/>
<path opacity="0.2" d="M607.625 112.185H520.662C518.006 112.185 515.852 114.34 515.852 116.997V117.286C515.852 119.943 518.006 122.098 520.662 122.098H607.625C610.282 122.098 612.435 119.943 612.435 117.286V116.997C612.435 114.34 610.282 112.185 607.625 112.185Z" fill="black"/>
</g>
</g>
<path d="M700.136 54.6012H499.419C496.639 54.6101 493.975 55.7191 492.009 57.686C490.043 59.6529 488.934 62.318 488.925 65.0995V191.971C488.934 194.752 490.043 197.416 492.009 199.381C493.976 201.347 496.64 202.454 499.419 202.461H656.871C656.871 202.461 660.951 224.128 647.539 226.453C647.539 226.453 677.553 228.609 672.31 202.461H700.127C702.906 202.454 705.569 201.347 707.534 199.381C709.499 197.415 710.606 194.751 710.613 191.971V65.0995C710.606 62.3202 709.501 59.6564 707.538 57.6895C705.575 55.7226 702.914 54.6124 700.136 54.6012Z" fill="#8863EA"/>
<path opacity="0.2" d="M676.256 88.2774H523.284C520.627 88.2774 518.474 90.4319 518.474 93.0895V93.3781C518.474 96.0357 520.627 98.1902 523.284 98.1902H676.256C678.912 98.1902 681.066 96.0357 681.066 93.3781V93.0895C681.066 90.4319 678.912 88.2774 676.256 88.2774Z" fill="white"/>
<path opacity="0.2" d="M647.828 132.588H523.283C520.627 132.588 518.473 134.742 518.473 137.4V137.688C518.473 140.346 520.627 142.501 523.283 142.501H647.828C650.484 142.501 652.638 140.346 652.638 137.688V137.4C652.638 134.742 650.484 132.588 647.828 132.588Z" fill="white"/>
<path opacity="0.2" d="M610.246 110.437H523.283C520.627 110.437 518.473 112.591 518.473 115.249V115.537C518.473 118.195 520.627 120.35 523.283 120.35H610.246C612.903 120.35 615.056 118.195 615.056 115.537V115.249C615.056 112.591 612.903 110.437 610.246 110.437Z" fill="white"/>
<path d="M68.8119 469.316C68.8119 469.316 71.832 473.271 67.4122 479.245C62.9923 485.22 59.3445 490.278 60.8206 493.987C60.8206 493.987 67.4885 482.895 72.9179 482.742C78.3473 482.589 74.7842 475.986 68.8119 469.316Z" fill="#3F6ECF"/>
<path opacity="0.1" d="M68.8117 469.316C69.0717 469.698 69.2773 470.115 69.4225 470.555C74.7246 476.784 77.5411 482.589 72.4511 482.742C67.7089 482.878 62.025 491.356 60.6592 493.503C60.6592 493.665 60.761 493.826 60.8204 493.987C60.8204 493.987 67.4883 482.895 72.9177 482.742C78.347 482.589 74.784 475.986 68.8117 469.316Z" fill="black"/>
<path d="M74.4276 474.357C74.4276 475.749 74.2749 476.903 74.0797 476.903C73.8846 476.903 73.7319 475.774 73.7319 474.357C73.7319 472.94 73.927 473.618 74.1222 473.618C74.3173 473.618 74.4276 472.965 74.4276 474.357Z" fill="#FFD037"/>
<path d="M76.3624 476.02C75.1408 476.691 74.0719 477.09 73.9786 476.92C73.8852 476.75 74.8269 476.071 76.023 475.409C77.2192 474.747 76.7696 475.231 76.8714 475.409C76.9732 475.587 77.584 475.358 76.3624 476.02Z" fill="#FFD037"/>
<path d="M52.8296 469.316C52.8296 469.316 49.8096 473.271 54.2294 479.245C58.6492 485.22 62.2971 490.278 60.821 493.987C60.821 493.987 54.1531 482.895 48.7237 482.742C43.2943 482.589 46.8573 475.986 52.8296 469.316Z" fill="#3F6ECF"/>
<path opacity="0.1" d="M52.8296 469.316C52.5696 469.698 52.364 470.115 52.2188 470.555C46.9167 476.784 44.1002 482.589 49.1903 482.742C53.9325 482.878 59.6163 491.356 60.9822 493.503C60.9398 493.665 60.8804 493.826 60.821 493.987C60.821 493.987 54.1531 482.895 48.7237 482.742C43.2943 482.589 46.8573 475.986 52.8296 469.316Z" fill="black"/>
<path d="M47.2134 474.357C47.2134 475.749 47.3661 476.903 47.5612 476.903C47.7563 476.903 47.909 475.774 47.909 474.357C47.909 472.94 47.7139 473.618 47.5188 473.618C47.3237 473.618 47.2134 472.965 47.2134 474.357Z" fill="#FFD037"/>
<path d="M45.2787 476.02C46.5003 476.691 47.5692 477.09 47.6626 476.92C47.7559 476.75 46.8142 476.071 45.6181 475.409C44.4219 474.747 44.8715 475.231 44.7697 475.409C44.6679 475.587 44.0486 475.358 45.2787 476.02Z" fill="#FFD037"/>
<path opacity="0.1" d="M60.8204 524.26C78.2869 524.26 92.4464 522.087 92.4464 519.406C92.4464 516.724 78.2869 514.551 60.8204 514.551C43.3538 514.551 29.1943 516.724 29.1943 519.406C29.1943 522.087 43.3538 524.26 60.8204 524.26Z" fill="#6C63FF"/>
<path d="M77.1336 488.657L76.9809 489.888L76.7688 491.636L76.6755 492.366L76.4634 494.106L76.3786 494.836L76.1665 496.584L73.7403 516.435C73.5282 518.209 70.6354 519.592 67.1402 519.592H54.5339C51.0388 519.592 48.1544 518.209 47.9339 516.435L45.5076 496.593L45.2955 494.844L45.2107 494.115L44.9986 492.375L44.9053 491.645L44.6932 489.897L44.5405 488.666C44.4217 487.664 45.9912 486.816 47.9339 486.816H73.647C75.649 486.807 77.2185 487.656 77.1336 488.657Z" fill="#65617D"/>
<path d="M76.9392 489.888L76.7271 491.636H44.9059L44.6938 489.888H76.9392Z" fill="#9D9CB5"/>
<path d="M76.6422 492.366L76.4301 494.106H45.2113L44.9907 492.366H76.6422Z" fill="#9D9CB5"/>
<path d="M76.3366 494.836L76.1245 496.584H45.508L45.2959 494.836H76.3366Z" fill="#9D9CB5"/>
<path opacity="0.5" d="M547.834 681.617C587.209 681.617 619.129 676.377 619.129 669.913C619.129 663.449 587.209 658.21 547.834 658.21C508.46 658.21 476.54 663.449 476.54 669.913C476.54 676.377 508.46 681.617 547.834 681.617Z" fill="#5F5F5F"/>
<g opacity="0.1">
<path opacity="0.1" d="M630.412 310.508H412.906C409.894 310.517 407.008 311.718 404.878 313.849C402.748 315.98 401.548 318.867 401.539 321.88V459.369C401.548 462.382 402.748 465.27 404.878 467.401C407.008 469.531 409.894 470.732 412.906 470.741H583.532C583.532 470.741 587.952 494.216 573.429 496.737C573.429 496.737 605.945 499.071 600.262 470.741H630.412C633.424 470.732 636.31 469.531 638.44 467.401C640.57 465.27 641.77 462.382 641.779 459.369V321.88C641.77 318.867 640.57 315.98 638.44 313.849C636.31 311.718 633.424 310.517 630.412 310.508Z" fill="black"/>
<g opacity="0.2">
<path opacity="0.2" d="M604.945 395.021H438.365C435.709 395.021 433.555 397.175 433.555 399.833V400.953C433.555 403.611 435.709 405.765 438.365 405.765H604.945C607.601 405.765 609.755 403.611 609.755 400.953V399.833C609.755 397.175 607.601 395.021 604.945 395.021Z" fill="black"/>
<path opacity="0.2" d="M505.146 371.011H438.365C435.709 371.011 433.555 373.166 433.555 375.823V376.944C433.555 379.601 435.709 381.756 438.365 381.756H505.146C507.803 381.756 509.956 379.601 509.956 376.944V375.823C509.956 373.166 507.803 371.011 505.146 371.011Z" fill="black"/>
</g>
</g>
<path d="M628.554 308.615H411.006C407.994 308.624 405.108 309.825 402.978 311.956C400.848 314.087 399.647 316.975 399.638 319.988V457.476C399.647 460.49 400.848 463.377 402.978 465.508C405.108 467.639 407.994 468.84 411.006 468.849H581.632C581.632 468.849 586.052 492.324 571.528 494.853C571.528 494.853 604.054 497.187 598.37 468.849H628.554C631.566 468.84 634.452 467.639 636.582 465.508C638.712 463.377 639.912 460.49 639.921 457.476V319.988C639.912 316.975 638.712 314.087 636.582 311.956C634.452 309.825 631.566 308.624 628.554 308.615Z" fill="#DB9538"/>
<path opacity="0.2" d="M603.052 393.128H436.473C433.816 393.128 431.663 395.283 431.663 397.941V399.061C431.663 401.718 433.816 403.873 436.473 403.873H603.052C605.709 403.873 607.862 401.718 607.862 399.061V397.941C607.862 395.283 605.709 393.128 603.052 393.128Z" fill="white"/>
<path opacity="0.2" d="M503.254 369.119H436.473C433.817 369.119 431.663 371.273 431.663 373.931V375.051C431.663 377.709 433.817 379.863 436.473 379.863H503.254C505.911 379.863 508.064 377.709 508.064 375.051V373.931C508.064 371.273 505.911 369.119 503.254 369.119Z" fill="white"/>
<path d="M588.86 661.952C587.833 657.599 587.163 653.771 587.163 653.771C587.163 653.771 587.4 649.027 585.271 645.462V644.274V635.507C585.875 633.915 586.616 632.379 587.485 630.916C589.063 628.157 587.485 618.058 587.485 618.058C587.485 618.058 581.632 603.817 583.057 594.787C584.482 585.757 571.036 554.669 571.036 554.669C571.119 551.671 571.543 548.693 572.3 545.792C572.441 545.183 572.498 544.557 572.47 543.933C572.474 543.857 572.474 543.78 572.47 543.704C572.47 543.704 572.47 543.755 572.47 543.78C572.266 537.839 567.558 526.653 567.558 526.653L568.194 505.377C568.194 505.377 571.197 492.825 566.294 475.978C564.597 470.105 563.486 465.395 562.79 461.771C562.714 461.355 562.637 460.922 562.57 460.583C572.665 459.046 580.385 457.765 580.385 457.765C580.385 457.765 574.548 433.263 570.595 429.02C566.642 424.776 563.486 411.197 563.486 411.197C563.486 411.197 561.424 393.892 564.75 388.842C568.075 383.793 568.542 375.068 568.542 375.068C568.542 375.068 576.177 369.552 577.085 367.107C577.992 364.663 579.63 359.147 579.63 356.236C579.63 353.325 578.68 350.719 578.993 349.191C579.307 347.664 576.779 341.842 578.043 339.084C578.374 338.237 578.547 337.336 578.552 336.427C578.552 336.427 578.552 336.376 578.552 336.351C578.56 333.941 578.335 331.537 577.882 329.171C575.69 327.318 573.132 325.95 570.374 325.156L570.205 324.494L569.78 322.797C569.526 322.627 569.28 322.483 569.034 322.347V321.719L568.958 319.233L570.154 313.648C572.487 303.922 559.516 302.471 559.516 302.471C558.732 300.98 557.423 299.834 555.842 299.254C553.229 298.338 555.41 313.877 556.631 314.87C557.547 315.617 560.381 320.489 561.721 322.882L561.942 323.281C561.726 323.469 561.527 323.676 561.348 323.9L561.84 327.295L561.916 327.813C561.059 328.883 560.362 330.072 559.846 331.343C559.846 331.343 562.222 333.949 561.747 336.86C561.272 339.771 562.468 343.395 562.527 343.59C562.391 343.429 560.72 341.621 559.058 342.062C557.395 342.504 552.729 343.904 552.729 343.904C552.729 343.904 549.251 344.515 549.573 345.279C549.895 346.043 547.198 349.412 547.198 349.412L537.866 340.552C537.781 340.289 537.679 340.026 537.595 339.745C537.197 338.481 536.913 337.183 536.746 335.867C537.763 335.621 538.761 335.303 539.732 334.916C540.7 334.575 541.572 334.007 542.277 333.261C543.219 332.141 543.397 330.622 543.779 329.23C544.525 326.506 546.112 324.079 547.249 321.49C549.176 317.13 549.823 312.311 549.115 307.597C548.967 306.147 548.475 304.754 547.681 303.532C546.154 301.427 543.389 300.578 541.37 298.898C539.351 297.217 538.061 294.654 535.72 293.407C533.599 292.27 531.011 292.405 528.619 292.796C523.945 293.568 519.454 295.203 515.377 297.616C514.011 298.423 512.518 299.356 510.948 299.076C509.608 298.83 508.624 297.752 507.75 296.725C507.75 296.683 507.75 296.64 507.793 296.598L507.691 296.479C506.733 298.663 506.261 301.029 506.308 303.413C506.308 303.786 506.308 304.16 506.35 304.533V304.924C506.35 305.034 506.35 305.144 506.35 305.246C506.353 305.415 506.33 305.584 506.282 305.747C506.092 306.223 505.803 306.654 505.434 307.011C505.147 307.331 504.891 307.678 504.671 308.047C504.705 307.917 504.748 307.79 504.798 307.665C504.201 308.537 503.866 309.562 503.831 310.618C503.777 311.384 504.027 312.14 504.526 312.723C504.995 313.181 505.506 313.594 506.053 313.954C505.403 317.54 505.868 321.24 507.384 324.555C508.901 327.869 511.398 330.638 514.537 332.489C514.647 332.752 514.757 333.024 514.859 333.295C516.055 336.444 516.955 340.085 516.556 343.48C516.556 343.734 516.488 343.98 516.437 344.227C516.386 344.473 516.208 344.481 516.106 344.617C516.106 344.617 500.675 344.77 497.036 341.477C493.396 338.184 487.865 349.514 487.865 349.514C487.865 349.514 482.334 350.583 481.231 349.514C480.128 348.445 473.638 349.361 473.638 349.361C470.997 347.017 467.565 345.761 464.035 345.848C461.876 344.205 459.494 342.879 456.96 341.91L456.79 341.85C455.678 341.446 454.49 341.295 453.312 341.409C453.312 341.409 445.72 335.129 443.505 331.768C441.291 328.407 430.78 315.906 430.704 315.846V315.244L430.585 313.419C430.274 313.472 429.959 313.5 429.644 313.504C429.584 313.326 429.516 313.113 429.432 312.876C428.823 311.102 428.074 309.379 427.192 307.724C427.192 307.724 427.192 305.433 427.862 304.856C428.532 304.279 427.582 295.86 427.582 295.86C427.582 295.86 420.745 279.862 414.62 291.803C414.62 291.803 403.04 299.534 412.762 308.531C412.762 308.531 416.639 310.406 417.182 311.925C417.546 312.893 418.878 315.592 419.727 317.382L420.125 318.189L420.015 318.282L420.159 319.784L420.219 320.361C418.386 321.405 417.148 322.432 417.445 323.213C417.985 324.539 418.358 325.928 418.556 327.346C418.556 327.346 431.943 344.15 433.682 351.364C433.682 351.364 469.728 372.794 481.587 374.321L479.534 385.04C479.228 387.939 479.069 390.85 479.059 393.765C479.212 396.065 477.634 406.495 477.634 406.495C477.634 406.495 475.581 421.772 473.842 423.944C472.103 426.117 472.459 435.258 472.459 435.258C472.04 439.654 471.246 444.007 470.084 448.268C468.387 454.09 469.609 461.287 469.609 461.287C469.609 461.287 463.603 475.061 477.99 465.726C477.99 465.726 485.057 465.284 493.193 465.004C493.193 465.276 493.193 465.539 493.193 465.853C493.193 466.897 493.193 468.034 493.142 469.248C493.031 477.141 492.989 488.012 493.345 496.245C493.982 510.783 498.435 539.571 498.435 539.571V553.998C498.153 555.358 498.013 556.743 498.02 558.132C497.922 563.229 499.272 568.25 501.913 572.61L503.025 582.251C503.025 582.251 505.621 588.608 505.672 592.436C505.659 592.747 505.623 593.056 505.561 593.361C505.464 593.847 505.421 594.342 505.434 594.838C505.29 599.217 507.928 609.69 507.928 609.69C507.928 609.69 508.081 620.256 509.625 620.867C510.974 621.393 507.818 626.961 506.876 628.556C506.876 628.454 506.876 628.353 506.817 628.251L506.622 628.573C506.295 629.424 506.128 630.327 506.13 631.238C506.041 631.96 506.158 632.693 506.469 633.351C506.78 634.009 507.271 634.566 507.886 634.955C510.889 636.789 512.501 638.35 509.947 638.936C509.01 639.083 508.081 639.278 507.165 639.521L507.029 639.165C506.672 639.31 506.375 639.572 506.187 639.908C505.999 640.245 505.931 640.635 505.994 641.015C506.012 642.268 506.335 643.497 506.936 644.597C509.481 650.266 511.177 652.405 511.177 652.405L512.399 652.269C512.215 652.73 511.978 653.168 511.695 653.576C511.234 654.241 510.62 654.785 509.905 655.163C509.245 655.561 508.507 655.812 507.742 655.901C506.884 655.93 506.042 656.139 505.27 656.515C504.498 656.891 503.814 657.425 503.262 658.082C501.684 660.128 500.717 662.903 503.814 665.347L515.122 669.251C515.122 669.251 534.566 671.797 533.54 667.409C532.513 663.022 531.843 659.22 531.843 659.22C531.923 656.552 531.382 653.903 530.265 651.479C530.06 651.086 529.831 650.706 529.578 650.342L530.265 650.266C530.265 650.266 531.69 640.616 533.582 638.783C534.023 638.359 534.125 638.036 534.015 637.781C534.21 637.255 533.718 636.933 533.081 636.772L532.946 637.153C532.324 637.018 531.69 636.947 531.054 636.941C531.054 636.941 530.426 631.892 532.479 630.058C532.645 629.849 532.766 629.607 532.834 629.349C532.903 629.09 532.918 628.821 532.878 628.556C532.892 627.863 532.821 627.17 532.666 626.494L532.589 626.613C531.554 622.03 528.051 614.731 528.051 614.731C528.051 614.731 527.89 610.14 529.162 608.298C530.435 606.456 529.001 583.346 529.001 583.346C529.001 583.346 529.476 572.169 528.051 566.966C526.626 561.764 529.79 555.636 529.79 555.636C529.79 555.636 529.79 555.509 529.79 555.297L529.832 555.221C529.832 555.221 529.756 554.533 529.646 553.464C529.646 553.464 529.646 553.532 529.646 553.566C529.323 550.612 528.721 545.248 528.28 542.77C527.644 539.248 528.433 522.402 528.433 522.402L531.283 515.205L536.373 527.612L541.751 544.145C541.751 544.145 544.415 547.633 544.475 551.172C544.488 551.345 544.488 551.518 544.475 551.69C544.434 552.059 544.414 552.43 544.415 552.802C544.321 554.887 544.894 556.947 546.052 558.683C546.052 558.683 547.478 566.491 549.692 568.486C551.906 570.48 551.906 574.299 551.906 574.299C551.906 574.299 554.587 585.629 555.859 587.624C556.92 589.321 556.979 593.913 556.971 595.321C556.971 595.584 556.971 595.737 556.971 595.737C556.971 595.737 557.344 599.785 557.327 603.189C557.327 603.605 557.327 604.037 557.327 604.402C557.323 604.371 557.323 604.34 557.327 604.309C557.32 605.238 557.209 606.163 556.996 607.067C556.996 607.067 556.996 607.169 556.945 607.228L556.996 606.651C556.426 608.962 556.142 611.333 556.148 613.713C556.071 617.786 556.691 622.607 559.159 625.433C563.401 630.338 566.116 629.727 566.116 629.727C566.116 629.727 564.063 635.846 561.526 637.069C561.432 637.118 561.344 637.178 561.263 637.247C561.263 637.128 561.212 637.009 561.195 636.89C560.92 637.199 560.713 637.561 560.586 637.954C560.459 638.347 560.415 638.762 560.457 639.173C560.271 641.864 561.967 646.234 563.588 648.246C564.183 648.837 564.919 649.266 565.725 649.493L565.327 649.74C565.052 649.894 564.768 650.032 564.478 650.155C564.069 650.335 563.634 650.447 563.189 650.486C562.33 650.512 561.487 650.719 560.715 651.095C559.943 651.471 559.259 652.007 558.71 652.668C557.132 654.704 556.165 657.48 559.261 659.924L570.569 663.828C570.569 663.828 589.886 666.323 588.86 661.952Z" fill="url(#paint1_linear)"/>
<path d="M514.579 669.2L503.636 665.296C500.616 662.852 501.583 660.077 503.101 658.031C503.626 657.379 504.284 656.847 505.032 656.47C505.78 656.094 506.6 655.883 507.436 655.85C508.18 655.762 508.896 655.509 509.532 655.112C510.216 654.726 510.798 654.182 511.228 653.525C512.034 652.256 512.466 650.785 512.475 649.281C512.475 649.281 524.496 645.759 527.745 649.281C528.331 649.918 528.822 650.635 529.205 651.412C530.285 653.845 530.807 656.49 530.732 659.152C530.732 659.152 531.351 662.979 532.335 667.342C533.319 671.704 514.579 669.2 514.579 669.2Z" fill="#2D293D"/>
<path d="M568.144 663.794L557.2 659.89C554.18 657.446 555.139 654.67 556.666 652.634C557.188 651.978 557.846 651.444 558.594 651.067C559.342 650.691 560.163 650.481 561.001 650.452C561.432 650.413 561.854 650.301 562.248 650.121C562.54 650.004 562.824 649.865 563.096 649.706C566.15 648.008 566.074 643.892 566.074 643.892C566.074 643.892 578.086 640.37 581.344 643.892C581.786 644.366 582.17 644.89 582.489 645.454C584.559 649.018 584.33 653.771 584.33 653.771C584.33 653.771 584.941 657.598 585.933 661.961C586.926 666.323 568.144 663.794 568.144 663.794Z" fill="#2D293D"/>
<path opacity="0.1" d="M527.814 649.29C528.399 649.926 528.891 650.644 529.273 651.42L511.263 653.508C512.069 652.239 512.501 650.768 512.51 649.264C512.51 649.264 524.531 645.768 527.814 649.29Z" fill="black"/>
<path opacity="0.1" d="M582.522 645.437V648.831C579.731 653.448 566.183 652.438 562.247 650.121C562.54 650.004 562.823 649.865 563.095 649.706C566.149 648.008 566.073 643.892 566.073 643.892C566.073 643.892 578.085 640.37 581.343 643.892C581.796 644.358 582.192 644.877 582.522 645.437Z" fill="black"/>
<path d="M584.669 630.915C583.831 632.385 583.113 633.921 582.523 635.507V647.601C579.469 652.693 563.554 650.996 561.408 648.212C559.262 645.428 556.971 638.265 559.423 637.043C561.874 635.821 563.86 629.693 563.86 629.693C563.86 629.693 561.255 630.304 557.124 625.407C552.992 620.511 554.214 609.639 554.986 607.033C555.758 604.428 554.986 595.703 554.986 595.703C554.986 595.703 555.139 589.584 553.909 587.59C552.678 585.595 550.083 574.274 550.083 574.274C550.083 574.274 550.083 570.446 547.945 568.452C545.807 566.457 544.424 558.658 544.424 558.658C543.164 556.71 542.615 554.386 542.872 552.08C543.338 548.253 540.276 544.12 540.276 544.12L535.075 527.587L530.172 515.188L527.44 522.376C527.44 522.376 526.668 539.214 527.288 542.745C527.907 546.275 528.815 555.602 528.815 555.602C528.815 555.602 525.752 561.73 527.118 566.932C528.484 572.135 528.034 583.312 528.034 583.312C528.034 583.312 529.409 606.431 528.187 608.264C526.965 610.097 527.118 614.697 527.118 614.697C527.118 614.697 533.387 628.166 531.36 629.973C529.332 631.781 529.977 636.865 529.977 636.865C529.977 636.865 534.219 636.865 532.429 638.698C530.639 640.531 529.298 650.206 529.298 650.206L510.796 652.345C510.796 652.345 509.099 650.206 506.648 644.537C504.196 638.868 507.106 639.445 509.574 638.876C512.043 638.308 510.474 636.729 507.572 634.896C504.671 633.063 506.342 628.955 506.342 628.955C506.342 628.955 510.779 621.453 509.252 620.833C507.725 620.213 507.555 609.664 507.555 609.664C507.555 609.664 504.493 597.104 505.256 593.743C506.02 590.382 502.805 582.26 502.805 582.26L501.736 572.61C498.454 567.144 497.25 560.679 498.342 554.397V539.52C498.342 539.52 494.101 510.74 493.447 496.194C493.057 486.858 493.168 474.17 493.295 466.235C493.371 461.788 493.447 458.843 493.447 458.843L559.575 451.934C559.676 455.237 560.077 458.524 560.772 461.754C561.442 465.386 562.468 470.088 564.165 475.969C568.907 492.807 565.997 505.36 565.997 505.36L565.387 526.645C565.387 526.645 571.206 540.878 569.976 545.783C569.244 548.688 568.834 551.665 568.754 554.66C568.754 554.66 581.759 585.739 580.385 594.77C579.011 603.8 584.627 618.041 584.627 618.041C584.627 618.041 586.196 628.157 584.669 630.915Z" fill="#7E414D"/>
<path opacity="0.05" d="M546.867 551.155L566.998 548.473C566.998 548.473 555.597 560.109 546.867 551.155Z" fill="black"/>
<path opacity="0.1" d="M564.08 528.801C564.08 528.801 564.767 535.921 560.406 538.603C560.415 538.603 568.219 537.372 564.08 528.801Z" fill="black"/>
<path opacity="0.1" d="M562.85 506.149C562.85 506.149 546.027 520 539.944 518.879C533.862 517.759 562.85 506.149 562.85 506.149Z" fill="black"/>
<path opacity="0.1" d="M521.926 557.665C521.926 557.665 509.15 560.567 508.768 565.702C508.386 570.837 521.926 557.665 521.926 557.665Z" fill="black"/>
<path opacity="0.05" d="M524.734 621.503C524.734 621.503 506.682 624.898 511.806 627.164C516.93 629.43 525.379 631.297 525.379 631.297C525.379 631.297 531.165 631.603 524.734 621.503Z" fill="black"/>
<g opacity="0.05">
<path opacity="0.05" d="M508.157 630.814C507.705 630.527 507.322 630.142 507.038 629.689C506.753 629.235 506.573 628.724 506.511 628.191L506.324 628.514C506.324 628.514 504.628 632.647 507.546 634.455C507.885 634.667 508.199 634.879 508.488 635.083C509.031 634.981 509.607 634.905 510.184 634.769C512.628 634.175 511.067 632.647 508.157 630.814Z" fill="black"/>
<path opacity="0.05" d="M531.418 629.583C531.919 629.125 531.902 627.945 531.596 626.434C530.859 627.794 530.504 629.328 530.57 630.873C530.759 630.389 531.048 629.949 531.418 629.583Z" fill="black"/>
<path opacity="0.05" d="M528.644 553.421C527.976 555.23 527.565 557.125 527.423 559.048C527.768 557.718 528.237 556.422 528.823 555.178C528.823 555.178 528.755 554.491 528.644 553.421Z" fill="black"/>
<path opacity="0.05" d="M570.017 545.384C570.142 544.827 570.199 544.257 570.187 543.687C569.958 544.824 569.797 545.885 569.687 546.818C569.746 546.369 569.856 545.885 570.017 545.384Z" fill="black"/>
<path opacity="0.05" d="M528.203 607.848C528.554 606.752 528.709 605.603 528.661 604.453C528.107 605.817 527.819 607.275 527.812 608.748C527.907 608.433 528.038 608.131 528.203 607.848Z" fill="black"/>
<path opacity="0.05" d="M531.995 636.712C531.044 639.785 530.341 642.93 529.891 646.116L511.389 648.263C511.389 648.263 509.693 646.116 507.241 640.455C507.029 639.954 506.859 639.513 506.723 639.105C505.612 639.615 505.179 640.803 506.63 644.13C509.082 649.791 510.77 651.938 510.77 651.938L529.298 649.791C529.298 649.791 530.672 640.149 532.504 638.308C533.395 637.408 532.818 636.95 531.995 636.712Z" fill="black"/>
<path opacity="0.05" d="M507.546 609.223C507.546 609.223 507.699 619.789 509.243 620.4C510.015 618.652 510.532 617.005 509.845 616.717C508.31 616.106 508.148 605.54 508.148 605.54C508.148 605.54 505.094 592.987 505.858 589.618C506.621 586.249 503.406 578.135 503.406 578.135L502.337 568.494C499.051 563.027 497.846 556.557 498.944 550.273V535.42C498.944 535.42 494.702 506.641 494.049 492.137C493.659 482.801 493.769 470.071 493.896 462.178C493.896 460.744 493.939 459.471 493.964 458.401L493.438 458.452C493.438 458.452 493.353 461.397 493.286 465.853C493.15 473.78 493.04 486.493 493.438 495.803C494.049 510.35 498.333 539.129 498.333 539.129V553.981C497.235 560.266 498.44 566.736 501.726 572.203L502.804 581.785C502.804 581.785 506.019 589.898 505.256 593.268C504.492 596.637 507.546 609.223 507.546 609.223Z" fill="black"/>
<path opacity="0.05" d="M562.027 644.13C560.523 641.953 559.524 639.468 559.1 636.856C557.208 638.554 559.38 645.182 561.416 647.805C563.554 650.554 579.468 652.243 582.531 647.194V644.274C578.391 648.382 564.08 646.735 562.027 644.13Z" fill="black"/>
<path opacity="0.05" d="M585.288 626.833C584.443 628.3 583.725 629.836 583.142 631.425V633.555C583.489 632.766 583.99 631.722 584.677 630.483C585.166 629.283 585.394 627.993 585.347 626.698C585.321 626.74 585.301 626.786 585.288 626.833Z" fill="black"/>
<path opacity="0.05" d="M562.968 629.244C563.552 628.065 564.056 626.849 564.478 625.603C564.478 625.603 561.874 626.214 557.742 621.359C554.731 617.795 554.561 611.065 554.994 606.668C554.222 609.265 553 620.137 557.131 625.034C559.838 628.2 561.874 629.04 562.968 629.244Z" fill="black"/>
<path opacity="0.05" d="M554.985 595.296C555.255 598.312 555.356 601.341 555.29 604.368C555.369 603.888 555.473 603.412 555.604 602.943C556.376 600.346 555.604 591.621 555.604 591.621C555.604 591.621 555.757 585.494 554.535 583.508C553.314 581.522 550.709 570.183 550.709 570.183C550.709 570.183 550.709 566.355 548.571 564.37C546.434 562.384 545.051 554.567 545.051 554.567C543.794 552.618 543.251 550.294 543.515 547.99C543.973 544.162 540.919 540.029 540.919 540.029L535.711 523.488L530.816 511.089L528.059 518.285C528.059 518.285 528.059 519.194 527.965 520.611L530.205 514.763L535.1 527.163L540.326 543.704C540.326 543.704 543.388 547.837 542.93 551.665C542.666 553.969 543.208 556.293 544.466 558.242C544.466 558.242 545.84 566.05 547.978 568.044C550.115 570.039 550.124 573.858 550.124 573.858C550.124 573.858 552.728 585.188 553.95 587.182C555.172 589.177 554.985 595.296 554.985 595.296Z" fill="black"/>
</g>
<path d="M567.838 313.597L566.685 319.182L566.753 321.668L566.803 323.51L560.415 324.163L559.703 322.84C558.379 320.446 555.639 315.575 554.749 314.828C553.569 313.835 551.465 298.295 553.993 299.212C555.536 299.81 556.803 300.959 557.548 302.437C557.548 302.437 570.095 303.914 567.838 313.597Z" fill="#FFCDD3"/>
<path opacity="0.1" d="M566.803 323.544L560.415 324.197L559.702 322.873C560.562 321.895 561.735 321.245 563.02 321.033C564.304 320.821 565.623 321.061 566.752 321.711L566.803 323.544Z" fill="black"/>
<path d="M568.416 326.565L559.992 328.517L559.822 327.261L559.338 323.866C559.338 323.866 562.672 319.419 567.491 322.755L567.907 324.452L568.416 326.565Z" fill="#F2F2F2"/>
<path d="M432.019 314.242L423.035 319.063L422.187 317.365C421.339 315.575 420.058 312.876 419.71 311.908C419.175 310.423 415.426 308.514 415.426 308.514C406.018 299.517 417.224 291.786 417.224 291.786C423.163 279.845 429.771 295.843 429.771 295.843C429.771 295.843 430.687 304.27 430.043 304.839C429.398 305.407 429.389 307.707 429.389 307.707C430.25 309.364 430.976 311.086 431.561 312.859C431.875 313.716 432.019 314.242 432.019 314.242Z" fill="#FFCDD3"/>
<path opacity="0.1" d="M432.02 314.242L423.036 319.063L422.188 317.366C423.452 316.313 427.956 312.664 429.432 312.825C430.139 312.912 430.852 312.932 431.562 312.884C431.875 313.716 432.02 314.242 432.02 314.242Z" fill="black"/>
<path d="M432.935 316.992L422.84 321.974L422.636 319.801L422.492 318.299C422.492 318.299 428.346 313.283 430.076 313.47C430.951 313.598 431.84 313.598 432.715 313.47L432.825 315.286L432.935 316.992Z" fill="#F2F2F2"/>
<path d="M543.355 350.753C543.355 350.753 499.31 355.727 507.547 353.053C513.273 351.186 515.547 347.545 516.03 343.497C516.412 340.102 515.547 336.453 514.385 333.313C513.345 330.532 512.027 327.865 510.448 325.352C510.448 325.352 544.119 306.825 537.383 323.654C536.344 326.201 535.701 328.891 535.474 331.632C535.261 334.352 535.549 337.087 536.323 339.703C537.597 343.968 540.032 347.794 543.355 350.753Z" fill="#FFCDD3"/>
<path opacity="0.1" d="M537.382 323.663C536.343 326.209 535.699 328.9 535.473 331.641C532.3 334.305 528.822 334.127 524.36 334.127C520.967 334.127 517.132 334.976 514.384 333.278C513.344 330.498 512.025 327.831 510.447 325.318C510.447 325.318 544.118 306.808 537.382 323.663Z" fill="black"/>
<path d="M523.758 335.298C533.817 335.298 541.972 327.14 541.972 317.077C541.972 307.013 533.817 298.855 523.758 298.855C513.699 298.855 505.544 307.013 505.544 317.077C505.544 327.14 513.699 335.298 523.758 335.298Z" fill="#FFCDD3"/>
<path opacity="0.1" d="M543.355 350.753C543.355 350.753 499.31 355.726 507.547 353.053C513.273 351.186 515.547 347.545 516.03 343.497C518.219 341.12 522.622 339.406 525.455 338.498C528.039 337.629 530.828 337.585 533.438 338.371C534.465 338.675 535.442 339.127 536.34 339.711C537.611 343.971 540.039 347.794 543.355 350.753Z" fill="black"/>
<path opacity="0.1" d="M568.415 326.565L559.991 328.517L559.821 327.261C560.721 326.025 561.98 325.096 563.427 324.601C564.874 324.106 566.438 324.069 567.906 324.494L568.415 326.565Z" fill="black"/>
<path opacity="0.1" d="M432.935 316.992L422.84 321.974L422.637 319.801C425.912 318.043 429.315 316.534 432.817 315.286L432.935 316.992Z" fill="black"/>
<path opacity="0.1" d="M560.771 461.771C543.72 464.47 519.44 467.975 515.589 466.803C512.399 465.827 502.194 465.955 493.312 466.235C493.388 461.788 493.464 458.843 493.464 458.843L559.575 451.934C559.675 455.243 560.076 458.535 560.771 461.771Z" fill="black"/>
<path d="M577.78 457.765C577.78 457.765 521.62 467.415 515.588 465.573C509.557 463.731 478.618 465.726 478.618 465.726C464.697 475.061 470.508 461.287 470.508 461.287C470.508 461.287 469.286 454.09 470.966 448.277C472.107 444.013 472.89 439.661 473.307 435.266C473.307 435.266 473.002 426.075 474.682 423.936C476.361 421.797 478.355 406.478 478.355 406.478C478.355 406.478 479.89 396.073 479.738 393.748C479.744 390.834 479.897 387.922 480.196 385.023L482.181 374.304C470.703 372.777 435.811 351.339 435.811 351.339C434.114 344.15 421.126 327.304 421.126 327.304C420.937 325.887 420.575 324.499 420.049 323.171C419.132 320.726 432.909 315.829 432.909 315.829C432.909 315.829 443.157 328.382 445.304 331.751C447.45 335.12 454.788 341.392 454.788 341.392C455.938 341.274 457.1 341.425 458.181 341.833L458.36 341.884C460.822 342.859 463.131 344.185 465.214 345.822C468.664 345.739 472.011 347.002 474.546 349.344C474.546 349.344 480.824 348.428 481.892 349.497C482.961 350.566 488.323 349.497 488.323 349.497C488.323 349.497 493.676 338.167 497.196 341.46C500.717 344.753 515.648 344.6 515.648 344.6C517.641 341.952 522.485 340.051 525.514 339.075C528.098 338.21 530.886 338.166 533.497 338.948C534.625 339.271 535.689 339.785 536.644 340.467L545.704 349.344C545.704 349.344 548.309 345.95 548.003 345.211C547.698 344.473 551.066 343.836 551.066 343.836C551.066 343.836 555.503 342.453 557.182 341.995C558.862 341.536 560.406 343.361 560.576 343.522C560.525 343.327 559.371 339.618 559.821 336.792C560.27 333.966 557.98 331.276 557.98 331.276C563.341 318.112 575.43 329.137 575.43 329.137C575.43 329.137 576.804 336.334 575.583 339.084C574.361 341.833 576.804 347.664 576.499 349.192C576.194 350.719 577.11 353.325 577.11 356.236C577.11 359.147 575.583 364.655 574.658 367.099C573.733 369.543 566.395 375.06 566.395 375.06C566.395 375.06 565.937 383.793 562.722 388.843C559.507 393.892 561.407 411.197 561.407 411.197C561.407 411.197 564.47 424.7 568.321 429.02C572.173 433.34 577.78 457.765 577.78 457.765Z" fill="#656691"/>
<path opacity="0.1" d="M495.916 357.033C495.916 357.033 494.219 351.984 492.7 351.525C491.179 350.96 489.697 350.294 488.264 349.531L489.248 347.647C489.248 347.647 494.991 349.225 495.916 350.906C496.84 352.586 495.916 357.033 495.916 357.033Z" fill="black"/>
<path opacity="0.1" d="M465.155 345.848C464.85 347.375 451.226 348.759 451.226 348.759L458.114 341.85L458.284 341.91C460.753 342.883 463.067 344.209 465.155 345.848Z" fill="black"/>
<path d="M425.742 326.065C426.416 326.065 426.963 325.517 426.963 324.842C426.963 324.168 426.416 323.62 425.742 323.62C425.067 323.62 424.52 324.168 424.52 324.842C424.52 325.517 425.067 326.065 425.742 326.065Z" fill="#575988"/>
<path d="M427.31 328.517C427.985 328.517 428.532 327.97 428.532 327.295C428.532 326.62 427.985 326.073 427.31 326.073C426.636 326.073 426.089 326.62 426.089 327.295C426.089 327.97 426.636 328.517 427.31 328.517Z" fill="#575988"/>
<path d="M428.847 330.775C429.521 330.775 430.068 330.228 430.068 329.553C430.068 328.878 429.521 328.331 428.847 328.331C428.172 328.331 427.625 328.878 427.625 329.553C427.625 330.228 428.172 330.775 428.847 330.775Z" fill="#575988"/>
<path d="M430.45 333.227C431.124 333.227 431.671 332.68 431.671 332.005C431.671 331.33 431.124 330.783 430.45 330.783C429.775 330.783 429.228 331.33 429.228 332.005C429.228 332.68 429.775 333.227 430.45 333.227Z" fill="#575988"/>
<path d="M574.702 332.863C575.25 332.863 575.694 332.418 575.694 331.87C575.694 331.321 575.25 330.877 574.702 330.877C574.153 330.877 573.709 331.321 573.709 331.87C573.709 332.418 574.153 332.863 574.702 332.863Z" fill="#575988"/>
<path d="M574.854 335.12C575.402 335.12 575.847 334.675 575.847 334.127C575.847 333.579 575.402 333.134 574.854 333.134C574.306 333.134 573.861 333.579 573.861 334.127C573.861 334.675 574.306 335.12 574.854 335.12Z" fill="#575988"/>
<path d="M574.99 337.378C575.538 337.378 575.982 336.933 575.982 336.385C575.982 335.836 575.538 335.392 574.99 335.392C574.441 335.392 573.997 335.836 573.997 336.385C573.997 336.933 574.441 337.378 574.99 337.378Z" fill="#575988"/>
<path opacity="0.1" d="M495.992 398.518C495.847 398.339 530.341 441.92 557.123 416.739C557.123 416.739 514.808 422.476 495.992 398.518Z" fill="black"/>
<path opacity="0.1" d="M476.175 421.178C476.175 421.178 496.815 421.738 498.97 427.679V433.866C498.384 434.192 497.724 434.363 497.053 434.363C496.382 434.363 495.722 434.192 495.136 433.866C493.057 432.737 480.57 426.397 476.175 429.444V421.178Z" fill="black"/>
<path d="M476.558 421.178C476.558 421.178 496.298 421.712 498.36 427.382V433.263C497.798 433.575 497.166 433.739 496.523 433.739C495.881 433.739 495.248 433.575 494.687 433.263C492.701 432.194 480.765 426.143 476.558 429.02V421.178Z" fill="#656691"/>
<path opacity="0.1" d="M487.441 376.333C489.55 381.216 492.236 385.828 495.441 390.073C498.935 394.764 503.17 398.855 507.979 402.184C507.979 402.184 487.78 379.176 487.441 376.333Z" fill="black"/>
<path opacity="0.1" d="M480.688 352.34C480.688 352.34 484.132 367.209 493.006 372.267L480.688 352.34Z" fill="black"/>
<path opacity="0.1" d="M475.403 353.842C475.318 353.571 472.349 365.605 486.847 372.268C486.881 372.268 480.688 370.171 475.403 353.842Z" fill="black"/>
<path opacity="0.1" d="M565.538 343.87C565.309 343.87 572.698 348.572 574.7 350.753C574.7 350.753 569.899 343.565 565.538 343.87Z" fill="black"/>
<path d="M518.838 333.592C518.985 334.564 519.494 335.443 520.264 336.054C520.794 336.306 521.373 336.437 521.96 336.436C527.517 336.775 533.294 337.021 538.427 334.882C539.398 334.549 540.273 333.981 540.972 333.227C541.888 332.107 542.057 330.588 542.431 329.196C543.143 326.472 544.679 324.045 545.824 321.456C547.685 317.077 548.307 312.271 547.622 307.563C547.488 306.118 547.014 304.725 546.24 303.498C544.764 301.393 542.083 300.544 540.132 298.872C538.181 297.2 536.933 294.629 534.66 293.373C532.607 292.236 530.104 292.371 527.788 292.762C523.216 293.528 518.833 295.164 514.877 297.582C513.562 298.389 512.111 299.322 510.635 299.042C509.303 298.787 508.336 297.667 507.479 296.623C506.397 299.121 505.932 301.843 506.122 304.559C506.19 304.955 506.19 305.359 506.122 305.755C505.93 306.231 505.641 306.662 505.274 307.02C503.899 308.607 503.042 311.127 504.425 312.731C505.011 313.436 505.918 313.818 506.495 314.531C507.522 315.812 507.174 317.645 507.148 319.292C507.09 319.861 507.234 320.432 507.556 320.904C507.852 321.18 508.215 321.374 508.609 321.467C509.003 321.561 509.415 321.551 509.804 321.439C510.579 321.208 511.391 321.13 512.196 321.21C513.052 321.491 513.785 322.057 514.274 322.814C516.768 326.073 517.761 329.663 518.838 333.592Z" fill="#2D293D"/>
<g opacity="0.1">
<path opacity="0.1" d="M541.556 331.819C540.864 332.59 539.989 333.173 539.011 333.516C533.921 335.655 528.102 335.409 522.545 335.061C521.957 335.07 521.376 334.939 520.848 334.679C520.077 334.07 519.567 333.19 519.423 332.218C518.346 328.297 517.353 324.707 514.783 321.448C514.294 320.691 513.56 320.125 512.704 319.844C511.9 319.76 511.086 319.838 510.312 320.073C509.927 320.179 509.521 320.185 509.132 320.092C508.743 319.998 508.385 319.808 508.089 319.538C507.767 319.062 507.623 318.488 507.682 317.917C507.682 316.279 508.055 314.437 507.029 313.164C506.452 312.443 505.553 312.07 504.959 311.365C504.577 310.844 504.342 310.229 504.279 309.585C504.216 308.941 504.328 308.293 504.603 307.707C503.636 309.252 503.211 311.238 504.348 312.587C504.934 313.292 505.841 313.674 506.418 314.386C507.445 315.668 507.097 317.501 507.071 319.148C507.013 319.716 507.157 320.287 507.479 320.76C507.776 321.036 508.139 321.229 508.532 321.323C508.926 321.417 509.338 321.407 509.727 321.295C510.502 321.064 511.314 320.986 512.119 321.066C512.975 321.347 513.708 321.913 514.197 322.67C516.742 325.929 517.76 329.519 518.838 333.448C518.841 333.846 518.926 334.24 519.089 334.603C519.252 334.966 519.488 335.292 519.783 335.559C520.078 335.826 520.426 336.029 520.803 336.155C521.181 336.281 521.58 336.328 521.977 336.291C527.533 336.631 533.311 336.877 538.443 334.738C539.415 334.405 540.289 333.836 540.988 333.083C541.334 332.64 541.601 332.141 541.777 331.607C541.708 331.682 541.634 331.752 541.556 331.819Z" fill="black"/>
<path opacity="0.1" d="M506.121 305.271C506.371 305.009 506.562 304.697 506.681 304.355C506.749 303.959 506.749 303.554 506.681 303.158C506.524 300.926 506.813 298.684 507.529 296.564L507.427 296.445C506.341 298.942 505.875 301.664 506.07 304.38C506.112 304.675 506.13 304.974 506.121 305.271Z" fill="black"/>
</g>
<path opacity="0.1" d="M515.588 344.634C515.588 344.634 538.341 347.647 540.385 344.227L515.588 344.634Z" fill="black"/>
<path opacity="0.1" d="M559.838 335.214C559.838 335.214 572.47 335.213 575.252 339.975L559.838 335.214Z" fill="black"/>
<path opacity="0.1" d="M831.934 323.781C832.069 323.982 832.177 324.198 832.256 324.427C835.022 327.685 836.498 330.715 833.834 330.792C831.357 330.868 828.388 335.298 827.675 336.419C827.675 336.503 827.726 336.588 827.76 336.673C827.794 336.758 831.247 330.877 834.08 330.792C836.914 330.707 835.056 327.227 831.934 323.781Z" fill="black"/>
<path opacity="0.1" d="M823.586 323.781C823.446 323.98 823.335 324.197 823.255 324.427C820.49 327.685 819.014 330.715 821.677 330.792C824.155 330.868 827.132 335.298 827.845 336.419C827.845 336.503 827.794 336.588 827.76 336.673C827.726 336.758 824.273 330.877 821.431 330.792C818.589 330.707 820.464 327.227 823.586 323.781Z" fill="black"/>
<defs>
<linearGradient id="paint0_linear" x1="710.622" y1="374.635" x2="710.622" y2="37.6782" gradientUnits="userSpaceOnUse">
<stop stop-color="#808080" stop-opacity="0.25"/>
<stop offset="0.54" stop-color="#808080" stop-opacity="0.12"/>
<stop offset="1" stop-color="#808080" stop-opacity="0.1"/>
</linearGradient>
<linearGradient id="paint1_linear" x1="117264" y1="318944" x2="117264" y2="146486" gradientUnits="userSpaceOnUse">
<stop stop-color="#808080" stop-opacity="0.25"/>
<stop offset="0.54" stop-color="#808080" stop-opacity="0.12"/>
<stop offset="1" stop-color="#808080" stop-opacity="0.1"/>
</linearGradient>
</defs>
</svg>
