<svg width="241" height="101" viewBox="0 0 241 101" fill="none" xmlns="http://www.w3.org/2000/svg">
<path d="M20.9095 21.4469C20.9095 14.0225 24.1639 9.69159 29.3981 6.4001C36.1411 2.06698 44.0757 -0.0367769 52.0797 0.386315C58.0316 0.695666 63.3401 2.98486 65.8892 9.14713C68.0917 14.468 67.5844 19.863 66.1614 25.2334C65.7035 26.9534 65.221 28.661 64.627 30.3562C63.0586 34.9634 61.2327 39.4788 59.1577 43.881C58.7741 44.6606 58.2296 44.7225 57.4872 44.4626C55.479 43.8106 53.3571 43.5839 51.2565 43.797C49.156 44.01 47.1227 44.6581 45.2864 45.7C44.3117 46.1645 43.3692 46.6936 42.4651 47.2839C40.2873 48.744 39.3345 46.6281 38.2456 45.5392C34.8427 42.1982 31.4398 38.8448 28.3463 35.244C24.6341 30.9997 20.4888 26.8915 20.9219 21.4717" fill="#283D53"/>
<path d="M80.7167 60.2869H73.2923C73.0561 60.3205 72.8155 60.3031 72.5866 60.2359C72.3577 60.1687 72.1458 60.0532 71.9653 59.8973C71.7847 59.7414 71.6397 59.5486 71.5399 59.3319C71.4401 59.1153 71.3878 58.8797 71.3867 58.6412C70.9991 56.2488 70.111 53.9652 68.7805 51.9395C67.4499 49.9139 65.7069 48.1918 63.6653 46.8858C62.6259 46.1558 61.5865 45.5247 62.762 43.681C64.2097 41.4041 64.8285 38.62 65.9792 36.1452C66.9855 34.0771 68.0965 32.0617 69.3078 30.1066C70.3186 28.2491 71.4556 26.4631 72.7107 24.7611C73.7492 23.5837 74.9154 22.5254 76.1878 21.6057C77.732 20.3607 79.5247 19.4604 81.4455 18.9653C83.3663 18.4702 85.3708 18.3916 87.3244 18.7349C89.9813 19.2307 92.4462 20.461 94.4395 22.2863C96.7732 24.4297 98.7824 26.9016 100.404 29.6241C101.609 31.5779 102.608 33.6513 103.386 35.8111C105.118 39.9564 105.131 44.312 104.772 48.7048C104.594 50.2373 104.099 51.7161 103.32 53.0474C102.54 54.3787 101.492 55.5335 100.243 56.4386C96.407 59.6435 91.5811 59.8538 86.978 60.225C84.8991 60.3859 82.7832 60.225 80.6796 60.225" fill="#AAB81E"/>
<path d="M27.8138 64.1356C29.2739 64.1356 30.7341 64.1356 32.1818 64.1356C32.5299 64.0953 32.8826 64.1294 33.2165 64.2356C33.5504 64.3418 33.858 64.5177 34.1189 64.7517C34.3797 64.9856 34.5879 65.2723 34.7297 65.5927C34.8715 65.9132 34.9436 66.2601 34.9412 66.6105C35.2753 69.5307 36.9582 71.7333 38.6535 74.0349C40.1124 76.0325 42.0196 77.6599 44.2218 78.7865C45.6978 79.642 47.2841 80.2915 48.9363 80.7169C51.9679 81.2984 54.9006 80.8035 57.8703 80.5684C59.1077 80.4694 59.5408 81.8058 59.7017 82.5235C60.4318 85.7902 61.9909 88.9456 61.2608 92.4227C60.3549 94.4471 58.7583 96.0831 56.7567 97.0382C51.4977 98.2756 46.2387 97.3847 41.0911 96.667C37.1283 96.0609 33.2708 94.8986 29.6328 93.2146C27.1817 92.1525 24.8118 90.9117 22.5425 89.5024C20.4565 88.1456 18.4864 86.6183 16.6524 84.9364C15.4848 83.8261 14.4546 82.5798 13.5837 81.2242C11.542 78.1926 9.87146 75.0372 10.0942 71.1889C10.1511 70.0506 10.5302 68.9519 11.1874 68.0209C11.8446 67.0898 12.7529 66.3646 13.8064 65.9299C18.36 64.0119 23.124 64.4821 27.8138 64.1109" fill="#92975A"/>
<path d="M25.4539 60.5749C21.5902 60.7756 17.7166 60.6597 13.8718 60.2284C9.1449 59.4117 4.64075 57.8279 1.83185 53.5836C0.864055 52.1751 0.268128 50.5448 0.0994835 48.8443C-0.238895 45.4678 0.289197 42.0607 1.63386 38.9451C3.15587 35.6041 5.13572 32.5601 9.23152 31.4588C13.748 30.2214 17.3984 31.9166 20.9497 34.1316C27.2976 38.1036 31.9626 44.0308 37.5433 48.8319C38.7807 49.9208 38.5332 51.1088 37.6052 52.2348C36.1105 54.1221 35.1873 56.3978 34.9448 58.793C34.7592 60.1665 33.9672 60.5749 32.7669 60.5873C30.2921 60.5873 27.8916 60.5873 25.4539 60.5873" fill="#5A6D67"/>
<path d="M82.1264 63.7966C84.6013 63.7966 87.0761 63.8832 89.5509 63.7966C92.1099 63.8058 94.5827 64.7222 96.5298 66.3828C98.6582 67.9295 98.7943 73.0648 97.5074 75.3168C95.0326 79.5488 91.3204 82.3329 87.4844 85.0181C84.7942 86.8262 81.9248 88.3522 78.9216 89.5717C76.6396 90.4368 74.2221 90.8893 71.7818 90.9081C68.9605 91.1061 67.4013 89.2871 65.7804 87.4434C63.949 85.3646 63.3055 82.6423 62.0681 80.2541C61.5856 79.3384 61.8454 78.5341 62.9096 77.903C65.2584 76.5171 67.2136 74.5534 68.5893 72.1986C69.9991 70.0612 70.924 67.6411 71.2992 65.1083C71.4105 64.2173 72.2272 63.7842 73.1924 63.7842C76.1374 63.7842 79.0824 63.7842 82.0275 63.7842" fill="#E68B15"/>
<path d="M68.2573 8.22066C68.2499 6.08724 69.0764 4.03539 70.5605 2.50275C72.0446 0.970105 74.0688 0.0779873 76.2014 0.0166759C77.3083 -0.0534807 78.4181 0.0981984 79.4657 0.46281C80.5132 0.827421 81.4773 1.39762 82.3015 2.13993C83.1256 2.88224 83.7932 3.78171 84.265 4.78554C84.7367 5.78936 85.0032 6.87733 85.0488 7.98555C85.1039 9.11322 84.9311 10.2404 84.5409 11.2998C84.1506 12.3593 83.5508 13.3291 82.7773 14.1516C82.0038 14.974 81.0725 15.6321 80.039 16.0866C79.0055 16.5411 77.891 16.7826 76.7621 16.7968C75.6332 16.8109 74.513 16.5974 73.4684 16.1689C72.4239 15.7405 71.4764 15.1059 70.6825 14.3031C69.8887 13.5003 69.2648 12.5457 68.8481 11.4964C68.4314 10.4471 68.2304 9.32461 68.2573 8.19591" fill="#283D53"/>
<path d="M71.2407 96.5328C71.2407 97.4158 70.979 98.2789 70.4887 99.0133C69.9984 99.7476 69.3015 100.32 68.486 100.659C67.6704 100.997 66.7729 101.086 65.9067 100.915C65.0406 100.744 64.2446 100.319 63.6194 99.6958C62.9942 99.0723 62.5677 98.2776 62.394 97.4119C62.2202 96.5462 62.3069 95.6484 62.6431 94.8319C62.9793 94.0155 63.55 93.317 64.2829 92.8246C65.0159 92.3323 65.8783 92.0682 66.7613 92.0658C67.9472 92.0658 69.0846 92.536 69.9243 93.3734C70.764 94.2108 71.2374 95.347 71.2407 96.5328Z" fill="#E68B15"/>
<path d="M112.689 64.0664C112.689 65.2656 112.333 66.4379 111.667 67.435C111.001 68.4321 110.054 69.2093 108.946 69.6682C107.838 70.1271 106.619 70.2472 105.443 70.0132C104.267 69.7793 103.186 69.2018 102.338 68.3538C101.49 67.5059 100.913 66.4255 100.679 65.2493C100.445 64.0732 100.565 62.8541 101.024 61.7461C101.483 60.6382 102.26 59.6913 103.257 59.025C104.254 58.3588 105.427 58.0032 106.626 58.0032C107.422 58.0032 108.21 58.16 108.946 58.4647C109.682 58.7694 110.35 59.216 110.913 59.7791C111.476 60.3421 111.923 61.0105 112.228 61.7461C112.532 62.4818 112.689 63.2702 112.689 64.0664Z" fill="#AAB81E"/>
<path d="M138.118 60.1932C132.764 60.1932 128.677 58.6877 125.855 55.6767C123.034 52.6656 121.624 48.3925 121.624 42.8572C121.565 40.3507 121.985 37.8561 122.861 35.507C123.635 33.4649 124.846 31.6165 126.408 30.0905C127.97 28.5645 129.847 27.3979 131.906 26.6719C134.122 25.8856 136.46 25.496 138.811 25.5211C140.055 25.5071 141.297 25.6065 142.523 25.8181C143.484 25.9881 144.434 26.2112 145.369 26.4863C146.077 26.6911 146.765 26.9604 147.423 27.2906L148.661 27.9341L146.693 33.193C145.619 32.6028 144.476 32.1457 143.29 31.8319C141.803 31.4293 140.266 31.2377 138.724 31.2627C137.546 31.2595 136.375 31.4518 135.26 31.8319C134.126 32.2122 133.096 32.852 132.253 33.7004C131.297 34.7078 130.563 35.9051 130.1 37.2146C129.509 38.9799 129.232 40.8353 129.283 42.6963C129.283 46.4828 130.025 49.37 131.51 51.3581C133.008 53.3751 135.445 54.3898 138.848 54.3898C140.494 54.4302 142.136 54.2301 143.724 53.7958C144.787 53.4704 145.822 53.0565 146.817 52.5584L148.723 57.7679C147.343 58.456 145.89 58.9873 144.392 59.3517C142.346 59.9015 140.237 60.1843 138.118 60.1932Z" fill="black"/>
<path d="M168.794 60.193C163.431 60.193 159.34 58.6875 156.519 55.6765C153.697 52.6655 152.287 48.3923 152.287 42.857C152.228 40.3505 152.648 37.856 153.524 35.5068C154.32 33.454 155.543 31.5939 157.112 30.0499C158.674 28.547 160.539 27.3952 162.582 26.6717C164.794 25.8856 167.127 25.496 169.474 25.521C170.697 25.5107 171.919 25.6101 173.124 25.8179C174.089 25.988 175.043 26.2111 175.983 26.4861C176.69 26.6932 177.377 26.9623 178.037 27.2905L179.274 27.9339L177.307 33.1929C176.233 32.6004 175.09 32.1432 173.904 31.8317C172.416 31.4291 170.879 31.2375 169.338 31.2625C168.16 31.2593 166.989 31.4517 165.873 31.8317C164.739 32.212 163.71 32.8518 162.866 33.7002C161.909 34.7046 161.179 35.9031 160.726 37.2144C160.124 38.9775 159.843 40.834 159.897 42.6961C159.897 46.4826 160.643 49.3699 162.136 51.3579C163.621 53.3749 166.071 54.3896 169.462 54.3896C171.107 54.4307 172.75 54.2306 174.337 53.7956C175.402 53.4725 176.437 53.0585 177.431 52.5582L179.435 57.8791C178.046 58.5531 176.585 59.0678 175.08 59.4134C173.027 59.9427 170.914 60.2047 168.794 60.193Z" fill="black"/>
<path d="M185.164 59.4842V26.2723H208.167V31.7417H192.712V39.1661H206.138V44.6354H192.712V53.9778H209.516V59.4471L185.164 59.4842Z" fill="black"/>
<path d="M226.195 54.6585C227.258 54.6836 228.319 54.5671 229.35 54.312C230.097 54.144 230.798 53.8146 231.405 53.3468C231.862 52.9798 232.212 52.497 232.419 51.9486C232.6 51.4402 232.693 50.9044 232.691 50.3647C232.694 49.694 232.457 49.0444 232.023 48.5333C231.531 47.9716 230.95 47.495 230.303 47.1227C229.559 46.6821 228.781 46.3014 227.977 45.9843C227.111 45.6502 226.257 45.3408 225.403 45.0562C224.252 44.6974 223.064 44.2767 221.839 43.8188C220.655 43.3738 219.532 42.7791 218.498 42.0493C217.506 41.3343 216.665 40.4301 216.024 39.3889C215.332 38.1918 214.993 36.8233 215.046 35.4416C214.987 34.0347 215.271 32.6346 215.875 31.3625C216.479 30.0903 217.383 28.9845 218.511 28.1409C221.319 26.2489 224.67 25.3276 228.051 25.5176C230.106 25.488 232.156 25.7209 234.152 26.2106C235.655 26.5983 237.121 27.1201 238.532 27.7697L236.329 32.8678C235.231 32.3621 234.093 31.9482 232.927 31.6304C231.515 31.2533 230.057 31.0742 228.596 31.0983C224.586 31.0983 222.594 32.3357 222.594 34.9095C222.579 35.5265 222.796 36.1267 223.201 36.5924C223.65 37.0916 224.181 37.5101 224.772 37.8298C225.453 38.2297 226.17 38.5652 226.913 38.8321C227.705 39.1167 228.497 39.3766 229.276 39.6364C230.514 40.02 231.751 40.4655 232.988 40.9481C234.258 41.42 235.453 42.07 236.54 42.8784C237.63 43.684 238.54 44.7081 239.213 45.8853C239.952 47.277 240.31 48.8394 240.252 50.4142C240.319 51.8115 240.037 53.2035 239.432 54.4649C238.827 55.7263 237.918 56.8176 236.787 57.6406C234.469 59.3317 230.963 60.1814 226.269 60.1897C223.723 60.2666 221.18 59.9664 218.721 59.2987C217.268 58.873 215.852 58.3266 214.489 57.6654L216.704 52.295C217.974 52.9384 219.294 53.4765 220.652 53.9037C222.449 54.442 224.319 54.6967 226.195 54.6585Z" fill="black"/>
<path d="M121.797 81.4761H123.195V89.4326C123.137 90.36 123.361 91.2834 123.839 92.0806C124.106 92.4257 124.444 92.7092 124.831 92.912C125.217 93.1149 125.643 93.2322 126.078 93.2562C126.243 93.2684 126.408 93.2684 126.573 93.2562C127.028 93.2793 127.483 93.2076 127.909 93.0457C128.335 92.8838 128.723 92.6353 129.048 92.3157C129.14 92.2339 129.223 92.1427 129.296 92.0435C129.779 91.2487 130.004 90.3235 129.939 89.3955V81.4761H131.35V89.4326C131.425 90.5928 131.125 91.7465 130.496 92.7241L130.36 92.8849C129.953 93.3465 129.457 93.7214 128.902 93.9871C128.347 94.2529 127.745 94.4041 127.13 94.4317H126.561C125.294 94.4765 124.058 94.0336 123.109 93.1943L122.787 92.8478C122.12 91.9665 121.775 90.8836 121.809 89.7791V81.4761H121.797Z" fill="black"/>
<path d="M139.467 94.2337V81.4761H141.36L149.218 92.0559V81.4761H150.616V94.2337H149.218L140.865 83.0105V94.2337H139.467Z" fill="black"/>
<path d="M158.758 94.2337V81.4761H160.156V94.2337H158.758Z" fill="black"/>
<path d="M179.894 90.8909H181.453C180.822 92.0222 179.888 92.955 178.755 93.5845C177.623 94.214 176.338 94.5154 175.044 94.4547C173.137 94.5194 171.276 93.8608 169.834 92.6109C169.171 92.0093 168.639 91.2786 168.268 90.4636C167.898 89.6486 167.698 88.7666 167.681 87.8717C167.662 86.9804 167.835 86.0954 168.19 85.2774C168.544 84.4594 169.072 83.7277 169.735 83.1324C171.16 81.848 173.027 81.1651 174.945 81.2268C176.776 81.1646 178.565 81.7817 179.969 82.9592C180.567 83.4527 181.052 84.0687 181.392 84.7658H179.82C179.438 84.1806 178.936 83.6829 178.348 83.3057H178.286C177.297 82.7121 176.16 82.4118 175.007 82.4395C173.437 82.3993 171.916 82.9821 170.775 84.0605C170.254 84.5527 169.84 85.1478 169.562 85.8081C169.283 86.4684 169.144 87.1794 169.155 87.8962C169.165 88.6129 169.324 89.3196 169.622 89.9714C169.92 90.6233 170.351 91.2061 170.886 91.6829C172.024 92.7335 173.52 93.309 175.068 93.2915C176.312 93.3211 177.532 92.9478 178.546 92.2273C179.043 91.8326 179.495 91.3845 179.894 90.8909Z" fill="black"/>
<path d="M187.73 94.2337L193.744 81.4761H195.316L201.354 94.2337H199.808L197.778 89.9399H191.257L189.215 94.2337H187.73ZM191.814 88.7768H197.258L194.536 82.9238L191.814 88.7768Z" fill="black"/>
<path d="M208.241 94.2337V81.4761H210.37L215.48 92.3405L220.553 81.4761H222.744V94.2337H221.382V82.9238L216.111 94.2832H214.874L209.652 82.9238V94.2832L208.241 94.2337Z" fill="black"/>
<path d="M230.963 94.233V81.4754H234.836C236.11 81.3983 237.384 81.6318 238.548 82.156C239.046 82.4345 239.46 82.8402 239.749 83.3316C240.039 83.8229 240.192 84.3823 240.194 84.9525C240.194 85.0762 240.194 85.2123 240.194 85.3485C240.243 85.9136 240.144 86.4819 239.905 86.9966C239.666 87.5112 239.296 87.9541 238.833 88.2811C237.85 88.8281 236.739 89.1015 235.616 89.073H232.374V94.233H230.963ZM232.374 87.9223H234.972C235.888 87.9789 236.805 87.8309 237.657 87.4892C238.003 87.304 238.294 87.0297 238.498 86.6947C238.703 86.3596 238.814 85.976 238.82 85.5836V85.398C238.874 84.9288 238.785 84.4542 238.564 84.0368C238.343 83.6193 238.001 83.2786 237.583 83.0593C236.549 82.7465 235.468 82.6207 234.391 82.688H232.411L232.374 87.9223Z" fill="black"/>
<path d="M240.362 70.1409H121.571V72.8013H240.362V70.1409Z" fill="#E68B15"/>
</svg>
