<svg width="302" height="96" viewBox="0 0 302 96" fill="none" xmlns="http://www.w3.org/2000/svg">
<g clip-path="url(#clip0)">
<path d="M0.0308637 49.4074C0.0308637 35.759 0.0501225 22.1143 4.77526e-05 8.46579C4.77526e-05 7.33813 0.231163 7.12012 1.37903 7.12012C29.349 7.16021 57.319 7.16021 85.289 7.12012C86.4445 7.12012 86.668 7.34565 86.668 8.46579C86.6269 35.7602 86.6269 63.0547 86.668 90.3491C86.668 91.4768 86.4368 91.6985 85.289 91.6948C57.3164 91.6572 29.3464 91.6572 1.37903 91.6948C0.223459 91.6948 -0.00380415 91.4692 4.77526e-05 90.3491C0.0501225 76.7119 0.0308637 63.0559 0.0308637 49.4074ZM75.0853 49.5653C75.0853 32.4023 60.9757 18.5095 43.6075 18.4193C25.9426 18.3253 11.6097 32.158 11.5904 49.2834C11.5664 53.3757 12.3747 57.4319 13.9684 61.2172C15.5621 65.0025 17.9096 68.4416 20.875 71.3353C23.8403 74.229 27.3645 76.5198 31.2435 78.0751C35.1225 79.6303 39.2791 80.419 43.4727 80.3956C60.7908 80.4106 75.093 66.4652 75.0853 49.5653Z" fill="#DC3637"/>
<path d="M75.0853 49.5657C75.0853 66.4806 60.7908 80.411 43.4726 80.3885C39.2788 80.4119 35.1218 79.6231 31.2426 78.0676C27.3633 76.5121 23.8389 74.221 20.8736 71.3269C17.9082 68.4327 15.5607 64.9932 13.9672 61.2075C12.3737 57.4218 11.5659 53.3651 11.5904 49.2725C11.5904 32.1471 25.9426 18.3145 43.6075 18.4084C60.9757 18.5099 75.0814 32.4027 75.0853 49.5657ZM43.3532 57.8578C45.0673 57.8518 46.7411 57.35 48.163 56.4157C49.5848 55.4815 50.6909 54.1568 51.3412 52.6091C51.9915 51.0614 52.1569 49.3603 51.8166 47.7209C51.4762 46.0815 50.6452 44.5774 49.4289 43.3988C48.2125 42.2203 46.6653 41.4201 44.9829 41.0996C43.3006 40.7791 41.5586 40.9526 39.9773 41.5982C38.396 42.2439 37.0464 43.3326 36.0991 44.7267C35.1519 46.1208 34.6495 47.7577 34.6556 49.4304C34.6759 51.6698 35.6007 53.8109 37.2292 55.3888C38.8577 56.9667 41.0583 57.8539 43.3532 57.8578Z" fill="#FEFEFE"/>
<path d="M43.3529 57.8574C41.6382 57.8626 39.9603 57.3713 38.5318 56.4456C37.1033 55.52 35.9882 54.2016 35.3278 52.6573C34.6673 51.1131 34.4912 49.4123 34.8216 47.7703C35.152 46.1283 35.9742 44.6188 37.184 43.433C38.3938 42.2471 39.937 41.4381 41.6182 41.1083C43.2993 40.7786 45.0429 40.9429 46.6284 41.5805C48.2138 42.2182 49.5697 43.3004 50.5246 44.6903C51.4795 46.0802 51.9905 47.7153 51.9928 49.3887C51.9748 51.6228 51.06 53.761 49.4446 55.3443C47.8293 56.9277 45.6423 57.8299 43.3529 57.8574Z" fill="#393335"/>
</g>
<path d="M113.656 27L113.6 16.612L108.56 25.068H106.096L101.084 16.892V27H95.96V7.4H100.524L107.412 18.712L114.132 7.4H118.696L118.752 27H113.656ZM138.383 11.824V27H133.315V25.376C132.755 25.992 132.083 26.4587 131.299 26.776C130.515 27.0933 129.684 27.252 128.807 27.252C126.847 27.252 125.279 26.6733 124.103 25.516C122.946 24.3587 122.367 22.6227 122.367 20.308V11.824H127.687V19.44C127.687 20.5787 127.902 21.4093 128.331 21.932C128.76 22.4547 129.386 22.716 130.207 22.716C131.047 22.716 131.728 22.4267 132.251 21.848C132.792 21.2507 133.063 20.3453 133.063 19.132V11.824H138.383ZM147.326 27.252C146.056 27.252 144.806 27.112 143.574 26.832C142.342 26.5333 141.352 26.1507 140.606 25.684L142.202 22.044C142.892 22.4733 143.714 22.8187 144.666 23.08C145.618 23.3227 146.56 23.444 147.494 23.444C148.352 23.444 148.959 23.36 149.314 23.192C149.687 23.0053 149.874 22.744 149.874 22.408C149.874 22.072 149.65 21.8387 149.202 21.708C148.772 21.5587 148.082 21.4187 147.13 21.288C145.916 21.1387 144.88 20.9427 144.022 20.7C143.182 20.4573 142.454 20.0093 141.838 19.356C141.222 18.7027 140.914 17.788 140.914 16.612C140.914 15.6413 141.203 14.7827 141.782 14.036C142.36 13.2707 143.2 12.6733 144.302 12.244C145.422 11.796 146.756 11.572 148.306 11.572C149.407 11.572 150.499 11.684 151.582 11.908C152.664 12.132 153.57 12.4493 154.298 12.86L152.702 16.472C151.358 15.7253 149.902 15.352 148.334 15.352C147.494 15.352 146.878 15.4547 146.486 15.66C146.094 15.8467 145.898 16.0987 145.898 16.416C145.898 16.7707 146.112 17.0227 146.542 17.172C146.971 17.3027 147.68 17.4427 148.67 17.592C149.92 17.7787 150.956 17.9933 151.778 18.236C152.599 18.4787 153.308 18.9267 153.906 19.58C154.522 20.2147 154.83 21.1107 154.83 22.268C154.83 23.22 154.54 24.0787 153.962 24.844C153.383 25.5907 152.524 26.1787 151.386 26.608C150.266 27.0373 148.912 27.252 147.326 27.252ZM172.634 19.44C172.634 19.4773 172.606 19.916 172.55 20.756H161.518C161.742 21.54 162.171 22.1467 162.806 22.576C163.459 22.9867 164.271 23.192 165.242 23.192C165.97 23.192 166.595 23.0893 167.118 22.884C167.659 22.6787 168.201 22.3427 168.742 21.876L171.542 24.788C170.067 26.4307 167.911 27.252 165.074 27.252C163.301 27.252 161.742 26.916 160.398 26.244C159.054 25.572 158.009 24.6387 157.262 23.444C156.534 22.2493 156.17 20.896 156.17 19.384C156.17 17.8907 156.525 16.556 157.234 15.38C157.962 14.1853 158.961 13.252 160.23 12.58C161.499 11.908 162.927 11.572 164.514 11.572C166.026 11.572 167.398 11.8893 168.63 12.524C169.862 13.14 170.833 14.0453 171.542 15.24C172.27 16.416 172.634 17.816 172.634 19.44ZM164.542 15.352C163.721 15.352 163.03 15.5853 162.47 16.052C161.929 16.5187 161.583 17.1533 161.434 17.956H167.65C167.501 17.1533 167.146 16.5187 166.586 16.052C166.045 15.5853 165.363 15.352 164.542 15.352ZM191.047 11.824V27H185.979V25.376C185.419 25.992 184.747 26.4587 183.963 26.776C183.179 27.0933 182.348 27.252 181.471 27.252C179.511 27.252 177.943 26.6733 176.767 25.516C175.61 24.3587 175.031 22.6227 175.031 20.308V11.824H180.351V19.44C180.351 20.5787 180.566 21.4093 180.995 21.932C181.424 22.4547 182.05 22.716 182.871 22.716C183.711 22.716 184.392 22.4267 184.915 21.848C185.456 21.2507 185.727 20.3453 185.727 19.132V11.824H191.047ZM111.836 74.224V95H106.768V93.488C105.779 94.664 104.295 95.252 102.316 95.252C100.935 95.252 99.6747 94.9347 98.536 94.3C97.3973 93.6467 96.492 92.7227 95.82 91.528C95.1667 90.3333 94.84 88.952 94.84 87.384C94.84 85.816 95.1667 84.444 95.82 83.268C96.492 82.0733 97.3973 81.1587 98.536 80.524C99.6747 79.8893 100.935 79.572 102.316 79.572C104.127 79.572 105.527 80.0947 106.516 81.14V74.224H111.836ZM103.436 91.024C104.351 91.024 105.107 90.7067 105.704 90.072C106.301 89.4187 106.6 88.5227 106.6 87.384C106.6 86.264 106.301 85.3867 105.704 84.752C105.125 84.1173 104.369 83.8 103.436 83.8C102.503 83.8 101.737 84.1173 101.14 84.752C100.543 85.3867 100.244 86.264 100.244 87.384C100.244 88.5227 100.543 89.4187 101.14 90.072C101.737 90.7067 102.503 91.024 103.436 91.024ZM130.771 87.44C130.771 87.4773 130.743 87.916 130.687 88.756H119.655C119.879 89.54 120.308 90.1467 120.943 90.576C121.596 90.9867 122.408 91.192 123.379 91.192C124.107 91.192 124.732 91.0893 125.255 90.884C125.796 90.6787 126.337 90.3427 126.879 89.876L129.679 92.788C128.204 94.4307 126.048 95.252 123.211 95.252C121.437 95.252 119.879 94.916 118.535 94.244C117.191 93.572 116.145 92.6387 115.399 91.444C114.671 90.2493 114.307 88.896 114.307 87.384C114.307 85.8907 114.661 84.556 115.371 83.38C116.099 82.1853 117.097 81.252 118.367 80.58C119.636 79.908 121.064 79.572 122.651 79.572C124.163 79.572 125.535 79.8893 126.767 80.524C127.999 81.14 128.969 82.0453 129.679 83.24C130.407 84.416 130.771 85.816 130.771 87.44ZM122.679 83.352C121.857 83.352 121.167 83.5853 120.607 84.052C120.065 84.5187 119.72 85.1533 119.571 85.956H125.787C125.637 85.1533 125.283 84.5187 124.723 84.052C124.181 83.5853 123.5 83.352 122.679 83.352ZM151.396 95.392C149.343 95.392 147.495 94.9627 145.852 94.104C144.228 93.2267 142.949 92.0133 142.016 90.464C141.083 88.9147 140.616 87.16 140.616 85.2C140.616 83.24 141.083 81.4853 142.016 79.936C142.949 78.3867 144.228 77.1827 145.852 76.324C147.495 75.4467 149.343 75.008 151.396 75.008C153.188 75.008 154.803 75.3253 156.24 75.96C157.677 76.5947 158.872 77.5093 159.824 78.704L156.296 81.896C155.027 80.3653 153.487 79.6 151.676 79.6C150.612 79.6 149.66 79.8333 148.82 80.3C147.999 80.7667 147.355 81.4293 146.888 82.288C146.44 83.128 146.216 84.0987 146.216 85.2C146.216 86.3013 146.44 87.2813 146.888 88.14C147.355 88.98 147.999 89.6333 148.82 90.1C149.66 90.5667 150.612 90.8 151.676 90.8C153.487 90.8 155.027 90.0347 156.296 88.504L159.824 91.696C158.872 92.8907 157.677 93.8053 156.24 94.44C154.803 95.0747 153.188 95.392 151.396 95.392ZM162.044 79.824H167.364V95H162.044V79.824ZM164.704 78.144C163.733 78.144 162.949 77.8733 162.352 77.332C161.755 76.7907 161.456 76.1187 161.456 75.316C161.456 74.5133 161.755 73.8413 162.352 73.3C162.949 72.7587 163.733 72.488 164.704 72.488C165.675 72.488 166.459 72.7493 167.056 73.272C167.653 73.776 167.952 74.4293 167.952 75.232C167.952 76.072 167.653 76.772 167.056 77.332C166.459 77.8733 165.675 78.144 164.704 78.144ZM186.333 87.44C186.333 87.4773 186.305 87.916 186.249 88.756H175.217C175.441 89.54 175.871 90.1467 176.505 90.576C177.159 90.9867 177.971 91.192 178.941 91.192C179.669 91.192 180.295 91.0893 180.817 90.884C181.359 90.6787 181.9 90.3427 182.441 89.876L185.241 92.788C183.767 94.4307 181.611 95.252 178.773 95.252C177 95.252 175.441 94.916 174.097 94.244C172.753 93.572 171.708 92.6387 170.961 91.444C170.233 90.2493 169.869 88.896 169.869 87.384C169.869 85.8907 170.224 84.556 170.933 83.38C171.661 82.1853 172.66 81.252 173.929 80.58C175.199 79.908 176.627 79.572 178.213 79.572C179.725 79.572 181.097 79.8893 182.329 80.524C183.561 81.14 184.532 82.0453 185.241 83.24C185.969 84.416 186.333 85.816 186.333 87.44ZM178.241 83.352C177.42 83.352 176.729 83.5853 176.169 84.052C175.628 84.5187 175.283 85.1533 175.133 85.956H181.349C181.2 85.1533 180.845 84.5187 180.285 84.052C179.744 83.5853 179.063 83.352 178.241 83.352ZM180.509 78.004L178.101 75.876L175.693 78.004H172.165L175.805 73.748H180.397L184.037 78.004H180.509ZM198.67 79.572C200.555 79.572 202.067 80.132 203.206 81.252C204.363 82.372 204.942 84.0613 204.942 86.32V95H199.622V87.188C199.622 85.116 198.791 84.08 197.13 84.08C196.215 84.08 195.478 84.3787 194.918 84.976C194.377 85.5733 194.106 86.4693 194.106 87.664V95H188.786V79.824H193.854V81.476C194.451 80.86 195.161 80.3933 195.982 80.076C196.803 79.74 197.699 79.572 198.67 79.572ZM216.257 95.252C214.577 95.252 213.074 94.916 211.749 94.244C210.424 93.572 209.388 92.6387 208.641 91.444C207.913 90.2493 207.549 88.896 207.549 87.384C207.549 85.872 207.913 84.528 208.641 83.352C209.388 82.1573 210.424 81.2333 211.749 80.58C213.074 79.908 214.577 79.572 216.257 79.572C217.974 79.572 219.458 79.9453 220.709 80.692C221.96 81.42 222.846 82.4373 223.369 83.744L219.253 85.844C218.562 84.4813 217.554 83.8 216.229 83.8C215.277 83.8 214.484 84.1173 213.849 84.752C213.233 85.3867 212.925 86.264 212.925 87.384C212.925 88.5227 213.233 89.4187 213.849 90.072C214.484 90.7067 215.277 91.024 216.229 91.024C217.554 91.024 218.562 90.3427 219.253 88.98L223.369 91.08C222.846 92.3867 221.96 93.4133 220.709 94.16C219.458 94.888 217.974 95.252 216.257 95.252ZM225.372 79.824H230.692V95H225.372V79.824ZM228.032 78.144C227.061 78.144 226.277 77.8733 225.68 77.332C225.083 76.7907 224.784 76.1187 224.784 75.316C224.784 74.5133 225.083 73.8413 225.68 73.3C226.277 72.7587 227.061 72.488 228.032 72.488C229.003 72.488 229.787 72.7493 230.384 73.272C230.981 73.776 231.28 74.4293 231.28 75.232C231.28 76.072 230.981 76.772 230.384 77.332C229.787 77.8733 229.003 78.144 228.032 78.144ZM240.617 79.572C243.137 79.572 245.06 80.1507 246.385 81.308C247.711 82.4467 248.373 84.2013 248.373 86.572V95H243.417V93.04C242.652 94.5147 241.159 95.252 238.937 95.252C237.761 95.252 236.744 95.0467 235.885 94.636C235.027 94.2253 234.373 93.6747 233.925 92.984C233.496 92.2747 233.281 91.472 233.281 90.576C233.281 89.1387 233.832 88.028 234.933 87.244C236.035 86.4413 237.733 86.04 240.029 86.04H243.053C242.96 84.4347 241.887 83.632 239.833 83.632C239.105 83.632 238.368 83.7533 237.621 83.996C236.875 84.22 236.24 84.5373 235.717 84.948L233.925 81.336C234.765 80.776 235.783 80.3467 236.977 80.048C238.191 79.7307 239.404 79.572 240.617 79.572ZM240.421 91.892C241.037 91.892 241.579 91.7427 242.045 91.444C242.512 91.1453 242.848 90.7067 243.053 90.128V88.812H240.757C239.208 88.812 238.433 89.3253 238.433 90.352C238.433 90.8187 238.611 91.192 238.965 91.472C239.32 91.752 239.805 91.892 240.421 91.892ZM257.247 95.252C255.978 95.252 254.727 95.112 253.495 94.832C252.263 94.5333 251.274 94.1507 250.527 93.684L252.123 90.044C252.814 90.4733 253.635 90.8187 254.587 91.08C255.539 91.3227 256.482 91.444 257.415 91.444C258.274 91.444 258.881 91.36 259.235 91.192C259.609 91.0053 259.795 90.744 259.795 90.408C259.795 90.072 259.571 89.8387 259.123 89.708C258.694 89.5587 258.003 89.4187 257.051 89.288C255.838 89.1387 254.802 88.9427 253.943 88.7C253.103 88.4573 252.375 88.0093 251.759 87.356C251.143 86.7027 250.835 85.788 250.835 84.612C250.835 83.6413 251.125 82.7827 251.703 82.036C252.282 81.2707 253.122 80.6733 254.223 80.244C255.343 79.796 256.678 79.572 258.227 79.572C259.329 79.572 260.421 79.684 261.503 79.908C262.586 80.132 263.491 80.4493 264.219 80.86L262.623 84.472C261.279 83.7253 259.823 83.352 258.255 83.352C257.415 83.352 256.799 83.4547 256.407 83.66C256.015 83.8467 255.819 84.0987 255.819 84.416C255.819 84.7707 256.034 85.0227 256.463 85.172C256.893 85.3027 257.602 85.4427 258.591 85.592C259.842 85.7787 260.878 85.9933 261.699 86.236C262.521 86.4787 263.23 86.9267 263.827 87.58C264.443 88.2147 264.751 89.1107 264.751 90.268C264.751 91.22 264.462 92.0787 263.883 92.844C263.305 93.5907 262.446 94.1787 261.307 94.608C260.187 95.0373 258.834 95.252 257.247 95.252Z" fill="#393335"/>
<path d="M111.696 56.716V61H95.96V41.4H111.332V45.684H101.448V48.988H110.156V53.132H101.448V56.716H111.696ZM124.07 61L121.354 57.024L118.442 61H112.674L118.442 53.412L112.842 45.824H118.834L121.522 49.66L124.322 45.824H129.95L124.35 53.216L130.146 61H124.07ZM141.322 45.572C142.704 45.572 143.954 45.8987 145.074 46.552C146.213 47.1867 147.109 48.1013 147.762 49.296C148.434 50.472 148.77 51.844 148.77 53.412C148.77 54.98 148.434 56.3613 147.762 57.556C147.109 58.732 146.213 59.6467 145.074 60.3C143.954 60.9347 142.704 61.252 141.322 61.252C139.549 61.252 138.14 60.72 137.094 59.656V66.432H131.774V45.824H136.842V47.336C137.832 46.16 139.325 45.572 141.322 45.572ZM140.202 57.024C141.136 57.024 141.901 56.7067 142.498 56.072C143.096 55.4187 143.394 54.532 143.394 53.412C143.394 52.292 143.096 51.4147 142.498 50.78C141.901 50.1267 141.136 49.8 140.202 49.8C139.269 49.8 138.504 50.1267 137.906 50.78C137.309 51.4147 137.01 52.292 137.01 53.412C137.01 54.532 137.309 55.4187 137.906 56.072C138.504 56.7067 139.269 57.024 140.202 57.024ZM151.243 40.224H156.563V61H151.243V40.224ZM167.637 61.252C166.013 61.252 164.547 60.916 163.241 60.244C161.934 59.572 160.907 58.6387 160.16 57.444C159.433 56.2493 159.069 54.896 159.069 53.384C159.069 51.8907 159.433 50.5467 160.16 49.352C160.907 48.1573 161.925 47.2333 163.213 46.58C164.519 45.908 165.994 45.572 167.637 45.572C169.279 45.572 170.754 45.908 172.061 46.58C173.367 47.2333 174.385 48.1573 175.113 49.352C175.841 50.528 176.205 51.872 176.205 53.384C176.205 54.896 175.841 56.2493 175.113 57.444C174.385 58.6387 173.367 59.572 172.061 60.244C170.754 60.916 169.279 61.252 167.637 61.252ZM167.637 57.024C168.57 57.024 169.335 56.7067 169.933 56.072C170.53 55.4187 170.829 54.5227 170.829 53.384C170.829 52.264 170.53 51.3867 169.933 50.752C169.335 50.1173 168.57 49.8 167.637 49.8C166.703 49.8 165.938 50.1173 165.341 50.752C164.743 51.3867 164.445 52.264 164.445 53.384C164.445 54.5227 164.743 55.4187 165.341 56.072C165.938 56.7067 166.703 57.024 167.637 57.024ZM183.737 47.644C184.278 46.9533 184.978 46.44 185.837 46.104C186.714 45.7493 187.713 45.572 188.833 45.572V50.36C188.348 50.304 187.946 50.276 187.629 50.276C186.49 50.276 185.594 50.584 184.941 51.2C184.306 51.816 183.989 52.7587 183.989 54.028V61H178.669V45.824H183.737V47.644ZM197.387 45.572C199.907 45.572 201.83 46.1507 203.155 47.308C204.48 48.4467 205.143 50.2013 205.143 52.572V61H200.187V59.04C199.422 60.5147 197.928 61.252 195.707 61.252C194.531 61.252 193.514 61.0467 192.655 60.636C191.796 60.2253 191.143 59.6747 190.695 58.984C190.266 58.2747 190.051 57.472 190.051 56.576C190.051 55.1387 190.602 54.028 191.703 53.244C192.804 52.4413 194.503 52.04 196.799 52.04H199.823C199.73 50.4347 198.656 49.632 196.603 49.632C195.875 49.632 195.138 49.7533 194.391 49.996C193.644 50.22 193.01 50.5373 192.487 50.948L190.695 47.336C191.535 46.776 192.552 46.3467 193.747 46.048C194.96 45.7307 196.174 45.572 197.387 45.572ZM197.191 57.892C197.807 57.892 198.348 57.7427 198.815 57.444C199.282 57.1453 199.618 56.7067 199.823 56.128V54.812H197.527C195.978 54.812 195.203 55.3253 195.203 56.352C195.203 56.8187 195.38 57.192 195.735 57.472C196.09 57.752 196.575 57.892 197.191 57.892ZM218.973 60.384C218.525 60.664 217.974 60.8787 217.321 61.028C216.686 61.1773 216.005 61.252 215.277 61.252C213.298 61.252 211.777 60.7667 210.713 59.796C209.649 58.8253 209.117 57.3787 209.117 55.456V50.36H206.905V46.384H209.117V42.436H214.437V46.384H217.909V50.36H214.437V55.4C214.437 55.9413 214.577 56.3707 214.857 56.688C215.156 56.9867 215.548 57.136 216.033 57.136C216.649 57.136 217.19 56.9773 217.657 56.66L218.973 60.384ZM228.203 61.252C226.579 61.252 225.114 60.916 223.807 60.244C222.5 59.572 221.474 58.6387 220.727 57.444C219.999 56.2493 219.635 54.896 219.635 53.384C219.635 51.8907 219.999 50.5467 220.727 49.352C221.474 48.1573 222.491 47.2333 223.779 46.58C225.086 45.908 226.56 45.572 228.203 45.572C229.846 45.572 231.32 45.908 232.627 46.58C233.934 47.2333 234.951 48.1573 235.679 49.352C236.407 50.528 236.771 51.872 236.771 53.384C236.771 54.896 236.407 56.2493 235.679 57.444C234.951 58.6387 233.934 59.572 232.627 60.244C231.32 60.916 229.846 61.252 228.203 61.252ZM228.203 57.024C229.136 57.024 229.902 56.7067 230.499 56.072C231.096 55.4187 231.395 54.5227 231.395 53.384C231.395 52.264 231.096 51.3867 230.499 50.752C229.902 50.1173 229.136 49.8 228.203 49.8C227.27 49.8 226.504 50.1173 225.907 50.752C225.31 51.3867 225.011 52.264 225.011 53.384C225.011 54.5227 225.31 55.4187 225.907 56.072C226.504 56.7067 227.27 57.024 228.203 57.024ZM229.155 39.748H234.475L229.211 44.004H225.403L229.155 39.748ZM244.303 47.644C244.845 46.9533 245.545 46.44 246.403 46.104C247.281 45.7493 248.279 45.572 249.399 45.572V50.36C248.914 50.304 248.513 50.276 248.195 50.276C247.057 50.276 246.161 50.584 245.507 51.2C244.873 51.816 244.555 52.7587 244.555 54.028V61H239.235V45.824H244.303V47.644ZM251.595 45.824H256.915V61H251.595V45.824ZM254.255 44.144C253.284 44.144 252.5 43.8733 251.903 43.332C251.305 42.7907 251.007 42.1187 251.007 41.316C251.007 40.5133 251.305 39.8413 251.903 39.3C252.5 38.7587 253.284 38.488 254.255 38.488C255.225 38.488 256.009 38.7493 256.607 39.272C257.204 39.776 257.503 40.4293 257.503 41.232C257.503 42.072 257.204 42.772 256.607 43.332C256.009 43.8733 255.225 44.144 254.255 44.144ZM267.988 61.252C266.364 61.252 264.899 60.916 263.592 60.244C262.285 59.572 261.259 58.6387 260.512 57.444C259.784 56.2493 259.42 54.896 259.42 53.384C259.42 51.8907 259.784 50.5467 260.512 49.352C261.259 48.1573 262.276 47.2333 263.564 46.58C264.871 45.908 266.345 45.572 267.988 45.572C269.631 45.572 271.105 45.908 272.412 46.58C273.719 47.2333 274.736 48.1573 275.464 49.352C276.192 50.528 276.556 51.872 276.556 53.384C276.556 54.896 276.192 56.2493 275.464 57.444C274.736 58.6387 273.719 59.572 272.412 60.244C271.105 60.916 269.631 61.252 267.988 61.252ZM267.988 57.024C268.921 57.024 269.687 56.7067 270.284 56.072C270.881 55.4187 271.18 54.5227 271.18 53.384C271.18 52.264 270.881 51.3867 270.284 50.752C269.687 50.1173 268.921 49.8 267.988 49.8C267.055 49.8 266.289 50.1173 265.692 50.752C265.095 51.3867 264.796 52.264 264.796 53.384C264.796 54.5227 265.095 55.4187 265.692 56.072C266.289 56.7067 267.055 57.024 267.988 57.024Z" fill="#DC3637"/>
<defs>
<clipPath id="clip0">
<rect width="86.6679" height="84.5747" fill="white" transform="translate(0 7.12012)"/>
</clipPath>
</defs>
</svg>
