<svg width="846" height="618" viewBox="0 0 846 618" fill="none" xmlns="http://www.w3.org/2000/svg">
<path d="M188.008 618C291.842 618 376.016 610.66 376.016 601.606C376.016 592.552 291.842 585.212 188.008 585.212C84.1741 585.212 0 592.552 0 601.606C0 610.66 84.1741 618 188.008 618Z" fill="#282A36"/>
<path d="M188.008 612.182C276.451 612.182 348.149 607.329 348.149 601.341C348.149 595.354 276.451 590.5 188.008 590.5C99.5643 590.5 27.8666 595.354 27.8666 601.341C27.8666 607.329 99.5643 612.182 188.008 612.182Z" fill="#1B1E2C"/>
<g filter="url(#filter0_d)">
<path d="M840.12 3.88147H173.832V526.724H840.12V3.88147Z" fill="#282A36"/>
<path d="M174.332 526.224V4.38147H839.62V526.224H174.332Z" stroke="white"/>
</g>
<path d="M499.395 75.333H335.022C334.76 75.3335 334.5 75.2823 334.258 75.1823C334.015 75.0823 333.795 74.9354 333.609 74.7501C333.423 74.5648 333.276 74.3446 333.175 74.1023C333.075 73.86 333.023 73.6002 333.023 73.3378C333.023 73.0755 333.075 72.8157 333.175 72.5733C333.276 72.331 333.423 72.1109 333.609 71.9255C333.795 71.7402 334.015 71.5933 334.258 71.4933C334.5 71.3933 334.76 71.3421 335.022 71.3427H499.395C499.923 71.3438 500.429 71.5545 500.803 71.9285C501.176 72.3026 501.385 72.8094 501.385 73.3378C501.385 73.8662 501.176 74.3731 500.803 74.7471C500.429 75.1212 499.923 75.3319 499.395 75.333Z" fill="#94D4E2"/>
<path d="M679.328 97.2796H420.8C420.271 97.2796 419.763 97.0694 419.389 96.6953C419.015 96.3211 418.805 95.8136 418.805 95.2845C418.805 94.7553 419.015 94.2478 419.389 93.8737C419.763 93.4995 420.271 93.2893 420.8 93.2893H679.328C679.589 93.2893 679.849 93.3409 680.091 93.4412C680.333 93.5415 680.553 93.6884 680.738 93.8737C680.923 94.0589 681.07 94.2789 681.171 94.5209C681.271 94.763 681.322 95.0225 681.322 95.2845C681.322 95.5465 681.271 95.8059 681.171 96.048C681.07 96.29 680.923 96.51 680.738 96.6953C680.553 96.8805 680.333 97.0275 680.091 97.1278C679.849 97.228 679.589 97.2796 679.328 97.2796Z" fill="#F2F2F2"/>
<path d="M500.193 119.226H335.821C335.291 119.226 334.784 119.016 334.41 118.642C334.036 118.268 333.826 117.76 333.826 117.231C333.826 116.702 334.036 116.194 334.41 115.82C334.784 115.446 335.291 115.236 335.821 115.236H500.193C500.722 115.236 501.23 115.446 501.604 115.82C501.978 116.194 502.188 116.702 502.188 117.231C502.188 117.76 501.978 118.268 501.604 118.642C501.23 119.016 500.722 119.226 500.193 119.226Z" fill="#DB9538"/>
<path d="M679.327 119.625H514.955C514.426 119.625 513.918 119.415 513.544 119.041C513.17 118.667 512.96 118.159 512.96 117.63C512.96 117.101 513.17 116.593 513.544 116.219C513.918 115.845 514.426 115.635 514.955 115.635H679.327C679.857 115.635 680.364 115.845 680.738 116.219C681.112 116.593 681.322 117.101 681.322 117.63C681.322 118.159 681.112 118.667 680.738 119.041C680.364 119.415 679.857 119.625 679.327 119.625Z" fill="#D964AC"/>
<path d="M500.592 141.173H336.22C335.691 141.173 335.183 140.963 334.809 140.589C334.435 140.214 334.225 139.707 334.225 139.178C334.225 138.649 334.435 138.141 334.809 137.767C335.183 137.393 335.691 137.183 336.22 137.183H500.592C501.121 137.183 501.629 137.393 502.003 137.767C502.377 138.141 502.587 138.649 502.587 139.178C502.587 139.707 502.377 140.214 502.003 140.589C501.629 140.963 501.121 141.173 500.592 141.173Z" fill="#F2F2F2"/>
<path d="M500.992 163.12H336.619C336.09 163.12 335.583 162.909 335.208 162.535C334.834 162.161 334.624 161.654 334.624 161.125C334.624 160.595 334.834 160.088 335.208 159.714C335.583 159.34 336.09 159.129 336.619 159.129H500.992C501.521 159.129 502.028 159.34 502.402 159.714C502.776 160.088 502.986 160.595 502.986 161.125C502.986 161.654 502.776 162.161 502.402 162.535C502.028 162.909 501.521 163.12 500.992 163.12Z" fill="#D964AC"/>
<path d="M575.597 75.7319H528.519C527.99 75.7319 527.483 75.5217 527.109 75.1475C526.735 74.7734 526.525 74.2659 526.525 73.7367C526.525 73.2076 526.735 72.7001 527.109 72.3259C527.483 71.9518 527.99 71.7416 528.519 71.7416H575.597C576.126 71.7416 576.634 71.9518 577.008 72.3259C577.382 72.7001 577.592 73.2076 577.592 73.7367C577.592 74.2659 577.382 74.7734 577.008 75.1475C576.634 75.5217 576.126 75.7319 575.597 75.7319Z" fill="#DB9538"/>
<path d="M575.597 141.173H528.519C527.99 141.173 527.483 140.963 527.109 140.589C526.735 140.214 526.525 139.707 526.525 139.178C526.525 138.649 526.735 138.141 527.109 137.767C527.483 137.393 527.99 137.183 528.519 137.183H575.597C576.126 137.183 576.634 137.393 577.008 137.767C577.382 138.141 577.592 138.649 577.592 139.178C577.592 139.707 577.382 140.214 577.008 140.589C576.634 140.963 576.126 141.173 575.597 141.173Z" fill="#8863EA"/>
<path d="M575.597 162.721H528.52C528.257 162.721 527.997 162.67 527.755 162.57C527.512 162.47 527.292 162.323 527.106 162.138C526.921 161.953 526.773 161.732 526.673 161.49C526.572 161.248 526.521 160.988 526.521 160.726C526.521 160.463 526.572 160.203 526.673 159.961C526.773 159.719 526.921 159.499 527.106 159.313C527.292 159.128 527.512 158.981 527.755 158.881C527.997 158.781 528.257 158.73 528.52 158.73H575.597C575.859 158.73 576.119 158.781 576.362 158.881C576.604 158.981 576.825 159.128 577.01 159.313C577.196 159.499 577.343 159.719 577.444 159.961C577.544 160.203 577.596 160.463 577.596 160.726C577.596 160.988 577.544 161.248 577.444 161.49C577.343 161.732 577.196 161.953 577.01 162.138C576.825 162.323 576.604 162.47 576.362 162.57C576.119 162.67 575.859 162.721 575.597 162.721Z" fill="#F2F2F2"/>
<path d="M654.592 162.721H607.515C606.986 162.72 606.48 162.509 606.107 162.135C605.734 161.761 605.524 161.254 605.524 160.726C605.524 160.197 605.734 159.69 606.107 159.316C606.48 158.942 606.986 158.732 607.515 158.73H654.592C654.854 158.73 655.114 158.781 655.357 158.881C655.599 158.981 655.82 159.128 656.005 159.313C656.191 159.499 656.338 159.719 656.439 159.961C656.539 160.203 656.591 160.463 656.591 160.726C656.591 160.988 656.539 161.248 656.439 161.49C656.338 161.732 656.191 161.953 656.005 162.138C655.82 162.323 655.599 162.47 655.357 162.57C655.114 162.67 654.854 162.721 654.592 162.721Z" fill="#F2F2F2"/>
<path d="M381.702 97.2796H334.624C334.095 97.2796 333.588 97.0694 333.214 96.6953C332.84 96.3211 332.63 95.8136 332.63 95.2845C332.63 94.7553 332.84 94.2478 333.214 93.8737C333.588 93.4995 334.095 93.2893 334.624 93.2893H381.702C382.231 93.2893 382.738 93.4995 383.113 93.8737C383.487 94.2478 383.697 94.7553 383.697 95.2845C383.697 95.8136 383.487 96.3211 383.113 96.6953C382.738 97.0694 382.231 97.2796 381.702 97.2796Z" fill="#3AE76C"/>
<path d="M499.594 398.548H335.222C334.693 398.548 334.185 398.338 333.811 397.964C333.437 397.59 333.227 397.082 333.227 396.553C333.227 396.024 333.437 395.516 333.811 395.142C334.185 394.768 334.693 394.558 335.222 394.558H499.594C500.123 394.558 500.631 394.768 501.005 395.142C501.379 395.516 501.589 396.024 501.589 396.553C501.589 397.082 501.379 397.59 501.005 397.964C500.631 398.338 500.123 398.548 499.594 398.548Z" fill="#94D4E2"/>
<path d="M498.797 442.442H334.425C333.896 442.442 333.388 442.232 333.014 441.857C332.64 441.483 332.43 440.976 332.43 440.447C332.43 439.918 332.64 439.41 333.014 439.036C333.388 438.662 333.896 438.452 334.425 438.452H498.797C499.326 438.452 499.834 438.662 500.208 439.036C500.582 439.41 500.792 439.918 500.792 440.447C500.792 440.976 500.582 441.483 500.208 441.857C499.834 442.232 499.326 442.442 498.797 442.442Z" fill="#F2F2F2"/>
<path d="M499.195 464.388H334.822C334.56 464.389 334.3 464.337 334.058 464.237C333.815 464.137 333.595 463.991 333.409 463.805C333.224 463.62 333.076 463.4 332.976 463.157C332.875 462.915 332.823 462.655 332.823 462.393C332.823 462.131 332.875 461.871 332.976 461.628C333.076 461.386 333.224 461.166 333.409 460.981C333.595 460.795 333.815 460.649 334.058 460.549C334.3 460.449 334.56 460.397 334.822 460.398H499.195C499.457 460.397 499.717 460.449 499.96 460.549C500.202 460.649 500.423 460.795 500.608 460.981C500.794 461.166 500.941 461.386 501.042 461.628C501.142 461.871 501.194 462.131 501.194 462.393C501.194 462.655 501.142 462.915 501.042 463.157C500.941 463.4 500.794 463.62 500.608 463.805C500.423 463.991 500.202 464.137 499.96 464.237C499.717 464.337 499.457 464.389 499.195 464.388Z" fill="#3AE76C"/>
<path d="M569.413 442.841H522.336C521.807 442.841 521.299 442.63 520.925 442.256C520.551 441.882 520.341 441.375 520.341 440.846C520.341 440.316 520.551 439.809 520.925 439.435C521.299 439.061 521.807 438.85 522.336 438.85H569.413C569.942 438.85 570.45 439.061 570.824 439.435C571.198 439.809 571.408 440.316 571.408 440.846C571.408 441.375 571.198 441.882 570.824 442.256C570.45 442.63 569.942 442.841 569.413 442.841Z" fill="#8863EA"/>
<path d="M569.413 464.388H522.336C521.807 464.388 521.299 464.178 520.925 463.804C520.551 463.43 520.341 462.922 520.341 462.393C520.341 461.864 520.551 461.356 520.925 460.982C521.299 460.608 521.807 460.398 522.336 460.398H569.413C569.942 460.398 570.45 460.608 570.824 460.982C571.198 461.356 571.408 461.864 571.408 462.393C571.408 462.922 571.198 463.43 570.824 463.804C570.45 464.178 569.942 464.388 569.413 464.388Z" fill="#DB9538"/>
<path d="M679.527 420.495H420.999C420.47 420.495 419.963 420.285 419.589 419.91C419.215 419.536 419.004 419.029 419.004 418.5C419.004 417.971 419.215 417.463 419.589 417.089C419.963 416.715 420.47 416.505 420.999 416.505H679.527C680.056 416.505 680.564 416.715 680.938 417.089C681.312 417.463 681.522 417.971 681.522 418.5C681.522 419.029 681.312 419.536 680.938 419.91C680.564 420.285 680.056 420.495 679.527 420.495Z" fill="#3AE76C"/>
<path d="M381.9 420.495H334.822C334.293 420.495 333.786 420.285 333.412 419.91C333.038 419.536 332.828 419.029 332.828 418.5C332.828 417.971 333.038 417.463 333.412 417.089C333.786 416.715 334.293 416.505 334.822 416.505H381.9C382.429 416.505 382.937 416.715 383.311 417.089C383.685 417.463 383.895 417.971 383.895 418.5C383.895 419.029 383.685 419.536 383.311 419.91C382.937 420.285 382.429 420.495 381.9 420.495Z" fill="#DB9538"/>
<path d="M679.527 486.734H420.999C420.737 486.734 420.477 486.683 420.235 486.583C419.992 486.483 419.772 486.336 419.586 486.151C419.4 485.966 419.253 485.746 419.153 485.503C419.052 485.261 419 485.001 419 484.739C419 484.476 419.052 484.217 419.153 483.974C419.253 483.732 419.4 483.512 419.586 483.326C419.772 483.141 419.992 482.994 420.235 482.894C420.477 482.794 420.737 482.743 420.999 482.744H679.527C680.056 482.744 680.564 482.954 680.938 483.328C681.312 483.702 681.522 484.21 681.522 484.739C681.522 485.268 681.312 485.775 680.938 486.149C680.564 486.524 680.056 486.734 679.527 486.734Z" fill="#D964AC"/>
<path d="M381.9 486.734H334.822C334.56 486.734 334.3 486.683 334.058 486.583C333.815 486.483 333.595 486.336 333.409 486.151C333.224 485.966 333.076 485.746 332.976 485.503C332.875 485.261 332.823 485.001 332.823 484.739C332.823 484.476 332.875 484.217 332.976 483.974C333.076 483.732 333.224 483.512 333.409 483.326C333.595 483.141 333.815 482.994 334.058 482.894C334.3 482.794 334.56 482.743 334.822 482.744H381.9C382.162 482.743 382.422 482.794 382.665 482.894C382.907 482.994 383.128 483.141 383.313 483.326C383.499 483.512 383.646 483.732 383.747 483.974C383.847 484.217 383.899 484.476 383.899 484.739C383.899 485.001 383.847 485.261 383.747 485.503C383.646 485.746 383.499 485.966 383.313 486.151C383.128 486.336 382.907 486.483 382.665 486.583C382.422 486.683 382.162 486.734 381.9 486.734Z" fill="#94D4E2"/>
<path d="M459.898 215.792L396.064 278.839L459.898 341.885L474.261 327.521L425.987 279.237L474.659 230.555L459.898 215.792Z" fill="#F5FB8F"/>
<path d="M554.053 215.792L617.888 278.839L554.053 341.885L539.691 327.521L587.966 279.237L539.292 230.555L554.053 215.792Z" fill="#F5FB8F"/>
<path d="M191.552 25.1495C195.956 25.1495 199.527 21.5787 199.527 17.1739C199.527 12.7691 195.956 9.19836 191.552 9.19836C187.148 9.19836 183.578 12.7691 183.578 17.1739C183.578 21.5787 187.148 25.1495 191.552 25.1495Z" fill="#00ECD0"/>
<path d="M212.817 25.1495C217.221 25.1495 220.791 21.5787 220.791 17.1739C220.791 12.7691 217.221 9.19836 212.817 9.19836C208.413 9.19836 204.843 12.7691 204.843 17.1739C204.843 21.5787 208.413 25.1495 212.817 25.1495Z" fill="#00ECD0"/>
<path d="M234.081 25.1495C238.486 25.1495 242.056 21.5787 242.056 17.1739C242.056 12.7691 238.486 9.19836 234.081 9.19836C229.677 9.19836 226.107 12.7691 226.107 17.1739C226.107 21.5787 229.677 25.1495 234.081 25.1495Z" fill="#00ECD0"/>
<path opacity="0.1" d="M840.12 30.4667H173.832V33.1253H840.12V30.4667Z" fill="black"/>
<path d="M108.645 525.919C106.343 527.201 103.915 528.241 101.399 529.023C96.8993 530.252 92.0896 529.801 87.5444 530.851C85.6834 531.281 83.658 532.179 83.0662 533.996C82.6321 535.328 83.1044 536.766 83.5566 538.092C88.579 552.821 91.6062 568.458 99.6159 581.799C102.982 587.402 107.16 592.475 112.014 596.853C113.835 598.494 115.898 600.1 118.336 600.358C119.459 600.476 120.594 600.297 121.626 599.836C122.658 599.376 123.55 598.652 124.212 597.737C124.875 596.821 125.284 595.748 125.399 594.624C125.514 593.5 125.33 592.365 124.866 591.335C124.148 589.739 122.813 588.502 121.952 586.979C121.019 585.038 120.471 582.934 120.34 580.784C119.549 574.484 118.786 567.901 120.969 561.939C122.432 557.94 125.117 554.532 127.354 550.908C129.59 547.285 131.449 543.135 130.951 538.906C130.611 536.02 129.204 533.379 127.717 530.883C126.227 528.381 123.283 521.659 120.29 520.824C117.183 519.958 111.355 524.53 108.645 525.919Z" fill="#454545"/>
<path d="M190.545 576.793C190.591 578.218 190.393 579.64 189.957 580.998C189.02 583.473 186.695 585.168 185.495 587.526C183.824 590.806 184.581 594.769 185.688 598.279C186.382 600.48 187.292 602.77 189.155 604.131C190.748 605.118 192.559 605.699 194.43 605.821C210.41 608.033 226.644 606.764 242.77 607.227C245.709 607.312 248.821 607.414 251.387 605.978C253.952 604.541 255.538 600.93 253.793 598.562C252.226 596.437 249.128 596.457 246.491 596.331C239.623 595.982 233.082 593.288 227.961 588.697C226.951 587.834 226.076 586.826 225.362 585.705C224.814 584.71 224.359 583.667 224.003 582.588C221.742 576.463 219.053 570.506 215.955 564.759C215.087 563.151 214.106 561.476 212.494 560.615C211.314 560.079 210.034 559.799 208.738 559.795C204.719 559.535 194.311 558.166 191.203 561.292C188.331 564.181 190.608 573.124 190.545 576.793Z" fill="#454545"/>
<path d="M215.278 219.838C229.456 219.838 240.95 208.342 240.95 194.161C240.95 179.98 229.456 168.484 215.278 168.484C201.099 168.484 189.605 179.98 189.605 194.161C189.605 208.342 201.099 219.838 215.278 219.838Z" fill="#F0C5C5"/>
<path d="M192.095 215.363C190.568 219.452 187.978 223.292 184.209 225.492L219.716 232.736C218.428 227.553 218.258 222.155 219.218 216.901C219.57 215.629 219.643 214.296 219.43 212.994C218.763 210.418 215.863 209.177 213.268 208.586C206.788 207.108 201.057 206.316 195.035 203.453C193.194 206.605 193.452 211.729 192.095 215.363Z" fill="#FBBEBE"/>
<path d="M183.912 215.878C187.732 214.15 191.893 213.308 196.085 213.418C200.276 213.527 204.388 214.585 208.112 216.511C212.664 218.91 216.433 222.532 220.137 226.105C223.55 229.399 227.192 233.17 227.434 237.908C227.551 240.203 226.835 242.447 226.473 244.717C225.823 249.41 226.65 254.19 228.837 258.393C231.025 262.596 234.466 266.014 238.683 268.173C241.503 272.873 242.086 278.567 242.129 284.048C242.293 304.817 235.741 325.841 240.418 346.076C241.517 350.827 243.22 355.429 244.168 360.212C245.397 366.407 245.336 372.777 245.979 379.061C246.677 385.865 248.198 392.559 250.51 398.996C248.965 401.454 245.749 402.396 242.853 402.197C239.956 401.998 237.248 400.741 234.664 399.418C222.15 393.014 210.689 384.568 197.728 379.125C189.154 375.524 180.019 373.281 171.701 369.122C163.382 364.963 155.646 358.362 153.103 349.415C152.003 345.547 151.935 341.471 151.875 337.449C151.622 320.511 151.388 303.388 155.074 286.854C158.325 272.273 164.591 258.325 165.958 243.449C166.403 238.606 166.413 233.423 169.118 229.382C172.941 223.671 181.196 222.192 183.912 215.878Z" fill="#2F2E41"/>
<path d="M200.677 194.523C202.19 192.55 205.107 192.281 207.524 192.865C209.941 193.448 212.169 194.694 214.61 195.167C215.165 195.325 215.746 195.365 216.317 195.285C216.888 195.204 217.436 195.006 217.926 194.702C218.78 193.861 219.29 192.733 219.358 191.538C220.213 186.45 220.412 181.274 219.952 176.136C219.825 175.415 219.873 174.674 220.093 173.976C220.697 172.519 222.541 172.173 224.046 171.705C226.53 170.866 228.664 169.222 230.11 167.034C231.556 164.846 232.232 162.239 232.032 159.624C231.994 158.37 231.467 157.18 230.564 156.309C229.523 155.461 228.065 155.409 226.722 155.398C219.821 155.342 212.92 155.344 206.019 155.403C203.465 155.425 200.782 155.487 198.568 156.761C196.931 157.703 195.713 159.218 194.244 160.405C190.411 163.498 185.226 164.128 180.563 165.713C178.286 166.362 176.219 167.595 174.566 169.29C173.016 171.062 172.27 173.697 173.244 175.841C173.744 176.734 174.302 177.594 174.916 178.414C177.666 182.813 175.835 188.519 176.246 193.692C176.759 200.15 186.316 210.628 192.796 212.156C203.258 214.624 197.214 198.763 200.677 194.523Z" fill="#2F2E41"/>
<path d="M186.184 477.703C186.844 482.419 187.691 487.151 187.464 491.908C187.148 498.548 184.754 504.947 184.311 511.58C183.981 516.534 184.745 521.542 184.058 526.46C183.617 529.609 182.59 532.644 181.955 535.759C180.948 540.836 180.977 546.064 182.038 551.129C183.1 556.194 185.173 560.993 188.133 565.238C188.568 565.965 189.186 566.564 189.926 566.976C190.635 567.239 191.395 567.34 192.148 567.27C199.62 567.118 207.072 566.441 214.449 565.243C214.989 565.221 215.501 564.995 215.881 564.611C216.048 564.357 216.154 564.067 216.192 563.766C217.56 556.733 214.441 549.682 213.648 542.561C212.801 534.958 214.625 527.339 216.435 519.906C217.256 516.24 218.282 512.622 219.507 509.07C220.382 506.68 221.439 504.355 222.198 501.925C223.272 498.108 223.926 494.185 224.149 490.225C224.676 483.978 224.955 477.716 224.986 471.44C225.165 465.492 224.67 459.543 223.511 453.707C221.847 446.318 218.439 439.457 215.062 432.678C213.256 433.111 211.56 433.917 210.084 435.044C205.732 437.864 201.187 440.375 196.484 442.559C193.324 444.028 187.161 445.07 185.155 448.13C183.178 451.147 184.454 457.302 184.605 460.63C184.864 466.341 185.39 472.032 186.184 477.703Z" fill="#2F2E41"/>
<path opacity="0.75" d="M186.184 477.703C186.844 482.419 187.691 487.151 187.464 491.908C187.148 498.548 184.754 504.947 184.311 511.58C183.981 516.534 184.745 521.542 184.058 526.46C183.617 529.609 182.59 532.644 181.955 535.759C180.948 540.836 180.977 546.064 182.038 551.129C183.1 556.194 185.173 560.993 188.133 565.238C188.568 565.965 189.186 566.564 189.926 566.976C190.635 567.239 191.395 567.34 192.148 567.27C199.62 567.118 207.072 566.441 214.449 565.243C214.989 565.221 215.501 564.995 215.881 564.611C216.048 564.357 216.154 564.067 216.192 563.766C217.56 556.733 214.441 549.682 213.648 542.561C212.801 534.958 214.625 527.339 216.435 519.906C217.256 516.24 218.282 512.622 219.507 509.07C220.382 506.68 221.439 504.355 222.198 501.925C223.272 498.108 223.926 494.185 224.149 490.225C224.676 483.978 224.955 477.716 224.986 471.44C225.165 465.492 224.67 459.543 223.511 453.707C221.847 446.318 218.439 439.457 215.062 432.678C213.256 433.111 211.56 433.917 210.084 435.044C205.732 437.864 201.187 440.375 196.484 442.56C193.324 444.028 187.161 445.07 185.155 448.13C183.178 451.147 184.454 457.302 184.605 460.63C184.864 466.341 185.39 472.032 186.184 477.703Z" fill="#65617D"/>
<path d="M151.476 376.976C148.067 386.157 153.078 396.077 157.432 404.848C168.158 426.459 175.606 449.518 183.015 472.479C183.57 474.199 184.124 476.075 183.506 477.773C182.971 478.98 182.104 480.008 181.006 480.739C175.897 484.62 169.393 486.002 163.308 488.032C157.427 489.995 151.794 492.636 146.524 495.901C142.114 498.634 137.984 501.789 133.861 504.938L120.737 514.963C119.888 515.537 119.145 516.256 118.544 517.087C117.278 519.073 117.796 521.666 118.427 523.935C120.096 529.944 122.244 535.81 124.852 541.474C125.281 542.716 126.098 543.787 127.182 544.529C129.231 545.63 131.736 544.17 133.301 542.449C134.865 540.728 136.218 538.586 138.423 537.847C140.625 537.109 143.049 538.003 145.349 537.68C149.069 537.158 151.539 533.73 154.221 531.099C165.177 520.348 183.468 521.128 195.52 511.623C197.263 510.064 199.107 508.623 201.041 507.31C203.079 506.105 205.389 505.444 207.503 504.379C213.933 501.141 217.975 494.447 220.14 487.58C222.305 480.714 222.923 473.465 224.479 466.436C225.283 462.801 226.342 459.206 226.7 455.502C226.93 452.056 226.855 448.596 226.475 445.163L222.127 391.359C221.773 386.978 221.418 382.592 220.731 378.252C207.815 378.713 194.909 379.233 181.987 379.386C171.704 379.508 161.232 380.227 151.476 376.976Z" fill="#65617D"/>
<path d="M146.728 389.563C148.48 392.381 152.744 392.323 155.68 390.777C158.617 389.232 160.898 386.637 163.841 385.105C167.796 383.047 172.476 383.124 176.933 383.25C183.989 383.449 191.132 383.661 197.92 385.595C204.942 387.596 211.777 391.447 219.038 390.679C220.301 390.545 221.683 390.183 222.37 389.114C222.773 388.34 222.963 387.473 222.919 386.601L223.157 380.257C223.302 379.16 223.127 378.044 222.652 377.044C222.042 376.212 221.207 375.573 220.245 375.202C209.911 370.198 198.126 369.266 186.652 368.873C180.819 368.673 174.984 368.591 169.146 368.627C164.192 368.657 158.245 367.94 153.429 369.264C146.966 371.041 143.449 384.288 146.728 389.563Z" fill="#65617D"/>
<path d="M211.617 223.41C198.077 223.29 185.807 214.351 172.268 214.133C170.632 214.02 168.993 214.303 167.49 214.957C165.603 215.908 164.363 217.746 162.929 219.298C158.926 223.634 153.129 225.949 149.016 230.181C145.16 234.15 143.015 240.062 144.538 245.382C146.06 250.702 151.806 254.783 157.189 253.504C159.358 246.483 163.834 240.4 169.892 236.242C173.044 234.22 176.366 232.475 179.82 231.029C185.905 228.272 192.71 225.461 199.063 227.528C201.406 228.413 203.615 229.618 205.627 231.109L216.219 238.225C214.985 233.356 213.875 227.896 211.617 223.41Z" fill="#3F6ECF"/>
<path d="M155.629 248.797C153.831 251.04 156.421 254.291 156.025 257.138C155.762 259.031 154.205 260.475 153.557 262.272C152.885 264.134 153.241 266.195 152.986 268.158C152.731 269.585 152.353 270.987 151.857 272.349C150.716 276.418 149.92 280.576 149.476 284.778L147.106 302.48C146.695 305.144 146.445 307.83 146.357 310.524C146.476 312.538 146.342 314.559 145.956 316.539C145.431 318.473 144.269 320.166 143.488 322.011C142.706 323.857 142.344 326.089 143.4 327.793C139.863 330.739 138.812 336.525 141.284 340.408C141.755 341.013 142.123 341.691 142.374 342.415C142.511 343.427 142.344 344.458 141.894 345.375L139.498 351.761C138.885 353.396 138.691 355.885 140.396 356.258C138.983 357.725 137.883 359.464 137.161 361.368C136.811 362.325 136.706 363.354 136.856 364.361C137.007 365.368 137.408 366.322 138.022 367.134C138.618 367.656 139.125 368.271 139.524 368.956C139.758 369.909 139.698 370.911 139.35 371.83C138.992 373.225 138.923 374.678 139.147 376.1C139.372 377.523 139.885 378.884 140.655 380.101C141.453 381.301 142.584 382.243 143.909 382.81C145.233 383.378 146.695 383.548 148.114 383.299C152.908 382.217 157.216 380.51 162.049 381.397C172.456 383.307 182.897 385.225 192.977 388.444C204.481 392.118 215.62 397.505 227.643 398.635C228.434 398.797 229.257 398.669 229.961 398.275C230.574 397.694 230.955 396.911 231.034 396.07C232.272 390.261 233.511 384.453 234.75 378.644C236.247 372.205 237.387 365.688 238.165 359.124C238.588 354.886 238.709 350.626 238.829 346.369L239.787 312.49C240.236 307.497 239.57 302.467 237.838 297.762L232.329 280.173C229.185 270.136 221.973 261.235 219.406 251.034C217.78 244.579 216.58 237.651 212.222 232.619C206.009 225.445 195.259 224.33 185.851 225.563C181.6 226.12 177.313 227.082 173.637 229.286C169.385 231.836 166.253 235.852 163.223 239.775C160.726 243.009 158.184 245.609 155.629 248.797Z" fill="#3F6ECF"/>
<path d="M177.598 348.447C178.373 351.79 180.001 354.873 180.998 358.156C182.668 363.659 182.526 369.584 184.192 375.087C184.892 377.397 185.905 379.615 186.407 381.975C187.577 387.479 185.868 393.173 183.746 398.383C181.623 403.594 179.038 408.732 178.349 414.317C177.863 418.25 178.561 422.691 181.592 425.244C184.739 427.894 189.312 427.714 193.41 427.361C194.882 427.32 196.334 427.018 197.7 426.468C200.834 424.985 202.154 421.275 202.887 417.886C205.342 406.526 204.641 394.751 203.927 383.15L202.061 352.813C201.702 346.972 201.317 341.011 199.518 335.403C198.863 333.363 197.722 329.241 195.859 327.938C194.014 326.648 188.745 326.59 186.46 326.483C175.741 325.98 175.861 340.943 177.598 348.447Z" fill="#F0C5C5"/>
<path d="M189.475 236.435C187.285 235.288 184.527 235.782 182.411 237.059C180.368 238.458 178.579 240.196 177.12 242.197C172.39 247.972 167.382 254.599 168.084 262.031C168.347 264.818 169.414 267.455 170.137 270.16C173.308 282.016 169.801 294.556 170.204 306.823C170.436 313.911 171.978 320.883 173.514 327.807C173.828 329.22 174.33 330.856 175.696 331.332C176.723 331.689 177.832 331.23 178.848 330.843C182.634 329.444 186.7 328.977 190.704 329.482C194.708 329.987 198.532 331.448 201.852 333.743C204.39 332.388 203.439 328.105 202.87 325.284C201.179 316.903 203.474 308.257 206.262 300.174C209.05 292.091 212.385 284.019 212.847 275.481C213.37 265.808 210.163 256.366 206.999 247.209C206.309 245.211 205.554 243.115 203.953 241.734C202.582 240.715 201.011 239.997 199.343 239.628C195.982 238.634 192.579 238.061 189.475 236.435Z" fill="#2F2E41"/>
<path d="M47.6318 504.875L48.8453 429.146L99.3573 335.459L49.0356 417.267L49.5815 383.216L84.393 315.436L49.7255 374.206L50.7067 312.964L87.9844 259.001L50.8606 303.334L51.4736 191.039L47.6207 339.698L47.9369 333.565L10.0363 274.75L47.3295 345.338L43.7983 413.734L43.6934 411.917L0 350.023L43.5605 418.331L43.1195 426.884L43.0397 427.013L43.0761 427.716L34.1161 601.243H46.0866L47.5226 511.613L90.9782 443.471L47.6318 504.875Z" fill="#5F5F5F"/>
<defs>
<filter id="filter0_d" x="168.832" y="0.88147" width="676.288" height="532.842" filterUnits="userSpaceOnUse" color-interpolation-filters="sRGB">
<feFlood flood-opacity="0" result="BackgroundImageFix"/>
<feColorMatrix in="SourceAlpha" type="matrix" values="0 0 0 0 0 0 0 0 0 0 0 0 0 0 0 0 0 0 127 0"/>
<feOffset dy="2"/>
<feGaussianBlur stdDeviation="2.5"/>
<feColorMatrix type="matrix" values="0 0 0 0 0 0 0 0 0 0 0 0 0 0 0 0 0 0 0.25 0"/>
<feBlend mode="normal" in2="BackgroundImageFix" result="effect1_dropShadow"/>
<feBlend mode="normal" in="SourceGraphic" in2="effect1_dropShadow" result="shape"/>
</filter>
</defs>
</svg>
