<svg width="547" height="317" viewBox="0 0 547 317" fill="none" xmlns="http://www.w3.org/2000/svg">
<g filter="url(#filter0_d)">
<rect x="4" width="538.67" height="303" rx="20" fill="white"/>
</g>
<path d="M151.931 142.965C156.003 143.09 158.039 144.416 158.039 146.943C157.992 148.053 157.725 149.143 157.253 150.15C157.784 148.122 158.599 146.179 159.674 144.38C159.936 143.855 160.332 143.41 160.823 143.09C161.313 142.769 161.88 142.585 162.465 142.556C162.679 142.558 162.893 142.581 163.102 142.627C167.74 143.649 170.059 145.957 170.059 149.553C170.059 149.9 170.035 150.246 169.988 150.59C171.561 145.213 173.531 142.522 175.9 142.517H176.018C178.741 143.016 181.24 144.355 183.164 146.345C184.316 147.641 184.93 149.328 184.878 151.062C184.873 152.017 184.749 152.968 184.508 153.892L177.999 174.402C173.282 172.662 170.924 170.058 170.924 166.588C170.928 165.822 171.026 165.059 171.215 164.316L176.505 148.641C176.517 148.541 176.517 148.441 176.505 148.342C176.504 148.133 176.454 147.927 176.36 147.74C176.266 147.553 176.13 147.391 175.963 147.265C175.545 146.94 175.054 146.724 174.532 146.636L164.926 174.457C162.757 173.429 160.828 171.956 159.265 170.134C158.409 169.112 157.946 167.819 157.961 166.486C157.968 165.794 158.069 165.107 158.259 164.442L163.212 149.065C163.222 148.955 163.222 148.845 163.212 148.735C163.202 148.524 163.137 148.32 163.022 148.143C162.907 147.966 162.748 147.823 162.559 147.729C162.078 147.44 161.543 147.25 160.987 147.171L151.86 174.418C148.951 173.37 146.928 171.905 145.791 170.023C145.232 169.053 144.959 167.943 145.005 166.824C145.065 165.077 145.416 163.353 146.043 161.722L151.931 142.965Z" fill="#C23334" stroke="white" stroke-width="0.38" stroke-miterlimit="10"/>
<path d="M210.411 147.131C205.515 148.43 201.156 151.245 197.959 155.174C194.699 159.146 192.959 163.279 192.739 167.571C192.739 168.168 192.873 168.514 193.148 168.617C193.337 168.699 193.539 168.749 193.745 168.766C193.887 168.756 194.025 168.718 194.151 168.655C194.278 168.591 194.391 168.504 194.484 168.396C198.959 162.655 203.085 156.652 206.842 150.418C209.127 151.429 210.678 152.506 211.496 153.649C212.233 154.574 212.662 155.706 212.722 156.887C212.699 157.823 212.499 158.746 212.133 159.607L207.07 174.426L204.712 173.011L204.295 172.712C203.53 172.249 202.845 171.665 202.267 170.983C201.77 170.323 201.515 169.513 201.544 168.687C201.532 168.465 201.532 168.242 201.544 168.019C201.91 166.163 202.576 164.378 203.517 162.736L198.981 170.716C197.409 173.074 196.08 174.245 194.885 174.308L192.951 174.403C190.792 174.403 188.808 173.174 187 170.716C186.101 168.825 185.644 166.755 185.664 164.662C185.722 161.964 186.276 159.299 187.299 156.801C189.066 151.749 192.405 147.396 196.827 144.38C198.796 143.154 201.057 142.476 203.375 142.415C203.849 142.412 204.323 142.449 204.79 142.525C207.369 142.918 209.242 144.453 210.411 147.131Z" fill="#C23334" stroke="white" stroke-width="0.38" stroke-miterlimit="10"/>
<path d="M241.118 136.786H241.417C241.927 136.757 242.431 136.916 242.832 137.234C242.989 137.354 243.116 137.508 243.203 137.686C243.291 137.863 243.336 138.058 243.335 138.256C243.329 138.435 243.266 138.607 243.156 138.748C243.046 138.889 242.894 138.992 242.722 139.042L231.221 140.614L223.139 166.934L227.196 160.495C227.284 160.396 227.393 160.318 227.516 160.266C227.638 160.215 227.77 160.191 227.903 160.197C228.132 160.217 228.356 160.267 228.571 160.346C228.975 160.507 229.324 160.78 229.578 161.132C229.779 161.347 229.898 161.625 229.916 161.918C229.913 162.097 229.876 162.273 229.806 162.437L223.697 172.822C223.397 173.273 222.994 173.647 222.521 173.912C222.048 174.177 221.519 174.326 220.977 174.347H219.955C219.35 174.347 218.438 173.781 217.22 172.712C216.056 171.92 215.12 170.835 214.507 169.567C214.159 168.888 213.991 168.13 214.02 167.366C214.157 165.025 214.688 162.723 215.592 160.558C215.915 159.568 216.622 157.296 217.731 153.766C218.839 150.236 220.042 146.29 221.363 141.974L219.649 142.202C218.606 142.342 217.556 142.415 216.504 142.422C213.36 142.422 211.74 141.471 211.74 139.553C211.788 138.622 212.029 137.712 212.448 136.88C215.622 137.379 218.834 137.602 222.046 137.548H222.683C223.695 134.173 224.533 131.27 225.199 128.838C225.652 127.351 225.994 125.832 226.221 124.294C230.938 125.017 233.296 127.436 233.296 131.55C233.259 133.131 232.994 134.698 232.51 136.204L232.172 137.289C235.107 137.126 238.089 136.959 241.118 136.786Z" fill="#C23334" stroke="white" stroke-width="0.38" stroke-miterlimit="10"/>
<path d="M257.612 147.17C252.614 148.563 248.167 151.461 244.876 155.472C241.527 159.513 239.853 163.181 239.853 166.478C239.852 166.864 239.879 167.25 239.932 167.633C240.175 168.75 241.103 169.308 242.722 169.308C243.36 169.304 243.996 169.249 244.625 169.143C247.434 168.592 250.932 166.234 255.12 162.068C255.198 162.068 255.245 162.264 255.269 162.657V162.917C255.26 163.48 255.211 164.043 255.12 164.599C255.014 165.429 254.822 166.246 254.546 167.036C254.278 167.829 253.868 168.567 253.335 169.214C252.075 170.95 250.326 172.271 248.312 173.011C246.217 173.913 243.965 174.394 241.685 174.426C241.213 174.426 240.741 174.426 240.27 174.347C239.037 174.277 237.84 173.913 236.777 173.285C235.714 172.657 234.817 171.784 234.161 170.739C233.261 168.829 232.804 166.741 232.825 164.63C232.883 161.932 233.438 159.267 234.46 156.769C236.246 151.744 239.582 147.416 243.988 144.411C245.964 143.197 248.226 142.53 250.544 142.477C251.018 142.479 251.491 142.515 251.959 142.587C254.559 142.964 256.443 144.492 257.612 147.17Z" fill="#C23334" stroke="white" stroke-width="0.38" stroke-miterlimit="10"/>
<path d="M286.863 146.683C287.34 147.508 287.574 148.451 287.539 149.403C287.46 150.822 287.223 152.227 286.832 153.593C286.152 156.107 285.344 158.583 284.411 161.014C283.467 163.519 282.66 165.941 281.989 168.278C281.5 169.909 281.236 171.599 281.203 173.301C281.203 173.624 281.203 173.93 281.203 174.229C278.006 173.537 275.674 172.272 274.207 170.432C273.439 169.431 273.041 168.195 273.082 166.934C273.139 165.36 273.48 163.81 274.089 162.358L278.931 149.214L267.768 163.64L264.498 174.441C261.911 173.569 260.04 172.382 258.877 170.864C258.293 169.945 258.017 168.862 258.091 167.775C258.156 165.964 258.481 164.171 259.058 162.453C259.65 160.566 260.871 156.596 262.721 150.543C264.571 144.49 266.34 138.484 268.028 132.525C269.71 126.566 270.603 122.782 270.708 121.173C275.425 121.891 277.783 124.31 277.783 128.429C277.746 130.01 277.482 131.577 276.997 133.083L271.408 151.62L277.217 144.026C277.564 143.548 278.018 143.157 278.542 142.884C279.066 142.611 279.646 142.464 280.236 142.454C281.097 142.544 281.938 142.769 282.728 143.122C283.897 143.567 285.275 144.754 286.863 146.683Z" fill="#C23334" stroke="white" stroke-width="0.38" stroke-miterlimit="10"/>
<path d="M320.879 125.992C321.049 126.52 321.137 127.072 321.139 127.627C321.107 128.384 320.958 129.132 320.698 129.844C320.517 130.315 320.242 130.744 319.889 131.105C319.536 131.466 319.113 131.751 318.646 131.943C318.185 132.173 317.676 132.289 317.161 132.281C316.308 132.257 315.469 132.054 314.7 131.684C314.053 131.262 313.568 130.633 313.324 129.899C313.156 129.498 313.068 129.068 313.065 128.633C313.068 128.159 313.17 127.691 313.364 127.258C313.522 126.959 313.611 126.629 313.623 126.291C313.607 126.018 313.538 125.751 313.419 125.505C313.224 125.138 312.898 124.857 312.507 124.718C312.282 124.627 312.042 124.576 311.799 124.569C311.571 124.569 311.345 124.609 311.131 124.687C309.517 125.54 308.272 126.955 307.633 128.665C307.061 129.901 306.598 131.185 306.249 132.501L304.873 137.006C307.038 136.88 309.247 136.731 311.5 136.558H311.721C311.932 136.544 312.144 136.577 312.341 136.654C312.538 136.732 312.715 136.852 312.861 137.006C313.113 137.292 313.253 137.661 313.254 138.043C313.266 138.209 313.225 138.375 313.138 138.516C313.05 138.657 312.92 138.767 312.766 138.83L303.867 140.355L293.482 174.418C291.353 173.815 289.442 172.611 287.979 170.951C287.321 170.005 287.004 168.862 287.083 167.712C287.133 166.112 287.397 164.525 287.869 162.995L294.489 141.966C293.737 142.083 292.977 142.143 292.217 142.147C289.696 142.147 288.433 141.193 288.427 139.286C288.459 138.367 288.648 137.46 288.986 136.605C291.274 137.075 293.608 137.286 295.943 137.234L298.364 129.53C300.099 125.583 302.282 123.089 304.913 122.046C305.757 121.675 306.645 121.411 307.554 121.259C308.614 121.085 309.687 120.999 310.762 121C311.862 121.002 312.96 121.128 314.032 121.377C315.117 121.617 316.172 121.978 317.176 122.454C319.178 123.492 320.413 124.671 320.879 125.992Z" fill="#C23334" stroke="white" stroke-width="0.38" stroke-miterlimit="10"/>
<path d="M301.642 187.853C301.894 187.853 302.138 187.892 302.389 187.892C304.109 187.902 305.812 187.552 307.389 186.866C308.966 186.179 310.382 185.171 311.548 183.906C314.408 180.889 316.684 177.368 318.261 173.521C319.825 169.95 321.067 166.245 321.972 162.453C322.538 160.262 322.911 158.026 323.088 155.771V155.472C321.568 160.084 320.09 163.459 318.654 165.597C316.819 168.185 314.725 170.58 312.404 172.743C311.474 173.7 310.201 174.249 308.867 174.268C308.26 174.262 307.658 174.161 307.082 173.97C304.934 173.231 303.045 171.888 301.642 170.102C301.166 169.263 300.935 168.307 300.974 167.342C300.996 166.298 301.146 165.26 301.422 164.253C302.151 161.378 303.046 158.549 304.103 155.778C305.046 153.247 305.817 150.928 306.461 148.813C307.005 147.089 307.312 145.298 307.373 143.491C307.373 143.169 307.373 142.862 307.334 142.563C310.51 143.229 312.606 144.251 313.623 145.629C314.562 146.787 315.097 148.22 315.148 149.709C315.091 151.332 314.74 152.93 314.11 154.426L308.938 169.206C311.56 166.702 313.843 163.866 315.73 160.77C317.832 157.054 319.643 153.18 321.146 149.183C321.333 148.893 321.592 148.658 321.899 148.5C322.205 148.343 322.547 148.269 322.891 148.287H323.08C327.027 148.486 329 151.476 329 157.256C329 162.445 327.427 169.866 324.283 179.52C321.704 186.218 319.084 190.125 316.422 191.241C313.759 192.357 311.846 192.915 310.683 192.915C307.612 192.915 304.598 191.228 301.642 187.853Z" fill="#C23334" stroke="white" stroke-width="0.38" stroke-miterlimit="10"/>
<path d="M401.686 125.006C402.178 122.248 402.288 116.059 400.444 112.018C398.605 114.266 396.513 116.105 393.704 116.873C391.221 117.549 388.564 117.678 386.228 118.832C385.086 119.389 384.068 120.171 383.235 121.131C381.763 122.816 380.955 124.98 380.964 127.218C381.038 129.562 381.98 131.796 383.608 133.485C383.331 132.865 383.219 132.184 383.28 131.508C383.341 130.832 383.574 130.183 383.957 129.623C385.194 127.783 389.759 126.547 390.518 127.062C391.382 127.65 391.782 132.285 390.545 134.105C390.174 134.655 389.67 135.102 389.08 135.407C388.491 135.711 387.834 135.863 387.171 135.848C387.956 136.14 388.775 136.333 389.608 136.422C393.083 136.804 399.722 135.963 401.686 124.988" fill="#C23334"/>
<path d="M400.445 112.018C398.863 113.958 397.079 115.595 394.808 116.501C396.918 121.338 397.157 129.76 394.532 133.167C391.668 136.878 387.176 135.866 387.176 135.866C387.961 136.158 388.78 136.352 389.613 136.441C393.088 136.822 399.727 135.981 401.691 125.006C402.183 122.248 402.293 116.059 400.449 112.018" fill="#C23334"/>
<path d="M383.585 133.443C383.515 133.277 383.456 133.107 383.41 132.933V132.896C383.351 132.669 383.312 132.436 383.295 132.202C383.293 132.188 383.293 132.174 383.295 132.16C383.229 131.268 383.469 130.379 383.975 129.641C385.157 127.898 389.378 126.68 390.412 127.025C393.722 126.128 397.116 125.356 399.184 122.321C402.453 117.517 400.941 113.154 400.564 112.207L400.444 112.018C398.605 114.266 396.513 116.105 393.704 116.873C391.221 117.549 388.564 117.678 386.228 118.832C385.086 119.389 384.068 120.171 383.235 121.131C381.763 122.816 380.955 124.98 380.964 127.218C381.038 129.562 381.98 131.796 383.608 133.485L383.585 133.443Z" fill="#C23334"/>
<path d="M386.228 118.832C385.086 119.389 384.068 120.171 383.235 121.131C381.763 122.816 380.955 124.98 380.964 127.218C381.034 129.458 381.899 131.6 383.405 133.26C382.812 132.529 381.267 130.018 383.828 125.936C386.913 121.025 392.325 123.379 395.842 120.791C399.824 117.857 400.44 112 400.44 112C398.601 114.248 396.509 116.087 393.699 116.855C391.217 117.531 388.559 117.66 386.224 118.814" fill="#C23334"/>
<path d="M374.872 119.287C373.157 118.188 369.051 116.391 365.833 116.501C366.826 118.34 367.47 120.271 367.212 122.363C366.978 124.202 366.32 126.041 366.444 127.912C366.498 128.836 366.741 129.739 367.157 130.565C367.874 132.022 369.099 133.167 370.601 133.784C372.188 134.395 373.946 134.395 375.534 133.784C375.042 133.795 374.554 133.681 374.118 133.452C373.682 133.222 373.312 132.886 373.042 132.473C372.169 131.135 372.605 127.728 373.157 127.365C373.792 126.951 377.01 127.977 377.883 129.31C378.148 129.715 378.307 130.179 378.346 130.661C378.386 131.143 378.304 131.626 378.109 132.069C378.521 131.625 378.878 131.132 379.171 130.602C380.394 128.377 381.695 123.705 374.886 119.324" fill="#C23334"/>
<path d="M365.832 116.501C366.727 118.025 367.215 119.754 367.249 121.522C371.078 121.457 376.779 123.646 378.329 126.354C380.016 129.305 378.085 132.032 378.085 132.032C378.498 131.588 378.855 131.096 379.147 130.565C380.37 128.34 381.671 123.669 374.862 119.287C373.147 118.188 369.042 116.391 365.823 116.501" fill="#C23334"/>
<path d="M375.47 133.756C375.339 133.76 375.208 133.753 375.079 133.733H375.065C374.897 133.71 374.731 133.673 374.568 133.623H374.541C373.925 133.416 373.397 133.008 373.042 132.464C372.21 131.186 372.582 128.023 373.088 127.407C373.41 124.943 373.842 122.455 372.385 120.225C371.714 119.121 370.778 118.201 369.662 117.55C368.546 116.898 367.285 116.534 365.994 116.492H365.847C366.84 118.331 367.483 120.262 367.226 122.354C366.991 124.193 366.334 126.032 366.458 127.904C366.512 128.827 366.755 129.73 367.171 130.556C367.888 132.013 369.113 133.158 370.614 133.775C372.202 134.386 373.96 134.386 375.548 133.775L375.47 133.756Z" fill="#C23334"/>
<path d="M366.431 127.913C366.485 128.836 366.727 129.739 367.144 130.566C367.862 132.021 369.086 133.165 370.587 133.784C372.107 134.36 373.783 134.376 375.314 133.83C374.656 134.028 372.555 134.359 370.528 131.531C368.1 128.097 371.185 125.131 370.436 122.055C369.58 118.57 365.838 116.538 365.838 116.538C366.831 118.377 367.475 120.308 367.217 122.4C366.983 124.239 366.325 126.078 366.449 127.949" fill="#C23334"/>
<path d="M351.189 174.961C349.017 174.971 346.875 174.442 344.958 173.421C343.04 172.4 341.405 170.919 340.201 169.11C338.997 167.302 338.26 165.223 338.057 163.06C337.854 160.897 338.192 158.717 339.039 156.716C339.886 154.716 341.217 152.956 342.911 151.597C344.606 150.237 346.611 149.319 348.748 148.925C350.885 148.532 353.086 148.674 355.154 149.341C357.222 150.008 359.092 151.177 360.596 152.745C361.318 153.503 361.929 154.096 360.941 155.241C360.733 155.485 360.603 155.787 360.57 156.106C360.536 156.425 360.601 156.747 360.754 157.029C360.907 157.311 361.143 157.54 361.429 157.685C361.715 157.831 362.039 157.886 362.357 157.843C363.557 157.747 363.815 158.303 363.994 159.223C364.369 161.123 364.32 163.082 363.852 164.962C363.384 166.841 362.508 168.595 361.285 170.097C360.063 171.599 358.525 172.814 356.78 173.655C355.035 174.495 353.126 174.941 351.189 174.961ZM350.624 153.025C350.467 153.329 350.661 153.411 350.757 153.485C351.263 153.651 351.81 153.636 352.307 153.443C352.678 153.325 353.019 153.125 353.303 152.858C353.587 152.59 353.807 152.263 353.948 151.899C354.21 150.906 353.438 150.234 352.408 150.129C349.231 149.802 346.311 150.538 343.87 152.625C343.781 152.703 343.704 152.794 343.645 152.896C343.523 153.109 343.464 153.352 343.475 153.596C343.486 153.841 343.567 154.077 343.708 154.278C343.849 154.478 344.044 154.634 344.271 154.727C344.498 154.821 344.746 154.847 344.987 154.804C345.106 154.788 345.225 154.765 345.341 154.735C347.125 154.257 348.858 153.609 350.624 153.025Z" fill="#C23334"/>
<path d="M387.676 164.808C387.093 164.082 386.647 163.471 385.516 164.248C385.256 164.437 384.946 164.543 384.625 164.552C384.304 164.561 383.988 164.473 383.718 164.298C383.449 164.124 383.239 163.872 383.115 163.576C382.992 163.279 382.962 162.952 383.028 162.638C383.295 161.231 382.605 160.928 381.557 160.583C379.242 159.824 376.761 159.725 374.393 160.297C372.025 160.869 369.863 162.09 368.15 163.822C366.437 165.555 365.241 167.73 364.696 170.105C364.15 172.479 364.278 174.959 365.064 177.265C365.849 179.571 367.262 181.613 369.144 183.161C371.025 184.709 373.301 185.701 375.715 186.028C378.129 186.354 380.587 186.001 382.812 185.009C385.037 184.016 386.941 182.423 388.311 180.408C389.877 178.078 390.66 175.31 390.546 172.505C390.432 169.699 389.427 167.003 387.676 164.808ZM380.049 164.707C379.911 165.072 379.692 165.402 379.408 165.67C379.125 165.938 378.784 166.139 378.412 166.257C377.915 166.445 377.369 166.46 376.863 166.298C376.766 166.211 376.573 166.123 376.729 165.838C374.968 166.413 373.226 167.07 371.447 167.549C371.331 167.58 371.212 167.604 371.093 167.618C370.852 167.661 370.604 167.635 370.377 167.542C370.151 167.449 369.955 167.294 369.814 167.094C369.672 166.895 369.591 166.659 369.579 166.414C369.567 166.17 369.625 165.927 369.746 165.714C369.808 165.613 369.886 165.521 369.975 165.443C372.412 163.351 375.332 162.62 378.509 162.946C379.543 163.052 380.316 163.714 380.049 164.707Z" fill="#C23334"/>
<path d="M386.017 151.558C386.017 145.94 384.454 140.676 382.27 135.563C382.091 135.243 381.958 134.899 381.874 134.543C381.859 134.4 381.877 134.256 381.928 134.122C381.978 133.988 382.059 133.867 382.164 133.77C382.303 133.727 382.45 133.715 382.594 133.736C382.738 133.757 382.875 133.809 382.996 133.89C383.242 134.09 383.434 134.347 383.557 134.639C387.148 142.087 389.162 149.811 387.373 158.119C387.024 159.655 386.516 161.149 385.856 162.579C385.631 163.085 384.835 163.338 384.302 163.706C384.201 163.08 383.842 162.326 384.04 161.866C385.401 158.603 386.074 155.094 386.017 151.558Z" fill="#C23334"/>
<path d="M378.937 135.664C378.909 138.708 377.774 141.397 376.224 143.94C373.015 149.204 368.629 153.296 363.466 156.616C363.006 156.901 362.215 156.616 361.576 156.616C361.861 156.036 361.99 155.236 362.459 154.91C367.13 151.779 371.355 148.197 374.362 143.365C376.008 140.712 377.296 137.917 377.498 134.717C377.525 134.22 377.921 133.747 378.146 133.264C378.432 133.742 378.688 134.236 378.914 134.745C378.97 135.048 378.978 135.358 378.937 135.664Z" fill="#C23334"/>
<defs>
<filter id="filter0_d" x="0" y="0" width="546.67" height="317" filterUnits="userSpaceOnUse" color-interpolation-filters="sRGB">
<feFlood flood-opacity="0" result="BackgroundImageFix"/>
<feColorMatrix in="SourceAlpha" type="matrix" values="0 0 0 0 0 0 0 0 0 0 0 0 0 0 0 0 0 0 127 0"/>
<feOffset dy="10"/>
<feGaussianBlur stdDeviation="2"/>
<feColorMatrix type="matrix" values="0 0 0 0 0 0 0 0 0 0 0 0 0 0 0 0 0 0 0.25 0"/>
<feBlend mode="normal" in2="BackgroundImageFix" result="effect1_dropShadow"/>
<feBlend mode="normal" in="SourceGraphic" in2="effect1_dropShadow" result="shape"/>
</filter>
</defs>
</svg>
