<svg width="34" height="34" viewBox="0 0 34 34" fill="none" xmlns="http://www.w3.org/2000/svg">
<path d="M31.7352 5.2916L27.3177 0.847826C26.7785 0.304883 26.0568 0 25.2936 0C24.5304 0 23.8086 0.300707 23.2694 0.847826L18.5118 5.6299C17.9726 6.17284 17.6698 6.90372 17.6698 7.67219C17.6698 8.44484 17.9685 9.16737 18.5118 9.71449L22.2283 13.4608C21.3817 15.4471 20.1652 17.2518 18.6446 18.7775C17.1223 20.3186 15.3429 21.5339 13.3685 22.3943L9.65204 18.648C9.11282 18.105 8.39109 17.8002 7.62789 17.8002C7.25144 17.7988 6.87851 17.873 6.53093 18.0186C6.18336 18.1642 5.86814 18.3782 5.60374 18.648L0.842013 23.4301C0.302793 23.973 0 24.7039 0 25.4724C0 26.245 0.298645 26.9675 0.842013 27.5147L5.25532 31.9584C6.17614 32.8856 7.44538 33.416 8.74781 33.416C9.01742 33.416 9.27873 33.3951 9.5442 33.3492C15.0359 32.4387 20.4862 29.4943 24.8871 25.0672C29.2838 20.6318 32.2039 15.1439 33.1164 9.61008C33.3777 8.03972 32.8551 6.42343 31.7352 5.2916ZM30.1756 9.11308C29.3668 14.0371 26.737 18.9487 22.7758 22.9372C18.8146 26.9258 13.9409 29.5737 9.0506 30.3881C8.43672 30.4925 7.80625 30.2837 7.35828 29.8368L3.02378 25.4724L7.61959 20.8406L12.5887 25.8524L12.626 25.89L13.522 25.5559C16.2385 24.5502 18.7054 22.9618 20.7516 20.9007C22.7979 18.8396 24.3746 16.3551 25.3724 13.6195L25.7042 12.7174L20.6936 7.67637L25.2894 3.04465L29.6239 7.40908C30.0719 7.86014 30.2793 8.49496 30.1756 9.11308Z" fill="white"/>
</svg>
