<svg width="22" height="22" viewBox="0 0 22 22" fill="none" xmlns="http://www.w3.org/2000/svg">
<path d="M15.5919 7.09595H14.4404C14.1899 7.09595 13.9518 7.21626 13.8044 7.42251L9.94461 12.7752L8.1964 10.3493C8.04908 10.1455 7.81336 10.0227 7.56046 10.0227H6.4089C6.2493 10.0227 6.156 10.2044 6.2493 10.3346L9.30867 14.5774C9.38095 14.6783 9.47622 14.7605 9.5866 14.8172C9.69699 14.8739 9.81929 14.9035 9.94338 14.9035C10.0675 14.9035 10.1898 14.8739 10.3002 14.8172C10.4105 14.7605 10.5058 14.6783 10.5781 14.5774L15.7491 7.40778C15.8448 7.27764 15.7515 7.09595 15.5919 7.09595Z" fill="#00FF57"/>
<path d="M11 0C4.92545 0 0 4.92545 0 11C0 17.0746 4.92545 22 11 22C17.0746 22 22 17.0746 22 11C22 4.92545 17.0746 0 11 0ZM11 20.1339C5.9567 20.1339 1.86607 16.0433 1.86607 11C1.86607 5.9567 5.9567 1.86607 11 1.86607C16.0433 1.86607 20.1339 5.9567 20.1339 11C20.1339 16.0433 16.0433 20.1339 11 20.1339Z" fill="#00FF57"/>
</svg>
