<svg width="50" height="50" viewBox="0 0 50 50" fill="none" xmlns="http://www.w3.org/2000/svg">
<path d="M10.7139 25V39.2857H24.9996L22.0203 36.3064H13.6932V27.9793L10.7139 25Z" fill="white"/>
<path d="M49.554 47.4095L45.2273 43.0012V46.9702H3.01518V40.6834H6.03033V38.2596H3.01518V28.1856H6.03033V25.7618H3.01518V16.0666H6.03033V13.6428H3.01518V5.17456L27.0459 29.1855V24.9135L2.57798 0.448126C2.36711 0.234484 2.09771 0.0887812 1.80411 0.0295952C1.51052 -0.0295908 1.20603 0.000421177 0.929474 0.115805C0.652918 0.231189 0.416823 0.426717 0.25129 0.67746C0.0857562 0.928203 -0.00171589 1.2228 2.55036e-05 1.52369V48.4851C2.55036e-05 48.8869 0.158859 49.2722 0.441584 49.5563C0.724309 49.8404 1.10777 50 1.5076 50H48.4837C48.7831 50.0017 49.0763 49.9138 49.3258 49.7475C49.5753 49.5812 49.7699 49.3439 49.8848 49.066C49.9996 48.7881 50.0294 48.4822 49.9705 48.1871C49.9116 47.8921 49.7666 47.6214 49.554 47.4095Z" fill="white"/>
<path d="M33.0355 44.0477H39.5831C40.4514 44.0477 41.2841 43.7262 41.8981 43.154C42.512 42.5818 42.857 41.8057 42.857 40.9964V11.5511L39.0921 5.09749C38.8009 4.62731 38.3804 4.23805 37.874 3.96986C37.3676 3.70168 36.7935 3.56427 36.2111 3.57183C35.6155 3.57623 35.0325 3.732 34.5248 4.02235C34.0172 4.31269 33.6041 4.72662 33.3302 5.21955L29.7617 11.5816V40.9964C29.7617 41.8057 30.1066 42.5818 30.7206 43.154C31.3346 43.7262 32.1673 44.0477 33.0355 44.0477ZM33.0355 12.3139L36.2111 6.56213L39.5831 12.3291V34.8937H33.0355V12.3139ZM33.0355 37.3806H39.5831V41.1032H33.0355V37.3806Z" fill="white"/>
</svg>
