<svg width="145" height="132" viewBox="0 0 145 132" fill="none" xmlns="http://www.w3.org/2000/svg">
<path d="M6.38646 96.4226C9.55124 96.5096 11.1336 97.4275 11.1336 99.1761C11.0969 99.9449 10.8892 100.7 10.5227 101.396C10.9354 99.9925 11.569 98.6478 12.4044 97.4021C12.6077 97.0391 12.9157 96.7309 13.2969 96.509C13.678 96.2872 14.1185 96.1596 14.5733 96.1396C14.7398 96.1408 14.9056 96.1573 15.0683 96.1885C18.673 96.8959 20.4752 98.4941 20.4752 100.983C20.4752 101.223 20.4568 101.463 20.4202 101.701C21.6422 97.9789 23.1737 96.116 25.0147 96.1123H25.1064C27.2227 96.4581 29.1645 97.3848 30.66 98.7625C31.5557 99.6596 32.0322 100.828 31.9919 102.028C31.988 102.689 31.8916 103.347 31.7047 103.987L26.646 118.184C22.9802 116.98 21.1473 115.177 21.1473 112.775C21.1507 112.245 21.2266 111.717 21.3733 111.203L25.4851 100.352C25.4945 100.283 25.4945 100.213 25.4851 100.145C25.484 99.9999 25.4453 99.8574 25.3722 99.7281C25.2991 99.5988 25.1935 99.4863 25.0636 99.3992C24.7391 99.1745 24.357 99.0249 23.9517 98.9639L16.4856 118.222C14.8 117.511 13.3013 116.491 12.0867 115.229C11.4211 114.523 11.0614 113.627 11.0725 112.704C11.0787 112.226 11.1568 111.75 11.3047 111.29L15.1537 100.645C15.1617 100.569 15.1617 100.493 15.1537 100.417C15.1462 100.271 15.0954 100.13 15.0063 100.007C14.9171 99.8849 14.793 99.7858 14.6466 99.7202C14.2724 99.5203 13.8569 99.3888 13.4248 99.3339L6.33147 118.195C4.07092 117.47 2.4987 116.456 1.61484 115.153C1.17998 114.481 0.968115 113.713 1.00388 112.939C1.05047 111.729 1.32303 110.536 1.81035 109.407L6.38646 96.4226Z" fill="#C23334" stroke="white" stroke-width="0.38" stroke-miterlimit="10"/>
<path d="M51.8361 99.3072C48.0312 100.206 44.6434 102.155 42.1585 104.874C39.6251 107.624 38.2727 110.485 38.1017 113.456C38.1017 113.869 38.2056 114.109 38.4194 114.18C38.5667 114.236 38.7236 114.271 38.8837 114.283C38.9936 114.276 39.1009 114.25 39.1995 114.206C39.2981 114.162 39.3859 114.101 39.458 114.027C42.9354 110.053 46.1426 105.897 49.0624 101.582C50.8382 102.282 52.0438 103.028 52.6793 103.818C53.2518 104.459 53.5851 105.243 53.6323 106.06C53.6141 106.708 53.4587 107.347 53.1742 107.943L49.2395 118.201L47.4066 117.222L47.0828 117.015C46.4881 116.694 45.9558 116.29 45.5066 115.818C45.1205 115.361 44.9221 114.8 44.9444 114.229C44.9355 114.074 44.9355 113.92 44.9444 113.766C45.229 112.481 45.7469 111.246 46.478 110.109L42.9527 115.633C41.7308 117.265 40.6982 118.076 39.7696 118.12L38.2667 118.185C36.5885 118.185 35.0468 117.334 33.6416 115.633C32.9433 114.324 32.5881 112.891 32.603 111.442C32.6485 109.574 33.0792 107.73 33.8738 106.001C35.2469 102.503 37.842 99.4899 41.2787 97.4025C42.8091 96.5539 44.5659 96.0844 46.3679 96.0421C46.7363 96.0404 47.1042 96.0659 47.4677 96.1183C49.4717 96.3904 50.9278 97.4533 51.8361 99.3072Z" fill="#C23334" stroke="white" stroke-width="0.38" stroke-miterlimit="10"/>
<path d="M75.6998 92.1451H75.932C76.3288 92.1253 76.7201 92.2356 77.0318 92.4554C77.1538 92.5384 77.2525 92.6454 77.3204 92.7682C77.3882 92.8909 77.4232 93.026 77.4228 93.1628C77.418 93.2866 77.3693 93.4059 77.2837 93.5037C77.198 93.6015 77.0799 93.6725 76.9463 93.7069L68.0078 94.7953L61.7271 113.015L64.8797 108.558C64.9484 108.489 65.0334 108.435 65.1285 108.399C65.2237 108.363 65.3265 108.347 65.4296 108.351C65.6071 108.365 65.7817 108.4 65.9489 108.454C66.2624 108.566 66.5338 108.754 66.731 108.998C66.8873 109.147 66.9802 109.34 66.9936 109.543C66.9917 109.666 66.9627 109.788 66.9082 109.902L62.1609 117.09C61.9274 117.403 61.614 117.661 61.2466 117.845C60.879 118.028 60.468 118.132 60.047 118.146H59.2528C58.7823 118.146 58.0736 117.754 57.1266 117.014C56.222 116.466 55.4951 115.715 55.0187 114.837C54.7477 114.367 54.6173 113.842 54.64 113.314C54.7462 111.693 55.1593 110.1 55.8619 108.601C56.1125 107.916 56.6622 106.343 57.5237 103.899C58.3852 101.456 59.32 98.7243 60.3464 95.7367L59.0145 95.8945C58.2043 95.9912 57.3881 96.0421 56.5706 96.0469C54.1268 96.0469 52.8682 95.3885 52.8682 94.0607C52.9053 93.4165 53.0925 92.7864 53.418 92.2104C55.8851 92.5556 58.381 92.7103 60.8779 92.673H61.3728C62.1589 90.3366 62.8105 88.3268 63.3279 86.6434C63.6804 85.6141 63.9458 84.5627 64.1221 83.498C67.7879 83.9987 69.6208 85.673 69.6208 88.5208C69.592 89.6153 69.3862 90.7003 69.0098 91.7424L68.7472 92.4934C71.028 92.3809 73.3456 92.2648 75.6998 92.1451Z" fill="#C23334" stroke="white" stroke-width="0.38" stroke-miterlimit="10"/>
<path d="M88.518 99.3342C84.6341 100.298 81.178 102.305 78.6204 105.081C76.0177 107.878 74.7164 110.417 74.7164 112.699C74.7159 112.967 74.7363 113.234 74.7774 113.499C74.9669 114.272 75.6878 114.658 76.9465 114.658C77.4419 114.656 77.9363 114.617 78.4249 114.544C80.6081 114.163 83.3269 112.531 86.5813 109.646C86.6424 109.646 86.679 109.782 86.6974 110.055V110.234C86.6907 110.624 86.6519 111.014 86.5813 111.399C86.4992 111.973 86.3497 112.539 86.1353 113.086C85.9271 113.635 85.6082 114.146 85.1944 114.593C84.2147 115.795 82.8557 116.71 81.2904 117.221C79.6626 117.846 77.9124 118.179 76.14 118.201C75.7734 118.201 75.4068 118.201 75.0402 118.147C74.0824 118.098 73.1517 117.846 72.3258 117.412C71.4998 116.977 70.8028 116.373 70.2931 115.649C69.5936 114.327 69.2386 112.882 69.2544 111.42C69.2998 109.552 69.7306 107.708 70.5252 105.979C71.9131 102.5 74.5062 99.5044 77.93 97.4241C79.4655 96.5838 81.2238 96.1218 83.0255 96.0854C83.3937 96.0865 83.7613 96.112 84.1253 96.1616C86.1455 96.4228 87.6098 97.4803 88.518 99.3342Z" fill="#C23334" stroke="white" stroke-width="0.38" stroke-miterlimit="10"/>
<path d="M111.252 98.9966C111.622 99.5678 111.804 100.22 111.777 100.879C111.716 101.861 111.531 102.834 111.228 103.78C110.699 105.52 110.071 107.234 109.346 108.917C108.613 110.651 107.986 112.327 107.464 113.945C107.084 115.074 106.879 116.244 106.853 117.423C106.853 117.646 106.853 117.858 106.853 118.065C104.369 117.586 102.556 116.71 101.416 115.436C100.819 114.743 100.51 113.888 100.542 113.015C100.586 111.926 100.851 110.853 101.324 109.848L105.088 100.749L96.4118 110.735L93.8702 118.212C91.8602 117.608 90.406 116.786 89.5019 115.736C89.0478 115.099 88.8337 114.35 88.8909 113.597C88.9414 112.343 89.1946 111.102 89.6423 109.913C90.1026 108.607 91.0517 105.859 92.4895 101.668C93.9273 97.4783 95.3019 93.3207 96.6135 89.1959C97.9209 85.071 98.6153 82.4516 98.6969 81.3379C102.363 81.8349 104.195 83.5092 104.195 86.3607C104.167 87.4551 103.961 88.5402 103.585 89.5822L99.2406 102.414L103.756 97.1572C104.025 96.8264 104.378 96.5559 104.785 96.367C105.192 96.1781 105.643 96.0761 106.102 96.0689C106.771 96.1315 107.424 96.2876 108.038 96.5315C108.947 96.8398 110.018 97.6615 111.252 98.9966Z" fill="#C23334" stroke="white" stroke-width="0.38" stroke-miterlimit="10"/>
<path d="M137.687 84.6738C137.82 85.0396 137.888 85.4214 137.889 85.8057C137.865 86.3299 137.75 86.8476 137.547 87.3403C137.407 87.6664 137.192 87.9634 136.918 88.2132C136.644 88.4631 136.315 88.6604 135.952 88.7933C135.594 88.9524 135.198 89.0326 134.798 89.0273C134.134 89.0108 133.483 88.8698 132.885 88.6137C132.383 88.3217 132.005 87.8861 131.816 87.3784C131.685 87.101 131.616 86.8033 131.615 86.5023C131.617 86.1739 131.697 85.8497 131.846 85.55C131.97 85.3433 132.038 85.1144 132.049 84.8806C132.036 84.6917 131.982 84.5068 131.89 84.3365C131.738 84.0824 131.485 83.8882 131.18 83.7923C131.006 83.7289 130.82 83.6939 130.631 83.6889C130.454 83.689 130.278 83.7166 130.111 83.7705C128.858 84.3608 127.89 85.3406 127.393 86.524C126.949 87.3797 126.589 88.2683 126.317 89.1797L125.248 92.2978C126.931 92.2107 128.648 92.1074 130.398 91.9876H130.569C130.734 91.9781 130.899 92.001 131.052 92.0546C131.205 92.1081 131.342 92.1913 131.455 92.2978C131.652 92.4963 131.76 92.7516 131.761 93.0161C131.77 93.1309 131.739 93.2453 131.671 93.3431C131.603 93.4409 131.502 93.5169 131.383 93.5603L124.466 94.616L116.396 118.195C114.741 117.778 113.256 116.945 112.119 115.796C111.606 115.141 111.361 114.35 111.422 113.554C111.461 112.446 111.667 111.348 112.033 110.288L117.178 95.7316C116.593 95.8122 116.004 95.854 115.411 95.8568C113.453 95.8568 112.471 95.1965 112.467 93.8759C112.491 93.2398 112.639 92.6122 112.901 92.0203C114.679 92.346 116.493 92.4921 118.308 92.4557L120.19 87.1226C121.538 84.3908 123.234 82.664 125.278 81.942C125.935 81.6858 126.625 81.503 127.332 81.3978C128.156 81.2774 128.99 81.2173 129.824 81.2183C130.68 81.2194 131.532 81.3071 132.366 81.4795C133.209 81.6452 134.029 81.8953 134.81 82.225C136.365 82.9433 137.325 83.7596 137.687 84.6738Z" fill="#C23334" stroke="white" stroke-width="0.38" stroke-miterlimit="10"/>
<path d="M122.739 127.495C122.934 127.495 123.123 127.522 123.318 127.522C124.656 127.529 125.978 127.287 127.205 126.812C128.431 126.337 129.531 125.639 130.436 124.764C132.659 122.675 134.429 120.238 135.654 117.575C136.87 115.102 137.835 112.538 138.538 109.913C138.978 108.396 139.268 106.849 139.406 105.287V105.081C138.224 108.273 137.075 110.609 135.959 112.09C134.534 113.881 132.906 115.539 131.103 117.036C130.379 117.699 129.39 118.078 128.354 118.092C127.882 118.087 127.414 118.018 126.966 117.885C125.297 117.374 123.829 116.444 122.739 115.208C122.369 114.627 122.189 113.965 122.219 113.298C122.236 112.575 122.353 111.856 122.568 111.159C123.133 109.169 123.829 107.21 124.651 105.293C125.384 103.54 125.983 101.935 126.483 100.471C126.906 99.2774 127.145 98.0381 127.193 96.7871C127.193 96.564 127.193 96.3518 127.162 96.145C129.63 96.6058 131.259 97.3132 132.049 98.2673C132.779 99.0688 133.195 100.06 133.235 101.092C133.191 102.215 132.917 103.321 132.428 104.357L128.408 114.587C130.446 112.854 132.221 110.891 133.687 108.748C135.32 106.176 136.728 103.494 137.897 100.727C138.041 100.526 138.243 100.363 138.481 100.255C138.719 100.146 138.986 100.095 139.253 100.107H139.399C142.466 100.245 144 102.314 144 106.316C144 109.907 142.778 115.044 140.334 121.727C138.33 126.363 136.293 129.068 134.224 129.841C132.155 130.613 130.668 131 129.765 131C127.377 131 125.036 129.832 122.739 127.495Z" fill="#C23334" stroke="white" stroke-width="0.38" stroke-miterlimit="10"/>
<path d="M101.705 11.8758C102.158 9.35709 102.259 3.70691 100.561 0.0170898C98.8652 2.06979 96.937 3.74889 94.3474 4.44991C92.0583 5.06699 89.6094 5.18452 87.4558 6.23815C86.4028 6.74668 85.4652 7.46058 84.6969 8.33703C83.3402 9.87558 82.5951 11.8516 82.6036 13.8948C82.6713 16.0353 83.5402 18.0743 85.0408 19.6164C84.7858 19.0503 84.6821 18.429 84.7381 17.8118C84.7942 17.1946 85.0091 16.602 85.3625 16.0902C86.5023 14.4112 90.7111 13.282 91.4107 13.7521C92.2065 14.2894 92.5758 18.5207 91.4361 20.1831C91.0932 20.6847 90.6286 21.0933 90.0846 21.3712C89.5417 21.6491 88.9364 21.7876 88.3247 21.774C89.0486 22.0408 89.8031 22.2172 90.5714 22.2987C93.7749 22.6471 99.8949 21.879 101.705 11.8589" fill="#C23334"/>
<path d="M100.559 0.0170898C99.1015 1.78854 97.4569 3.28295 95.3636 4.1099C97.3087 8.52593 97.5289 16.2162 95.1086 19.3268C92.4692 22.7143 88.3281 21.7909 88.3281 21.7909C89.052 22.0577 89.8065 22.234 90.5738 22.3156C93.7783 22.664 99.8984 21.8958 101.708 11.8758C102.161 9.35709 102.263 3.70691 100.563 0.0170898" fill="#C23334"/>
<path d="M85.0197 19.5786C84.9551 19.4272 84.9011 19.2715 84.8577 19.1126V19.079C84.8038 18.8714 84.7678 18.6592 84.7519 18.4452C84.7498 18.4327 84.7498 18.42 84.7519 18.4075C84.6905 17.5923 84.9128 16.7809 85.3795 16.1071C86.4684 14.5161 90.3587 13.4037 91.3122 13.7185C94.3643 12.9 97.4916 12.1947 99.3986 9.42424C102.413 5.0376 101.018 1.05393 100.671 0.189198L100.561 0.0170898C98.8652 2.06979 96.937 3.74889 94.3474 4.44991C92.0583 5.06699 89.6094 5.18452 87.4558 6.23815C86.4028 6.74668 85.4652 7.46058 84.6969 8.33703C83.3402 9.87558 82.5951 11.8516 82.6036 13.8948C82.6713 16.0353 83.5402 18.0743 85.0408 19.6164L85.0197 19.5786Z" fill="#C23334"/>
<path d="M87.4558 6.23786C86.4028 6.74639 85.4652 7.46028 84.6969 8.33673C83.3402 9.87528 82.5951 11.8513 82.6036 13.8946C82.6681 15.9397 83.4661 17.8953 84.8535 19.4105C84.3074 18.743 82.883 16.451 85.244 12.7234C88.0876 8.24018 93.0753 10.3894 96.3179 8.0261C99.988 5.34794 100.556 0 100.556 0C98.861 2.05271 96.9328 3.7318 94.3431 4.43283C92.0541 5.04989 89.6052 5.16744 87.4516 6.22107" fill="#C23334"/>
<path d="M76.9881 6.65325C75.4081 5.64999 71.6226 4.00866 68.6562 4.10941C69.5717 5.78851 70.1654 7.55156 69.9283 9.46154C69.7114 11.1406 69.106 12.8197 69.2203 14.5282C69.2701 15.3716 69.4934 16.1959 69.8775 16.9503C70.5379 18.2805 71.6671 19.3255 73.0513 19.8887C74.5149 20.4469 76.1352 20.4469 77.5988 19.8887C77.1448 19.8993 76.695 19.7949 76.2939 19.5856C75.8918 19.3763 75.5499 19.0689 75.3012 18.6924C74.4969 17.4708 74.8991 14.3604 75.4081 14.0287C75.9923 13.6509 78.9587 14.587 79.764 15.8044C80.0085 16.1738 80.1545 16.5977 80.1905 17.0376C80.2276 17.4774 80.1524 17.9193 79.9725 18.3229C80.3525 17.918 80.6816 17.4682 80.9514 16.9839C82.0785 14.9521 83.2776 10.6873 77.0009 6.68683" fill="#C23334"/>
<path d="M68.6559 4.10941C69.4814 5.50119 69.9312 7.07977 69.9619 8.69336C73.4923 8.63459 78.7467 10.6327 80.1754 13.1052C81.731 15.8002 79.951 18.2895 79.951 18.2895C80.3309 17.8844 80.6601 17.4346 80.9299 16.9503C82.057 14.9187 83.256 10.6537 76.9793 6.65325C75.3993 5.64999 71.6149 4.00866 68.6475 4.10941" fill="#C23334"/>
<path d="M77.5395 19.8636C77.4188 19.8671 77.2982 19.8601 77.1786 19.8426H77.1659C77.0114 19.8215 76.858 19.7878 76.7087 19.7419H76.6833C76.1161 19.5529 75.6293 19.1804 75.3012 18.6841C74.534 17.5171 74.8779 14.629 75.3435 14.0665C75.6409 11.8165 76.0388 9.54555 74.6948 7.50964C74.0768 6.50133 73.2143 5.66162 72.1856 5.06649C71.157 4.47135 69.995 4.13954 68.8044 4.10107H68.6689C69.5844 5.78016 70.178 7.54323 69.9399 9.45321C69.724 11.1323 69.1176 12.8115 69.233 14.5198C69.2817 15.3632 69.506 16.1876 69.8891 16.942C70.5506 18.2721 71.6787 19.3171 73.064 19.8805C74.5276 20.4385 76.1478 20.4385 77.6115 19.8805L77.5395 19.8636Z" fill="#C23334"/>
<path d="M69.2063 14.5283C69.2561 15.3716 69.4793 16.1959 69.8624 16.9504C70.5249 18.2793 71.6541 19.3239 73.0373 19.8888C74.4385 20.4147 75.9825 20.4296 77.3943 19.9308C76.7879 20.1113 74.8512 20.4135 72.9823 17.8319C70.744 14.6963 73.5876 11.9887 72.8976 9.18037C72.1092 5.99848 68.6592 4.14307 68.6592 4.14307C69.5746 5.82217 70.1683 7.58522 69.9302 9.4952C69.7143 11.1743 69.109 12.8534 69.2233 14.5619" fill="#C23334"/>
<path d="M55.1577 57.4837C53.1554 57.4931 51.1817 57.0102 49.4133 56.0779C47.6459 55.1457 46.139 53.7934 45.0288 52.1423C43.9187 50.4913 43.2403 48.5931 43.053 46.6181C42.8657 44.6431 43.1768 42.6529 43.9578 40.8262C44.7388 38.9996 45.9654 37.3935 47.5274 36.152C49.0895 34.9105 50.9383 34.0724 52.9077 33.713C54.8772 33.3536 56.906 33.484 58.8119 34.0927C60.7179 34.7013 62.4419 35.769 63.8293 37.2002C64.4939 37.8928 65.0579 38.4343 64.1467 39.4796C63.9541 39.7024 63.8356 39.9778 63.8049 40.2693C63.7732 40.5608 63.8324 40.8548 63.9743 41.1122C64.1161 41.3696 64.333 41.5785 64.5965 41.7112C64.86 41.844 65.1585 41.8942 65.4516 41.8555C66.5586 41.7673 66.7957 42.2752 66.9607 43.1147C67.3068 44.8497 67.2624 46.6387 66.8306 48.3548C66.3988 50.0707 65.5913 51.6715 64.4642 53.0432C63.3372 54.4149 61.9191 55.5239 60.3105 56.2914C58.7029 57.0588 56.943 57.4659 55.1577 57.4837ZM54.637 37.4563C54.492 37.7332 54.6709 37.8088 54.7598 37.876C55.2254 38.0275 55.7302 38.0142 56.1874 37.8383C56.5303 37.7302 56.8446 37.5474 57.106 37.3033C57.3674 37.0592 57.5706 36.76 57.7007 36.4277C57.942 35.521 57.2298 34.9081 56.2805 34.8116C53.3522 34.5135 50.661 35.1852 48.4111 37.091C48.3285 37.1619 48.2587 37.2455 48.2037 37.3386C48.0904 37.5326 48.0365 37.7543 48.047 37.9778C48.0576 38.2013 48.1317 38.4171 48.2619 38.6C48.392 38.7829 48.572 38.9253 48.7804 39.0105C48.9889 39.0956 49.2186 39.12 49.4408 39.0807C49.5509 39.0662 49.6599 39.0453 49.7668 39.0178C51.4113 38.5812 53.0093 37.9893 54.637 37.4563Z" fill="#C23334"/>
<path d="M88.7902 48.2156C88.2515 47.5524 87.8409 46.9941 86.7985 47.7035C86.5593 47.8764 86.2736 47.9733 85.9773 47.9817C85.682 47.9899 85.3899 47.9092 85.1423 47.7499C84.8936 47.5907 84.6999 47.3607 84.5856 47.09C84.4724 46.8194 84.4438 46.521 84.5052 46.2344C84.7518 44.9498 84.1157 44.6727 83.1495 44.3579C81.015 43.6646 78.7291 43.574 76.5458 44.0964C74.3626 44.6188 72.3698 45.7335 70.7909 47.3153C69.2119 48.8971 68.1092 50.8835 67.6065 53.0514C67.1048 55.2194 67.2223 57.4833 67.9462 59.5888C68.67 61.6944 69.9728 63.5584 71.7073 64.9716C73.4408 66.3849 75.5383 67.2913 77.7639 67.5894C79.9895 67.8875 82.2553 67.5652 84.3062 66.6589C86.3572 65.7527 88.1119 64.2982 89.3754 62.4586C90.8189 60.3314 91.5407 57.8036 91.4359 55.2424C91.3301 52.6811 90.4041 50.2198 88.7902 48.2156ZM81.7589 48.1233C81.632 48.4566 81.4298 48.7572 81.1684 49.0022C80.907 49.2471 80.5938 49.4304 80.2509 49.538C79.7926 49.7102 79.2889 49.7235 78.8222 49.5757C78.7333 49.4959 78.5555 49.4162 78.6994 49.156C77.076 49.6807 75.4695 50.281 73.8303 50.7175C73.7223 50.7465 73.6133 50.7676 73.5033 50.7805C73.281 50.8201 73.0524 50.7961 72.8439 50.7115C72.6355 50.6269 72.4545 50.4851 72.3243 50.3027C72.1942 50.1203 72.119 49.9049 72.1084 49.6818C72.0968 49.4586 72.1508 49.2369 72.2619 49.0426C72.3201 48.9501 72.391 48.8667 72.4735 48.795C74.7203 46.885 77.4115 46.2175 80.3398 46.5156C81.2933 46.6121 82.0055 47.2166 81.7589 48.1233Z" fill="#C23334"/>
<path d="M87.2615 36.1177C87.2615 30.9881 85.8201 26.1816 83.8072 21.5138C83.6432 21.2213 83.5205 20.9077 83.4421 20.5819C83.4284 20.4519 83.4453 20.3204 83.4919 20.1979C83.5384 20.0754 83.6125 19.9655 83.7099 19.8766C83.8379 19.8373 83.9734 19.8266 84.1057 19.8455C84.238 19.8644 84.365 19.9123 84.4771 19.9858C84.7036 20.1684 84.8803 20.4034 84.9936 20.67C88.3039 27.4703 90.1601 34.5226 88.5113 42.1079C88.1896 43.5098 87.7208 44.8745 87.1123 46.1798C86.9048 46.6415 86.1715 46.8724 85.6804 47.2082C85.5873 46.6373 85.256 45.9489 85.4391 45.529C86.6943 42.5497 87.3144 39.3456 87.2615 36.1177Z" fill="#C23334"/>
<path d="M80.7339 21.6057C80.7085 24.3846 79.6618 26.8403 78.2331 29.1617C75.2752 33.9681 71.2315 37.704 66.4724 40.7349C66.0491 40.9952 65.3199 40.7349 64.7305 40.7349C64.9929 40.206 65.1125 39.4756 65.5443 39.1775C69.8505 36.3188 73.745 33.0488 76.5166 28.637C78.0342 26.2148 79.2205 23.6626 79.4068 20.7409C79.4322 20.2877 79.7973 19.8552 80.0047 19.4146C80.2682 19.8504 80.5042 20.3018 80.7127 20.7662C80.7646 21.0431 80.7709 21.3265 80.7339 21.6057Z" fill="#C23334"/>
</svg>
