<svg width="17" height="18" viewBox="0 0 17 18" fill="none" xmlns="http://www.w3.org/2000/svg">
<path d="M16.2584 3.47806L13.9953 1.20144C13.7191 0.923286 13.3493 0.76709 12.9583 0.76709C12.5673 0.76709 12.1976 0.921147 11.9213 1.20144L9.48392 3.65138C9.20766 3.92953 9.05254 4.30398 9.05254 4.69768C9.05254 5.09352 9.20554 5.46368 9.48392 5.74398L11.3879 7.66327C10.9542 8.68087 10.331 9.60545 9.55192 10.3871C8.77204 11.1766 7.86041 11.7993 6.8489 12.24L4.9449 10.3208C4.66865 10.0426 4.29889 9.8864 3.90789 9.8864C3.71503 9.88568 3.52397 9.92373 3.3459 9.99831C3.16783 10.0729 3.00634 10.1825 2.87089 10.3208L0.431377 12.7707C0.155126 13.0488 0 13.4233 0 13.817C0 14.2128 0.153001 14.583 0.431377 14.8633L2.69239 17.1399C3.16414 17.6149 3.81439 17.8867 4.48164 17.8867C4.61977 17.8867 4.75365 17.876 4.88965 17.8524C7.70316 17.386 10.4954 15.8775 12.7501 13.6094C15.0026 11.3371 16.4986 8.52556 16.9661 5.69049C17.0999 4.88597 16.8322 4.05792 16.2584 3.47806ZM15.4594 5.43587C15.0451 7.95855 13.6978 10.4748 11.6684 12.5182C9.63904 14.5616 7.14216 15.9182 4.63677 16.3354C4.32227 16.3889 3.99927 16.2819 3.76977 16.053L1.54913 13.817L3.90364 11.4441L6.4494 14.0117L6.46853 14.031L6.92753 13.8598C8.31926 13.3446 9.58308 12.5308 10.6314 11.4749C11.6797 10.4189 12.4875 9.1461 12.9987 7.74458L13.1687 7.28241L10.6017 4.69982L12.9562 2.32692L15.1768 4.56288C15.4063 4.79396 15.5126 5.1192 15.4594 5.43587Z" fill="white"/>
</svg>
