<svg width="41" height="64" viewBox="0 0 41 64" fill="none" xmlns="http://www.w3.org/2000/svg">
<path d="M36.7949 0H4.20513C3.09024 0.00125213 2.02138 0.444693 1.23304 1.23304C0.444694 2.02138 0.00125213 3.09024 0 4.20513V58.8718C0.00125213 59.9867 0.444694 61.0555 1.23304 61.8439C2.02138 62.6322 3.09024 63.0757 4.20513 63.0769H36.7949C37.9098 63.0757 38.9786 62.6322 39.767 61.8439C40.5553 61.0555 40.9987 59.9867 41 58.8718V4.20513C40.9987 3.09024 40.5553 2.02138 39.767 1.23304C38.9786 0.444693 37.9098 0.00125213 36.7949 0ZM36.7949 4.20513V8.41026H4.20513V4.20513H36.7949ZM36.7949 12.6154L36.7963 42.0513H4.20513V12.6154H36.7949ZM36.7949 58.8718H4.20513V46.2564H36.797V58.8718H36.7949Z" fill="white"/>
<path d="M18.3975 50.4614H22.6026V54.6666H18.3975V50.4614Z" fill="white"/>
</svg>
