<svg width="18" height="14" viewBox="0 0 18 14" fill="none" xmlns="http://www.w3.org/2000/svg">
<path d="M16.7143 0.781189H1.28571C0.944722 0.781189 0.617695 0.919116 0.376577 1.16463C0.135459 1.41014 0 1.74313 0 2.09033V12.5635C0 12.9107 0.135459 13.2437 0.376577 13.4892C0.617695 13.7347 0.944722 13.8726 1.28571 13.8726H16.7143C17.0553 13.8726 17.3823 13.7347 17.6234 13.4892C17.8645 13.2437 18 12.9107 18 12.5635V2.09033C18 1.74313 17.8645 1.41014 17.6234 1.16463C17.3823 0.919116 17.0553 0.781189 16.7143 0.781189ZM15.3 2.09033L9 6.52833L2.7 2.09033H15.3ZM1.28571 12.5635V2.68599L8.63357 7.86365C8.74118 7.93967 8.86903 7.9804 9 7.9804C9.13097 7.9804 9.25882 7.93967 9.36643 7.86365L16.7143 2.68599V12.5635H1.28571Z" fill="white"/>
</svg>
