<svg width="162" height="68" viewBox="0 0 162 68" fill="none" xmlns="http://www.w3.org/2000/svg">
<g clip-path="url(#clip0)">
<path d="M14.0557 14.4394C14.0557 9.44081 16.2433 6.52495 19.7617 4.3089C24.2943 1.39155 29.628 -0.0248428 35.0082 0.260011C39.0091 0.468287 42.5775 2.00953 44.291 6.15838C45.7715 9.74075 45.4305 13.373 44.474 16.9887C44.1662 18.1468 43.8418 19.2964 43.4425 20.4378C42.3883 23.5396 41.1609 26.5797 39.7661 29.5436C39.5082 30.0684 39.1422 30.1101 38.6432 29.9351C37.2933 29.4962 35.8669 29.3435 34.4549 29.487C33.0429 29.6304 31.6762 30.0668 30.4418 30.7682C29.7866 31.081 29.1531 31.4372 28.5453 31.8346C27.0814 32.8177 26.4409 31.3931 25.709 30.66C23.4215 28.4106 21.1341 26.1529 19.0547 23.7285C16.5593 20.871 13.7729 18.1051 14.064 14.4561" fill="#283D53"/>
<path d="M54.2581 40.5891H49.2674C49.1086 40.6117 48.9469 40.6 48.793 40.5548C48.6391 40.5095 48.4967 40.4317 48.3754 40.3268C48.254 40.2218 48.1565 40.092 48.0894 39.9461C48.0223 39.8002 47.9872 39.6417 47.9864 39.481C47.7259 37.8704 47.1289 36.3328 46.2346 34.9691C45.3401 33.6052 44.1685 32.4459 42.7961 31.5666C42.0974 31.075 41.3987 30.6502 42.1889 29.4088C43.1621 27.8759 43.578 26.0015 44.3515 24.3353C45.028 22.9429 45.7748 21.586 46.589 20.2697C47.2685 19.0191 48.0328 17.8166 48.8764 16.6707C49.5745 15.878 50.3584 15.1655 51.2137 14.5463C52.2517 13.7081 53.4568 13.1019 54.748 12.7686C56.0391 12.4352 57.3865 12.3824 58.6997 12.6135C60.4857 12.9473 62.1426 13.7756 63.4825 15.0045C65.0512 16.4476 66.4018 18.1119 67.4918 19.9448C68.3018 21.2603 68.9734 22.6562 69.4963 24.1103C70.6606 26.9012 70.6693 29.8337 70.428 32.7912C70.3084 33.823 69.9756 34.8186 69.452 35.715C68.9277 36.6113 68.2232 37.3888 67.3836 37.9982C64.8051 40.1558 61.5611 40.2975 58.4669 40.5474C57.0695 40.6557 55.6472 40.5474 54.2331 40.5474" fill="#AAB81E"/>
<path d="M18.696 43.1803C19.6775 43.1803 20.659 43.1803 21.6322 43.1803C21.8662 43.1531 22.1033 43.1761 22.3277 43.2476C22.5521 43.319 22.7589 43.4375 22.9343 43.595C23.1096 43.7525 23.2496 43.9455 23.3449 44.1613C23.4402 44.377 23.4887 44.6106 23.487 44.8465C23.7116 46.8126 24.8429 48.2955 25.9824 49.8451C26.9631 51.19 28.2451 52.2857 29.7255 53.0442C30.7176 53.6202 31.7839 54.0575 32.8945 54.3439C34.9324 54.7354 36.9037 54.4022 38.9 54.2439C39.7317 54.1772 40.0229 55.077 40.131 55.5602C40.6218 57.7596 41.6698 59.884 41.1791 62.225C40.5701 63.5879 39.4969 64.6895 38.1514 65.3325C34.6163 66.1656 31.0812 65.5657 27.621 65.0825C24.9572 64.6745 22.3642 63.892 19.9187 62.7582C18.2711 62.0431 16.6781 61.2077 15.1526 60.2589C13.7504 59.3454 12.4261 58.3171 11.1933 57.1847C10.4085 56.4372 9.71597 55.5981 9.13055 54.6854C7.75812 52.6443 6.63519 50.5199 6.78491 47.929C6.82316 47.1626 7.07799 46.4229 7.51976 45.796C7.96153 45.1692 8.57209 44.681 9.28025 44.3882C12.3412 43.0969 15.5435 43.4136 18.696 43.1636" fill="#92975A"/>
<path d="M17.1101 40.7832C14.5129 40.9182 11.9091 40.8403 9.32461 40.5499C6.14719 40 3.11951 38.9337 1.23137 36.0761C0.580817 35.1279 0.180236 34.0303 0.0668728 32.8854C-0.160585 30.612 0.194398 28.3182 1.09828 26.2205C2.12137 23.9712 3.45223 21.9217 6.20542 21.1803C9.24139 20.3471 11.6952 21.4885 14.0824 22.9797C18.3494 25.654 21.4852 29.6446 25.2366 32.877C26.0684 33.6101 25.902 34.4099 25.2782 35.1681C24.2735 36.4387 23.6529 37.9709 23.4899 39.5835C23.3651 40.5082 22.8327 40.7832 22.0259 40.7915C20.3623 40.7915 18.7487 40.7915 17.1101 40.7915" fill="#5A6D67"/>
<path d="M55.2053 42.9522C56.8689 42.9522 58.5325 43.0105 60.1961 42.9522C61.9162 42.9584 63.5784 43.5753 64.8873 44.6933C66.318 45.7347 66.4095 49.1921 65.5444 50.7084C63.8808 53.5576 61.3855 55.4321 58.807 57.2399C56.9986 58.4573 55.0698 59.4846 53.051 60.3057C51.5171 60.8881 49.892 61.1928 48.2517 61.2055C46.3552 61.3387 45.3071 60.1141 44.2175 58.8728C42.9865 57.4732 42.5539 55.6403 41.7221 54.0324C41.3978 53.4159 41.5724 52.8744 42.2878 52.4496C43.8667 51.5164 45.1809 50.1943 46.1057 48.6089C47.0534 47.1699 47.6751 45.5406 47.9273 43.8353C48.0021 43.2354 48.5511 42.9438 49.1999 42.9438C51.1795 42.9438 53.1591 42.9438 55.1388 42.9438" fill="#E68B15"/>
<path d="M45.8825 5.5347C45.8775 4.09834 46.4331 2.7169 47.4307 1.68502C48.4283 0.65314 49.7889 0.0525063 51.2225 0.0112273C51.9665 -0.0360068 52.7125 0.0661138 53.4167 0.311595C54.1209 0.557076 54.7689 0.940972 55.323 1.44074C55.8769 1.94052 56.3257 2.5461 56.6428 3.22195C56.9599 3.89779 57.139 4.63028 57.1697 5.37641C57.2067 6.13563 57.0906 6.89453 56.8283 7.60779C56.5659 8.32111 56.1627 8.97405 55.6428 9.52781C55.1228 10.0815 54.4968 10.5246 53.8021 10.8306C53.1074 11.1366 52.3582 11.2992 51.5994 11.3087C50.8405 11.3182 50.0875 11.1745 49.3854 10.886C48.6832 10.5976 48.0463 10.1703 47.5127 9.62981C46.9791 9.08931 46.5597 8.44661 46.2796 7.74015C45.9995 7.03369 45.8644 6.27796 45.8825 5.51804" fill="#283D53"/>
<path d="M47.8883 64.9924C47.8883 65.5868 47.7124 66.168 47.3828 66.6624C47.0532 67.1568 46.5848 67.5421 46.0366 67.7703C45.4883 67.9979 44.885 68.0578 44.3028 67.9427C43.7206 67.8276 43.1855 67.5414 42.7653 67.122C42.345 66.7022 42.0583 66.1671 41.9415 65.5842C41.8247 65.0014 41.883 64.3969 42.109 63.8472C42.335 63.2975 42.7186 62.8273 43.2113 62.4958C43.704 62.1643 44.2837 61.9865 44.8772 61.9849C45.6744 61.9849 46.439 62.3015 47.0034 62.8652C47.5679 63.429 47.8861 64.194 47.8883 64.9924Z" fill="#E68B15"/>
<path d="M75.7491 43.134C75.7491 43.9414 75.5098 44.7306 75.0621 45.4019C74.6144 46.0733 73.9779 46.5965 73.2331 46.9054C72.4883 47.2144 71.6689 47.2952 70.8784 47.1378C70.0879 46.9802 69.3612 46.5914 68.7912 46.0205C68.2212 45.4496 67.8333 44.7222 67.676 43.9304C67.5187 43.1385 67.5994 42.3177 67.9079 41.5718C68.2165 40.8259 68.7388 40.1883 69.4089 39.7398C70.0791 39.2912 70.8676 39.0518 71.6736 39.0518C72.2086 39.0518 72.7383 39.1573 73.2331 39.3625C73.7278 39.5677 74.1768 39.8684 74.5553 40.2474C74.9337 40.6265 75.2342 41.0765 75.4392 41.5718C75.6436 42.0671 75.7491 42.5979 75.7491 43.134Z" fill="#AAB81E"/>
<path d="M92.8429 40.5261C89.2439 40.5261 86.4966 39.5125 84.5997 37.4852C82.7034 35.458 81.7556 32.5811 81.7556 28.8543C81.716 27.1668 81.9983 25.4873 82.5871 23.9057C83.1074 22.5308 83.9214 21.2863 84.9714 20.2589C86.0214 19.2315 87.2831 18.4461 88.6672 17.9573C90.1568 17.4279 91.7284 17.1656 93.3087 17.1825C94.1449 17.1731 94.9798 17.24 95.8039 17.3825C96.4499 17.4969 97.0885 17.6471 97.717 17.8324C98.1929 17.9702 98.6554 18.1515 99.0977 18.3739L99.9299 18.8071L98.607 22.3478C97.885 21.9504 97.1167 21.6426 96.3195 21.4314C95.3199 21.1603 94.2868 21.0313 93.2502 21.0481C92.4584 21.046 91.6712 21.1755 90.9217 21.4314C90.1594 21.6874 89.4671 22.1182 88.9004 22.6894C88.2578 23.3676 87.7644 24.1737 87.4532 25.0554C87.0559 26.2439 86.8697 27.4931 86.904 28.746C86.904 31.2953 87.4028 33.2392 88.401 34.5777C89.4079 35.9357 91.0461 36.6188 93.3336 36.6188C94.44 36.6461 95.5438 36.5113 96.6112 36.2189C97.3258 35.9999 98.0215 35.7212 98.6903 35.3858L99.9715 38.8932C99.0439 39.3565 98.0672 39.7142 97.0602 39.9595C95.6849 40.3297 94.2673 40.5201 92.8429 40.5261Z" fill="black"/>
<path d="M113.463 40.526C109.858 40.526 107.108 39.5124 105.212 37.4852C103.315 35.4579 102.367 32.581 102.367 28.8542C102.327 27.1667 102.61 25.4871 103.198 23.9056C103.734 22.5235 104.556 21.2711 105.61 20.2316C106.66 19.2197 107.914 18.4443 109.287 17.9572C110.774 17.4279 112.342 17.1656 113.92 17.1824C114.742 17.1755 115.564 17.2424 116.374 17.3824C117.022 17.4969 117.664 17.6471 118.295 17.8322C118.771 17.9717 119.232 18.1528 119.676 18.3737L120.508 18.807L119.185 22.3476C118.463 21.9488 117.695 21.641 116.898 21.4313C115.898 21.1602 114.864 21.0312 113.829 21.048C113.037 21.0459 112.25 21.1754 111.499 21.4313C110.737 21.6873 110.045 22.1181 109.478 22.6893C108.835 23.3655 108.344 24.1724 108.04 25.0552C107.635 26.2422 107.446 27.4922 107.482 28.7459C107.482 31.2952 107.984 33.2391 108.987 34.5776C109.986 35.9356 111.633 36.6187 113.912 36.6187C115.018 36.6464 116.122 36.5117 117.189 36.2188C117.905 36.0012 118.601 35.7225 119.269 35.3857L120.616 38.968C119.682 39.4219 118.7 39.7684 117.688 40.0011C116.308 40.3575 114.888 40.5339 113.463 40.526Z" fill="black"/>
<path d="M124.467 40.049V17.6885H139.929V21.3708H129.541V26.3694H138.566V30.0517H129.541V36.3416H140.836V40.0239L124.467 40.049Z" fill="black"/>
<path d="M152.048 36.7997C152.763 36.8166 153.476 36.7381 154.169 36.5664C154.671 36.4533 155.143 36.2315 155.551 35.9165C155.858 35.6694 156.093 35.3444 156.232 34.9752C156.354 34.6329 156.416 34.2721 156.415 33.9088C156.417 33.4572 156.258 33.0199 155.966 32.6758C155.635 32.2976 155.245 31.9767 154.81 31.726C154.31 31.4294 153.787 31.1731 153.246 30.9596C152.664 30.7347 152.09 30.5263 151.516 30.3347C150.742 30.0932 149.944 29.8099 149.12 29.5016C148.324 29.202 147.57 28.8016 146.875 28.3103C146.208 27.8289 145.642 27.2201 145.212 26.5191C144.746 25.7132 144.518 24.7918 144.554 23.8615C144.514 22.9143 144.705 21.9717 145.111 21.1152C145.517 20.2587 146.125 19.5142 146.883 18.9462C148.771 17.6724 151.023 17.0521 153.296 17.18C154.677 17.1601 156.055 17.3169 157.397 17.6466C158.407 17.9076 159.393 18.2589 160.341 18.6963L158.861 22.1287C158.122 21.7882 157.357 21.5096 156.574 21.2956C155.625 21.0417 154.644 20.9211 153.662 20.9373C150.967 20.9373 149.628 21.7704 149.628 23.5033C149.618 23.9187 149.764 24.3228 150.036 24.6363C150.338 24.9724 150.695 25.2542 151.092 25.4694C151.55 25.7387 152.032 25.9646 152.531 26.1443C153.063 26.3359 153.596 26.5108 154.12 26.6858C154.952 26.944 155.783 27.244 156.615 27.5689C157.468 27.8866 158.272 28.3242 159.002 28.8685C159.735 29.4109 160.347 30.1004 160.799 30.8929C161.296 31.8299 161.537 32.8818 161.498 33.9421C161.543 34.8829 161.353 35.82 160.946 36.6693C160.54 37.5186 159.929 38.2533 159.168 38.8074C157.61 39.946 155.253 40.518 152.098 40.5236C150.387 40.5754 148.677 40.3733 147.024 39.9237C146.048 39.6371 145.096 39.2693 144.18 38.8241L145.669 35.2084C146.522 35.6416 147.41 36.0039 148.322 36.2915C149.53 36.6539 150.787 36.8254 152.048 36.7997Z" fill="black"/>
<path d="M81.8721 54.855H82.8118V60.2118C82.7728 60.8362 82.9234 61.4579 83.2447 61.9947C83.4242 62.227 83.6514 62.4179 83.9115 62.5544C84.171 62.691 84.4574 62.77 84.7498 62.7861C84.8607 62.7944 84.9716 62.7944 85.0825 62.7861C85.3883 62.8017 85.6942 62.7534 85.9806 62.6444C86.2669 62.5354 86.5277 62.3681 86.7462 62.1529C86.808 62.0979 86.8638 62.0365 86.9129 61.9697C87.2376 61.4346 87.3888 60.8117 87.3451 60.1869V54.855H88.2936V60.2118C88.344 60.993 88.1424 61.7697 87.7195 62.4279L87.6281 62.5362C87.3545 62.8469 87.0211 63.0993 86.648 63.2782C86.275 63.4572 85.8703 63.559 85.4569 63.5776H85.0744C84.2228 63.6077 83.3919 63.3095 82.754 62.7445L82.5376 62.5112C82.0892 61.9178 81.8573 61.1888 81.8801 60.4451V54.855H81.8721Z" fill="black"/>
<path d="M93.75 63.4443V54.855H95.0225L100.305 61.978V54.855H101.244V63.4443H100.305L94.6897 55.888V63.4443H93.75Z" fill="black"/>
<path d="M106.717 63.4443V54.855H107.657V63.4443H106.717Z" fill="black"/>
<path d="M120.924 61.194H121.972C121.548 61.9556 120.92 62.5837 120.159 63.0075C119.398 63.4314 118.534 63.6342 117.664 63.5934C116.382 63.637 115.131 63.1936 114.162 62.3521C113.716 61.947 113.359 61.455 113.109 60.9063C112.861 60.3576 112.726 59.7638 112.715 59.1612C112.702 58.5612 112.818 57.9653 113.057 57.4147C113.295 56.8639 113.65 56.3713 114.096 55.9704C115.053 55.1057 116.308 54.6459 117.598 54.6874C118.828 54.6456 120.031 55.061 120.975 55.8538C121.377 56.1861 121.703 56.6008 121.931 57.0701H120.875C120.618 56.6761 120.28 56.3411 119.885 56.0871H119.843C119.179 55.6875 118.414 55.4853 117.639 55.5039C116.584 55.4769 115.562 55.8692 114.795 56.5953C114.444 56.9267 114.166 57.3273 113.979 57.7719C113.792 58.2164 113.698 58.6952 113.706 59.1777C113.712 59.6603 113.819 60.1361 114.02 60.575C114.22 61.0138 114.51 61.4062 114.869 61.7272C115.634 62.4345 116.64 62.8221 117.68 62.8102C118.517 62.8301 119.337 62.5788 120.018 62.0938C120.352 61.8281 120.656 61.5263 120.924 61.194Z" fill="black"/>
<path d="M126.192 63.4443L130.235 54.855H131.292L135.35 63.4443H134.311L132.947 60.5534H128.563L127.191 63.4443H126.192ZM128.938 59.7703H132.597L130.767 55.8297L128.938 59.7703Z" fill="black"/>
<path d="M139.979 63.4443V54.855H141.411L144.846 62.1696L148.256 54.855H149.728V63.4443H148.813V55.8297L145.27 63.4776H144.438L140.928 55.8297V63.4776L139.979 63.4443Z" fill="black"/>
<path d="M155.253 63.4437V54.8544H157.856C158.713 54.8025 159.569 54.9598 160.352 55.3126C160.686 55.5001 160.965 55.7733 161.159 56.1041C161.354 56.435 161.457 56.8116 161.458 57.1954C161.458 57.2788 161.458 57.3704 161.458 57.462C161.491 57.8426 161.424 58.2252 161.264 58.5717C161.103 58.9181 160.854 59.2164 160.543 59.4365C159.882 59.8047 159.136 59.9889 158.381 59.9697H156.201V63.4437H155.253ZM156.201 59.1949H157.948C158.564 59.233 159.18 59.1334 159.753 58.9033C159.985 58.7786 160.181 58.5939 160.318 58.3684C160.456 58.1429 160.53 57.8846 160.534 57.6203V57.4954C160.571 57.1795 160.511 56.86 160.362 56.5789C160.214 56.2979 159.984 56.0684 159.703 55.9208C159.008 55.7102 158.281 55.6256 157.557 55.6709H156.226L156.201 59.1949Z" fill="black"/>
<path d="M161.571 47.2236H81.7197V49.0148H161.571V47.2236Z" fill="#E68B15"/>
</g>
<defs>
<clipPath id="clip0">
<rect width="162" height="68" fill="white"/>
</clipPath>
</defs>
</svg>
