<svg width="122" height="30" viewBox="0 0 122 30" fill="none" xmlns="http://www.w3.org/2000/svg">
<path d="M0 0C3.4941 4.24306 8.34097 7.56828 14.0045 9.54612C14.4876 9.7161 15.0517 9.9015 15.6595 10.0591C16.1996 10.2024 16.7497 10.3057 17.3053 10.3682C18.6035 10.4553 19.9073 10.4067 21.1952 10.2229L21.8186 10.158C23.2963 9.99604 24.7833 9.93104 26.2696 9.96333C29.8149 10.0795 33.2882 10.9868 36.4309 12.618C36.5274 12.6614 36.614 12.724 36.6854 12.8019C36.7567 12.8797 36.8112 12.9712 36.8456 13.0706C36.8801 13.1701 36.8937 13.2755 36.8856 13.3804C36.8775 13.4852 36.8479 13.5873 36.7986 13.6804C36.7493 13.7735 36.6813 13.8557 36.5989 13.9219C36.5164 13.9881 36.4212 14.0368 36.3191 14.0653C36.217 14.0937 36.1101 14.1011 36.005 14.0871C35.8998 14.0731 35.7987 14.038 35.7077 13.9839C32.7726 12.4635 29.5296 11.6185 26.2198 11.5116C24.8021 11.4809 23.3839 11.5428 21.9745 11.697L21.3511 11.7619C20.9053 11.8114 20.4565 11.8546 20.0014 11.8948L20.79 13.0722C21.2346 13.7893 21.7482 14.462 22.3236 15.081C23.5704 16.3325 25.4841 17.1268 27.9933 17.4451C29.0936 17.5842 30.2344 17.6305 31.3409 17.6799C32.4474 17.7294 33.6131 17.7757 34.7695 17.9179C37.0543 18.1991 39.9094 18.7523 41.7016 20.5138C41.8474 20.6592 41.9293 20.8558 41.9293 21.0608C41.9293 21.2658 41.8474 21.4625 41.7016 21.6078C41.6664 21.6403 41.6289 21.6702 41.5894 21.6974C41.4399 21.7998 41.2591 21.8472 41.078 21.8314C40.8971 21.8156 40.7273 21.7376 40.5982 21.6109C39.1395 20.1739 36.6085 19.701 34.5701 19.4476C33.4885 19.3116 32.3632 19.2653 31.2755 19.2189C31.0572 19.2189 30.8422 19.2004 30.6209 19.188L31.6463 20.5663C31.967 21.0178 32.3291 21.4388 32.7279 21.8241C33.7035 22.7141 35.1186 23.1221 36.487 23.5146L36.7488 23.5887C37.4189 23.7834 38.0797 23.9503 38.7125 24.1141C40.1277 24.441 41.5173 24.8686 42.8705 25.3935C44.9936 26.2961 46.9539 27.5362 48.6742 29.0648C48.6431 28.7775 48.6056 28.49 48.5745 28.1964C48.1568 24.7229 47.7329 21.1072 46.4955 18.2084C45.1147 14.9666 42.8517 10.4145 39.1613 8.31927C35.4022 6.18074 30.652 4.99711 24.6239 4.66644C21.7189 4.50574 19.6586 4.40376 18.1281 4.3296C13.6709 4.11018 13.5837 4.104 9.90565 3.51065C6.4165 2.94524 3.06004 1.75569 0 0Z" fill="url(#paint0_linear)"/>
<path d="M62.0723 10.9923C60.2848 10.9923 58.5368 11.5179 57.0504 12.5027C55.564 13.4874 54.4057 14.8871 53.7214 16.5247C53.0372 18.1623 52.8581 19.9643 53.2069 21.7028C53.5558 23.4412 54.4166 25.0381 55.6808 26.2915C56.945 27.5448 58.5554 28.3984 60.3087 28.7442C62.0625 29.09 63.8796 28.9125 65.5316 28.2342C67.183 27.5559 68.5947 26.4072 69.5884 24.9334C70.5816 23.4596 71.1116 21.7269 71.1116 19.9543C71.1116 17.5775 70.1589 15.2979 68.4638 13.6172C66.7688 11.9365 64.4699 10.9923 62.0723 10.9923ZM62.0723 24.7042C61.1264 24.7042 60.2023 24.4261 59.4157 23.9051C58.6292 23.384 58.0165 22.6435 57.6547 21.777C57.2928 20.9107 57.1983 19.9573 57.3832 19.0376C57.568 18.118 58.0233 17.2733 58.6925 16.6104C59.3617 15.9475 60.2137 15.4963 61.1414 15.3137C62.0692 15.1311 63.0307 15.2255 63.9045 15.5847C64.7777 15.944 65.5243 16.5521 66.0497 17.3321C66.5746 18.1121 66.8544 19.029 66.8539 19.9667C66.8539 20.5891 66.7298 21.2054 66.49 21.7804C66.2496 22.3554 65.8971 22.8778 65.4532 23.3177C65.0093 23.7577 64.4818 24.1066 63.9019 24.3445C63.322 24.5824 62.7 24.7047 62.0723 24.7042ZM89.7852 1.71504H89.1617C88.6659 1.71504 88.1903 1.91039 87.8394 2.25812C87.4884 2.60586 87.2916 3.07748 87.2916 3.56925V12.4818C85.2144 11.2303 82.7302 10.8208 80.3565 11.3384C78.703 11.6719 77.1776 12.4595 75.9539 13.6114C74.7303 14.7633 73.858 16.2331 73.437 17.8529C71.6879 24.7907 78.271 30.854 85.4776 28.5919C87.2896 28.0002 88.8642 26.8505 89.9716 25.3104C91.0795 23.7703 91.6625 21.9199 91.6366 20.0285C91.6366 19.8493 91.6366 19.67 91.6148 19.497C91.6298 19.403 91.6371 19.3079 91.6366 19.2126V3.56307C91.635 3.07557 91.4398 2.60831 91.0935 2.26244C90.7467 1.91657 90.2769 1.71991 89.7852 1.71504ZM82.4664 24.7228C81.521 24.7228 80.5964 24.4448 79.8104 23.9238C79.0238 23.4029 78.4112 22.6625 78.0493 21.7963C77.6875 20.9301 77.5925 19.9769 77.7773 19.0573C77.9616 18.1377 78.4169 17.293 79.0856 16.63C79.7543 15.967 80.6062 15.5156 81.5335 15.3326C82.4612 15.1497 83.4228 15.2436 84.2965 15.6024C85.1698 15.9612 85.9169 16.5688 86.4423 17.3484C86.9677 18.128 87.248 19.0445 87.248 19.9822C87.248 21.2394 86.7444 22.4452 85.8473 23.3343C84.9507 24.2233 83.7348 24.7228 82.4664 24.7228ZM99.4288 28.8638C98.6849 28.8638 97.9715 28.5708 97.4456 28.0492C96.9192 27.5276 96.6237 26.8202 96.6237 26.0825V11.2241C96.6237 10.4864 96.9192 9.77898 97.4456 9.25736C97.9715 8.7358 98.6849 8.44273 99.4288 8.44273C100.173 8.44273 100.887 8.7358 101.413 9.25736C101.939 9.77898 102.234 10.4864 102.234 11.2241V26.0825C102.234 26.8202 101.939 27.5276 101.413 28.0492C100.887 28.5708 100.173 28.8638 99.4288 28.8638ZM101.82 4.0668C101.82 4.55577 101.673 5.03376 101.4 5.44031C101.125 5.84692 100.736 6.16377 100.28 6.35088C99.825 6.53804 99.3234 6.587 98.8396 6.49158C98.3557 6.39621 97.9118 6.16071 97.5629 5.81499C97.214 5.46922 96.9768 5.0287 96.8802 4.54912C96.7842 4.06954 96.8335 3.57245 97.0225 3.1207C97.2109 2.66895 97.5307 2.28283 97.9409 2.01117C98.351 1.73951 98.8328 1.59451 99.326 1.59451C99.6547 1.59288 99.9802 1.65563 100.284 1.77915C100.588 1.90266 100.864 2.08451 101.097 2.31424C101.33 2.54398 101.515 2.81708 101.641 3.11783C101.767 3.41859 101.832 3.74109 101.832 4.0668H101.82ZM121.678 26.1413C120.857 27.0102 119.869 27.7078 118.772 28.1929C117.675 28.6779 116.492 28.9407 115.291 28.9658C112.93 28.9913 110.65 28.1104 108.929 26.5074C107.207 24.9045 106.178 22.7036 106.056 20.3654C105.979 18.6235 106.417 16.8973 107.315 15.3984C108.213 13.8994 109.532 12.6927 111.112 11.9262C112.691 11.1596 114.462 10.8664 116.207 11.0826C117.952 11.2987 119.595 12.0149 120.936 13.1432C121.075 13.2612 121.184 13.4111 121.252 13.5799C121.32 13.7488 121.345 13.9316 121.326 14.1124C121.306 14.2931 121.243 14.4665 121.141 14.6175C121.039 14.7685 120.901 14.8925 120.739 14.9788L120.238 15.2446C119.673 15.5284 119.056 15.6955 118.425 15.7359C117.793 15.7762 117.16 15.689 116.563 15.4795C115.906 15.276 115.213 15.2152 114.531 15.3013C113.849 15.3873 113.193 15.6183 112.609 15.9783C112.025 16.3383 111.526 16.8189 111.146 17.3875C110.766 17.956 110.515 18.5991 110.408 19.2728C110.302 19.9465 110.343 20.6351 110.529 21.2916C110.716 21.948 111.042 22.5569 111.487 23.0768C111.933 23.5967 112.486 24.0154 113.109 24.3042C113.732 24.593 114.41 24.7453 115.098 24.7506C115.826 24.7503 116.544 24.5832 117.195 24.2623C117.834 23.9548 118.536 23.8003 119.246 23.811C119.956 23.8217 120.653 23.9975 121.282 24.3241L121.406 24.3859C121.559 24.4674 121.691 24.5827 121.792 24.7229C121.892 24.8631 121.958 25.0243 121.986 25.1941C122.013 25.3638 122.001 25.5377 121.949 25.7019C121.899 25.8662 121.81 26.0166 121.69 26.1413H121.678Z" fill="#14BCD2"/>
<defs>
<linearGradient id="paint0_linear" x1="37.4766" y1="4.78907" x2="14.1982" y2="21.1096" gradientUnits="userSpaceOnUse">
<stop stop-color="#00ECD0"/>
<stop offset="1" stop-color="#4B54CE"/>
</linearGradient>
</defs>
</svg>
