<svg width="60" height="60" viewBox="0 0 60 60" fill="none" xmlns="http://www.w3.org/2000/svg">
<path d="M15.125 23.957C15.125 24.8024 15.4608 25.6132 16.0586 26.2109C16.6564 26.8087 17.4671 27.1445 18.3125 27.1445C19.1579 27.1445 19.9686 26.8087 20.5664 26.2109C21.1642 25.6132 21.5 24.8024 21.5 23.957C21.5 23.1117 21.1642 22.3009 20.5664 21.7031C19.9686 21.1054 19.1579 20.7695 18.3125 20.7695C17.4671 20.7695 16.6564 21.1054 16.0586 21.7031C15.4608 22.3009 15.125 23.1117 15.125 23.957ZM38.5 23.957C38.5 24.8024 38.8358 25.6132 39.4336 26.2109C40.0314 26.8087 40.8421 27.1445 41.6875 27.1445C42.5329 27.1445 43.3436 26.8087 43.9414 26.2109C44.5392 25.6132 44.875 24.8024 44.875 23.957C44.875 23.1117 44.5392 22.3009 43.9414 21.7031C43.3436 21.1054 42.5329 20.7695 41.6875 20.7695C40.8421 20.7695 40.0314 21.1054 39.4336 21.7031C38.8358 22.3009 38.5 23.1117 38.5 23.957ZM30 0.25C13.5711 0.25 0.25 13.5711 0.25 30C0.25 46.4289 13.5711 59.75 30 59.75C46.4289 59.75 59.75 46.4289 59.75 30C59.75 13.5711 46.4289 0.25 30 0.25ZM47.4648 47.4648C45.1937 49.7359 42.5508 51.5156 39.609 52.7641C36.5742 54.0523 33.3402 54.7031 30 54.7031C26.6598 54.7031 23.4258 54.0523 20.3844 52.7641C17.447 51.5235 14.7789 49.7237 12.5285 47.4648C10.2574 45.1937 8.47773 42.5508 7.2293 39.609C5.94766 36.5742 5.29688 33.3402 5.29688 30C5.29688 26.6598 5.94766 23.4258 7.23594 20.3844C8.47646 17.447 10.2763 14.7789 12.5352 12.5285C14.8062 10.2574 17.4492 8.47773 20.391 7.2293C23.4258 5.94766 26.6598 5.29688 30 5.29688C33.3402 5.29688 36.5742 5.94766 39.6156 7.23594C42.553 8.47646 45.2211 10.2763 47.4715 12.5352C49.7426 14.8062 51.5223 17.4492 52.7707 20.391C54.0523 23.4258 54.7031 26.6598 54.7031 30C54.7031 33.3402 54.0523 36.5742 52.7641 39.6156C51.525 42.5518 49.725 45.2181 47.4648 47.4648ZM40.0938 31.3945H36.8996C36.6207 31.3945 36.3816 31.607 36.3617 31.8859C36.1094 35.173 33.3535 37.7695 30 37.7695C26.6465 37.7695 23.884 35.173 23.6383 31.8859C23.6184 31.607 23.3793 31.3945 23.1004 31.3945H19.9062C19.8342 31.3944 19.7629 31.409 19.6966 31.4374C19.6304 31.4657 19.5706 31.5072 19.5209 31.5594C19.4712 31.6116 19.4326 31.6733 19.4076 31.7409C19.3825 31.8084 19.3714 31.8804 19.375 31.9523C19.6672 37.5504 24.3223 42.0195 30 42.0195C35.6777 42.0195 40.3328 37.5504 40.625 31.9523C40.6286 31.8804 40.6175 31.8084 40.5924 31.7409C40.5674 31.6733 40.5288 31.6116 40.4791 31.5594C40.4294 31.5072 40.3696 31.4657 40.3034 31.4374C40.2371 31.409 40.1658 31.3944 40.0938 31.3945Z" fill="#E0F7FA"/>
</svg>
