<svg width="222" height="92" viewBox="0 0 222 92" fill="none" xmlns="http://www.w3.org/2000/svg">
<path d="M27.9154 2.41111C27.8277 2.46921 27.7401 2.46921 27.6231 2.44016C27.3893 2.35301 27.2139 2.46921 27.0093 2.52731C26.9801 2.52731 26.9508 2.52731 26.8924 2.52731C26.6585 2.55636 26.4247 2.49826 26.2201 2.64351C26.1908 2.67256 26.1616 2.67256 26.1324 2.64351C25.9277 2.64351 25.7524 2.61446 25.5477 2.67256C25.1093 2.81781 24.7 2.96306 24.2616 3.02115C23.9693 3.07925 23.7062 3.19545 23.4431 3.2826V3.31165H23.4139C23.18 3.31165 22.9462 3.36975 22.7124 3.4569C22.0985 3.66024 21.4847 3.83454 20.9 4.06694C20.2277 4.32838 19.5554 4.58983 18.9123 4.93842C18.8539 4.96747 18.8247 4.96747 18.7662 4.99652C18.6493 4.99652 18.5616 5.05462 18.4739 5.08367C18.24 5.11272 18.0354 5.43227 17.7723 5.19987C19.1462 4.18314 20.637 3.3407 22.157 2.58541C24.7293 1.36533 27.4185 0.522892 30.2539 0.145248C30.6631 0.0871487 31.0724 0.0871487 31.4816 0C32.7385 0 33.9954 0 35.2524 0C35.6616 0.145248 36.1001 0.116198 36.5093 0.203347C41.3908 0.871487 45.6586 2.90496 49.3709 6.10041C54.1355 10.2254 57.1463 15.4544 58.9001 21.4095C60.3324 26.2898 60.7417 31.2864 60.4493 36.37C60.1863 40.6984 59.3678 44.9397 58.1693 49.1228C57.7601 50.4881 57.5263 51.9116 57.1755 53.3059C55.0124 61.527 51.3001 68.9636 45.8339 75.4998C41.4201 80.7868 36.1878 85.0571 29.9616 88.1364C26.6585 89.7631 23.18 90.9251 19.5262 91.5352C18.3277 91.7385 17.1293 91.8547 15.9016 91.9128C15.0831 91.9128 14.2646 91.9128 13.4462 91.9128C10.8739 91.7675 8.36002 91.3028 5.96309 90.3732C3.82924 89.5598 1.87077 88.4268 0.116923 86.9744C0.0876925 86.9453 0.0584616 86.9163 0 86.8291C0.467693 87.0034 0.876925 87.1487 1.28616 87.2939C5.67078 88.8045 10.1139 88.9207 14.6154 87.9621C19.76 86.8582 24.3493 84.5342 28.5293 81.4259C33.1478 77.9981 36.9478 73.8149 40.1339 69.0218C43.9339 63.299 46.5062 57.0533 47.9386 50.3429C48.4647 47.9318 49.0493 45.5207 49.4586 43.0805C49.8093 40.8437 50.1016 38.6069 50.2478 36.37C50.4232 33.6975 50.4816 30.9959 50.3355 28.3233C50.1309 24.3435 49.517 20.4218 48.2893 16.5873C47.3247 13.5952 45.9509 10.7774 43.9632 8.33722C43.1447 7.32049 42.2385 6.3909 41.1862 5.60656C41.1278 5.54847 41.0401 5.49037 40.9816 5.43227C41.0401 5.25797 40.8939 5.34512 40.8355 5.31607C40.8355 5.17082 40.7478 5.17082 40.6308 5.17082C40.6016 5.08367 40.5139 5.02557 40.4262 5.02557C40.3385 4.85128 40.1632 4.82223 40.017 4.76413C39.9878 4.73508 39.9293 4.73508 39.9001 4.70603C39.8708 4.70603 39.8708 4.70603 39.8708 4.67698C39.8708 4.47363 39.7247 4.50268 39.5785 4.50268C39.5493 4.50268 39.5201 4.47363 39.4908 4.47363C39.4324 4.44458 39.3739 4.41553 39.3447 4.38648C39.3155 4.38648 39.3155 4.38648 39.2862 4.35743C39.257 4.24124 39.1693 4.24124 39.0816 4.24124C39.0231 4.12504 38.9355 4.09599 38.8185 4.09599C38.6724 3.95074 38.497 3.86359 38.2924 3.83454H38.2632L38.2339 3.80549C38.1755 3.66024 38.0293 3.68929 37.9416 3.66024H37.9124V3.63119C37.8831 3.515 37.7662 3.515 37.6785 3.515H37.6493L37.6201 3.48595C37.5908 3.2826 37.4155 3.3988 37.2985 3.3407H37.2693V3.31165C36.7431 3.02115 36.1878 2.87591 35.6031 2.75971C35.5447 2.75971 35.4862 2.73066 35.4278 2.73066C34.9016 2.49826 34.3462 2.41111 33.7616 2.38206C33.6739 2.41111 33.6154 2.38206 33.5278 2.35301C33.4401 2.26587 33.3524 2.23682 33.2062 2.20777C32.7093 2.20777 32.2416 2.17872 31.7447 2.14967C30.6339 2.06252 29.5231 2.20777 28.4124 2.20777C28.237 2.26587 28.0616 2.29492 27.9154 2.41111Z" fill="#023B7E"/>
<path d="M221.394 44.6494C221.102 44.9689 221.16 45.3756 221.044 45.7532C220.81 46.6828 220.459 46.9443 219.494 46.9443C218.004 46.9733 216.513 46.9152 215.022 47.0024C214.7 47.0314 214.408 47.0895 214.087 47.1476C213.707 47.2638 213.502 47.5543 213.385 47.9029C213.21 48.3386 213.093 48.8034 213.034 49.2682C212.976 49.8202 213.21 50.2559 213.736 50.4883C214.496 50.8369 215.314 50.9241 216.133 51.1274C217.097 51.3888 218.062 51.7084 218.91 52.2313C219.699 52.7251 220.167 53.3933 220.225 54.3519C220.342 56.3854 219.933 58.3026 218.851 60.0166C218.062 61.2657 216.776 61.8757 215.314 62.1081C214.642 62.1953 213.999 62.1662 213.327 62.1662C210.959 62.1662 208.591 62.1662 206.224 62.1662C206.194 62.1662 206.165 62.1662 206.165 62.1662C205.259 62.1372 204.996 61.7595 205.171 60.859C205.347 59.9004 205.697 58.9998 205.96 58.0412C205.99 57.925 205.99 57.7797 206.165 57.8088C206.311 57.8378 206.253 57.9831 206.253 58.0702C206.311 58.8836 206.574 59.087 207.188 59.087C209.059 59.116 210.93 59.2613 212.8 59.0289C213.093 58.9998 213.385 58.9127 213.677 58.8546C214.525 58.6222 214.876 57.954 215.139 57.2278C215.227 56.9954 215.285 56.763 215.314 56.5306C215.431 55.7753 215.168 55.3396 214.467 55.02C213.56 54.6424 212.567 54.439 211.631 54.2067C210.813 54.0033 210.024 53.6838 209.293 53.3061C208.533 52.8994 208.182 52.2313 208.211 51.3888C208.24 50.285 208.328 49.1811 208.679 48.1353C208.971 47.2929 209.439 46.5376 209.994 45.8404C210.52 45.2013 211.076 44.6784 211.836 44.3589C212.216 44.2136 212.596 44.0684 212.976 44.0684C215.782 44.0684 218.617 44.0684 221.424 44.0684C221.394 44.3008 221.394 44.4751 221.394 44.6494Z" fill="#EE3D1F"/>
<path d="M13.4463 91.9419C14.2648 91.9419 15.0832 91.9419 15.9017 91.9419C15.9017 91.9709 15.9017 91.9709 15.9017 92C15.0832 92 14.2648 92 13.4463 92C13.4463 91.9709 13.4463 91.9419 13.4463 91.9419Z" fill="#FBFCFC"/>
<path d="M73.1055 76.7781C74.2163 76.3424 75.3271 75.8776 76.5548 75.4128C75.8824 75.2095 75.2978 75.2095 74.7424 75.1223C74.2163 75.0352 73.6901 75.0061 73.1932 74.919C72.9886 74.8899 72.8132 74.948 72.6378 75.0642C70.9132 76.1972 69.1886 77.3591 67.464 78.4921C67.3178 78.6083 67.2594 78.7245 67.2594 78.8988C67.347 81.5713 67.4055 84.2729 67.4932 86.9455C67.4932 87.236 67.464 87.3812 67.1132 87.4393C63.9563 87.9622 60.7701 88.3689 57.5839 88.6594C54.5147 88.9499 51.4455 89.0952 48.3762 89.1823C45.9208 89.2404 43.4655 89.2695 41.0101 89.2113C40.8055 89.2113 40.5716 89.2114 40.2793 89.1242C40.9516 89.008 41.5362 88.8628 42.1501 88.7466C44.6347 88.2818 47.1193 87.817 49.6039 87.3812C50.7147 87.1779 51.8547 86.9745 52.9655 86.7712C53.1993 86.7421 53.2286 86.655 53.0532 86.4807C52.147 85.464 51.2409 84.4472 50.3347 83.4595C49.487 82.5009 48.6101 81.5423 47.7624 80.5836C47.6162 80.4384 47.6455 80.3222 47.7624 80.1769C48.8439 78.6083 49.9255 77.0686 51.007 75.5C51.1239 75.3257 51.2409 75.2966 51.4455 75.3547C52.6147 75.7905 53.8132 76.1681 55.0409 76.4296C57.847 77.0105 60.6532 77.0686 63.4301 76.1972C65.5055 75.529 67.3178 74.367 68.7794 72.7403C70.7378 70.5906 71.8194 68.0052 72.4332 65.2164C72.9886 62.6601 73.0178 60.0747 72.784 57.4892C72.5794 55.3105 72.1409 53.1609 71.5271 51.0693C70.7086 48.1643 69.5686 45.3756 68.1947 42.674C67.0547 40.4372 65.7978 38.2875 64.3655 36.1959C64.2486 36.0216 64.1609 35.8183 64.1609 35.5859C64.1024 31.9837 64.0732 28.4106 64.0147 24.8085C64.0147 24.518 63.9563 24.2275 64.0147 23.937C64.3655 24.1404 64.6286 24.4018 64.9209 24.6633C66.5578 26.0576 68.1655 27.452 69.8317 28.8464C70.0947 29.0788 70.124 29.2531 69.9778 29.5436C69.1009 31.6351 68.2532 33.7558 67.4055 35.8473C67.3178 36.0507 67.2886 36.254 67.4347 36.4574C68.4578 38.3456 69.4809 40.2338 70.504 42.093C70.5917 42.2673 70.7086 42.3544 70.9132 42.3835C73.3686 42.7321 75.8532 43.1097 78.3086 43.4583C78.5717 43.4874 78.6009 43.6617 78.6594 43.836C79.4194 45.8985 80.1794 47.961 80.9394 50.0235C81.4655 51.476 81.9917 52.8994 82.5471 54.3519C82.6348 54.5843 82.6348 54.6714 82.3717 54.7876C80.2671 55.572 78.1917 56.3563 76.1163 57.1697C75.9117 57.2568 75.7948 57.373 75.7655 57.6054C75.5901 58.9708 75.4148 60.3651 75.2394 61.7305C75.1809 62.0791 75.2394 62.3115 75.6194 62.5148C78.0455 63.9092 80.4717 65.3617 82.8978 66.7851C83.1025 66.9013 83.1317 67.0175 83.0732 67.2208C82.5763 68.9929 82.0794 70.7649 81.5825 72.5369C81.3778 73.2341 81.2025 73.9603 80.9686 74.6575C80.8225 74.6866 80.8517 74.8028 80.8225 74.8899C80.764 75.2095 80.5594 75.4709 80.2378 75.4709C79.7701 75.4709 79.4194 75.7324 78.9517 75.8195C78.3963 75.9067 77.8117 75.9938 77.2855 76.1972C76.964 76.3134 76.6132 76.2843 76.2917 76.4296C75.9117 76.6038 75.4732 76.6619 75.0347 76.7491C74.5671 76.8653 74.0701 76.9234 73.6024 77.0686C73.4855 77.0977 73.3686 77.1558 73.2517 77.1848C72.9301 77.0686 73.0178 76.9524 73.1055 76.7781Z" fill="#EF3C1E"/>
<path d="M204.44 79.8282C202.832 79.7411 201.254 79.6539 199.646 79.5958C196.723 79.4506 193.8 79.3344 190.877 79.1892C186.054 78.9858 181.201 78.8406 176.378 78.6953C168.369 78.492 160.36 78.4339 152.351 78.521C146.943 78.5791 141.506 78.7244 136.098 78.9277C130.34 79.1601 124.581 79.4797 118.823 79.9444C112.772 80.4383 106.721 81.0483 100.67 81.8036C96.7827 82.2975 92.895 82.8494 89.0073 83.4885C83.3657 84.4181 77.7534 85.4929 72.1703 86.742C71.8196 86.8292 71.4396 86.8873 71.0888 87.0035C70.8842 87.0616 70.7965 87.0325 70.7673 86.8001C70.4749 84.5633 70.1534 82.3265 69.8319 80.0897C69.8026 79.8282 69.9488 79.8282 70.1242 79.7992C72.4042 79.4216 74.6842 79.0439 76.9934 78.6663C80.4134 78.1143 83.8334 77.6495 87.2534 77.2138C90.4104 76.8071 93.5965 76.4585 96.7535 76.139C100.729 75.7323 104.733 75.4127 108.738 75.1222C111.398 74.9479 114.087 74.8027 116.777 74.6574C123.178 74.3379 129.609 74.2217 136.04 74.2217C141.915 74.2217 147.82 74.3669 153.695 74.6284C157.846 74.8027 161.997 75.0641 166.147 75.3546C170.064 75.6451 173.981 75.9647 177.869 76.3423C181.552 76.6909 185.235 77.1266 188.918 77.5624C193.858 78.1724 198.798 78.8406 203.738 79.5668C203.972 79.5958 204.206 79.654 204.44 79.683C204.44 79.7992 204.44 79.8282 204.44 79.8282Z" fill="#033C7E"/>
<path d="M93.7437 47.3217C93.4806 48.077 93.2468 48.8323 92.9837 49.5876C91.7853 53.1316 90.616 56.6466 89.4176 60.1906C89.3883 60.3068 89.3591 60.4521 89.3006 60.5683C89.0083 61.2655 89.0668 61.7593 89.8853 62.2532C89.2714 62.2532 88.7452 62.2532 88.1899 62.2532C87.2545 62.2532 86.3191 62.2532 85.3837 62.2532C84.7991 62.2532 84.5068 62.0789 84.4191 61.7012C84.3606 61.4398 84.3899 61.2074 84.4776 60.9459C85.5299 58.07 86.6114 55.2232 87.6637 52.3473C89.0376 48.687 90.3822 44.9977 91.756 41.3665C92.0191 40.6984 91.9606 40.2336 91.2883 39.7979C91.5806 39.7979 91.7268 39.7979 91.9022 39.7979C93.3637 39.7979 94.8253 39.7979 96.316 39.7979C97.0468 39.7979 97.3391 40.0883 97.4268 40.8146C97.6607 43.4871 97.8945 46.1307 98.1283 48.8032C98.2453 50.0523 98.3622 51.3015 98.4791 52.5506C98.4791 52.5797 98.5083 52.6378 98.5083 52.6959C98.6253 52.6378 98.6545 52.5506 98.6837 52.4635C99.6776 50.2266 100.642 48.0189 101.636 45.7821C102.25 44.3877 102.864 42.9933 103.507 41.5989C103.945 40.6403 103.916 40.4369 103.039 39.7979C103.302 39.7979 103.536 39.7979 103.741 39.7979C105.261 39.7979 106.781 39.7979 108.301 39.7979C109.148 39.7979 109.587 40.1755 109.616 41.0179C109.675 42.9933 109.704 44.9687 109.733 46.944C109.821 51.621 109.908 56.327 109.996 61.004C109.996 61.5269 110.23 61.8755 110.639 62.2241C110.259 62.2241 109.85 62.2241 109.47 62.2241C108.388 62.2241 107.307 62.2241 106.225 62.2241C106.108 62.2241 106.021 62.2241 105.904 62.1951C105.115 62.0498 104.968 61.8755 104.968 61.0912C104.91 56.8499 104.822 52.6378 104.764 48.3965C104.764 48.2803 104.735 48.1641 104.735 48.077C104.588 48.077 104.588 48.1932 104.559 48.2803C103.331 51.1272 102.075 54.0031 100.847 56.8499C100.116 58.5058 99.4145 60.1616 98.713 61.8174C98.5668 62.137 98.4207 62.2532 98.0699 62.2241C97.193 62.1951 96.2868 62.1951 95.4099 62.2241C95.1176 62.2241 95.0299 62.137 95.0006 61.8465C94.7376 58.3315 94.4453 54.8165 94.1822 51.3305C94.0945 50.1395 93.9776 48.9485 93.8899 47.7574C93.8899 47.6122 93.8606 47.4669 93.8314 47.3217C93.8022 47.3217 93.7729 47.3217 93.7437 47.3217Z" fill="#EF3C1F"/>
<path d="M141.711 66.7558C141.419 66.7558 141.127 66.7558 140.805 66.7558C139.49 66.7558 138.174 66.7558 136.859 66.7558C136.07 66.7558 135.894 66.5525 136.099 65.7972C136.537 64.0542 136.947 62.3403 137.385 60.5973C137.414 60.4521 137.502 60.3068 137.414 60.1035C137.064 60.7135 136.742 61.2364 136.45 61.8174C136.274 62.1369 136.07 62.3112 135.719 62.3112C134.287 62.3112 132.854 62.3984 131.422 62.3112C129.142 62.166 127.71 60.2487 127.681 58.3314C127.651 56.5594 127.973 54.8455 128.411 53.1606C128.879 51.2724 129.581 49.4423 130.487 47.6993C131.042 46.6245 131.714 45.6077 132.737 44.8525C133.381 44.3877 134.111 44.2134 134.901 44.1262C135.427 44.0681 135.953 44.0391 136.508 44.0391C139.344 44.0391 142.179 44.0681 145.014 44.0391C145.891 44.0391 146.242 44.562 146.038 45.4044C145.57 47.4088 145.073 49.4423 144.605 51.4467C143.845 54.6131 143.085 57.7795 142.296 60.975C141.916 62.4855 141.565 64.0252 141.214 65.5357C141.068 66.0296 141.214 66.4653 141.711 66.7558ZM135.339 58.5929C136.157 58.6219 136.976 58.651 137.707 58.1571C137.941 58.0119 138.116 57.8085 138.174 57.5181C138.934 54.4098 139.724 51.2724 140.484 48.1641C140.542 47.8736 140.454 47.8446 140.221 47.8446C139.314 47.8446 138.408 47.8446 137.502 47.8446C137.268 47.8446 137.005 47.8446 136.771 47.9027C135.456 48.2222 134.608 49.0356 134.257 50.3428C133.877 51.7081 133.497 53.0735 133.117 54.4678C132.913 55.2812 132.65 56.0656 132.679 56.908C132.708 57.9247 133.264 58.5348 134.287 58.5929C134.637 58.5929 134.988 58.5929 135.339 58.5929Z" fill="#EF3C1F"/>
<path d="M120.724 59.3191C120.373 59.7839 120.081 60.2777 119.817 60.8006C119.496 61.4107 118.97 61.8173 118.385 62.1369C118.21 62.224 118.034 62.224 117.83 62.224C116.631 62.224 115.404 62.224 114.205 62.224C112.919 62.224 111.925 61.3526 111.691 60.1034C111.457 58.8252 111.574 57.5471 111.837 56.2689C112.159 54.6421 112.685 53.1025 113.416 51.621C114.001 50.4299 114.965 49.9651 116.251 49.878C117.625 49.7908 118.999 49.8489 120.373 49.8199C121.104 49.8199 121.834 49.7908 122.565 49.8489C123.267 49.878 123.618 49.5875 123.647 48.8903C123.647 48.6869 123.705 48.4836 123.676 48.3093C123.617 47.6412 123.354 47.3797 122.682 47.3797C121.659 47.3797 120.665 47.3797 119.642 47.3797C118.97 47.3797 118.297 47.3797 117.625 47.3797C117.304 47.3797 117.011 47.3216 116.719 47.2054C116.222 46.973 116.047 46.7406 116.105 46.1887C116.164 45.6077 116.281 45.0558 116.339 44.4748C116.368 44.2714 116.456 44.2133 116.661 44.2133C119.73 44.2133 122.799 44.1843 125.868 44.2424C127.798 44.2714 128.938 45.7529 128.528 47.6121C127.768 51.069 127.008 54.5259 126.278 57.9828C126.102 58.7671 125.927 59.5805 125.781 60.3649C125.722 60.6263 125.722 60.8878 125.751 61.1492C125.781 61.5849 125.898 61.9626 126.278 62.2531C125.43 62.2531 124.553 62.2531 123.705 62.2531C123.033 62.2531 122.361 62.2531 121.688 62.2531C120.899 62.2531 120.461 61.7302 120.607 60.9459C120.694 60.4811 120.841 60.0163 120.87 59.5515C121.104 59.3191 121.016 58.9705 121.104 58.68C120.987 58.8833 120.782 59.0576 120.724 59.3191ZM119.145 58.0409C119.788 58.0409 120.402 58.0409 121.045 58.0409C121.191 58.0409 121.337 58.0409 121.396 57.8376C121.747 56.356 122.097 54.9036 122.448 53.422C122.507 53.2187 122.448 53.1315 122.244 53.1606C121.045 53.1606 119.847 53.1606 118.648 53.1896C118.005 53.1896 117.479 53.4801 117.157 54.0902C116.777 54.7583 116.514 55.4555 116.339 56.2108C116.251 56.5594 116.222 56.908 116.31 57.2566C116.427 57.7214 116.894 58.07 117.362 58.07C117.888 58.0409 118.531 58.0409 119.145 58.0409Z" fill="#EE3D1F"/>
<path d="M203.797 62.2241C202.189 62.2241 200.611 62.2241 199.003 62.2241C198.389 62.2241 197.951 61.585 198.097 60.975C198.243 60.3649 198.389 59.7839 198.535 59.2029C198.565 59.0867 198.594 58.9705 198.535 58.8543C198.272 59.0577 198.185 59.3772 198.009 59.6096C197.629 60.2197 197.337 60.8878 196.84 61.4107C196.372 61.9336 195.788 62.2822 195.028 62.2531C193.975 62.195 192.894 62.2531 191.841 62.2531C190.321 62.2531 189.269 61.2945 189.123 59.7839C188.948 58.1281 189.24 56.5013 189.678 54.9036C190 53.6835 190.438 52.5215 191.052 51.4177C191.52 50.5462 192.221 50.0523 193.186 49.9361C193.8 49.878 194.443 49.8199 195.057 49.8199C196.548 49.8199 198.068 49.8199 199.558 49.8199C199.851 49.8199 200.172 49.878 200.465 49.8199C200.757 49.7618 200.961 49.6166 201.049 49.3261C201.195 48.9194 201.225 48.5127 201.137 48.106C201.02 47.525 200.786 47.3507 200.085 47.3507C198.448 47.3507 196.811 47.3507 195.145 47.3507C194.823 47.3507 194.501 47.2926 194.209 47.1474C193.712 46.915 193.537 46.5954 193.595 46.0725C193.683 45.5206 193.771 44.9977 193.829 44.4458C193.858 44.2134 193.975 44.1553 194.209 44.1553C197.22 44.1553 200.26 44.1553 203.271 44.1553C204.06 44.1553 204.82 44.3005 205.346 44.9396C205.931 45.6078 206.252 46.4211 206.077 47.3217C205.638 49.5294 205.141 51.7082 204.645 53.9159C204.206 55.9784 203.738 58.041 203.3 60.0744C203.212 60.4811 203.212 60.9169 203.271 61.3526C203.329 61.7303 203.475 62.0208 203.797 62.2241ZM196.577 58.0119C196.577 58.041 196.577 58.041 196.577 58.0119C197.22 58.0119 197.834 58.0119 198.477 58.0119C198.711 58.0119 198.828 57.9829 198.886 57.6924C198.945 57.3728 199.032 57.0533 199.12 56.7047C199.383 55.6008 199.646 54.4969 199.909 53.393C199.968 53.1897 199.968 53.0735 199.705 53.1025C198.506 53.1025 197.337 53.1025 196.138 53.1316C195.671 53.1316 195.203 53.2187 194.881 53.6254C194.18 54.5841 193.741 55.6298 193.712 56.8209C193.683 57.5471 194.151 57.9829 194.881 57.9829C195.437 58.041 196.021 58.0119 196.577 58.0119Z" fill="#EE3D1F"/>
<path d="M177.49 62.2241C176.145 62.2241 174.918 62.2241 173.69 62.2241C173.368 62.2241 173.047 62.2531 172.725 62.195C171.995 62.0788 171.702 61.7012 171.878 60.975C172.199 59.5515 172.55 58.1572 172.901 56.7628C173.427 54.6131 173.924 52.4925 174.45 50.3428C174.771 48.9484 175.122 47.5831 175.473 46.1887C175.648 45.4625 175.736 44.7653 175.093 44.1262C175.268 44.1262 175.385 44.0972 175.502 44.0972C176.701 44.0972 177.928 44.0972 179.127 44.0972C179.565 44.0972 179.916 44.2715 180.238 44.5329C180.501 44.7653 180.618 45.0558 180.559 45.4044C180.501 45.6658 180.472 45.8982 180.501 46.1887C180.793 45.9273 180.968 45.6077 181.115 45.3172C181.582 44.4458 182.313 44.0972 183.278 44.0972C184.388 44.1262 185.499 44.0972 186.61 44.0972C187.896 44.1262 188.948 44.9396 189.212 46.1306C189.328 46.6826 189.299 47.2345 189.153 47.7865C188.364 51.0981 187.575 54.4388 186.785 57.7505C186.581 58.6219 186.376 59.4934 186.172 60.3649C185.996 61.0331 186.172 61.585 186.668 62.0498C186.727 62.1079 186.785 62.1369 186.756 62.2531C186.61 62.2531 186.435 62.2531 186.288 62.2531C184.973 62.2531 183.658 62.2531 182.342 62.2531C181.612 62.2531 181.261 61.8464 181.436 61.1493C181.933 58.9996 182.43 56.879 182.927 54.7293C183.336 52.9863 183.745 51.2434 184.155 49.5004C184.242 49.1227 184.125 48.7451 184.038 48.3675C183.95 48.106 183.716 47.9898 183.482 47.9317C182.605 47.7574 181.728 47.7574 180.852 47.9898C180.267 48.1351 179.975 48.5127 179.828 49.0646C179.595 50.0523 179.332 51.04 179.068 52.0277C178.367 54.7874 177.695 57.5181 176.993 60.2778C176.964 60.3649 176.964 60.4521 176.935 60.5392C176.642 61.1783 176.701 61.7593 177.49 62.2241Z" fill="#EE3D1F"/>
<path d="M155.01 61.6143C154.601 62.0791 154.046 62.1953 153.461 62.1953C151.854 62.2243 150.217 62.2243 148.609 62.1953C147.761 62.1953 147.089 61.8467 146.504 61.2366C146.007 60.6847 146.066 60.0166 146.154 59.3484C146.417 57.8378 146.826 56.3563 147.147 54.8457C147.586 52.9575 148.024 51.0693 148.463 49.1811C148.755 47.961 149.018 46.7119 149.34 45.4918C149.486 44.9398 149.486 44.4751 148.843 44.0684C149.106 44.0684 149.223 44.0684 149.369 44.0684C150.714 44.0684 152.058 44.0684 153.432 44.0684C153.958 44.0684 154.163 44.3008 154.192 44.7946C154.192 45.0851 154.104 45.3465 154.046 45.608C153.169 49.2682 152.321 52.9285 151.444 56.5887C151.357 56.9083 151.298 57.2569 151.298 57.5764C151.298 58.1864 151.474 58.4188 152.058 58.506C152.877 58.6222 153.724 58.6512 154.572 58.5931C154.747 58.5641 154.952 58.5641 155.127 58.535C155.741 58.506 156.121 58.1864 156.326 57.6054C156.647 56.734 156.794 55.8334 156.998 54.9329C157.554 52.3765 158.109 49.8202 158.635 47.2638C158.781 46.5666 158.927 45.8694 159.074 45.2013C159.161 44.7946 159.103 44.417 158.781 44.0684C159.278 44.0684 159.687 44.0684 160.126 44.0684C161.09 44.0684 162.026 44.0684 162.99 44.0684C163.4 44.0684 163.604 44.2136 163.692 44.6203C163.75 44.9108 163.78 45.1722 163.692 45.4918C163.137 47.961 162.581 50.4302 162.026 52.8994C161.441 55.4848 160.886 58.0702 160.301 60.6557C160.155 61.2657 160.243 61.7886 160.915 62.1953C160.36 62.1953 159.921 62.1953 159.483 62.1953C158.46 62.1953 157.407 62.1953 156.384 62.1953C155.917 62.1953 155.624 61.9919 155.449 61.5852C155.361 61.1495 155.595 60.7428 155.624 60.3361C155.39 60.7428 155.244 61.1785 155.01 61.6143Z" fill="#EE3D1F"/>
<path d="M132.299 16.1514C133.731 16.1514 135.134 16.1514 136.566 16.1514C136.946 16.1514 136.859 16.4128 136.8 16.6162C136.625 17.3714 136.42 18.1558 136.245 18.9111C136.04 19.7535 135.836 20.5959 135.631 21.4384C135.602 21.5255 135.602 21.5836 135.631 21.6998C135.953 21.1769 136.274 20.654 136.537 20.1021C136.654 19.8988 136.742 19.7826 136.976 19.7535C137.122 19.7245 137.268 19.7245 137.414 19.7245C138.32 19.7245 139.256 19.7245 140.162 19.7245C142.033 19.7245 143.494 21.1188 143.553 22.978C143.611 24.5757 143.231 26.1444 142.822 27.655C142.383 29.3108 141.74 30.9085 140.834 32.3901C140.6 32.7677 140.337 33.0873 140.045 33.4068C139.343 34.133 138.496 34.5107 137.502 34.5107C134.9 34.5107 132.299 34.5107 129.697 34.5107C129.609 34.5107 129.522 34.5107 129.463 34.4816C128.879 34.3945 128.586 33.9878 128.733 33.4068C130.019 28.0036 131.334 22.6294 132.62 17.2262C132.766 16.7905 132.708 16.4419 132.299 16.1514ZM134.491 31.4605C135.193 31.4605 135.865 31.4895 136.537 31.199C137.648 30.7342 138.379 30.008 138.671 28.817C138.876 27.9745 139.168 27.1321 139.373 26.2897C139.548 25.5634 139.694 24.8372 139.606 24.0819C139.519 23.3266 139.11 22.8328 138.379 22.8037C137.56 22.7747 136.742 22.6875 135.923 22.949C135.397 23.1233 135.105 23.4138 134.988 23.9366C134.783 24.7791 134.579 25.5925 134.374 26.4349C133.994 28.0036 133.585 29.6013 133.205 31.17C133.146 31.4024 133.176 31.4895 133.439 31.4605C133.789 31.4314 134.14 31.4605 134.491 31.4605Z" fill="#033C7E"/>
<path d="M115.813 34.5107C114.439 34.5107 113.182 34.5107 111.925 34.5107C111.545 34.5107 111.253 34.104 111.34 33.7264C111.369 33.5521 111.428 33.3778 111.399 33.1744C111.311 33.3197 111.223 33.4359 111.194 33.6102C110.989 34.2493 110.493 34.4817 109.908 34.5107C108.446 34.5688 106.956 34.5979 105.494 34.5107C104.237 34.4526 103.536 33.494 103.74 32.2739C104.062 30.3566 104.588 28.4684 105.026 26.5802C105.465 24.6629 105.933 22.7456 106.371 20.8284C106.459 20.4217 106.459 20.044 106.049 19.7826C106.137 19.6664 106.254 19.7245 106.313 19.7245C107.365 19.7245 108.446 19.7245 109.499 19.7245C110.2 19.7245 110.405 19.9859 110.259 20.6831C110.113 21.2932 109.966 21.8742 109.82 22.4842C109.236 25.0115 108.622 27.5388 108.037 30.0952C107.979 30.3276 107.949 30.56 107.92 30.8214C107.891 31.2572 108.066 31.4896 108.505 31.5477C109.411 31.6929 110.346 31.6639 111.253 31.5477C111.691 31.4896 111.896 31.1991 112.013 30.8505C112.159 30.4728 112.246 30.0952 112.334 29.7175C112.977 26.6964 113.62 23.6462 114.293 20.625C114.351 20.3055 114.263 20.044 114.059 19.7535C114.848 19.7535 115.579 19.7535 116.31 19.7535C116.631 19.7535 116.953 19.7535 117.245 19.7535C117.976 19.7535 118.268 20.1021 118.093 20.8574C117.888 21.8451 117.654 22.8328 117.42 23.8495C116.719 26.9869 116.017 30.0952 115.316 33.2325C115.257 33.6683 115.257 34.1331 115.813 34.5107Z" fill="#043C7E"/>
<path d="M143.202 29.8632C143.29 26.9001 144.021 24.2566 145.804 21.9617C146.914 20.5383 148.376 19.783 150.188 19.7249C151.621 19.6668 153.053 19.8411 154.456 20.1897C155.654 20.5092 156.239 21.3226 156.502 22.4555C156.765 23.6175 156.619 24.7504 156.444 25.9124C156.181 27.7135 155.654 29.4565 154.836 31.0833C154.193 32.3614 153.228 33.2329 151.942 33.7558C149.954 34.5982 147.938 34.7144 145.862 34.1625C144.313 33.7558 143.465 32.7681 143.348 31.1704C143.261 30.7347 143.231 30.2408 143.202 29.8632ZM153.17 24.4019C153.17 24.1695 153.141 23.9661 153.141 23.7337C153.053 22.8913 152.644 22.4265 151.796 22.3103C151.27 22.2231 150.744 22.2231 150.218 22.3393C149.487 22.4846 148.873 22.8332 148.493 23.5013C148.113 24.1404 147.821 24.8085 147.558 25.4767C147.031 26.8711 146.651 28.3235 146.564 29.8051C146.476 30.938 146.944 31.5771 148.025 31.9257C148.201 31.9838 148.376 32.0419 148.581 32.0419C149.574 32.1 150.539 32.0128 151.065 31.0542C152.234 28.9626 153.024 26.7839 153.17 24.4019Z" fill="#043C7E"/>
<path d="M94.4741 26.8706C94.4741 26.8125 94.5033 26.7835 94.5033 26.7254C94.5325 26.7254 94.591 26.7254 94.6202 26.7254C94.591 26.464 94.7956 26.2316 94.7956 25.9701C94.7956 25.6796 94.8541 25.3601 94.971 25.0986C95.2633 24.4886 95.2633 23.8204 95.4387 23.1814C95.5556 22.7456 95.6725 22.2808 95.7602 21.816C95.8771 21.3512 96.0233 20.9155 96.0233 20.4216C96.0233 20.3926 96.0233 20.3635 96.0525 20.3345C96.1694 20.1021 96.4325 19.9278 96.2279 19.5792C96.0233 19.2597 95.8187 19.5502 95.6433 19.5502C94.5325 19.5211 93.3925 19.5211 92.2525 19.5211C92.0187 19.5211 91.9017 19.463 91.9602 19.2306C92.0187 18.9401 92.0771 18.6496 92.1356 18.3301C92.2233 17.8072 92.3694 17.3133 92.5156 16.7905C92.5448 16.7614 92.5741 16.7614 92.6033 16.7324C92.8371 16.5871 93.1002 16.5871 93.3341 16.5871C96.9879 16.5871 100.642 16.5871 104.325 16.5871C104.88 16.5871 105.494 16.7324 105.903 16.0933C105.933 16.3838 105.874 16.5581 105.816 16.7324C105.669 17.4005 105.523 18.0686 105.377 18.7368C105.231 19.4049 104.997 19.5792 104.325 19.5792C103.156 19.5792 101.957 19.5792 100.788 19.5792C100.525 19.5792 100.408 19.6373 100.349 19.8988C99.6479 22.978 98.9172 26.0573 98.1864 29.1656C97.8356 30.6761 97.4848 32.1577 97.1341 33.6682C97.0464 34.0749 97.1341 34.2783 97.5725 34.5397C97.3095 34.5397 97.1341 34.5688 96.9587 34.5688C95.8479 34.5978 94.7371 34.5978 93.6264 34.6269C92.8664 34.6269 92.5741 34.2783 92.7494 33.552C93.071 32.2158 93.4218 30.8795 93.7433 29.5432C94.1525 29.1365 94.0064 28.5846 94.0941 28.0907C94.1233 28.0326 94.1233 27.9745 94.1525 27.9164C94.4156 27.5678 94.591 27.2483 94.4741 26.8706Z" fill="#033C7E"/>
<path d="M168.632 62.2244C167.317 62.2244 165.972 62.2244 164.657 62.2244C163.868 62.2244 163.488 61.6434 163.663 60.8009C163.926 59.5809 164.219 58.3317 164.511 57.1116C165.154 54.2938 165.768 51.476 166.411 48.6582C166.557 48.0191 166.703 47.38 166.849 46.7409C167.083 45.579 167.025 45.2594 166.294 44.3298C166.411 44.2427 166.557 44.2717 166.703 44.2717C168.019 44.2717 169.334 44.2717 170.649 44.2717C171.351 44.2717 171.789 44.7656 171.614 45.4918C171.292 46.9152 170.971 48.3096 170.649 49.7331C170.006 52.5799 169.363 55.3977 168.72 58.2446C168.545 59.058 168.34 59.9004 168.165 60.7138C168.077 61.2367 168.019 61.8177 168.632 62.2244Z" fill="#EE3D1F"/>
<path d="M122.887 34.5108C121.571 34.5108 120.344 34.5399 119.087 34.5108C118.619 34.5108 118.327 34.017 118.444 33.465C118.707 32.274 118.999 31.083 119.262 29.892C119.993 26.8127 120.695 23.7334 121.425 20.6832C121.513 20.3346 121.455 20.0442 121.191 19.8118C121.279 19.6956 121.367 19.7537 121.455 19.7537C122.361 19.7537 123.238 19.7537 124.144 19.7537C125.313 19.7537 125.43 19.8699 125.488 21.0609C125.693 20.9156 125.751 20.7123 125.839 20.5089C126.102 19.957 126.541 19.7246 127.125 19.7246C128.148 19.7246 129.142 19.7246 130.165 19.7246C130.487 19.7246 130.487 19.8118 130.428 20.0732C130.282 20.6251 130.136 21.1771 129.99 21.7581C129.844 22.31 129.376 22.7167 128.791 22.7167C127.885 22.7167 127.008 22.7167 126.102 22.7167C125.313 22.7167 124.816 23.0944 124.611 23.8787C123.851 27.0741 123.091 30.2696 122.361 33.465C122.273 33.8717 122.478 34.1913 122.887 34.5108Z" fill="#043C7E"/>
<path d="M170.007 40.0015C170.533 40.0015 171.059 40.0305 171.585 40.0015C172.258 39.9724 172.462 40.3791 172.433 40.9601C172.375 41.6863 172.141 42.3835 171.965 43.0807C171.936 43.1969 171.848 43.226 171.731 43.226C170.591 43.226 169.451 43.226 168.311 43.1969C167.902 43.1969 167.551 42.7902 167.61 42.3835C167.727 41.6573 167.873 40.931 167.99 40.2048C168.019 40.0305 168.107 40.0015 168.282 40.0015C168.838 40.0015 169.422 40.0015 170.007 40.0015Z" fill="#EE3D1F"/>
<path d="M65.7406 57.5473C65.7114 58.535 65.6237 59.726 65.156 60.888C64.4252 62.66 63.0514 63.5606 61.2098 63.8511C60.3037 63.9963 59.4267 63.9382 58.5206 63.8511C58.3452 63.822 58.1406 63.8801 58.1698 63.5606C58.199 63.2991 58.2575 63.1829 58.579 63.212C59.6021 63.3572 60.6544 63.3863 61.6775 63.1248C63.4313 62.6891 64.4252 61.5562 64.8637 59.8422C65.2144 58.4769 65.1852 57.0535 65.039 55.6591C64.776 53.1899 64.1329 50.8078 63.4021 48.4258C63.3729 48.3096 63.3437 48.1643 63.2852 48.0481C63.139 47.7867 63.2852 47.6995 63.519 47.6124C63.7237 47.5543 63.8114 47.5833 63.8698 47.7867C64.5714 50.0235 65.1852 52.2603 65.536 54.5552C65.6529 55.4848 65.7406 56.3853 65.7406 57.5473Z" fill="#CE312A"/>
<path d="M120.664 39.7977C121.775 39.7686 122.886 39.7686 124.026 39.7977C124.084 39.8848 124.114 39.972 124.172 40.0882C124.026 40.0882 124.026 40.1753 124.026 40.2915C123.88 40.3496 123.704 40.4077 123.763 40.6401C123.354 40.8435 123.208 41.2792 122.915 41.6278C122.886 41.6568 122.915 41.7149 122.915 41.773C122.564 42.325 122.184 42.7898 121.775 43.3127C121.22 43.3127 120.694 43.2836 120.138 43.3127C119.817 43.3417 119.524 43.1965 119.203 43.2836C119.028 43.3417 118.794 43.1674 118.881 42.9641C119.144 42.4993 119.291 41.9764 119.495 41.5116C119.671 41.1049 119.904 40.6982 119.992 40.2625C120.021 40.0882 120.168 39.972 120.372 40.001C120.489 39.9429 120.635 39.972 120.664 39.7977Z" fill="#EE3D1F"/>
<path d="M164.511 69.7479C164.511 69.3412 164.511 68.9055 164.511 68.4988C164.511 68.3245 164.57 68.2373 164.745 68.2664C165.067 68.3245 165.447 68.0921 165.71 68.4116C165.71 68.4116 165.797 68.3826 165.856 68.3535C166.294 68.1792 166.733 68.063 167.113 68.4988C167.201 68.5859 167.259 68.5278 167.317 68.4697C167.61 68.2083 167.961 68.1792 168.341 68.2083C168.896 68.2664 169.188 68.5859 169.188 69.1379C169.188 69.7479 169.188 70.3289 169.188 70.939C169.188 71.1713 169.13 71.2585 168.867 71.2585C168.311 71.2585 168.311 71.2585 168.311 70.6775C168.311 70.2418 168.311 69.8351 168.311 69.3993C168.311 69.1088 168.224 68.8764 167.873 68.8764C167.551 68.8764 167.405 69.1088 167.405 69.3703C167.376 69.8932 167.376 70.387 167.405 70.9099C167.405 71.1713 167.347 71.2875 167.084 71.2294C166.996 71.2004 166.908 71.2294 166.791 71.2294C166.557 71.2585 166.528 71.1713 166.528 70.968C166.528 70.4451 166.528 69.9513 166.528 69.4284C166.528 69.1379 166.47 68.8764 166.119 68.8764C165.827 68.8474 165.651 69.0507 165.622 69.4284C165.622 69.9513 165.622 70.4451 165.622 70.968C165.622 71.1713 165.593 71.2875 165.359 71.2585C165.067 71.2294 164.687 71.3747 164.511 71.2004C164.365 71.0551 164.453 70.6775 164.453 70.387C164.511 70.2127 164.511 69.9803 164.511 69.7479Z" fill="#26221F"/>
<path d="M145.512 69.1668C145.512 68.5567 145.512 67.9758 145.512 67.3657C145.512 67.1624 145.57 67.0462 145.804 67.0752C146.652 67.0752 147.529 67.0752 148.377 67.0752C148.757 67.0752 148.581 67.3367 148.61 67.4819C148.64 67.6562 148.64 67.8015 148.377 67.8015C147.967 67.7724 147.558 67.8015 147.149 67.8015C146.944 67.8015 146.827 67.8305 146.857 68.092C146.886 68.9053 146.769 68.731 147.5 68.7601C147.646 68.7601 147.792 68.7891 147.909 68.7601C148.23 68.702 148.289 68.8472 148.289 69.1377C148.289 69.3992 148.23 69.5154 147.938 69.4863C147.675 69.4573 147.412 69.4863 147.149 69.4863C146.886 69.4573 146.857 69.5735 146.857 69.8059C146.857 70.6193 146.857 70.6193 147.646 70.6193C147.909 70.6193 148.172 70.6193 148.435 70.6193C148.727 70.6193 148.64 70.8226 148.64 70.9679C148.64 71.1131 148.757 71.3455 148.435 71.3455C147.529 71.3455 146.623 71.3455 145.717 71.3455C145.483 71.3455 145.512 71.2293 145.512 71.0841C145.512 70.4159 145.512 69.7768 145.512 69.1668Z" fill="#26221F"/>
<path d="M152.03 70.3871C152.03 70.9971 152.03 71.6072 152.03 72.2172C152.03 72.4206 151.971 72.4787 151.767 72.5077C150.89 72.5077 150.89 72.5368 150.89 71.6653C150.89 71.2586 150.89 71.2586 150.481 71.3457C149.662 71.52 149.107 71.1424 148.961 70.329C148.902 69.9513 148.902 69.5737 148.99 69.1961C149.136 68.5279 149.604 68.1793 150.247 68.2955C150.656 68.3827 151.007 68.3246 151.387 68.3246C152.03 68.3246 152.03 68.3246 152.03 68.9637C152.03 69.1961 152.03 69.4575 152.03 69.6899C152.03 69.8932 152.03 70.1256 152.03 70.3871ZM150.89 69.8351C150.89 69.6899 150.89 69.5446 150.89 69.4284C150.919 69.138 150.831 68.9637 150.539 68.9056C150.188 68.8475 149.925 68.9637 149.838 69.2832C149.75 69.6318 149.721 69.9804 149.838 70.2999C149.925 70.5904 150.188 70.7066 150.539 70.6776C150.861 70.6485 150.948 70.4742 150.89 70.1837C150.89 70.0675 150.89 69.9513 150.89 69.8351Z" fill="#241F1D"/>
<path d="M196.138 69.1962C196.138 69.8062 196.138 70.4163 196.138 71.0263C196.138 71.2296 196.08 71.3168 195.875 71.2877C195.554 71.2296 195.232 71.3749 194.94 71.2006C194.911 71.1715 194.794 71.2587 194.735 71.2877C193.975 71.5782 193.274 71.2296 193.098 70.4453C193.04 70.1258 193.011 69.8353 193.04 69.5157C193.127 68.5571 193.712 68.0923 194.647 68.2956C194.998 68.3537 195.027 68.2666 194.998 67.9761V67.947C194.998 67.0756 194.998 67.1046 195.846 67.1046C196.08 67.1046 196.138 67.1627 196.138 67.3951C196.138 67.9761 196.138 68.5861 196.138 69.1962ZM194.998 69.7772C194.998 69.661 194.969 69.5157 194.998 69.3995C195.057 69.08 194.911 68.9347 194.618 68.9057C194.297 68.8766 194.063 68.9347 193.946 69.2543C193.829 69.6029 193.829 69.9805 193.975 70.3291C194.063 70.6196 194.326 70.7358 194.647 70.6777C194.94 70.6196 195.057 70.4453 195.027 70.1548C194.998 70.0386 194.998 69.8934 194.998 69.7772Z" fill="#241F1D"/>
<path d="M157.583 70.3869C157.583 69.7769 157.583 69.1959 157.583 68.5859C157.583 68.3244 157.671 68.2373 157.904 68.2954C158.197 68.3535 158.518 68.1501 158.781 68.4116C158.84 68.4697 158.898 68.3825 158.957 68.3535C159.834 67.9758 160.506 68.3535 160.652 69.283C160.711 69.5735 160.711 69.8931 160.652 70.1836C160.564 71.0551 159.921 71.4908 159.044 71.2875C158.752 71.2003 158.635 71.2584 158.694 71.578C158.723 71.7813 158.694 71.9847 158.694 72.188C158.694 72.2461 158.723 72.3333 158.694 72.3623C158.431 72.6528 158.08 72.4204 157.758 72.4785C157.583 72.5075 157.554 72.3914 157.554 72.2461C157.583 71.6361 157.583 70.997 157.583 70.3869ZM158.723 69.8059C158.723 69.9802 158.723 70.1836 158.723 70.3579C158.723 70.445 158.723 70.5031 158.781 70.5903C159.044 70.8227 159.688 70.6774 159.775 70.3288C159.892 69.9802 159.863 69.6026 159.746 69.2249C159.629 68.9345 159.395 68.8473 159.103 68.9054C158.811 68.9345 158.664 69.0797 158.723 69.3992C158.723 69.5154 158.723 69.6607 158.723 69.8059Z" fill="#241F1D"/>
<path d="M182.137 69.9515C182.107 70.4163 182.02 70.9973 181.377 71.2587C180.646 71.5202 179.857 71.5783 179.214 71.0554C178.629 70.5615 178.687 69.8934 178.834 69.2253C178.95 68.6443 179.36 68.3538 179.915 68.2376C180.207 68.1795 180.5 68.1795 180.792 68.2085C181.786 68.2666 182.166 68.7605 182.137 69.9515ZM181.084 69.8353C181.055 69.6029 181.055 69.4577 181.026 69.2834C180.997 68.9638 180.821 68.7895 180.5 68.7895C180.178 68.7895 179.974 68.9348 179.886 69.2543C179.798 69.632 179.827 70.0096 179.915 70.3873C179.974 70.6487 180.178 70.7649 180.47 70.7649C180.763 70.7649 180.938 70.6196 180.997 70.3582C181.055 70.1839 181.055 69.9806 181.084 69.8353Z" fill="#241F1D"/>
<path d="M161.149 69.1963C161.295 68.441 161.324 68.3829 161.997 68.2667C162.377 68.2086 162.757 68.2086 163.137 68.2667C163.692 68.3829 163.955 68.7025 163.984 69.2544C163.984 69.8354 163.984 70.4164 163.984 70.9974C163.984 71.2007 163.926 71.2879 163.721 71.2879C163.517 71.2588 163.312 71.2879 163.107 71.2879C163.049 71.2879 162.991 71.3169 162.961 71.2879C162.757 70.9393 162.581 71.2588 162.406 71.2879C162.084 71.346 161.763 71.346 161.441 71.2007C161.12 71.0555 160.974 70.794 160.974 70.4454C160.974 70.0968 161.12 69.8354 161.441 69.6901C161.704 69.574 161.997 69.5159 162.289 69.4578C162.377 69.4287 162.464 69.4287 162.552 69.3997C162.698 69.3416 162.874 69.2544 162.844 69.0801C162.815 68.9058 162.64 68.8477 162.464 68.8187C161.997 68.8187 161.587 68.8768 161.149 69.1963ZM162.815 69.8935C162.552 70.0968 162.289 70.0678 162.026 70.184C161.851 70.2421 161.792 70.3873 161.821 70.5616C161.851 70.7069 161.997 70.7359 162.114 70.7359C162.669 70.7359 162.874 70.5035 162.815 69.8935Z" fill="#241F1D"/>
<path d="M155.537 69.7769C155.537 70.1836 155.537 70.6194 155.537 71.0261C155.537 71.2294 155.479 71.3166 155.274 71.2585C155.069 71.2004 154.777 71.4037 154.631 71.1132C154.602 71.0551 154.485 71.1423 154.426 71.1713C153.988 71.3456 153.579 71.3747 153.14 71.2294C152.76 71.1132 152.526 70.7937 152.526 70.387C152.526 69.7479 152.526 69.1088 152.526 68.4697C152.526 68.2954 152.585 68.2373 152.76 68.2373C153.666 68.2083 153.666 68.1792 153.666 69.0798C153.666 69.4284 153.666 69.7479 153.666 70.0965C153.666 70.5032 153.842 70.6775 154.193 70.6775C154.514 70.6775 154.689 70.4741 154.689 70.0965C154.689 69.5736 154.689 69.0798 154.689 68.5569C154.689 68.3245 154.748 68.2373 155.011 68.2373C155.566 68.2373 155.566 68.2373 155.566 68.7893C155.566 68.9345 155.566 69.0798 155.566 69.2541C155.537 69.4284 155.537 69.6027 155.537 69.7769Z" fill="#26221F"/>
<path d="M189.591 69.7769C189.591 69.3411 189.591 68.9344 189.591 68.4987C189.591 68.3244 189.649 68.2372 189.795 68.2663C190.117 68.3244 190.497 68.121 190.789 68.4115C190.818 68.4406 190.906 68.3534 190.965 68.3244C191.871 67.9177 192.631 68.4115 192.631 69.3702C192.631 69.8931 192.631 70.445 192.631 70.9679C192.631 71.2003 192.572 71.2584 192.338 71.2584C191.783 71.2584 191.783 71.2584 191.783 70.7064C191.783 70.2707 191.783 69.835 191.783 69.3992C191.783 69.0506 191.578 68.8473 191.228 68.8473C190.965 68.8473 190.731 69.0506 190.731 69.3702C190.731 69.8931 190.702 70.445 190.731 70.9679C190.731 71.2003 190.643 71.2874 190.409 71.2874C189.562 71.2874 189.562 71.2874 189.562 70.445C189.591 70.2126 189.591 70.0093 189.591 69.7769Z" fill="#26221F"/>
<path d="M210.199 69.1673C210.286 68.4992 210.374 68.412 210.988 68.2958C211.397 68.2087 211.806 68.2087 212.186 68.2958C212.742 68.412 213.005 68.7316 213.005 69.2835C213.005 69.8645 213.005 70.4455 213.005 71.0265C213.005 71.2298 212.946 71.317 212.742 71.2879C212.537 71.2589 212.333 71.2879 212.157 71.2879C212.04 71.2879 211.894 71.346 211.865 71.1427C211.836 71.0265 211.748 71.1427 211.69 71.1717C211.31 71.4041 210.9 71.4041 210.52 71.2298C210.17 71.0846 209.994 70.8231 209.994 70.4455C209.994 70.0679 210.17 69.8355 210.52 69.6902C210.725 69.6031 210.93 69.574 211.134 69.5159C211.31 69.4869 211.485 69.4288 211.631 69.3707C211.748 69.3126 211.894 69.2545 211.894 69.0802C211.865 68.9059 211.719 68.8478 211.573 68.8187C211.222 68.7606 210.842 68.7897 210.52 68.964C210.374 69.0511 210.286 69.1092 210.199 69.1673ZM211.865 69.9226C211.631 70.0969 211.339 70.0969 211.105 70.1841C210.959 70.2422 210.842 70.3583 210.9 70.5326C210.93 70.7069 211.076 70.736 211.222 70.736C211.69 70.7069 211.953 70.4745 211.865 69.9226Z" fill="#241F1D"/>
<path d="M172.432 70.4742C172.374 71.3166 172.403 71.1714 171.731 71.3166C171.439 71.4038 171.117 71.3747 170.795 71.3457C170.094 71.2585 169.714 70.9099 169.597 70.2418C169.539 69.8642 169.539 69.4575 169.655 69.0798C169.772 68.6731 170.035 68.4117 170.415 68.2955C170.825 68.1502 171.263 68.1502 171.702 68.2664C172.286 68.4117 172.754 69.3413 172.52 69.9513C172.462 70.0966 172.374 70.0675 172.257 70.0675C171.819 70.0675 171.38 70.0675 170.971 70.0675C170.708 70.0675 170.679 70.1547 170.737 70.3871C170.825 70.6776 171.059 70.8228 171.409 70.7938C171.789 70.7357 172.111 70.6485 172.432 70.4742ZM171.263 69.5446C171.409 69.4575 171.672 69.6899 171.731 69.4284C171.789 69.196 171.702 68.9636 171.409 68.8765C171.234 68.8184 171.088 68.8474 170.942 68.9346C170.766 69.0508 170.679 69.2541 170.737 69.4284C170.766 69.6027 170.971 69.4865 171.088 69.5156C171.146 69.5446 171.175 69.5446 171.263 69.5446Z" fill="#241F1D"/>
<path d="M199.646 69.7769C199.646 70.1836 199.646 70.6194 199.646 71.0261C199.646 71.2294 199.588 71.3166 199.383 71.2875C199.179 71.2294 198.916 71.4328 198.769 71.1423C198.74 71.0551 198.594 71.1713 198.506 71.2004C198.068 71.3456 197.629 71.4328 197.162 71.2585C196.811 71.1132 196.606 70.8808 196.577 70.5032C196.548 69.835 196.577 69.1669 196.548 68.4988C196.548 68.3535 196.606 68.2954 196.752 68.2954C196.782 68.2954 196.811 68.2954 196.811 68.2954C197.688 68.2954 197.688 68.2954 197.688 69.1378C197.688 69.4864 197.688 69.835 197.688 70.1836C197.688 70.5322 197.863 70.7065 198.185 70.7065C198.477 70.7065 198.711 70.5032 198.711 70.1836C198.74 69.6607 198.74 69.1669 198.711 68.644C198.711 68.3826 198.74 68.2373 199.062 68.2664C199.296 68.2954 199.617 68.1502 199.588 68.615C199.617 69.0217 199.646 69.3993 199.646 69.7769Z" fill="#241F1D"/>
<path d="M172.9 69.748C172.9 69.3413 172.9 68.9056 172.9 68.4989C172.9 68.3246 172.959 68.2374 173.134 68.2665C173.456 68.3246 173.806 68.0922 174.099 68.4117C174.099 68.4408 174.216 68.3536 174.274 68.3246C174.654 68.1503 175.034 68.1503 175.385 68.3246C175.706 68.4698 175.911 68.7313 175.94 69.1089C175.94 69.748 175.94 70.4161 175.94 71.0552C175.94 71.2295 175.882 71.2876 175.706 71.2876H175.677C174.946 71.2876 175.093 71.3457 175.063 70.7066C175.063 70.2999 175.063 69.8642 175.063 69.4575C175.063 69.0508 174.888 68.8765 174.537 68.8475C174.216 68.8475 174.011 69.0508 174.011 69.4575C174.011 69.9513 173.982 70.4161 174.011 70.91C174.011 71.2005 173.953 71.2876 173.66 71.2876C172.871 71.2586 172.871 71.2876 172.871 70.4742C172.9 70.2418 172.9 70.0094 172.9 69.748Z" fill="#241F1D"/>
<path d="M185.178 68.9926C184.768 68.8473 184.388 68.8183 184.008 68.8473C183.833 68.8473 183.658 68.8764 183.628 69.0797C183.599 69.3121 183.833 69.2831 183.979 69.3412C184.242 69.3993 184.505 69.4574 184.768 69.5155C185.119 69.6317 185.324 69.835 185.353 70.2127C185.353 70.6194 185.265 70.968 184.885 71.1423C184.213 71.4618 183.482 71.4327 182.81 71.1713C182.518 71.0842 182.635 70.7065 182.547 70.387C183.015 70.7356 183.424 70.7356 183.891 70.7065C184.067 70.6775 184.242 70.6484 184.271 70.416C184.301 70.2127 184.096 70.1546 183.95 70.1255C183.658 70.0384 183.395 69.9803 183.102 69.8931C182.722 69.7769 182.518 69.5155 182.518 69.1088C182.518 68.7311 182.722 68.4697 183.073 68.3535C183.687 68.1211 184.301 68.1501 184.915 68.2954C185.061 68.3535 185.09 68.4116 185.178 68.9926Z" fill="#241F1D"/>
<path d="M217.909 68.9926C217.5 68.8473 217.12 68.8183 216.74 68.8473C216.564 68.8473 216.389 68.8764 216.36 69.0797C216.331 69.3121 216.564 69.2831 216.711 69.3412C216.974 69.3993 217.237 69.4574 217.5 69.5155C217.851 69.6317 218.055 69.835 218.084 70.2127C218.084 70.6194 217.997 70.968 217.617 71.1423C216.944 71.4618 216.214 71.4327 215.541 71.1713C215.249 71.0842 215.366 70.7065 215.278 70.387C215.746 70.7356 216.155 70.7356 216.623 70.7065C216.798 70.6775 216.974 70.6484 217.003 70.416C217.032 70.2127 216.827 70.1546 216.681 70.1255C216.389 70.0384 216.126 69.9803 215.834 69.8931C215.454 69.7769 215.249 69.5155 215.249 69.1088C215.249 68.7311 215.454 68.4697 215.804 68.3535C216.418 68.1211 217.032 68.1501 217.646 68.2954C217.792 68.3535 217.821 68.4116 217.909 68.9926Z" fill="#241F1D"/>
<path d="M200.055 70.474C200.465 70.7064 200.874 70.7354 201.283 70.7064C201.488 70.7064 201.692 70.6773 201.692 70.4159C201.722 70.1835 201.517 70.1544 201.342 70.0963C201.108 70.0382 200.903 69.9801 200.669 69.922C200.202 69.7768 199.938 69.5153 199.938 69.1086C199.938 68.731 200.172 68.4405 200.64 68.2952C201.195 68.121 201.78 68.1209 202.365 68.2662C202.686 68.3533 202.569 68.7019 202.686 68.9634C202.277 68.8181 201.897 68.76 201.517 68.7891C201.342 68.7891 201.166 68.8181 201.137 69.0215C201.108 69.2539 201.342 69.2539 201.488 69.2829C201.722 69.341 201.955 69.3701 202.189 69.4282C202.598 69.5444 202.803 69.7768 202.832 70.1544C202.862 70.5902 202.686 70.9678 202.335 71.1131C201.663 71.4035 200.962 71.3745 200.289 71.1421C199.997 71.1131 200.143 70.7354 200.055 70.474Z" fill="#26221F"/>
<path d="M176.76 69.777C176.76 69.6608 176.76 69.5446 176.76 69.4284C176.76 69.138 176.818 68.8184 176.321 68.8765C176.087 68.9056 176.204 68.6441 176.175 68.5279C176.146 68.4117 176.146 68.2374 176.35 68.2665C176.76 68.3246 176.76 68.1212 176.76 67.8017C176.73 67.0464 176.76 67.0464 177.52 67.0464C177.841 67.0464 177.958 67.1335 177.9 67.424C177.87 67.5402 177.9 67.6855 177.9 67.8017C177.87 68.1212 177.9 68.3246 178.309 68.2665C178.572 68.2374 178.455 68.4698 178.484 68.586C178.484 68.7022 178.543 68.9056 178.309 68.8765C177.9 68.8184 177.87 69.0218 177.9 69.3123C177.929 69.6027 177.9 69.8932 177.9 70.1837C177.9 70.4161 177.987 70.6195 178.28 70.6485C178.63 70.6485 178.455 70.91 178.484 71.0552C178.513 71.2586 178.367 71.2586 178.221 71.2586C176.993 71.3457 176.76 71.0843 176.76 69.777Z" fill="#241F1D"/>
<path d="M203.652 69.7189C203.652 69.6027 203.652 69.4865 203.652 69.3704C203.681 69.0508 203.652 68.8184 203.242 68.8765C202.979 68.9056 203.096 68.6732 203.096 68.557C203.096 68.4408 203.038 68.2374 203.272 68.2665C203.71 68.3536 203.681 68.0631 203.681 67.8017C203.681 67.0464 203.681 67.0464 204.47 67.0464C204.762 67.0464 204.909 67.1045 204.85 67.424C204.821 67.5693 204.85 67.7145 204.85 67.8307C204.821 68.1212 204.879 68.3246 205.23 68.2665C205.493 68.2084 205.405 68.4117 205.405 68.5279C205.376 68.6441 205.552 68.9056 205.23 68.8765C204.821 68.8184 204.821 69.0508 204.821 69.3413C204.85 69.6318 204.821 69.9223 204.821 70.2128C204.821 70.4742 204.938 70.6485 205.201 70.6485C205.552 70.6485 205.347 70.91 205.376 71.0552C205.435 71.2295 205.318 71.2876 205.172 71.2586H205.142C203.885 71.3457 203.652 71.0843 203.652 69.7189Z" fill="#26221F"/>
<path d="M187.808 69.1668C187.808 68.5567 187.808 67.9467 187.808 67.3366C187.808 67.1333 187.867 67.0752 188.071 67.0752C188.422 67.1043 188.861 66.93 189.094 67.1333C189.299 67.3367 189.153 67.7724 189.153 68.0919C189.153 69.0506 189.153 70.0383 189.153 70.9969C189.153 71.2293 189.094 71.2874 188.861 71.2874C188.539 71.2583 188.101 71.4036 187.896 71.2293C187.662 71.055 187.838 70.5902 187.838 70.2707C187.808 69.893 187.808 69.5154 187.808 69.1668Z" fill="#241F1D"/>
<path d="M205.756 69.7769C205.756 69.3412 205.756 68.9345 205.756 68.4987C205.756 68.3244 205.814 68.2663 205.99 68.2663C206.224 68.2954 206.457 68.2663 206.691 68.2663H206.72C207.042 68.6149 207.334 68.2082 207.627 68.2373C207.802 68.2663 208.007 68.1211 208.094 68.4116C208.124 68.5568 208.211 68.7311 208.153 68.8473C208.065 69.0216 207.89 68.8764 207.744 68.8473C207.217 68.8183 206.896 69.1088 206.896 69.6317C206.896 70.0965 206.896 70.5903 206.896 71.0551C206.896 71.2294 206.837 71.2875 206.662 71.2875C205.756 71.3165 205.756 71.3165 205.756 70.416C205.756 70.2127 205.756 70.0093 205.756 69.7769Z" fill="#26221F"/>
<path d="M208.475 69.719C208.475 69.3123 208.475 68.9056 208.475 68.4989C208.475 68.3246 208.533 68.2665 208.708 68.2665C209.615 68.2374 209.615 68.2374 209.615 69.138C209.615 69.7771 209.615 70.3871 209.615 71.0262C209.615 71.2295 209.556 71.2876 209.351 71.2876C208.445 71.3167 208.445 71.3167 208.445 70.4161C208.475 70.1837 208.475 69.9513 208.475 69.719Z" fill="#26221F"/>
<path d="M214.671 69.7768C214.671 70.2125 214.671 70.6192 214.671 71.055C214.671 71.2293 214.613 71.2583 214.467 71.2874C213.531 71.3455 213.531 71.3455 213.531 70.4159C213.531 69.8058 213.531 69.1667 213.531 68.5567C213.531 68.3534 213.56 68.2662 213.794 68.2662C214.7 68.2662 214.7 68.2372 214.7 69.1668C214.671 69.3701 214.671 69.5734 214.671 69.7768Z" fill="#26221F"/>
<path d="M157.116 69.8062C157.116 70.2129 157.116 70.6196 157.116 71.0263C157.116 71.2297 157.057 71.2878 156.853 71.2878C155.976 71.3168 155.976 71.3168 155.976 70.4453C155.976 69.8062 155.976 69.1671 155.976 68.5281C155.976 68.3247 156.034 68.2666 156.239 68.2666C157.116 68.2666 157.116 68.2666 157.116 69.109C157.116 69.3705 157.116 69.6029 157.116 69.8062Z" fill="#241F1D"/>
<path d="M73.1062 76.7781C73.0185 76.9233 72.96 77.0686 73.2523 77.0395C73.3693 77.0395 73.4862 76.9524 73.6031 76.9233C74.0708 76.8071 74.5385 76.72 75.0354 76.6038C75.4446 76.5166 75.8831 76.4585 76.2923 76.2842C76.6139 76.139 76.9646 76.1971 77.2862 76.0518C77.8123 75.8485 78.397 75.7613 78.9523 75.6742C79.3908 75.587 79.7708 75.3256 80.2385 75.3256C80.56 75.3256 80.7647 75.0642 80.8231 74.7446C80.8523 74.6575 80.8231 74.5122 80.9693 74.5122C80.9693 74.7737 80.8523 74.977 80.7939 75.2094C80.7647 75.3837 80.6185 75.4127 80.4723 75.4418C78.66 75.8775 76.8477 76.2842 75.0062 76.72C73.6031 77.0395 72.2293 77.3591 70.8262 77.6786C71.5569 77.3591 72.3169 77.0395 73.1062 76.7781Z" fill="#CE312A"/>
<path d="M120.665 39.7978C120.636 40.0011 120.46 39.943 120.344 39.943C120.139 39.943 119.993 40.0302 119.964 40.2045C119.876 40.6402 119.642 41.0469 119.467 41.4536C119.262 41.9474 119.116 42.4413 118.853 42.9061C118.736 43.1094 118.97 43.2837 119.174 43.2256C119.496 43.1385 119.788 43.2547 120.11 43.2547C120.665 43.2256 121.191 43.2547 121.747 43.2547C121.688 43.3999 121.571 43.3418 121.484 43.3418C120.636 43.3418 119.788 43.3418 118.94 43.3418C118.648 43.3418 118.619 43.2547 118.707 43.0223C119.116 42.0055 119.496 40.9888 119.905 39.943C120.08 39.5944 120.402 39.8268 120.665 39.7978Z" fill="#CE312A"/>
<path d="M92.5452 16.7617C92.4282 17.2846 92.2528 17.7785 92.1652 18.3013C92.1067 18.5918 92.0775 18.9114 91.9898 19.2019C91.9313 19.4343 92.0482 19.4924 92.2821 19.4924C93.4221 19.4924 94.5329 19.4633 95.6729 19.5214C95.8482 19.5214 96.0529 19.2309 96.2575 19.5505C96.4621 19.8991 96.199 20.0734 96.0821 20.3058C96.0821 20.2767 96.0821 20.2477 96.0821 20.2477C96.2282 19.5795 96.2282 19.5795 95.5559 19.5795C94.5913 19.5795 93.5975 19.5795 92.6328 19.5795C92.3113 19.5795 92.019 19.6086 91.7852 19.87C91.8728 19.4343 91.9605 18.9985 92.0482 18.5337C92.1359 18.0689 92.2528 17.6042 92.3405 17.1394C92.3405 16.9941 92.3698 16.8489 92.5452 16.7617Z" fill="#043C7E"/>
<path d="M209.644 67.5983C209.644 67.8888 209.351 68.1212 209.001 68.0922C208.679 68.0631 208.416 67.8307 208.416 67.5693C208.416 67.2788 208.708 67.0464 209.03 67.0464C209.381 67.0754 209.673 67.3078 209.644 67.5983Z" fill="#26221F"/>
<path d="M156.531 68.121C156.18 68.121 155.917 67.8595 155.947 67.569C155.976 67.3076 156.239 67.0752 156.56 67.0752C156.882 67.0752 157.174 67.3366 157.174 67.5981C157.145 67.8886 156.853 68.121 156.531 68.121Z" fill="#26221F"/>
<path d="M214.086 68.121C213.765 68.121 213.502 67.8886 213.473 67.6271C213.473 67.3366 213.736 67.0752 214.086 67.0752C214.437 67.0752 214.7 67.3076 214.7 67.5981C214.671 67.8886 214.408 68.121 214.086 68.121Z" fill="#241F1D"/>
<path d="M96.0522 20.4219C96.0815 20.9157 95.9061 21.3515 95.7891 21.8163C95.6722 22.281 95.5845 22.7458 95.4676 23.1816C95.2922 23.8207 95.2922 24.4888 94.9999 25.0989C94.883 25.3603 94.8245 25.6798 94.8245 25.9703C94.8245 26.2318 94.6199 26.4642 94.6491 26.7256C94.6199 26.7256 94.5615 26.7256 94.5322 26.7256C94.8245 25.5636 95.0876 24.4017 95.3799 23.2397C95.5553 22.281 95.8184 21.3515 96.0522 20.4219Z" fill="#043C7E"/>
<path d="M155.011 61.6144C155.215 61.1786 155.391 60.7429 155.654 60.3652C155.625 60.7719 155.391 61.1786 155.478 61.6144C155.332 61.4401 155.186 61.6144 155.011 61.6144Z" fill="#FCFBF9"/>
<path d="M94.1818 28.062C94.0941 28.5559 94.2403 29.1078 93.8311 29.5145C93.9187 29.0206 94.0064 28.5268 94.1818 28.062Z" fill="#043C7E"/>
<path d="M120.724 59.3193C120.753 59.0578 120.987 58.8835 121.104 58.6802C121.016 58.9707 121.133 59.2902 120.87 59.5517C120.841 59.4645 120.782 59.4064 120.724 59.3193Z" fill="#FCFBF9"/>
<path d="M122.915 41.7443C122.915 41.6862 122.886 41.6281 122.915 41.599C123.178 41.2795 123.325 40.8147 123.763 40.6113C123.5 41.018 123.237 41.3957 122.915 41.7443Z" fill="#CE312A"/>
<path d="M94.4741 26.8711C94.591 27.2487 94.4449 27.5683 94.2402 27.8878C94.2695 27.5392 94.3572 27.2197 94.4741 26.8711Z" fill="#043C7E"/>
<path d="M124.173 40.0595C124.114 39.9723 124.085 39.8852 124.026 39.769C124.143 39.7399 124.289 39.6818 124.348 39.798C124.377 39.9142 124.289 40.0304 124.173 40.0595Z" fill="#CE312A"/>
<path d="M123.734 40.6406C123.676 40.4082 123.851 40.3501 123.997 40.292C123.968 40.4372 123.88 40.5534 123.734 40.6406Z" fill="#CE312A"/>
<path d="M124.026 40.2624C124.026 40.1753 124.026 40.0591 124.173 40.0591C124.143 40.1462 124.114 40.2334 124.026 40.2624Z" fill="#CE312A"/>
<path d="M70.6214 77.7944L70.5924 77.7656L70.5635 77.7944H70.6214Z" fill="#CE312A"/>
<path d="M92.6306 16.7324C92.6017 16.7611 92.5728 16.7611 92.5439 16.7898C92.5439 16.7324 92.5728 16.7324 92.6306 16.7324Z" fill="#043C7E"/>
<path d="M18.9121 4.9964C19.5552 4.64781 20.2275 4.38636 20.8998 4.12492C21.4844 3.89252 22.1275 3.71822 22.7121 3.51488C22.946 3.42773 23.1506 3.36963 23.4137 3.36963C22.186 3.77632 20.9583 4.18302 19.7598 4.67686C19.4675 4.76401 19.2044 4.88021 18.9121 4.9964Z" fill="#043C7E"/>
<path d="M27.916 2.41137C28.0622 2.32422 28.2376 2.26612 28.4129 2.26612C29.5237 2.26612 30.6345 2.12087 31.7453 2.20802C32.2422 2.23707 32.7099 2.26612 33.2068 2.26612C33.3237 2.26612 33.4406 2.29517 33.5283 2.41137C32.2129 2.29517 30.9268 2.20802 29.6114 2.29517C29.0268 2.29517 28.4714 2.35327 27.916 2.41137Z" fill="#043C7E"/>
<path d="M17.7713 5.22923C18.0636 5.46162 18.239 5.14208 18.4729 5.11303C18.5606 5.11303 18.6482 5.02588 18.7652 5.02588C18.1221 5.31637 17.479 5.63592 16.8359 5.92641C17.1282 5.69402 17.4206 5.43257 17.7713 5.22923Z" fill="#043C7E"/>
<path d="M23.4434 3.34069C23.7064 3.22449 23.9695 3.10829 24.2618 3.07924C24.7003 3.02114 25.1387 2.84685 25.548 2.73065C25.7526 2.67255 25.928 2.7016 26.1326 2.7016C25.2557 2.90495 24.3495 3.13734 23.4434 3.34069Z" fill="#043C7E"/>
<path d="M35.5732 2.81787C36.1579 2.90502 36.7132 3.07932 37.2394 3.36981C36.684 3.16647 36.1286 2.99217 35.5732 2.81787Z" fill="#043C7E"/>
<path d="M33.7324 2.43994C34.2878 2.46899 34.8724 2.52709 35.3986 2.78854C34.8432 2.64329 34.2878 2.55614 33.7324 2.43994Z" fill="#043C7E"/>
<path d="M27.0098 2.52718C27.2144 2.46908 27.419 2.35288 27.6236 2.44003C27.419 2.49813 27.2144 2.55623 27.0098 2.52718Z" fill="#043C7E"/>
<path d="M26.249 2.67235C26.4536 2.49805 26.6875 2.5852 26.9213 2.55615C26.6875 2.61425 26.4829 2.67235 26.249 2.67235Z" fill="#043C7E"/>
<path d="M38.2637 3.80566C38.4683 3.83471 38.6437 3.89281 38.7898 4.06711C38.5852 4.00901 38.4098 3.92186 38.2637 3.80566Z" fill="#043C7E"/>
<path d="M39.958 4.76416C40.1042 4.85131 40.2795 4.85131 40.3672 5.02561C40.2211 4.96751 40.0749 4.88036 39.958 4.76416Z" fill="#043C7E"/>
<path d="M37.2402 3.36963C37.3572 3.39868 37.5325 3.31153 37.5618 3.51488C37.4448 3.48583 37.3279 3.45678 37.2402 3.36963Z" fill="#043C7E"/>
<path d="M39.5195 4.4736C39.6657 4.4736 39.8118 4.44455 39.8118 4.6479C39.6949 4.61885 39.6072 4.5898 39.5195 4.4736Z" fill="#043C7E"/>
<path d="M37.8828 3.63086C37.9997 3.63086 38.1167 3.63086 38.1751 3.77611C38.0874 3.74706 37.9705 3.71801 37.8828 3.63086Z" fill="#043C7E"/>
<path d="M38.79 4.06689C38.907 4.06689 38.9947 4.09594 39.0531 4.21214C38.9362 4.18309 38.8485 4.15404 38.79 4.06689Z" fill="#043C7E"/>
<path d="M40.5723 5.17041C40.66 5.17041 40.7769 5.17041 40.7769 5.31566C40.6892 5.31566 40.6307 5.25756 40.5723 5.17041Z" fill="#043C7E"/>
<path d="M39.0527 4.2124C39.1404 4.2124 39.2573 4.2124 39.2573 4.3286C39.1697 4.29955 39.082 4.29955 39.0527 4.2124Z" fill="#043C7E"/>
<path d="M37.6201 3.51507C37.7078 3.51507 37.8247 3.48602 37.854 3.63126C37.7663 3.60222 37.6786 3.60222 37.6201 3.51507Z" fill="#043C7E"/>
<path d="M40.3682 5.02588C40.4559 5.02588 40.5435 5.08398 40.5728 5.17113C40.4851 5.17113 40.4266 5.11303 40.3682 5.02588Z" fill="#043C7E"/>
<path d="M40.7773 5.31592C40.8358 5.34497 40.982 5.25782 40.9235 5.43212C40.865 5.43212 40.8066 5.37402 40.7773 5.31592Z" fill="#043C7E"/>
<path d="M39.2861 4.35742C39.3446 4.38647 39.4031 4.41552 39.4323 4.44457C39.3738 4.44457 39.3446 4.41552 39.2861 4.35742Z" fill="#043C7E"/>
</svg>
