<svg width="70" height="70" viewBox="0 0 70 70" fill="none" xmlns="http://www.w3.org/2000/svg">
<path d="M46.667 23.3333H23.3337V17.4999H46.667V23.3333ZM46.667 29.1666H23.3337V34.9999H46.667V29.1666ZM58.3337 11.6666V46.6666L40.8337 64.1666H17.5003C15.9532 64.1666 14.4695 63.552 13.3755 62.458C12.2816 61.3641 11.667 59.8804 11.667 58.3333V11.6666C11.667 10.1195 12.2816 8.63576 13.3755 7.5418C14.4695 6.44783 15.9532 5.83325 17.5003 5.83325H52.5003C54.0474 5.83325 55.5312 6.44783 56.6251 7.5418C57.7191 8.63576 58.3337 10.1195 58.3337 11.6666ZM52.5003 40.8333V11.6666H17.5003V58.3333H35.0003V46.6666C35.0003 45.1195 35.6149 43.6358 36.7089 42.5418C37.8028 41.4478 39.2866 40.8333 40.8337 40.8333H52.5003Z" fill="white"/>
</svg>
